0
SECTION
2
HEADER
9
$INSUNITS
70
4
9
$ACADVER
1
AC1014
9
$HANDSEED
5
FFFF
0
ENDSEC
0
SECTION
2
TABLES
0
TABLE
2
VPORT
5
8
100
AcDbSymbolTable
0
ENDTAB
0
TABLE
2
LTYPE
5
5
100
AcDbSymbolTable
0
LTYPE
5
14
100
AcDbSymbolTableRecord
100
AcDbLinetypeTableRecord
2
BYBLOCK
70
0
0
LTYPE
5
15
100
AcDbSymbolTableRecord
100
AcDbLinetypeTableRecord
2
BYLAYER
70
0
0
ENDTAB
0
TABLE
2
LAYER
5
2
100
AcDbSymbolTable
70
2
0
LAYER
5
50
100
AcDbSymbolTableRecord
100
AcDbLayerTableRecord
2
0
70
0
6
CONTINUOUS
0
ENDTAB
0
TABLE
2
STYLE
5
3
100
AcDbSymbolTable
70
1
0
STYLE
5
11
100
AcDbSymbolTableRecord
100
AcDbTextStyleTableRecord
2
STANDARD
70
0
0
ENDTAB
0
TABLE
2
VIEW
5
6
100
AcDbSymbolTable
70
0
0
ENDTAB
0
TABLE
2
UCS
5
7
100
AcDbSymbolTable
70
0
0
ENDTAB
0
TABLE
2
APPID
5
9
100
AcDbSymbolTable
70
2
0
APPID
5
12
100
AcDbSymbolTableRecord
100
AcDbRegAppTableRecord
2
ACAD
70
0
0
ENDTAB
0
TABLE
2
DIMSTYLE
5
A
100
AcDbSymbolTable
70
1
0
ENDTAB
0
TABLE
2
BLOCK_RECORD
5
1
100
AcDbSymbolTable
70
1
0
BLOCK_RECORD
5
1F
100
AcDbSymbolTableRecord
100
AcDbBlockTableRecord
2
*MODEL_SPACE
0
BLOCK_RECORD
5
1B
100
AcDbSymbolTableRecord
100
AcDbBlockTableRecord
2
*PAPER_SPACE
0
ENDTAB
0
ENDSEC
0
SECTION
2
BLOCKS
0
BLOCK
5
20
100
AcDbEntity
100
AcDbBlockBegin
2
*MODEL_SPACE
0
ENDBLK
5
21
100
AcDbEntity
100
AcDbBlockEnd
0
BLOCK
5
1C
100
AcDbEntity
100
AcDbBlockBegin
2
*PAPER_SPACE
0
ENDBLK
5
1D
100
AcDbEntity
100
AcDbBlockEnd
0
ENDSEC
0
SECTION
2
ENTITIES
0
LINE
5
100
100
AcDbEntity
8
0
100
AcDbLine
10
-13.008167623812705
20
16.315019142982372
30
0
11
-13.008167623812705
21
14.31501914298237
31
0
0
CIRCLE
5
101
100
AcDbEntity
8
0
100
AcDbCircle
10
7.1444217919531283
20
2.138772508506932
30
0
40
1.1499999999999997
210
0
220
0
230
1
0
ARC
5
102
100
AcDbEntity
8
0
100
AcDbCircle
10
-12.208167623812704
20
-13.684980857017628
30
0
40
0.7999999999999996
210
0
220
0
230
1
100
AcDbArc
50
-0.04255645638825141
51
180
0
LINE
5
103
100
AcDbEntity
8
0
100
AcDbLine
10
-18.008167623812703
20
16.315019142982372
30
0
11
-13.008167623812705
21
16.315019142982372
31
0
0
LINE
5
104
100
AcDbEntity
8
0
100
AcDbLine
10
-18.008167623812703
20
16.315019142982372
30
0
11
-18.008167623812703
21
12.315019142982377
31
0
0
LINE
5
105
100
AcDbEntity
8
0
100
AcDbLine
10
11.79181274853452
20
16.346220604400791
30
0
11
16.791812748534525
21
16.346220604400791
31
0
0
ARC
5
106
100
AcDbEntity
8
0
100
AcDbCircle
10
-24.096246120164682
20
6.120229661987997
30
0
40
8.6856270062432479
210
0
220
0
230
1
100
AcDbArc
50
-45.497761210177764
51
45.49776121017775
0
LWPOLYLINE
5
107
100
AcDbEntity
8
0
100
AcDbPolyline
90
4
70
1
43
0.0
10
-8.1611967650815007
20
-0.30779382419169166
42
-0.25466085117884424
10
-12.463836277886211
20
2.1465157713233247
42
1.0602387682343999
10
-14.348412366597936
20
0.83490832249297631
42
0.25463625799386441
10
-8.1158105302628183
20
-2.6068283307614109
42
1.0214427229207539
0
LINE
5
108
100
AcDbEntity
8
0
100
AcDbLine
10
16.791812748534525
20
-11.653778199768448
30
0
11
16.791812748534525
21
-15.653779395633693
31
0
0
LINE
5
109
100
AcDbEntity
8
0
100
AcDbLine
10
11.79181274853452
20
-15.653779395633693
30
0
11
16.791812748534525
21
-15.653779395633693
31
0
0
ARC
5
110
100
AcDbEntity
8
0
100
AcDbCircle
10
10.991812748534519
20
-13.653779395633697
30
0
40
0.80000000000000071
210
0
220
0
230
1
100
AcDbArc
50
0
51
182.2777964658143
0
ARC
5
111
100
AcDbEntity
8
0
100
AcDbCircle
10
10.992062190040317
20
14.326244513981569
30
0
40
0.80000000000057425
210
0
220
0
230
1
100
AcDbArc
50
-179.156613175518
51
1.4308308052437095
0
LINE
5
112
100
AcDbEntity
8
0
100
AcDbLine
10
11.79181274853452
20
-13.653779395633697
30
0
11
11.79181274853452
21
-15.653779395633693
31
0
0
ARC
5
113
100
AcDbEntity
8
0
100
AcDbCircle
10
-12.208167623812704
20
14.31501914298237
30
0
40
0.80000000000000071
210
0
220
0
230
1
100
AcDbArc
50
180
51
359.960601606019
0
CIRCLE
5
114
100
AcDbEntity
8
0
100
AcDbCircle
10
9.8069168409195395
20
1.5485115668378269
30
0
40
1.1499999999999977
210
0
220
0
230
1
0
LINE
5
115
100
AcDbEntity
8
0
100
AcDbLine
10
-18.008167623812703
20
12.315019142982377
30
0
11
-18.008167623812703
21
14.315019142982377
31
0
0
CIRCLE
5
116
100
AcDbEntity
8
0
100
AcDbCircle
10
-8.0721375227774583
20
4.8364009072308525
30
0
40
1.05
210
0
220
0
230
1
0
LINE
5
117
100
AcDbEntity
8
0
100
AcDbLine
10
-18.008167623812703
20
-13.684980857017628
30
0
11
-18.008167623812703
21
-0.074559819006387862
31
0
0
LINE
5
118
100
AcDbEntity
8
0
100
AcDbLine
10
-13.008167623812705
20
-15.684980857017635
30
0
11
-18.008167623812703
21
-15.684980857017628
31
0
0
LINE
5
119
100
AcDbEntity
8
0
100
AcDbLine
10
-13.008167623812703
20
-13.684980857017628
30
0
11
-13.008167623812705
21
-15.684980857017635
31
0
0
LINE
5
120
100
AcDbEntity
8
0
100
AcDbLine
10
11.791812748534953
20
14.346220604400781
30
0
11
11.79181274853452
21
16.346220604400791
31
0
0
LINE
5
121
100
AcDbEntity
8
0
100
AcDbLine
10
16.791812748534525
20
14.368514761840537
30
0
11
16.791812748534518
21
-0.27865893860078206
31
0
0
LINE
5
122
100
AcDbEntity
8
0
100
AcDbLine
10
-18.008167623812703
20
14.315019142982377
30
0
11
-18.008167623812703
21
16.315019142982372
31
0
0
LINE
5
123
100
AcDbEntity
8
0
100
AcDbLine
10
-18.008167623812703
20
-15.684980857017628
30
0
11
-18.008167623812703
21
-13.684980857017628
31
0
0
CIRCLE
5
124
100
AcDbEntity
8
0
100
AcDbCircle
10
7.1444217919531372
20
-4.1612274914930669
30
0
40
1.0499999999999994
210
0
220
0
230
1
0
LINE
5
125
100
AcDbEntity
8
0
100
AcDbLine
10
16.791812748534525
20
-15.653779395633693
30
0
11
16.791812748534525
21
-11.653778199768448
31
0
0
LINE
5
126
100
AcDbEntity
8
0
100
AcDbLine
10
-7.4081678129476325
20
13.314469037669632
30
0
11
-7.4081678129476325
21
11.046357399990502
31
0
0
LWPOLYLINE
5
127
100
AcDbEntity
8
0
100
AcDbPolyline
90
12
70
1
43
0.0
10
7.6352016250386834
20
6.1036460073962884
10
7.7012433524411072
20
7.5070327146976794
42
-0.40050662760994254
10
8.5003590078292177
20
8.2694272720911766
10
13.72124130575218
20
8.2694272720911748
42
-0.41421356237309664
10
14.521241305752179
20
7.4694272720911759
10
14.521241305752179
20
4.3474204394505005
42
-0.68736311329699529
10
13.126605988754447
20
3.8122486541525413
10
12.753336936846775
20
4.2269920451610643
42
0.12874994439998197
10
12.414754392642733
20
4.4497364673324142
10
10.123062290059746
20
5.2239567722590987
42
0.081630372476982377
10
9.867009517266057
20
5.2660405647897868
10
8.434317280426793
20
5.2660405647897868
42
-0.42805464863321274
0
ARC
5
128
100
AcDbEntity
8
0
100
AcDbCircle
10
7.1924448508138994
20
-12.685575057188565
30
0
40
0.99999999999999867
210
0
220
0
230
1
100
AcDbArc
50
180
51
270
0
LWPOLYLINE
5
129
100
AcDbEntity
8
0
100
AcDbPolyline
90
12
70
1
43
0.0
10
5.7489820919028611
20
-7.495215853815516
10
-3.7522966508031601
20
-2.091932734960336
42
0.57517914836351369
10
-4.9477713498133156
20
-2.7873461101860562
10
-4.9477713498133147
20
-3.3681270922628181
42
-0.41421356237309442
10
-5.7477713498133145
20
-4.168127092262818
10
-11.13076678864245
20
-4.168127092262818
42
-0.13052020391575428
10
-11.527677939327914
20
-4.0627216059623841
10
-14.103710849002056
20
-2.590702800434308
42
0.57586700140227298
10
-15.300621999687525
20
-3.285297314133873
10
-15.300621999687529
20
-8.2141588639893666
42
0.41507321775177741
10
-14.50062549032994
20
-9.0165062312124604
10
5.4750309850706191
20
-9.0165062312124586
42
0.76786217044983662
0
LINE
5
130
100
AcDbEntity
8
0
100
AcDbLine
10
10.192444850813896
20
-13.685575057188561
30
0
11
7.1924448508138994
21
-13.685575057188563
31
0
0
ARC
5
131
100
AcDbEntity
8
0
100
AcDbCircle
10
-8.4081678444838843
20
-12.685575057188565
30
0
40
0.99999999999999867
210
0
220
0
230
1
100
AcDbArc
50
-90
51
0
0
LWPOLYLINE
5
132
100
AcDbEntity
8
0
100
AcDbPolyline
90
14
70
1
43
0.0
10
-5.5073287248167082
20
6.5991813749334574
10
-4.4658967141109764
20
5.3345853619336374
42
-0.24091310859364876
10
-4.3096561303010699
20
4.6229010569150768
10
-4.7511715394620007
20
2.9409375934448572
42
0.40469321924632135
10
-4.2056286437844195
20
1.971069036424824
10
1.9022723976124678
20
0.15290314503226293
42
0.40649727661150681
10
2.8909681048638758
20
0.67123828131830432
10
4.3408482540776285
20
5.1096469013604109
42
0.079098999133888931
10
4.3803944234521852
20
5.3580618193647211
10
4.3803944234521852
20
7.6107631171406531
42
0.41421356237309687
10
3.5803944234521849
20
8.4107631171406521
10
-4.8897845363230665
20
8.4107631171406521
42
0.41421356237309687
10
-5.6897845363230681
20
7.6107631171406522
10
-5.6897845363230681
20
7.1077471772223344
42
0.17395454467502405
0
ARC
5
133
100
AcDbEntity
8
0
100
AcDbCircle
10
-6.5339854288117296
20
11.47702909968854
30
0
40
0.99999999999998068
210
0
220
0
230
1
100
AcDbArc
50
212.57068127529948
51
296.64443597390056
0
LINE
5
134
100
AcDbEntity
8
0
100
AcDbLine
10
6.1921488583858517
20
13.314469037669632
30
0
11
6.1921488583858499
21
11.05369470601455
31
0
0
LINE
5
135
100
AcDbEntity
8
0
100
AcDbLine
10
-5.6022162800481103
20
-10.917982256401061
30
0
11
4.5349296328055697
21
-10.917982256401055
31
0
0
LINE
5
136
100
AcDbEntity
8
0
100
AcDbLine
10
16.791812748534525
20
16.346220604400791
30
0
11
16.791812748534525
21
14.368514761840537
31
0
0
LINE
5
137
100
AcDbEntity
8
0
100
AcDbLine
10
-7.4081678444838861
20
-12.685575057188565
30
0
11
-7.3977226360329205
21
-11.397830123566454
31
0
0
ARC
5
138
100
AcDbEntity
8
0
100
AcDbCircle
10
7.1921488583858526
20
13.314469037669632
30
0
40
1.0000000000000009
210
0
220
-0
230
1
100
AcDbArc
50
90
51
180
0
ARC
5
139
100
AcDbEntity
8
0
100
AcDbCircle
10
-6.4536882319595001
20
-11.727677124361534
30
0
40
1.0000000000038818
210
0
220
-0
230
1
100
AcDbArc
50
64.802742815493971
51
160.74051067118393
0
ARC
5
140
100
AcDbEntity
8
0
100
AcDbCircle
10
-8.4081678129476334
20
13.314469037669632
30
0
40
1.0000000000000009
210
0
220
0
230
1
100
AcDbArc
50
0
51
90
0
LINE
5
141
100
AcDbEntity
8
0
100
AcDbLine
10
-11.408167812947635
20
14.314469037669749
30
0
11
-8.4081678129476334
21
14.314469037669632
31
0
0
LINE
5
142
100
AcDbEntity
8
0
100
AcDbLine
10
10.192148858385853
20
14.314469037669637
30
0
11
7.1921488583858526
21
14.314469037669632
31
0
0
ARC
5
143
100
AcDbEntity
8
0
100
AcDbCircle
10
5.2608287976957566
20
-11.781599814380714
30
0
40
0.99999999999958256
210
0
220
-0
230
1
100
AcDbArc
50
22.644097470883885
51
111.28145086269897
0
ARC
5
144
100
AcDbEntity
8
0
100
AcDbCircle
10
20.561680302359694
20
-5.9662185691846128
30
0
40
6.8235061313690277
210
0
220
0
230
1
100
AcDbArc
50
123.53748836131193
51
236.4625116386882
0
LINE
5
145
100
AcDbEntity
8
0
100
AcDbLine
10
-5.6370805927121603
20
10.689415686508635
30
0
11
4.5381306131495824
21
10.689415686508767
31
0
0
LINE
5
146
100
AcDbEntity
8
0
100
AcDbLine
10
6.1924448508139012
20
-12.685575057188565
30
0
11
6.1837429700229745
21
-11.396594060505876
31
0
0
LINE
5
147
100
AcDbEntity
8
0
100
AcDbLine
10
-11.408167844483888
20
-13.68557505718856
30
0
11
-8.4081678444838843
21
-13.685575057188563
31
0
0
ARC
5
148
100
AcDbEntity
8
0
100
AcDbCircle
10
5.3143135962066266
20
11.532657389816478
30
0
40
1.0000000000000024
210
0
220
0
230
1
100
AcDbArc
50
247.16420155624152
51
331.38232484618158
0
CIRCLE
5
149
100
AcDbEntity
8
0
100
AcDbCircle
10
11.144421791953135
20
-4.1612274914930669
30
0
40
1.0499999999999994
210
0
220
0
230
1
0
CIRCLE
5
150
100
AcDbEntity
8
0
100
AcDbCircle
10
-12.072137522777457
20
4.8364009072308525
30
0
40
1.05
210
0
220
0
230
1
0
ARC
5
151
100
AcDbEntity
8
0
100
AcDbCircle
10
-5.6370805927121594
20
9.6894156865084806
30
0
40
1.000000000000153
210
0
220
0
230
1
100
AcDbArc
50
90.000000000000057
51
116.64443597390057
0
ARC
5
152
100
AcDbEntity
8
0
100
AcDbCircle
10
4.5381306131495833
20
9.689415686508708
30
0
40
1.0000000000000633
210
0
220
-0
230
1
100
AcDbArc
50
67.164201556241665
51
90.000000000000057
0
ARC
5
153
100
AcDbEntity
8
0
100
AcDbCircle
10
4.5349296328055697
20
-9.917982256401034
30
0
40
1.000000000000022
210
0
220
0
230
1
100
AcDbArc
50
270
51
291.28145086269899
0
ARC
5
154
100
AcDbEntity
8
0
100
AcDbCircle
10
-5.6022162800481103
20
-9.9179822564044269
30
0
40
0.99999999999664002
210
0
220
0
230
1
100
AcDbArc
50
244.80274281549407
51
270
0
ARC
5
155
100
AcDbEntity
8
0
100
AcDbCircle
10
-7.2081678129476323
20
11.046357399990502
30
0
40
0.20000000000000018
210
0
220
0
230
1
100
AcDbArc
50
180
51
212.57068127529965
0
ENDSEC
0
SECTION
2
OBJECTS
0
DICTIONARY
5
C
100
AcDbDictionary
3
ACAD_GROUP
350
D
3
ACAD_MLINESTYLE
350
17
0
DICTIONARY
5
D
100
AcDbDictionary
0
DICTIONARY
5
1A
330
C
100
AcDbDictionary
0
DICTIONARY
5
17
100
AcDbDictionary
0
ENDSEC
0
EOF
