0
SECTION
2
HEADER
9
$INSUNITS
70
4
9
$ACADVER
1
AC1014
9
$HANDSEED
5
FFFF
0
ENDSEC
0
SECTION
2
TABLES
0
TABLE
2
VPORT
5
8
100
AcDbSymbolTable
0
ENDTAB
0
TABLE
2
LTYPE
5
5
100
AcDbSymbolTable
0
LTYPE
5
14
100
AcDbSymbolTableRecord
100
AcDbLinetypeTableRecord
2
BYBLOCK
70
0
0
LTYPE
5
15
100
AcDbSymbolTableRecord
100
AcDbLinetypeTableRecord
2
BYLAYER
70
0
0
ENDTAB
0
TABLE
2
LAYER
5
2
100
AcDbSymbolTable
70
2
0
LAYER
5
50
100
AcDbSymbolTableRecord
100
AcDbLayerTableRecord
2
0
70
0
6
CONTINUOUS
0
ENDTAB
0
TABLE
2
STYLE
5
3
100
AcDbSymbolTable
70
1
0
STYLE
5
11
100
AcDbSymbolTableRecord
100
AcDbTextStyleTableRecord
2
STANDARD
70
0
0
ENDTAB
0
TABLE
2
VIEW
5
6
100
AcDbSymbolTable
70
0
0
ENDTAB
0
TABLE
2
UCS
5
7
100
AcDbSymbolTable
70
0
0
ENDTAB
0
TABLE
2
APPID
5
9
100
AcDbSymbolTable
70
2
0
APPID
5
12
100
AcDbSymbolTableRecord
100
AcDbRegAppTableRecord
2
ACAD
70
0
0
ENDTAB
0
TABLE
2
DIMSTYLE
5
A
100
AcDbSymbolTable
70
1
0
ENDTAB
0
TABLE
2
BLOCK_RECORD
5
1
100
AcDbSymbolTable
70
1
0
BLOCK_RECORD
5
1F
100
AcDbSymbolTableRecord
100
AcDbBlockTableRecord
2
*MODEL_SPACE
0
BLOCK_RECORD
5
1B
100
AcDbSymbolTableRecord
100
AcDbBlockTableRecord
2
*PAPER_SPACE
0
ENDTAB
0
ENDSEC
0
SECTION
2
BLOCKS
0
BLOCK
5
20
100
AcDbEntity
100
AcDbBlockBegin
2
*MODEL_SPACE
0
ENDBLK
5
21
100
AcDbEntity
100
AcDbBlockEnd
0
BLOCK
5
1C
100
AcDbEntity
100
AcDbBlockBegin
2
*PAPER_SPACE
0
ENDBLK
5
1D
100
AcDbEntity
100
AcDbBlockEnd
0
ENDSEC
0
SECTION
2
ENTITIES
0
LWPOLYLINE
5
100
100
AcDbEntity
8
0
100
AcDbPolyline
90
6
70
1
43
0.0
10
-81.71375069501515
20
7.3995347353304988
42
0.30591604687870166
10
-89.546385769926474
20
7.3995347353304979
42
0.47152701455804114
10
-89.71173455886246
20
5.6792654411024177
10
-86.422027827399731
20
2.3895587096396693
42
0.41421356237308798
10
-84.838108637541893
20
2.3895587096396511
10
-81.548401906079135
20
5.6792654411024115
42
0.47152701455803075
0
LWPOLYLINE
5
101
100
AcDbEntity
8
0
100
AcDbPolyline
90
6
70
1
43
0.0
10
-74.961748399369256
20
0.67620682419388012
10
-78.286215795775092
20
3.9307816486982095
42
0.47152701455803397
10
-80.004631537490013
20
3.7471679093078185
42
0.30591604687870555
10
-79.921426094750188
20
-4.0850252108232867
42
0.47152701455802204
10
-78.199497379672266
20
-4.2320903897639646
10
-74.944922555167949
20
-0.907622993358149
42
0.41421356237309498
0
LWPOLYLINE
5
102
100
AcDbEntity
8
0
100
AcDbPolyline
90
6
70
1
43
0.0
10
-40.022899458166854
20
-6.9543532681504185
42
0.6681786379193031
10
-38.315792676980287
20
-6.2472464869638689
10
-38.315792676980287
20
6.2674721387975518
42
0.66817863791930165
10
-40.022899458166833
20
6.974578919984098
10
-46.280258771047535
20
0.71721960710338994
42
0.41421356237309137
10
-46.280258771047535
20
-0.69699395526970243
0
ARC
5
103
100
AcDbEntity
8
0
100
AcDbCircle
10
7.1650332316084271e-05
20
39.348698197678495
30
0
40
20.000000000000004
210
0
220
0
230
1
100
AcDbArc
50
235.41324098956446
51
304.58656085932461
0
ARC
5
104
100
AcDbEntity
8
0
100
AcDbCircle
10
24.431999465876562
20
-24.460555337715174
30
0
40
6.1455000000000028
210
0
220
0
230
1
100
AcDbArc
50
235.16463818197323
51
359.99999019088762
0
LWPOLYLINE
5
105
100
AcDbEntity
8
0
100
AcDbPolyline
90
4
70
1
43
0.0
10
-108.84916622858665
20
-3.9955626826710828
10
-108.15457351791895
20
-7.9347936947198932
42
0.99999999999999989
10
-105.69255413538841
20
-7.5006732505525875
10
-106.38714684605605
20
-3.5614422385037532
42
0.99999999999999989
0
ARC
5
106
100
AcDbEntity
8
0
100
AcDbCircle
10
-112.00865522822953
20
-13.804305419676277
30
0
40
1.6000000000023289
210
0
220
-0
230
1
100
AcDbArc
50
11.549578995221383
51
27.69386134626485
0
ARC
5
107
100
AcDbEntity
8
0
100
AcDbCircle
10
-24.446802745962515
20
24.446802745962501
30
0
40
6.1455000000000002
210
0
220
0
230
-1
100
AcDbArc
50
55.413381454403471
51
202.33832148076561
0
ARC
5
108
100
AcDbEntity
8
0
100
AcDbCircle
10
-36.796560381768842
20
19.150591323039734
30
0
40
2.999999999999956
210
0
220
0
230
1
100
AcDbArc
50
269.9999999999996
51
302.42696880557389
0
CIRCLE
5
109
100
AcDbEntity
8
0
100
AcDbCircle
10
15.250000000000005
20
-15.250000000000005
30
0
40
3.0499999999999994
210
0
220
0
230
1
0
LWPOLYLINE
5
110
100
AcDbEntity
8
0
100
AcDbPolyline
90
10
70
1
43
0.0
10
-96.787061522404059
20
-4.502437723754932
42
-0.28286751654745979
10
-96.757668307882142
20
4.7272283803972286
42
0.55751102609839387
10
-97.608122696816309
20
6.4323155511023629
42
0.14232265400499025
10
-98.189967913806342
20
6.2042485384711679
42
-0.1114335712624364
10
-99.308241984604436
20
5.685469429633482
42
0.26799416952850724
10
-100.13839187611168
20
4.9333950509318472
42
0.15666549932085927
10
-100.1404755543726
20
-4.7018685010999199
42
0.26800567097565431
10
-99.310604031812204
20
-5.4543120123464019
42
-0.11139269246512008
10
-98.192890348058697
20
-5.9732506871601583
42
0.13887347130666619
10
-97.626177407058222
20
-6.1999706361212157
42
0.5510096752166489
0
LINE
5
111
100
AcDbEntity
8
0
100
AcDbLine
10
30.131118107964667
20
22.111052520594569
30
0
11
23.913887914366697
21
11.401365400557516
31
0
0
LWPOLYLINE
5
112
100
AcDbEntity
8
0
100
AcDbPolyline
90
6
70
1
43
0.0
10
-55.022899458166847
20
-8.0254210800159047
42
0.6681786379192981
10
-54.315792676980301
20
-9.7325278612024455
10
-45.315792676980287
20
-9.7325278612024562
42
0.66817863791929322
10
-44.608685895793727
20
-8.0254210800159065
10
-49.108685895793762
20
-3.5254210800159003
42
0.41421356237308815
10
-50.522899458166819
20
-3.5254210800159003
0
LINE
5
113
100
AcDbEntity
8
0
100
AcDbLine
10
-95.705765788810282
20
15.350591323039788
30
0
11
-44.801735895396789
21
15.350591323039772
31
0
0
LWPOLYLINE
5
114
100
AcDbEntity
8
0
100
AcDbPolyline
90
4
70
1
43
0.0
10
-108.84916622858671
20
4.0652063052800909
42
0.99999999999999989
10
-106.3871468460562
20
3.631085861112747
10
-105.69255413538839
20
7.5703168731616604
42
0.99999999999999989
10
-108.15457351791893
20
8.0044373173288914
0
LWPOLYLINE
5
115
100
AcDbEntity
8
0
100
AcDbPolyline
90
6
70
1
43
0.0
10
-59.608685895793769
20
6.9745789199841077
42
0.66817863791930132
10
-61.315792676980294
20
6.2674721387975563
10
-61.315792676980294
20
-6.2472464869638733
42
0.66817863791930165
10
-59.608685895793769
20
-6.9543532681504239
10
-53.351326582913032
20
-0.69699395526970809
42
0.41421356237309137
10
-53.351326582913032
20
0.71721960710338428
0
LWPOLYLINE
5
116
100
AcDbEntity
8
0
100
AcDbPolyline
90
6
70
1
43
0.0
10
-44.608685895793712
20
8.0456467318495726
42
0.66817863791929344
10
-45.315792676980266
20
9.7527535130361205
10
-54.315792676980273
20
9.7527535130361169
42
0.66817863791929799
10
-55.022899458166812
20
8.0456467318495584
10
-50.522899458166819
20
3.5456467318495761
42
0.41421356237309459
10
-49.108685895793741
20
3.5456467318495788
0
ARC
5
117
100
AcDbEntity
8
0
100
AcDbCircle
10
-95.705765788810282
20
-16.083258765966548
30
0
40
0.80000000000000071
210
0
220
-0
230
1
100
AcDbArc
50
90
51
180
0
LWPOLYLINE
5
118
100
AcDbEntity
8
0
100
AcDbPolyline
90
6
70
1
43
0.0
10
-4.5067167712281684
20
-0.80301000134852085
42
0.41421356237308599
10
-4.5065636608683759
20
0.78090918110909457
10
-7.7962504223632187
20
4.0712320026035931
42
0.47153771067371997
10
-9.5165576272938921
20
3.9060170141768378
42
0.30591575937633786
10
-9.5170447562396472
20
-3.9269863780646403
42
0.47151663987950515
10
-7.7968127247632424
20
-4.0924699387403765
0
LINE
5
119
100
AcDbEntity
8
0
100
AcDbLine
10
-11.352998429901344
20
22.883346705733253
30
0
11
-20.958187157648847
21
29.506246970773677
31
0
0
CIRCLE
5
120
100
AcDbEntity
8
0
100
AcDbCircle
10
10
20
10
30
0
40
1.4750000000000001
210
0
220
0
230
1
0
CIRCLE
5
121
100
AcDbEntity
8
0
100
AcDbCircle
10
-10
20
10
30
0
40
1.4750000000000001
210
0
220
0
230
1
0
LINE
5
122
100
AcDbEntity
8
0
100
AcDbLine
10
-35.187887913535029
20
-16.559879213491779
30
0
11
-35.33423391356947
21
-16.47651567603954
31
0
0
CIRCLE
5
123
100
AcDbEntity
8
0
100
AcDbCircle
10
-15.250000000000005
20
-15.250000000000005
30
0
40
3.0499999999999998
210
0
220
0
230
1
0
ARC
5
124
100
AcDbEntity
8
0
100
AcDbCircle
10
-24.432000000007172
20
-24.46054678201925
30
0
40
6.1455000000000162
210
0
220
0
230
-1
100
AcDbArc
50
157.48855998047486
51
304.8353448082612
0
LWPOLYLINE
5
125
100
AcDbEntity
8
0
100
AcDbPolyline
90
6
70
1
43
0.0
10
-93.137044756239675
20
-3.9269863780646426
42
0.47151663987951342
10
-91.416812724763219
20
-4.092469938740404
10
-88.126716771228189
20
-0.80301000134852207
42
0.41421356237308649
10
-88.126563660868385
20
0.78090918110908791
10
-91.416250422363248
20
4.0712320026036029
42
0.47153771067371741
10
-93.136557627293882
20
3.9060170141768138
42
0.30591575937633425
0
ARC
5
126
100
AcDbEntity
8
0
100
AcDbCircle
10
-36.819121270616385
20
-19.083258765966566
30
0
40
3.0000000000000115
210
0
220
-0
230
1
100
AcDbArc
50
60.332725566442512
51
90
0
ARC
5
127
100
AcDbEntity
8
0
100
AcDbCircle
10
-24.43231794214455
20
-24.460562366246812
30
0
40
6.1456244477477293
210
0
220
0
230
1
100
AcDbArc
50
174.54692080600006
51
304.83526654888442
0
LINE
5
128
100
AcDbEntity
8
0
100
AcDbLine
10
-30.100379003450044
20
-15.001590524455281
30
0
11
-30.098260215882249
21
-15.001590718105755
31
0
0
LWPOLYLINE
5
129
100
AcDbEntity
8
0
100
AcDbPolyline
90
6
70
1
43
0.0
10
3.9062493049848577
20
9.3995347353304997
42
0.30591604687870455
10
-3.9263857699264317
20
9.3995347353304997
42
0.47152701455804114
10
-4.091734558862469
20
7.6792654411024186
10
-0.80202782739973344
20
4.3895587096396724
42
0.41421356237309748
10
0.78189136245813806
20
4.3895587096396529
10
4.0715980939208771
20
7.6792654411024142
42
0.47152701455803508
0
ARC
5
130
100
AcDbEntity
8
0
100
AcDbCircle
10
24.446804449975801
20
24.446779073640151
30
0
40
6.145500000000407
210
0
220
0
230
1
100
AcDbArc
50
-0.017344621297012173
51
124.58656085932479
0
LWPOLYLINE
5
131
100
AcDbEntity
8
0
100
AcDbPolyline
90
6
70
1
43
0.0
10
10.087872425660739
20
3.9052953428721566
42
0.47151663987950798
10
8.3676403941843347
20
4.0707789035478879
10
5.0775444406492571
20
0.78131896615603247
42
0.41421356237308554
10
5.0773913302894647
20
-0.80260021630158329
10
8.3670780917843111
20
-4.0929230377960826
42
0.47153771067372091
10
10.087385296714988
20
-3.9277080493693228
42
0.30591575937633853
0
LWPOLYLINE
5
132
100
AcDbEntity
8
0
100
AcDbPolyline
90
6
70
1
43
0.0
10
-0.89056068548125644
20
-4.390265228290648
10
-4.1802674169439848
20
-7.6799719597533933
42
0.47152701455803864
10
-4.0149186280079716
20
-9.4002412539814824
42
0.30591604687870461
10
3.8177164469032827
20
-9.4002412539814841
42
0.47152701455804802
10
3.9830652358393079
20
-7.6799719597533933
10
0.69335850437659652
20
-4.3902652282906676
42
0.41421356237309503
0
LINE
5
133
100
AcDbEntity
8
0
100
AcDbLine
10
-36.819121270616385
20
-16.083258765966555
30
0
11
-44.002263442088854
21
-16.083258765966548
31
0
0
LINE
5
134
100
AcDbEntity
8
0
100
AcDbLine
10
-30.550129474314414
20
-25.044584548705746
30
0
11
-30.550129474314414
21
-25.000635426287534
31
0
0
ARC
5
135
100
AcDbEntity
8
0
100
AcDbCircle
10
-44.801735895396789
20
16.150591323039773
30
0
40
0.80000000000000071
210
0
220
0
230
1
100
AcDbArc
50
-90
51
0
0
CIRCLE
5
136
100
AcDbEntity
8
0
100
AcDbCircle
10
-28.256768038717127
20
-11.826240722120405
30
0
40
1.5000000000000002
210
0
220
0
230
1
0
ARC
5
137
100
AcDbEntity
8
0
100
AcDbCircle
10
-107.2518698732528
20
12.900591323039761
30
0
40
3.2500000000000173
210
0
220
-0
230
1
100
AcDbArc
50
90
51
168.43095470989704
0
CIRCLE
5
138
100
AcDbEntity
8
0
100
AcDbCircle
10
-28.251883001004664
20
11.934964241091508
30
0
40
1.5000000000000002
210
0
220
0
230
1
0
CIRCLE
5
139
100
AcDbEntity
8
0
100
AcDbCircle
10
-107.25685889459497
20
-12.833258765966482
30
0
40
1.5000000000000002
210
0
220
0
230
1
0
ARC
5
140
100
AcDbEntity
8
0
100
AcDbCircle
10
-44.802263442088858
20
-16.083258765966548
30
0
40
0.80000000000000071
210
0
220
0
230
1
100
AcDbArc
50
0
51
90
0
CIRCLE
5
141
100
AcDbEntity
8
0
100
AcDbCircle
10
10
20
-10
30
0
40
1.4750000000000001
210
0
220
0
230
1
0
ARC
5
142
100
AcDbEntity
8
0
100
AcDbCircle
10
-40.550129474314396
20
-25.000635426287534
30
0
40
9.9999999999999822
210
0
220
0
230
1
100
AcDbArc
50
0
51
57.573031194426179
0
LINE
5
143
100
AcDbEntity
8
0
100
AcDbLine
10
-44.001735895396791
20
16.150591323039773
30
0
11
-36.796560381768863
21
16.150591323039777
31
0
0
ARC
5
144
100
AcDbEntity
8
0
100
AcDbCircle
10
-95.705765788810282
20
16.150591323039773
30
0
40
0.79999999999998295
210
0
220
0
230
1
100
AcDbArc
50
180
51
270
0
LINE
5
145
100
AcDbEntity
8
0
100
AcDbLine
10
-96.50576578881028
20
-16.083258765966548
30
0
11
-107.25685889459497
21
-16.083258765966587
31
0
0
LWPOLYLINE
5
146
100
AcDbEntity
8
0
100
AcDbPolyline
90
6
70
1
43
0.0
10
-86.510560685481281
20
-2.3902652282906232
10
-89.800267416943996
20
-5.6799719597533986
42
0.47152701455805646
10
-89.634918628007966
20
-7.4002412539814744
42
0.30591604687870139
10
-81.802283553096771
20
-7.4002412539814779
42
0.47152701455804086
10
-81.636934764160699
20
-5.6799719597533969
10
-84.926641495623443
20
-2.3902652282906756
42
0.41421356237310442
0
ARC
5
147
100
AcDbEntity
8
0
100
AcDbCircle
10
-112.00333601862752
20
13.873252347940152
30
0
40
1.6000000000002714
210
0
220
0
230
1
100
AcDbArc
50
332.28411588284632
51
348.43095470989641
0
CIRCLE
5
148
100
AcDbEntity
8
0
100
AcDbCircle
10
-59.796249443178262
20
10.028270183282045
30
0
40
1.0500000000000027
210
0
220
0
230
1
0
ARC
5
149
100
AcDbEntity
8
0
100
AcDbCircle
10
-24.446701766552632
20
24.446856091086197
30
0
40
6.1455000000000046
210
0
220
-0
230
1
100
AcDbArc
50
55.413240989564578
51
173.29181264405972
0
ARC
5
150
100
AcDbEntity
8
0
100
AcDbCircle
10
-107.25685889459497
20
-12.833258765966482
30
0
40
3.2500000000000986
210
0
220
0
230
1
100
AcDbArc
50
191.54957899520676
51
270
0
CIRCLE
5
151
100
AcDbEntity
8
0
100
AcDbCircle
10
-107.2518698732528
20
12.900591323039761
30
0
40
1.5000000000000002
210
0
220
0
230
1
0
ARC
5
152
100
AcDbEntity
8
0
100
AcDbCircle
10
40.343803037936922
20
-0.0029271698862742834
30
0
40
20.000000000000032
210
0
220
0
230
1
100
AcDbArc
50
145.2348061911793
51
214.7514149855748
0
LINE
5
153
100
AcDbEntity
8
0
100
AcDbLine
10
-44.802263442088858
20
-15.283258765966547
30
0
11
-95.705765788810282
21
-15.283258765966547
31
0
0
ARC
5
154
100
AcDbEntity
8
0
100
AcDbCircle
10
-40.550129474314438
20
25.059120671996808
30
0
40
10.000000000000004
210
0
220
0
230
1
100
AcDbArc
50
-57.573031194426115
51
0
0
LINE
5
155
100
AcDbEntity
8
0
100
AcDbLine
10
-107.2518698732528
20
16.150591323039777
30
0
11
-96.505765788810265
21
16.150591323039773
31
0
0
CIRCLE
5
156
100
AcDbEntity
8
0
100
AcDbCircle
10
-59.796249443178262
20
-9.9717298167179518
30
0
40
1.0500000000000016
210
0
220
0
230
1
0
LINE
5
157
100
AcDbEntity
8
0
100
AcDbLine
10
11.353084786902624
20
22.883307442495603
30
0
11
20.958307338435915
21
29.506182017939299
31
0
0
CIRCLE
5
158
100
AcDbEntity
8
0
100
AcDbCircle
10
-24.5
20
24.5
30
0
40
1.4500000000000004
210
0
220
0
230
1
0
CIRCLE
5
159
100
AcDbEntity
8
0
100
AcDbCircle
10
-24.5
20
-24.5
30
0
40
1.4499999999999993
210
0
220
0
230
1
0
CIRCLE
5
160
100
AcDbEntity
8
0
100
AcDbCircle
10
0
20
0
30
0
40
1.4750000000000001
210
0
220
0
230
1
0
CIRCLE
5
161
100
AcDbEntity
8
0
100
AcDbCircle
10
24.5
20
24.5
30
0
40
1.4500000000000002
210
0
220
0
230
1
0
CIRCLE
5
162
100
AcDbEntity
8
0
100
AcDbCircle
10
-10
20
-10
30
0
40
1.4750000000000001
210
0
220
0
230
1
0
CIRCLE
5
163
100
AcDbEntity
8
0
100
AcDbCircle
10
-39.796249443178269
20
10.028270183282045
30
0
40
1.0500000000000045
210
0
220
0
230
1
0
CIRCLE
5
164
100
AcDbEntity
8
0
100
AcDbCircle
10
24.5
20
-24.5
30
0
40
1.4499999999999984
210
0
220
0
230
1
0
LINE
5
165
100
AcDbEntity
8
0
100
AcDbLine
10
30.577499465876471
20
-24.460556391623413
30
0
11
30.57749986243179
21
-24.459246420925432
31
0
0
ARC
5
166
100
AcDbEntity
8
0
100
AcDbCircle
10
-2.8416063309357452e-05
20
-39.311283907380115
30
0
40
19.999999999999975
210
0
220
-0
230
1
100
AcDbArc
50
55.164638181973231
51
124.83526654888415
0
ARC
5
167
100
AcDbEntity
8
0
100
AcDbCircle
10
-30.14226016667191
20
17.057655272370912
30
0
40
2.0000000000000053
210
0
220
0
230
1
100
AcDbArc
50
269.99644865004063
51
270.07484931317151
0
ARC
5
168
100
AcDbEntity
8
0
100
AcDbCircle
10
-85.652451963100745
20
0.029408710095514826
30
0
40
28.166106516924437
210
0
220
0
230
1
100
AcDbArc
50
152.28411588284328
51
207.69386134627237
0
LINE
5
169
100
AcDbEntity
8
0
100
AcDbLine
10
-30.550129474314435
20
25.059120671996808
30
0
11
-30.550129474314431
21
25.50000037997961
31
0
0
LINE
5
170
100
AcDbEntity
8
0
100
AcDbLine
10
23.911145818697285
20
-11.403268248773898
30
0
11
30.10923198315453
21
-22.107632151283806
31
0
0
CIRCLE
5
171
100
AcDbEntity
8
0
100
AcDbCircle
10
-39.796249443178269
20
-9.9717298167179518
30
0
40
1.0500000000000027
210
0
220
0
230
1
0
CIRCLE
5
172
100
AcDbEntity
8
0
100
AcDbCircle
10
-15.250000000000005
20
15.250000000000005
30
0
40
3.0499999999999994
210
0
220
0
230
1
0
LINE
5
173
100
AcDbEntity
8
0
100
AcDbLine
10
-11.424406239322053
20
-22.895328517838127
30
0
11
-20.921821159598224
21
-29.504877205002067
31
0
0
LINE
5
174
100
AcDbEntity
8
0
100
AcDbLine
10
11.424376702977142
20
-22.895347513861736
30
0
11
20.921565382923397
21
-29.504762193033542
31
0
0
CIRCLE
5
175
100
AcDbEntity
8
0
100
AcDbCircle
10
15.250000000000005
20
15.250000000000005
30
0
40
3.0499999999999994
210
0
220
0
230
1
0
LWPOLYLINE
5
176
100
AcDbEntity
8
0
100
AcDbPolyline
90
8
70
1
43
0.0
10
-69.853735895396852
20
12.255000000000042
10
-71.853735895396781
20
12.25500000000004
42
0.99999999999999989
10
-73.453735895396761
20
12.255000000000022
10
-73.45373589539679
20
10.055000000000081
42
0.99999999999999989
10
-71.853735895396795
20
10.055000000000081
10
-69.853735895396824
20
10.055000000000078
42
0.99999999999999989
10
-68.253735895396858
20
10.055000000000069
10
-68.253735895396872
20
12.255000000000065
42
0.99999999999999989
0
LWPOLYLINE
5
177
100
AcDbEntity
8
0
100
AcDbPolyline
90
8
70
1
43
0.0
10
-101.65373589539682
20
10.054999999999774
10
-99.653735895396807
20
10.054999999999779
42
0.99999999999999989
10
-98.053735895396841
20
10.054999999999769
10
-98.053735895396812
20
12.254999999999765
42
0.99999999999999989
10
-99.653735895396878
20
12.254999999999743
10
-101.65373589539684
20
12.25499999999974
42
0.99999999999999989
10
-103.2537358953968
20
12.254999999999722
10
-103.25373589539682
20
10.05499999999973
42
0.99999999999999989
0
LWPOLYLINE
5
178
100
AcDbEntity
8
0
100
AcDbPolyline
90
8
70
1
43
0.0
10
-98.053735895396841
20
-10.054999999999769
42
0.99999999999999989
10
-99.653735895396807
20
-10.054999999999779
10
-101.65373589539682
20
-10.054999999999774
42
0.99999999999999989
10
-103.25373589539682
20
-10.05499999999973
10
-103.25373589539679
20
-12.254999999999729
42
0.99999999999999989
10
-101.65373589539685
20
-12.254999999999734
10
-99.653735895396878
20
-12.254999999999743
42
0.99999999999999989
10
-98.053735895396812
20
-12.254999999999765
0
LWPOLYLINE
5
179
100
AcDbEntity
8
0
100
AcDbPolyline
90
8
70
1
43
0.0
10
-73.453735895396761
20
-12.255000000000022
42
0.99999999999999989
10
-71.853735895396781
20
-12.25500000000004
10
-69.853735895396866
20
-12.255000000000047
42
0.99999999999999989
10
-68.253735895396858
20
-12.255000000000059
10
-68.253735895396858
20
-10.055000000000069
42
0.99999999999999989
10
-69.853735895396824
20
-10.055000000000078
10
-71.853735895396795
20
-10.055000000000081
42
0.99999999999999989
10
-73.45373589539679
20
-10.055000000000081
0
ENDSEC
0
SECTION
2
OBJECTS
0
DICTIONARY
5
C
100
AcDbDictionary
3
ACAD_GROUP
350
D
3
ACAD_MLINESTYLE
350
17
0
DICTIONARY
5
D
100
AcDbDictionary
0
DICTIONARY
5
1A
330
C
100
AcDbDictionary
0
DICTIONARY
5
17
100
AcDbDictionary
0
ENDSEC
0
EOF
