0
SECTION
2
HEADER
9
$INSUNITS
70
4
9
$ACADVER
1
AC1014
9
$HANDSEED
5
FFFF
0
ENDSEC
0
SECTION
2
TABLES
0
TABLE
2
VPORT
5
8
100
AcDbSymbolTable
0
ENDTAB
0
TABLE
2
LTYPE
5
5
100
AcDbSymbolTable
0
LTYPE
5
14
100
AcDbSymbolTableRecord
100
AcDbLinetypeTableRecord
2
BYBLOCK
70
0
0
LTYPE
5
15
100
AcDbSymbolTableRecord
100
AcDbLinetypeTableRecord
2
BYLAYER
70
0
0
ENDTAB
0
TABLE
2
LAYER
5
2
100
AcDbSymbolTable
70
2
0
LAYER
5
50
100
AcDbSymbolTableRecord
100
AcDbLayerTableRecord
2
0
70
0
6
CONTINUOUS
0
ENDTAB
0
TABLE
2
STYLE
5
3
100
AcDbSymbolTable
70
1
0
STYLE
5
11
100
AcDbSymbolTableRecord
100
AcDbTextStyleTableRecord
2
STANDARD
70
0
0
ENDTAB
0
TABLE
2
VIEW
5
6
100
AcDbSymbolTable
70
0
0
ENDTAB
0
TABLE
2
UCS
5
7
100
AcDbSymbolTable
70
0
0
ENDTAB
0
TABLE
2
APPID
5
9
100
AcDbSymbolTable
70
2
0
APPID
5
12
100
AcDbSymbolTableRecord
100
AcDbRegAppTableRecord
2
ACAD
70
0
0
ENDTAB
0
TABLE
2
DIMSTYLE
5
A
100
AcDbSymbolTable
70
1
0
ENDTAB
0
TABLE
2
BLOCK_RECORD
5
1
100
AcDbSymbolTable
70
1
0
BLOCK_RECORD
5
1F
100
AcDbSymbolTableRecord
100
AcDbBlockTableRecord
2
*MODEL_SPACE
0
BLOCK_RECORD
5
1B
100
AcDbSymbolTableRecord
100
AcDbBlockTableRecord
2
*PAPER_SPACE
0
ENDTAB
0
ENDSEC
0
SECTION
2
BLOCKS
0
BLOCK
5
20
100
AcDbEntity
100
AcDbBlockBegin
2
*MODEL_SPACE
0
ENDBLK
5
21
100
AcDbEntity
100
AcDbBlockEnd
0
BLOCK
5
1C
100
AcDbEntity
100
AcDbBlockBegin
2
*PAPER_SPACE
0
ENDBLK
5
1D
100
AcDbEntity
100
AcDbBlockEnd
0
ENDSEC
0
SECTION
2
ENTITIES
0
CIRCLE
5
100
100
AcDbEntity
8
0
100
AcDbCircle
10
-33.251883001004657
20
11.934964241091508
30
0
40
1.5500000000000005
210
0
220
0
230
1
0
CIRCLE
5
101
100
AcDbEntity
8
0
100
AcDbCircle
10
-33.256768038717127
20
-11.826240722120405
30
0
40
1.5500000000000005
210
0
220
0
230
1
0
LWPOLYLINE
5
102
100
AcDbEntity
8
0
100
AcDbPolyline
90
6
70
1
43
0.0
10
-3.5463857699264176
20
7.399534735330489
42
0.47152701455804008
10
-3.7117345588624655
20
5.6792654411024204
10
-0.42202782739972011
20
2.389558709639676
42
0.41421356237309553
10
1.1618913624581433
20
2.389558709639652
10
4.4515980939208877
20
5.6792654411024142
42
0.47152701455804025
10
4.2862493049848549
20
7.3995347353304961
42
0.30591604687870433
0
LWPOLYLINE
5
103
100
AcDbEntity
8
0
100
AcDbPolyline
90
8
70
1
43
0.0
10
-43.453735895396775
20
-10.934887159709888
10
-43.453735895396797
20
-13.134887159709832
42
0.99999999999999989
10
-41.853735895396781
20
-13.134887159709844
10
-39.853735895396824
20
-13.134887159709836
42
0.99999999999999989
10
-38.253735895396858
20
-13.134887159709844
10
-38.253735895396844
20
-10.934887159709861
42
0.99999999999999989
10
-39.853735895396831
20
-10.93488715970987
10
-41.853735895396795
20
-10.934887159709865
42
0.99999999999999989
0
LWPOLYLINE
5
104
100
AcDbEntity
8
0
100
AcDbPolyline
90
6
70
1
43
0.0
10
-2.1265636608683725
20
0.78090918110909457
10
-5.4162504223632251
20
4.0712320026035957
42
0.47153771067371847
10
-7.1365576272938958
20
3.9060170141768378
42
0.3059157593763373
10
-7.1370447562396366
20
-3.9269863780646395
42
0.47151663987949943
10
-5.4168127247632309
20
-4.0924699387403765
10
-2.1267167712281498
20
-0.80301000134851919
42
0.41421356237309209
0
LWPOLYLINE
5
105
100
AcDbEntity
8
0
100
AcDbPolyline
90
6
70
1
43
0.0
10
4.1977164469032893
20
-7.4002412539814744
42
0.47152701455804402
10
4.3630652358393203
20
-5.6799719597533924
10
1.0733585043765979
20
-2.3902652282906671
42
0.41421356237309509
10
-0.51056068548125222
20
-2.3902652282906485
10
-3.8002674169439832
20
-5.6799719597533924
42
0.47152701455804064
10
-3.6349186280079597
20
-7.4002412539814788
42
0.3059160468787045
0
LWPOLYLINE
5
106
100
AcDbEntity
8
0
100
AcDbPolyline
90
6
70
1
43
0.0
10
11.055077444832078
20
-0.90762299335814745
42
0.41421356237309737
10
11.038251600630755
20
0.67620682419387901
10
7.7137842042249281
20
3.930781648698213
42
0.47152701455803353
10
5.9953684625100134
20
3.7471679093078283
42
0.30591604687870472
10
6.0785739052498702
20
-4.0850252108232885
42
0.47152701455803353
10
7.8005026203277339
20
-4.2320903897639566
0
LINE
5
107
100
AcDbEntity
8
0
100
AcDbLine
10
52.616711546554818
20
-11.916190637284048
30
0
11
44.655591455694278
21
-12.70395132353385
31
0
0
LWPOLYLINE
5
108
100
AcDbEntity
8
0
100
AcDbPolyline
90
12
70
1
43
0.0
10
-37.25649055446776
20
-9.0552712935778086
42
0.33845074667389191
10
-36.098505296545547
20
-8.1700253919384593
42
-0.1078509389435142
10
-35.433545092475988
20
-6.8936011935517962
42
0.1755565352645084
10
-35.155100055617908
20
-6.1250073802092153
10
-35.155100055617922
20
5.8397670296504351
42
0.17523409630159825
10
-35.432584101450594
20
6.6072071343535654
42
-0.10753449534128839
10
-36.094841518261219
20
7.8803865271917779
42
0.33845074667389002
10
-37.252826776183426
20
8.7656324288311342
10
-37.416671758639325
20
8.7656324288311271
42
0.41421356237309287
10
-38.616671758639328
20
7.5656324288311252
10
-38.616671758639342
20
-7.8552712935778066
42
0.41421356237309614
10
-37.416671758639325
20
-9.0552712935778157
0
LWPOLYLINE
5
109
100
AcDbEntity
8
0
100
AcDbPolyline
90
8
70
1
43
0.0
10
-71.653735895396807
20
13.065112840290126
42
0.99999999999999989
10
-73.253735895396787
20
13.065112840290114
10
-73.253735895396787
20
10.865112840290148
42
0.99999999999999989
10
-71.653735895396807
20
10.865112840290161
10
-69.653735895396821
20
10.86511284029017
42
0.99999999999999989
10
-68.053735895396855
20
10.865112840290161
10
-68.053735895396827
20
13.065112840290148
42
0.99999999999999989
10
-69.653735895396849
20
13.065112840290134
0
LINE
5
110
100
AcDbEntity
8
0
100
AcDbLine
10
-70.653735613300242
20
-8.7122385781900924
30
0
11
-78.295381630272146
21
-8.6989156963498822
31
0
0
LWPOLYLINE
5
111
100
AcDbEntity
8
0
100
AcDbPolyline
90
8
70
1
43
0.0
10
-52.414290944462401
20
8.7197783101177588
42
0.41421356237309664
10
-54.014290944462431
20
7.1197783101177574
10
-54.014290944462438
20
-7.1260131617840949
42
0.4142135623730977
10
-52.414290944462401
20
-8.7260131617840919
10
-46.15067875923841
20
-8.7260131617840955
42
0.41421356237309825
10
-44.550678759238409
20
-7.1260131617840949
10
-44.550678759238409
20
7.1197783101177592
42
0.41421356237309892
10
-46.15067875923841
20
8.7197783101177606
0
LWPOLYLINE
5
112
100
AcDbEntity
8
0
100
AcDbPolyline
90
4
70
1
43
0.0
10
64.556640335983303
20
3.0040242177917236
42
0.99999999999999989
10
62.056640335983325
20
3.0040242177917369
10
62.056640335983317
20
-2.9959757822082684
42
0.99999999999999989
10
64.556640335983317
20
-2.995975782208264
0
ARC
5
113
100
AcDbEntity
8
0
100
AcDbCircle
10
-30.14226016667191
20
17.057655272370912
30
0
40
2.0000000000000053
210
0
220
0
230
1
100
AcDbArc
50
269.99644865004063
51
270.07484931317151
0
ARC
5
114
100
AcDbEntity
8
0
100
AcDbCircle
10
-78.251869873252758
20
12.900591323039761
30
0
40
3.2500000000000129
210
0
220
-0
230
1
100
AcDbArc
50
90
51
168.43095470989704
0
ARC
5
115
100
AcDbEntity
8
0
100
AcDbCircle
10
-78.26633948721188
20
-12.665405336339449
30
0
40
3.2500000000000573
210
0
220
0
230
1
100
AcDbArc
50
191.43320613644241
51
276.02190758797741
0
LWPOLYLINE
5
116
100
AcDbEntity
8
0
100
AcDbPolyline
90
8
70
1
43
0.0
10
-71.653735895396807
20
-13.134887159709844
10
-69.653735895396821
20
-13.134887159709836
42
0.99999999999999989
10
-68.053735895396855
20
-13.134887159709844
10
-68.053735895396827
20
-10.93488715970987
42
0.99999999999999989
10
-69.653735895396849
20
-10.93488715970987
10
-71.653735895396807
20
-10.934887159709874
42
0.99999999999999989
10
-73.253735895396787
20
-10.934887159709888
10
-73.253735895396787
20
-13.134887159709859
42
0.99999999999999989
0
ARC
5
117
100
AcDbEntity
8
0
100
AcDbCircle
10
-62.69680228090678
20
5.7447867375186155
30
0
40
3.0000000000000062
210
0
220
0
230
1
100
AcDbArc
50
-0.19963977864452784
51
89.800360221355689
0
LINE
5
118
100
AcDbEntity
8
0
100
AcDbLine
10
44.699552584964515
20
12.774773489404716
30
0
11
52.658315369894922
21
11.963523179335802
31
0
0
LWPOLYLINE
5
119
100
AcDbEntity
8
0
100
AcDbPolyline
90
8
70
1
43
0.0
10
-39.853735895396809
20
10.86511284029017
42
0.99999999999999989
10
-38.253735895396858
20
10.865112840290161
10
-38.253735895396844
20
13.065112840290148
42
0.99999999999999989
10
-39.853735895396831
20
13.065112840290134
10
-41.853735895396795
20
13.065112840290137
42
0.99999999999999989
10
-43.453735895396775
20
13.065112840290114
10
-43.453735895396797
20
10.865112840290173
42
0.99999999999999989
10
-41.853735895396781
20
10.865112840290161
0
LINE
5
120
100
AcDbEntity
8
0
100
AcDbLine
10
-70.653723353564544
20
8.7725299297366774
30
0
11
-78.252468611628117
21
8.7652828847313575
31
0
0
ARC
5
121
100
AcDbEntity
8
0
100
AcDbCircle
10
-77.334682212806655
20
-12.770237499787296
30
0
40
4.1831333468900338
210
0
220
0
230
1
100
AcDbArc
50
103.27706961539816
51
178.47448349702131
0
LINE
5
122
100
AcDbEntity
8
0
100
AcDbLine
10
-70.653723353564544
20
8.7725299297366774
30
0
11
-62.686349187692485
21
8.7447685262703896
31
0
0
ARC
5
123
100
AcDbEntity
8
0
100
AcDbCircle
10
-78.251869873252758
20
12.900591323039761
30
0
40
3.2500000000000129
210
0
220
-0
230
1
100
AcDbArc
50
90
51
195.83675848853866
0
LWPOLYLINE
5
124
100
AcDbEntity
8
0
100
AcDbPolyline
90
4
70
1
43
0.0
10
37.539510598833999
20
8.5587140234273313
10
59.426102676350361
20
6.3277755171888108
42
0.99999999999999989
10
59.679618415856339
20
8.8148882548470269
10
37.793026338340077
20
11.045826761085671
42
0.99999999999999989
0
LWPOLYLINE
5
125
100
AcDbEntity
8
0
100
AcDbPolyline
90
4
70
1
43
0.0
10
37.777833497672376
20
-10.95628191370645
10
59.670913616764444
20
-8.7899391822806692
42
0.99999999999999989
10
59.42473830584899
20
-6.3020891634298248
10
37.531658186756893
20
-8.4684318948556498
42
0.99999999999999989
0
ARC
5
126
100
AcDbEntity
8
0
100
AcDbCircle
10
-77.02940921793396
20
13.070621463947674
30
0
40
4.4756915177648251
210
0
220
0
230
1
100
AcDbArc
50
182.17717290246827
51
254.14122675399358
0
LINE
5
127
100
AcDbEntity
8
0
100
AcDbLine
10
-52.519378830190789
20
15.061280253710983
30
0
11
-52.519378873564726
21
15.060805719393064
31
0
0
ARC
5
128
100
AcDbEntity
8
0
100
AcDbCircle
10
-78.26633948721188
20
-12.665405336339449
30
0
40
3.2500000000000133
210
0
220
0
230
1
100
AcDbArc
50
167.2750621055693
51
276.02190758797741
0
LINE
5
129
100
AcDbEntity
8
0
100
AcDbLine
10
-59.696820492155005
20
5.7343336443043107
30
0
11
-59.736837241060037
21
-5.7502590498406274
31
0
0
LINE
5
130
100
AcDbEntity
8
0
100
AcDbLine
10
-30.100379003450044
20
-15.001590524455279
30
0
11
-30.098260215882252
21
-15.001590718105755
31
0
0
LINE
5
131
100
AcDbEntity
8
0
100
AcDbLine
10
-70.653735613300242
20
-8.7122385781900924
30
0
11
-62.747272123026114
21
-8.739787745378095
31
0
0
ARC
5
132
100
AcDbEntity
8
0
100
AcDbCircle
10
-62.736819029811812
20
-5.7398059566263218
30
0
40
3.0000000000000071
210
0
220
0
230
1
100
AcDbArc
50
269.8003602213555
51
359.80036022135545
0
CIRCLE
5
133
100
AcDbEntity
8
0
100
AcDbCircle
10
-78.251869873252758
20
12.900591323039761
30
0
40
1.5500000000000025
210
0
220
0
230
1
0
CIRCLE
5
134
100
AcDbEntity
8
0
100
AcDbCircle
10
-78.26633948721188
20
-12.665405336339449
30
0
40
1.5499999999999994
210
0
220
0
230
1
0
ARC
5
135
100
AcDbEntity
8
0
100
AcDbCircle
10
44.780677187653062
20
13.570645565882987
30
0
40
0.7999959770393934
210
0
220
0
230
1
100
AcDbArc
50
174.17952147981893
51
264.17984487979197
0
ARC
5
136
100
AcDbEntity
8
0
100
AcDbCircle
10
44.734367717931825
20
-13.500065289286425
30
0
40
0.80000196622159003
210
0
220
0
230
1
100
AcDbArc
50
95.651078018006658
51
185.65110768742099
0
LINE
5
137
100
AcDbEntity
8
0
100
AcDbLine
10
43.984805569086717
20
13.651774660786078
30
0
11
37.33095385742422
21
14.330013503569647
31
0
0
ARC
5
138
100
AcDbEntity
8
0
100
AcDbCircle
10
29.383076728108346
20
-11.290486784066491
30
0
40
5.0000000000003864
210
0
220
0
230
1
100
AcDbArc
50
269.65279313515543
51
285.61578157165945
0
CIRCLE
5
139
100
AcDbEntity
8
0
100
AcDbCircle
10
66.513806007625988
20
-7.8567233081714649
30
0
40
1.5500000000000025
210
0
220
0
230
1
0
ARC
5
140
100
AcDbEntity
8
0
100
AcDbCircle
10
38.091501222223833
20
21.791351701634149
30
0
40
7.5000000000002673
210
0
220
0
230
1
100
AcDbArc
50
247.69851798774215
51
264.17984188473281
0
LINE
5
141
100
AcDbEntity
8
0
100
AcDbLine
10
37.339809427482415
20
-14.231766180371244
30
0
11
43.938253792971985
21
-13.578841963774835
31
0
0
ARC
5
142
100
AcDbEntity
8
0
100
AcDbCircle
10
66.513806007625988
20
-7.8567233081714649
30
0
40
1.5499999999999465
210
0
220
-0
230
1
100
AcDbArc
50
-283.81445264018578
51
0
0
ARC
5
143
100
AcDbEntity
8
0
100
AcDbCircle
10
38.078336905169003
20
-21.695316084049917
30
0
40
7.5000000000000044
210
0
220
0
230
1
100
AcDbArc
50
95.651092099776463
51
112.83148362462384
0
LINE
5
144
100
AcDbEntity
8
0
100
AcDbLine
10
67.304219290992208
20
11.27478568319707
30
0
11
53.535316458295071
21
12.678274238146088
31
0
0
LINE
5
145
100
AcDbEntity
8
0
100
AcDbLine
10
31.336253860496068
20
15.981311766780454
30
0
11
34.030630635232995
21
15.261794285464509
31
0
0
ARC
5
146
100
AcDbEntity
8
0
100
AcDbCircle
10
30.046238358873776
20
11.150591323039832
30
0
40
4.9999999999999423
210
0
220
-0
230
1
100
AcDbArc
50
75.048393889843609
51
90.000000000000043
0
ARC
5
147
100
AcDbEntity
8
0
100
AcDbCircle
10
31.450599631988396
20
5.6003533979831479
30
0
40
10.000000000000338
210
0
220
-0
230
1
100
AcDbArc
50
67.698517987742292
51
75.04839388984368
0
CIRCLE
5
148
100
AcDbEntity
8
0
100
AcDbCircle
10
66.51677620274836
20
7.8614878111958921
30
0
40
1.55
210
0
220
0
230
1
0
ARC
5
149
100
AcDbEntity
8
0
100
AcDbCircle
10
67.000000345072436
20
8.2902504039712195
30
0
40
3.0000000000000426
210
0
220
0
230
1
100
AcDbArc
50
0
51
84.179841884734302
0
LINE
5
150
100
AcDbEntity
8
0
100
AcDbLine
10
70.000000345072493
20
8.2902504039712195
30
0
11
70.000000345070518
21
-8.2822024260072098
31
0
0
ARC
5
151
100
AcDbEntity
8
0
100
AcDbCircle
10
52.695487615183723
20
-12.712302646370315
30
0
40
0.79999999999999916
210
0
220
-0
230
1
100
AcDbArc
50
5.6510765052888035
51
95.651078018392909
0
ARC
5
152
100
AcDbEntity
8
0
100
AcDbCircle
10
67.000000345079854
20
-8.2822024260072098
30
0
40
2.9999999999906546
210
0
220
0
230
1
100
AcDbArc
50
-84.34890790054223
51
0
0
ARC
5
153
100
AcDbEntity
8
0
100
AcDbCircle
10
31.28795041436419
20
-5.5664397653004123
30
0
40
10.000000000000648
210
0
220
0
230
1
100
AcDbArc
50
285.61578157165991
51
292.83148362462373
0
LINE
5
154
100
AcDbEntity
8
0
100
AcDbLine
10
53.491599626350357
20
-12.633526598765652
30
0
11
67.295411336136965
21
-11.267622387471022
31
0
0
ARC
5
155
100
AcDbEntity
8
0
100
AcDbCircle
10
52.739440380536884
20
12.759399258036712
30
0
40
0.79999999999999716
210
0
220
0
230
1
100
AcDbArc
50
264.17984487979106
51
354.17984421397227
0
LINE
5
156
100
AcDbEntity
8
0
100
AcDbLine
10
30.729002249511023
20
-16.105929078480987
30
0
11
33.979801457169849
21
-15.197324354130199
31
0
0
CIRCLE
5
157
100
AcDbEntity
8
0
100
AcDbCircle
10
28.202352785585845
20
13.012114510299213
30
0
40
1.5499999999999994
210
0
220
0
230
1
0
CIRCLE
5
158
100
AcDbEntity
8
0
100
AcDbCircle
10
28.188765728745928
20
-13.151647761377179
30
0
40
1.5499999999999989
210
0
220
0
230
1
0
LWPOLYLINE
5
159
100
AcDbEntity
8
0
100
AcDbPolyline
90
4
70
1
43
0.0
10
39.096583131141237
20
2.5040242177917369
10
57.20235178047556
20
2.5040242177917369
42
-0.99999999999999989
10
57.20235178047556
20
-2.4959757822082631
10
39.096583131141237
20
-2.4959757822082631
42
-0.99999999999999989
0
LINE
5
160
100
AcDbEntity
8
0
100
AcDbLine
10
29.352777398667953
20
-16.290394978287594
30
0
11
-44.001802290335085
21
-16.021721974459073
31
0
0
LINE
5
161
100
AcDbEntity
8
0
100
AcDbLine
10
-67.505513977812029
20
-15.935635831685628
30
0
11
-77.925386145413654
21
-15.89747136579069
31
0
0
LINE
5
162
100
AcDbEntity
8
0
100
AcDbLine
10
-78.251869873252758
20
16.150591323039773
30
0
11
-67.505765788810251
21
16.150591323039773
31
0
0
LINE
5
163
100
AcDbEntity
8
0
100
AcDbLine
10
-44.001735895396791
20
16.150591323039773
30
0
11
30.046238358873772
21
16.150591323039773
31
0
0
ARC
5
164
100
AcDbEntity
8
0
100
AcDbCircle
10
-44.801735895396789
20
-16.032028646718725
30
0
40
0.800000000000054
210
0
220
-0
230
1
100
AcDbArc
50
0.73818144820462683
51
89.800360221355206
0
LINE
5
165
100
AcDbEntity
8
0
100
AcDbLine
10
-44.79894840387297
20
-15.232033503051587
30
0
11
-66.702978297286435
21
-15.155711417663218
31
0
0
ARC
5
166
100
AcDbEntity
8
0
100
AcDbCircle
10
-66.705765788810254
20
-15.955706561330356
30
0
40
0.80000000000000027
210
0
220
-0
230
1
100
AcDbArc
50
89.800360221355206
51
178.56238903540751
0
LINE
5
167
100
AcDbEntity
8
0
100
AcDbLine
10
-66.705765788810254
20
15.350591323039772
30
0
11
-44.801735895396789
21
15.350591323039772
31
0
0
ARC
5
168
100
AcDbEntity
8
0
100
AcDbCircle
10
-44.801735895396789
20
16.150591323039773
30
0
40
0.80000000000000071
210
0
220
0
230
1
100
AcDbArc
50
-90
51
0
0
ARC
5
169
100
AcDbEntity
8
0
100
AcDbCircle
10
-66.705765788810254
20
16.150591323039773
30
0
40
0.80000000000000071
210
0
220
0
230
1
100
AcDbArc
50
180
51
270
0
LWPOLYLINE
5
170
100
AcDbEntity
8
0
100
AcDbPolyline
90
4
70
1
43
0.0
10
13.994904713919292
20
-8.7217564308392337
10
13.994904713919276
20
8.7782435691607077
42
-0.99999999999999989
10
17.494904713919269
20
8.7782435691607184
10
17.494904713919279
20
-8.7217564308392337
42
-0.99999999999999989
0
LWPOLYLINE
5
171
100
AcDbEntity
8
0
100
AcDbPolyline
90
4
70
1
43
0.0
10
22.494904713919297
20
-8.7217564308392337
10
22.494904713919283
20
8.7782435691607077
42
-0.99999999999999989
10
25.994904713919272
20
8.7782435691607184
10
25.994904713919276
20
-8.7217564308392337
42
-0.99999999999999989
0
LWPOLYLINE
5
172
100
AcDbEntity
8
0
100
AcDbPolyline
90
4
70
1
43
0.0
10
30.494904713919297
20
-8.7217564308392337
10
30.494904713919283
20
8.7782435691607077
42
-0.99999999999999989
10
33.994904713919269
20
8.7782435691607184
10
33.994904713919276
20
-8.7217564308392337
42
-0.99999999999999989
0
LWPOLYLINE
5
173
100
AcDbEntity
8
0
100
AcDbPolyline
90
4
70
1
43
0.0
10
-13.505095286080708
20
-8.7217564308392337
10
-13.505095286080724
20
8.7782435691607077
42
-0.99999999999999989
10
-10.005095286080731
20
8.7782435691607184
10
-10.005095286080721
20
-8.7217564308392337
42
-0.99999999999999989
0
LWPOLYLINE
5
174
100
AcDbEntity
8
0
100
AcDbPolyline
90
4
70
1
43
0.0
10
-21.00509528608071
20
-8.7217564308392337
10
-21.005095286080724
20
8.7782435691607077
42
-0.99999999999999989
10
-17.505095286080735
20
8.7782435691607184
10
-17.505095286080724
20
-8.7217564308392337
42
-0.99999999999999989
0
LWPOLYLINE
5
175
100
AcDbEntity
8
0
100
AcDbPolyline
90
10
70
1
43
0.0
10
-25.351883001004655
20
-8.7217564308392319
42
-0.99999999999999989
10
-28.95188300100466
20
-8.7217564308392355
10
-28.95188300100466
20
-8.388681102159449
42
0.21510956506849385
10
-29.62819971000771
20
-6.8893937564063208
42
-0.21510956506849949
10
-29.973753887496962
20
-6.1233547118505918
10
-29.973753887496972
20
5.8397670296504298
42
-0.21510956506849799
10
-29.628199710007721
20
6.6058060742061562
42
0.21510956506849929
10
-28.951883001004667
20
8.1050934199592959
10
-28.951883001004663
20
8.7782435691607112
42
-0.99999999999999989
10
-25.351883001004659
20
8.7782435691607148
0
LINE
5
176
100
AcDbEntity
8
0
100
AcDbLine
10
-29.973753887496972
20
5.8397670296504298
30
0
11
-29.973753887496962
21
-6.1250073802092135
31
0
0
ENDSEC
0
SECTION
2
OBJECTS
0
DICTIONARY
5
C
100
AcDbDictionary
3
ACAD_GROUP
350
D
3
ACAD_MLINESTYLE
350
17
0
DICTIONARY
5
D
100
AcDbDictionary
0
DICTIONARY
5
1A
330
C
100
AcDbDictionary
0
DICTIONARY
5
17
100
AcDbDictionary
0
ENDSEC
0
EOF
