0
SECTION
2
HEADER
9
$INSUNITS
70
4
9
$ACADVER
1
AC1014
9
$HANDSEED
5
FFFF
0
ENDSEC
0
SECTION
2
TABLES
0
TABLE
2
VPORT
5
8
100
AcDbSymbolTable
0
ENDTAB
0
TABLE
2
LTYPE
5
5
100
AcDbSymbolTable
0
LTYPE
5
14
100
AcDbSymbolTableRecord
100
AcDbLinetypeTableRecord
2
BYBLOCK
70
0
0
LTYPE
5
15
100
AcDbSymbolTableRecord
100
AcDbLinetypeTableRecord
2
BYLAYER
70
0
0
ENDTAB
0
TABLE
2
LAYER
5
2
100
AcDbSymbolTable
70
2
0
LAYER
5
50
100
AcDbSymbolTableRecord
100
AcDbLayerTableRecord
2
0
70
0
6
CONTINUOUS
0
ENDTAB
0
TABLE
2
STYLE
5
3
100
AcDbSymbolTable
70
1
0
STYLE
5
11
100
AcDbSymbolTableRecord
100
AcDbTextStyleTableRecord
2
STANDARD
70
0
0
ENDTAB
0
TABLE
2
VIEW
5
6
100
AcDbSymbolTable
70
0
0
ENDTAB
0
TABLE
2
UCS
5
7
100
AcDbSymbolTable
70
0
0
ENDTAB
0
TABLE
2
APPID
5
9
100
AcDbSymbolTable
70
2
0
APPID
5
12
100
AcDbSymbolTableRecord
100
AcDbRegAppTableRecord
2
ACAD
70
0
0
ENDTAB
0
TABLE
2
DIMSTYLE
5
A
100
AcDbSymbolTable
70
1
0
ENDTAB
0
TABLE
2
BLOCK_RECORD
5
1
100
AcDbSymbolTable
70
1
0
BLOCK_RECORD
5
1F
100
AcDbSymbolTableRecord
100
AcDbBlockTableRecord
2
*MODEL_SPACE
0
BLOCK_RECORD
5
1B
100
AcDbSymbolTableRecord
100
AcDbBlockTableRecord
2
*PAPER_SPACE
0
ENDTAB
0
ENDSEC
0
SECTION
2
BLOCKS
0
BLOCK
5
20
100
AcDbEntity
100
AcDbBlockBegin
2
*MODEL_SPACE
0
ENDBLK
5
21
100
AcDbEntity
100
AcDbBlockEnd
0
BLOCK
5
1C
100
AcDbEntity
100
AcDbBlockBegin
2
*PAPER_SPACE
0
ENDBLK
5
1D
100
AcDbEntity
100
AcDbBlockEnd
0
ENDSEC
0
SECTION
2
ENTITIES
0
CIRCLE
5
100
100
AcDbEntity
8
0
100
AcDbCircle
10
15.260029748554489
20
-15.268251427013064
30
0
40
3.0499999999999998
210
0
220
0
230
1
0
LWPOLYLINE
5
101
100
AcDbEntity
8
0
100
AcDbPolyline
90
6
70
1
43
0.0
10
19.697227860753468
20
-6.8013429019757634
42
-0.80346864447474609
10
18.285736999661808
20
-8.672297167823066
10
13.209952356352641
20
-6.349138202339959
42
-0.48907535790535372
10
12.764097303739526
20
-4.4604552272650224
10
14.139420017759015
20
-2.7524508135080361
42
-0.45073597972559187
10
16.156215447147602
20
-2.6597183388803449
0
ARC
5
102
100
AcDbEntity
8
0
100
AcDbCircle
10
-2.8416063309357452e-05
20
-39.311283907380115
30
0
40
19.999999999999975
210
0
220
-0
230
1
100
AcDbArc
50
55.164638181973231
51
124.83526654888415
0
LINE
5
103
100
AcDbEntity
8
0
100
AcDbLine
10
11.424376702977142
20
-22.895347513861736
30
0
11
20.921565382923397
21
-29.504762193033546
31
0
0
LWPOLYLINE
5
104
100
AcDbEntity
8
0
100
AcDbPolyline
90
6
70
1
43
0.0
10
-0.89056068548125644
20
-4.3902652282906489
10
-4.1802674169439866
20
-7.6799719597533933
42
0.4715270145580378
10
-4.0149186280079734
20
-9.4002412539814788
42
0.30591604687870422
10
3.8177164469032809
20
-9.4002412539814788
42
0.47152701455804907
10
3.9830652358393071
20
-7.6799719597533933
10
0.69335850437659718
20
-4.3902652282906685
42
0.41421356237309664
0
CIRCLE
5
105
100
AcDbEntity
8
0
100
AcDbCircle
10
-10
20
-10
30
0
40
2.5499999999999998
210
0
220
0
230
1
0
CIRCLE
5
106
100
AcDbEntity
8
0
100
AcDbCircle
10
-10
20
-10
30
0
40
2.125
210
0
220
0
230
1
0
ARC
5
107
100
AcDbEntity
8
0
100
AcDbCircle
10
24.446804449975801
20
24.446779073640151
30
0
40
6.1455000000003981
210
0
220
0
230
1
100
AcDbArc
50
-0.017344621297012173
51
124.58656085932468
0
LWPOLYLINE
5
108
100
AcDbEntity
8
0
100
AcDbPolyline
90
4
70
1
43
0.0
10
30.70235178047556
20
2.5040242177917365
42
0.99999999999999989
10
30.70235178047556
20
-2.4959757822082644
10
55.702351780475553
20
-2.495975782208264
42
0.99999999999999989
10
55.702351780475553
20
2.5040242177917369
0
LINE
5
109
100
AcDbEntity
8
0
100
AcDbLine
10
52.616711546554818
20
-11.916190637284048
30
0
11
44.655591455694285
21
-12.703951323533856
31
0
0
LWPOLYLINE
5
110
100
AcDbEntity
8
0
100
AcDbPolyline
90
6
70
1
43
0.0
10
-9.5170447562396472
20
-3.9269863780646381
42
0.47151663987950659
10
-7.7968127247632424
20
-4.0924699387403765
10
-4.5067167712281684
20
-0.80301000134852096
42
0.41421356237308649
10
-4.5065636608683759
20
0.78090918110909513
10
-7.7962504223632205
20
4.0712320026035931
42
0.47153771067371886
10
-9.5165576272938921
20
3.9060170141768378
42
0.30591575937633803
0
LWPOLYLINE
5
111
100
AcDbEntity
8
0
100
AcDbPolyline
90
4
70
1
43
0.0
10
64.556640335983289
20
-2.9959757822082498
10
64.556640335983303
20
3.0040242177917191
42
0.99999999999999989
10
62.056640335983317
20
3.0040242177917404
10
62.056640335983325
20
-2.9959757822082675
42
0.99999999999999989
0
ARC
5
112
100
AcDbEntity
8
0
100
AcDbCircle
10
24.431999465876562
20
-24.460555337715174
30
0
40
6.1455000000000073
210
0
220
0
230
1
100
AcDbArc
50
235.16463818197323
51
359.99999019088762
0
LINE
5
113
100
AcDbEntity
8
0
100
AcDbLine
10
70.000000345072493
20
8.2902504039712195
30
0
11
70.000000345070518
21
-8.2822024260072098
31
0
0
CIRCLE
5
114
100
AcDbEntity
8
0
100
AcDbCircle
10
-15.25
20
-15.250000000000005
30
0
40
2.0499999999999998
210
0
220
0
230
1
0
LWPOLYLINE
5
115
100
AcDbEntity
8
0
100
AcDbPolyline
90
6
70
1
43
0.0
10
8.3670780917843111
20
-4.0929230377960799
42
0.47153771067372108
10
10.087385296714986
20
-3.927708049369325
42
0.30591575937633797
10
10.087872425660738
20
3.9052953428721531
42
0.47151663987950682
10
8.3676403941843347
20
4.0707789035478879
10
5.0775444406492563
20
0.78131896615603247
42
0.41421356237308554
10
5.0773913302894647
20
-0.8026002163015844
0
LWPOLYLINE
5
116
100
AcDbEntity
8
0
100
AcDbPolyline
90
4
70
1
43
0.0
10
59.670913616764452
20
-8.7899391822806692
42
0.99999999999999989
10
59.424738305848983
20
-6.3020891634298204
10
37.531658186756893
20
-8.4684318948556498
42
0.99999999999999989
10
37.777833497672376
20
-10.95628191370645
0
CIRCLE
5
117
100
AcDbEntity
8
0
100
AcDbCircle
10
15.260029748554489
20
-15.268251427013064
30
0
40
2.0499999999999998
210
0
220
0
230
1
0
CIRCLE
5
118
100
AcDbEntity
8
0
100
AcDbCircle
10
-15.25
20
-15.250000000000005
30
0
40
3.0499999999999994
210
0
220
0
230
1
0
CIRCLE
5
119
100
AcDbEntity
8
0
100
AcDbCircle
10
0
20
0
30
0
40
2.5499999999999998
210
0
220
0
230
1
0
LINE
5
120
100
AcDbEntity
8
0
100
AcDbLine
10
30.577499465876471
20
-24.460556391623413
30
0
11
30.578337248818453
21
-21.693045678466021
31
0
0
LINE
5
121
100
AcDbEntity
8
0
100
AcDbLine
10
53.491599626350357
20
-12.633526598765652
30
0
11
67.295411336136965
21
-11.267622387471022
31
0
0
ARC
5
122
100
AcDbEntity
8
0
100
AcDbCircle
10
38.078336905169003
20
-21.695316084049921
30
0
40
7.5
210
0
220
0
230
1
100
AcDbArc
50
95.651092099776463
51
179.98265537870299
0
LINE
5
123
100
AcDbEntity
8
0
100
AcDbLine
10
-11.424406239322053
20
-22.895328517838127
30
0
11
-20.921821159598224
21
-29.504877205002067
31
0
0
LINE
5
124
100
AcDbEntity
8
0
100
AcDbLine
10
67.304219290992208
20
11.274785683197068
30
0
11
53.535316458295064
21
12.678274238146091
31
0
0
LWPOLYLINE
5
125
100
AcDbEntity
8
0
100
AcDbPolyline
90
6
70
1
43
0.0
10
3.9062493049848568
20
9.3995347353304997
42
0.30591604687870416
10
-3.9263857699264282
20
9.3995347353304997
42
0.47152701455803692
10
-4.0917345588624698
20
7.6792654411024213
10
-0.80202782739973344
20
4.3895587096396724
42
0.41421356237309748
10
0.78189136245813806
20
4.3895587096396529
10
4.0715980939208771
20
7.679265441102415
42
0.47152701455803492
0
LINE
5
126
100
AcDbEntity
8
0
100
AcDbLine
10
43.984805569086703
20
13.65177466078608
30
0
11
37.330953857424227
21
14.330013503569647
31
0
0
CIRCLE
5
127
100
AcDbEntity
8
0
100
AcDbCircle
10
28.202352785585845
20
13.012114510299213
30
0
40
1.5000000000000002
210
0
220
0
230
1
0
ARC
5
128
100
AcDbEntity
8
0
100
AcDbCircle
10
-40.284006479949717
20
-0.0052446992406629533
30
0
40
20.000000000000039
210
0
220
0
230
1
100
AcDbArc
50
-34.621445644998758
51
34.631019976838402
0
LINE
5
129
100
AcDbEntity
8
0
100
AcDbLine
10
37.339809427482415
20
-14.231766180371253
30
0
11
43.938253792971992
21
-13.578841963774837
31
0
0
CIRCLE
5
130
100
AcDbEntity
8
0
100
AcDbCircle
10
66.513806007625988
20
-7.8567233081714658
30
0
40
1.5000000000000002
210
0
220
0
230
1
0
CIRCLE
5
131
100
AcDbEntity
8
0
100
AcDbCircle
10
24.5
20
-24.5
30
0
40
2.5499999999999998
210
0
220
0
230
1
0
CIRCLE
5
132
100
AcDbEntity
8
0
100
AcDbCircle
10
24.5
20
-24.5
30
0
40
2.1249999999999982
210
0
220
0
230
1
0
LWPOLYLINE
5
133
100
AcDbEntity
8
0
100
AcDbPolyline
90
4
70
1
43
0.0
10
59.426102676350361
20
6.3277755171888126
42
0.99999999999999989
10
59.679618415856339
20
8.8148882548470269
10
37.793026338340077
20
11.045826761085673
42
0.99999999999999989
10
37.539510598833999
20
8.5587140234273313
0
LINE
5
134
100
AcDbEntity
8
0
100
AcDbLine
10
44.699552584964508
20
12.774773489404714
30
0
11
52.658315369894922
21
11.963523179335805
31
0
0
ARC
5
135
100
AcDbEntity
8
0
100
AcDbCircle
10
-24.43231794214455
20
-24.460562366246812
30
0
40
6.1456244477477293
210
0
220
0
230
1
100
AcDbArc
50
174.54692080600006
51
304.83526654888442
0
CIRCLE
5
136
100
AcDbEntity
8
0
100
AcDbCircle
10
24.5
20
24.5
30
0
40
2.1249999999999991
210
0
220
0
230
1
0
CIRCLE
5
137
100
AcDbEntity
8
0
100
AcDbCircle
10
-24.5
20
-24.5
30
0
40
2.5499999999999998
210
0
220
0
230
1
0
ARC
5
138
100
AcDbEntity
8
0
100
AcDbCircle
10
-27.123205648390059
20
-23.773066780418411
30
0
40
3.428485621071351
210
0
220
0
230
1
100
AcDbArc
50
149.62068605999445
51
181.72947777852025
0
ARC
5
139
100
AcDbEntity
8
0
100
AcDbCircle
10
52.739440380536884
20
12.759399258036716
30
0
40
0.79999999999999938
210
0
220
0
230
1
100
AcDbArc
50
264.17984487979106
51
354.17984421397216
0
CIRCLE
5
140
100
AcDbEntity
8
0
100
AcDbCircle
10
10
20
-10
30
0
40
2.1249999999999991
210
0
220
0
230
1
0
CIRCLE
5
141
100
AcDbEntity
8
0
100
AcDbCircle
10
10
20
-10
30
0
40
2.5499999999999998
210
0
220
0
230
1
0
ARC
5
142
100
AcDbEntity
8
0
100
AcDbCircle
10
67.000000345072436
20
8.2902504039712195
30
0
40
3.0000000000000426
210
0
220
0
230
1
100
AcDbArc
50
0
51
84.179841884734302
0
CIRCLE
5
143
100
AcDbEntity
8
0
100
AcDbCircle
10
28.188765728745931
20
-13.151647761377181
30
0
40
1.5000000000000002
210
0
220
0
230
1
0
CIRCLE
5
144
100
AcDbEntity
8
0
100
AcDbCircle
10
-24.5
20
-24.5
30
0
40
2.1250000000000004
210
0
220
0
230
1
0
ARC
5
145
100
AcDbEntity
8
0
100
AcDbCircle
10
7.1650332316084271e-05
20
39.348698197678495
30
0
40
20.000000000000004
210
0
220
0
230
1
100
AcDbArc
50
235.41324098956446
51
304.58656085932461
0
LINE
5
146
100
AcDbEntity
8
0
100
AcDbLine
10
-30.080947547192729
20
-22.03920504603467
30
0
11
-23.825531107877794
21
-11.368280755986396
31
0
0
ARC
5
147
100
AcDbEntity
8
0
100
AcDbCircle
10
52.695487615183723
20
-12.712302646370315
30
0
40
0.79999999999999916
210
0
220
-0
230
1
100
AcDbArc
50
5.6510765052888035
51
95.651078018392909
0
ARC
5
148
100
AcDbEntity
8
0
100
AcDbCircle
10
44.780677187653055
20
13.570645565882987
30
0
40
0.79999597703939362
210
0
220
0
230
1
100
AcDbArc
50
174.1795214798189
51
264.17984487979197
0
CIRCLE
5
149
100
AcDbEntity
8
0
100
AcDbCircle
10
24.5
20
24.5
30
0
40
2.5499999999999998
210
0
220
0
230
1
0
LINE
5
150
100
AcDbEntity
8
0
100
AcDbLine
10
11.353084786902619
20
22.883307442495607
30
0
11
20.958307338435915
21
29.506182017939317
31
0
0
CIRCLE
5
151
100
AcDbEntity
8
0
100
AcDbCircle
10
66.51677620274836
20
7.8614878111958921
30
0
40
1.5000000000000002
210
0
220
0
230
1
0
ARC
5
152
100
AcDbEntity
8
0
100
AcDbCircle
10
67.000000345079854
20
-8.2822024260072098
30
0
40
2.9999999999906546
210
0
220
0
230
1
100
AcDbArc
50
-84.34890790054223
51
0
0
ARC
5
153
100
AcDbEntity
8
0
100
AcDbCircle
10
44.734367717931825
20
-13.500065289286427
30
0
40
0.80000196622158692
210
0
220
0
230
1
100
AcDbArc
50
95.651078018006174
51
185.65110768742105
0
CIRCLE
5
154
100
AcDbEntity
8
0
100
AcDbCircle
10
0
20
0
30
0
40
2.125
210
0
220
0
230
1
0
LINE
5
155
100
AcDbEntity
8
0
100
AcDbLine
10
30.591501565873283
20
21.793622107218049
30
0
11
30.592304168389845
21
24.444918703304701
31
0
0
ARC
5
156
100
AcDbEntity
8
0
100
AcDbCircle
10
38.091501222223833
20
21.791351701634149
30
0
40
7.4999999999999956
210
0
220
0
230
1
100
AcDbArc
50
179.98265537870299
51
264.17984188473287
0
ARC
5
157
100
AcDbEntity
8
0
100
AcDbCircle
10
-26.481431609885266
20
24.152215248125106
30
0
40
4.1927896361133978
210
0
220
0
230
1
100
AcDbArc
50
166.02555470149215
51
210.44113121166146
0
LWPOLYLINE
5
158
100
AcDbEntity
8
0
100
AcDbPolyline
90
6
70
1
43
0.0
10
19.48585011347884
20
6.9673406639338253
10
15.928141135616388
20
2.6657869733477635
42
-0.48907535790535456
10
13.988417693347575
20
2.7239511873575681
10
12.69457183023432
20
4.4944749877104258
42
-0.45073597972559482
10
13.126984205257219
20
6.4665507098317487
10
18.04396778512989
20
8.8149747367503259
42
-0.8034686444747392
0
CIRCLE
5
159
100
AcDbEntity
8
0
100
AcDbCircle
10
10
20
10
30
0
40
2.5499999999999998
210
0
220
0
230
1
0
CIRCLE
5
160
100
AcDbEntity
8
0
100
AcDbCircle
10
-24.5
20
24.5
30
0
40
2.5499999999999998
210
0
220
0
230
1
0
CIRCLE
5
161
100
AcDbEntity
8
0
100
AcDbCircle
10
-15.25
20
15.250000000000005
30
0
40
2.0499999999999998
210
0
220
0
230
1
0
CIRCLE
5
162
100
AcDbEntity
8
0
100
AcDbCircle
10
-10
20
10
30
0
40
2.125
210
0
220
0
230
1
0
CIRCLE
5
163
100
AcDbEntity
8
0
100
AcDbCircle
10
10
20
10
30
0
40
2.125
210
0
220
0
230
1
0
CIRCLE
5
164
100
AcDbEntity
8
0
100
AcDbCircle
10
15.25
20
15.250000000000005
30
0
40
2.0499999999999998
210
0
220
0
230
1
0
CIRCLE
5
165
100
AcDbEntity
8
0
100
AcDbCircle
10
15.25
20
15.250000000000005
30
0
40
3.0499999999999994
210
0
220
0
230
1
0
LINE
5
166
100
AcDbEntity
8
0
100
AcDbLine
10
-23.827430142053323
20
11.360541469563948
30
0
11
-30.096245940848412
21
22.027926594160352
31
0
0
LINE
5
167
100
AcDbEntity
8
0
100
AcDbLine
10
-11.352998429901342
20
22.883346705733253
30
0
11
-20.958187157648844
21
29.506246970773677
31
0
0
CIRCLE
5
168
100
AcDbEntity
8
0
100
AcDbCircle
10
-10
20
10
30
0
40
2.5499999999999998
210
0
220
0
230
1
0
ARC
5
169
100
AcDbEntity
8
0
100
AcDbCircle
10
-24.446701766552632
20
24.446856091086197
30
0
40
6.145500000000002
210
0
220
-0
230
1
100
AcDbArc
50
55.413240989564549
51
173.29181264405977
0
CIRCLE
5
170
100
AcDbEntity
8
0
100
AcDbCircle
10
-15.25
20
15.250000000000005
30
0
40
3.0499999999999994
210
0
220
0
230
1
0
CIRCLE
5
171
100
AcDbEntity
8
0
100
AcDbCircle
10
-24.5
20
24.5
30
0
40
2.125
210
0
220
0
230
1
0
ENDSEC
0
SECTION
2
OBJECTS
0
DICTIONARY
5
C
100
AcDbDictionary
3
ACAD_GROUP
350
D
3
ACAD_MLINESTYLE
350
17
0
DICTIONARY
5
D
100
AcDbDictionary
0
DICTIONARY
5
1A
330
C
100
AcDbDictionary
0
DICTIONARY
5
17
100
AcDbDictionary
0
ENDSEC
0
EOF
