0
SECTION
2
HEADER
9
$INSUNITS
70
4
9
$ACADVER
1
AC1014
9
$HANDSEED
5
FFFF
0
ENDSEC
0
SECTION
2
TABLES
0
TABLE
2
VPORT
5
8
100
AcDbSymbolTable
0
ENDTAB
0
TABLE
2
LTYPE
5
5
100
AcDbSymbolTable
0
LTYPE
5
14
100
AcDbSymbolTableRecord
100
AcDbLinetypeTableRecord
2
BYBLOCK
70
0
0
LTYPE
5
15
100
AcDbSymbolTableRecord
100
AcDbLinetypeTableRecord
2
BYLAYER
70
0
0
ENDTAB
0
TABLE
2
LAYER
5
2
100
AcDbSymbolTable
70
2
0
LAYER
5
50
100
AcDbSymbolTableRecord
100
AcDbLayerTableRecord
2
0
70
0
6
CONTINUOUS
0
ENDTAB
0
TABLE
2
STYLE
5
3
100
AcDbSymbolTable
70
1
0
STYLE
5
11
100
AcDbSymbolTableRecord
100
AcDbTextStyleTableRecord
2
STANDARD
70
0
0
ENDTAB
0
TABLE
2
VIEW
5
6
100
AcDbSymbolTable
70
0
0
ENDTAB
0
TABLE
2
UCS
5
7
100
AcDbSymbolTable
70
0
0
ENDTAB
0
TABLE
2
APPID
5
9
100
AcDbSymbolTable
70
2
0
APPID
5
12
100
AcDbSymbolTableRecord
100
AcDbRegAppTableRecord
2
ACAD
70
0
0
ENDTAB
0
TABLE
2
DIMSTYLE
5
A
100
AcDbSymbolTable
70
1
0
ENDTAB
0
TABLE
2
BLOCK_RECORD
5
1
100
AcDbSymbolTable
70
1
0
BLOCK_RECORD
5
1F
100
AcDbSymbolTableRecord
100
AcDbBlockTableRecord
2
*MODEL_SPACE
0
BLOCK_RECORD
5
1B
100
AcDbSymbolTableRecord
100
AcDbBlockTableRecord
2
*PAPER_SPACE
0
ENDTAB
0
ENDSEC
0
SECTION
2
BLOCKS
0
BLOCK
5
20
100
AcDbEntity
100
AcDbBlockBegin
2
*MODEL_SPACE
0
ENDBLK
5
21
100
AcDbEntity
100
AcDbBlockEnd
0
BLOCK
5
1C
100
AcDbEntity
100
AcDbBlockBegin
2
*PAPER_SPACE
0
ENDBLK
5
1D
100
AcDbEntity
100
AcDbBlockEnd
0
ENDSEC
0
SECTION
2
ENTITIES
0
LINE
5
100
100
AcDbEntity
8
0
100
AcDbLine
10
16.791812748534525
20
-15.653779395633693
30
0
11
16.791812748534525
21
-11.653778199768448
31
0
0
ARC
5
101
100
AcDbEntity
8
0
100
AcDbCircle
10
10.991812748534519
20
-13.653779395633695
30
0
40
0.80000000000000071
210
0
220
0
230
1
100
AcDbArc
50
0
51
182.27779646581445
0
ARC
5
102
100
AcDbEntity
8
0
100
AcDbCircle
10
-12.208167623812704
20
14.31501914298237
30
0
40
0.80000000000000071
210
0
220
0
230
1
100
AcDbArc
50
180
51
359.960601606019
0
LINE
5
103
100
AcDbEntity
8
0
100
AcDbLine
10
-18.008167623812703
20
12.315019142982376
30
0
11
-18.008167623812703
21
14.315019142982377
31
0
0
LINE
5
104
100
AcDbEntity
8
0
100
AcDbLine
10
16.791812748534525
20
-11.653778199768448
30
0
11
16.791812748534525
21
-15.653779395633693
31
0
0
LINE
5
105
100
AcDbEntity
8
0
100
AcDbLine
10
11.79181274853452
20
-15.653779395633693
30
0
11
16.791812748534525
21
-15.653779395633693
31
0
0
LINE
5
106
100
AcDbEntity
8
0
100
AcDbLine
10
-18.008167623812703
20
14.315019142982377
30
0
11
-18.008167623812703
21
16.315019142982372
31
0
0
LINE
5
107
100
AcDbEntity
8
0
100
AcDbLine
10
11.79181274853452
20
-13.653779395633695
30
0
11
11.79181274853452
21
-15.653779395633693
31
0
0
LINE
5
108
100
AcDbEntity
8
0
100
AcDbLine
10
11.79181274853452
20
14.34622060440077
30
0
11
11.79181274853452
21
16.346220604400791
31
0
0
LINE
5
109
100
AcDbEntity
8
0
100
AcDbLine
10
-13.008167623812705
20
-13.684980857017631
30
0
11
-13.008167623812705
21
-15.684980857017631
31
0
0
LINE
5
110
100
AcDbEntity
8
0
100
AcDbLine
10
-18.008167623812703
20
-13.684980857017628
30
0
11
-18.008167623812703
21
-0.074559819006387862
31
0
0
CIRCLE
5
111
100
AcDbEntity
8
0
100
AcDbCircle
10
9.8069168409195413
20
1.5485115668378269
30
0
40
1.1499999999999977
210
0
220
0
230
1
0
LINE
5
112
100
AcDbEntity
8
0
100
AcDbLine
10
-13.008167623812705
20
-15.684980857017631
30
0
11
-18.008167623812703
21
-15.684980857017628
31
0
0
LINE
5
113
100
AcDbEntity
8
0
100
AcDbLine
10
-18.008167623812703
20
-15.684980857017628
30
0
11
-18.008167623812703
21
-13.684980857017628
31
0
0
LINE
5
114
100
AcDbEntity
8
0
100
AcDbLine
10
16.791812748534525
20
14.368514761840537
30
0
11
16.791812748534518
21
-0.27865893860078206
31
0
0
ARC
5
115
100
AcDbEntity
8
0
100
AcDbCircle
10
20.561680302359694
20
-5.9662185691846128
30
0
40
6.823506131369026
210
0
220
0
230
1
100
AcDbArc
50
123.53748836131193
51
236.4625116386882
0
LINE
5
116
100
AcDbEntity
8
0
100
AcDbLine
10
-18.008167623812703
20
16.315019142982372
30
0
11
-13.008167623812705
21
16.315019142982372
31
0
0
ARC
5
117
100
AcDbEntity
8
0
100
AcDbCircle
10
10.992062190040317
20
14.326244513981569
30
0
40
0.80000000000057425
210
0
220
0
230
1
100
AcDbArc
50
-179.15661317551755
51
1.4308308052439642
0
CIRCLE
5
118
100
AcDbEntity
8
0
100
AcDbCircle
10
7.1444217919531363
20
-4.161227491493066
30
0
40
1.0499999999999994
210
0
220
0
230
1
0
LINE
5
119
100
AcDbEntity
8
0
100
AcDbLine
10
-18.008167623812703
20
16.315019142982372
30
0
11
-18.008167623812703
21
12.315019142982376
31
0
0
ARC
5
120
100
AcDbEntity
8
0
100
AcDbCircle
10
-12.208167623812704
20
-13.684980857017628
30
0
40
0.7999999999999996
210
0
220
0
230
1
100
AcDbArc
50
-0.04255645638825141
51
180
0
LINE
5
121
100
AcDbEntity
8
0
100
AcDbLine
10
16.791812748534525
20
16.346220604400791
30
0
11
16.791812748534525
21
14.368514761840537
31
0
0
LINE
5
122
100
AcDbEntity
8
0
100
AcDbLine
10
11.79181274853452
20
16.346220604400791
30
0
11
16.791812748534525
21
16.346220604400791
31
0
0
ARC
5
123
100
AcDbEntity
8
0
100
AcDbCircle
10
-24.096246120164682
20
6.120229661987997
30
0
40
8.6856270062432479
210
0
220
0
230
1
100
AcDbArc
50
-45.497761210177764
51
45.49776121017775
0
CIRCLE
5
124
100
AcDbEntity
8
0
100
AcDbCircle
10
-8.0721375227774583
20
4.8364009072308534
30
0
40
1.05
210
0
220
0
230
1
0
LWPOLYLINE
5
125
100
AcDbEntity
8
0
100
AcDbPolyline
90
4
70
1
43
0.0
10
-8.1611967650815025
20
-0.30779382419169116
42
-1.0214427229207539
10
-8.1158105302628201
20
-2.6068283307614104
42
-0.2546362579938643
10
-14.348412366597934
20
0.83490832249297664
42
-1.0602387682344003
10
-12.463836277886207
20
2.1465157713233243
42
0.25466085117884452
0
LINE
5
126
100
AcDbEntity
8
0
100
AcDbLine
10
-13.008167623812705
20
16.315019142982372
30
0
11
-13.008167623812705
21
14.31501914298237
31
0
0
CIRCLE
5
127
100
AcDbEntity
8
0
100
AcDbCircle
10
7.1444217919531265
20
2.138772508506932
30
0
40
1.1499999999999997
210
0
220
0
230
1
0
LINE
5
128
100
AcDbEntity
8
0
100
AcDbLine
10
-11.408167812947633
20
14.314469037669632
30
0
11
-8.4081678129476334
21
14.314469037669632
31
0
0
LINE
5
129
100
AcDbEntity
8
0
100
AcDbLine
10
10.192148858385853
20
14.314469037669632
30
0
11
7.1921488583858526
21
14.314469037669632
31
0
0
LINE
5
130
100
AcDbEntity
8
0
100
AcDbLine
10
-7.4081678129476325
20
13.314469037669632
30
0
11
-7.4081678129476325
21
12.314469037669625
31
0
0
LINE
5
131
100
AcDbEntity
8
0
100
AcDbLine
10
6.1921488583858517
20
13.314469037669632
30
0
11
6.1921488583858508
21
12.314469037669634
31
0
0
LINE
5
132
100
AcDbEntity
8
0
100
AcDbLine
10
-6.4081678129476352
20
11.314469037669628
30
0
11
5.1921488583858508
21
11.314469037669637
31
0
0
ARC
5
133
100
AcDbEntity
8
0
100
AcDbCircle
10
-6.4081678129476352
20
12.314469037669625
30
0
40
0.99999999999999756
210
0
220
0
230
1
100
AcDbArc
50
180
51
270
0
ARC
5
134
100
AcDbEntity
8
0
100
AcDbCircle
10
5.1921488583858508
20
12.314469037669634
30
0
40
0.99999999999999645
210
-0
220
0
230
1
100
AcDbArc
50
-90
51
0
0
ARC
5
135
100
AcDbEntity
8
0
100
AcDbCircle
10
-8.4081678129476334
20
13.314469037669632
30
0
40
1.0000000000000009
210
0
220
-0
230
1
100
AcDbArc
50
0
51
90
0
ARC
5
136
100
AcDbEntity
8
0
100
AcDbCircle
10
7.1921488583858526
20
13.314469037669632
30
0
40
1.0000000000000009
210
0
220
-0
230
1
100
AcDbArc
50
90
51
180
0
LINE
5
137
100
AcDbEntity
8
0
100
AcDbLine
10
-11.408167844483888
20
-13.685575057188563
30
0
11
-8.4081678444838843
21
-13.685575057188563
31
0
0
LINE
5
138
100
AcDbEntity
8
0
100
AcDbLine
10
10.192444850813899
20
-13.685575057188563
30
0
11
7.1924448508138985
21
-13.685575057188563
31
0
0
LINE
5
139
100
AcDbEntity
8
0
100
AcDbLine
10
6.1924448508138994
20
-12.685575057188565
30
0
11
6.1924448508139012
21
-11.685575057188567
31
0
0
LINE
5
140
100
AcDbEntity
8
0
100
AcDbLine
10
-7.4081678444838861
20
-12.685575057188565
30
0
11
-7.4081678444838861
21
-11.685575057188565
31
0
0
LINE
5
141
100
AcDbEntity
8
0
100
AcDbLine
10
-6.4081678444838852
20
-10.685575057188563
30
0
11
5.1924448508138958
21
-10.685575057188563
31
0
0
ARC
5
142
100
AcDbEntity
8
0
100
AcDbCircle
10
-6.4081678444838852
20
-11.685575057188565
30
0
40
1.0000000000000009
210
0
220
-0
230
1
100
AcDbArc
50
90
51
180
0
ARC
5
143
100
AcDbEntity
8
0
100
AcDbCircle
10
5.1924448508138967
20
-11.685575057188567
30
0
40
1.0000000000000042
210
0
220
-0
230
1
100
AcDbArc
50
0
51
90.000000000000057
0
ARC
5
144
100
AcDbEntity
8
0
100
AcDbCircle
10
7.1924448508138985
20
-12.685575057188565
30
0
40
0.99999999999999867
210
0
220
0
230
1
100
AcDbArc
50
180
51
270
0
ARC
5
145
100
AcDbEntity
8
0
100
AcDbCircle
10
-8.4081678444838843
20
-12.685575057188565
30
0
40
0.99999999999999867
210
0
220
0
230
1
100
AcDbArc
50
-90
51
0
0
LWPOLYLINE
5
146
100
AcDbEntity
8
0
100
AcDbPolyline
90
12
70
1
43
0.0
10
-15.300621999687522
20
-6.9015232184997499
10
-15.300621999687522
20
-3.2852973141338735
42
-0.57586700140227265
10
-14.103710849002056
20
-2.5907028004343062
10
-11.527677939327916
20
-4.0627216059623841
42
0.130520203915757
10
-11.13076678864245
20
-4.168127092262818
10
-5.7477713498133145
20
-4.168127092262818
42
0.41421356237309587
10
-4.9477713498133147
20
-3.3681270922628181
10
-4.9477713498133156
20
-2.7873461101860562
42
-0.57517914836351358
10
-3.7522966508031601
20
-2.091932734960336
10
3.4821833205574388
20
-6.2061098432740298
42
-0.76991975753136255
10
3.0867086215472828
20
-7.7015232184997497
10
-14.500621999687521
20
-7.701523218499748
42
-0.41421356237309587
0
LWPOLYLINE
5
147
100
AcDbEntity
8
0
100
AcDbPolyline
90
14
70
1
43
0.0
10
4.3408482540776294
20
5.1096469013604109
10
2.8909681048638762
20
0.67123828131830421
42
-0.40649727661150703
10
1.9022723976124678
20
0.15290314503226321
10
-4.2056286437844186
20
1.9710690364248238
42
-0.40469321924632129
10
-4.7511715394619998
20
2.9409375934448572
10
-4.309656130301069
20
4.6229010569150768
42
0.24091310859364937
10
-4.4658967141109764
20
5.3345853619336374
10
-5.5073287248167082
20
6.5991813749334565
42
-0.17395454467502244
10
-5.6897845363230681
20
7.1077471772223344
10
-5.6897845363230681
20
7.6107631171406513
42
-0.4142135623730977
10
-4.8897845363230665
20
8.4107631171406521
10
3.5803944234521849
20
8.4107631171406521
42
-0.41421356237309609
10
4.3803944234521852
20
7.6107631171406531
10
4.3803944234521861
20
5.3580618193647211
42
-0.079098999133886586
0
LWPOLYLINE
5
148
100
AcDbEntity
8
0
100
AcDbPolyline
90
12
70
1
43
0.0
10
13.72124130575218
20
8.2694272720911748
10
8.5003590078292159
20
8.2694272720911766
42
0.40050662760994338
10
7.7012433524411055
20
7.5070327146976794
10
7.6352016250386834
20
6.1036460073962884
42
0.42805464863321274
10
8.434317280426793
20
5.2660405647897868
10
9.867009517266057
20
5.2660405647897868
42
-0.081630372476983612
10
10.123062290059746
20
5.2239567722590987
10
12.414754392642733
20
4.4497364673324142
42
-0.1287499443999815
10
12.753336936846777
20
4.2269920451610634
10
13.126605988754449
20
3.8122486541525404
42
0.68736311329699673
10
14.521241305752181
20
4.3474204394505005
10
14.521241305752181
20
7.4694272720911759
42
0.41421356237309587
0
ENDSEC
0
SECTION
2
OBJECTS
0
DICTIONARY
5
C
100
AcDbDictionary
3
ACAD_GROUP
350
D
3
ACAD_MLINESTYLE
350
17
0
DICTIONARY
5
D
100
AcDbDictionary
0
DICTIONARY
5
1A
330
C
100
AcDbDictionary
0
DICTIONARY
5
17
100
AcDbDictionary
0
ENDSEC
0
EOF
