0
SECTION
2
HEADER
9
$INSUNITS
70
4
9
$ACADVER
1
AC1014
9
$HANDSEED
5
FFFF
0
ENDSEC
0
SECTION
2
TABLES
0
TABLE
2
VPORT
5
8
100
AcDbSymbolTable
0
ENDTAB
0
TABLE
2
LTYPE
5
5
100
AcDbSymbolTable
0
LTYPE
5
14
100
AcDbSymbolTableRecord
100
AcDbLinetypeTableRecord
2
BYBLOCK
70
0
0
LTYPE
5
15
100
AcDbSymbolTableRecord
100
AcDbLinetypeTableRecord
2
BYLAYER
70
0
0
ENDTAB
0
TABLE
2
LAYER
5
2
100
AcDbSymbolTable
70
2
0
LAYER
5
50
100
AcDbSymbolTableRecord
100
AcDbLayerTableRecord
2
0
70
0
6
CONTINUOUS
0
ENDTAB
0
TABLE
2
STYLE
5
3
100
AcDbSymbolTable
70
1
0
STYLE
5
11
100
AcDbSymbolTableRecord
100
AcDbTextStyleTableRecord
2
STANDARD
70
0
0
ENDTAB
0
TABLE
2
VIEW
5
6
100
AcDbSymbolTable
70
0
0
ENDTAB
0
TABLE
2
UCS
5
7
100
AcDbSymbolTable
70
0
0
ENDTAB
0
TABLE
2
APPID
5
9
100
AcDbSymbolTable
70
2
0
APPID
5
12
100
AcDbSymbolTableRecord
100
AcDbRegAppTableRecord
2
ACAD
70
0
0
ENDTAB
0
TABLE
2
DIMSTYLE
5
A
100
AcDbSymbolTable
70
1
0
ENDTAB
0
TABLE
2
BLOCK_RECORD
5
1
100
AcDbSymbolTable
70
1
0
BLOCK_RECORD
5
1F
100
AcDbSymbolTableRecord
100
AcDbBlockTableRecord
2
*MODEL_SPACE
0
BLOCK_RECORD
5
1B
100
AcDbSymbolTableRecord
100
AcDbBlockTableRecord
2
*PAPER_SPACE
0
ENDTAB
0
ENDSEC
0
SECTION
2
BLOCKS
0
BLOCK
5
20
100
AcDbEntity
100
AcDbBlockBegin
2
*MODEL_SPACE
0
ENDBLK
5
21
100
AcDbEntity
100
AcDbBlockEnd
0
BLOCK
5
1C
100
AcDbEntity
100
AcDbBlockBegin
2
*PAPER_SPACE
0
ENDBLK
5
1D
100
AcDbEntity
100
AcDbBlockEnd
0
ENDSEC
0
SECTION
2
ENTITIES
0
LWPOLYLINE
5
100
100
AcDbEntity
8
0
100
AcDbPolyline
90
6
70
1
43
0.0
10
4.0715980939208771
20
7.6792654411024142
10
0.78189136245813806
20
4.3895587096396529
42
-0.41421356237309748
10
-0.80202782739973333
20
4.3895587096396724
10
-4.0917345588624707
20
7.6792654411024213
42
-0.47152701455803725
10
-3.9263857699264291
20
9.3995347353304997
42
-0.30591604687870494
10
3.9062493049848568
20
9.3995347353305014
42
-0.47152701455803503
0
LWPOLYLINE
5
101
100
AcDbEntity
8
0
100
AcDbPolyline
90
4
70
1
43
0.0
10
72.056640335983317
20
-2.9959757822082675
10
72.056640335983332
20
3.0040242177917524
42
-0.99999999999999989
10
74.556640335983289
20
3.0040242177917245
10
74.556640335983303
20
-2.9959757822082453
42
-0.99999999999999989
0
CIRCLE
5
102
100
AcDbEntity
8
0
100
AcDbCircle
10
15.260029748554489
20
-15.268251427013064
30
0
40
2.0499999999999998
210
0
220
0
230
1
0
ARC
5
103
100
AcDbEntity
8
0
100
AcDbCircle
10
2.8416063305725103e-05
20
-39.311283907380123
30
0
40
19.999999999999979
210
0
220
0
230
-1
100
AcDbArc
50
55.164733451115886
51
124.83536181802678
0
LWPOLYLINE
5
104
100
AcDbEntity
8
0
100
AcDbPolyline
90
6
70
1
43
0.0
10
-7.7962504223632214
20
4.0712320026035931
10
-4.5065636608683759
20
0.78090918110909457
42
-0.41421356237308582
10
-4.5067167712281684
20
-0.80301000134852085
10
-7.7968127247632424
20
-4.0924699387403765
42
-0.47151663987950676
10
-9.5170447562396472
20
-3.9269863780646381
42
-0.30591575937633786
10
-9.5165576272938903
20
3.9060170141768369
42
-0.47153771067371936
0
ARC
5
105
100
AcDbEntity
8
0
100
AcDbCircle
10
78.000000345071527
20
4.8615031441453427
30
0
40
2.9999999999999627
210
-0
220
0
230
1
100
AcDbArc
50
0
51
64.980189563753029
0
CIRCLE
5
106
100
AcDbEntity
8
0
100
AcDbCircle
10
-15.239970251445257
20
15.231748572986696
30
0
40
2.0499999999999998
210
0
220
0
230
1
0
ARC
5
107
100
AcDbEntity
8
0
100
AcDbCircle
10
78.000000345071442
20
-4.8567078558546779
30
0
40
3.0000000000000404
210
-0
220
0
230
1
100
AcDbArc
50
-64.622343814163457
51
0
0
ARC
5
108
100
AcDbEntity
8
0
100
AcDbCircle
10
-24.432317942144554
20
-24.460562366246819
30
0
40
6.1456244477477275
210
0
220
0
230
1
100
AcDbArc
50
174.54692080599995
51
304.83526654888442
0
LWPOLYLINE
5
109
100
AcDbEntity
8
0
100
AcDbPolyline
90
6
70
1
43
0.0
10
10.087872425660738
20
3.9052953428721535
42
-0.30591575937633808
10
10.087385296714986
20
-3.9277080493693237
42
-0.47153771067372074
10
8.3670780917843111
20
-4.0929230377960799
10
5.0773913302894647
20
-0.80260021630158374
42
-0.4142135623730861
10
5.0775444406492571
20
0.78131896615603325
10
8.3676403941843329
20
4.0707789035478879
42
-0.47151663987950704
0
CIRCLE
5
110
100
AcDbEntity
8
0
100
AcDbCircle
10
-9.9951907371821278
20
9.9734594871076503
30
0
40
2.125
210
0
220
0
230
1
0
LINE
5
111
100
AcDbEntity
8
0
100
AcDbLine
10
-11.352998429901342
20
22.883346705733253
30
0
11
-20.958187157648847
21
29.506246970773677
31
0
0
LWPOLYLINE
5
112
100
AcDbEntity
8
0
100
AcDbPolyline
90
6
70
1
43
0.0
10
38.920779358368385
20
5.381824588020879
42
0.66817863791929666
10
37.555093933419165
20
4.8161391630716457
10
37.55509393341913
20
-4.8137147826895692
42
0.66817863791930543
10
38.920779358368385
20
-5.3794002076388105
10
43.735706331248991
20
-0.56447323475820388
42
0.41421356237309043
10
43.735706331248991
20
0.56689761514027714
0
CIRCLE
5
113
100
AcDbEntity
8
0
100
AcDbCircle
10
24.446804449975801
20
24.446779073640151
30
0
40
2.1249999999999991
210
0
220
0
230
1
0
LINE
5
114
100
AcDbEntity
8
0
100
AcDbLine
10
-23.82553110787779
20
-11.368280755986389
30
0
11
-30.080947547192736
21
-22.03920504603467
31
0
0
LWPOLYLINE
5
115
100
AcDbEntity
8
0
100
AcDbPolyline
90
6
70
1
43
0.0
10
-4.1802674169439866
20
-7.6799719597533933
10
-0.89056068548125644
20
-4.390265228290648
42
-0.41421356237309515
10
0.69335850437659663
20
-4.3902652282906676
10
3.9830652358393075
20
-7.6799719597533933
42
-0.47152701455804857
10
3.8177164469032809
20
-9.400241253981477
42
-0.30591604687870455
10
-4.0149186280079716
20
-9.4002412539814806
42
-0.47152701455803886
0
CIRCLE
5
116
100
AcDbEntity
8
0
100
AcDbCircle
10
24.431999465876562
20
-24.460555337715174
30
0
40
2.1249999999999982
210
0
220
0
230
1
0
LINE
5
117
100
AcDbEntity
8
0
100
AcDbLine
10
-30.096245940848426
20
22.027926594160348
30
0
11
-23.827430142053323
21
11.360541469563948
31
0
0
LWPOLYLINE
5
118
100
AcDbEntity
8
0
100
AcDbPolyline
90
6
70
1
43
0.0
10
13.209952356352641
20
-6.349138202339959
10
18.285736999661808
20
-8.6722971678230696
42
0.80346864447474464
10
19.697227860753465
20
-6.8013429019757643
10
16.156215447147602
20
-2.6597183388803436
42
0.4507359797255947
10
14.139420017759008
20
-2.7524508135080361
10
12.764097303739526
20
-4.4604552272650224
42
0.48907535790535278
0
LINE
5
119
100
AcDbEntity
8
0
100
AcDbLine
10
-20.921821159598228
20
-29.504877205002074
30
0
11
-11.424406239322042
21
-22.895328517838117
31
0
0
ARC
5
120
100
AcDbEntity
8
0
100
AcDbCircle
10
40.28400647994971
20
-0.0052446992406618431
30
0
40
20.000000000000032
210
0
220
0
230
-1
100
AcDbArc
50
145.36898002316158
51
214.62144564499877
0
CIRCLE
5
121
100
AcDbEntity
8
0
100
AcDbCircle
10
-24.446701766552632
20
24.446856091086197
30
0
40
2.125
210
0
220
0
230
1
0
LINE
5
122
100
AcDbEntity
8
0
100
AcDbLine
10
81.000000345071484
20
-4.8567078558546486
30
0
11
81.000000345071484
21
4.8615031441453054
31
0
0
LWPOLYLINE
5
123
100
AcDbEntity
8
0
100
AcDbPolyline
90
6
70
1
43
0.0
10
13.988417693347575
20
2.7239511873575672
42
0.4890753579053565
10
15.928141135616388
20
2.6657869733477608
10
19.485850113478843
20
6.9673406639338253
42
0.80346864447474209
10
18.043967785129894
20
8.8149747367503224
10
13.126984205257219
20
6.4665507098317487
42
0.45073597972559371
10
12.69457183023432
20
4.4944749877104284
0
CIRCLE
5
124
100
AcDbEntity
8
0
100
AcDbCircle
10
-15.239970251445277
20
-15.268251427013036
30
0
40
2.0499999999999998
210
0
220
0
230
1
0
LINE
5
125
100
AcDbEntity
8
0
100
AcDbLine
10
11.424376702977144
20
-22.895347513861736
30
0
11
20.921565382923397
21
-29.504762193033535
31
0
0
CIRCLE
5
126
100
AcDbEntity
8
0
100
AcDbCircle
10
-24.43231794214455
20
-24.460562366246812
30
0
40
2.1250000000000004
210
0
220
0
230
1
0
ARC
5
127
100
AcDbEntity
8
0
100
AcDbCircle
10
-24.446701766552643
20
24.446856091086193
30
0
40
6.1455000000000073
210
0
220
-0
230
1
100
AcDbArc
50
55.413240989564514
51
173.29181264405972
0
ARC
5
128
100
AcDbEntity
8
0
100
AcDbCircle
10
-26.481431609885245
20
24.15221524812511
30
0
40
4.1927896361134351
210
0
220
0
230
1
100
AcDbArc
50
166.02555470149233
51
210.44113121166129
0
LINE
5
129
100
AcDbEntity
8
0
100
AcDbLine
10
20.958307338435915
20
29.50618201793931
30
0
11
11.353084786902613
21
22.883307442495607
31
0
0
ARC
5
130
100
AcDbEntity
8
0
100
AcDbCircle
10
-27.123205648390076
20
-23.773066780418404
30
0
40
3.4284856210713386
210
0
220
0
230
1
100
AcDbArc
50
149.62068605999445
51
181.72947777852045
0
CIRCLE
5
131
100
AcDbEntity
8
0
100
AcDbCircle
10
10.005012366541914
20
-10.026393280513958
30
0
40
2.1249999999999991
210
0
220
0
230
1
0
ARC
5
132
100
AcDbEntity
8
0
100
AcDbCircle
10
-7.1650332310602138e-05
20
39.348698197678488
30
0
40
19.999999999999993
210
0
220
-0
230
-1
100
AcDbArc
50
235.41343914067539
51
304.58675901043551
0
CIRCLE
5
133
100
AcDbEntity
8
0
100
AcDbCircle
10
15.2600297485545
20
15.231748572986676
30
0
40
3.0499999999999994
210
0
220
0
230
1
0
LWPOLYLINE
5
134
100
AcDbEntity
8
0
100
AcDbPolyline
90
8
70
1
43
0.0
10
29.693355203174878
20
-4.3142361726118938
10
29.697840370247661
20
4.3227036213286691
42
-0.19877740907584576
10
30.137179996213131
20
5.3825848424775344
10
31.481572841213943
20
6.726977687478346
42
-0.66817863791929388
10
33.188679622400493
20
6.0198709062917928
10
33.188679622400478
20
-6.0174465259097261
42
-0.66817863791929744
10
31.481572841213957
20
-6.7245533070962704
10
30.13269482914033
20
-5.375675295022674
42
-0.19904733265393526
0
CIRCLE
5
135
100
AcDbEntity
8
0
100
AcDbCircle
10
15.2600297485545
20
15.231748572986676
30
0
40
2.0499999999999998
210
0
220
0
230
1
0
ARC
5
136
100
AcDbEntity
8
0
100
AcDbCircle
10
39.775617067755498
20
-14.106840658419395
30
0
40
1.25
210
0
220
0
230
1
100
AcDbArc
50
270
51
272.93596223758954
0
CIRCLE
5
137
100
AcDbEntity
8
0
100
AcDbCircle
10
0
20
0
30
0
40
2.5
210
0
220
0
230
1
0
CIRCLE
5
138
100
AcDbEntity
8
0
100
AcDbCircle
10
15.260029748554489
20
-15.268251427013064
30
0
40
3.0499999999999998
210
0
220
0
230
1
0
CIRCLE
5
139
100
AcDbEntity
8
0
100
AcDbCircle
10
-15.239970251445277
20
-15.268251427013036
30
0
40
3.0499999999999994
210
0
220
0
230
1
0
CIRCLE
5
140
100
AcDbEntity
8
0
100
AcDbCircle
10
24.431999465876562
20
-24.460555337715174
30
0
40
2.5000000000000004
210
0
220
0
230
1
0
LWPOLYLINE
5
141
100
AcDbEntity
8
0
100
AcDbPolyline
90
6
70
1
43
0.0
10
46.988397524707118
20
-2.6857935783178388
10
51.372788232252233
20
-7.0701842858629131
42
-0.64980492153852054
10
50.84807863587465
20
-8.4348196350707791
10
41.60525980170668
20
-8.9088570541485463
42
-0.68686963586872885
10
40.998598548185761
20
-7.5442217049406688
10
45.857026674808637
20
-2.6857935783178357
42
-0.41421356237308887
0
LWPOLYLINE
5
142
100
AcDbEntity
8
0
100
AcDbPolyline
90
6
70
1
43
0.0
10
49.074362529207427
20
-0.5998285738175313
10
54.190222437893077
20
-5.7156884825031726
42
0.66817863791931642
10
55.641263201901637
20
-5.1146477184946102
10
55.64126320190163
20
5.117072098876684
42
0.66817863791930976
10
54.19022243789307
20
5.7181128628852482
10
49.074362529207427
20
0.60225295419959701
42
0.41421356237308715
0
CIRCLE
5
143
100
AcDbEntity
8
0
100
AcDbCircle
10
-9.9951907371821278
20
-10.026540512892213
30
0
40
2.125
210
0
220
0
230
1
0
CIRCLE
5
144
100
AcDbEntity
8
0
100
AcDbCircle
10
-9.9951907371821278
20
9.9734594871076503
30
0
40
2.5
210
0
220
0
230
1
0
CIRCLE
5
145
100
AcDbEntity
8
0
100
AcDbCircle
10
78.000000345071498
20
-4.8567078558546966
30
0
40
1.5000000000000002
210
0
220
0
230
1
0
LWPOLYLINE
5
146
100
AcDbEntity
8
0
100
AcDbPolyline
90
6
70
1
43
0.0
10
50.860434752804508
20
8.4454452349705313
42
-0.64805135590373597
10
51.381201430193002
20
7.0810218641857592
10
46.988397524707111
20
2.6882179586999193
42
-0.41421356237309359
10
45.857026674808651
20
2.6882179586999206
10
40.940703999394955
20
7.6045406341135475
42
-0.68868728194202578
10
41.551308171904935
20
8.9689640048983144
0
CIRCLE
5
147
100
AcDbEntity
8
0
100
AcDbCircle
10
28.188765728745931
20
-13.151647761377181
30
0
40
1.5000000000000002
210
0
220
0
230
1
0
CIRCLE
5
148
100
AcDbEntity
8
0
100
AcDbCircle
10
0
20
0
30
0
40
2.125
210
0
220
0
230
1
0
CIRCLE
5
149
100
AcDbEntity
8
0
100
AcDbCircle
10
78.000000345071498
20
4.8615031441453054
30
0
40
1.4999999999999991
210
0
220
0
230
1
0
CIRCLE
5
150
100
AcDbEntity
8
0
100
AcDbCircle
10
-15.239970251445257
20
15.231748572986696
30
0
40
3.0499999999999994
210
0
220
0
230
1
0
CIRCLE
5
151
100
AcDbEntity
8
0
100
AcDbCircle
10
24.446804449975801
20
24.446779073640151
30
0
40
2.4999999999999978
210
0
220
0
230
1
0
LINE
5
152
100
AcDbEntity
8
0
100
AcDbLine
10
29.702352785585845
20
13.012114510299213
30
0
11
29.702351976567076
21
13.010556609245114
31
0
0
CIRCLE
5
153
100
AcDbEntity
8
0
100
AcDbCircle
10
10.005012366541914
20
-10.026393280513958
30
0
40
2.5
210
0
220
0
230
1
0
CIRCLE
5
154
100
AcDbEntity
8
0
100
AcDbCircle
10
10.004809283187306
20
9.9734595074890962
30
0
40
2.125
210
0
220
0
230
1
0
CIRCLE
5
155
100
AcDbEntity
8
0
100
AcDbCircle
10
28.202352785585845
20
13.012114510299213
30
0
40
1.5000000000000002
210
0
220
0
230
1
0
CIRCLE
5
156
100
AcDbEntity
8
0
100
AcDbCircle
10
-24.446701766552632
20
24.446856091086197
30
0
40
2.5
210
0
220
0
230
1
0
CIRCLE
5
157
100
AcDbEntity
8
0
100
AcDbCircle
10
10.004809283187306
20
9.9734595074890962
30
0
40
2.5
210
0
220
0
230
1
0
CIRCLE
5
158
100
AcDbEntity
8
0
100
AcDbCircle
10
-24.43231794214455
20
-24.460562366246812
30
0
40
2.5
210
0
220
0
230
1
0
CIRCLE
5
159
100
AcDbEntity
8
0
100
AcDbCircle
10
-9.9951907371821278
20
-10.026540512892213
30
0
40
2.5
210
0
220
0
230
1
0
CIRCLE
5
160
100
AcDbEntity
8
0
100
AcDbCircle
10
36.422712099757874
20
-9.9987878098089649
30
0
40
1.5000000000000013
210
0
220
0
230
1
0
CIRCLE
5
161
100
AcDbEntity
8
0
100
AcDbCircle
10
36.422712099757874
20
10.001212190191037
30
0
40
1.5000000000000002
210
0
220
0
230
1
0
CIRCLE
5
162
100
AcDbEntity
8
0
100
AcDbCircle
10
56.422712099757881
20
10.001212190191037
30
0
40
1.4999999999999971
210
0
220
0
230
1
0
CIRCLE
5
163
100
AcDbEntity
8
0
100
AcDbCircle
10
56.422712099757881
20
-9.9987878098089649
30
0
40
1.5000000000000002
210
0
220
0
230
1
0
LINE
5
164
100
AcDbEntity
8
0
100
AcDbLine
10
81.000000345071484
20
-4.8567078558546486
30
0
11
81.000000345071484
21
4.8615031441453054
31
0
0
ARC
5
165
100
AcDbEntity
8
0
100
AcDbCircle
10
78.000000345071527
20
4.8615031441453427
30
0
40
2.9999999999999627
210
-0
220
0
230
1
100
AcDbArc
50
0
51
64.980189563753029
0
LINE
5
166
100
AcDbEntity
8
0
100
AcDbLine
10
54.272579407611246
20
13.377264726169937
30
0
11
79.268795142195685
21
7.5799879726464017
31
0
0
ARC
5
167
100
AcDbEntity
8
0
100
AcDbCircle
10
54.244505190385794
20
12.878053510022715
30
0
40
0.50000000000001021
210
0
220
-0
230
1
100
AcDbArc
50
86.781238897093559
51
158.57128203280783
0
ARC
5
168
100
AcDbEntity
8
0
100
AcDbCircle
10
-52.755108687582968
20
13.462602958263666
30
0
40
1.1000000000000127
210
0
220
-0
230
-1
100
AcDbArc
50
201.42871796719129
51
273.2187611029085
0
LINE
5
169
100
AcDbEntity
8
0
100
AcDbLine
10
52.693345409686934
20
12.364338282739789
30
0
11
39.713853789859449
21
13.094267930601946
31
0
0
ARC
5
170
100
AcDbEntity
8
0
100
AcDbCircle
10
-39.775617067755469
20
14.192532606125805
30
0
40
1.0999999999999948
210
-0
220
0
230
-1
100
AcDbArc
50
273.21876110290788
51
345.00880423862537
0
ARC
5
171
100
AcDbEntity
8
0
100
AcDbCircle
10
38.230072130501732
20
13.778659622072318
30
0
40
0.50000000000000488
210
0
220
-0
230
1
100
AcDbArc
50
14.991195761374859
51
86.781238897089452
0
LINE
5
172
100
AcDbEntity
8
0
100
AcDbLine
10
38.258146347727219
20
14.277870838219533
30
0
11
37.330953857424227
21
14.330013503569646
31
0
0
LINE
5
173
100
AcDbEntity
8
0
100
AcDbLine
10
37.339809427482415
20
-14.231766180371253
30
0
11
38.100767372823682
21
-14.192738850407494
31
0
0
ARC
5
174
100
AcDbEntity
8
0
100
AcDbCircle
10
38.075157479966393
20
-13.693395147745855
30
0
40
0.49999999999999706
210
-0
220
0
230
1
100
AcDbArc
50
272.93596223758823
51
346.33441263856861
0
ARC
5
175
100
AcDbEntity
8
0
100
AcDbCircle
10
-39.775617067755505
20
-14.106840658419411
30
0
40
1.2500000000000102
210
0
220
0
230
-1
100
AcDbArc
50
13.665587361431808
51
87.064037762410507
0
LINE
5
176
100
AcDbEntity
8
0
100
AcDbLine
10
39.711592335612252
20
-12.858481401765296
30
0
11
52.694528604814934
21
-12.192624187475545
31
0
0
ARC
5
177
100
AcDbEntity
8
0
100
AcDbCircle
10
-52.758553336958173
20
-13.440983444129655
30
0
40
1.2500000000000064
210
0
220
0
230
-1
100
AcDbArc
50
87.064037762411147
51
160.46248816339073
0
ARC
5
178
100
AcDbEntity
8
0
100
AcDbCircle
10
54.407793139032698
20
-12.855741549479895
30
0
40
0.50000000000000833
210
0
220
0
230
1
100
AcDbArc
50
199.53751183661049
51
272.93596223758652
0
LINE
5
179
100
AcDbEntity
8
0
100
AcDbLine
10
54.433403031889974
20
-13.355085252141546
30
0
11
79.285748817999448
21
-7.5672153478870356
31
0
0
ARC
5
180
100
AcDbEntity
8
0
100
AcDbCircle
10
78.000000345071442
20
-4.8567078558546779
30
0
40
3.0000000000000404
210
-0
220
0
230
1
100
AcDbArc
50
-64.622343814163457
51
0
0
SPLINE
5
181
100
AcDbEntity
8
0
100
AcDbSpline
70
4
71
5
72
15
73
9
74
0
42
0.000000001
43
0.0000000001
44
0.0000000001
40
0.0089708087097740662
40
0.0089708087097740662
40
0.0089708087097740662
40
0.0089708087097740662
40
0.0089708087097740662
40
0.0089708087097740662
40
0.10000000000000001
40
0.20000000000000001
40
0.30000000000000004
40
0.37194476554410838
40
0.37194476554410838
40
0.37194476554410838
40
0.37194476554410838
40
0.37194476554410838
40
0.37194476554410838
41
1
41
1
41
1
41
1
41
1
41
1
41
1
41
1
41
1
10
30.724809724532619
20
24.033114440851207
30
0
10
30.995049366345711
20
23.201755674787876
30
0
10
31.576283959594917
20
21.543938866128901
30
0
10
32.506998422665255
20
19.296265221827642
30
0
10
33.755134295418664
20
17.029913462101398
30
0
10
35.1186896213244
20
15.473148290211347
30
0
10
36.209095930268909
20
14.729855353723435
30
0
10
36.926841938568849
20
14.433908416417825
30
0
10
37.232149023748818
20
14.340752715483573
30
0
0
SPLINE
5
182
100
AcDbEntity
8
0
100
AcDbSpline
70
4
71
5
72
15
73
9
74
0
42
0.000000001
43
0.0000000001
44
0.0000000001
40
0.008560303581015373
40
0.008560303581015373
40
0.008560303581015373
40
0.008560303581015373
40
0.008560303581015373
40
0.008560303581015373
40
0.10000000000000001
40
0.20000000000000001
40
0.30000000000000004
40
0.37155740623852418
40
0.37155740623852418
40
0.37155740623852418
40
0.37155740623852418
40
0.37155740623852418
40
0.37155740623852418
41
1
41
1
41
1
41
1
41
1
41
1
41
1
41
1
41
1
10
30.699742348485451
20
-24.062101231750994
30
0
10
30.962244047079412
20
-23.218737417335561
30
0
10
31.526876318199406
20
-21.541176262236004
30
0
10
32.434492018168072
20
-19.268548410908693
30
0
10
33.657565769567569
20
-16.980012542026106
30
0
10
35.002856608529541
20
-15.406869758031769
30
0
10
36.081893653795831
20
-14.655128042117465
30
0
10
36.793395354789943
20
-14.354739317048875
30
0
10
37.095388045094793
20
-14.260012319026032
30
0
0
LINE
5
183
100
AcDbEntity
8
0
100
AcDbLine
10
37.339809427482415
20
-14.231766180371253
30
0
11
37.095388045094793
21
-14.260012319026032
31
0
0
LINE
5
184
100
AcDbEntity
8
0
100
AcDbLine
10
37.330953857424227
20
14.330013503569646
30
0
11
37.232149023748818
21
14.340752715483571
31
0
0
ARC
5
185
100
AcDbEntity
8
0
100
AcDbCircle
10
24.431999465876562
20
-24.460555337715174
30
0
40
6.1454999999999957
210
0
220
0
230
1
100
AcDbArc
50
235.16463818197312
51
356.90912825759074
0
ARC
5
186
100
AcDbEntity
8
0
100
AcDbCircle
10
24.446804449975801
20
24.446779073640151
30
0
40
6.1455000000004123
210
0
220
-0
230
1
100
AcDbArc
50
3.2202494768818881
51
124.58656085932473
0
LWPOLYLINE
5
187
100
AcDbEntity
8
0
100
AcDbPolyline
90
6
70
1
43
0.0
10
64.735706331248991
20
0.56689761514027714
10
59.920779358368385
20
5.381824588020879
42
0.66817863791929666
10
58.555093933419158
20
4.8161391630716457
10
58.555093933419123
20
-4.8137147826895692
42
0.66817863791930543
10
59.920779358368385
20
-5.3794002076388105
10
64.735706331248991
20
-0.56447323475820388
42
0.41421356237309043
0
ARC
5
188
100
AcDbEntity
8
0
100
AcDbCircle
10
33.577863462097909
20
24.960521778845006
30
0
40
3.0000000000000031
210
0
220
0
230
1
100
AcDbArc
50
183.22024947688197
51
198.00715626652925
0
ARC
5
189
100
AcDbEntity
8
0
100
AcDbCircle
10
33.564195263665205
20
-24.953678203592581
30
0
40
3.0000000000000022
210
0
220
0
230
1
100
AcDbArc
50
162.71095461979854
51
176.90912825759088
0
ENDSEC
0
SECTION
2
OBJECTS
0
DICTIONARY
5
C
100
AcDbDictionary
3
ACAD_GROUP
350
D
3
ACAD_MLINESTYLE
350
17
0
DICTIONARY
5
D
100
AcDbDictionary
0
DICTIONARY
5
1A
330
C
100
AcDbDictionary
0
DICTIONARY
5
17
100
AcDbDictionary
0
ENDSEC
0
EOF
