0
SECTION
2
HEADER
9
$INSUNITS
70
4
9
$ACADVER
1
AC1014
9
$HANDSEED
5
FFFF
0
ENDSEC
0
SECTION
2
TABLES
0
TABLE
2
VPORT
5
8
100
AcDbSymbolTable
0
ENDTAB
0
TABLE
2
LTYPE
5
5
100
AcDbSymbolTable
0
LTYPE
5
14
100
AcDbSymbolTableRecord
100
AcDbLinetypeTableRecord
2
BYBLOCK
70
0
0
LTYPE
5
15
100
AcDbSymbolTableRecord
100
AcDbLinetypeTableRecord
2
BYLAYER
70
0
0
ENDTAB
0
TABLE
2
LAYER
5
2
100
AcDbSymbolTable
70
2
0
LAYER
5
50
100
AcDbSymbolTableRecord
100
AcDbLayerTableRecord
2
0
70
0
6
CONTINUOUS
0
ENDTAB
0
TABLE
2
STYLE
5
3
100
AcDbSymbolTable
70
1
0
STYLE
5
11
100
AcDbSymbolTableRecord
100
AcDbTextStyleTableRecord
2
STANDARD
70
0
0
ENDTAB
0
TABLE
2
VIEW
5
6
100
AcDbSymbolTable
70
0
0
ENDTAB
0
TABLE
2
UCS
5
7
100
AcDbSymbolTable
70
0
0
ENDTAB
0
TABLE
2
APPID
5
9
100
AcDbSymbolTable
70
2
0
APPID
5
12
100
AcDbSymbolTableRecord
100
AcDbRegAppTableRecord
2
ACAD
70
0
0
ENDTAB
0
TABLE
2
DIMSTYLE
5
A
100
AcDbSymbolTable
70
1
0
ENDTAB
0
TABLE
2
BLOCK_RECORD
5
1
100
AcDbSymbolTable
70
1
0
BLOCK_RECORD
5
1F
100
AcDbSymbolTableRecord
100
AcDbBlockTableRecord
2
*MODEL_SPACE
0
BLOCK_RECORD
5
1B
100
AcDbSymbolTableRecord
100
AcDbBlockTableRecord
2
*PAPER_SPACE
0
ENDTAB
0
ENDSEC
0
SECTION
2
BLOCKS
0
BLOCK
5
20
100
AcDbEntity
100
AcDbBlockBegin
2
*MODEL_SPACE
0
ENDBLK
5
21
100
AcDbEntity
100
AcDbBlockEnd
0
BLOCK
5
1C
100
AcDbEntity
100
AcDbBlockBegin
2
*PAPER_SPACE
0
ENDBLK
5
1D
100
AcDbEntity
100
AcDbBlockEnd
0
ENDSEC
0
SECTION
2
ENTITIES
0
CIRCLE
5
100
100
AcDbEntity
8
0
100
AcDbCircle
10
-15.224973486902886
20
-15.266103659286554
30
0
40
3.0499999999999954
210
0
220
0
230
1
0
LINE
5
101
100
AcDbEntity
8
0
100
AcDbLine
10
-11.983783337975801
20
0.01094056709986857
30
0
11
-29.04615405833092
21
-20.641498246684023
31
0
0
ARC
5
102
100
AcDbEntity
8
0
100
AcDbCircle
10
-14.524213820609258
20
-144.82850391803095
30
0
40
13.209056309317297
210
0
220
0
230
1
100
AcDbArc
50
137.95450631436893
51
199.24176657066033
0
LINE
5
103
100
AcDbEntity
8
0
100
AcDbLine
10
-28.365362455423956
20
-136.22865518682903
30
0
11
-29.614744316489116
21
-137.05874251069403
31
0
0
ARC
5
104
100
AcDbEntity
8
0
100
AcDbCircle
10
-41.563003537443478
20
-133.53147705585928
30
0
40
1.5499999999999861
210
0
220
0
230
1
100
AcDbArc
50
-146.39999999999876
51
33.599999146228654
0
ARC
5
105
100
AcDbEntity
8
0
100
AcDbCircle
10
-15.224973486902886
20
-15.266103659286554
30
0
40
3.0499999999999949
210
0
220
-0
230
1
100
AcDbArc
50
-284.1740678410473
51
14.287632066411506
0
ARC
5
106
100
AcDbEntity
8
0
100
AcDbCircle
10
-59.495701675810572
20
-135.52035559962923
30
0
40
13.005918495063876
210
-0
220
0
230
1
100
AcDbArc
50
-42.578810377360014
51
19.770547943482022
0
ARC
5
107
100
AcDbEntity
8
0
100
AcDbCircle
10
-42.393090861308565
20
-132.28209519479421
30
0
40
4.9999999999999636
210
0
220
0
230
1
100
AcDbArc
50
129.28319262484482
51
166.57282213756187
0
LINE
5
108
100
AcDbEntity
8
0
100
AcDbLine
10
-29.04615405833092
20
-20.641498246684023
30
0
11
-29.804791128741268
21
-21.815344578448112
31
0
0
LINE
5
109
100
AcDbEntity
8
0
100
AcDbLine
10
-42.854031460544107
20
-134.38923395718649
30
0
11
-43.684118784409193
21
-133.13985209612142
31
0
0
LINE
5
110
100
AcDbEntity
8
0
100
AcDbLine
10
-26.3854695992679
20
-128.78849855607743
30
0
11
-24.67002574399811
21
-132.87138948614634
31
0
0
LINE
5
111
100
AcDbEntity
8
0
100
AcDbLine
10
-45.558860081157242
20
-128.41196532014422
30
0
11
-40.711299834215431
21
-124.44665730253703
31
0
0
LINE
5
112
100
AcDbEntity
8
0
100
AcDbLine
10
-31.330258099905631
20
-134.47668665171111
30
0
11
-30.080876258078359
21
-133.6465993406278
31
0
0
CIRCLE
5
113
100
AcDbEntity
8
0
100
AcDbCircle
10
-37.090897601546288
20
-140.18446870718986
30
0
40
3.9999999999999969
210
-0
220
0
230
1
0
ARC
5
114
100
AcDbEntity
8
0
100
AcDbCircle
10
-29.22311935675112
20
-134.93762726372844
30
0
40
4.9999999999999147
210
-0
220
0
230
1
100
AcDbArc
50
-12.057912981444623
51
24.409005092336937
0
ARC
5
115
100
AcDbEntity
8
0
100
AcDbCircle
10
-42.393090861308565
20
-132.28209519479421
30
0
40
1.5500000000000012
210
0
220
-0
230
1
100
AcDbArc
50
33.599999999999945
51
213.60000000000124
0
ARC
5
116
100
AcDbEntity
8
0
100
AcDbCircle
10
-35.064567640681631
20
-43.640174643206763
30
0
40
14.999999999999972
210
0
220
0
230
1
100
AcDbArc
50
-12.85407664617421
51
42.660737839917836
0
ARC
5
117
100
AcDbEntity
8
0
100
AcDbCircle
10
-24.420566152971066
20
-24.463007965340857
30
0
40
6
210
0
220
0
230
1
100
AcDbArc
50
140.43759416954592
51
236.61635969113783
0
CIRCLE
5
118
100
AcDbEntity
8
0
100
AcDbCircle
10
-24.420566152971066
20
-24.463007965340857
30
0
40
1.5499999999999985
210
0
220
0
230
1
0
LINE
5
119
100
AcDbEntity
8
0
100
AcDbLine
10
-24.033880628159086
20
-33.475336030038051
30
0
11
-27.722020211820745
21
-29.473038014881972
31
0
0
LINE
5
120
100
AcDbEntity
8
0
100
AcDbLine
10
-24.033880628159086
20
-33.475336030038051
30
0
11
-27.722020211820745
21
-29.473038014881972
31
0
0
ARC
5
121
100
AcDbEntity
8
0
100
AcDbCircle
10
-35.064567640681631
20
-43.640174643206763
30
0
40
14.999999999999972
210
0
220
0
230
1
100
AcDbArc
50
-12.85407664617421
51
42.660737839917836
0
ARC
5
122
100
AcDbEntity
8
0
100
AcDbCircle
10
-41.733383881024139
20
-158.62589614447077
30
0
40
2.0000000000000688
210
0
220
0
230
1
100
AcDbArc
50
202.84270397779082
51
310.54528909669534
0
LWPOLYLINE
5
123
100
AcDbEntity
8
0
100
AcDbPolyline
90
6
70
1
43
0.0
10
-37.862057428760593
20
-153.88823070544029
10
-39.611209840093736
20
-155.13588899513957
42
-0.45572625553258039
10
-41.959551902316363
20
-154.57210194694551
10
-42.951633102169296
20
-152.66633169352394
42
-0.64322161401436417
10
-41.158903186914692
20
-150.37174203971165
10
-38.417669575728567
20
-151.02985400343388
42
-0.64322161401433209
0
LINE
5
124
100
AcDbEntity
8
0
100
AcDbLine
10
-41.102062938207915
20
-131.42433829346703
30
0
11
-40.271975614342907
21
-132.67372015453208
31
0
0
ARC
5
125
100
AcDbEntity
8
0
100
AcDbCircle
10
-29.22311935675112
20
-134.93762726372844
30
0
40
1.549999999999937
210
-0
220
0
230
1
100
AcDbArc
50
-56.399999999999189
51
123.59999914622891
0
LINE
5
126
100
AcDbEntity
8
0
100
AcDbLine
10
-45.906379812332148
20
-144.16103876346932
30
0
11
-44.656997970504719
21
-143.33095145238593
31
0
0
CIRCLE
5
127
100
AcDbEntity
8
0
100
AcDbCircle
10
-37.135871143497006
20
-140.19484698153994
30
0
40
4.0000000000000044
210
0
220
-0
230
1
0
LINE
5
128
100
AcDbEntity
8
0
100
AcDbLine
10
0.011579703307446941
20
0
30
0
11
0.011579703307446941
21
0.00067940925662757212
31
0
0
ARC
5
129
100
AcDbEntity
8
0
100
AcDbCircle
10
-43.799241069177583
20
-144.62197937548663
30
0
40
1.5499999999999223
210
-0
220
0
230
1
100
AcDbArc
50
-56.400000853771864
51
123.59999914622648
0
ARC
5
130
100
AcDbEntity
8
0
100
AcDbCircle
10
-30.472501217816266
20
-135.76771458759336
30
0
40
1.5500000000000087
210
0
220
0
230
1
100
AcDbArc
50
123.59999914622573
51
303.59999914622637
0
ARC
5
131
100
AcDbEntity
8
0
100
AcDbCircle
10
-31.878651425685362
20
-148.10759876828567
30
0
40
4.9999999999999556
210
-0
220
0
230
1
100
AcDbArc
50
299.27705490516047
51
347.59602550183314
0
LINE
5
132
100
AcDbEntity
8
0
100
AcDbLine
10
-37.135856449261723
20
-140.19488092323292
30
0
11
-37.135953520909901
21
-140.19485690042856
31
0
0
LINE
5
133
100
AcDbEntity
8
0
100
AcDbLine
10
-33.169679361567589
20
-148.96535565037507
30
0
11
-33.999766672650921
21
-147.71597380854772
31
0
0
CIRCLE
5
134
100
AcDbEntity
8
0
100
AcDbCircle
10
-9.9951907371821278
20
-10.026540512892213
30
0
40
1.5500000000000005
210
0
220
0
230
1
0
ARC
5
135
100
AcDbEntity
8
0
100
AcDbCircle
10
-31.878651425685362
20
-148.10759876828567
30
0
40
1.5500000000000198
210
0
220
0
230
1
100
AcDbArc
50
-146.4000008537725
51
33.599999146228953
0
LINE
5
136
100
AcDbEntity
8
0
100
AcDbLine
10
-28.628406907682866
20
-151.90706064770944
30
0
11
-40.433286073823105
21
-160.14568089624021
31
0
0
LINE
5
137
100
AcDbEntity
8
0
100
AcDbLine
10
-31.417710826449685
20
-146.00046000589339
30
0
11
-30.587623502584673
21
-147.24984186695849
31
0
0
ARC
5
138
100
AcDbEntity
8
0
100
AcDbCircle
10
-45.048622930242828
20
-145.45206669935152
30
0
40
4.9999999999999929
210
0
220
0
230
1
100
AcDbArc
50
166.91644656522342
51
212.19572351476239
0
ARC
5
139
100
AcDbEntity
8
0
100
AcDbCircle
10
-32.708738749550321
20
-146.85821690722054
30
0
40
1.5499999999999567
210
0
220
-0
230
1
100
AcDbArc
50
33.599999999999355
51
213.60000000000096
0
LINE
5
140
100
AcDbEntity
8
0
100
AcDbLine
10
-49.703198518015526
20
-147.27824470209691
30
0
11
-43.57653202202961
21
-159.40230127731593
31
0
0
ARC
5
141
100
AcDbEntity
8
0
100
AcDbCircle
10
-45.048622930242828
20
-145.45206669935152
30
0
40
1.5499999999999667
210
0
220
0
230
1
100
AcDbArc
50
123.59999914622546
51
303.60000062500461
0
LINE
5
142
100
AcDbEntity
8
0
100
AcDbLine
10
-42.941484187088214
20
-145.91300731136877
30
0
11
-44.190866028915643
21
-146.74309462245225
31
0
0
LINE
5
143
100
AcDbEntity
8
0
100
AcDbLine
10
-39.782093492388164
20
-123.44552989377588
30
0
11
-36.81215465704539
21
-119.20648615122083
31
0
0
LINE
5
144
100
AcDbEntity
8
0
100
AcDbLine
10
-26.765468916884988
20
-127.17318637889898
30
0
11
-27.148092896841423
21
-121.23405082448407
31
0
0
LINE
5
145
100
AcDbEntity
8
0
100
AcDbLine
10
-34.415897047898262
20
-113.6756497046662
30
0
11
-20.440470354186431
21
-46.977206041788868
31
0
0
LINE
5
146
100
AcDbEntity
8
0
100
AcDbLine
10
0.01157970330742053
20
-19.3224957171048
30
0
11
-26.642698430966732
21
-116.2941318292572
31
0
0
ARC
5
147
100
AcDbEntity
8
0
100
AcDbCircle
10
-21.775812918299728
20
-126.85173184746083
30
0
40
5
210
0
220
0
230
1
100
AcDbArc
50
183.68613990453838
51
202.78991651374909
0
ARC
5
148
100
AcDbEntity
8
0
100
AcDbCircle
10
-43.877069054063718
20
-120.5765274278875
30
0
40
4.9999999999993587
210
0
220
0
230
1
100
AcDbArc
50
309.28319262484467
51
324.9843267921209
0
ARC
5
149
100
AcDbEntity
8
0
100
AcDbCircle
10
-49.097081342073409
20
-110.59947875355428
30
0
40
15.000000000000002
210
0
220
0
230
1
100
AcDbArc
50
324.98432679211953
51
348.16593115675505
0
ARC
5
150
100
AcDbEntity
8
0
100
AcDbCircle
10
-12.179124901084926
20
-120.26968723016961
30
0
40
15.000000000000714
210
0
220
0
230
1
100
AcDbArc
50
164.6308470571328
51
183.68613990453821
0
LINE
5
151
100
AcDbEntity
8
0
100
AcDbLine
10
0.01157970330742053
20
-19.3224957171048
30
0
11
0.01157970330742053
21
-1.4493205907433724
31
0
0
LINE
5
152
100
AcDbEntity
8
0
100
AcDbLine
10
-11.983783337975801
20
0.01094056709986857
30
0
11
-1.4383839888723662
21
0.01094056709986857
31
0
0
ARC
5
153
100
AcDbEntity
8
0
100
AcDbCircle
10
0.011579703307446941
20
0.00067940925662757212
30
0
40
1.45
210
0
220
0
230
1
100
AcDbArc
50
179.59453383135099
51
269.99999999999898
0
ARC
5
154
100
AcDbEntity
8
0
100
AcDbCircle
10
-26.709755006728667
20
-40.974835643417869
30
0
40
14.999999999999901
210
0
220
-0
230
1
100
AcDbArc
50
31.622564582554734
51
42.660737839917772
0
LINE
5
155
100
AcDbEntity
8
0
100
AcDbLine
10
-15.679067994206161
20
-30.809997030249217
30
0
11
-18.011895762778639
21
-28.278457283429496
31
0
0
LINE
5
156
100
AcDbEntity
8
0
100
AcDbLine
10
-17.896449309531452
20
-25.452387200003987
30
0
11
-11.340218072332476
21
-19.410784137467036
31
0
0
LINE
5
157
100
AcDbEntity
8
0
100
AcDbLine
10
-8.5141479889069682
20
-19.526230590714221
30
0
11
-6.7942239596363674
21
-21.392659008733791
31
0
0
LINE
5
158
100
AcDbEntity
8
0
100
AcDbLine
10
-6.4250841871593209
20
-23.532046840170246
30
0
11
-10.394008318223866
21
-32.845449597854113
31
0
0
ARC
5
159
100
AcDbEntity
8
0
100
AcDbCircle
10
-9.9849062572433134
20
-20.88154240580338
30
0
40
2.0000000000000009
210
0
220
-0
230
1
100
AcDbArc
50
42.660737839917672
51
132.6607378399178
0
ARC
5
160
100
AcDbEntity
8
0
100
AcDbCircle
10
-16.541137494442292
20
-26.923145468340334
30
0
40
1.9999999999999993
210
0
220
0
230
1
100
AcDbArc
50
132.66073783991766
51
222.66073783991772
0
ARC
5
161
100
AcDbEntity
8
0
100
AcDbCircle
10
-8.2649822279727143
20
-22.747970823822953
30
0
40
2.0000000000000022
210
-0
220
0
230
1
100
AcDbArc
50
-23.081369795488261
51
42.660737839917722
0
ARC
5
162
100
AcDbEntity
8
0
100
AcDbCircle
10
-12.233906359037263
20
-32.061373581506807
30
0
40
2.0000000000000075
210
0
220
0
230
1
100
AcDbArc
50
211.62256458255493
51
336.91863020451137
0
ENDSEC
0
SECTION
2
OBJECTS
0
DICTIONARY
5
C
100
AcDbDictionary
3
ACAD_GROUP
350
D
3
ACAD_MLINESTYLE
350
17
0
DICTIONARY
5
D
100
AcDbDictionary
0
DICTIONARY
5
1A
330
C
100
AcDbDictionary
0
DICTIONARY
5
17
100
AcDbDictionary
0
ENDSEC
0
EOF
