0
SECTION
2
HEADER
9
$INSUNITS
70
4
9
$ACADVER
1
AC1014
9
$HANDSEED
5
FFFF
0
ENDSEC
0
SECTION
2
TABLES
0
TABLE
2
VPORT
5
8
100
AcDbSymbolTable
0
ENDTAB
0
TABLE
2
LTYPE
5
5
100
AcDbSymbolTable
0
LTYPE
5
14
100
AcDbSymbolTableRecord
100
AcDbLinetypeTableRecord
2
BYBLOCK
70
0
0
LTYPE
5
15
100
AcDbSymbolTableRecord
100
AcDbLinetypeTableRecord
2
BYLAYER
70
0
0
ENDTAB
0
TABLE
2
LAYER
5
2
100
AcDbSymbolTable
70
2
0
LAYER
5
50
100
AcDbSymbolTableRecord
100
AcDbLayerTableRecord
2
0
70
0
6
CONTINUOUS
0
ENDTAB
0
TABLE
2
STYLE
5
3
100
AcDbSymbolTable
70
1
0
STYLE
5
11
100
AcDbSymbolTableRecord
100
AcDbTextStyleTableRecord
2
STANDARD
70
0
0
ENDTAB
0
TABLE
2
VIEW
5
6
100
AcDbSymbolTable
70
0
0
ENDTAB
0
TABLE
2
UCS
5
7
100
AcDbSymbolTable
70
0
0
ENDTAB
0
TABLE
2
APPID
5
9
100
AcDbSymbolTable
70
2
0
APPID
5
12
100
AcDbSymbolTableRecord
100
AcDbRegAppTableRecord
2
ACAD
70
0
0
ENDTAB
0
TABLE
2
DIMSTYLE
5
A
100
AcDbSymbolTable
70
1
0
ENDTAB
0
TABLE
2
BLOCK_RECORD
5
1
100
AcDbSymbolTable
70
1
0
BLOCK_RECORD
5
1F
100
AcDbSymbolTableRecord
100
AcDbBlockTableRecord
2
*MODEL_SPACE
0
BLOCK_RECORD
5
1B
100
AcDbSymbolTableRecord
100
AcDbBlockTableRecord
2
*PAPER_SPACE
0
ENDTAB
0
ENDSEC
0
SECTION
2
BLOCKS
0
BLOCK
5
20
100
AcDbEntity
100
AcDbBlockBegin
2
*MODEL_SPACE
0
ENDBLK
5
21
100
AcDbEntity
100
AcDbBlockEnd
0
BLOCK
5
1C
100
AcDbEntity
100
AcDbBlockBegin
2
*PAPER_SPACE
0
ENDBLK
5
1D
100
AcDbEntity
100
AcDbBlockEnd
0
ENDSEC
0
SECTION
2
ENTITIES
0
LINE
5
100
100
AcDbEntity
8
0
100
AcDbLine
10
0.011579703307444855
20
-1.5249999999999999
30
0
11
0.01157970330742053
21
-19.3224957171048
31
0
0
LINE
5
101
100
AcDbEntity
8
0
100
AcDbLine
10
-12.86994789856508
20
0.00037730085519578648
30
0
11
-1.5134202798953098
21
0.00022634396796684036
31
0
0
CIRCLE
5
102
100
AcDbEntity
8
0
100
AcDbCircle
10
-24.420566152971062
20
-24.463007965340854
30
0
40
1.5499999999999985
210
0
220
-0
230
1
0
LINE
5
103
100
AcDbEntity
8
0
100
AcDbLine
10
-28.904272863709224
20
-18.840887419985069
30
0
11
-67.045738375327929
21
-63.729803990733288
31
0
0
ARC
5
104
100
AcDbEntity
8
0
100
AcDbCircle
10
-67.953158321821903
20
-81.795023501859006
30
0
40
4.9999999999999734
210
-0
220
0
230
1
100
AcDbArc
50
320.44208701855507
51
356.90900509233649
0
ARC
5
105
100
AcDbEntity
8
0
100
AcDbCircle
10
-74.66631377396611
20
-57.254710895365122
30
0
40
9.9999999999999609
210
-0
220
0
230
1
100
AcDbArc
50
281.78319262484507
51
319.64592335382594
0
LINE
5
106
100
AcDbEntity
8
0
100
AcDbLine
10
-75.261254269309916
20
-97.121702394977291
30
0
11
-89.536481448765386
21
-98.978561221493152
31
0
0
LWPOLYLINE
5
107
100
AcDbEntity
8
0
100
AcDbPolyline
90
6
70
1
43
0.0
10
-84.366404838027591
20
-94.615396375348297
42
0.64322161401434708
10
-83.539387353178853
20
-91.823432137005355
10
-85.667008975971029
20
-89.973918877221081
42
0.64322161401436984
10
-88.316703422355815
20
-91.181454205577523
10
-88.316703422355829
20
-93.329985184159838
42
0.45572625553257429
10
-86.49402646081974
20
-94.914414094146352
0
ARC
5
108
100
AcDbEntity
8
0
100
AcDbCircle
10
-78.408877468781327
20
-73.35832171028791
30
0
40
4.9999999999999964
210
0
220
0
230
1
100
AcDbArc
50
101.78319262484477
51
139.07282213756159
0
LINE
5
109
100
AcDbEntity
8
0
100
AcDbLine
10
-67.788449011250719
20
-83.336247315265481
30
0
11
-69.27995592745053
21
-83.495643422269779
31
0
0
ARC
5
110
100
AcDbEntity
8
0
100
AcDbCircle
10
-95.07434078810212
20
-68.333586943733891
30
0
40
13.005918495063892
210
-0
220
0
230
1
100
AcDbArc
50
289.92118962264004
51
352.27054794348214
0
ARC
5
111
100
AcDbEntity
8
0
100
AcDbCircle
10
-86.845579260352466
20
-83.814040857247235
30
0
40
1.5499999999999956
210
0
220
0
230
1
100
AcDbArc
50
96.099999146224164
51
276.10000062500541
0
ARC
5
112
100
AcDbEntity
8
0
100
AcDbCircle
10
-78.249481361776887
20
-74.849828626487692
30
0
40
1.5499999999999794
210
0
220
0
230
1
100
AcDbArc
50
-173.89999999999966
51
6.0999991462289263
0
LINE
5
113
100
AcDbEntity
8
0
100
AcDbLine
10
-91.81747339084167
20
-83.284636706142408
30
0
11
-91.981320148022604
21
-96.867785988702394
31
0
0
ARC
5
114
100
AcDbEntity
8
0
100
AcDbCircle
10
-89.987923786398625
20
-97.030177323029562
30
0
40
2.0000000000000666
210
0
220
0
230
1
100
AcDbArc
50
175.3427039777911
51
283.04528909669392
0
CIRCLE
5
115
100
AcDbEntity
8
0
100
AcDbCircle
10
-77.39936879108717
20
-82.804532179553064
30
0
40
4.0000000000000044
210
0
220
-0
230
1
0
ARC
5
116
100
AcDbEntity
8
0
100
AcDbCircle
10
-85.354072344152598
20
-83.654644750243037
30
0
40
1.5499999999999363
210
-0
220
0
230
1
100
AcDbArc
50
-83.900000853771374
51
96.09999914622648
0
ARC
5
117
100
AcDbEntity
8
0
100
AcDbCircle
10
-78.408877468781327
20
-73.35832171028791
30
0
40
1.5500000000000078
210
0
220
-0
230
1
100
AcDbArc
50
6.1000000000012422
51
186.10000000000127
0
LINE
5
118
100
AcDbEntity
8
0
100
AcDbLine
10
-79.429921959470164
20
-68.463685038579385
30
0
11
-72.624224792588393
21
-67.043984238782144
31
0
0
LINE
5
119
100
AcDbEntity
8
0
100
AcDbLine
10
-87.010288547957543
20
-82.272817041386404
30
0
11
-85.518781654723711
21
-82.113420936836519
31
0
0
ARC
5
120
100
AcDbEntity
8
0
100
AcDbCircle
10
-76.389860113392942
20
-92.250742648818317
30
0
40
1.5500000000000211
210
0
220
0
230
1
100
AcDbArc
50
-173.90000085377326
51
6.0999991462303633
0
LINE
5
121
100
AcDbEntity
8
0
100
AcDbLine
10
-85.189363056547407
20
-85.195868566103798
30
0
11
-86.680869949781311
21
-85.355264670653696
31
0
0
ARC
5
122
100
AcDbEntity
8
0
100
AcDbCircle
10
-69.44466523802167
20
-81.954419608863347
30
0
40
1.5500000000000163
210
0
220
0
230
1
100
AcDbArc
50
96.099999146225159
51
276.09999914622733
0
ARC
5
123
100
AcDbEntity
8
0
100
AcDbCircle
10
-76.549256220397254
20
-90.759235732618535
30
0
40
1.5499999999999383
210
0
220
-0
230
1
100
AcDbArc
50
6.0999999999989072
51
186.10000000000198
0
LINE
5
124
100
AcDbEntity
8
0
100
AcDbLine
10
-77.399371429670964
20
-82.804569071245183
30
0
11
-77.399446440777893
21
-82.804502940058597
31
0
0
LINE
5
125
100
AcDbEntity
8
0
100
AcDbLine
10
-28.904272863709224
20
-18.840887419985069
30
0
11
-12.86994789856508
21
0.00037730085519578648
31
0
0
LINE
5
126
100
AcDbEntity
8
0
100
AcDbLine
10
-75.008032406990836
20
-90.594526422047409
30
0
11
-74.848636299986453
21
-92.08603333824712
31
0
0
LINE
5
127
100
AcDbEntity
8
0
100
AcDbLine
10
-79.790705175183334
20
-75.014537937058861
30
0
11
-79.950101282187788
21
-73.523031020859108
31
0
0
LINE
5
128
100
AcDbEntity
8
0
100
AcDbLine
10
-69.609374525626777
20
-80.413195793002501
30
0
11
-68.1178676323931
21
-80.253799688452546
31
0
0
ARC
5
129
100
AcDbEntity
8
0
100
AcDbCircle
10
-15.224973486902883
20
-15.266103659286552
30
0
40
3.0499999999999945
210
0
220
-0
230
1
100
AcDbArc
50
-284.1740678410473
51
14.287632066411557
0
LINE
5
130
100
AcDbEntity
8
0
100
AcDbLine
10
-62.527692525737265
20
-76.812433242973
30
0
11
-62.960432534423028
21
-82.064632870839631
31
0
0
LINE
5
131
100
AcDbEntity
8
0
100
AcDbLine
10
-77.931083929253788
20
-92.415451936423466
30
0
11
-78.090480033803686
21
-90.923945043189747
31
0
0
ARC
5
132
100
AcDbEntity
8
0
100
AcDbCircle
10
-76.389860113392942
20
-92.250742648818317
30
0
40
4.9999999999999591
210
-0
220
0
230
1
100
AcDbArc
50
271.77705490516036
51
320.09602550183297
0
ARC
5
133
100
AcDbEntity
8
0
100
AcDbCircle
10
-67.953158321821903
20
-81.795023501859006
30
0
40
1.5500000000000069
210
-0
220
0
230
1
100
AcDbArc
50
-83.899999999999267
51
96.099999146228924
0
ARC
5
134
100
AcDbEntity
8
0
100
AcDbCircle
10
-86.845579260352466
20
-83.814040857247235
30
0
40
4.9999999999999947
210
0
220
0
230
1
100
AcDbArc
50
139.41644656522288
51
184.69572351476185
0
LINE
5
135
100
AcDbEntity
8
0
100
AcDbLine
10
-76.867653655374852
20
-73.193612399716713
30
0
11
-76.708257548370455
21
-74.685119315916481
31
0
0
ARC
5
136
100
AcDbEntity
8
0
100
AcDbCircle
10
-52.561463015508082
20
-77.633572299062678
30
0
40
9.999999999999968
210
0
220
0
230
1
100
AcDbArc
50
137.80309733249402
51
175.28991651374881
0
ARC
5
137
100
AcDbEntity
8
0
100
AcDbCircle
10
-59.482168454203645
20
-97.355537491241236
30
0
40
13.209056309317326
210
0
220
0
230
1
100
AcDbArc
50
110.45450631436896
51
171.74176657066064
0
LINE
5
138
100
AcDbEntity
8
0
100
AcDbLine
10
0.01157970330744694
20
0
30
0
11
0.01157970330744694
21
0.00067940925662757223
31
0
0
CIRCLE
5
139
100
AcDbEntity
8
0
100
AcDbCircle
10
-9.9951907371821278
20
-10.026540512892213
30
0
40
1.5500000000000003
210
0
220
0
230
1
0
CIRCLE
5
140
100
AcDbEntity
8
0
100
AcDbCircle
10
-15.224973486902883
20
-15.266103659286552
30
0
40
3.0499999999999954
210
0
220
0
230
1
0
ARC
5
141
100
AcDbEntity
8
0
100
AcDbCircle
10
0.01157970330744694
20
0
30
0
40
1.5249999999999999
210
0
220
0
230
1
100
AcDbArc
50
179.99149603011463
51
269.99999999999989
0
ARC
5
142
100
AcDbEntity
8
0
100
AcDbCircle
10
-2.8416063309357452e-05
20
-39.311283907380115
30
0
40
19.999999999999979
210
0
220
-0
230
1
100
AcDbArc
50
89.966745185731554
51
124.83526654888414
0
LINE
5
143
100
AcDbEntity
8
0
100
AcDbLine
10
-11.424406239322057
20
-22.895328517838092
30
0
11
-20.581159493198182
21
-29.267800075191257
31
0
0
LINE
5
144
100
AcDbEntity
8
0
100
AcDbLine
10
-21.206551930994593
20
-29.806844627506251
30
0
11
-59.969872090633672
21
-70.916766884611832
31
0
0
ARC
5
145
100
AcDbEntity
8
0
100
AcDbCircle
10
-18.296283928546295
20
-32.550991153099815
30
0
40
4.0000000000002069
210
0
220
0
230
1
100
AcDbArc
50
124.83526654888448
51
136.68281303732567
0
ENDSEC
0
SECTION
2
OBJECTS
0
DICTIONARY
5
C
100
AcDbDictionary
3
ACAD_GROUP
350
D
3
ACAD_MLINESTYLE
350
17
0
DICTIONARY
5
D
100
AcDbDictionary
0
DICTIONARY
5
1A
330
C
100
AcDbDictionary
0
DICTIONARY
5
17
100
AcDbDictionary
0
ENDSEC
0
EOF
