0
SECTION
2
HEADER
9
$INSUNITS
70
4
9
$ACADVER
1
AC1014
9
$HANDSEED
5
FFFF
0
ENDSEC
0
SECTION
2
TABLES
0
TABLE
2
VPORT
5
8
100
AcDbSymbolTable
0
ENDTAB
0
TABLE
2
LTYPE
5
5
100
AcDbSymbolTable
0
LTYPE
5
14
100
AcDbSymbolTableRecord
100
AcDbLinetypeTableRecord
2
BYBLOCK
70
0
0
LTYPE
5
15
100
AcDbSymbolTableRecord
100
AcDbLinetypeTableRecord
2
BYLAYER
70
0
0
ENDTAB
0
TABLE
2
LAYER
5
2
100
AcDbSymbolTable
70
2
0
LAYER
5
50
100
AcDbSymbolTableRecord
100
AcDbLayerTableRecord
2
0
70
0
6
CONTINUOUS
0
ENDTAB
0
TABLE
2
STYLE
5
3
100
AcDbSymbolTable
70
1
0
STYLE
5
11
100
AcDbSymbolTableRecord
100
AcDbTextStyleTableRecord
2
STANDARD
70
0
0
ENDTAB
0
TABLE
2
VIEW
5
6
100
AcDbSymbolTable
70
0
0
ENDTAB
0
TABLE
2
UCS
5
7
100
AcDbSymbolTable
70
0
0
ENDTAB
0
TABLE
2
APPID
5
9
100
AcDbSymbolTable
70
2
0
APPID
5
12
100
AcDbSymbolTableRecord
100
AcDbRegAppTableRecord
2
ACAD
70
0
0
ENDTAB
0
TABLE
2
DIMSTYLE
5
A
100
AcDbSymbolTable
70
1
0
ENDTAB
0
TABLE
2
BLOCK_RECORD
5
1
100
AcDbSymbolTable
70
1
0
BLOCK_RECORD
5
1F
100
AcDbSymbolTableRecord
100
AcDbBlockTableRecord
2
*MODEL_SPACE
0
BLOCK_RECORD
5
1B
100
AcDbSymbolTableRecord
100
AcDbBlockTableRecord
2
*PAPER_SPACE
0
ENDTAB
0
ENDSEC
0
SECTION
2
BLOCKS
0
BLOCK
5
20
100
AcDbEntity
100
AcDbBlockBegin
2
*MODEL_SPACE
0
ENDBLK
5
21
100
AcDbEntity
100
AcDbBlockEnd
0
BLOCK
5
1C
100
AcDbEntity
100
AcDbBlockBegin
2
*PAPER_SPACE
0
ENDBLK
5
1D
100
AcDbEntity
100
AcDbBlockEnd
0
ENDSEC
0
SECTION
2
ENTITIES
0
LWPOLYLINE
5
100
100
AcDbEntity
8
0
100
AcDbPolyline
90
8
70
1
43
0.0
10
-41.853735895396795
20
13.065112840290132
42
0.99999999999999989
10
-43.453735895396775
20
13.065112840290114
10
-43.453735895396797
20
10.865112840290172
42
0.99999999999999989
10
-41.853735895396795
20
10.865112840290172
10
-39.853735895396824
20
10.86511284029017
42
0.99999999999999989
10
-38.253735895396858
20
10.865112840290161
10
-38.253735895396858
20
13.065112840290151
42
0.99999999999999989
10
-39.853735895396852
20
13.065112840290134
0
ARC
5
101
100
AcDbEntity
8
0
100
AcDbCircle
10
62.696802280906788
20
5.7447867375186039
30
0
40
3.0000000000000195
210
0
220
0
230
-1
100
AcDbArc
50
90.199639778644041
51
180.19963977864273
0
LINE
5
102
100
AcDbEntity
8
0
100
AcDbLine
10
-30.100379003450044
20
-15.001590524455281
30
0
11
-30.098260215882249
21
-15.001590718105755
31
0
0
ARC
5
103
100
AcDbEntity
8
0
100
AcDbCircle
10
44.801735895396781
20
16.150591323039766
30
0
40
0.79999999999998295
210
0
220
0
230
-1
100
AcDbArc
50
180
51
270.00000000000051
0
LINE
5
104
100
AcDbEntity
8
0
100
AcDbLine
10
-59.696820492154998
20
5.7343336443043116
30
0
11
-59.716738321569871
21
0.018023238277517846
31
0
0
LWPOLYLINE
5
105
100
AcDbEntity
8
0
100
AcDbPolyline
90
10
70
1
43
0.0
10
-29.973753887496972
20
5.8397670296504289
42
-0.21510956506849926
10
-29.628199710007731
20
6.6058060742061553
42
0.21510956506850262
10
-28.951883001004681
20
8.1050934199592959
10
-28.951883001004663
20
8.7782435691607024
42
-0.99999999999999989
10
-25.351883001004659
20
8.7782435691607095
10
-25.351883001004651
20
-8.7217564308392319
42
-0.99999999999999989
10
-28.951883001004663
20
-8.7217564308392355
10
-28.951883001004663
20
-8.388681102159449
42
0.21510956506849635
10
-29.62819971000771
20
-6.889393756406327
42
-0.21510956506850193
10
-29.973753887496972
20
-6.1233547118505927
0
LWPOLYLINE
5
106
100
AcDbEntity
8
0
100
AcDbPolyline
90
8
70
1
43
0.0
10
-45.550678759238387
20
7.1197783101177592
42
0.4142135623730977
10
-47.150678759238424
20
8.7197783101177571
10
-53.414290944462401
20
8.7197783101177642
42
0.41421356237309931
10
-55.014290944462438
20
7.1197783101177574
10
-55.014290944462438
20
-7.1260131617840949
42
0.41421356237310053
10
-53.414290944462401
20
-8.7260131617840919
10
-47.150678759238396
20
-8.7260131617840884
42
0.41421356237310336
10
-45.550678759238394
20
-7.1260131617840949
0
LWPOLYLINE
5
107
100
AcDbEntity
8
0
100
AcDbPolyline
90
12
70
1
43
0.0
10
-35.87587321460898
20
6.3043092217534245
42
0.33845074667388542
10
-36.802261420946735
20
7.0125059430649124
10
-36.933337406911456
20
7.0125059430649008
42
0.41421356237308932
10
-37.893337406911456
20
6.0525059430649009
10
-37.893337406911478
20
-6.2842170348622446
42
0.41421356237309026
10
-36.933337406911456
20
-7.2442170348622525
10
-36.805192443574207
20
-7.2442170348622481
42
0.33845074667389147
10
-35.878804237236437
20
-6.5360203135507708
42
-0.10785093894351633
10
-35.346836073980796
20
-5.5148809548414404
42
0.17555653526450818
10
-35.124080044494328
20
-4.9000059041673731
10
-35.124080044494342
20
4.6718136237203476
42
0.17523409630159656
10
-35.346067281160479
20
5.2857657074828506
42
-0.10753449534129378
0
CIRCLE
5
108
100
AcDbEntity
8
0
100
AcDbCircle
10
-33.251883001004657
20
11.934964241091508
30
0
40
1.5000000000000002
210
0
220
0
230
1
0
LINE
5
109
100
AcDbEntity
8
0
100
AcDbLine
10
-29.973753887496972
20
5.8397670296504289
30
0
11
-29.973753887496962
21
-6.1250073802092153
31
0
0
ARC
5
110
100
AcDbEntity
8
0
100
AcDbCircle
10
66.705765788810268
20
16.150591323039766
30
0
40
0.79999999999998961
210
0
220
-0
230
-1
100
AcDbArc
50
-90.000000000001009
51
0
0
LWPOLYLINE
5
111
100
AcDbEntity
8
0
100
AcDbPolyline
90
8
70
1
43
0.0
10
-41.853735895396795
20
-10.934887159709845
42
0.99999999999999989
10
-43.453735895396775
20
-10.934887159709881
10
-43.453735895396797
20
-13.134887159709834
42
0.99999999999999989
10
-41.853735895396795
20
-13.134887159709834
10
-39.853735895396824
20
-13.134887159709836
42
0.99999999999999989
10
-38.253735895396858
20
-13.134887159709844
10
-38.253735895396858
20
-10.934887159709856
42
0.99999999999999989
10
-39.853735895396852
20
-10.934887159709861
0
LWPOLYLINE
5
112
100
AcDbEntity
8
0
100
AcDbPolyline
90
8
70
1
43
0.0
10
-71.653735895396821
20
-13.134887159709844
10
-69.653735895396821
20
-13.134887159709836
42
0.99999999999999989
10
-68.053735895396855
20
-13.134887159709844
10
-68.053735895396827
20
-10.934887159709874
42
0.99999999999999989
10
-69.653735895396849
20
-10.934887159709888
10
-71.653735895396849
20
-10.93488715970987
42
0.99999999999999989
10
-73.253735895396815
20
-10.934887159709888
10
-73.253735895396773
20
-13.134887159709859
42
0.99999999999999989
0
LWPOLYLINE
5
113
100
AcDbEntity
8
0
100
AcDbPolyline
90
8
70
1
43
0.0
10
-73.253735895396815
20
13.065112840290114
10
-73.253735895396773
20
10.865112840290148
42
0.99999999999999989
10
-71.653735895396821
20
10.865112840290166
10
-69.653735895396821
20
10.86511284029017
42
0.99999999999999989
10
-68.053735895396855
20
10.865112840290161
10
-68.053735895396827
20
13.065112840290157
42
0.99999999999999989
10
-69.653735895396849
20
13.065112840290134
10
-71.653735895396849
20
13.065112840290123
42
0.99999999999999989
0
LINE
5
114
100
AcDbEntity
8
0
100
AcDbLine
10
-52.519378830190789
20
15.061280253710985
30
0
11
-52.519378873564733
21
15.060805719393064
31
0
0
ARC
5
115
100
AcDbEntity
8
0
100
AcDbCircle
10
-30.14226016667191
20
17.057655272370912
30
0
40
2.0000000000000053
210
0
220
0
230
1
100
AcDbArc
50
269.99644865004063
51
270.07484931317151
0
LINE
5
116
100
AcDbEntity
8
0
100
AcDbLine
10
-67.505765788810251
20
16.150591323039773
30
0
11
-78.251869873252758
21
16.15059132303977
31
0
0
CIRCLE
5
117
100
AcDbEntity
8
0
100
AcDbCircle
10
-78.251869873252758
20
12.900591323039761
30
0
40
1.5000000000000002
210
0
220
0
230
1
0
ARC
5
118
100
AcDbEntity
8
0
100
AcDbCircle
10
-77.029409217933932
20
13.070621463947685
30
0
40
4.4756915177648251
210
0
220
0
230
1
100
AcDbArc
50
182.17717290246841
51
254.14122675399321
0
CIRCLE
5
119
100
AcDbEntity
8
0
100
AcDbCircle
10
-33.256768038717127
20
-11.826240722120405
30
0
40
1.5000000000000002
210
0
220
0
230
1
0
CIRCLE
5
120
100
AcDbEntity
8
0
100
AcDbCircle
10
-78.26633948721188
20
-12.665405336339449
30
0
40
1.5000000000000002
210
0
220
0
230
1
0
ARC
5
121
100
AcDbEntity
8
0
100
AcDbCircle
10
-78.25186987325273
20
12.900591323039745
30
0
40
3.2500000000000262
210
0
220
0
230
1
100
AcDbArc
50
90.000000000000512
51
180
0
LINE
5
122
100
AcDbEntity
8
0
100
AcDbLine
10
-78.252468611628117
20
8.7652828847313629
30
0
11
-70.653723353564544
21
8.7725299297366774
31
0
0
LINE
5
123
100
AcDbEntity
8
0
100
AcDbLine
10
28.202352785585845
20
16.150591323039766
30
0
11
-44.001735895396799
21
16.150591323039773
31
0
0
LWPOLYLINE
5
124
100
AcDbEntity
8
0
100
AcDbPolyline
90
6
70
1
43
0.0
10
3.3386985704406658
20
4.259449080826812
42
0.47152701455804119
10
3.2146869787386443
20
5.5496510514978725
42
0.3059160468787045
10
-2.6597893274448179
20
5.5496510514978681
42
0.47152701455804025
10
-2.7838009191468487
20
4.2594490808268164
10
-0.31652087054979017
20
1.7921690322297568
42
0.41421356237309553
10
0.87141852184360769
20
1.7921690322297399
0
LWPOLYLINE
5
125
100
AcDbEntity
8
0
100
AcDbPolyline
90
6
70
1
43
0.0
10
0.80501887828244856
20
-1.7926989212180013
42
0.41421356237309509
10
-0.38292051411093903
20
-1.7926989212179869
10
-2.8502005627079874
20
-4.2599789698150445
42
0.47152701455804041
10
-2.7261889710059748
20
-5.5501809404861113
42
0.30591604687870444
10
3.1482873351774665
20
-5.5501809404861033
42
0.47152701455804397
10
3.2722989268794898
20
-4.2599789698150445
0
LWPOLYLINE
5
126
100
AcDbEntity
8
0
100
AcDbPolyline
90
4
70
1
43
0.0
10
-17.505095286080735
20
8.7782435691607237
10
-17.505095286080724
20
-8.7217564308392319
42
-0.99999999999999989
10
-21.005095286080717
20
-8.7217564308392355
10
-21.005095286080735
20
8.7782435691607041
42
-0.99999999999999989
0
LWPOLYLINE
5
127
100
AcDbEntity
8
0
100
AcDbPolyline
90
6
70
1
43
0.0
10
-5.3527835671797259
20
-2.9452397835484803
42
0.4715166398795006
10
-4.0626095435724245
20
-3.0693524540552817
10
-1.5950375784211128
20
-0.60225750101138975
42
0.4142135623730932
10
-1.5949227456512796
20
0.58568188583182135
10
-4.0621878167724192
20
3.0534240019526986
42
0.47153771067371769
10
-5.3524182204704216
20
2.9295127606326288
42
0.30591575937633775
0
LWPOLYLINE
5
128
100
AcDbEntity
8
0
100
AcDbPolyline
90
4
70
1
43
0.0
10
13.994904713919274
20
8.7782435691607077
42
-0.99999999999999989
10
17.494904713919269
20
8.7782435691607184
10
17.494904713919276
20
-8.7217564308392266
42
-0.99999999999999989
10
13.994904713919293
20
-8.7217564308392355
0
CIRCLE
5
129
100
AcDbEntity
8
0
100
AcDbCircle
10
28.188765728745931
20
-13.151647761377181
30
0
40
1.5000000000000002
210
0
220
0
230
1
0
LWPOLYLINE
5
130
100
AcDbEntity
8
0
100
AcDbPolyline
90
4
70
1
43
0.0
10
25.99490471391929
20
-8.7217564308392355
42
-0.99999999999999989
10
22.494904713919293
20
-8.721756430839223
10
22.494904713919293
20
8.7782435691607112
42
-0.99999999999999989
10
25.99490471391929
20
8.7782435691607077
0
LWPOLYLINE
5
131
100
AcDbEntity
8
0
100
AcDbPolyline
90
4
70
1
43
0.0
10
-10.005095286080721
20
-8.7217564308392337
42
-0.99999999999999989
10
-13.505095286080708
20
-8.7217564308392337
10
-13.505095286080728
20
8.7782435691607077
42
-0.99999999999999989
10
-10.005095286080737
20
8.778243569160713
0
LWPOLYLINE
5
132
100
AcDbEntity
8
0
100
AcDbPolyline
90
6
70
1
43
0.0
10
4.496526346882507
20
2.8103759319808743
42
0.30591604687870455
10
4.5589304289374049
20
-3.0637689081174702
42
0.47152701455803014
10
5.8503769652458004
20
-3.1740677923229681
10
8.2913080836240578
20
-0.68071724501861042
42
0.41421356237309664
10
8.2786887004730669
20
0.50715511814540903
10
5.7853381531686967
20
2.9480862365236602
42
0.4715270145580327
0
LWPOLYLINE
5
133
100
AcDbEntity
8
0
100
AcDbPolyline
90
4
70
1
43
0.0
10
29.74490471391929
20
7.7782435691607148
10
29.74490471391929
20
-7.7217564308392372
42
0.99999999999999989
10
32.744904713919269
20
-7.7217564308392328
10
32.74490471391929
20
7.7782435691607095
42
0.99999999999999989
0
LINE
5
134
100
AcDbEntity
8
0
100
AcDbLine
10
-44.801735895396789
20
15.350591323039772
30
0
11
-66.705765788810254
21
15.350591323039776
31
0
0
LINE
5
135
100
AcDbEntity
8
0
100
AcDbLine
10
-70.653723353564544
20
8.7725299297366774
30
0
11
-62.686349187692507
21
8.7447685262703896
31
0
0
CIRCLE
5
136
100
AcDbEntity
8
0
100
AcDbCircle
10
28.202352785585845
20
13.012114510299213
30
0
40
1.5000000000000002
210
0
220
0
230
1
0
LINE
5
137
100
AcDbEntity
8
0
100
AcDbLine
10
107.00000034507144
20
4.8615031441453551
30
0
11
107.00000034507144
21
-0.039140475640543626
31
0
0
ARC
5
138
100
AcDbEntity
8
0
100
AcDbCircle
10
104.00000128941763
20
4.85912279203382
30
0
40
3.0000000000000018
210
0
220
-0
230
1
100
AcDbArc
50
0.045461381347560482
51
64.480480994539406
0
CIRCLE
5
139
100
AcDbEntity
8
0
100
AcDbCircle
10
104.0000003450715
20
4.8615031441453054
30
0
40
1.45
210
0
220
0
230
1
0
CIRCLE
5
140
100
AcDbEntity
8
0
100
AcDbCircle
10
104.0000003450715
20
-4.8567078558546966
30
0
40
1.45
210
0
220
0
230
1
0
LINE
5
141
100
AcDbEntity
8
0
100
AcDbLine
10
76.422712099757888
20
12.975065365106055
30
0
11
105.13427000560866
21
7.6042105932623949
31
0
0
LWPOLYLINE
5
142
100
AcDbEntity
8
0
100
AcDbPolyline
90
6
70
1
43
0.0
10
46.998752863766448
20
2.6778626196405853
10
52.616357833896103
20
9.429602141260375
42
0.66817863791931409
10
52.015317069887537
20
10.880642905268939
10
40.980292394924518
20
11.800228294849223
42
0.66817863791932108
10
40.379251630915959
20
10.349187530840666
10
45.796671335749302
20
2.6778626196405808
42
0.41421356237308854
0
LWPOLYLINE
5
143
100
AcDbEntity
8
0
100
AcDbPolyline
90
6
70
1
43
0.0
10
43.735706331248991
20
0.56689761514027714
10
38.920779358368392
20
5.381824588020879
42
0.66817863791929921
10
37.555093933419172
20
4.8161391630716457
10
37.555093933419123
20
-4.8137147826895692
42
0.66817863791930787
10
38.920779358368392
20
-5.3794002076388114
10
43.735706331248991
20
-0.56447323475820377
42
0.41421356237309043
0
LWPOLYLINE
5
144
100
AcDbEntity
8
0
100
AcDbPolyline
90
6
70
1
43
0.0
10
55.240330266096606
20
4.8161391630716137
42
0.66817863791930021
10
53.874644841147379
20
5.3818245880208515
10
49.059717868266766
20
0.5668976151402656
42
0.41421356237309054
10
49.059717868266766
20
-0.56447323475821376
10
53.874644841147358
20
-5.3794002076388301
42
0.66817863791930854
10
55.240330266096606
20
-4.8137147826896012
0
LWPOLYLINE
5
145
100
AcDbEntity
8
0
100
AcDbPolyline
90
6
70
1
43
0.0
10
63.735706331248991
20
0.56689761514027714
10
58.920779358368392
20
5.381824588020879
42
0.66817863791929921
10
57.555093933419172
20
4.8161391630716457
10
57.555093933419116
20
-4.8137147826895692
42
0.66817863791930787
10
58.920779358368392
20
-5.3794002076388114
10
63.735706331248991
20
-0.56447323475820377
42
0.41421356237309043
0
LWPOLYLINE
5
146
100
AcDbEntity
8
0
100
AcDbPolyline
90
6
70
1
43
0.0
10
66.998752863766441
20
2.6778626196405853
10
72.415953065913456
20
8.1826905116021056
42
0.6681786379193172
10
71.814912301904897
20
9.6337312756106712
10
61.281852191072886
20
10.221703159135981
42
0.66817863791932108
10
60.680811427064327
20
8.7706623951274274
10
65.796671335749309
20
2.6778626196405808
42
0.41421356237308854
0
LWPOLYLINE
5
147
100
AcDbEntity
8
0
100
AcDbPolyline
90
6
70
1
43
0.0
10
69.074362529207434
20
-0.5998285738175313
10
74.190222437893084
20
-5.7156884825031735
42
0.66817863791931509
10
75.641263201901637
20
-5.1146477184946093
10
75.641263201901637
20
5.1170720988766849
42
0.66817863791932042
10
74.190222437893084
20
5.7181128628852438
10
69.074362529207434
20
0.6022529541995969
42
0.41421356237308715
0
LWPOLYLINE
5
148
100
AcDbEntity
8
0
100
AcDbPolyline
90
6
70
1
43
0.0
10
84.735706331249006
20
0.56689761514027714
10
79.920779358368407
20
5.3818245880208826
42
0.66817863791930576
10
78.555093933419158
20
4.8161391630716457
10
78.555093933419116
20
-4.8137147826895692
42
0.66817863791930721
10
79.920779358368392
20
-5.3794002076388132
10
84.735706331249006
20
-0.56447323475820388
42
0.41421356237308588
0
LWPOLYLINE
5
149
100
AcDbEntity
8
0
100
AcDbPolyline
90
6
70
1
43
0.0
10
86.357026674808651
20
2.6882179586999206
10
81.440703999394955
20
7.604540634113544
42
-0.6886872819420361
10
82.051308171904935
20
8.9689640048983144
10
90.029240639335271
20
7.4367118730329622
42
-0.60162153570799592
10
90.547733366595665
20
5.7475538005884061
10
87.488397524707153
20
2.6882179586999295
42
-0.41421356237308266
0
LWPOLYLINE
5
150
100
AcDbEntity
8
0
100
AcDbPolyline
90
6
70
1
43
0.0
10
89.574362529207434
20
-0.5998285738175313
10
94.690222437893098
20
-5.7156884825031771
42
0.66817863791931942
10
96.141263201901637
20
-5.1146477184946093
10
96.141263201901651
20
5.1170720988766849
42
0.66817863791931686
10
94.690222437893112
20
5.7181128628852438
10
89.574362529207434
20
0.6022529541995969
42
0.41421356237308715
0
LWPOLYLINE
5
151
100
AcDbEntity
8
0
100
AcDbPolyline
90
4
70
1
43
0.0
10
98.056640335983332
20
-2.9959757822082809
10
98.056640335983332
20
3.0040242177917404
42
-0.99999999999999989
10
100.55664033598326
20
3.0040242177917205
10
100.5566403359833
20
-2.9959757822082587
42
-0.99999999999999989
0
LWPOLYLINE
5
152
100
AcDbEntity
8
0
100
AcDbPolyline
90
6
70
1
43
0.0
10
87.488397524707153
20
-2.6857935783178415
10
90.533363881234095
20
-5.7307599348447971
42
-0.60287681499955914
10
90.011251345117742
20
-7.4206063200419603
10
82.105259801706694
20
-8.9088570541485463
42
-0.68686963586873306
10
81.498598548185782
20
-7.5442217049406688
10
86.357026674808651
20
-2.6857935783178295
42
-0.41421356237310525
0
CIRCLE
5
153
100
AcDbEntity
8
0
100
AcDbCircle
10
76.422712099757888
20
10.001212190191037
30
0
40
0.99999999999999978
210
0
220
0
230
1
0
CIRCLE
5
154
100
AcDbEntity
8
0
100
AcDbCircle
10
76.422712099757888
20
-9.9987878098089649
30
0
40
0.99999999999999645
210
0
220
0
230
1
0
CIRCLE
5
155
100
AcDbEntity
8
0
100
AcDbCircle
10
36.422712099757874
20
-9.9987878098089649
30
0
40
1
210
0
220
0
230
1
0
CIRCLE
5
156
100
AcDbEntity
8
0
100
AcDbCircle
10
56.422712099757888
20
10.001212190191037
30
0
40
1
210
0
220
0
230
1
0
CIRCLE
5
157
100
AcDbEntity
8
0
100
AcDbCircle
10
36.422712099757874
20
10.001212190191037
30
0
40
1
210
0
220
0
230
1
0
LINE
5
158
100
AcDbEntity
8
0
100
AcDbLine
10
107.00000034507144
20
0.041564856017339835
30
0
11
106.9999376440439
21
0.12227016332901217
31
0
0
LINE
5
159
100
AcDbEntity
8
0
100
AcDbLine
10
105.13427000560866
20
7.6042105932623949
30
0
11
105.29245695853506
21
7.5664385001413681
31
0
0
CIRCLE
5
160
100
AcDbEntity
8
0
100
AcDbCircle
10
56.422712099757888
20
-9.9987878098089649
30
0
40
1
210
0
220
0
230
1
0
LINE
5
161
100
AcDbEntity
8
0
100
AcDbLine
10
28.202352785585845
20
16.150591323039766
30
0
11
76.422712099757888
21
12.975065365106055
31
0
0
LINE
5
162
100
AcDbEntity
8
0
100
AcDbLine
10
106.99704633034487
20
-4.9260900568154176
30
0
11
107.00000447782948
21
-0.025447329834424191
31
0
0
ARC
5
163
100
AcDbEntity
8
0
100
AcDbCircle
10
103.99704925807269
20
-4.9218988328626327
30
0
40
2.9999999999999414
210
-0
220
0
230
1
100
AcDbArc
50
295.48493387961025
51
359.91995349279961
0
LINE
5
164
100
AcDbEntity
8
0
100
AcDbLine
10
105.12966076596925
20
-7.6676708061269512
30
0
11
105.28787049022955
21
-7.6299942053731122
31
0
0
LINE
5
165
100
AcDbEntity
8
0
100
AcDbLine
10
76.414866112469753
20
-13.021193605986262
30
0
11
105.12966076596925
21
-7.6676708061269512
31
0
0
LINE
5
166
100
AcDbEntity
8
0
100
AcDbLine
10
28.192598758563175
20
-16.167612005647317
30
0
11
76.414866112469753
21
-13.021193605986262
31
0
0
LINE
5
167
100
AcDbEntity
8
0
100
AcDbLine
10
28.192598758563175
20
-16.167612005647317
30
0
11
-44.011476768195323
21
-16.124027864485434
31
0
0
ARC
5
168
100
AcDbEntity
8
0
100
AcDbCircle
10
44.811476622450371
20
-16.123544965060109
30
0
40
0.79999999999999394
210
0
220
0
230
-1
100
AcDbArc
50
90.034585125848494
51
180.03458512583799
0
LINE
5
169
100
AcDbEntity
8
0
100
AcDbLine
10
-44.810993723025078
20
-15.323545110805037
30
0
11
-66.715019625937103
21
-15.310323306495498
31
0
0
ARC
5
170
100
AcDbEntity
8
0
100
AcDbCircle
10
66.715502525362439
20
-16.110323160750564
30
0
40
0.79999999999998728
210
0
220
0
230
-1
100
AcDbArc
50
0.034585125838030403
51
90.034585125851549
0
LINE
5
171
100
AcDbEntity
8
0
100
AcDbLine
10
-67.515502379617502
20
-16.109840261325253
30
0
11
-78.261604506322371
21
-16.103353651966799
31
0
0
ARC
5
172
100
AcDbEntity
8
0
100
AcDbCircle
10
-78.259642727406998
20
-12.853354244055522
30
0
40
3.250000000000016
210
0
220
0
230
1
100
AcDbArc
50
179.96541487415143
51
269.96541487414942
0
ARC
5
173
100
AcDbEntity
8
0
100
AcDbCircle
10
-77.037284929119153
20
-13.024122260922075
30
0
40
4.4756915177648207
210
0
220
0
230
1
100
AcDbArc
50
105.82418812015668
51
177.78824197168149
0
LINE
5
174
100
AcDbEntity
8
0
100
AcDbLine
10
-78.257745293087851
20
-8.7180461977093788
30
0
11
-70.659005793864779
21
-8.7298800285422171
31
0
0
LINE
5
175
100
AcDbEntity
8
0
100
AcDbLine
10
-70.659005793864779
20
-8.7298800285422171
30
0
11
-62.691616322040943
21
-8.7069279306410063
31
0
0
ARC
5
176
100
AcDbEntity
8
0
100
AcDbCircle
10
62.700258551498678
20
-5.7069403786884791
30
0
40
3.0000000000000178
210
0
220
0
230
-1
100
AcDbArc
50
179.83494534720765
51
269.8349453472062
0
LINE
5
177
100
AcDbEntity
8
0
100
AcDbLine
10
-59.700270999546149
20
-5.6982981492307259
30
0
11
-59.716738321569871
21
0.018023238277517846
31
0
0
LWPOLYLINE
5
178
100
AcDbEntity
8
0
100
AcDbPolyline
90
6
70
1
43
0.0
10
40.379251630915924
20
-10.346763150458582
10
45.796671335749302
20
-2.6754382392585221
42
-0.41421356237308854
10
46.998752863766441
20
-2.6754382392585265
10
52.616357833896068
20
-9.4271777608783385
42
-0.6681786379193172
10
52.015317069887494
20
-10.878218524886897
10
40.980292394924476
20
-11.797803914467138
42
-0.66817863791931842
0
LWPOLYLINE
5
179
100
AcDbEntity
8
0
100
AcDbPolyline
90
6
70
1
43
0.0
10
66.998752863766441
20
-2.6754382392586007
10
72.415953065913428
20
-8.1802661312201472
42
-0.66817863791931387
10
71.814912301904869
20
-9.6313068952287058
10
61.281852191072858
20
-10.219278778753973
42
-0.66817863791932164
10
60.680811427064292
20
-8.7682380147454175
10
65.796671335749309
20
-2.6754382392585963
42
-0.41421356237308854
0
ENDSEC
0
SECTION
2
OBJECTS
0
DICTIONARY
5
C
100
AcDbDictionary
3
ACAD_GROUP
350
D
3
ACAD_MLINESTYLE
350
17
0
DICTIONARY
5
D
100
AcDbDictionary
0
DICTIONARY
5
1A
330
C
100
AcDbDictionary
0
DICTIONARY
5
17
100
AcDbDictionary
0
ENDSEC
0
EOF
