0
SECTION
2
HEADER
9
$INSUNITS
70
4
9
$ACADVER
1
AC1014
9
$HANDSEED
5
FFFF
0
ENDSEC
0
SECTION
2
TABLES
0
TABLE
2
VPORT
5
8
100
AcDbSymbolTable
0
ENDTAB
0
TABLE
2
LTYPE
5
5
100
AcDbSymbolTable
0
LTYPE
5
14
100
AcDbSymbolTableRecord
100
AcDbLinetypeTableRecord
2
BYBLOCK
70
0
0
LTYPE
5
15
100
AcDbSymbolTableRecord
100
AcDbLinetypeTableRecord
2
BYLAYER
70
0
0
ENDTAB
0
TABLE
2
LAYER
5
2
100
AcDbSymbolTable
70
2
0
LAYER
5
50
100
AcDbSymbolTableRecord
100
AcDbLayerTableRecord
2
0
70
0
6
CONTINUOUS
0
ENDTAB
0
TABLE
2
STYLE
5
3
100
AcDbSymbolTable
70
1
0
STYLE
5
11
100
AcDbSymbolTableRecord
100
AcDbTextStyleTableRecord
2
STANDARD
70
0
0
ENDTAB
0
TABLE
2
VIEW
5
6
100
AcDbSymbolTable
70
0
0
ENDTAB
0
TABLE
2
UCS
5
7
100
AcDbSymbolTable
70
0
0
ENDTAB
0
TABLE
2
APPID
5
9
100
AcDbSymbolTable
70
2
0
APPID
5
12
100
AcDbSymbolTableRecord
100
AcDbRegAppTableRecord
2
ACAD
70
0
0
ENDTAB
0
TABLE
2
DIMSTYLE
5
A
100
AcDbSymbolTable
70
1
0
ENDTAB
0
TABLE
2
BLOCK_RECORD
5
1
100
AcDbSymbolTable
70
1
0
BLOCK_RECORD
5
1F
100
AcDbSymbolTableRecord
100
AcDbBlockTableRecord
2
*MODEL_SPACE
0
BLOCK_RECORD
5
1B
100
AcDbSymbolTableRecord
100
AcDbBlockTableRecord
2
*PAPER_SPACE
0
ENDTAB
0
ENDSEC
0
SECTION
2
BLOCKS
0
BLOCK
5
20
100
AcDbEntity
100
AcDbBlockBegin
2
*MODEL_SPACE
0
ENDBLK
5
21
100
AcDbEntity
100
AcDbBlockEnd
0
BLOCK
5
1C
100
AcDbEntity
100
AcDbBlockBegin
2
*PAPER_SPACE
0
ENDBLK
5
1D
100
AcDbEntity
100
AcDbBlockEnd
0
ENDSEC
0
SECTION
2
ENTITIES
0
LINE
5
100
100
AcDbEntity
8
0
100
AcDbLine
10
-87.607085447774864
20
-58.176543693077548
30
0
11
-87.741157013358333
21
-59.670539949867347
31
0
0
ARC
5
101
100
AcDbEntity
8
0
100
AcDbCircle
10
-89.150881579791019
20
-58.038003075307962
30
0
40
4.9999999999999769
210
0
220
0
230
1
100
AcDbArc
50
90.55519262484502
51
127.84482213756186
0
LINE
5
102
100
AcDbEntity
8
0
100
AcDbLine
10
-74.246223534100366
20
-64.518287807974019
30
0
11
-75.693356241473865
21
-69.585700537694066
31
0
0
LINE
5
103
100
AcDbEntity
8
0
100
AcDbLine
10
-98.106522172139336
20
-68.328727148482926
30
0
11
-99.600518405924873
21
-68.194655584963769
31
0
0
ARC
5
104
100
AcDbEntity
8
0
100
AcDbCircle
10
-89.284953145374431
20
-59.531999332097783
30
0
40
1.5499999999999501
210
0
220
0
230
1
100
AcDbArc
50
174.87200000000004
51
354.87199914622857
0
LINE
5
105
100
AcDbEntity
8
0
100
AcDbLine
10
-90.690559608469044
20
-81.959440844374512
30
0
11
-105.05411649258539
21
-81.001177121056855
31
0
0
ARC
5
106
100
AcDbEntity
8
0
100
AcDbCircle
10
-80.538025202151289
20
-68.349099283672189
30
0
40
4.9999999999999662
210
-0
220
0
230
1
100
AcDbArc
50
309.21408701855484
51
345.6810050923367
0
LINE
5
107
100
AcDbEntity
8
0
100
AcDbLine
10
0
20
-1.45
30
0
11
0
21
-19.31128390740033
31
0
0
ARC
5
108
100
AcDbEntity
8
0
100
AcDbCircle
10
-99.461977788155252
20
-66.6508594529476
30
0
40
4.9999999999999805
210
0
220
0
230
1
100
AcDbArc
50
128.18844656522288
51
173.4677235147617
0
LWPOLYLINE
5
109
100
AcDbEntity
8
0
100
AcDbPolyline
90
6
70
1
43
0.0
10
-97.835144313846058
20
-77.238691312834035
42
0.64322161401435274
10
-96.48032212278315
20
-74.66119658751748
10
-98.207095723214039
20
-72.432805688068783
42
0.64322161401435096
10
-101.04119901650759
20
-73.101297087694562
10
-101.4595474611245
20
-75.208705435598361
42
0.4557262555325815
10
-99.980266358893758
20
-77.117708761289194
0
ARC
5
110
100
AcDbEntity
8
0
100
AcDbCircle
10
-80.538025202151289
20
-68.349099283672189
30
0
40
1.5499999999999725
210
0
220
0
230
1
100
AcDbArc
50
-95.127999999998892
51
84.8719991462293
0
ARC
5
111
100
AcDbEntity
8
0
100
AcDbCircle
10
-82.032021458941088
20
-68.215027718088649
30
0
40
1.5500000000000045
210
0
220
-0
230
1
100
AcDbArc
50
84.871999146224155
51
264.8719991462284
0
ARC
5
112
100
AcDbEntity
8
0
100
AcDbCircle
10
-104.51898512391936
20
-49.864446898294645
30
0
40
13.00591849506387
210
-0
220
0
230
1
100
AcDbArc
50
278.69318962264009
51
341.0425479434823
0
ARC
5
113
100
AcDbEntity
8
0
100
AcDbCircle
10
-90.715049844931869
20
-75.467959404521991
30
0
40
1.5499999999999452
210
-0
220
0
230
1
100
AcDbArc
50
-5.1280000000021033
51
174.87200000000212
0
ARC
5
114
100
AcDbEntity
8
0
100
AcDbCircle
10
-75.259014543150471
20
-85.261204753222842
30
0
40
13.209056309317265
210
0
220
0
230
1
100
AcDbArc
50
99.22650631436899
51
160.51376657066061
0
ARC
5
115
100
AcDbEntity
8
0
100
AcDbCircle
10
-89.150881579791019
20
-58.038003075307962
30
0
40
1.5500000000000089
210
-0
220
0
230
1
100
AcDbArc
50
-5.1279999999984902
51
174.87200000000092
0
ARC
5
116
100
AcDbEntity
8
0
100
AcDbCircle
10
-97.967981531365425
20
-66.784931018531239
30
0
40
1.5499999999999452
210
0
220
0
230
1
100
AcDbArc
50
-95.128000853771269
51
84.871999146225988
0
LINE
5
117
100
AcDbEntity
8
0
100
AcDbLine
10
-90.828749277390529
20
-59.393458714328162
30
0
11
-90.694677711807174
21
-57.899462457538363
31
0
0
LINE
5
118
100
AcDbEntity
8
0
100
AcDbLine
10
-80.676565819920881
20
-69.892895415688315
30
0
11
-82.170562076710723
21
-69.758823850104775
31
0
0
CIRCLE
5
119
100
AcDbEntity
8
0
100
AcDbCircle
10
-15.250000000000002
20
-15.250000000000005
30
0
40
3.0499999999999954
210
0
220
0
230
1
0
LINE
5
120
100
AcDbEntity
8
0
100
AcDbLine
10
-80.620555452844798
20
-84.965156592790976
30
0
11
-80.620616151599066
21
-84.965077121656378
31
0
0
LINE
5
121
100
AcDbEntity
8
0
100
AcDbLine
10
-99.323437147381242
20
-65.10706332299587
30
0
11
-97.829440913595704
21
-65.241134886515098
31
0
0
ARC
5
122
100
AcDbEntity
8
0
100
AcDbCircle
10
-90.849121410515437
20
-76.961955661311791
30
0
40
1.5500000000000207
210
0
220
0
230
1
100
AcDbArc
50
174.87199914622735
51
354.87199914623005
0
LINE
5
123
100
AcDbEntity
8
0
100
AcDbLine
10
-104.23562820071101
20
-65.163492067697291
30
0
11
-107.04116438301703
21
-78.454758257264047
31
0
0
ARC
5
124
100
AcDbEntity
8
0
100
AcDbCircle
10
-99.461977788155252
20
-66.6508594529476
30
0
40
1.5499999999999976
210
0
220
-0
230
1
100
AcDbArc
50
84.871999146225221
51
264.87200062500534
0
ARC
5
125
100
AcDbEntity
8
0
100
AcDbCircle
10
-105.117541213404
20
-79.00218304783175
30
0
40
2.0000000000000648
210
0
220
0
230
1
100
AcDbArc
50
164.11470397779129
51
271.81728909669471
0
CIRCLE
5
126
100
AcDbEntity
8
0
100
AcDbCircle
10
-24.5
20
-24.5
30
0
40
1.4750000000000001
210
0
220
0
230
1
0
CIRCLE
5
127
100
AcDbEntity
8
0
100
AcDbCircle
10
-10
20
-10
30
0
40
1.4750000000000001
210
0
220
0
230
1
0
ARC
5
128
100
AcDbEntity
8
0
100
AcDbCircle
10
-64.630633521204913
20
-67.264271912790335
30
0
40
9.9999999999999485
210
0
220
0
230
1
100
AcDbArc
50
126.57509733249394
51
164.06191651374891
0
ARC
5
129
100
AcDbEntity
8
0
100
AcDbCircle
10
0
20
0
30
0
40
1.45
210
0
220
0
230
1
100
AcDbArc
50
180
51
270
0
ARC
5
130
100
AcDbEntity
8
0
100
AcDbCircle
10
-90.849121410515437
20
-76.961955661311791
30
0
40
4.9999999999999698
210
0
220
0
230
1
100
AcDbArc
50
260.54905490516063
51
308.8680255018329
0
LINE
5
131
100
AcDbEntity
8
0
100
AcDbLine
10
-92.392917540467167
20
-76.823415020537837
30
0
11
-92.258845976947981
21
-75.329418786752427
31
0
0
LINE
5
132
100
AcDbEntity
8
0
100
AcDbLine
10
-89.199330518029498
20
-53.038237810779698
30
0
11
-82.247458381625023
21
-52.970872483417615
31
0
0
LINE
5
133
100
AcDbEntity
8
0
100
AcDbLine
10
-1.45
20
1.7757378587636619e-16
30
0
11
-12.87026898977693
21
0
31
0
0
CIRCLE
5
134
100
AcDbEntity
8
0
100
AcDbCircle
10
-90.000001495153242
20
-67.499979368309823
30
0
40
4.0000000000000044
210
-0
220
0
230
1
0
LINE
5
135
100
AcDbEntity
8
0
100
AcDbLine
10
-89.171253712915771
20
-75.606500022291669
30
0
11
-89.305325278499225
21
-77.100496279081412
31
0
0
ARC
5
136
100
AcDbEntity
8
0
100
AcDbCircle
10
-82.344356258101982
20
-42.971341954361094
30
0
40
9.9999999999999609
210
-0
220
0
230
1
100
AcDbArc
50
270.55519262484501
51
308.41792335382576
0
LINE
5
137
100
AcDbEntity
8
0
100
AcDbLine
10
-81.893480818167049
20
-66.671231588136919
30
0
11
-80.399484584381696
21
-66.805303151656034
31
0
0
LINE
5
138
100
AcDbEntity
8
0
100
AcDbLine
10
-76.130427197357093
20
-50.806333060166111
30
0
11
-12.87026898977693
21
0
31
0
0
LINE
5
139
100
AcDbEntity
8
0
100
AcDbLine
10
-70.589392393801432
20
-59.23350652596379
30
0
11
-31.062167633109979
21
-29.826520931655178
31
0
0
ARC
5
140
100
AcDbEntity
8
0
100
AcDbCircle
10
-5.0002934539605803e-05
20
-53.830456098412995
30
0
40
34.519172191048874
210
0
220
-0
230
1
100
AcDbArc
50
89.999917003887106
51
123.25928558722293
0
ARC
5
141
100
AcDbEntity
8
0
100
AcDbCircle
10
-24.5
20
-24.5
30
0
40
4.9999999999999973
210
0
220
0
230
1
100
AcDbArc
50
249.03683358193413
51
342.21594238046373
0
ARC
5
142
100
AcDbEntity
8
0
100
AcDbCircle
10
-28.077677072242921
20
-33.838106165960461
30
0
40
5.0000000000000746
210
0
220
-0
230
1
100
AcDbArc
50
69.036833581934559
51
126.64806282317834
0
ARC
5
143
100
AcDbEntity
8
0
100
AcDbCircle
10
-17.834499097142196
20
-26.638012561701515
30
0
40
1.9999999999994063
210
0
220
0
230
1
100
AcDbArc
50
123.25928558721962
51
162.21594238047211
0
ENDSEC
0
SECTION
2
OBJECTS
0
DICTIONARY
5
C
100
AcDbDictionary
3
ACAD_GROUP
350
D
3
ACAD_MLINESTYLE
350
17
0
DICTIONARY
5
D
100
AcDbDictionary
0
DICTIONARY
5
1A
330
C
100
AcDbDictionary
0
DICTIONARY
5
17
100
AcDbDictionary
0
ENDSEC
0
EOF
