0
SECTION
2
HEADER
9
$INSUNITS
70
4
9
$ACADVER
1
AC1014
9
$HANDSEED
5
FFFF
0
ENDSEC
0
SECTION
2
TABLES
0
TABLE
2
VPORT
5
8
100
AcDbSymbolTable
0
ENDTAB
0
TABLE
2
LTYPE
5
5
100
AcDbSymbolTable
0
LTYPE
5
14
100
AcDbSymbolTableRecord
100
AcDbLinetypeTableRecord
2
BYBLOCK
70
0
0
LTYPE
5
15
100
AcDbSymbolTableRecord
100
AcDbLinetypeTableRecord
2
BYLAYER
70
0
0
ENDTAB
0
TABLE
2
LAYER
5
2
100
AcDbSymbolTable
70
2
0
LAYER
5
50
100
AcDbSymbolTableRecord
100
AcDbLayerTableRecord
2
0
70
0
6
CONTINUOUS
0
ENDTAB
0
TABLE
2
STYLE
5
3
100
AcDbSymbolTable
70
1
0
STYLE
5
11
100
AcDbSymbolTableRecord
100
AcDbTextStyleTableRecord
2
STANDARD
70
0
0
ENDTAB
0
TABLE
2
VIEW
5
6
100
AcDbSymbolTable
70
0
0
ENDTAB
0
TABLE
2
UCS
5
7
100
AcDbSymbolTable
70
0
0
ENDTAB
0
TABLE
2
APPID
5
9
100
AcDbSymbolTable
70
2
0
APPID
5
12
100
AcDbSymbolTableRecord
100
AcDbRegAppTableRecord
2
ACAD
70
0
0
ENDTAB
0
TABLE
2
DIMSTYLE
5
A
100
AcDbSymbolTable
70
1
0
ENDTAB
0
TABLE
2
BLOCK_RECORD
5
1
100
AcDbSymbolTable
70
1
0
BLOCK_RECORD
5
1F
100
AcDbSymbolTableRecord
100
AcDbBlockTableRecord
2
*MODEL_SPACE
0
BLOCK_RECORD
5
1B
100
AcDbSymbolTableRecord
100
AcDbBlockTableRecord
2
*PAPER_SPACE
0
ENDTAB
0
ENDSEC
0
SECTION
2
BLOCKS
0
BLOCK
5
20
100
AcDbEntity
100
AcDbBlockBegin
2
*MODEL_SPACE
0
ENDBLK
5
21
100
AcDbEntity
100
AcDbBlockEnd
0
BLOCK
5
1C
100
AcDbEntity
100
AcDbBlockBegin
2
*PAPER_SPACE
0
ENDBLK
5
1D
100
AcDbEntity
100
AcDbBlockEnd
0
ENDSEC
0
SECTION
2
ENTITIES
0
LINE
5
100
100
AcDbEntity
8
0
100
AcDbLine
10
11.424376702977142
20
-22.895347513861736
30
0
11
20.921565382923397
21
-29.504762193033546
31
0
0
ARC
5
101
100
AcDbEntity
8
0
100
AcDbCircle
10
24.431999465876562
20
-24.460555337715174
30
0
40
6.1455000000000073
210
0
220
0
230
1
100
AcDbArc
50
235.16463818197323
51
238.56503455867005
0
LINE
5
102
100
AcDbEntity
8
0
100
AcDbLine
10
-2.6636067881454936e-16
20
-1.4500000000000002
30
0
11
0
21
-19.31128390740033
31
0
0
LINE
5
103
100
AcDbEntity
8
0
100
AcDbLine
10
145.21333978488309
20
-117.82364078426973
30
0
11
144.93741276321282
21
-116.34923778324801
31
0
0
ARC
5
104
100
AcDbEntity
8
0
100
AcDbCircle
10
-2.8416063309357452e-05
20
-39.311283907380115
30
0
40
19.999999999999975
210
0
220
-0
230
1
100
AcDbArc
50
55.164638181973231
51
89.99991859397511
0
CIRCLE
5
105
100
AcDbEntity
8
0
100
AcDbCircle
10
10
20
-10
30
0
40
1.4500000000000002
210
0
220
0
230
1
0
ARC
5
106
100
AcDbEntity
8
0
100
AcDbCircle
10
146.73688958031357
20
-117.53851621352271
30
0
40
1.5499999999999612
210
0
220
0
230
1
100
AcDbArc
50
-169.40000085377497
51
10.600000625004482
0
ARC
5
107
100
AcDbEntity
8
0
100
AcDbCircle
10
160.15883061801327
20
-119.63424782397851
30
0
40
2.0000000000000577
210
0
220
0
230
1
100
AcDbArc
50
-90.157296022207134
51
17.545289096693605
0
CIRCLE
5
108
100
AcDbEntity
8
0
100
AcDbCircle
10
144.98935174949287
20
-108.20063039660214
30
0
40
4.0000000000000044
210
-0
220
0
230
1
0
ARC
5
109
100
AcDbEntity
8
0
100
AcDbCircle
10
143.24181391867222
20
-98.862744579681632
30
0
40
1.5499999999999563
210
0
220
-0
230
1
100
AcDbArc
50
10.60000000000165
51
190.5999991462287
0
LINE
5
110
100
AcDbEntity
8
0
100
AcDbLine
10
1.4500000000000002
20
0
30
0
11
12.000000000000002
21
0
31
0
0
LINE
5
111
100
AcDbEntity
8
0
100
AcDbLine
10
146.59920772305972
20
-122.53662022466372
30
0
11
160.15333995793472
21
-121.63424028712734
31
0
0
ARC
5
112
100
AcDbEntity
8
0
100
AcDbCircle
10
119.19409545904918
20
-104.37141653658909
30
0
40
7.9999999999992255
210
0
220
-0
230
1
100
AcDbArc
50
30.898630961282851
51
56.41169359242587
0
LWPOLYLINE
5
113
100
AcDbEntity
8
0
100
AcDbPolyline
90
6
70
1
43
0.0
10
154.19701472349493
20
-118.42706480153424
10
156.33892249810634
20
-118.25849300381145
42
0.45572625553258062
10
157.77546155633362
20
-116.3171218875375
10
157.31043434079521
20
-114.21951967197413
42
0.64322161401433187
10
154.46218975241581
20
-113.61410659547288
10
152.78530919334284
20
-115.88028060875915
42
0.64322161401435363
0
ARC
5
114
100
AcDbEntity
8
0
100
AcDbCircle
10
146.73688958031357
20
-117.53851621352271
30
0
40
4.9999999999999547
210
0
220
0
230
1
100
AcDbArc
50
233.91644656522359
51
279.19572351476234
0
LINE
5
115
100
AcDbEntity
8
0
100
AcDbLine
10
28.241257701716648
20
-19.757625121168591
30
0
11
128.30087698339719
21
-90.949933384390974
31
0
0
ARC
5
116
100
AcDbEntity
8
0
100
AcDbCircle
10
131.94977792830269
20
-126.95649363120341
30
0
40
13.005918495063831
210
0
220
-0
230
1
100
AcDbArc
50
24.421189622639826
51
86.770547943482015
0
CIRCLE
5
117
100
AcDbEntity
8
0
100
AcDbCircle
10
15.250000000000002
20
-15.250000000000005
30
0
40
3.0499999999999989
210
0
220
0
230
1
0
LINE
5
118
100
AcDbEntity
8
0
100
AcDbLine
10
159.09463237531551
20
-104.94579473985212
30
0
11
162.06578854157428
21
-119.03132869360677
31
0
0
LINE
5
119
100
AcDbEntity
8
0
100
AcDbLine
10
12.000000000000002
20
0
30
0
11
17.881977604361261
21
-7.0386794547980083
31
0
0
ARC
5
120
100
AcDbEntity
8
0
100
AcDbCircle
10
28.188765728745931
20
-13.151647761377181
30
0
40
3.0000000000000031
210
0
220
0
230
1
100
AcDbArc
50
-62.557375228333044
51
120.39014220141389
0
ARC
5
121
100
AcDbEntity
8
0
100
AcDbCircle
10
29.423478080554283
20
-18.144443489776457
30
0
40
1.9999999999999984
210
0
220
0
230
1
100
AcDbArc
50
117.44262477166669
51
233.76416975166379
0
LINE
5
122
100
AcDbEntity
8
0
100
AcDbLine
10
28.501757798419305
20
-16.369497935259073
30
0
11
29.571346151948411
21
-15.814066093153249
31
0
0
ARC
5
123
100
AcDbEntity
8
0
100
AcDbCircle
10
25.555384133083194
20
-0.62628269188889973
30
0
40
9.9999999999999822
210
0
220
0
230
1
100
AcDbArc
50
219.88432126979492
51
276.40597421410854
0
CIRCLE
5
124
100
AcDbEntity
8
0
100
AcDbCircle
10
24.431999465876562
20
-24.460555337715174
30
0
40
1.4499999999999988
210
0
220
0
230
1
0
CIRCLE
5
125
100
AcDbEntity
8
0
100
AcDbCircle
10
28.188765728745931
20
-13.151647761377181
30
0
40
1.5249999999999986
210
0
220
0
230
1
0
LINE
5
126
100
AcDbEntity
8
0
100
AcDbLine
10
137.41099354974642
20
-111.1957909926855
30
0
11
135.93659052602214
21
-111.47171801860466
31
0
0
ARC
5
127
100
AcDbEntity
8
0
100
AcDbCircle
10
158.08973383155097
20
-89.19700409010801
30
0
40
13.209056309317198
210
0
220
0
230
1
100
AcDbArc
50
204.9545063143687
51
266.24176657066039
0
LINE
5
128
100
AcDbEntity
8
0
100
AcDbLine
10
154.61236213716037
20
-107.9766423612119
30
0
11
153.13795913613876
21
-108.25256938288217
31
0
0
LINE
5
129
100
AcDbEntity
8
0
100
AcDbLine
10
144.76536370985397
20
-98.57761998623188
30
0
11
145.04129073577303
21
-100.05202300995626
31
0
0
LINE
5
130
100
AcDbEntity
8
0
100
AcDbLine
10
141.99419114916071
20
-100.62227217415295
30
0
11
141.71826412749039
21
-99.147869173131383
31
0
0
LINE
5
131
100
AcDbEntity
8
0
100
AcDbLine
10
128.96432773829332
20
-105.11844248481131
30
0
11
126.05871286827355
21
-100.26325054372059
31
0
0
ARC
5
132
100
AcDbEntity
8
0
100
AcDbCircle
10
154.32723756641329
20
-106.45309256578136
30
0
40
4.9999999999999369
210
0
220
-0
230
1
100
AcDbArc
50
6.2770549051603277
51
54.596025501832656
0
ARC
5
133
100
AcDbEntity
8
0
100
AcDbCircle
10
143.24181391867222
20
-98.862744579681632
30
0
40
4.9999999999999298
210
0
220
-0
230
1
100
AcDbArc
50
54.942087018555313
51
91.409005092336869
0
ARC
5
134
100
AcDbEntity
8
0
100
AcDbCircle
10
132.93874591826992
20
-84.431484815679084
30
0
40
7.9999999999999876
210
0
220
0
230
1
100
AcDbArc
50
234.56819115043092
51
257.88716283098586
0
LINE
5
135
100
AcDbEntity
8
0
100
AcDbLine
10
135.36634133912264
20
-108.42461843624108
30
0
11
136.84074436284692
21
-108.14869141032197
31
0
0
ARC
5
136
100
AcDbEntity
8
0
100
AcDbCircle
10
135.65146593257239
20
-109.94816822742287
30
0
40
4.9999999999999432
210
0
220
0
230
1
100
AcDbArc
50
196.28319262484544
51
233.57282213756207
0
ARC
5
137
100
AcDbEntity
8
0
100
AcDbCircle
10
127.2481733859878
20
-106.14548398302823
30
0
40
1.9999999999992171
210
0
220
-0
230
1
100
AcDbArc
50
16.28319262484192
51
30.898630961286045
0
ARC
5
138
100
AcDbEntity
8
0
100
AcDbCircle
10
143.51774094459125
20
-100.3371476034059
30
0
40
1.55000000000002
210
0
220
0
230
1
100
AcDbArc
50
-169.40000085377386
51
10.599999146227047
0
ARC
5
139
100
AcDbEntity
8
0
100
AcDbCircle
10
154.32723756641329
20
-106.45309256578136
30
0
40
1.5500000000000442
210
-0
220
0
230
1
100
AcDbArc
50
-79.400000853772781
51
100.5999991462305
0
LINE
5
140
100
AcDbEntity
8
0
100
AcDbLine
10
138.48641841344951
20
-93.804268612037077
30
0
11
131.26004487169729
21
-92.253374791652647
31
0
0
LINE
5
141
100
AcDbEntity
8
0
100
AcDbLine
10
130.85202801965775
20
-111.35009394588192
30
0
11
129.16794855115296
21
-105.58471369564494
31
0
0
ARC
5
142
100
AcDbEntity
8
0
100
AcDbCircle
10
146.46096255439465
20
-116.06411318979838
30
0
40
1.549999999999879
210
0
220
-0
230
1
100
AcDbArc
50
10.599999146229919
51
190.59999914622659
0
ARC
5
143
100
AcDbEntity
8
0
100
AcDbCircle
10
0
20
0
30
0
40
1.4500000000000002
210
0
220
0
230
1
100
AcDbArc
50
-90
51
0
0
LINE
5
144
100
AcDbEntity
8
0
100
AcDbLine
10
138.89876039444621
20
-93.848782673747223
30
0
11
143.11886742144941
21
-93.864256392357404
31
0
0
LINE
5
145
100
AcDbEntity
8
0
100
AcDbLine
10
152.56770994923932
20
-105.2054698005186
30
0
11
154.04211297296359
21
-104.92954277459951
31
0
0
LINE
5
146
100
AcDbEntity
8
0
100
AcDbLine
10
20.921565382923397
20
-29.504762193033546
30
0
11
123.61986782237834
21
-97.707143208762602
31
0
0
ARC
5
147
100
AcDbEntity
8
0
100
AcDbCircle
10
135.65146593257239
20
-109.94816822742287
30
0
40
1.5499999999999881
210
0
220
0
230
1
100
AcDbArc
50
100.60000000000139
51
280.60000000000139
0
ARC
5
148
100
AcDbEntity
8
0
100
AcDbCircle
10
137.12586895629667
20
-109.67224120150374
30
0
40
1.5499999999999705
210
-0
220
0
230
1
100
AcDbArc
50
-79.399999999998428
51
100.59999914622873
0
ARC
5
149
100
AcDbEntity
8
0
100
AcDbCircle
10
138.90609367509268
20
-91.84879611804314
30
0
40
2.0000000000005231
210
0
220
0
230
1
100
AcDbArc
50
257.88716283098898
51
269.78991651374872
0
ARC
5
150
100
AcDbEntity
8
0
100
AcDbCircle
10
152.85283454268895
20
-106.72901959170036
30
0
40
1.5499999999999541
210
0
220
0
230
1
100
AcDbArc
50
100.59999999999745
51
280.60000000000338
0
LINE
5
151
100
AcDbEntity
8
0
100
AcDbLine
10
147.98451234982502
20
-115.77898861905125
30
0
11
148.26043937149538
21
-117.25339162007302
31
0
0
ENDSEC
0
SECTION
2
OBJECTS
0
DICTIONARY
5
C
100
AcDbDictionary
3
ACAD_GROUP
350
D
3
ACAD_MLINESTYLE
350
17
0
DICTIONARY
5
D
100
AcDbDictionary
0
DICTIONARY
5
1A
330
C
100
AcDbDictionary
0
DICTIONARY
5
17
100
AcDbDictionary
0
ENDSEC
0
EOF
