0
SECTION
2
HEADER
9
$INSUNITS
70
4
9
$ACADVER
1
AC1014
9
$HANDSEED
5
FFFF
0
ENDSEC
0
SECTION
2
TABLES
0
TABLE
2
VPORT
5
8
100
AcDbSymbolTable
0
ENDTAB
0
TABLE
2
LTYPE
5
5
100
AcDbSymbolTable
0
LTYPE
5
14
100
AcDbSymbolTableRecord
100
AcDbLinetypeTableRecord
2
BYBLOCK
70
0
0
LTYPE
5
15
100
AcDbSymbolTableRecord
100
AcDbLinetypeTableRecord
2
BYLAYER
70
0
0
ENDTAB
0
TABLE
2
LAYER
5
2
100
AcDbSymbolTable
70
2
0
LAYER
5
50
100
AcDbSymbolTableRecord
100
AcDbLayerTableRecord
2
0
70
0
6
CONTINUOUS
0
ENDTAB
0
TABLE
2
STYLE
5
3
100
AcDbSymbolTable
70
1
0
STYLE
5
11
100
AcDbSymbolTableRecord
100
AcDbTextStyleTableRecord
2
STANDARD
70
0
0
ENDTAB
0
TABLE
2
VIEW
5
6
100
AcDbSymbolTable
70
0
0
ENDTAB
0
TABLE
2
UCS
5
7
100
AcDbSymbolTable
70
0
0
ENDTAB
0
TABLE
2
APPID
5
9
100
AcDbSymbolTable
70
2
0
APPID
5
12
100
AcDbSymbolTableRecord
100
AcDbRegAppTableRecord
2
ACAD
70
0
0
ENDTAB
0
TABLE
2
DIMSTYLE
5
A
100
AcDbSymbolTable
70
1
0
ENDTAB
0
TABLE
2
BLOCK_RECORD
5
1
100
AcDbSymbolTable
70
1
0
BLOCK_RECORD
5
1F
100
AcDbSymbolTableRecord
100
AcDbBlockTableRecord
2
*MODEL_SPACE
0
BLOCK_RECORD
5
1B
100
AcDbSymbolTableRecord
100
AcDbBlockTableRecord
2
*PAPER_SPACE
0
ENDTAB
0
ENDSEC
0
SECTION
2
BLOCKS
0
BLOCK
5
20
100
AcDbEntity
100
AcDbBlockBegin
2
*MODEL_SPACE
0
ENDBLK
5
21
100
AcDbEntity
100
AcDbBlockEnd
0
BLOCK
5
1C
100
AcDbEntity
100
AcDbBlockBegin
2
*PAPER_SPACE
0
ENDBLK
5
1D
100
AcDbEntity
100
AcDbBlockEnd
0
ENDSEC
0
SECTION
2
ENTITIES
0
LINE
5
100
100
AcDbEntity
8
0
100
AcDbLine
10
1.4500000000000002
20
0
30
0
11
12
21
0
31
0
0
CIRCLE
5
101
100
AcDbEntity
8
0
100
AcDbCircle
10
142.9902077793397
20
-91.175661163349332
30
0
40
3.9999999999999969
210
0
220
-0
230
1
0
ARC
5
102
100
AcDbEntity
8
0
100
AcDbCircle
10
131.63090740106782
20
-111.0426058605713
30
0
40
13.005918495063831
210
0
220
-0
230
1
100
AcDbArc
50
29.421189622639833
51
91.770547943481986
0
LWPOLYLINE
5
103
100
AcDbEntity
8
0
100
AcDbPolyline
90
6
70
1
43
0.0
10
153.05009803876683
20
-100.60665963573597
42
-0.6432216140143614
10
151.42179760642327
20
-98.192604969730922
10
152.89478704938145
20
-95.788904662116721
42
-0.64322161401433464
10
155.78495843354514
20
-96.143773086455468
10
156.43103415921939
20
-98.19286349993709
42
-0.45572625553258012
10
155.16916320739938
20
-100.25204974160346
0
LINE
5
104
100
AcDbEntity
8
0
100
AcDbLine
10
156.75410867138342
20
-86.74983437260677
30
0
11
160.94159386514974
21
-100.52281529463886
31
0
0
ARC
5
105
100
AcDbEntity
8
0
100
AcDbCircle
10
154.38043652350922
20
-71.148555304942647
30
0
40
13.20905630931723
210
0
220
0
230
1
100
AcDbArc
50
209.95450631436881
51
271.24176657066039
0
CIRCLE
5
106
100
AcDbEntity
8
0
100
AcDbCircle
10
142.98618051602824
20
-91.221640606628853
30
0
40
4.0000000000000044
210
0
220
-0
230
1
0
ARC
5
107
100
AcDbEntity
8
0
100
AcDbCircle
10
140.83482195110625
20
-83.516340072247743
30
0
40
1.5500000000000114
210
0
220
0
230
1
100
AcDbArc
50
-164.40000085377406
51
15.599999146226232
0
ARC
5
108
100
AcDbEntity
8
0
100
AcDbCircle
10
159.09444035683865
20
-101.28964246990975
30
0
40
2.0000000000000688
210
-0
220
0
230
1
100
AcDbArc
50
-85.157296022207632
51
22.545289096694251
0
LINE
5
109
100
AcDbEntity
8
0
100
AcDbLine
10
141.92434419871975
20
-81.654770500097641
30
0
11
142.32772392964262
21
-83.099514350294157
31
0
0
LINE
5
110
100
AcDbEntity
8
0
100
AcDbLine
10
133.41931040949709
20
-92.283476923937386
30
0
11
134.86405425969349
21
-91.880097193014464
31
0
0
LINE
5
111
100
AcDbEntity
8
0
100
AcDbLine
10
150.27465532845559
20
-87.577380063170423
30
0
11
151.71939917865203
21
-87.174000332247516
31
0
0
LINE
5
112
100
AcDbEntity
8
0
100
AcDbLine
10
152.55305060031338
20
-90.159804295531472
30
0
11
151.10830677236291
21
-90.563184020243085
31
0
0
ARC
5
113
100
AcDbEntity
8
0
100
AcDbCircle
10
145.13753908095035
20
-98.926941141009905
30
0
40
1.5499999999999079
210
0
220
-0
230
1
100
AcDbArc
50
15.599999146228861
51
195.59999914622628
0
ARC
5
114
100
AcDbEntity
8
0
100
AcDbCircle
10
145.5409188118731
20
-100.37168499120642
30
0
40
1.549999999999957
210
0
220
0
230
1
100
AcDbArc
50
-164.40000085377554
51
15.60000062500491
0
ARC
5
115
100
AcDbEntity
8
0
100
AcDbCircle
10
145.5409188118731
20
-100.37168499120642
30
0
40
4.9999999999999751
210
0
220
0
230
1
100
AcDbArc
50
238.91644656522365
51
284.19572351476216
0
LINE
5
116
100
AcDbEntity
8
0
100
AcDbLine
10
129.17714740605402
20
-95.591268446392448
30
0
11
126.90389387435272
21
-89.75561712003325
31
0
0
ARC
5
117
100
AcDbEntity
8
0
100
AcDbCircle
10
133.83613613145076
20
-93.776378902473738
30
0
40
4.9999999999999503
210
0
220
0
230
1
100
AcDbArc
50
201.28319262484533
51
238.57282213756199
0
LINE
5
118
100
AcDbEntity
8
0
100
AcDbLine
10
145.83937434307441
20
-105.36276947214799
30
0
11
159.26328141899481
21
-103.2825029004794
31
0
0
LINE
5
119
100
AcDbEntity
8
0
100
AcDbLine
10
135.46015529238062
20
-77.472645657970517
30
0
11
139.87331662091947
21
-77.102844284648341
31
0
0
ARC
5
120
100
AcDbEntity
8
0
100
AcDbCircle
10
135.04264294626046
20
-72.490107806550128
30
0
40
4.9999999999999778
210
0
220
0
230
1
100
AcDbArc
50
255.68613990453872
51
274.78991651374918
0
ARC
5
121
100
AcDbEntity
8
0
100
AcDbCircle
10
140.43144222018344
20
-82.071596222051312
30
0
40
1.549999999999925
210
0
220
-0
230
1
100
AcDbArc
50
15.600000000000934
51
195.59999914622844
0
LINE
5
122
100
AcDbEntity
8
0
100
AcDbLine
10
142.98621733726495
20
-91.221637120140585
30
0
11
142.98616449343135
21
-91.221722017309361
31
0
0
LINE
5
123
100
AcDbEntity
8
0
100
AcDbLine
10
144.04801682712556
20
-100.78851069091405
30
0
11
143.64463710241395
21
-99.343766862963491
31
0
0
ARC
5
124
100
AcDbEntity
8
0
100
AcDbCircle
10
133.83613613145076
20
-93.776378902473738
30
0
40
1.5499999999999938
210
0
220
0
230
1
100
AcDbArc
50
105.60000000000052
51
285.6000000000015
0
LINE
5
125
100
AcDbEntity
8
0
100
AcDbLine
10
139.34191996635866
20
-83.93316577195543
30
0
11
138.93854024164705
21
-82.488421944005012
31
0
0
LINE
5
126
100
AcDbEntity
8
0
100
AcDbLine
10
146.6304410656978
20
-98.510115441302176
30
0
11
147.03382079040949
21
-99.954859269252765
31
0
0
ARC
5
127
100
AcDbEntity
8
0
100
AcDbCircle
10
135.28087998164722
20
-93.372999171550774
30
0
40
1.549999999999979
210
-0
220
0
230
1
100
AcDbArc
50
-74.399999999999338
51
105.59999914622868
0
ARC
5
128
100
AcDbEntity
8
0
100
AcDbCircle
10
140.43144222018344
20
-82.071596222051312
30
0
40
4.9999999999999076
210
0
220
-0
230
1
100
AcDbArc
50
59.942087018555348
51
96.40900509233704
0
LINE
5
129
100
AcDbEntity
8
0
100
AcDbLine
10
135.69770570360089
20
-94.865901150087112
30
0
11
134.25296185340446
21
-95.26928088101009
31
0
0
ARC
5
130
100
AcDbEntity
8
0
100
AcDbCircle
10
150.69148105040921
20
-89.070282041706747
30
0
40
1.5499999999999394
210
0
220
0
230
1
100
AcDbArc
50
105.59999999999877
51
285.60000000000167
0
ARC
5
131
100
AcDbEntity
8
0
100
AcDbCircle
10
152.1362249006057
20
-88.666902310783911
30
0
40
4.9999999999999281
210
0
220
-0
230
1
100
AcDbArc
50
11.277054905160302
51
59.596025501833147
0
ARC
5
132
100
AcDbEntity
8
0
100
AcDbCircle
10
152.1362249006057
20
-88.666902310783911
30
0
40
1.550000000000016
210
-0
220
0
230
1
100
AcDbArc
50
-74.400000853773747
51
105.59999914623045
0
LINE
5
133
100
AcDbEntity
8
0
100
AcDbLine
10
126.23890567951435
20
-88.562523990813901
30
0
11
123.12509707767227
21
-84.428007752114823
31
0
0
ARC
5
134
100
AcDbEntity
8
0
100
AcDbCircle
10
111.14309548599701
20
-93.451955771529057
30
0
40
14.99999999999994
210
0
220
-0
230
1
100
AcDbArc
50
36.984326792119532
51
60.165931156755107
0
ARC
5
135
100
AcDbEntity
8
0
100
AcDbCircle
10
131.74828620947403
20
-61.329151488449263
30
0
40
15.000000000000648
210
0
220
0
230
1
100
AcDbArc
50
236.63084705713283
51
255.68613990453821
0
LINE
5
136
100
AcDbEntity
8
0
100
AcDbLine
10
133.8064758734296
20
-77.334887571209038
30
0
11
128.03978499098116
21
-75.863490782426695
31
0
0
LINE
5
137
100
AcDbEntity
8
0
100
AcDbLine
10
0
20
-1.4500000000000002
30
0
11
0
21
-19.31128390740033
31
0
0
LINE
5
138
100
AcDbEntity
8
0
100
AcDbLine
10
126.23890567951435
20
-88.562523990813901
30
0
11
126.90389387435272
21
-89.75561712003325
31
0
0
LINE
5
139
100
AcDbEntity
8
0
100
AcDbLine
10
12
20
0
30
0
11
17.881977604361268
21
-7.0386794547980216
31
0
0
CIRCLE
5
140
100
AcDbEntity
8
0
100
AcDbCircle
10
28.188765728745931
20
-13.151647761377181
30
0
40
1.5249999999999986
210
0
220
0
230
1
0
ARC
5
141
100
AcDbEntity
8
0
100
AcDbCircle
10
28.188765728745931
20
-13.151647761377181
30
0
40
2.9999999999999929
210
0
220
-0
230
1
100
AcDbArc
50
34.86485263139069
51
120.41535431857722
0
ARC
5
142
100
AcDbEntity
8
0
100
AcDbCircle
10
25.555384133083191
20
-0.62628269188889973
30
0
40
9.9999999999999805
210
0
220
0
230
1
100
AcDbArc
50
219.88432126979498
51
276.40597421410854
0
CIRCLE
5
143
100
AcDbEntity
8
0
100
AcDbCircle
10
15.260029748554489
20
-15.268251427013064
30
0
40
3.0499999999999998
210
0
220
0
230
1
0
CIRCLE
5
144
100
AcDbEntity
8
0
100
AcDbCircle
10
10.005012366541914
20
-10.026393280513958
30
0
40
1.4500000000000002
210
0
220
0
230
1
0
CIRCLE
5
145
100
AcDbEntity
8
0
100
AcDbCircle
10
24.431999465876562
20
-24.460555337715174
30
0
40
1.4499999999999988
210
0
220
0
230
1
0
LINE
5
146
100
AcDbEntity
8
0
100
AcDbLine
10
0
20
-19.31128390740033
30
0
11
118.60544335874052
21
-80.439908883119898
31
0
0
LINE
5
147
100
AcDbEntity
8
0
100
AcDbLine
10
123.49781831941881
20
-73.856313161996354
30
0
11
42.140549079968999
21
-26.103868899995859
31
0
0
LINE
5
148
100
AcDbEntity
8
0
100
AcDbLine
10
30.650273820229064
20
-11.436719799169142
30
0
11
31.502480579535693
21
-13.622984528260908
31
0
0
ARC
5
149
100
AcDbEntity
8
0
100
AcDbCircle
10
54.79541832702278
20
-4.5433892128466518
30
0
40
25.000000000000028
210
0
220
0
230
1
100
AcDbArc
50
201.29585409410547
51
239.58930398882569
0
ARC
5
150
100
AcDbEntity
8
0
100
AcDbCircle
10
0
20
0
30
0
40
1.4500000000000002
210
0
220
0
230
1
100
AcDbArc
50
-90
51
0
0
ENDSEC
0
SECTION
2
OBJECTS
0
DICTIONARY
5
C
100
AcDbDictionary
3
ACAD_GROUP
350
D
3
ACAD_MLINESTYLE
350
17
0
DICTIONARY
5
D
100
AcDbDictionary
0
DICTIONARY
5
1A
330
C
100
AcDbDictionary
0
DICTIONARY
5
17
100
AcDbDictionary
0
ENDSEC
0
EOF
