0
SECTION
2
HEADER
9
$INSUNITS
70
4
9
$ACADVER
1
AC1014
9
$HANDSEED
5
FFFF
0
ENDSEC
0
SECTION
2
TABLES
0
TABLE
2
VPORT
5
8
100
AcDbSymbolTable
0
ENDTAB
0
TABLE
2
LTYPE
5
5
100
AcDbSymbolTable
0
LTYPE
5
14
100
AcDbSymbolTableRecord
100
AcDbLinetypeTableRecord
2
BYBLOCK
70
0
0
LTYPE
5
15
100
AcDbSymbolTableRecord
100
AcDbLinetypeTableRecord
2
BYLAYER
70
0
0
ENDTAB
0
TABLE
2
LAYER
5
2
100
AcDbSymbolTable
70
2
0
LAYER
5
50
100
AcDbSymbolTableRecord
100
AcDbLayerTableRecord
2
0
70
0
6
CONTINUOUS
0
ENDTAB
0
TABLE
2
STYLE
5
3
100
AcDbSymbolTable
70
1
0
STYLE
5
11
100
AcDbSymbolTableRecord
100
AcDbTextStyleTableRecord
2
STANDARD
70
0
0
ENDTAB
0
TABLE
2
VIEW
5
6
100
AcDbSymbolTable
70
0
0
ENDTAB
0
TABLE
2
UCS
5
7
100
AcDbSymbolTable
70
0
0
ENDTAB
0
TABLE
2
APPID
5
9
100
AcDbSymbolTable
70
2
0
APPID
5
12
100
AcDbSymbolTableRecord
100
AcDbRegAppTableRecord
2
ACAD
70
0
0
ENDTAB
0
TABLE
2
DIMSTYLE
5
A
100
AcDbSymbolTable
70
1
0
ENDTAB
0
TABLE
2
BLOCK_RECORD
5
1
100
AcDbSymbolTable
70
1
0
BLOCK_RECORD
5
1F
100
AcDbSymbolTableRecord
100
AcDbBlockTableRecord
2
*MODEL_SPACE
0
BLOCK_RECORD
5
1B
100
AcDbSymbolTableRecord
100
AcDbBlockTableRecord
2
*PAPER_SPACE
0
ENDTAB
0
ENDSEC
0
SECTION
2
BLOCKS
0
BLOCK
5
20
100
AcDbEntity
100
AcDbBlockBegin
2
*MODEL_SPACE
0
ENDBLK
5
21
100
AcDbEntity
100
AcDbBlockEnd
0
BLOCK
5
1C
100
AcDbEntity
100
AcDbBlockBegin
2
*PAPER_SPACE
0
ENDBLK
5
1D
100
AcDbEntity
100
AcDbBlockEnd
0
ENDSEC
0
SECTION
2
ENTITIES
0
LINE
5
100
100
AcDbEntity
8
0
100
AcDbLine
10
-10
20
-0.99999999999999811
30
0
11
-10.000000000000002
21
-5
31
0
0
LINE
5
101
100
AcDbEntity
8
0
100
AcDbLine
10
-10
20
-0.99999999999999811
30
0
11
-10
21
0.021208652933506909
31
0
0
LINE
5
102
100
AcDbEntity
8
0
100
AcDbLine
10
-9.0000000000000036
20
-6.0000000000000009
30
0
11
-5.0000000000000036
21
-6.0000000000000009
31
0
0
LINE
5
103
100
AcDbEntity
8
0
100
AcDbLine
10
0
20
-19.006153474609331
30
0
11
-0.18478000026195757
21
-19.006153474609331
31
0
0
LINE
5
104
100
AcDbEntity
8
0
100
AcDbLine
10
-10
20
-5.5511151231257827e-16
30
0
11
-10
21
-0.021208652933502468
31
0
0
ARC
5
105
100
AcDbEntity
8
0
100
AcDbCircle
10
-9.0000000000000018
20
-5
30
0
40
1.0000000000000011
210
0
220
0
230
1
100
AcDbArc
50
180
51
269.99999999999989
0
LINE
5
106
100
AcDbEntity
8
0
100
AcDbLine
10
-8.7365803779922597
20
-18.006153474609331
30
0
11
-8.7365803779922597
21
-15.961253351945787
31
0
0
ARC
5
107
100
AcDbEntity
8
0
100
AcDbCircle
10
-4.0000000000000027
20
-7.0000000000000018
30
0
40
1
210
-0
220
0
230
1
100
AcDbArc
50
0
51
90
0
LINE
5
108
100
AcDbEntity
8
0
100
AcDbLine
10
-3.0000000000000027
20
-7.0000000000000018
30
0
11
-3.0000000000000044
21
-13.961253351945796
31
0
0
LINE
5
109
100
AcDbEntity
8
0
100
AcDbLine
10
-4.0000000000000044
20
-14.961253351945798
30
0
11
-7.7365803779922651
21
-14.961253351945796
31
0
0
LINE
5
110
100
AcDbEntity
8
0
100
AcDbLine
10
-7.7365803779922606
20
-19.006153474609331
30
0
11
-0.18478000026195757
21
-19.006153474609331
31
0
0
ARC
5
111
100
AcDbEntity
8
0
100
AcDbCircle
10
-7.7365803779922651
20
-15.961253351945787
30
0
40
0.99999999999999445
210
0
220
-0
230
1
100
AcDbArc
50
90
51
180
0
LINE
5
112
100
AcDbEntity
8
0
100
AcDbLine
10
-4.0000000000000027
20
-6.0000000000000018
30
0
11
-5.0000000000000036
21
-6.0000000000000009
31
0
0
ARC
5
113
100
AcDbEntity
8
0
100
AcDbCircle
10
-4.0000000000000044
20
-13.961253351945796
30
0
40
0.99999999999999889
210
0
220
0
230
1
100
AcDbArc
50
-90
51
0
0
LINE
5
114
100
AcDbEntity
8
0
100
AcDbLine
10
0
20
-19.006153474609331
30
0
11
0.18478000026195757
21
-19.006153474609331
31
0
0
LINE
5
115
100
AcDbEntity
8
0
100
AcDbLine
10
7.7365803779922606
20
-19.006153474609331
30
0
11
0.18478000026195757
21
-19.006153474609331
31
0
0
LINE
5
116
100
AcDbEntity
8
0
100
AcDbLine
10
8.7365803779922597
20
-18.006153474609331
30
0
11
8.7365803779922597
21
-15.961253351945787
31
0
0
ARC
5
117
100
AcDbEntity
8
0
100
AcDbCircle
10
7.7365803779922651
20
-15.961253351945787
30
0
40
0.99999999999999534
210
0
220
-0
230
1
100
AcDbArc
50
0
51
90
0
LINE
5
118
100
AcDbEntity
8
0
100
AcDbLine
10
4.0000000000000044
20
-14.961253351945798
30
0
11
7.7365803779922651
21
-14.961253351945796
31
0
0
ARC
5
119
100
AcDbEntity
8
0
100
AcDbCircle
10
4.0000000000000044
20
-13.961253351945796
30
0
40
1.0000000000000004
210
0
220
0
230
1
100
AcDbArc
50
180
51
270
0
LINE
5
120
100
AcDbEntity
8
0
100
AcDbLine
10
3.0000000000000027
20
-7.0000000000000018
30
0
11
3.0000000000000044
21
-13.961253351945796
31
0
0
ARC
5
121
100
AcDbEntity
8
0
100
AcDbCircle
10
4.0000000000000027
20
-7.0000000000000018
30
0
40
0.99999999999999978
210
0
220
0
230
1
100
AcDbArc
50
90
51
180
0
LINE
5
122
100
AcDbEntity
8
0
100
AcDbLine
10
4.0000000000000027
20
-6.0000000000000018
30
0
11
5.0000000000000036
21
-6.0000000000000009
31
0
0
LINE
5
123
100
AcDbEntity
8
0
100
AcDbLine
10
9.0000000000000036
20
-6.0000000000000009
30
0
11
5.0000000000000036
21
-6.0000000000000009
31
0
0
ARC
5
124
100
AcDbEntity
8
0
100
AcDbCircle
10
9.0000000000000018
20
-5
30
0
40
1.0000000000000009
210
0
220
0
230
1
100
AcDbArc
50
-89.999999999999901
51
0
0
LINE
5
125
100
AcDbEntity
8
0
100
AcDbLine
10
10
20
-0.99999999999999811
30
0
11
10.000000000000002
21
-5
31
0
0
LINE
5
126
100
AcDbEntity
8
0
100
AcDbLine
10
10
20
-0.99999999999999811
30
0
11
10
21
0.021208652933506909
31
0
0
LINE
5
127
100
AcDbEntity
8
0
100
AcDbLine
10
-2.11010691970707e-15
20
19.006153474609331
30
0
11
0.18478000026195543
21
19.006153474609331
31
0
0
LINE
5
128
100
AcDbEntity
8
0
100
AcDbLine
10
7.736580377992258
20
19.006153474609331
30
0
11
0.18478000026195543
21
19.006153474609331
31
0
0
LINE
5
129
100
AcDbEntity
8
0
100
AcDbLine
10
8.736580377992258
20
18.006153474609331
30
0
11
8.736580377992258
21
15.961253351945787
31
0
0
ARC
5
130
100
AcDbEntity
8
0
100
AcDbCircle
10
7.7365803779922624
20
15.961253351945787
30
0
40
0.99999999999999201
210
-0
220
0
230
1
100
AcDbArc
50
-89.999999999999943
51
0
0
LINE
5
131
100
AcDbEntity
8
0
100
AcDbLine
10
4.0000000000000027
20
14.961253351945798
30
0
11
7.7365803779922633
21
14.961253351945796
31
0
0
ARC
5
132
100
AcDbEntity
8
0
100
AcDbCircle
10
4.0000000000000027
20
13.961253351945796
30
0
40
1.0000000000000009
210
0
220
-0
230
1
100
AcDbArc
50
90
51
180
0
LINE
5
133
100
AcDbEntity
8
0
100
AcDbLine
10
3.0000000000000022
20
7.0000000000000018
30
0
11
3.0000000000000027
21
13.961253351945796
31
0
0
ARC
5
134
100
AcDbEntity
8
0
100
AcDbCircle
10
4.0000000000000027
20
7.0000000000000018
30
0
40
1.0000000000000004
210
0
220
0
230
1
100
AcDbArc
50
180
51
269.99999999999994
0
LINE
5
135
100
AcDbEntity
8
0
100
AcDbLine
10
4.0000000000000018
20
6.0000000000000018
30
0
11
5.0000000000000018
21
6.0000000000000009
31
0
0
LINE
5
136
100
AcDbEntity
8
0
100
AcDbLine
10
9.0000000000000018
20
6.0000000000000009
30
0
11
5.0000000000000018
21
6.0000000000000009
31
0
0
ARC
5
137
100
AcDbEntity
8
0
100
AcDbCircle
10
9.0000000000000018
20
5
30
0
40
1.0000000000000009
210
0
220
-0
230
1
100
AcDbArc
50
0
51
90
0
LINE
5
138
100
AcDbEntity
8
0
100
AcDbLine
10
10
20
0.99999999999999922
30
0
11
10.000000000000002
21
5.0000000000000018
31
0
0
LINE
5
139
100
AcDbEntity
8
0
100
AcDbLine
10
10
20
0.99999999999999922
30
0
11
10
21
-0.021208652933505798
31
0
0
LINE
5
140
100
AcDbEntity
8
0
100
AcDbLine
10
-2.11010691970707e-15
20
19.006153474609331
30
0
11
-0.18478000026195968
21
19.006153474609331
31
0
0
LINE
5
141
100
AcDbEntity
8
0
100
AcDbLine
10
-7.7365803779922624
20
19.006153474609331
30
0
11
-0.18478000026195968
21
19.006153474609331
31
0
0
LINE
5
142
100
AcDbEntity
8
0
100
AcDbLine
10
-8.7365803779922615
20
18.006153474609331
30
0
11
-8.7365803779922615
21
15.961253351945787
31
0
0
ARC
5
143
100
AcDbEntity
8
0
100
AcDbCircle
10
-7.7365803779922668
20
15.961253351945787
30
0
40
0.99999999999999534
210
0
220
0
230
1
100
AcDbArc
50
180
51
270.00000000000006
0
LINE
5
144
100
AcDbEntity
8
0
100
AcDbLine
10
-4.0000000000000062
20
14.961253351945798
30
0
11
-7.7365803779922659
21
14.961253351945796
31
0
0
ARC
5
145
100
AcDbEntity
8
0
100
AcDbCircle
10
-4.0000000000000062
20
13.961253351945796
30
0
40
1.0000000000000004
210
0
220
0
230
1
100
AcDbArc
50
0
51
90
0
LINE
5
146
100
AcDbEntity
8
0
100
AcDbLine
10
-3.0000000000000031
20
7.0000000000000018
30
0
11
-3.0000000000000062
21
13.961253351945796
31
0
0
ARC
5
147
100
AcDbEntity
8
0
100
AcDbCircle
10
-4.0000000000000036
20
7.0000000000000018
30
0
40
0.99999999999999978
210
-0
220
0
230
1
100
AcDbArc
50
-89.999999999999943
51
0
0
LINE
5
148
100
AcDbEntity
8
0
100
AcDbLine
10
-4.0000000000000027
20
6.0000000000000018
30
0
11
-5.0000000000000044
21
6.0000000000000009
31
0
0
LINE
5
149
100
AcDbEntity
8
0
100
AcDbLine
10
-9.0000000000000053
20
6.0000000000000009
30
0
11
-5.0000000000000044
21
6.0000000000000009
31
0
0
ARC
5
150
100
AcDbEntity
8
0
100
AcDbCircle
10
-9.0000000000000018
20
4.9999999999999991
30
0
40
1.000000000000002
210
0
220
0
230
1
100
AcDbArc
50
90.000000000000199
51
180
0
LINE
5
151
100
AcDbEntity
8
0
100
AcDbLine
10
-10
20
0.999999999999997
30
0
11
-10.000000000000002
21
4.9999999999999991
31
0
0
LINE
5
152
100
AcDbEntity
8
0
100
AcDbLine
10
-10
20
0.999999999999997
30
0
11
-10
21
-0.021208652933508019
31
0
0
CIRCLE
5
153
100
AcDbEntity
8
0
100
AcDbCircle
10
0
20
0
30
0
40
1.45
210
0
220
0
230
1
0
ARC
5
154
100
AcDbEntity
8
0
100
AcDbCircle
10
-7.7365803779922615
20
18.006153474609331
30
0
40
1.0000000000000009
210
0
220
0
230
1
100
AcDbArc
50
90.000000000000057
51
180
0
ARC
5
155
100
AcDbEntity
8
0
100
AcDbCircle
10
7.7365803779922571
20
18.006153474609331
30
0
40
1.0000000000000009
210
0
220
-0
230
1
100
AcDbArc
50
0
51
89.999999999999943
0
ARC
5
156
100
AcDbEntity
8
0
100
AcDbCircle
10
7.7365803779922597
20
-18.006153474609331
30
0
40
1.0000000000000009
210
0
220
0
230
1
100
AcDbArc
50
-89.999999999999943
51
0
0
ARC
5
157
100
AcDbEntity
8
0
100
AcDbCircle
10
-7.7365803779922615
20
-18.006153474609331
30
0
40
0.99999999999999867
210
0
220
0
230
1
100
AcDbArc
50
180
51
270.00000000000006
0
ENDSEC
0
SECTION
2
OBJECTS
0
DICTIONARY
5
C
100
AcDbDictionary
3
ACAD_GROUP
350
D
3
ACAD_MLINESTYLE
350
17
0
DICTIONARY
5
D
100
AcDbDictionary
0
DICTIONARY
5
1A
330
C
100
AcDbDictionary
0
DICTIONARY
5
17
100
AcDbDictionary
0
ENDSEC
0
EOF
