0
SECTION
2
HEADER
9
$INSUNITS
70
4
9
$ACADVER
1
AC1014
9
$HANDSEED
5
FFFF
0
ENDSEC
0
SECTION
2
TABLES
0
TABLE
2
VPORT
5
8
100
AcDbSymbolTable
0
ENDTAB
0
TABLE
2
LTYPE
5
5
100
AcDbSymbolTable
0
LTYPE
5
14
100
AcDbSymbolTableRecord
100
AcDbLinetypeTableRecord
2
BYBLOCK
70
0
0
LTYPE
5
15
100
AcDbSymbolTableRecord
100
AcDbLinetypeTableRecord
2
BYLAYER
70
0
0
ENDTAB
0
TABLE
2
LAYER
5
2
100
AcDbSymbolTable
70
2
0
LAYER
5
50
100
AcDbSymbolTableRecord
100
AcDbLayerTableRecord
2
0
70
0
6
CONTINUOUS
0
ENDTAB
0
TABLE
2
STYLE
5
3
100
AcDbSymbolTable
70
1
0
STYLE
5
11
100
AcDbSymbolTableRecord
100
AcDbTextStyleTableRecord
2
STANDARD
70
0
0
ENDTAB
0
TABLE
2
VIEW
5
6
100
AcDbSymbolTable
70
0
0
ENDTAB
0
TABLE
2
UCS
5
7
100
AcDbSymbolTable
70
0
0
ENDTAB
0
TABLE
2
APPID
5
9
100
AcDbSymbolTable
70
2
0
APPID
5
12
100
AcDbSymbolTableRecord
100
AcDbRegAppTableRecord
2
ACAD
70
0
0
ENDTAB
0
TABLE
2
DIMSTYLE
5
A
100
AcDbSymbolTable
70
1
0
ENDTAB
0
TABLE
2
BLOCK_RECORD
5
1
100
AcDbSymbolTable
70
1
0
BLOCK_RECORD
5
1F
100
AcDbSymbolTableRecord
100
AcDbBlockTableRecord
2
*MODEL_SPACE
0
BLOCK_RECORD
5
1B
100
AcDbSymbolTableRecord
100
AcDbBlockTableRecord
2
*PAPER_SPACE
0
ENDTAB
0
ENDSEC
0
SECTION
2
BLOCKS
0
BLOCK
5
20
100
AcDbEntity
100
AcDbBlockBegin
2
*MODEL_SPACE
0
ENDBLK
5
21
100
AcDbEntity
100
AcDbBlockEnd
0
BLOCK
5
1C
100
AcDbEntity
100
AcDbBlockBegin
2
*PAPER_SPACE
0
ENDBLK
5
1D
100
AcDbEntity
100
AcDbBlockEnd
0
ENDSEC
0
SECTION
2
ENTITIES
0
ARC
5
100
100
AcDbEntity
8
0
100
AcDbCircle
10
21.038305843620545
20
9.9104175761858002
30
0
40
0.99999999999982647
210
0
220
0
230
1
100
AcDbArc
50
137.30915659126191
51
157.55987965309404
0
CIRCLE
5
101
100
AcDbEntity
8
0
100
AcDbCircle
10
24.446779073640172
20
24.446804449975801
30
0
40
2.4999999999999982
210
0
220
0
230
1
0
CIRCLE
5
102
100
AcDbEntity
8
0
100
AcDbCircle
10
-15.250000000000002
20
-15.250000000000002
30
0
40
3.0499999999999994
210
0
220
0
230
1
0
CIRCLE
5
103
100
AcDbEntity
8
0
100
AcDbCircle
10
-24.446779073640172
20
-24.446804449975801
30
0
40
2.4999999999999991
210
0
220
0
230
1
0
CIRCLE
5
104
100
AcDbEntity
8
0
100
AcDbCircle
10
9.9999999999999982
20
-10
30
0
40
2.125
210
0
220
0
230
1
0
ARC
5
105
100
AcDbEntity
8
0
100
AcDbCircle
10
-15.231748572986689
20
15.2600297485545
30
0
40
6.8750000000000089
210
0
220
0
230
1
100
AcDbArc
50
191.97372064421413
51
222.25232526091185
0
CIRCLE
5
106
100
AcDbEntity
8
0
100
AcDbCircle
10
-24.446779073640172
20
24.446804449975801
30
0
40
2.1250000000000004
210
0
220
0
230
1
0
CIRCLE
5
107
100
AcDbEntity
8
0
100
AcDbCircle
10
13.82500703629324
20
-31.256767785123127
30
0
40
1.4500000000000002
210
0
220
0
230
1
0
LWPOLYLINE
5
108
100
AcDbEntity
8
0
100
AcDbPolyline
90
8
70
1
43
0.0
10
-8.5623640087571999
20
-18.66226274359764
42
-0.4142135623730932
10
-5.7339368840110092
20
-18.66226274359764
10
-3.9081265024666756
20
-20.488073125141973
42
-0.55129998178781237
10
-4.6537981753819331
20
-23.787240729936304
10
-11.482805485488534
20
-26.209303733846809
42
-0.28924129664147386
10
-12.524183211404001
20
-25.973933493822745
10
-13.49200220400661
20
-25.006114501220136
42
-0.4142135623730992
10
-13.492002204006612
20
-23.591900938847054
0
ARC
5
109
100
AcDbEntity
8
0
100
AcDbCircle
10
21.016152941078552
20
-9.856917847408921
30
0
40
0.99999999999987499
210
0
220
0
230
1
100
AcDbArc
50
202.31169967097151
51
223.12263776489351
0
CIRCLE
5
110
100
AcDbEntity
8
0
100
AcDbCircle
10
24.446779073640172
20
-24.446804449975801
30
0
40
2.4999999999999982
210
0
220
0
230
1
0
ARC
5
111
100
AcDbEntity
8
0
100
AcDbCircle
10
22.965972247477445
20
13.675389801837508
30
0
40
0.99999999999996714
210
0
220
0
230
1
100
AcDbArc
50
148.21521243563024
51
168.46593549745964
0
ARC
5
112
100
AcDbEntity
8
0
100
AcDbCircle
10
15.268251427013046
20
-15.239970251445277
30
0
40
6.8750000000000018
210
0
220
-0
230
1
100
AcDbArc
50
11.099230853113831
51
43.122637764893085
0
CIRCLE
5
113
100
AcDbEntity
8
0
100
AcDbCircle
10
9.9999999999999982
20
10
30
0
40
2.5
210
0
220
0
230
1
0
ARC
5
114
100
AcDbEntity
8
0
100
AcDbCircle
10
22.995951507743211
20
-13.723963502688274
30
0
40
0.99999999999960565
210
0
220
0
230
1
100
AcDbArc
50
191.09923085311095
51
211.91016894703807
0
ARC
5
115
100
AcDbEntity
8
0
100
AcDbCircle
10
-22.941700747060413
20
-13.636142806396849
30
0
40
0.99999999999965128
210
0
220
0
230
1
100
AcDbArc
50
328.3170476809787
51
348.24889528800156
0
CIRCLE
5
116
100
AcDbEntity
8
0
100
AcDbCircle
10
-9.9999999999999982
20
-10
30
0
40
2.1250000000000004
210
0
220
0
230
1
0
CIRCLE
5
117
100
AcDbEntity
8
0
100
AcDbCircle
10
-24.446779073640172
20
-24.446804449975801
30
0
40
2.125
210
0
220
0
230
1
0
ARC
5
118
100
AcDbEntity
8
0
100
AcDbCircle
10
-21.045715588214332
20
-9.9283403183794547
30
0
40
0.99999999999972933
210
0
220
0
230
1
100
AcDbArc
50
317.58523295450163
51
337.51708056152341
0
CIRCLE
5
119
100
AcDbEntity
8
0
100
AcDbCircle
10
24.446779073640172
20
-24.446804449975801
30
0
40
2.1249999999999987
210
0
220
0
230
1
0
CIRCLE
5
120
100
AcDbEntity
8
0
100
AcDbCircle
10
9.9999999999999982
20
-10
30
0
40
2.5
210
0
220
0
230
1
0
ARC
5
121
100
AcDbEntity
8
0
100
AcDbCircle
10
-45.035450751425962
20
0.00015572387516034933
30
0
40
26.96309740501091
210
0
220
-0
230
1
100
AcDbArc
50
31.656515103665008
51
48.991213477175691
0
CIRCLE
5
122
100
AcDbEntity
8
0
100
AcDbCircle
10
-15.250000000000002
20
15.250000000000002
30
0
40
2.0499999999999989
210
0
220
0
230
1
0
CIRCLE
5
123
100
AcDbEntity
8
0
100
AcDbCircle
10
9.9999999999999982
20
10
30
0
40
2.1200000000000001
210
0
220
0
230
1
0
CIRCLE
5
124
100
AcDbEntity
8
0
100
AcDbCircle
10
15.268251427013064
20
15.260029748554496
30
0
40
2.0499999999999998
210
0
220
0
230
1
0
CIRCLE
5
125
100
AcDbEntity
8
0
100
AcDbCircle
10
-9.9999999999999982
20
10
30
0
40
2.125
210
0
220
0
230
1
0
CIRCLE
5
126
100
AcDbEntity
8
0
100
AcDbCircle
10
-9.9999999999999982
20
-10
30
0
40
2.5
210
0
220
0
230
1
0
ARC
5
127
100
AcDbEntity
8
0
100
AcDbCircle
10
-15.231748572986696
20
-15.239970251445264
30
0
40
6.8749999999999991
210
0
220
0
230
1
100
AcDbArc
50
137.58523295450246
51
168.24889528799972
0
ARC
5
128
100
AcDbEntity
8
0
100
AcDbCircle
10
-0.056973361462203602
20
-22.217905922586798
30
0
40
1.4999999999999993
210
0
220
-0
230
1
100
AcDbArc
50
43.455592162318815
51
44.99999999999995
0
CIRCLE
5
129
100
AcDbEntity
8
0
100
AcDbCircle
10
-9.9999999999999982
20
10
30
0
40
2.5
210
0
220
0
230
1
0
LWPOLYLINE
5
130
100
AcDbEntity
8
0
100
AcDbPolyline
90
6
70
1
43
0.0
10
11.872374756484776
20
-4.9661768608610792
10
11.872374756484787
20
5.0338231391389234
42
0.63587823604670857
10
10.232190356820299
20
5.8020444187363029
10
4.2321903568202979
20
0.80204441873630095
42
0.46837494598444307
10
4.2321903568202979
20
-0.73439814045845375
10
10.232190356820301
20
-5.7343981404584534
42
0.63587823604671279
0
LWPOLYLINE
5
131
100
AcDbEntity
8
0
100
AcDbPolyline
90
6
70
1
43
0.0
10
-10.487440843850743
20
5.8020444187363029
42
0.63587823604671279
10
-12.127625243515222
20
5.0338231391389261
10
-12.127625243515226
20
-4.9661768608610748
42
0.63587823604670901
10
-10.487440843850743
20
-5.7343981404584543
10
-4.4874408438507407
20
-0.73439814045845331
42
0.46837494598444313
10
-4.4874408438507416
20
0.80204441873630294
0
ARC
5
132
100
AcDbEntity
8
0
100
AcDbCircle
10
-13.934964241091512
20
-31.251883001004739
30
0
40
3.0000000000000044
210
0
220
0
230
1
100
AcDbArc
50
214.20698275134478
51
271.52402704247453
0
LWPOLYLINE
5
133
100
AcDbEntity
8
0
100
AcDbPolyline
90
6
70
1
43
0.0
10
-5.127625243515225
20
12.033823139138931
42
0.63587823604670746
10
-5.8958465231126063
20
10.393638739474444
10
-0.89584652311260016
20
4.3936387394744436
42
0.4683749459844429
10
0.64059603608215387
20
4.3936387394744436
10
5.6405960360821572
20
10.393638739474444
42
0.63587823604671101
10
4.8723747564847795
20
12.033823139138921
0
ARC
5
134
100
AcDbEntity
8
0
100
AcDbCircle
10
5.1276252435152205
20
11.033823139138923
30
0
40
1.0000000000000087
210
-0
220
0
230
-1
100
AcDbArc
50
-39.805571092264771
51
89.999999999999744
0
LINE
5
135
100
AcDbEntity
8
0
100
AcDbLine
10
-5.127625243515225
20
12.033823139138931
30
0
11
4.8723747564847795
21
12.033823139138921
31
0
0
ARC
5
136
100
AcDbEntity
8
0
100
AcDbCircle
10
-11.127625243515229
20
5.0338231391389323
30
0
40
0.99999999999999822
210
0
220
-0
230
1
100
AcDbArc
50
50.194428907734348
51
180
0
LINE
5
137
100
AcDbEntity
8
0
100
AcDbLine
10
-16.4160004388097
20
-32.938435515933378
30
0
11
-17.986647184539798
21
-30.627904776160051
31
0
0
LINE
5
138
100
AcDbEntity
8
0
100
AcDbLine
10
16.314208918833465
20
-32.931245013382203
30
0
11
17.88839323422555
21
-30.59113402518248
31
0
0
LINE
5
139
100
AcDbEntity
8
0
100
AcDbLine
10
-14.90247615193219
20
35.126135534704268
30
0
11
-10.732560023099929
21
48.88680169319823
31
0
0
ARC
5
140
100
AcDbEntity
8
0
100
AcDbCircle
10
-24.253579433393327
20
39.981549322597132
30
0
40
10.536516294877234
210
0
220
0
230
1
100
AcDbArc
50
268.94935441034511
51
332.56011164393777
0
LWPOLYLINE
5
141
100
AcDbEntity
8
0
100
AcDbPolyline
90
6
70
1
43
0.0
10
5.0442186926363428
20
40.19599123331372
42
-0.61722384389899165
10
8.5303544921637862
20
39.401113152411511
10
11.246714000425444
20
28.331869017434453
42
-0.79909152135334793
10
9.5014182147202106
20
27.460492637121078
10
2.5743010369915931
20
35.931152142601967
42
-0.35781696082419456
10
2.5765289229331101
20
37.199967563366449
0
ARC
5
142
100
AcDbEntity
8
0
100
AcDbCircle
10
13.82500703629324
20
-31.256767785123127
30
0
40
3.0000000000000022
210
0
220
0
230
1
100
AcDbArc
50
198.77578754344847
51
326.07141904356098
0
LWPOLYLINE
5
143
100
AcDbEntity
8
0
100
AcDbPolyline
90
6
70
1
43
0.0
10
-8.5758858049570126
20
39.447373433569396
42
-0.61608102607266468
10
-5.0842647000204257
20
40.203876241247023
10
-2.6749016730009378
20
37.223460639237743
42
-0.35776025167983677
10
-2.6841651442424084
20
35.954832534453168
10
-9.6874787318013507
20
27.545836157058691
42
-0.80053158031694216
10
-11.424025813028171
20
28.436212858004453
0
ARC
5
144
100
AcDbEntity
8
0
100
AcDbCircle
10
-4.8723747564847759
20
11.033823139138923
30
0
40
1.0000000000000009
210
0
220
0
230
-1
100
AcDbArc
50
90.000000000000199
51
219.80557109226481
0
ARC
5
145
100
AcDbEntity
8
0
100
AcDbCircle
10
0.12762524351522267
20
5.0338231391389234
30
0
40
1.0000000000000013
210
0
220
0
230
-1
100
AcDbArc
50
219.80557109226515
51
320.19442890773485
0
LWPOLYLINE
5
146
100
AcDbEntity
8
0
100
AcDbPolyline
90
8
70
1
43
0.0
10
13.378055481082203
20
-25.006114501220122
42
0.41421356237309548
10
13.378055481082205
20
-23.59190093884704
10
8.477003920628988
20
-18.690849378393821
42
0.41421356237309404
10
5.6485767958827999
20
-18.690849378393818
10
3.8363842664541763
20
-20.50304190782245
42
0.55129998178781492
10
4.5820559393694404
20
-23.802209512616766
10
11.368858762564125
20
-26.209303733846809
42
0.28924129664147458
10
12.410236488479589
20
-25.973933493822745
0
ARC
5
147
100
AcDbEntity
8
0
100
AcDbCircle
10
-5.127625243515225
20
11.033823139138923
30
0
40
1.0000000000000053
210
0
220
-0
230
1
100
AcDbArc
50
90
51
219.80557109226493
0
LWPOLYLINE
5
148
100
AcDbEntity
8
0
100
AcDbPolyline
90
8
70
1
43
0.0
10
0.65013341972434469
20
-10.863978877489181
10
3.5272564523231562
20
-13.741101910087995
42
-0.41421356237309548
10
3.5272564523231562
20
-16.569529034834186
10
1.3858268357070842
20
-18.710958651450255
42
-0.41421356237309503
10
-1.4426002890391054
20
-18.710958651450255
10
-3.6126165404513695
20
-16.540942400037991
42
-0.41421356237309404
10
-3.612616540451369
20
-13.712515275291807
10
-0.76408014264875002
20
-10.863978877489181
42
-0.41421356237309825
0
ARC
5
149
100
AcDbEntity
8
0
100
AcDbCircle
10
-24.446856091086197
20
-24.44670176655265
30
0
40
5.0000000000000284
210
0
220
0
230
1
100
AcDbArc
50
127.27472991636738
51
290.50199965513792
0
ARC
5
150
100
AcDbEntity
8
0
100
AcDbCircle
10
-4.8723747564847812
20
11.033823139138923
30
0
40
0.99999999999999867
210
0
220
0
230
-1
100
AcDbArc
50
89.999999999999901
51
219.80557109226501
0
ARC
5
151
100
AcDbEntity
8
0
100
AcDbCircle
10
-24.446779073640172
20
24.446804449975801
30
0
40
5.0000000000000018
210
0
220
-0
230
1
100
AcDbArc
50
88.574942372357711
51
232.7261345552381
0
LINE
5
152
100
AcDbEntity
8
0
100
AcDbLine
10
-0.89584652311260005
20
4.3936387394744436
30
0
11
-5.8958465231126063
21
10.393638739474444
31
0
0
ARC
5
153
100
AcDbEntity
8
0
100
AcDbCircle
10
-0.056973361462203664
20
-23.217905922586755
30
0
40
0.99999999999995715
210
0
220
-0
230
1
100
AcDbArc
50
86.811276388819124
51
90
0
ARC
5
154
100
AcDbEntity
8
0
100
AcDbCircle
10
-21.294695448164035
20
-32.876641462731534
30
0
40
3.9999999999999822
210
0
220
-0
230
1
100
AcDbArc
50
34.206982751344491
51
110.50199965513815
0
ARC
5
155
100
AcDbEntity
8
0
100
AcDbCircle
10
-10.872374756484788
20
5.0338231391389323
30
0
40
0.99999999999999734
210
0
220
0
230
-1
100
AcDbArc
50
50.194428907734192
51
180
0
LWPOLYLINE
5
156
100
AcDbEntity
8
0
100
AcDbPolyline
90
8
70
1
43
0.0
10
0.70534378726714975
20
33.106715386164552
10
9.8460272764183223
20
22.214857947126202
42
-0.525848928918078
10
9.4064838362533862
20
20.626802689545652
10
0.31728776807380293
20
17.487601520113813
42
-0.16747892863875274
10
-0.3343498854856719
20
17.487163075787954
10
-9.4583852580970245
20
20.624660814071866
42
-0.52507908950861792
10
-9.9016118017295867
20
22.210270788333265
10
-0.82906385008984418
20
33.103831658519567
42
-0.46740852291812945
0
ARC
5
157
100
AcDbEntity
8
0
100
AcDbCircle
10
-4.8723747564847759
20
11.033823139138923
30
0
40
1.0000000000000009
210
0
220
0
230
-1
100
AcDbArc
50
90.000000000000199
51
219.80557109226481
0
ARC
5
158
100
AcDbEntity
8
0
100
AcDbCircle
10
5.1276252435152276
20
11.033823139138924
30
0
40
1.0000000000000036
210
-0
220
0
230
-1
100
AcDbArc
50
-39.805571092265126
51
90.000000000000142
0
ARC
5
159
100
AcDbEntity
8
0
100
AcDbCircle
10
-0.12762524351522306
20
5.0338231391389243
30
0
40
1.000000000000002
210
0
220
0
230
1
100
AcDbArc
50
219.80557109226518
51
320.19442890773485
0
ARC
5
160
100
AcDbEntity
8
0
100
AcDbCircle
10
-13.934964241091512
20
-31.251883001004739
30
0
40
3.0000000000000044
210
0
220
0
230
1
100
AcDbArc
50
214.20698275134478
51
341.26737088268715
0
ARC
5
161
100
AcDbEntity
8
0
100
AcDbCircle
10
-7.3057714631869919
20
-33.499949528796698
30
0
40
4.0000000000000018
210
0
220
0
230
1
100
AcDbArc
50
124.49410502659553
51
161.26737088268706
0
LINE
5
162
100
AcDbEntity
8
0
100
AcDbLine
10
14.780727222699252
20
35.17343400171675
30
0
11
10.73365895749868
21
48.86424193680007
31
0
0
CIRCLE
5
163
100
AcDbEntity
8
0
100
AcDbCircle
10
0
20
0
30
0
40
2.125
210
0
220
0
230
1
0
LWPOLYLINE
5
164
100
AcDbEntity
8
0
100
AcDbPolyline
90
6
70
1
43
0.0
10
-2.9114389562113141
20
45.196051900602889
42
0.6333852905248113
10
-3.6836448079906243
20
43.561086288350275
10
-0.80640086030184266
20
40.060444958764322
42
0.46983730749888253
10
0.73309182782219318
20
40.053706552782494
10
3.6636813448257377
20
43.556290621871973
42
0.63669105559362937
10
2.8963945084810123
20
45.197994640106423
0
ARC
5
165
100
AcDbEntity
8
0
100
AcDbCircle
10
7.8567233081714587
20
48.013806007626002
30
0
40
3.0000000000000018
210
0
220
-0
230
1
100
AcDbArc
50
16.467931206726757
51
89.989173286147647
0
ARC
5
166
100
AcDbEntity
8
0
100
AcDbCircle
10
24.460555337715174
20
24.431999465876572
30
0
40
4.9999999999999458
210
0
220
0
230
1
100
AcDbArc
50
-54.796952950853139
51
91.079659179093852
0
ARC
5
167
100
AcDbEntity
8
0
100
AcDbCircle
10
24.311875350467737
20
40.211949028262453
30
0
40
10.780974830978479
210
0
220
0
230
1
100
AcDbArc
50
207.86257528056748
51
270.79018882378779
0
ARC
5
168
100
AcDbEntity
8
0
100
AcDbCircle
10
4.8723747564847777
20
0.033823139138923347
30
0
40
1.0000000000000013
210
0
220
0
230
1
100
AcDbArc
50
129.80557109226515
51
230.19442890773487
0
LINE
5
169
100
AcDbEntity
8
0
100
AcDbLine
10
-7.8614878111959028
20
51.016776202748353
30
0
11
7.857290193579769
21
51.013805954066164
31
0
0
ARC
5
170
100
AcDbEntity
8
0
100
AcDbCircle
10
-0.064503644070095234
20
-44.03838222942683
30
0
40
16.786497699287654
210
0
220
-0
230
1
100
AcDbArc
50
89.974297591184751
51
124.49410502659559
0
ARC
5
171
100
AcDbEntity
8
0
100
AcDbCircle
10
-0.064512874161080092
20
-44.058957935975684
30
0
40
16.807073407906788
210
0
220
-0
230
1
100
AcDbArc
50
55.45647315837153
51
89.974297591184694
0
CIRCLE
5
172
100
AcDbEntity
8
0
100
AcDbCircle
10
7.8567233081714587
20
48.013806007626002
30
0
40
1.4499999999999955
210
0
220
0
230
1
0
ARC
5
173
100
AcDbEntity
8
0
100
AcDbCircle
10
11.127625243515224
20
-4.9661768608610739
30
0
40
1.0000000000000056
210
0
220
0
230
-1
100
AcDbArc
50
230.1944289077349
51
360
0
ARC
5
174
100
AcDbEntity
8
0
100
AcDbCircle
10
45.035450751425962
20
-0.00015572387515483402
30
0
40
26.963097405010892
210
0
220
0
230
1
100
AcDbArc
50
157.55987965309234
51
202.31169967097384
0
ARC
5
175
100
AcDbEntity
8
0
100
AcDbCircle
10
45.035450751425962
20
-0.00015572387515483402
30
0
40
26.963097405010892
210
0
220
0
230
1
100
AcDbArc
50
211.91016894703316
51
228.99121347717565
0
ARC
5
176
100
AcDbEntity
8
0
100
AcDbCircle
10
24.460562366246812
20
-24.43231794214455
30
0
40
5.0000000000000018
210
0
220
0
230
1
100
AcDbArc
50
-111.19052368513408
51
54.796874578154842
0
ARC
5
177
100
AcDbEntity
8
0
100
AcDbCircle
10
15.250000000000002
20
15.250000000000002
30
0
40
6.8749999999999991
210
0
220
0
230
1
100
AcDbArc
50
317.30915659126373
51
348.4659354974595
0
ARC
5
178
100
AcDbEntity
8
0
100
AcDbCircle
10
13.82500703629324
20
-31.256767785123127
30
0
40
3.0000000000000018
210
0
220
0
230
1
100
AcDbArc
50
269.9876920991826
51
326.07141904356098
0
LINE
5
179
100
AcDbEntity
8
0
100
AcDbLine
10
15.00159052445529
20
-30.100379003450051
30
0
11
15.001590718105769
21
-30.098260215882249
31
0
0
CIRCLE
5
180
100
AcDbEntity
8
0
100
AcDbCircle
10
15.250000000000002
20
-15.250000000000002
30
0
40
3.0499999999999994
210
0
220
0
230
1
0
ARC
5
181
100
AcDbEntity
8
0
100
AcDbCircle
10
-0.12762524351522306
20
5.0338231391389243
30
0
40
1.000000000000002
210
0
220
0
230
1
100
AcDbArc
50
219.80557109226518
51
320.19442890773485
0
CIRCLE
5
182
100
AcDbEntity
8
0
100
AcDbCircle
10
15.250000000000002
20
15.250000000000002
30
0
40
2.0499999999999989
210
0
220
0
230
1
0
CIRCLE
5
183
100
AcDbEntity
8
0
100
AcDbCircle
10
0
20
0
30
0
40
2.5
210
0
220
0
230
1
0
ARC
5
184
100
AcDbEntity
8
0
100
AcDbCircle
10
-5.1276252435152205
20
0.033823139138924568
30
0
40
1.0000000000000018
210
0
220
0
230
1
100
AcDbArc
50
-50.194428907734874
51
50.194428907734945
0
ARC
5
185
100
AcDbEntity
8
0
100
AcDbCircle
10
-0.0013483607881265708
20
-22.219454191505111
30
0
40
1.5000000000000004
210
0
220
0
230
1
100
AcDbArc
50
134.99999999999986
51
136.46074315578531
0
CIRCLE
5
186
100
AcDbEntity
8
0
100
AcDbCircle
10
15.268251427013064
20
15.260029748554496
30
0
40
3.0500000000000012
210
0
220
0
230
1
0
CIRCLE
5
187
100
AcDbEntity
8
0
100
AcDbCircle
10
-15.250000000000002
20
15.250000000000002
30
0
40
3.0499999999999994
210
0
220
0
230
1
0
LINE
5
188
100
AcDbEntity
8
0
100
AcDbLine
10
-27.474906547176886
20
20.468055399833005
30
0
11
-27.342946814591336
21
20.346750675296327
31
0
0
LINE
5
189
100
AcDbEntity
8
0
100
AcDbLine
10
5.6405960360821563
20
10.393638739474447
30
0
11
0.64059603608215387
21
4.3936387394744436
31
0
0
ARC
5
190
100
AcDbEntity
8
0
100
AcDbCircle
10
-17.057655272370912
20
-30.142260166671928
30
0
40
2.0000000000000071
210
0
220
0
230
1
100
AcDbArc
50
-0.0035513498644452967
51
0.074849313169352227
0
ARC
5
191
100
AcDbEntity
8
0
100
AcDbCircle
10
-45.035450751425962
20
0.00015572387516034933
30
0
40
26.963097405010892
210
0
220
0
230
1
100
AcDbArc
50
-22.482919438481133
51
22.569530801461241
0
ARC
5
192
100
AcDbEntity
8
0
100
AcDbCircle
10
-7.8614878111959028
20
48.01677620274836
30
0
40
2.9999999999999987
210
0
220
-0
230
1
100
AcDbArc
50
89.978346572056083
51
163.14153528488808
0
ARC
5
193
100
AcDbEntity
8
0
100
AcDbCircle
10
-21.060751437250932
20
9.9649045745479938
30
0
40
0.99999999999988232
210
0
220
-0
230
1
100
AcDbArc
50
22.5695308014588
51
42.252325260912208
0
CIRCLE
5
194
100
AcDbEntity
8
0
100
AcDbCircle
10
-15.250000000000002
20
-15.250000000000002
30
0
40
2.0499999999999998
210
0
220
0
230
1
0
CIRCLE
5
195
100
AcDbEntity
8
0
100
AcDbCircle
10
15.250000000000002
20
-15.250000000000002
30
0
40
2.0499999999999989
210
0
220
0
230
1
0
CIRCLE
5
196
100
AcDbEntity
8
0
100
AcDbCircle
10
-13.934964241091512
20
-31.251883001004739
30
0
40
1.4500000000000006
210
0
220
0
230
1
0
CIRCLE
5
197
100
AcDbEntity
8
0
100
AcDbCircle
10
-7.8614878111959028
20
48.01677620274836
30
0
40
1.449999999999998
210
0
220
0
230
1
0
ARC
5
198
100
AcDbEntity
8
0
100
AcDbCircle
10
45.035450751425962
20
-0.00015572387515483402
30
0
40
26.963097405010888
210
0
220
0
230
1
100
AcDbArc
50
131.00882205223274
51
148.21521243563089
0
CIRCLE
5
199
100
AcDbEntity
8
0
100
AcDbCircle
10
24.446779073640172
20
24.446804449975801
30
0
40
2.1250000000000013
210
0
220
0
230
1
0
LINE
5
200
100
AcDbEntity
8
0
100
AcDbLine
10
-27.475043595149785
20
-20.467998404873946
30
0
11
-27.342934197566272
21
-20.34642825632913
31
0
0
CIRCLE
5
201
100
AcDbEntity
8
0
100
AcDbCircle
10
15.250000000000002
20
15.250000000000002
30
0
40
3.0500000000000012
210
0
220
0
230
1
0
ARC
5
202
100
AcDbEntity
8
0
100
AcDbCircle
10
10.872374756484778
20
-4.9661768608610775
30
0
40
0.99999999999999778
210
0
220
0
230
1
100
AcDbArc
50
230.1944289077349
51
360
0
CIRCLE
5
203
100
AcDbEntity
8
0
100
AcDbCircle
10
-24.446779073640172
20
24.446804449975801
30
0
40
2.4999999999999991
210
0
220
0
230
1
0
ARC
5
204
100
AcDbEntity
8
0
100
AcDbCircle
10
7.1975095099460473
20
-33.509827158123009
30
0
40
4.0000000000000542
210
0
220
-0
230
1
100
AcDbArc
50
18.775787543448466
51
55.456473158371217
0
ARC
5
205
100
AcDbEntity
8
0
100
AcDbCircle
10
-45.035450751425962
20
0.00015572387516034933
30
0
40
26.963097405010888
210
0
220
0
230
1
100
AcDbArc
50
311.00882205223269
51
328.31704768098359
0
ARC
5
206
100
AcDbEntity
8
0
100
AcDbCircle
10
21.207329077612528
20
-32.82377032952791
30
0
40
4.0000000000000018
210
0
220
-0
230
1
100
AcDbArc
50
68.809476314865776
51
146.07141904356118
0
ARC
5
207
100
AcDbEntity
8
0
100
AcDbCircle
10
-22.935411086721057
20
13.626258383130718
30
0
40
0.99999999999966893
210
0
220
-0
230
1
100
AcDbArc
50
11.97372064421292
51
31.65651510366969
0
ENDSEC
0
SECTION
2
OBJECTS
0
DICTIONARY
5
C
100
AcDbDictionary
3
ACAD_GROUP
350
D
3
ACAD_MLINESTYLE
350
17
0
DICTIONARY
5
D
100
AcDbDictionary
0
DICTIONARY
5
1A
330
C
100
AcDbDictionary
0
DICTIONARY
5
17
100
AcDbDictionary
0
ENDSEC
0
EOF
