0
SECTION
2
HEADER
9
$INSUNITS
70
4
9
$ACADVER
1
AC1014
9
$HANDSEED
5
FFFF
0
ENDSEC
0
SECTION
2
TABLES
0
TABLE
2
VPORT
5
8
100
AcDbSymbolTable
0
ENDTAB
0
TABLE
2
LTYPE
5
5
100
AcDbSymbolTable
0
LTYPE
5
14
100
AcDbSymbolTableRecord
100
AcDbLinetypeTableRecord
2
BYBLOCK
70
0
0
LTYPE
5
15
100
AcDbSymbolTableRecord
100
AcDbLinetypeTableRecord
2
BYLAYER
70
0
0
ENDTAB
0
TABLE
2
LAYER
5
2
100
AcDbSymbolTable
70
2
0
LAYER
5
50
100
AcDbSymbolTableRecord
100
AcDbLayerTableRecord
2
0
70
0
6
CONTINUOUS
0
ENDTAB
0
TABLE
2
STYLE
5
3
100
AcDbSymbolTable
70
1
0
STYLE
5
11
100
AcDbSymbolTableRecord
100
AcDbTextStyleTableRecord
2
STANDARD
70
0
0
ENDTAB
0
TABLE
2
VIEW
5
6
100
AcDbSymbolTable
70
0
0
ENDTAB
0
TABLE
2
UCS
5
7
100
AcDbSymbolTable
70
0
0
ENDTAB
0
TABLE
2
APPID
5
9
100
AcDbSymbolTable
70
2
0
APPID
5
12
100
AcDbSymbolTableRecord
100
AcDbRegAppTableRecord
2
ACAD
70
0
0
ENDTAB
0
TABLE
2
DIMSTYLE
5
A
100
AcDbSymbolTable
70
1
0
ENDTAB
0
TABLE
2
BLOCK_RECORD
5
1
100
AcDbSymbolTable
70
1
0
BLOCK_RECORD
5
1F
100
AcDbSymbolTableRecord
100
AcDbBlockTableRecord
2
*MODEL_SPACE
0
BLOCK_RECORD
5
1B
100
AcDbSymbolTableRecord
100
AcDbBlockTableRecord
2
*PAPER_SPACE
0
ENDTAB
0
ENDSEC
0
SECTION
2
BLOCKS
0
BLOCK
5
20
100
AcDbEntity
100
AcDbBlockBegin
2
*MODEL_SPACE
0
ENDBLK
5
21
100
AcDbEntity
100
AcDbBlockEnd
0
BLOCK
5
1C
100
AcDbEntity
100
AcDbBlockBegin
2
*PAPER_SPACE
0
ENDBLK
5
1D
100
AcDbEntity
100
AcDbBlockEnd
0
ENDSEC
0
SECTION
2
ENTITIES
0
LWPOLYLINE
5
100
100
AcDbEntity
8
0
100
AcDbPolyline
90
8
70
1
43
0.0
10
5.5083583432616532
20
-29.150548097129541
10
-5.5083583432616265
20
-29.150548097129541
42
0.41421356237309243
10
-6.5083583432616274
20
-30.150548097129541
10
-6.5083583432616265
20
-33.537681295041551
42
0.41421356237309243
10
-5.5083583432616248
20
-34.537681295041551
10
5.5083583432616532
20
-34.537681295041551
42
0.41421356237309243
10
6.5083583432616532
20
-33.537681295041551
10
6.5083583432616541
20
-30.150548097129541
42
0.41421356237309243
0
ARC
5
101
100
AcDbEntity
8
0
100
AcDbCircle
10
4.042344727629084
20
-30.142260166671914
30
0
40
2.0000000000000049
210
0
220
0
230
1
100
AcDbArc
50
-0.0035513498644452967
51
0.074849313169352227
0
LINE
5
102
100
AcDbEntity
8
0
100
AcDbLine
10
0
20
-39.641008471020484
30
0
11
5.1860751235585898
21
-39.641008471020477
31
0
0
LWPOLYLINE
5
103
100
AcDbEntity
8
0
100
AcDbPolyline
90
8
70
1
43
0.0
10
12.140528888653925
20
-43.905094839600238
10
12.140528888653927
20
-42.105094839600241
42
0.99999999999999989
10
12.140528888653927
20
-40.50509483960024
10
10.040528888653926
20
-40.50509483960024
42
0.99999999999999989
10
10.040528888653926
20
-42.105094839600241
10
10.040528888653926
20
-43.905094839600238
42
0.99999999999999989
10
10.040528888653926
20
-45.50509483960024
10
12.140528888653925
20
-45.50509483960024
42
0.99999999999999989
0
CIRCLE
5
104
100
AcDbEntity
8
0
100
AcDbCircle
10
0
20
57.013806007626009
30
0
40
1.5000000000000002
210
0
220
0
230
1
0
LWPOLYLINE
5
105
100
AcDbEntity
8
0
100
AcDbPolyline
90
8
70
1
43
0.0
10
10.040528888653926
20
-31.105094839600241
42
-0.99999999999999989
10
10.040528888653926
20
-29.50509483960024
10
12.140528888653927
20
-29.50509483960024
42
-0.99999999999999989
10
12.140528888653927
20
-31.105094839600241
10
12.140528888653925
20
-32.905094839600238
42
-0.99999999999999989
10
12.140528888653925
20
-34.50509483960024
10
10.040528888653926
20
-34.50509483960024
42
-0.99999999999999989
10
10.040528888653926
20
-32.905094839600238
0
ARC
5
106
100
AcDbEntity
8
0
100
AcDbCircle
10
11.804979801357964
20
-51.598173625399035
30
0
40
3.0000000000000071
210
0
220
-0
230
1
100
AcDbArc
50
51.235799060857033
51
92.271507060108959
0
CIRCLE
5
107
100
AcDbEntity
8
0
100
AcDbCircle
10
15.686903649983307
20
-46.763851828758476
30
0
40
1.45
210
0
220
0
230
1
0
ARC
5
108
100
AcDbEntity
8
0
100
AcDbCircle
10
4.042344727629084
20
-30.142260166671914
30
0
40
2.0000000000000049
210
0
220
0
230
1
100
AcDbArc
50
-0.0035513498644452967
51
0.074849313169352227
0
ARC
5
109
100
AcDbEntity
8
0
100
AcDbCircle
10
15.686903649983307
20
-46.763851828758476
30
0
40
3.2000000000000077
210
0
220
0
230
1
100
AcDbArc
50
-128.76420093914294
51
62.079150901176661
0
LINE
5
110
100
AcDbEntity
8
0
100
AcDbLine
10
6.1860751235585942
20
-44.600530938620395
30
0
11
6.1860751235585916
21
-40.64100847102047
31
0
0
LINE
5
111
100
AcDbEntity
8
0
100
AcDbLine
10
-11.686075123558592
20
-48.600530938620395
30
0
11
-10.186075123558592
21
-48.600530938620395
31
0
0
CIRCLE
5
112
100
AcDbEntity
8
0
100
AcDbCircle
10
0.033007397850223594
20
-22.429870113212424
30
0
40
1.5000000000000002
210
0
220
0
230
1
0
LWPOLYLINE
5
113
100
AcDbEntity
8
0
100
AcDbPolyline
90
2
70
1
43
0.0
10
11.817663160484909
20
-37.491567623673269
42
0.00050637287969335565
10
11.826240722120593
20
-37.491576310564668
0
LINE
5
114
100
AcDbEntity
8
0
100
AcDbLine
10
-6.1860751235585942
20
-44.600530938620395
30
0
11
-6.1860751235585916
21
-40.64100847102047
31
0
0
ARC
5
115
100
AcDbEntity
8
0
100
AcDbCircle
10
-17.057655272370919
20
-30.142260166671914
30
0
40
2.0000000000000049
210
0
220
0
230
1
100
AcDbArc
50
-0.0035513498644452967
51
0.074849313169352227
0
ARC
5
116
100
AcDbEntity
8
0
100
AcDbCircle
10
13.82500703629324
20
-31.256767785123127
30
0
40
2.9999999999999987
210
0
220
0
230
1
100
AcDbArc
50
269.72701990174863
51
270.25273996928286
0
ARC
5
117
100
AcDbEntity
8
0
100
AcDbCircle
10
11.826240722120385
20
-33.256768038717084
30
0
40
4.2348082718475837
210
0
220
0
230
1
100
AcDbArc
50
269.88394789451559
51
270.00000000000279
0
ARC
5
118
100
AcDbEntity
8
0
100
AcDbCircle
10
-10.186075123558588
20
-44.600530938620402
30
0
40
3.9999999999999947
210
0
220
0
230
1
100
AcDbArc
50
-90.000000000000057
51
0
0
LWPOLYLINE
5
119
100
AcDbEntity
8
0
100
AcDbPolyline
90
8
70
1
43
0.0
10
-10.059471111346078
20
-43.905094839600238
10
-10.059471111346078
20
-42.105094839600241
42
0.99999999999999989
10
-10.059471111346078
20
-40.50509483960024
10
-12.159471111346075
20
-40.50509483960024
42
0.99999999999999989
10
-12.159471111346075
20
-42.105094839600241
10
-12.159471111346075
20
-43.905094839600238
42
0.99999999999999989
10
-12.159471111346075
20
-45.50509483960024
10
-10.059471111346078
20
-45.50509483960024
42
0.99999999999999989
0
LINE
5
120
100
AcDbEntity
8
0
100
AcDbLine
10
11.686075123558592
20
-48.600530938620395
30
0
11
10.186075123558592
21
-48.600530938620395
31
0
0
ARC
5
121
100
AcDbEntity
8
0
100
AcDbCircle
10
18.590062160732877
20
-41.285560976543465
30
0
40
3.0000000000000164
210
0
220
0
230
1
100
AcDbArc
50
181.01767864135704
51
242.07915090117638
0
ARC
5
122
100
AcDbEntity
8
0
100
AcDbCircle
10
-17.057655272370919
20
-41.142260166671917
30
0
40
2.0000000000000049
210
0
220
0
230
1
100
AcDbArc
50
-0.0035513498644452967
51
0.074849313169352227
0
CIRCLE
5
123
100
AcDbEntity
8
0
100
AcDbCircle
10
-15.686903649983307
20
-46.763851828758476
30
0
40
1.45
210
0
220
0
230
1
0
ARC
5
124
100
AcDbEntity
8
0
100
AcDbCircle
10
-18.590062160732877
20
-41.285560976543465
30
0
40
3.0000000000000115
210
0
220
0
230
1
100
AcDbArc
50
297.92084909882362
51
358.98232135864299
0
LINE
5
125
100
AcDbEntity
8
0
100
AcDbLine
10
1.849229202303948e-14
20
-48.581096354108972
30
0
11
-0.021399344683814547
21
-48.581060765823906
31
0
0
LWPOLYLINE
5
126
100
AcDbEntity
8
0
100
AcDbPolyline
90
8
70
1
43
0.0
10
-12.159471111346075
20
-31.105094839600241
10
-12.159471111346075
20
-32.905094839600238
42
0.99999999999999989
10
-12.159471111346075
20
-34.50509483960024
10
-10.059471111346078
20
-34.50509483960024
42
0.99999999999999989
10
-10.059471111346078
20
-32.905094839600238
10
-10.059471111346078
20
-31.105094839600241
42
0.99999999999999989
10
-10.059471111346078
20
-29.50509483960024
10
-12.159471111346075
20
-29.50509483960024
42
0.99999999999999989
0
ARC
5
127
100
AcDbEntity
8
0
100
AcDbCircle
10
-11.804979801357964
20
-51.598173625399035
30
0
40
3.0000000000000027
210
0
220
-0
230
1
100
AcDbArc
50
87.728492939891041
51
128.76420093914297
0
ARC
5
128
100
AcDbEntity
8
0
100
AcDbCircle
10
10.186075123558588
20
-44.600530938620402
30
0
40
3.9999999999999947
210
0
220
0
230
1
100
AcDbArc
50
180
51
270.00000000000006
0
ARC
5
129
100
AcDbEntity
8
0
100
AcDbCircle
10
-17.057655272370919
20
-30.142260166671914
30
0
40
2.0000000000000049
210
0
220
0
230
1
100
AcDbArc
50
-0.0035513498644452967
51
0.074849313169352227
0
ARC
5
130
100
AcDbEntity
8
0
100
AcDbCircle
10
-5.1860751235586005
20
-40.64100847102047
30
0
40
0.99999999999999201
210
0
220
-0
230
1
100
AcDbArc
50
89.999999999999389
51
180
0
ARC
5
131
100
AcDbEntity
8
0
100
AcDbCircle
10
-17.057655272370919
20
-41.142260166671917
30
0
40
2.0000000000000049
210
0
220
0
230
1
100
AcDbArc
50
-0.0035513498644452967
51
0.074849313169352227
0
ARC
5
132
100
AcDbEntity
8
0
100
AcDbCircle
10
-17.057655272370919
20
-30.142260166671914
30
0
40
2.0000000000000049
210
0
220
0
230
1
100
AcDbArc
50
-0.0035513498644452967
51
0.074849313169352227
0
ARC
5
133
100
AcDbEntity
8
0
100
AcDbCircle
10
-15.686903649983307
20
-46.763851828758476
30
0
40
3.2000000000000139
210
0
220
0
230
1
100
AcDbArc
50
117.92084909882334
51
308.76420093914294
0
LINE
5
134
100
AcDbEntity
8
0
100
AcDbLine
10
11.826240722120593
20
-37.491576310564668
30
0
11
11.8176631604849
21
-37.491567623673269
31
0
0
ARC
5
135
100
AcDbEntity
8
0
100
AcDbCircle
10
5.1860751235586005
20
-40.64100847102047
30
0
40
0.99999999999999201
210
0
220
0
230
1
100
AcDbArc
50
0
51
90.000000000000611
0
LINE
5
136
100
AcDbEntity
8
0
100
AcDbLine
10
15.001590524455281
20
-30.100379003450058
30
0
11
15.001590718105755
21
-30.098260215882267
31
0
0
LINE
5
137
100
AcDbEntity
8
0
100
AcDbLine
10
15.001590524455281
20
-30.100379003450058
30
0
11
15.001590718105755
21
-30.098260215882267
31
0
0
LINE
5
138
100
AcDbEntity
8
0
100
AcDbLine
10
0
20
-39.641008471020484
30
0
11
-5.1860751235585898
21
-39.641008471020477
31
0
0
ARC
5
139
100
AcDbEntity
8
0
100
AcDbCircle
10
-17.057655272370919
20
-30.142260166671914
30
0
40
2.0000000000000049
210
0
220
0
230
1
100
AcDbArc
50
-0.0035513498644452967
51
0.074849313169352227
0
LWPOLYLINE
5
140
100
AcDbEntity
8
0
100
AcDbPolyline
90
8
70
1
43
0.0
10
5.5083583432616532
20
16.849451902870463
42
-0.41421356237309243
10
6.5083583432616541
20
15.849451902870463
10
6.5083583432616541
20
12.462318704958456
42
-0.41421356237309243
10
5.5083583432616532
20
11.462318704958454
10
-5.5083583432616257
20
11.462318704958454
42
-0.41421356237309243
10
-6.5083583432616265
20
12.462318704958456
10
-6.5083583432616274
20
15.849451902870463
42
-0.41421356237309243
10
-5.5083583432616265
20
16.849451902870463
0
LWPOLYLINE
5
141
100
AcDbEntity
8
0
100
AcDbPolyline
90
8
70
1
43
0.0
10
5.5083583432616532
20
26.849451902870463
42
-0.41421356237309243
10
6.5083583432616541
20
25.849451902870463
10
6.5083583432616541
20
22.462318704958456
42
-0.41421356237309243
10
5.5083583432616532
20
21.462318704958456
10
-5.5083583432616257
20
21.462318704958456
42
-0.41421356237309243
10
-6.5083583432616265
20
22.462318704958456
10
-6.5083583432616274
20
25.849451902870463
42
-0.41421356237309243
10
-5.5083583432616265
20
26.849451902870463
0
LWPOLYLINE
5
142
100
AcDbEntity
8
0
100
AcDbPolyline
90
8
70
1
43
0.0
10
-5.5083583432616257
20
41.462318704958456
42
-0.4142135623730937
10
-6.5083583432616265
20
42.462318704958463
10
-6.5083583432616274
20
45.849451902870456
42
-0.4142135623730937
10
-5.5083583432616265
20
46.849451902870463
10
5.5083583432616532
20
46.849451902870463
42
-0.4142135623730937
10
6.5083583432616541
20
45.849451902870456
10
6.5083583432616541
20
42.462318704958463
42
-0.4142135623730937
10
5.5083583432616532
20
41.462318704958456
0
LINE
5
143
100
AcDbEntity
8
0
100
AcDbLine
10
-9.7123293070192513
20
57.501096248204192
30
0
11
-0.52083333333332416
21
59.458950714772989
31
0
0
LINE
5
144
100
AcDbEntity
8
0
100
AcDbLine
10
9.7123293070192513
20
57.501096248204192
30
0
11
0.52083333333332416
21
59.458950714772989
31
0
0
ARC
5
145
100
AcDbEntity
8
0
100
AcDbCircle
10
-9.0873293070192762
20
54.566922599627844
30
0
40
2.9999999999999742
210
0
220
-0
230
1
100
AcDbArc
50
102.02469918056548
51
177.90924591306592
0
ARC
5
146
100
AcDbEntity
8
0
100
AcDbCircle
10
9.0873293070192762
20
54.566922599627844
30
0
40
2.9999999999999738
210
0
220
-0
230
1
100
AcDbArc
50
2.0907540869341088
51
77.975300819434537
0
ARC
5
147
100
AcDbEntity
8
0
100
AcDbCircle
10
0
20
57.013806007626009
30
0
40
2.4999999999999982
210
0
220
-0
230
1
100
AcDbArc
50
77.975300819434395
51
102.02469918056562
0
LWPOLYLINE
5
148
100
AcDbEntity
8
0
100
AcDbPolyline
90
8
70
1
43
0.0
10
8.9916416567383877
20
36.712318704958456
42
-0.41421356237309503
10
9.991641656738393
20
35.712318704958449
10
9.9916416567384019
20
34.212318704958463
42
-0.41421356237309503
10
8.9916416567383965
20
33.212318704958456
10
-9.0083583432616159
20
33.212318704958456
42
-0.4142135623730937
10
-10.008358343261621
20
34.212318704958456
10
-10.008358343261621
20
35.712318704958449
42
-0.41421356237309503
10
-9.0083583432616159
20
36.712318704958456
0
LWPOLYLINE
5
149
100
AcDbEntity
8
0
100
AcDbPolyline
90
8
70
1
43
0.0
10
-10.008358343261621
20
-4.2876812950415513
42
-0.41421356237309503
10
-9.0083583432616159
20
-3.2876812950415459
10
8.9916416567383841
20
-3.2876812950415468
42
-0.41421356237309426
10
9.9916416567383912
20
-4.2876812950415504
10
9.9916416567383965
20
-5.7876812950415406
42
-0.41421356237309598
10
8.9916416567383948
20
-6.7876812950415459
10
-9.0083583432616194
20
-6.7876812950415459
42
-0.41421356237309243
10
-10.008358343261621
20
-5.7876812950415442
0
ARC
5
150
100
AcDbEntity
8
0
100
AcDbCircle
10
10.991641656738388
20
34.962318704958484
30
0
40
3.5000000000000027
210
0
220
0
230
1
100
AcDbArc
50
-37.108090606942056
51
41.289598780811453
0
ARC
5
151
100
AcDbEntity
8
0
100
AcDbCircle
10
-11.008358343261616
20
34.96231870495842
30
0
40
3.5000000000000031
210
0
220
0
230
1
100
AcDbArc
50
138.50890754261644
51
217.30958428351406
0
LINE
5
152
100
AcDbEntity
8
0
100
AcDbLine
10
12.629683992180192
20
39.765378494730527
30
0
11
12.085332189084673
21
54.676369934576776
31
0
0
LINE
5
153
100
AcDbEntity
8
0
100
AcDbLine
10
-12.628961616605597
20
39.785165948263156
30
0
11
-12.085332189084673
21
54.676369934576776
31
0
0
ARC
5
154
100
AcDbEntity
8
0
100
AcDbCircle
10
-16.626298792692825
20
39.931095728195096
30
0
40
3.9999999999999987
210
-0
220
0
230
1
100
AcDbArc
50
318.5089075426165
51
357.90924591306538
0
ARC
5
155
100
AcDbEntity
8
0
100
AcDbCircle
10
-16.973649105413948
20
30.416407781614225
30
0
40
3.9999999999999996
210
0
220
0
230
1
100
AcDbArc
50
-2.0907540869346368
51
37.30958428351402
0
ARC
5
156
100
AcDbEntity
8
0
100
AcDbCircle
10
16.627021168267419
20
39.911308274662467
30
0
40
3.9999999999999996
210
0
220
0
230
1
100
AcDbArc
50
182.09075408693465
51
221.28959878081159
0
ARC
5
157
100
AcDbEntity
8
0
100
AcDbCircle
10
16.97288223106321
20
30.437414154357391
30
0
40
4
210
0
220
0
230
1
100
AcDbArc
50
142.89190939305789
51
182.09075408693428
0
ARC
5
158
100
AcDbEntity
8
0
100
AcDbCircle
10
-12.008358343261614
20
-5.037681295041545
30
0
40
3.9999999999999996
210
0
220
0
230
1
100
AcDbArc
50
139.3468392813671
51
216.47165254476346
0
ARC
5
159
100
AcDbEntity
8
0
100
AcDbCircle
10
11.991641656738389
20
-5.037681295041545
30
0
40
4.0000000000000027
210
0
220
0
230
1
100
AcDbArc
50
-36.27931405686401
51
40.460822230733442
0
LINE
5
160
100
AcDbEntity
8
0
100
AcDbLine
10
-15.590535372892937
20
-41.338843703864029
30
0
11
-14.444229604111364
21
-9.9390110799071252
31
0
0
LINE
5
161
100
AcDbEntity
8
0
100
AcDbLine
10
-14.080358551505729
20
0.028216216405032024
30
0
11
-12.976311929326718
21
30.270478001682282
31
0
0
LINE
5
162
100
AcDbEntity
8
0
100
AcDbLine
10
15.590535372892937
20
-41.338843703864029
30
0
11
14.443440231560398
21
-9.9173884320472627
31
0
0
LINE
5
163
100
AcDbEntity
8
0
100
AcDbLine
10
14.081103425280554
20
0.0078124877555785406
30
0
11
12.975545054975978
21
30.291484374425465
31
0
0
LWPOLYLINE
5
164
100
AcDbEntity
8
0
100
AcDbPolyline
90
8
70
1
43
0.0
10
-5.5083583432616257
20
1.4623187049584541
42
-0.41421356237309243
10
-6.5083583432616265
20
2.462318704958455
10
-6.5083583432616274
20
5.8494519028704639
42
-0.41421356237309243
10
-5.5083583432616265
20
6.8494519028704648
10
5.5083583432616532
20
6.8494519028704648
42
-0.41421356237309243
10
6.5083583432616541
20
5.8494519028704639
10
6.5083583432616541
20
2.462318704958455
42
-0.41421356237309243
10
5.5083583432616532
20
1.4623187049584541
0
ARC
5
165
100
AcDbEntity
8
0
100
AcDbCircle
10
-18.077695727592975
20
0.17414599633697986
30
0
40
4.0000000000000151
210
-0
220
0
230
1
100
AcDbArc
50
319.34683928136718
51
357.90924591306538
0
ARC
5
166
100
AcDbEntity
8
0
100
AcDbCircle
10
-18.441566780198613
20
-9.7930812999751957
30
0
40
4.0000000000000213
210
0
220
0
230
1
100
AcDbArc
50
-2.0907540869342807
51
36.471652544763359
0
ARC
5
167
100
AcDbEntity
8
0
100
AcDbCircle
10
18.078440601367781
20
0.1537422676875197
30
0
40
3.9999999999999996
210
0
220
0
230
1
100
AcDbArc
50
182.09075408693465
51
220.46082223073338
0
ARC
5
168
100
AcDbEntity
8
0
100
AcDbCircle
10
18.440777407647648
20
-9.7714586521153297
30
0
40
4.0000000000000213
210
0
220
0
230
1
100
AcDbArc
50
143.72068594313615
51
182.09075408693445
0
ENDSEC
0
SECTION
2
OBJECTS
0
DICTIONARY
5
C
100
AcDbDictionary
3
ACAD_GROUP
350
D
3
ACAD_MLINESTYLE
350
17
0
DICTIONARY
5
D
100
AcDbDictionary
0
DICTIONARY
5
1A
330
C
100
AcDbDictionary
0
DICTIONARY
5
17
100
AcDbDictionary
0
ENDSEC
0
EOF
