0
SECTION
2
HEADER
9
$INSUNITS
70
4
9
$ACADVER
1
AC1014
9
$HANDSEED
5
FFFF
0
ENDSEC
0
SECTION
2
TABLES
0
TABLE
2
VPORT
5
8
100
AcDbSymbolTable
0
ENDTAB
0
TABLE
2
LTYPE
5
5
100
AcDbSymbolTable
0
LTYPE
5
14
100
AcDbSymbolTableRecord
100
AcDbLinetypeTableRecord
2
BYBLOCK
70
0
0
LTYPE
5
15
100
AcDbSymbolTableRecord
100
AcDbLinetypeTableRecord
2
BYLAYER
70
0
0
ENDTAB
0
TABLE
2
LAYER
5
2
100
AcDbSymbolTable
70
2
0
LAYER
5
50
100
AcDbSymbolTableRecord
100
AcDbLayerTableRecord
2
0
70
0
6
CONTINUOUS
0
ENDTAB
0
TABLE
2
STYLE
5
3
100
AcDbSymbolTable
70
1
0
STYLE
5
11
100
AcDbSymbolTableRecord
100
AcDbTextStyleTableRecord
2
STANDARD
70
0
0
ENDTAB
0
TABLE
2
VIEW
5
6
100
AcDbSymbolTable
70
0
0
ENDTAB
0
TABLE
2
UCS
5
7
100
AcDbSymbolTable
70
0
0
ENDTAB
0
TABLE
2
APPID
5
9
100
AcDbSymbolTable
70
2
0
APPID
5
12
100
AcDbSymbolTableRecord
100
AcDbRegAppTableRecord
2
ACAD
70
0
0
ENDTAB
0
TABLE
2
DIMSTYLE
5
A
100
AcDbSymbolTable
70
1
0
ENDTAB
0
TABLE
2
BLOCK_RECORD
5
1
100
AcDbSymbolTable
70
1
0
BLOCK_RECORD
5
1F
100
AcDbSymbolTableRecord
100
AcDbBlockTableRecord
2
*MODEL_SPACE
0
BLOCK_RECORD
5
1B
100
AcDbSymbolTableRecord
100
AcDbBlockTableRecord
2
*PAPER_SPACE
0
ENDTAB
0
ENDSEC
0
SECTION
2
BLOCKS
0
BLOCK
5
20
100
AcDbEntity
100
AcDbBlockBegin
2
*MODEL_SPACE
0
ENDBLK
5
21
100
AcDbEntity
100
AcDbBlockEnd
0
BLOCK
5
1C
100
AcDbEntity
100
AcDbBlockBegin
2
*PAPER_SPACE
0
ENDBLK
5
1D
100
AcDbEntity
100
AcDbBlockEnd
0
ENDSEC
0
SECTION
2
ENTITIES
0
LWPOLYLINE
5
100
100
AcDbEntity
8
0
100
AcDbPolyline
90
6
70
1
43
0.0
10
-88.316703422355843
20
-93.329985184159852
10
-88.316703422355843
20
-91.181454205577509
42
-0.64322161401436373
10
-85.667008975971044
20
-89.973918877221138
10
-83.539387353178839
20
-91.823432137005369
42
-0.6432216140143483
10
-84.366404838027591
20
-94.615396375348283
10
-86.49402646081974
20
-94.914414094146423
42
-0.45572625553258767
0
LINE
5
101
100
AcDbEntity
8
0
100
AcDbLine
10
-67.788449011250719
20
-83.336247315265467
30
0
11
-69.27995592745053
21
-83.495643422269808
31
0
0
ARC
5
102
100
AcDbEntity
8
0
100
AcDbCircle
10
-87.151196429063305
20
-93.873815033446007
30
0
40
4.0000000000000799
210
0
220
0
230
1
100
AcDbArc
50
178.25988243375906
51
278.57695677948539
0
ARC
5
103
100
AcDbEntity
8
0
100
AcDbCircle
10
-85.354072344152613
20
-83.654644750243023
30
0
40
1.5499999999999754
210
0
220
0
230
1
100
AcDbArc
50
-83.900000853770464
51
96.09999914622631
0
ARC
5
104
100
AcDbEntity
8
0
100
AcDbCircle
10
-67.549263515589331
20
-90.77069493877444
30
0
40
4.9999999999999858
210
0
220
0
230
1
100
AcDbArc
50
141.10000000000051
51
177.81490487388771
0
LINE
5
105
100
AcDbEntity
8
0
100
AcDbLine
10
-72.412508336860114
20
-91.825686363473494
30
0
11
-72.545627859440785
21
-90.580055636714931
31
0
0
ARC
5
106
100
AcDbEntity
8
0
100
AcDbCircle
10
-69.44466523802167
20
-81.954419608863347
30
0
40
1.5500000000000154
210
0
220
0
230
1
100
AcDbArc
50
96.099999146225159
51
276.09999914622728
0
LINE
5
107
100
AcDbEntity
8
0
100
AcDbLine
10
-64.077041974104134
20
-80.7770581648291
30
0
11
-64.154027702242672
21
-80.543381965565359
31
0
0
ARC
5
108
100
AcDbEntity
8
0
100
AcDbCircle
10
-86.845579260352466
20
-83.814040857247235
30
0
40
1.5499999999999956
210
0
220
0
230
1
100
AcDbArc
50
96.099999146224164
51
276.10000062500541
0
LINE
5
109
100
AcDbEntity
8
0
100
AcDbLine
10
-68.773732763236296
20
-85.905494800972647
30
0
11
-67.528102036477037
21
-85.772375278391863
31
0
0
LINE
5
110
100
AcDbEntity
8
0
100
AcDbLine
10
-69.609374525626777
20
-80.413195793002501
30
0
11
-68.1178676323931
21
-80.25379968845256
31
0
0
ARC
5
111
100
AcDbEntity
8
0
100
AcDbCircle
10
-76.389860113392956
20
-92.250742648818317
30
0
40
3.9999999999999822
210
0
220
0
230
1
100
AcDbArc
50
-81.423043220514799
51
6.0999999999983689
0
ARC
5
112
100
AcDbEntity
8
0
100
AcDbCircle
10
-34.48932673630766
20
-24.038100275722339
30
0
40
4.9999999999999485
210
0
220
0
230
1
100
AcDbArc
50
331.36810097355971
51
357.35256756554321
0
ARC
5
113
100
AcDbEntity
8
0
100
AcDbCircle
10
-76.549256220397254
20
-90.759235732618521
30
0
40
1.549999999999963
210
0
220
-0
230
1
100
AcDbArc
50
6.0999999999983086
51
186.10000000000198
0
LINE
5
114
100
AcDbEntity
8
0
100
AcDbLine
10
-83.61284958731774
20
-78.274286679079367
30
0
11
-83.596736755615453
21
-78.257048612257449
31
0
0
LINE
5
115
100
AcDbEntity
8
0
100
AcDbLine
10
-86.554645736055122
20
-97.829080798305824
30
0
11
-75.793309420384801
21
-96.206008413678035
31
0
0
ARC
5
116
100
AcDbEntity
8
0
100
AcDbCircle
10
-78.249481361776859
20
-74.849828626487707
30
0
40
1.5499999999999783
210
0
220
0
230
1
100
AcDbArc
50
-173.89999999999966
51
6.0999991462289263
0
ARC
5
117
100
AcDbEntity
8
0
100
AcDbCircle
10
-78.408877468781313
20
-73.35832171028791
30
0
40
1.5500000000000096
210
0
220
-0
230
1
100
AcDbArc
50
6.1000000000017804
51
186.10000000000079
0
ARC
5
118
100
AcDbEntity
8
0
100
AcDbCircle
10
-24.5
20
-24.5
30
0
40
5.0000000000005427
210
0
220
0
230
1
100
AcDbArc
50
118.10388557389608
51
177.35256756554341
0
ARC
5
119
100
AcDbEntity
8
0
100
AcDbCircle
10
-15.250000000000005
20
-15.250000000000004
30
0
40
6.8893878146532872
210
0
220
0
230
1
100
AcDbArc
50
122.29371254724562
51
167.08700217936232
0
LINE
5
120
100
AcDbEntity
8
0
100
AcDbLine
10
-75.008032406990822
20
-90.594526422047409
30
0
11
-74.848636299986453
21
-92.086033338247134
31
0
0
LINE
5
121
100
AcDbEntity
8
0
100
AcDbLine
10
-71.440479258219455
20
-87.630879650527788
30
0
11
-71.422758943975538
21
-87.608918624346302
31
0
0
LINE
5
122
100
AcDbEntity
8
0
100
AcDbLine
10
-10.800000000000001
20
-0.00024659509522975687
30
0
11
-11.563331927998245
21
-0.00024659509523003442
31
0
0
LINE
5
123
100
AcDbEntity
8
0
100
AcDbLine
10
-33.779944268628448
20
-31.526012344026153
30
0
11
-61.596983038798285
21
-61.285646278529818
31
0
0
ARC
5
124
100
AcDbEntity
8
0
100
AcDbCircle
10
-67.953158321821903
20
-81.795023501859021
30
0
40
1.5499999999999714
210
0
220
0
230
1
100
AcDbArc
50
-83.89999999999911
51
96.099999146229024
0
SPLINE
5
125
100
AcDbEntity
8
0
100
AcDbSpline
70
4
71
5
72
21
73
15
74
0
42
0.000000001
43
0.0000000001
44
0.0000000001
40
0.059063388391071364
40
0.059063388391071364
40
0.059063388391071364
40
0.059063388391071364
40
0.059063388391071364
40
0.059063388391071364
40
0.10000000000000001
40
0.20000000000000001
40
0.30000000000000004
40
0.40000000000000002
40
0.5
40
0.59999999999999998
40
0.69999999999999996
40
0.79999999999999982
40
0.8999999999999998
40
1
40
1
40
1
40
1
40
1
40
1
41
1
41
1
41
1
41
1
41
1
41
1
41
1
41
1
41
1
41
1
41
1
41
1
41
1
41
1
41
1
10
-77.089255735989624
20
-69.582265584630903
30
0
10
-76.966278183861974
20
-69.606699331316278
30
0
10
-76.544120698029417
20
-69.686662827039243
30
0
10
-75.829691719347323
20
-69.798803158587759
30
0
10
-74.836625521101865
20
-69.897031779001608
30
0
10
-73.586765987902226
20
-69.907508823069094
30
0
10
-72.219411278135055
20
-69.750631265001019
30
0
10
-70.905973016671325
20
-69.411497512703349
30
0
10
-69.648482338233862
20
-68.883241630137903
30
0
10
-68.444549048642756
20
-68.173943298135697
30
0
10
-67.290058456076252
20
-67.297511594437708
30
0
10
-66.402738063829645
20
-66.473754082541291
30
0
10
-65.756348599408639
20
-65.79136855498011
30
0
10
-65.333772849003381
20
-65.308217099197762
30
0
10
-65.124572689698766
20
-65.059584171391009
30
0
0
LINE
5
126
100
AcDbEntity
8
0
100
AcDbLine
10
-77.39937142967095
20
-82.804569071245183
30
0
11
-77.399446440777893
21
-82.804502940058597
31
0
0
ARC
5
127
100
AcDbEntity
8
0
100
AcDbCircle
10
-87.249478573194196
20
-74.842743820046934
30
0
40
5.0000000000000098
210
0
220
0
230
1
100
AcDbArc
50
316.93238501810896
51
357.85231063229418
0
LINE
5
128
100
AcDbEntity
8
0
100
AcDbLine
10
-77.931083929253802
20
-92.415451936423437
30
0
11
-78.090480033803686
21
-90.923945043189732
31
0
0
ARC
5
129
100
AcDbEntity
8
0
100
AcDbCircle
10
-76.389860113392956
20
-92.250742648818317
30
0
40
1.550000000000028
210
0
220
0
230
1
100
AcDbArc
50
-173.9000008537744
51
6.0999991462303029
0
LINE
5
130
100
AcDbEntity
8
0
100
AcDbLine
10
0.011579703307446941
20
0
30
0
11
0.011579703307446941
21
0.00067940925662757212
31
0
0
CIRCLE
5
131
100
AcDbEntity
8
0
100
AcDbCircle
10
-15.250000000000005
20
-15.250000000000004
30
0
40
3.0499999999999998
210
0
220
0
230
1
0
LINE
5
132
100
AcDbEntity
8
0
100
AcDbLine
10
-87.010288547957543
20
-82.272817041386404
30
0
11
-85.518781654723711
21
-82.113420936836533
31
0
0
CIRCLE
5
133
100
AcDbEntity
8
0
100
AcDbCircle
10
-77.39936879108717
20
-82.804532179553064
30
0
40
4.0000000000000044
210
0
220
0
230
1
0
ARC
5
134
100
AcDbEntity
8
0
100
AcDbCircle
10
-67.5315432013454
20
-90.748733912593011
30
0
40
5.0000000000000266
210
0
220
0
230
1
100
AcDbArc
50
104.38509512612374
51
141.10000000000008
0
LINE
5
135
100
AcDbEntity
8
0
100
AcDbLine
10
-82.386229245314112
20
-73.78337799563306
30
0
11
-82.252990834558503
21
-75.03012118704558
31
0
0
CIRCLE
5
136
100
AcDbEntity
8
0
100
AcDbCircle
10
-24.446779073640172
20
-24.446804449975801
30
0
40
1.45
210
0
220
0
230
1
0
ARC
5
137
100
AcDbEntity
8
0
100
AcDbCircle
10
-86.845579260352466
20
-83.814040857247235
30
0
40
4.0000000000000098
210
0
220
0
230
1
100
AcDbArc
50
96.099999999994736
51
178.25988243375821
0
ARC
5
138
100
AcDbEntity
8
0
100
AcDbCircle
10
-78.408877468781313
20
-73.35832171028791
30
0
40
4.0000001727209851
210
0
220
-0
230
1
100
AcDbArc
50
70.736965090519604
51
186.10000000000321
0
LINE
5
139
100
AcDbEntity
8
0
100
AcDbLine
10
-76.867653655374838
20
-73.193612399716699
30
0
11
-76.708257548370455
21
-74.685119315916481
31
0
0
ARC
5
140
100
AcDbEntity
8
0
100
AcDbCircle
10
-67.953158321821903
20
-81.795023501859021
30
0
40
4.0000000000000053
210
0
220
0
230
1
100
AcDbArc
50
-83.900000000000986
51
18.23471158333335
0
CIRCLE
5
141
100
AcDbEntity
8
0
100
AcDbCircle
10
-15.250000000000002
20
-15.250000000000002
30
0
40
3.0499999999999998
210
0
220
0
230
1
0
LINE
5
142
100
AcDbEntity
8
0
100
AcDbLine
10
-91.149351802192555
20
-93.752350584662253
30
0
11
-90.843734633481645
21
-83.692576408463424
31
0
0
ARC
5
143
100
AcDbEntity
8
0
100
AcDbCircle
10
-24.889290376454213
20
-13.040006247293698
30
0
40
2.9999999999999689
210
0
220
0
230
1
100
AcDbArc
50
324.69035736330818
51
347.08700217936217
0
ARC
5
144
100
AcDbEntity
8
0
100
AcDbCircle
10
-52.043653356522242
20
-14.454488382973288
30
0
40
25.00000000000032
210
0
220
0
230
1
100
AcDbArc
50
316.93238501810856
51
331.36810097355976
0
LINE
5
145
100
AcDbEntity
8
0
100
AcDbLine
10
-22.441169393848345
20
-14.773991153376993
30
0
11
-25.008157202242081
21
-18.398184589995267
31
0
0
ARC
5
146
100
AcDbEntity
8
0
100
AcDbCircle
10
-29.210717025028661
20
-15.679050781796404
30
0
40
5.0000000000005347
210
0
220
0
230
1
100
AcDbArc
50
298.10388557389609
51
324.08835216591046
0
ARC
5
147
100
AcDbEntity
8
0
100
AcDbCircle
10
-45.409165390624381
20
-3.9483103726346647
30
0
40
25.000000000000426
210
0
220
0
230
1
100
AcDbArc
50
324.08835216591035
51
324.69035736330864
0
LINE
5
148
100
AcDbEntity
8
0
100
AcDbLine
10
-65.124572689698766
20
-65.059584171391009
30
0
11
-61.596983038798285
21
-61.285646278529818
31
0
0
LINE
5
149
100
AcDbEntity
8
0
100
AcDbLine
10
-86.024587630926433
20
-79.703524973596984
30
0
11
-87.270635545697033
21
-79.836689080714365
31
0
0
LINE
5
150
100
AcDbEntity
8
0
100
AcDbLine
10
-61.884699060313338
20
-70.819344739674136
30
0
11
-56.994528348649141
21
-65.587670316715105
31
0
0
ARC
5
151
100
AcDbEntity
8
0
100
AcDbCircle
10
-20.533500278064185
20
-6.8902980818505011
30
0
40
3.0000000000001958
210
0
220
0
230
1
100
AcDbArc
50
302.29371254724606
51
324.69035736330926
0
ARC
5
152
100
AcDbEntity
8
0
100
AcDbCircle
10
-54.579215425155859
20
-77.647954324095267
30
0
40
10.000000000000092
210
0
220
0
230
1
100
AcDbArc
50
136.93238501810853
51
198.23471158333123
0
LINE
5
153
100
AcDbEntity
8
0
100
AcDbLine
10
-12.216164190026495
20
-0.33785062013969636
30
0
11
-18.0853792954581
21
-8.6242829879338814
31
0
0
CIRCLE
5
154
100
AcDbEntity
8
0
100
AcDbCircle
10
-9.9999999999999982
20
-10
30
0
40
1.45
210
0
220
0
230
1
0
ARC
5
155
100
AcDbEntity
8
0
100
AcDbCircle
10
-87.265591404896483
20
-74.859981886868752
30
0
40
5.0000000000000782
210
0
220
0
230
1
100
AcDbArc
50
284.37106763143396
51
316.93238501810811
0
LINE
5
156
100
AcDbEntity
8
0
100
AcDbLine
10
-79.790705175183305
20
-75.014537937058876
30
0
11
-79.950101282187788
21
-73.523031020859094
31
0
0
LINE
5
157
100
AcDbEntity
8
0
100
AcDbLine
10
-85.189363056547393
20
-85.195868566103812
30
0
11
-86.680869949781311
21
-85.355264670653739
31
0
0
LINE
5
158
100
AcDbEntity
8
0
100
AcDbLine
10
-10
20
-0.99999999999999811
30
0
11
-10
21
-0.800246595095222
31
0
0
LINE
5
159
100
AcDbEntity
8
0
100
AcDbLine
10
-10
20
-0.99999999999999811
30
0
11
-10.000000000000002
21
-5
31
0
0
ARC
5
160
100
AcDbEntity
8
0
100
AcDbCircle
10
-9.0000000000000018
20
-5
30
0
40
0.99999999999999978
210
0
220
0
230
1
100
AcDbArc
50
180
51
269.99999999999989
0
LINE
5
161
100
AcDbEntity
8
0
100
AcDbLine
10
-9.0000000000000036
20
-6.0000000000000009
30
0
11
-5.0000000000000036
21
-6.0000000000000009
31
0
0
LINE
5
162
100
AcDbEntity
8
0
100
AcDbLine
10
-4.0000000000000027
20
-6.0000000000000018
30
0
11
-5.0000000000000036
21
-6.0000000000000009
31
0
0
ARC
5
163
100
AcDbEntity
8
0
100
AcDbCircle
10
-4.0000000000000027
20
-7.0000000000000018
30
0
40
1.0000000000000004
210
-0
220
0
230
1
100
AcDbArc
50
0
51
90
0
LINE
5
164
100
AcDbEntity
8
0
100
AcDbLine
10
-3.0000000000000027
20
-7.0000000000000018
30
0
11
-3.0000000000000044
21
-13.961253351945796
31
0
0
ARC
5
165
100
AcDbEntity
8
0
100
AcDbCircle
10
-4.0000000000000044
20
-13.961253351945796
30
0
40
1.0000000000000009
210
0
220
0
230
1
100
AcDbArc
50
-90
51
0
0
LINE
5
166
100
AcDbEntity
8
0
100
AcDbLine
10
-4.0000000000000044
20
-14.961253351945798
30
0
11
-7.7365803779922651
21
-14.961253351945796
31
0
0
ARC
5
167
100
AcDbEntity
8
0
100
AcDbCircle
10
-7.7365803779922651
20
-15.961253351945787
30
0
40
0.99999999999999201
210
0
220
-0
230
1
100
AcDbArc
50
90
51
180
0
LINE
5
168
100
AcDbEntity
8
0
100
AcDbLine
10
-8.7365803779922597
20
-18.006153474609331
30
0
11
-8.7365803779922597
21
-15.961253351945787
31
0
0
ARC
5
169
100
AcDbEntity
8
0
100
AcDbCircle
10
-7.7365803779922615
20
-18.006153474609331
30
0
40
0.99999999999999867
210
0
220
0
230
1
100
AcDbArc
50
180
51
185.41007535886433
0
LINE
5
170
100
AcDbEntity
8
0
100
AcDbLine
10
-8.9699892448349612
20
-18.748573228577026
30
0
11
-56.994528348649141
21
-65.587670316715105
31
0
0
ARC
5
171
100
AcDbEntity
8
0
100
AcDbCircle
10
-9.5285620987740902
20
-18.175863557939024
30
0
40
0.79999999999999416
210
0
220
0
230
1
100
AcDbArc
50
-45.715946509946789
51
5.410075358864348
0
ARC
5
172
100
AcDbEntity
8
0
100
AcDbCircle
10
-10.79999999999999
20
-0.80024659509521845
30
0
40
0.79999999999998961
210
-0
220
0
230
1
100
AcDbArc
50
0
51
90.000000000000767
0
ARC
5
173
100
AcDbEntity
8
0
100
AcDbCircle
10
-11.56333192799825
20
-0.80024659509521978
30
0
40
0.79999999999998972
210
0
220
-0
230
1
100
AcDbArc
50
89.999999999999616
51
144.69035736331
0
ENDSEC
0
SECTION
2
OBJECTS
0
DICTIONARY
5
C
100
AcDbDictionary
3
ACAD_GROUP
350
D
3
ACAD_MLINESTYLE
350
17
0
DICTIONARY
5
D
100
AcDbDictionary
0
DICTIONARY
5
1A
330
C
100
AcDbDictionary
0
DICTIONARY
5
17
100
AcDbDictionary
0
ENDSEC
0
EOF
