0
SECTION
2
HEADER
9
$INSUNITS
70
4
9
$ACADVER
1
AC1014
9
$HANDSEED
5
FFFF
0
ENDSEC
0
SECTION
2
TABLES
0
TABLE
2
VPORT
5
8
100
AcDbSymbolTable
0
ENDTAB
0
TABLE
2
LTYPE
5
5
100
AcDbSymbolTable
0
LTYPE
5
14
100
AcDbSymbolTableRecord
100
AcDbLinetypeTableRecord
2
BYBLOCK
70
0
0
LTYPE
5
15
100
AcDbSymbolTableRecord
100
AcDbLinetypeTableRecord
2
BYLAYER
70
0
0
ENDTAB
0
TABLE
2
LAYER
5
2
100
AcDbSymbolTable
70
2
0
LAYER
5
50
100
AcDbSymbolTableRecord
100
AcDbLayerTableRecord
2
0
70
0
6
CONTINUOUS
0
ENDTAB
0
TABLE
2
STYLE
5
3
100
AcDbSymbolTable
70
1
0
STYLE
5
11
100
AcDbSymbolTableRecord
100
AcDbTextStyleTableRecord
2
STANDARD
70
0
0
ENDTAB
0
TABLE
2
VIEW
5
6
100
AcDbSymbolTable
70
0
0
ENDTAB
0
TABLE
2
UCS
5
7
100
AcDbSymbolTable
70
0
0
ENDTAB
0
TABLE
2
APPID
5
9
100
AcDbSymbolTable
70
2
0
APPID
5
12
100
AcDbSymbolTableRecord
100
AcDbRegAppTableRecord
2
ACAD
70
0
0
ENDTAB
0
TABLE
2
DIMSTYLE
5
A
100
AcDbSymbolTable
70
1
0
ENDTAB
0
TABLE
2
BLOCK_RECORD
5
1
100
AcDbSymbolTable
70
1
0
BLOCK_RECORD
5
1F
100
AcDbSymbolTableRecord
100
AcDbBlockTableRecord
2
*MODEL_SPACE
0
BLOCK_RECORD
5
1B
100
AcDbSymbolTableRecord
100
AcDbBlockTableRecord
2
*PAPER_SPACE
0
ENDTAB
0
ENDSEC
0
SECTION
2
BLOCKS
0
BLOCK
5
20
100
AcDbEntity
100
AcDbBlockBegin
2
*MODEL_SPACE
0
ENDBLK
5
21
100
AcDbEntity
100
AcDbBlockEnd
0
BLOCK
5
1C
100
AcDbEntity
100
AcDbBlockBegin
2
*PAPER_SPACE
0
ENDBLK
5
1D
100
AcDbEntity
100
AcDbBlockEnd
0
ENDSEC
0
SECTION
2
ENTITIES
0
ARC
5
100
100
AcDbEntity
8
0
100
AcDbCircle
10
-35.243387308760269
20
26.949999999999996
30
0
40
0.80029947462528117
210
0
220
0
230
1
100
AcDbArc
50
-180
51
0
0
LWPOLYLINE
5
101
100
AcDbEntity
8
0
100
AcDbPolyline
90
6
70
1
43
0.0
10
-34.912219494624686
20
5.8666934021383241
42
-0.51134627684003919
10
-35.861474674644633
20
4.5521864813793469
10
-39.405608516037532
20
4.552186481378218
42
-0.5364289396933325
10
-40.327190161630355
20
5.9403710644177217
10
-38.343436662023564
20
10.649962569332462
42
-0.69260949051608622
10
-36.472599836412968
20
10.576284907053552
0
ARC
5
102
100
AcDbEntity
8
0
100
AcDbCircle
10
-35.243775552083271
20
2.0500000000000016
30
0
40
0.80000000000000071
210
0
220
0
230
1
100
AcDbArc
50
0
51
180
0
LINE
5
103
100
AcDbEntity
8
0
100
AcDbLine
10
-38.94377555208326
20
26.949999999999996
30
0
11
-36.043686783385553
21
26.949999999999996
31
0
0
LINE
5
104
100
AcDbEntity
8
0
100
AcDbLine
10
-29.543775552083268
20
1.1102230246251565e-15
30
0
11
-34.443775552083274
21
1.1102230246251565e-15
31
0
0
LINE
5
105
100
AcDbEntity
8
0
100
AcDbLine
10
-29.543775552083261
20
26.949999999999996
30
0
11
-29.543775552083261
21
25.436261559831522
31
0
0
LINE
5
106
100
AcDbEntity
8
0
100
AcDbLine
10
-29.543775552083268
20
2.0500000000000012
30
0
11
-29.543775552083268
21
1.1102230246251565e-15
31
0
0
LINE
5
107
100
AcDbEntity
8
0
100
AcDbLine
10
-38.943775552083267
20
2.0500000000000025
30
0
11
-36.043775552083275
21
2.0500000000000016
31
0
0
LINE
5
108
100
AcDbEntity
8
0
100
AcDbLine
10
-29.543775552083268
20
2.0500000000000012
30
0
11
-29.543775552083268
21
4.0500000000000016
31
0
0
LINE
5
109
100
AcDbEntity
8
0
100
AcDbLine
10
-54.296950453739335
20
11.463826846476746
30
0
11
-54.296950453739335
21
19.072292323250409
31
0
0
LINE
5
110
100
AcDbEntity
8
0
100
AcDbLine
10
-29.543775552083261
20
26.949999999999996
30
0
11
-29.543775552083261
21
28.999999999999993
31
0
0
CIRCLE
5
111
100
AcDbEntity
8
0
100
AcDbCircle
10
-39.24481971768563
20
16.199872626466451
30
0
40
1.05
210
0
220
0
230
1
0
CIRCLE
5
112
100
AcDbEntity
8
0
100
AcDbCircle
10
-42.264380198334578
20
13.194906371956099
30
0
40
1.05
210
0
220
0
230
1
0
LINE
5
113
100
AcDbEntity
8
0
100
AcDbLine
10
-29.543775552083261
20
28.999999999999993
30
0
11
-34.44377555208326
21
28.999999999999993
31
0
0
LINE
5
114
100
AcDbEntity
8
0
100
AcDbLine
10
-34.44377555208326
20
28.999999999999993
30
0
11
-34.443387263743638
21
27.842561695203489
31
0
0
ARC
5
115
100
AcDbEntity
8
0
100
AcDbCircle
10
-46.243361148688457
20
1.4890281061409651
30
0
40
0.80015616372692477
210
0
220
0
230
1
100
AcDbArc
50
-1.1479494053068733
51
0
0
ARC
5
116
100
AcDbEntity
8
0
100
AcDbCircle
10
-46.239809634069921
20
27.494812125234887
30
0
40
0.80143927608954613
210
0
220
0
230
1
100
AcDbArc
50
0
51
3.5853794660502545
0
LINE
5
117
100
AcDbEntity
8
0
100
AcDbLine
10
-34.443775552083274
20
1.1102230246251565e-15
30
0
11
-34.443775552083274
21
2.0500000000000016
31
0
0
LINE
5
118
100
AcDbEntity
8
0
100
AcDbLine
10
-34.443087834134985
20
26.949999999999996
30
0
11
-34.443087834134985
21
27.842561695203489
31
0
0
LINE
5
119
100
AcDbEntity
8
0
100
AcDbLine
10
-40.543775552083261
20
27.51854480823831
30
0
11
-40.543775552083261
21
28.999999999999993
31
0
0
LWPOLYLINE
5
120
100
AcDbEntity
8
0
100
AcDbPolyline
90
4
70
1
43
0.0
10
-42.308053205819931
20
8.751677133963863
42
1.0214427229207552
10
-42.35343944063861
20
11.050711640533565
42
-0.25466085117884424
10
-46.656078953443313
20
13.505021236048583
42
1.0602387682343986
10
-48.540655042155038
20
12.193413787218239
42
0.25463625799386441
0
ARC
5
121
100
AcDbEntity
8
0
100
AcDbCircle
10
-46.239809634069921
20
26.950000000000003
30
0
40
0.80143927608968657
210
0
220
0
230
1
100
AcDbArc
50
-164.2395730559887
51
0
0
LINE
5
122
100
AcDbEntity
8
0
100
AcDbLine
10
-40.543775552083268
20
2.4980018054066022e-15
30
0
11
-45.443775552083274
21
2.4980018054066022e-15
31
0
0
LWPOLYLINE
5
123
100
AcDbEntity
8
0
100
AcDbPolyline
90
4
70
1
43
0.0
10
-42.308053205819931
20
23.703982399722491
42
0.25463625799386441
10
-48.540655042155024
20
20.262245746468107
42
1.0602387682343986
10
-46.656078953443298
20
18.950638297637767
42
-0.25466085117884402
10
-42.353439440638624
20
21.40494789315278
42
1.0214427229207579
0
ARC
5
124
100
AcDbEntity
8
0
100
AcDbCircle
10
-48.214626541349077
20
4.0500000000000167
30
0
40
2.0000000000000147
210
0
220
0
230
1
100
AcDbArc
50
208.04390499517442
51
269.99999999999983
0
LINE
5
125
100
AcDbEntity
8
0
100
AcDbLine
10
-45.438370357980375
20
26.950000000000003
30
0
11
-45.438370357980375
21
27.494812125234887
31
0
0
ARC
5
126
100
AcDbEntity
8
0
100
AcDbCircle
10
-39.743775552083264
20
26.949999999999996
30
0
40
0.80000000000000071
210
0
220
0
230
1
100
AcDbArc
50
-180
51
0
0
LINE
5
127
100
AcDbEntity
8
0
100
AcDbLine
10
-40.543775552083268
20
1.3532265797432244
30
0
11
-40.543775552083268
21
2.4980018054066022e-15
31
0
0
CIRCLE
5
128
100
AcDbEntity
8
0
100
AcDbCircle
10
-45.244819717685623
20
16.199872626466451
30
0
40
1.05
210
0
220
0
230
1
0
ARC
5
129
100
AcDbEntity
8
0
100
AcDbCircle
10
-35.243387308760269
20
27.842561695203489
30
0
40
0.80029947462528117
210
0
220
0
230
1
100
AcDbArc
50
0
51
1.5867116597590287
0
LWPOLYLINE
5
130
100
AcDbEntity
8
0
100
AcDbPolyline
90
4
70
1
43
0.0
10
-44.508853449901494
20
4.8544267017357861
42
1.0214427229207579
10
-44.55423968472018
20
7.1534612083054832
42
-0.25466085117884424
10
-48.856879197524854
20
9.6077708038204825
42
1.0602387682344014
10
-50.741455286236565
20
8.296163354990151
42
0.25463625799386441
0
LINE
5
131
100
AcDbEntity
8
0
100
AcDbLine
10
-40.543775552083261
20
28.999999999999993
30
0
11
-45.443775552083267
21
28.999999999999993
31
0
0
LINE
5
132
100
AcDbEntity
8
0
100
AcDbLine
10
-48.214626541349084
20
2.0500000000000029
30
0
11
-47.043517312415382
21
2.0500000000000025
31
0
0
ARC
5
133
100
AcDbEntity
8
0
100
AcDbCircle
10
-47.203600624319904
20
26.677993472856897
30
0
40
0.20000000000023349
210
0
220
-0
230
1
100
AcDbArc
50
15.76042694407851
51
106.26094671112692
0
LINE
5
134
100
AcDbEntity
8
0
100
AcDbLine
10
-40.543775552083261
20
27.51854480823831
30
0
11
-40.543775552083261
21
26.949999999999996
31
0
0
CIRCLE
5
135
100
AcDbEntity
8
0
100
AcDbCircle
10
-42.264380198334578
20
16.194906371956101
30
0
40
1.05
210
0
220
0
230
1
0
CIRCLE
5
136
100
AcDbEntity
8
0
100
AcDbCircle
10
-42.264380198334578
20
19.194906371956101
30
0
40
1.05
210
0
220
0
230
1
0
ARC
5
137
100
AcDbEntity
8
0
100
AcDbCircle
10
-46.243361148688457
20
2.0500000000000025
30
0
40
0.80015616372692833
210
0
220
0
230
1
100
AcDbArc
50
0
51
180
0
CIRCLE
5
138
100
AcDbEntity
8
0
100
AcDbCircle
10
-42.264380198334578
20
16.194906371956101
30
0
40
1.05
210
0
220
0
230
1
0
LINE
5
139
100
AcDbEntity
8
0
100
AcDbLine
10
-45.443775552083267
20
28.999999999999993
30
0
11
-45.439812414888095
21
27.496921461942918
31
0
0
LWPOLYLINE
5
140
100
AcDbEntity
8
0
100
AcDbPolyline
90
4
70
1
43
0.0
10
-42.35343944063861
20
11.050711640533565
42
-0.25466085117884424
10
-46.656078953443313
20
13.505021236048583
42
1.0602387682343986
10
-48.540655042155038
20
12.193413787218239
42
0.25463625799386441
10
-42.308053205819931
20
8.751677133963863
42
1.0214427229207552
0
ARC
5
141
100
AcDbEntity
8
0
100
AcDbCircle
10
-39.743775552083271
20
2.0500000000000025
30
0
40
0.80000000000000071
210
0
220
0
230
1
100
AcDbArc
50
0
51
180
0
LINE
5
142
100
AcDbEntity
8
0
100
AcDbLine
10
-49.979801709023079
20
3.1097039681956051
30
0
11
-54.179538037576336
21
10.993678830574547
31
0
0
ARC
5
143
100
AcDbEntity
8
0
100
AcDbCircle
10
-53.296950453739463
20
11.463826846476708
30
0
40
0.9999999999998721
210
0
220
0
230
1
100
AcDbArc
50
180
51
208.04390499517561
0
LINE
5
144
100
AcDbEntity
8
0
100
AcDbLine
10
-45.443775552083274
20
2.4980018054066022e-15
30
0
11
-45.443204984961525
21
2.0500000000000025
31
0
0
LINE
5
145
100
AcDbEntity
8
0
100
AcDbLine
10
-40.543775552083268
20
2.0500000000000025
30
0
11
-40.543775552083268
21
1.3532265797432244
31
0
0
LINE
5
146
100
AcDbEntity
8
0
100
AcDbLine
10
-47.259603110790572
20
26.869992747619058
30
0
11
-49.926729080132887
21
25.592832457739849
31
0
0
LINE
5
147
100
AcDbEntity
8
0
100
AcDbLine
10
-54.296950453739335
20
19.072292323250409
30
0
11
-49.926729080132887
21
25.592832457739849
31
0
0
LINE
5
148
100
AcDbEntity
8
0
100
AcDbLine
10
-29.543775552083261
20
25.436261559831522
30
0
11
-34.283665531810897
21
18.313882330638616
31
0
0
LINE
5
149
100
AcDbEntity
8
0
100
AcDbLine
10
-34.949216026847409
20
12.568821619676054
30
0
11
-29.543775552083268
21
4.0500000000000016
31
0
0
ARC
5
150
100
AcDbEntity
8
0
100
AcDbCircle
10
-39.24481971768563
20
16.199872626466451
30
0
40
4.999999999999992
210
0
220
0
230
1
100
AcDbArc
50
-31.056276711216999
51
15.069927818532195
0
ARC
5
151
100
AcDbEntity
8
0
100
AcDbCircle
10
-33.451164362184358
20
17.759859043609623
30
0
40
0.99999999999997846
210
0
220
0
230
1
100
AcDbArc
50
146.35653246057399
51
195.06992781853236
0
ARC
5
152
100
AcDbEntity
8
0
100
AcDbCircle
10
-34.10485365917242
20
13.10459413861884
30
0
40
1.0000000000000087
210
0
220
0
230
1
100
AcDbArc
50
148.9437232887835
51
212.39631692345802
0
ENDSEC
0
SECTION
2
OBJECTS
0
DICTIONARY
5
C
100
AcDbDictionary
3
ACAD_GROUP
350
D
3
ACAD_MLINESTYLE
350
17
0
DICTIONARY
5
D
100
AcDbDictionary
0
DICTIONARY
5
1A
330
C
100
AcDbDictionary
0
DICTIONARY
5
17
100
AcDbDictionary
0
ENDSEC
0
EOF
