0
SECTION
2
HEADER
9
$INSUNITS
70
4
9
$ACADVER
1
AC1014
9
$HANDSEED
5
FFFF
0
ENDSEC
0
SECTION
2
TABLES
0
TABLE
2
VPORT
5
8
100
AcDbSymbolTable
0
ENDTAB
0
TABLE
2
LTYPE
5
5
100
AcDbSymbolTable
0
LTYPE
5
14
100
AcDbSymbolTableRecord
100
AcDbLinetypeTableRecord
2
BYBLOCK
70
0
0
LTYPE
5
15
100
AcDbSymbolTableRecord
100
AcDbLinetypeTableRecord
2
BYLAYER
70
0
0
ENDTAB
0
TABLE
2
LAYER
5
2
100
AcDbSymbolTable
70
2
0
LAYER
5
50
100
AcDbSymbolTableRecord
100
AcDbLayerTableRecord
2
0
70
0
6
CONTINUOUS
0
ENDTAB
0
TABLE
2
STYLE
5
3
100
AcDbSymbolTable
70
1
0
STYLE
5
11
100
AcDbSymbolTableRecord
100
AcDbTextStyleTableRecord
2
STANDARD
70
0
0
ENDTAB
0
TABLE
2
VIEW
5
6
100
AcDbSymbolTable
70
0
0
ENDTAB
0
TABLE
2
UCS
5
7
100
AcDbSymbolTable
70
0
0
ENDTAB
0
TABLE
2
APPID
5
9
100
AcDbSymbolTable
70
2
0
APPID
5
12
100
AcDbSymbolTableRecord
100
AcDbRegAppTableRecord
2
ACAD
70
0
0
ENDTAB
0
TABLE
2
DIMSTYLE
5
A
100
AcDbSymbolTable
70
1
0
ENDTAB
0
TABLE
2
BLOCK_RECORD
5
1
100
AcDbSymbolTable
70
1
0
BLOCK_RECORD
5
1F
100
AcDbSymbolTableRecord
100
AcDbBlockTableRecord
2
*MODEL_SPACE
0
BLOCK_RECORD
5
1B
100
AcDbSymbolTableRecord
100
AcDbBlockTableRecord
2
*PAPER_SPACE
0
ENDTAB
0
ENDSEC
0
SECTION
2
BLOCKS
0
BLOCK
5
20
100
AcDbEntity
100
AcDbBlockBegin
2
*MODEL_SPACE
0
ENDBLK
5
21
100
AcDbEntity
100
AcDbBlockEnd
0
BLOCK
5
1C
100
AcDbEntity
100
AcDbBlockBegin
2
*PAPER_SPACE
0
ENDBLK
5
1D
100
AcDbEntity
100
AcDbBlockEnd
0
ENDSEC
0
SECTION
2
ENTITIES
0
LINE
5
100
100
AcDbEntity
8
0
100
AcDbLine
10
10.82500703629324
20
-31.256767785123127
30
0
11
10.82500703629324
21
-28.253242308077411
31
0
0
ARC
5
101
100
AcDbEntity
8
0
100
AcDbCircle
10
-17.057655272370919
20
-30.142260166671914
30
0
40
2.0000000000000049
210
0
220
0
230
1
100
AcDbArc
50
-0.0035513498644452967
51
0.074849313169352227
0
LWPOLYLINE
5
102
100
AcDbEntity
8
0
100
AcDbPolyline
90
4
70
1
43
0.0
10
-8.7782435691607237
20
-17.505095286080739
10
8.7217564308392337
20
-17.505095286080731
42
-0.99999999999999989
10
8.7217564308392284
20
-21.005095286080717
10
-8.7782435691607148
20
-21.005095286080731
42
-0.99999999999999989
0
LINE
5
103
100
AcDbEntity
8
0
100
AcDbLine
10
10.82500703629324
20
-28.253242308077411
30
0
11
10.82500703629324
21
-27.005095286080714
31
0
0
LINE
5
104
100
AcDbEntity
8
0
100
AcDbLine
10
-16.150591323039777
20
30.04623835887379
30
0
11
-16.934718509585188
21
-31.213486013440995
31
0
0
LINE
5
105
100
AcDbEntity
8
0
100
AcDbLine
10
-1.5958529819713105
20
-25.005095286080721
30
0
11
-8.9358276034902104
21
-25.005095286080735
31
0
0
LINE
5
106
100
AcDbEntity
8
0
100
AcDbLine
10
-7.8614878111959037
20
51.016776202748353
30
0
11
7.857290193579769
21
51.013805954066157
31
0
0
ARC
5
107
100
AcDbEntity
8
0
100
AcDbCircle
10
-13.934964241091512
20
-31.251883001004739
30
0
40
3.0000000000000009
210
0
220
0
230
1
100
AcDbArc
50
-180.73334846756248
51
1.3746241956490082
0
LINE
5
108
100
AcDbEntity
8
0
100
AcDbLine
10
-10.732560023099929
20
48.88680169319823
30
0
11
-14.852352428640856
21
35.245400540694362
31
0
0
LINE
5
109
100
AcDbEntity
8
0
100
AcDbLine
10
-10.935827603490203
20
-28.183452701085301
30
0
11
-10.935827603490207
21
-27.005095286080731
31
0
0
LINE
5
110
100
AcDbEntity
8
0
100
AcDbLine
10
16.290394978287598
20
29.352777398667964
30
0
11
16.824890287869575
21
-31.23030126076123
31
0
0
LWPOLYLINE
5
111
100
AcDbEntity
8
0
100
AcDbPolyline
90
4
70
1
43
0.0
10
-8.7782435691607077
20
22.494904713919283
42
-0.99999999999999989
10
-8.7782435691607184
20
25.99490471391929
10
8.7217564308392372
20
25.994904713919293
42
-0.99999999999999989
10
8.7217564308392319
20
22.494904713919304
0
LWPOLYLINE
5
112
100
AcDbEntity
8
0
100
AcDbPolyline
90
4
70
1
43
0.0
10
8.7217564308392426
20
17.494904713919286
42
-0.99999999999999989
10
8.7217564308392337
20
13.994904713919293
10
-8.7782435691607059
20
13.994904713919285
42
-0.99999999999999989
10
-8.7782435691607237
20
17.494904713919276
0
ARC
5
113
100
AcDbEntity
8
0
100
AcDbCircle
10
8.8250070362932362
20
-27.005095286080714
30
0
40
2.0000000000000018
210
0
220
0
230
1
100
AcDbArc
50
0
51
90.000000000000099
0
LINE
5
114
100
AcDbEntity
8
0
100
AcDbLine
10
-1.5958529819713105
20
-25.005095286080721
30
0
11
8.8250070362932327
21
-25.00509528608071
31
0
0
ARC
5
115
100
AcDbEntity
8
0
100
AcDbCircle
10
-8.9358276034902033
20
-27.005095286080731
30
0
40
2.0000000000000018
210
0
220
0
230
1
100
AcDbArc
50
90.000000000000199
51
180
0
LINE
5
116
100
AcDbEntity
8
0
100
AcDbLine
10
-10.935827603490203
20
-31.179914751078041
30
0
11
-10.935827603490203
21
-28.183452701085301
31
0
0
ARC
5
117
100
AcDbEntity
8
0
100
AcDbCircle
10
7.8567233081714587
20
48.013806007626002
30
0
40
3.0000000000000018
210
0
220
-0
230
1
100
AcDbArc
50
16.467931206726735
51
89.989173286147647
0
ARC
5
118
100
AcDbEntity
8
0
100
AcDbCircle
10
-5.6003533979831452
20
31.450599631988414
30
0
40
10.000000000000339
210
0
220
0
230
1
100
AcDbArc
50
157.69851798774232
51
165.04839388984368
0
LWPOLYLINE
5
119
100
AcDbEntity
8
0
100
AcDbPolyline
90
6
70
1
43
0.0
10
-0.55073384385504354
20
-0.061760338332211839
10
-7.3788156611652758
20
-4.8870531069675458
42
0.73495776836820359
10
-6.7928736903206408
20
-6.7036736920866424
10
6.8443266650071246
20
-6.5833592447683102
42
0.73222943922750361
10
7.4039769587448134
20
-4.7606958742170153
10
0.59485842072728012
20
-0.055717552900021033
42
0.31478074714724447
0
LINE
5
120
100
AcDbEntity
8
0
100
AcDbLine
10
14.780727222699266
20
35.173434001716728
30
0
11
10.733658957498681
21
48.86424193680007
31
0
0
ARC
5
121
100
AcDbEntity
8
0
100
AcDbCircle
10
21.695316084049928
20
38.078336905169017
30
0
40
7.4999999999999991
210
0
220
0
230
1
100
AcDbArc
50
202.78786848149963
51
202.83148362462393
0
ARC
5
122
100
AcDbEntity
8
0
100
AcDbCircle
10
13.82500703629324
20
-31.256767785123127
30
0
40
3.0000000000000004
210
0
220
0
230
1
100
AcDbArc
50
-180
51
0.50547993856491424
0
LWPOLYLINE
5
123
100
AcDbEntity
8
0
100
AcDbPolyline
90
4
70
1
43
0.0
10
-8.7782435691607112
20
-13.505095286080728
42
-0.99999999999999989
10
-8.7782435691607184
20
-10.005095286080737
10
8.721756430839239
20
-10.00509528608073
42
-0.99999999999999989
10
8.721756430839239
20
-13.505095286080721
0
LWPOLYLINE
5
124
100
AcDbEntity
8
0
100
AcDbPolyline
90
6
70
1
43
0.0
10
3.8062590982947002
20
1.3717819793084165
42
-0.52116617492271233
10
3.7976117707623835
20
3.0111437672612507
10
10.908351598650103
20
8.036186288598536
42
-0.60528008832393743
10
12.485432478566199
20
7.2283489621255272
10
12.573652313743349
20
-2.771045079403851
42
-0.60770630073228915
10
11.00521876135957
20
-3.60256954088368
0
LWPOLYLINE
5
125
100
AcDbEntity
8
0
100
AcDbPolyline
90
8
70
1
43
0.0
10
-2.7593692638849321
20
37.484742343772986
10
-6.5932790374757975
20
41.314590600118912
42
0.57966935176401724
10
-7.9329324376726928
20
40.949874684529355
10
-9.4684057278468803
20
35.043022248545874
42
0.21617647183454386
10
-9.3556315295334098
20
34.391835086607777
42
0.059002199823970432
10
-7.6273658021404582
20
32.401945697263479
42
0.40641207156502585
10
-6.511859587608714
20
32.440183572422853
10
-2.7634862445365069
20
36.348689147766734
42
0.41664894833193061
0
LWPOLYLINE
5
126
100
AcDbEntity
8
0
100
AcDbPolyline
90
6
70
1
43
0.0
10
-12.44448086664914
20
7.0605982101985738
10
-12.572487798871062
20
-2.9399087486383966
42
0.61269016035553214
10
-10.995449913315847
20
-3.7693672457533021
10
-3.777014988907184
20
1.3317816235106561
42
0.52116617492271256
10
-3.7856623164395007
20
2.9711434114634909
10
-10.876090308626246
20
7.8705015010365091
42
0.60032879963375996
0
LWPOLYLINE
5
127
100
AcDbEntity
8
0
100
AcDbPolyline
90
8
70
1
43
0.0
10
7.5053145208749665
20
32.453944355354054
42
-0.40606002713582151
10
6.3902463682358457
20
32.483822379698594
10
2.6423909408976893
20
36.329098611112784
42
-0.41664894833193689
10
2.6465079215492682
20
37.465151807119021
10
6.5551234211078757
20
41.313434499915104
42
-0.58217159517902595
10
7.8935406902394636
20
40.933208224859136
10
9.3238385051384274
20
35.07804784310995
42
-0.21091706577937694
10
9.2105983191709111
20
34.441859235117015
42
-0.058630009873143978
0
LWPOLYLINE
5
128
100
AcDbEntity
8
0
100
AcDbPolyline
90
6
70
1
43
0.0
10
-3.0934658112589979
20
43.988868797026754
10
3.0489779757734183
20
43.994875923878148
42
-0.67134950373210467
10
3.6110289234299362
20
42.624808248922001
10
0.51451820774820045
20
39.576094811501171
42
-0.41178236312880862
10
-0.61213591667791223
20
39.580177730547206
10
-3.6580689880285933
20
42.622884041116642
42
-0.66801664414583506
0
LWPOLYLINE
5
129
100
AcDbEntity
8
0
100
AcDbPolyline
90
2
70
1
43
0.0
10
11.8176631604849
20
-37.491567623673269
10
11.826240722120593
20
-37.491576310564668
42
-0.00050637287970712241
0
ARC
5
130
100
AcDbEntity
8
0
100
AcDbCircle
10
11.290486784066491
20
29.383076728108346
30
0
40
5.0000000000003837
210
0
220
0
230
1
100
AcDbArc
50
-0.34720686484322238
51
15.615781571659447
0
LINE
5
131
100
AcDbEntity
8
0
100
AcDbLine
10
15.001590524455281
20
-30.100379003450058
30
0
11
15.001590718105755
21
-30.098260215882267
31
0
0
LWPOLYLINE
5
132
100
AcDbEntity
8
0
100
AcDbPolyline
90
6
70
1
43
0.0
10
7.2099666780922309
20
9.0961003011953849
10
0.57133062571024595
20
4.404685729104119
42
-0.31478074714724302
10
-0.57426163887207782
20
4.3986429436719279
10
-7.194460549908646
20
8.9730812039731074
42
-0.73222943922750217
10
-6.6348102561709581
20
10.795744574524395
10
6.6240247072475995
20
10.912720886314489
42
-0.73495776836820104
0
LINE
5
133
100
AcDbEntity
8
0
100
AcDbLine
10
15.001590524455281
20
-30.100379003450058
30
0
11
15.001590718105755
21
-30.098260215882267
31
0
0
ARC
5
134
100
AcDbEntity
8
0
100
AcDbCircle
10
11.826240722120385
20
-33.256768038717084
30
0
40
4.2348082718475837
210
0
220
0
230
1
100
AcDbArc
50
269.88394789451559
51
270.00000000000131
0
ARC
5
135
100
AcDbEntity
8
0
100
AcDbCircle
10
-7.8614878111959037
20
48.01677620274836
30
0
40
2.9999999999999987
210
0
220
-0
230
1
100
AcDbArc
50
89.978346572056083
51
163.14153528488808
0
LINE
5
136
100
AcDbEntity
8
0
100
AcDbLine
10
16.105929078481452
20
30.729002249511154
30
0
11
15.197324354130206
21
33.979801457169849
31
0
0
LINE
5
137
100
AcDbEntity
8
0
100
AcDbLine
10
-16.307641047947122
20
17.776771076457926
30
0
11
-16.701804616407099
21
-13.017151103241815
31
0
0
LINE
5
138
100
AcDbEntity
8
0
100
AcDbLine
10
16.392976181379893
20
17.725575093039609
30
0
11
16.67226751911673
21
-13.931071428781461
31
0
0
LINE
5
139
100
AcDbEntity
8
0
100
AcDbLine
10
11.826240722120485
20
-37.491576310564668
30
0
11
11.8176631604849
21
-37.491567623673269
31
0
0
ARC
5
140
100
AcDbEntity
8
0
100
AcDbCircle
10
-11.150591323039832
20
30.04623835887379
30
0
40
4.9999999999999423
210
0
220
0
230
1
100
AcDbArc
50
165.04839388984362
51
180
0
ARC
5
141
100
AcDbEntity
8
0
100
AcDbCircle
10
-17.057655272370919
20
-30.142260166671914
30
0
40
2.0000000000000049
210
0
220
0
230
1
100
AcDbArc
50
-0.0035513498644452967
51
0.074849313169352227
0
ARC
5
142
100
AcDbEntity
8
0
100
AcDbCircle
10
5.5664397653004185
20
31.287950414364207
30
0
40
10.000000000000647
210
0
220
-0
230
1
100
AcDbArc
50
15.615781571659802
51
22.831483624623651
0
LINE
5
143
100
AcDbEntity
8
0
100
AcDbLine
10
-15.981311766780454
20
31.336253860496083
30
0
11
-15.261794285464836
21
34.030630635233109
31
0
0
CIRCLE
5
144
100
AcDbEntity
8
0
100
AcDbCircle
10
-13.934964241091512
20
-31.251883001004739
30
0
40
1.4500000000000013
210
0
220
0
230
1
0
CIRCLE
5
145
100
AcDbEntity
8
0
100
AcDbCircle
10
13.82500703629324
20
-31.256767785123127
30
0
40
1.45
210
0
220
0
230
1
0
CIRCLE
5
146
100
AcDbEntity
8
0
100
AcDbCircle
10
7.8567233081714587
20
48.013806007626002
30
0
40
1.4499999999999991
210
0
220
0
230
1
0
CIRCLE
5
147
100
AcDbEntity
8
0
100
AcDbCircle
10
-7.8614878111959037
20
48.01677620274836
30
0
40
1.4499999999999962
210
0
220
0
230
1
0
ENDSEC
0
SECTION
2
OBJECTS
0
DICTIONARY
5
C
100
AcDbDictionary
3
ACAD_GROUP
350
D
3
ACAD_MLINESTYLE
350
17
0
DICTIONARY
5
D
100
AcDbDictionary
0
DICTIONARY
5
1A
330
C
100
AcDbDictionary
0
DICTIONARY
5
17
100
AcDbDictionary
0
ENDSEC
0
EOF
