0
SECTION
2
HEADER
9
$INSUNITS
70
4
9
$ACADVER
1
AC1014
9
$HANDSEED
5
FFFF
0
ENDSEC
0
SECTION
2
TABLES
0
TABLE
2
VPORT
5
8
100
AcDbSymbolTable
0
ENDTAB
0
TABLE
2
LTYPE
5
5
100
AcDbSymbolTable
0
LTYPE
5
14
100
AcDbSymbolTableRecord
100
AcDbLinetypeTableRecord
2
BYBLOCK
70
0
0
LTYPE
5
15
100
AcDbSymbolTableRecord
100
AcDbLinetypeTableRecord
2
BYLAYER
70
0
0
ENDTAB
0
TABLE
2
LAYER
5
2
100
AcDbSymbolTable
70
2
0
LAYER
5
50
100
AcDbSymbolTableRecord
100
AcDbLayerTableRecord
2
0
70
0
6
CONTINUOUS
0
ENDTAB
0
TABLE
2
STYLE
5
3
100
AcDbSymbolTable
70
1
0
STYLE
5
11
100
AcDbSymbolTableRecord
100
AcDbTextStyleTableRecord
2
STANDARD
70
0
0
ENDTAB
0
TABLE
2
VIEW
5
6
100
AcDbSymbolTable
70
0
0
ENDTAB
0
TABLE
2
UCS
5
7
100
AcDbSymbolTable
70
0
0
ENDTAB
0
TABLE
2
APPID
5
9
100
AcDbSymbolTable
70
2
0
APPID
5
12
100
AcDbSymbolTableRecord
100
AcDbRegAppTableRecord
2
ACAD
70
0
0
ENDTAB
0
TABLE
2
DIMSTYLE
5
A
100
AcDbSymbolTable
70
1
0
ENDTAB
0
TABLE
2
BLOCK_RECORD
5
1
100
AcDbSymbolTable
70
1
0
BLOCK_RECORD
5
1F
100
AcDbSymbolTableRecord
100
AcDbBlockTableRecord
2
*MODEL_SPACE
0
BLOCK_RECORD
5
1B
100
AcDbSymbolTableRecord
100
AcDbBlockTableRecord
2
*PAPER_SPACE
0
ENDTAB
0
ENDSEC
0
SECTION
2
BLOCKS
0
BLOCK
5
20
100
AcDbEntity
100
AcDbBlockBegin
2
*MODEL_SPACE
0
ENDBLK
5
21
100
AcDbEntity
100
AcDbBlockEnd
0
BLOCK
5
1C
100
AcDbEntity
100
AcDbBlockBegin
2
*PAPER_SPACE
0
ENDBLK
5
1D
100
AcDbEntity
100
AcDbBlockEnd
0
ENDSEC
0
SECTION
2
ENTITIES
0
LWPOLYLINE
5
100
100
AcDbEntity
8
0
100
AcDbPolyline
90
6
70
1
43
0.0
10
-5.0338231391389225
20
11.872374756484785
42
0.63587823604671068
10
-5.8020444187363038
20
10.232190356820299
10
-0.80204441873630206
20
4.2321903568202988
42
0.46837494598444279
10
0.73439814045845431
20
4.2321903568202988
10
5.7343981404584525
20
10.232190356820304
42
0.63587823604671212
10
4.9661768608610775
20
11.872374756484778
0
LWPOLYLINE
5
101
100
AcDbEntity
8
0
100
AcDbPolyline
90
6
70
1
43
0.0
10
4.9661768608610775
20
-11.871551483649434
42
0.63587823604671179
10
5.7343981404584543
20
-10.231367083984948
10
0.73439814045844998
20
-4.2313670839849502
42
0.46837494598444246
10
-0.80204441873630294
20
-4.2313670839849511
10
-5.8020444187363021
20
-10.231367083984962
42
0.63587823604671279
10
-5.0338231391389261
20
-11.871551483649441
0
ARC
5
102
100
AcDbEntity
8
0
100
AcDbCircle
10
5.0338231391389234
20
10.872374756484779
30
0
40
1.0000000000000051
210
-0
220
0
230
-1
100
AcDbArc
50
-39.805571092265076
51
90.000000000000057
0
LWPOLYLINE
5
103
100
AcDbEntity
8
0
100
AcDbPolyline
90
48
70
1
43
0.0
10
22.071935145545709
20
-27.017942144829114
42
0.8641112114800652
10
27.459431135989817
20
-22.665434819592356
10
24.400644496507589
20
-17.492432514594398
42
0.032669804262516366
10
23.811569943563807
20
-16.630113785330558
42
-0.027647367134813201
10
22.106269819723909
20
-14.186814367593056
42
-0.088534586594760503
10
21.976763784932892
20
-13.860166316190021
42
0.13670244860219136
10
20.296998931313773
20
-10.574272225114651
42
-0.088534586594771245
10
20.108066721531017
20
-10.278003120010364
42
-0.19879550890743541
10
20.136937531013984
20
10.347436318966254
42
-0.086512882875335997
10
20.321268822151637
20
10.63726558862643
42
0.13354335802213338
10
21.966736623779944
20
13.848308057710081
42
-0.086512882875346059
10
22.094341778463416
20
14.167206089912288
42
-0.027288488252331287
10
23.773778508270969
20
16.581458042485394
42
0.032480011306264184
10
24.357811049887097
20
17.439887008488924
10
27.447747026170077
20
22.68371475341873
42
0.86331477336302043
10
22.058341191656709
20
27.032377753894863
42
0.063809541296992636
10
21.894981464474476
20
26.837614219246554
42
-0.037210755724960805
10
18.826432084981452
20
23.802886224326585
42
-0.37067604983892766
10
13.612124478978632
20
23.826243066706745
42
0.18053082036271706
10
10.499993099016873
20
24.987770094277213
10
-10.500006900983012
20
24.987770094277224
42
0.18052453270377744
10
-13.612050876158047
20
23.826318867329746
42
-0.37067156992287742
10
-18.826311072762238
20
23.803048166734222
42
-0.037208587671763931
10
-21.894669197237498
20
26.837612942108521
42
0.063810370781341011
10
-22.058031363931025
20
27.032378708583593
42
0.86329857156174206
10
-27.447488551684451
20
22.68380955585052
10
-24.358388803632778
20
17.440996166168148
42
0.032493590964745821
10
-23.774118298659719
20
16.582205175165996
42
-0.026739139850752627
10
-22.125796976925859
20
14.218326689391034
42
-0.088679888545002236
10
-21.995726287149722
20
13.891292044911925
42
0.13692959858060721
10
-20.309179410909273
20
10.602234636736519
42
-0.088679888545011645
10
-20.119526167002519
20
10.305752444852994
42
-0.19794261856306122
10
-20.091691673469615
20
-10.237886312226131
42
-0.090623130457925596
10
-20.285780686326611
20
-10.540538440037766
42
0.13996880880217349
10
-22.005102797826638
20
-13.901479968537668
42
-0.090623130457948994
10
-22.136951021877135
20
-14.235971973218559
42
-0.027011847953808475
10
-23.805231076389557
20
-16.621709220282092
42
0.032503635386576621
10
-24.391273472386526
20
-17.479680088026697
10
-27.459030080365672
20
-22.664506156373484
42
0.86421857676458103
10
-22.07213256865256
20
-27.017952629830575
42
0.06337702296005461
10
-21.909756900455342
20
-26.824594623956717
42
-0.037191546098702219
10
-18.832631839823168
20
-23.789865700692133
42
-0.37073447874600879
10
-13.617740580582783
20
-23.820836567047255
42
0.18093414085164652
10
-10.500006900983012
20
-24.987229905722764
10
10.499993099016873
20
-24.987229905722774
42
0.18093087359047763
10
13.617681428645872
20
-23.820876020965631
42
-0.37073215256768577
10
18.832548139698915
20
-23.789949965130816
42
-0.037190585682948168
10
21.909586200483368
20
-26.824608603158069
42
0.063367934241771312
0
LWPOLYLINE
5
104
100
AcDbEntity
8
0
100
AcDbPolyline
90
6
70
1
43
0.0
10
-4.8020444187363056
20
0.76863291601505013
42
-0.46837494598444313
10
-4.8020444187363065
20
-0.76780964317970324
10
-10.802044418736308
20
-5.7678096431797057
42
-0.63587823604671223
10
-12.442228818400789
20
-4.9995883635823288
10
-12.442228818400791
20
5.0004116364176721
42
-0.63587823604670857
10
-10.802044418736314
20
5.7686329160150507
0
ARC
5
105
100
AcDbEntity
8
0
100
AcDbCircle
10
-5.4422288184007872
20
0.00041163641767306871
30
0
40
1.0000000000000013
210
-0
220
0
230
1
100
AcDbArc
50
-50.194428907734768
51
50.194428907734789
0
ARC
5
106
100
AcDbEntity
8
0
100
AcDbCircle
10
0.033823139138924437
20
4.8723747564847795
30
0
40
1.0000000000000013
210
0
220
-0
230
-1
100
AcDbArc
50
219.80557109226513
51
320.19442890773485
0
ARC
5
107
100
AcDbEntity
8
0
100
AcDbCircle
10
-0.033823139138926171
20
-4.8715514836494309
30
0
40
1.0000000000000018
210
0
220
-0
230
1
100
AcDbArc
50
39.805571092265225
51
140.19442890773487
0
ARC
5
108
100
AcDbEntity
8
0
100
AcDbCircle
10
-11.442228818400789
20
-4.9995883635823297
30
0
40
1.0000000000000011
210
0
220
0
230
1
100
AcDbArc
50
180
51
309.80557109226538
0
ARC
5
109
100
AcDbEntity
8
0
100
AcDbCircle
10
4.9661768608610792
20
-10.871551483649434
30
0
40
1.0000000000000011
210
0
220
0
230
1
100
AcDbArc
50
-90.000000000000099
51
39.805571092265488
0
ARC
5
110
100
AcDbEntity
8
0
100
AcDbCircle
10
-11.442228818400791
20
5.0004116364176729
30
0
40
1
210
0
220
-0
230
1
100
AcDbArc
50
50.194428907734988
51
180
0
CIRCLE
5
111
100
AcDbEntity
8
0
100
AcDbCircle
10
0
20
0
30
0
40
1.4500000000000002
210
0
220
0
230
1
0
ARC
5
112
100
AcDbEntity
8
0
100
AcDbCircle
10
-4.9661768608610792
20
10.872374756484781
30
0
40
0.99999999999999667
210
0
220
0
230
-1
100
AcDbArc
50
89.999999999999901
51
219.80557109226504
0
ARC
5
113
100
AcDbEntity
8
0
100
AcDbCircle
10
-5.0338231391389261
20
-10.871551483649441
30
0
40
0.99999999999999889
210
0
220
0
230
1
100
AcDbArc
50
140.19442890773485
51
270
0
LWPOLYLINE
5
114
100
AcDbEntity
8
0
100
AcDbPolyline
90
4
70
1
43
0.0
10
-8.7500069009830082
20
-18.487229905722788
10
8.7499930990168835
20
-18.487229905722803
42
-0.99999999999999989
10
8.7499930990168941
20
-21.987229905722781
10
-8.7500069009830241
20
-21.987229905722771
42
-0.99999999999999989
0
LWPOLYLINE
5
115
100
AcDbEntity
8
0
100
AcDbPolyline
90
4
70
1
43
0.0
10
8.749993099016887
20
18.487770094277234
10
-8.7500069009830348
20
18.487770094277241
42
-0.99999999999999989
10
-8.750006900983017
20
21.987770094277227
10
8.7499930990168746
20
21.987770094277209
42
-0.99999999999999989
0
LWPOLYLINE
5
116
100
AcDbEntity
8
0
100
AcDbPolyline
90
6
70
1
43
0.0
10
10.917586781934748
20
-5.7678096431797012
10
4.9175867819347392
20
-0.76780964317970146
42
-0.46837494598444313
10
4.9175867819347392
20
0.76863291601505179
10
10.917586781934737
20
5.7686329160150551
42
-0.63587823604671179
10
12.55777118159922
20
5.0004116364176809
10
12.55777118159922
20
-4.9995883635823226
42
-0.63587823604671057
0
CIRCLE
5
117
100
AcDbEntity
8
0
100
AcDbCircle
10
-24.446779073640169
20
24.446804449975801
30
0
40
1.45
210
0
220
0
230
1
0
CIRCLE
5
118
100
AcDbEntity
8
0
100
AcDbCircle
10
-15.25
20
15.25
30
0
40
3.0499999999999998
210
0
220
0
230
1
0
CIRCLE
5
119
100
AcDbEntity
8
0
100
AcDbCircle
10
-9.9999999999999982
20
10
30
0
40
1.45
210
0
220
0
230
1
0
CIRCLE
5
120
100
AcDbEntity
8
0
100
AcDbCircle
10
9.9999999999999982
20
10
30
0
40
1.45
210
0
220
0
230
1
0
CIRCLE
5
121
100
AcDbEntity
8
0
100
AcDbCircle
10
15.268251427013064
20
15.260029748554496
30
0
40
3.0499999999999998
210
0
220
0
230
1
0
CIRCLE
5
122
100
AcDbEntity
8
0
100
AcDbCircle
10
24.446779073640169
20
24.446804449975801
30
0
40
1.45
210
0
220
0
230
1
0
CIRCLE
5
123
100
AcDbEntity
8
0
100
AcDbCircle
10
9.9999999999999982
20
-10
30
0
40
1.45
210
0
220
0
230
1
0
CIRCLE
5
124
100
AcDbEntity
8
0
100
AcDbCircle
10
15.25
20
-15.25
30
0
40
3.0499999999999998
210
0
220
0
230
1
0
CIRCLE
5
125
100
AcDbEntity
8
0
100
AcDbCircle
10
24.446779073640169
20
-24.446804449975801
30
0
40
1.45
210
0
220
0
230
1
0
CIRCLE
5
126
100
AcDbEntity
8
0
100
AcDbCircle
10
-9.9999999999999982
20
-10
30
0
40
1.45
210
0
220
0
230
1
0
CIRCLE
5
127
100
AcDbEntity
8
0
100
AcDbCircle
10
-15.25
20
-15.25
30
0
40
3.0499999999999998
210
0
220
0
230
1
0
CIRCLE
5
128
100
AcDbEntity
8
0
100
AcDbCircle
10
-24.446779073640169
20
-24.446804449975801
30
0
40
1.45
210
0
220
0
230
1
0
ENDSEC
0
SECTION
2
OBJECTS
0
DICTIONARY
5
C
100
AcDbDictionary
3
ACAD_GROUP
350
D
3
ACAD_MLINESTYLE
350
17
0
DICTIONARY
5
D
100
AcDbDictionary
0
DICTIONARY
5
1A
330
C
100
AcDbDictionary
0
DICTIONARY
5
17
100
AcDbDictionary
0
ENDSEC
0
EOF
