0
SECTION
2
HEADER
9
$INSUNITS
70
4
9
$ACADVER
1
AC1014
9
$HANDSEED
5
FFFF
0
ENDSEC
0
SECTION
2
TABLES
0
TABLE
2
VPORT
5
8
100
AcDbSymbolTable
0
ENDTAB
0
TABLE
2
LTYPE
5
5
100
AcDbSymbolTable
0
LTYPE
5
14
100
AcDbSymbolTableRecord
100
AcDbLinetypeTableRecord
2
BYBLOCK
70
0
0
LTYPE
5
15
100
AcDbSymbolTableRecord
100
AcDbLinetypeTableRecord
2
BYLAYER
70
0
0
ENDTAB
0
TABLE
2
LAYER
5
2
100
AcDbSymbolTable
70
2
0
LAYER
5
50
100
AcDbSymbolTableRecord
100
AcDbLayerTableRecord
2
0
70
0
6
CONTINUOUS
0
ENDTAB
0
TABLE
2
STYLE
5
3
100
AcDbSymbolTable
70
1
0
STYLE
5
11
100
AcDbSymbolTableRecord
100
AcDbTextStyleTableRecord
2
STANDARD
70
0
0
ENDTAB
0
TABLE
2
VIEW
5
6
100
AcDbSymbolTable
70
0
0
ENDTAB
0
TABLE
2
UCS
5
7
100
AcDbSymbolTable
70
0
0
ENDTAB
0
TABLE
2
APPID
5
9
100
AcDbSymbolTable
70
2
0
APPID
5
12
100
AcDbSymbolTableRecord
100
AcDbRegAppTableRecord
2
ACAD
70
0
0
ENDTAB
0
TABLE
2
DIMSTYLE
5
A
100
AcDbSymbolTable
70
1
0
ENDTAB
0
TABLE
2
BLOCK_RECORD
5
1
100
AcDbSymbolTable
70
1
0
BLOCK_RECORD
5
1F
100
AcDbSymbolTableRecord
100
AcDbBlockTableRecord
2
*MODEL_SPACE
0
BLOCK_RECORD
5
1B
100
AcDbSymbolTableRecord
100
AcDbBlockTableRecord
2
*PAPER_SPACE
0
ENDTAB
0
ENDSEC
0
SECTION
2
BLOCKS
0
BLOCK
5
20
100
AcDbEntity
100
AcDbBlockBegin
2
*MODEL_SPACE
0
ENDBLK
5
21
100
AcDbEntity
100
AcDbBlockEnd
0
BLOCK
5
1C
100
AcDbEntity
100
AcDbBlockBegin
2
*PAPER_SPACE
0
ENDBLK
5
1D
100
AcDbEntity
100
AcDbBlockEnd
0
ENDSEC
0
SECTION
2
ENTITIES
0
LWPOLYLINE
5
100
100
AcDbEntity
8
0
100
AcDbPolyline
90
26
70
1
43
0.0
10
10.531170154932038
20
13.209852494822893
42
0.41421171798371681
10
11.531163857788689
20
14.209852494803066
10
11.531141818041664
20
17.152038332683823
42
-0.48110295095004868
10
15.804715873383238
20
20.565501917636194
42
0.25754274367713342
10
19.517229100870843
20
21.638152312248945
10
20.782434866007812
20
22.903359390699464
42
0.52975802222441915
10
20.471657119250203
20
24.5285741893221
10
19.9544836329272
20
24.751827850592328
10
10.446666895302226
20
28.85616605333492
42
0.23615209248497221
10
9.5533718492819659
20
28.805827885084092
10
9.3565326744098041
20
28.6930995318891
42
0.16794443552242158
10
8.9267491595025259
20
28.201010025036442
42
-0.82384996598592897
10
7.0000000000004325
20
28.576690734365734
10
7.0000000000004272
20
29.686509008349198
42
0.2993062849353042
10
6.3963294014258683
20
30.604617392781968
10
2.896329401425441
20
32.115498818667461
42
0.53928294135788368
10
1.5000000000000013
20
31.197390434234705
10
1.5000000000000009
20
21.467736198955649
42
0.23993164795342276
10
1.9117647058823575
20
20.659046370434023
42
-0.50917507721731603
10
1.9117647058823584
20
15.402562485043507
42
0.23993164795342897
10
1.5000000000000049
20
14.593872656521889
10
1.5000000000000016
20
6.0351198434581734
42
0.66817882560203534
10
3.2071071481830549
20
5.3280134292683243
10
6.5090613623068583
20
8.6299710708987991
42
0.23993108331635932
10
6.7897296931534958
20
9.4929607844752759
42
-0.50917375078982696
10
10.506617576401938
20
13.209852310900207
0
LWPOLYLINE
5
101
100
AcDbEntity
8
0
100
AcDbPolyline
90
11
70
1
43
0.0
10
19.531142805811164
20
16.995203587025053
42
-0.19891386906760736
10
19.824035657608274
20
17.702316298358262
10
21.239671925457134
20
19.117954035671087
42
-0.66817882560203457
10
22.946779073640165
20
18.410847621481238
10
22.946779073640169
20
2.4995815074817989
42
-0.41421356237309354
10
21.946779073640169
20
1.4995815074818015
10
21.468154691473838
20
1.4995815074817973
10
21.468051748734688
20
1.4995815074818006
42
-0.23991791563207734
10
20.65939247392043
20
1.9113042112541945
42
0.078410311673631244
10
19.942997986202208
20
2.627656979814037
42
-0.23993164795343064
10
19.531228187892246
20
3.4363442153782486
0
CIRCLE
5
102
100
AcDbEntity
8
0
100
AcDbCircle
10
10.000000000000004
20
9.9995815074818051
30
0
40
1.4500000000000002
210
0
220
0
230
1
0
SPLINE
5
103
100
AcDbEntity
8
0
100
AcDbSpline
70
4
71
5
72
16
73
10
74
0
42
0.000000001
43
0.0000000001
44
0.0000000001
40
0
40
0
40
0
40
0
40
0
40
0
40
0.20000000000000001
40
0.40000000000000002
40
0.60000000000000009
40
0.80000000000000004
40
1
40
1
40
1
40
1
40
1
40
1
41
1
41
1
41
1
41
1
41
1
41
1
41
1
41
1
41
1
41
1
10
13.550225310985409
20
11.42849943937167
30
0
10
13.529061263782706
20
11.323420969451286
30
0
10
13.486733169377835
20
11.113264029610708
30
0
10
13.423241027772288
20
10.798028619850458
30
0
10
13.338584838967975
20
10.377714740171189
30
0
10
13.232764602965865
20
9.8523223905733257
30
0
10
13.148108414165376
20
9.4320085108955816
30
0
10
13.084616272565173
20
9.1167731011374684
30
0
10
13.042288178165045
20
8.9066161612987891
30
0
10
13.021124130964994
20
8.8015376913794654
30
0
0
LWPOLYLINE
5
104
100
AcDbEntity
8
0
100
AcDbPolyline
90
26
70
1
43
0.0
10
-10.446657317409793
20
28.856157260708031
42
-0.23614710123766935
10
-9.5533790050734275
20
28.805822745207941
10
-9.3565403485596264
20
28.693097950861883
42
-0.16794656396773869
10
-8.9267475820444808
20
28.201006133704595
42
0.82384820378022261
10
-6.9999999999995683
20
28.576690734365727
10
-6.9999999999995612
20
29.686465178272314
42
-0.29930803679107132
10
-6.3963234968061657
20
30.60457611159082
10
-2.8961228549595281
20
32.115517445104075
42
-0.53928294135788113
10
-1.4997993581736033
20
31.197400080507144
10
-1.4998619322889428
20
21.467745845429302
42
-0.23993164795342559
10
-1.911631839072228
20
20.659058665097866
42
0.50917507721731403
10
-1.9116656449836211
20
15.402574779816067
42
-0.23993164794920854
10
-1.499906140019226
20
14.593882303153672
10
-1.499961183741515
20
6.0351294902509887
42
-0.66817882560203812
10
-3.207072879487487
20
5.3280340549571292
10
-6.5090058577340741
20
8.6300129323062063
42
-0.23993108331636062
10
-6.7896686384477878
20
9.4930044509210134
42
0.50917375078982607
10
-10.506532617255084
20
13.209919881609924
10
-10.531085195783492
20
13.209920223437075
42
-0.41421171798371287
10
-11.531072467341044
20
14.209926654634488
10
-11.531031505577726
20
17.152112492312661
42
0.48110295095004724
10
-15.804583607896216
20
20.565603561739039
42
-0.25754274367713487
10
-19.517089936793703
20
21.638277832535824
10
-20.782287565005532
20
22.903493047850738
42
-0.52975802222441248
10
-20.471499366045492
20
24.528705847741534
10
-19.954324443926726
20
24.751956182920452
0
CIRCLE
5
105
100
AcDbEntity
8
0
100
AcDbCircle
10
0.00017740308777613808
20
-0.00020924625910098346
30
0
40
1.5000000000000002
210
0
220
0
230
1
0
LWPOLYLINE
5
106
100
AcDbEntity
8
0
100
AcDbPolyline
90
10
70
1
43
0.0
10
-24.776733614196228
20
27.428325571182217
42
-0.15073029398510299
10
-23.039628052610329
20
27.096140972570282
42
0.22773507729237039
10
-22.174306623697653
20
27.061229303110288
10
-12.487931820428066
20
31.242573620114928
42
0.29930803679107104
10
-11.823887666915329
20
32.252495646765283
10
-11.823887666915331
20
34.935390401739397
42
0.37042030644936513
10
-12.757550318334783
20
36.022741258853685
10
-34.704851884540808
20
39.380126712808142
42
0.72452562829050127
10
-35.563177136413934
20
37.684521851686789
10
-25.593881962287199
20
27.715150565232985
42
0.22773507729235556
0
LINE
5
107
100
AcDbEntity
8
0
100
AcDbLine
10
48.313213226525853
20
1.135921527126559
30
0
11
47.889250477436207
21
0.54350596033942467
31
0
0
ARC
5
108
100
AcDbEntity
8
0
100
AcDbCircle
10
-46.774146463972464
20
-57.98429205274271
30
0
40
7.0000000000087015
210
0
220
-0
230
1
100
AcDbArc
50
63.259981788586863
51
90.000368485017106
0
ARC
5
109
100
AcDbEntity
8
0
100
AcDbCircle
10
-10.000000000000009
20
9.9995815074817997
30
0
40
3.2500000000000058
210
-0
220
0
230
-1
100
AcDbArc
50
-8.9680283033976824
51
98.967972143905882
0
LWPOLYLINE
5
110
100
AcDbEntity
8
0
100
AcDbPolyline
90
8
70
1
43
0.0
10
9.0500000000004306
20
36.576690734365727
10
6.9500000000004274
20
36.576690734365727
42
0.99999999999999989
10
6.9500000000004309
20
34.976690734365732
10
6.9500000000004363
20
34.176690734365728
42
0.99999999999999989
10
6.9500000000004309
20
32.576690734365734
10
9.050000000000427
20
32.576690734365734
42
0.99999999999999989
10
9.0500000000004306
20
34.176690734365728
10
9.0500000000004359
20
34.976690734365732
42
0.99999999999999989
0
LWPOLYLINE
5
111
100
AcDbEntity
8
0
100
AcDbPolyline
90
12
70
1
43
0.0
10
28.953452708162093
20
26.831736242940245
42
0.24153136044265086
10
28.394037033609667
20
25.093810058873505
42
-0.28499577032468398
10
26.780112841614617
20
21.197454321530266
42
0.24153136156376409
10
25.946779498006201
20
19.57298859884996
10
25.946779422135897
20
2.3969280956321581
42
0.41496417132808322
10
26.949341473923809
20
1.396931373271042
10
44.500010945903156
20
1.3969313732710424
42
0.41421353192271904
10
45.500010945903142
20
2.39693126930693
10
45.500014548035949
20
37.044780633612241
42
0.41421356237414342
10
44.500014682248363
20
38.044780767828257
10
41.863610392781894
20
38.044781121659369
42
0.236067999418381
10
39.318025955793374
20
37.196255035229136
0
LWPOLYLINE
5
112
100
AcDbEntity
8
0
100
AcDbPolyline
90
4
70
1
43
0.0
10
-36.49972784554835
20
-43.500208699159288
42
0.99999999999999989
10
-36.499740708105172
20
-41.500208699200641
10
-37.999740708074171
20
-41.500218346118281
42
0.99999999999999989
10
-37.999727845517313
20
-43.50021834607692
0
LWPOLYLINE
5
113
100
AcDbEntity
8
0
100
AcDbPolyline
90
12
70
1
43
0.0
10
-28.393875645051857
20
-25.094411160830454
42
-0.28499577032468326
10
-26.779976511638775
20
-21.198045043971941
42
0.24153136156376914
10
-25.946653615438947
20
-19.573573961926488
10
-25.946764003595931
20
-2.3975134590634095
42
0.41496417132808777
10
-26.949332486620463
20
-1.3975231844786598
10
-44.500001958236865
20
-1.3976360577205349
42
0.41421353192271798
10
-45.499995526938399
20
-2.3976423850141648
10
-45.499776299105214
20
-37.045491748626091
42
0.41421356237414342
10
-44.499770002059044
20
-38.045485451543883
10
-41.863365712644772
20
-38.04546884992498
42
0.23606799941837853
10
-39.31778673281643
20
-37.19692639215004
10
-28.953280142505555
20
-26.832340942619197
42
0.24153136044265061
0
LWPOLYLINE
5
114
100
AcDbEntity
8
0
100
AcDbPolyline
90
12
70
1
43
0.0
10
-44.499770002059044
20
38.045066959025661
42
0.41421356237414081
10
-45.499776299105214
20
37.045073256107898
10
-45.499995526938406
20
2.397223892495965
42
0.41421353192271032
10
-44.500001958236865
20
1.3972175652023366
10
-26.949332486620463
20
1.3971046919604613
42
0.41496417132808655
10
-25.946764003595931
20
2.3970949665452079
10
-25.946653615438947
20
19.573155469408285
42
0.24153136156376667
10
-26.779976511638779
20
21.19762655145373
42
-0.28499577032468265
10
-28.393875645051864
20
25.093992668312239
42
0.24153136044265214
10
-28.953280142505559
20
26.831922450100993
10
-39.317786732816415
20
37.196507899631833
42
0.23606799941837608
10
-41.863365712644772
20
38.045050357406772
0
LWPOLYLINE
5
115
100
AcDbEntity
8
0
100
AcDbPolyline
90
11
70
1
43
0.0
10
-22.946762994969557
20
-2.5001475770734167
42
-0.41421356237309082
10
-21.946769426268681
20
-1.5001411458156777
10
-21.468145044112244
20
-1.5001380676490128
10
-21.468042101373094
20
-1.5001380669869568
42
-0.23991791563208731
10
-20.659380178672208
20
-1.9118555700378936
42
0.078410311673629343
10
-19.942981083904709
20
-2.6282037312505095
42
-0.23993164795342911
10
-19.53120608471049
20
-3.436888318591782
10
-19.531033501829697
20
-16.995747689409068
42
-0.19891386906760841
10
-19.823921805982032
20
-17.702862284403121
10
-21.239548969441184
20
-19.118509126037665
42
-0.66817882560203601
10
-22.946660665187125
20
-18.411413690743803
0
LWPOLYLINE
5
116
100
AcDbEntity
8
0
100
AcDbPolyline
90
19
70
1
43
0.0
10
3.2071071481830549
20
-5.3284319217865264
10
6.5090613623068592
20
-8.6303895634170011
42
-0.23993108331635921
10
6.7897296931534967
20
-9.4933792769934797
42
0.50917375078982585
10
10.506617576401938
20
-13.210270803418416
10
10.531170154932038
20
-13.210270987341097
42
-0.4142117179837162
10
11.531163857788695
20
-14.21027098732127
10
11.531141818041664
20
-17.15245682520203
42
0.48110295095004729
10
15.804715873383229
20
-20.565920410154391
42
-0.25754274367713459
10
19.517229100870843
20
-21.638570804767149
10
20.782434866007815
20
-22.903777883217671
42
-0.52975802222441815
10
20.471657119250203
20
-24.528992681840304
10
19.9544836329272
20
-24.752246343110535
10
2.8963294014254415
20
-32.115917311185662
42
-0.53928294135788601
10
1.4999999999999996
20
-31.197808926752906
10
1.499999999999998
20
-21.468154691473849
42
-0.23993164795342511
10
1.9117647058823539
20
-20.659464862952216
42
0.50917507721731448
10
1.9117647058823586
20
-15.402980977561709
42
-0.23993164795343133
10
1.5000000000000033
20
-14.594291149040091
10
1.5000000000000033
20
-6.0355383359763772
42
-0.66817882560203579
0
LWPOLYLINE
5
117
100
AcDbEntity
8
0
100
AcDbPolyline
90
6
70
1
43
0.0
10
48.000007606747062
20
48.999555465829346
10
46.033528211908802
20
48.999555465829388
42
0.50337011108929208
10
45.17229225856866
20
47.838265143248712
42
0.25046591309411148
10
47.838717284166421
20
45.171840117650959
42
0.50337011108930174
10
49.000007606747069
20
46.033076070991079
10
49.000007606747069
20
47.999555465829353
42
0.41421356237309764
0
ARC
5
118
100
AcDbEntity
8
0
100
AcDbCircle
10
-15.53120608503451
20
-3.4368374049046646
30
0
40
1.0000000000000042
210
0
220
0
230
1
100
AcDbArc
50
126.0326083573184
51
180.000729284633
0
LINE
5
119
100
AcDbEntity
8
0
100
AcDbLine
10
6.5000000000004299
20
40.499999999996703
30
0
11
6.500000000000429
21
39.81764047061111
31
0
0
ARC
5
120
100
AcDbEntity
8
0
100
AcDbCircle
10
9.9999356870089766
20
-10.000064312577418
30
0
40
3.2500000000000022
210
0
220
0
230
-1
100
AcDbArc
50
21.630712272400167
51
98.967845066360567
0
ARC
5
121
100
AcDbEntity
8
0
100
AcDbCircle
10
9.9999356870089784
20
-10.000064312577416
30
0
40
3.2499999999999964
210
0
220
0
230
-1
100
AcDbArc
50
21.630712272400142
51
98.967845066360624
0
LWPOLYLINE
5
122
100
AcDbEntity
8
0
100
AcDbPolyline
90
8
70
1
43
0.0
10
-6.9499999999995765
20
32.576690734365734
42
0.99999999999999989
10
-6.9499999999995694
20
34.176690734365721
10
-6.9499999999995694
20
34.976690734365725
42
0.99999999999999989
10
-6.9499999999995694
20
36.576690734365727
10
-9.0499999999995673
20
36.576690734365727
42
0.99999999999999989
10
-9.0499999999995673
20
34.976690734365725
10
-9.0499999999995691
20
34.176690734365721
42
0.99999999999999989
10
-9.0499999999995673
20
32.576690734365734
0
LWPOLYLINE
5
123
100
AcDbEntity
8
0
100
AcDbPolyline
90
4
70
1
43
0.0
10
-43.49970533592915
20
-47.000253718035864
42
-0.99999999999999989
10
-41.499705335970475
20
-47.000240855479014
10
-41.499695689052835
20
-48.500240855447984
42
-0.99999999999999989
10
-43.499695689011524
20
-48.500253718004849
0
LWPOLYLINE
5
124
100
AcDbEntity
8
0
100
AcDbPolyline
90
10
70
1
43
0.0
10
24.776910015573662
20
27.428166224542693
42
0.22773507729236594
10
25.59406020829913
20
27.714985963279005
10
35.563419498022157
20
37.684293134213704
42
0.72452562829051181
10
34.705105151073731
20
39.379903515428623
10
12.757530511679915
20
36.022620742079027
42
0.37042213488091374
10
11.823860867200921
20
34.93526881522542
10
11.823860867200915
20
32.252513640149729
42
0.29930628493530359
10
12.487898525632932
20
31.242594417273679
10
22.174480664230607
20
27.061086693410918
42
0.22773507729237344
10
23.039802317652072
20
27.095992797747151
42
-0.15073029398510299
0
LWPOLYLINE
5
125
100
AcDbEntity
8
0
100
AcDbPolyline
90
8
70
1
43
0.0
10
-22.174306623697653
20
-27.061647795628492
10
-7.5793232951571055
20
-33.361904789294599
42
-0.75323987891950495
10
-7.8244310205268519
20
-35.268516501807923
10
-34.704851884540808
20
-39.380545205326328
42
-0.72452562829050249
10
-35.563177136413934
20
-37.684940344204996
10
-25.593881962287199
20
-27.715569057751193
42
-0.22773507729236245
10
-24.776733614196228
20
-27.428744063700414
42
0.1507302939851014
10
-23.039628052610336
20
-27.096559465088482
42
-0.22773507729236081
0
LWPOLYLINE
5
126
100
AcDbEntity
8
0
100
AcDbPolyline
90
19
70
1
43
0.0
10
-11.531031505577722
20
-17.152530984830857
42
-0.48110295095004596
10
-15.804583607896216
20
-20.566022054257246
42
0.25754274367713426
10
-19.517089936793703
20
-21.638696325054024
10
-20.782287565005525
20
-22.903911540368931
42
0.52975802222440982
10
-20.471499366045492
20
-24.529124340259727
10
-19.954324443926726
20
-24.752374675438659
10
-2.8961228549595281
20
-32.115935937622268
42
0.53928294135787924
10
-1.4997993581736018
20
-31.197818573025351
10
-1.4998619322889453
20
-21.468164337947506
42
0.23993164795342781
10
-1.9116318390722298
20
-20.659477157616074
42
-0.50917507721731559
10
-1.9116656449836196
20
-15.402993272334271
42
0.2399316479534318
10
-1.4999061400192253
20
-14.594300795655906
10
-1.499961183741515
20
-6.0355479827691916
42
0.6681788256020369
10
-3.207072879487487
20
-5.328452547475333
10
-6.5090058577340741
20
-8.6304314248244083
42
0.23993108331636026
10
-6.7896686384477878
20
-9.4934229434392154
42
-0.50917375078982596
10
-10.506532617255084
20
-13.210338374128126
10
-10.531085195783492
20
-13.210338715955274
42
0.41421171798371414
10
-11.531072467341044
20
-14.210345147152697
0
LWPOLYLINE
5
127
100
AcDbEntity
8
0
100
AcDbPolyline
90
4
70
1
43
0.0
10
-48.499727845400542
20
-43.500280200461347
42
-1.000001810339413
10
-48.499740707916708
20
-41.500280139109307
10
-46.999740708029094
20
-41.500270610562573
42
-0.99995071899990795
10
-46.999727845223291
20
-43.500270667906243
0
ARC
5
128
100
AcDbEntity
8
0
100
AcDbCircle
10
-14.594431834315548
20
-2.5000938609062406
30
0
40
0.99999999999999589
210
0
220
0
230
1
100
AcDbArc
50
90.000368485110343
51
143.96551350147072
0
LINE
5
129
100
AcDbEntity
8
0
100
AcDbLine
10
-6.0355198288522027
20
-1.500038816139464
30
0
11
-14.594438265593968
21
-1.5000938609269254
31
0
0
LINE
5
130
100
AcDbEntity
8
0
100
AcDbLine
10
49.500007606747083
20
39.999555473397841
30
0
11
49.514149752620753
21
39.999555473398082
31
0
0
LINE
5
131
100
AcDbEntity
8
0
100
AcDbLine
10
-49.499750354753935
20
-40.000292313419656
30
0
11
-49.513892500627286
21
-40.00029240437194
31
0
0
ARC
5
132
100
AcDbEntity
8
0
100
AcDbCircle
10
-18.031249831549204
20
6.2544979359157671e-05
30
0
40
3.2500000000000022
210
0
220
0
230
1
100
AcDbArc
50
306.03260835731828
51
323.96551350147041
0
CIRCLE
5
133
100
AcDbEntity
8
0
100
AcDbCircle
10
10.000000000000004
20
-10.000000000000004
30
0
40
1.4500000000000002
210
0
220
0
230
1
0
LINE
5
134
100
AcDbEntity
8
0
100
AcDbLine
10
-13.531101324207793
20
-11.667289427938845
30
0
11
-13.531031505415713
21
-17.152556441674403
31
0
0
SPLINE
5
135
100
AcDbEntity
8
0
100
AcDbSpline
70
4
71
5
72
16
73
10
74
0
42
0.000000001
43
0.0000000001
44
0.0000000001
40
0
40
0
40
0
40
0
40
0
40
0
40
0.20000000000000001
40
0.40000000000000002
40
0.60000000000000009
40
0.80000000000000004
40
1
40
1
40
1
40
1
40
1
40
1
41
1
41
1
41
1
41
1
41
1
41
1
41
1
41
1
41
1
41
1
10
-13.550151808151893
20
-11.429005076925176
30
0
10
-13.528988436738524
20
-11.323926470895085
30
0
10
-13.486661693912321
20
-11.113769258835092
30
0
10
-13.423171579674777
20
-10.798533440745716
30
0
10
-13.338518094027805
20
-10.378219016627623
30
0
10
-13.23270123697236
20
-9.8528259864812249
30
0
10
-13.148047751329209
20
-9.4325115623646525
30
0
10
-13.084557637097006
20
-9.1172757442774177
30
0
10
-13.042230894275546
20
-8.9071185322193234
30
0
10
-13.021067522864829
20
-8.8020399261902966
30
0
0
LINE
5
136
100
AcDbEntity
8
0
100
AcDbLine
10
49.986552703049192
20
50.983572741456712
30
0
11
46.774519376119976
21
50.983572741457778
31
0
0
ARC
5
137
100
AcDbEntity
8
0
100
AcDbCircle
10
0.00011596381489342722
20
-18.031222919884069
30
0
40
3.2499999999999969
210
0
220
0
230
1
100
AcDbArc
50
126.03224755758113
51
233.96848941263985
0
LWPOLYLINE
5
138
100
AcDbEntity
8
0
100
AcDbPolyline
90
11
70
1
43
0.0
10
-19.942981083904709
20
2.627785238732312
42
0.23993164795342933
10
-19.53120608471049
20
3.4364698260735804
10
-19.531033501829697
20
16.995329196890864
42
0.19891386906760772
10
-19.823921805982035
20
17.702443791884914
10
-21.239548969441195
20
19.118090633519454
42
0.6681788256020299
10
-22.946660665187121
20
18.410995198225599
10
-22.946762994969568
20
2.499729084555216
42
0.41421356237308787
10
-21.946769426268681
20
1.4997226532974732
10
-21.468145044112244
20
1.4997195751308103
10
-21.468042101373094
20
1.4997195744687568
42
0.23991791563207968
10
-20.659380178672208
20
1.9114370775196936
42
-0.078410311673628677
0
LWPOLYLINE
5
139
100
AcDbEntity
8
0
100
AcDbPolyline
90
4
70
1
43
0.0
10
36.500007606747062
20
-43.49997395834756
10
38.000007606747062
20
-43.499973958347546
42
0.99999999999999989
10
38.000007606747076
20
-41.499973958347567
10
36.50000760674704
20
-41.499973958347567
42
0.99999999999999989
0
ARC
5
140
100
AcDbEntity
8
0
100
AcDbCircle
10
-9.9999356870089766
20
9.9996458200592198
30
0
40
3.2500000000000071
210
0
220
0
230
1
100
AcDbArc
50
314.99973117683305
51
314.99973117683305
0
LWPOLYLINE
5
141
100
AcDbEntity
8
0
100
AcDbPolyline
90
11
70
1
43
0.0
10
22.946779073640169
20
-2.5
42
0.41421356237309148
10
21.946779073640169
20
-1.5000000000000024
10
21.468154691473838
20
-1.4999999999999991
10
21.468051748734688
20
-1.5000000000000009
42
0.23991791563208426
10
20.659392473920427
20
-1.9117227037723921
42
-0.078410311673627553
10
19.942997986202215
20
-2.6280754723322381
42
0.23993164795343028
10
19.531228187892246
20
-3.4367627078964502
10
19.531142805811161
20
-16.99562207954326
42
0.19891386906761382
10
19.824035657608274
20
-17.702734790876466
10
21.239671925457134
20
-19.11837252818929
42
0.66817882560203745
10
22.946779073640165
20
-18.411266113999435
0
LWPOLYLINE
5
142
100
AcDbEntity
8
0
100
AcDbPolyline
90
6
70
1
43
0.0
10
46.033528211908802
20
-48.99997395834756
10
48.000007606747062
20
-48.999973958347553
42
0.41421356237310281
10
49.000007606747069
20
-47.999973958347539
10
49.000007606747062
20
-46.033494563509294
42
0.50337011108931107
10
47.838717284166421
20
-45.172258610169145
42
0.25046591309411148
10
45.172292258568667
20
-47.838683635766898
42
0.50337011108931173
0
ARC
5
143
100
AcDbEntity
8
0
100
AcDbCircle
10
14.594447912813422
20
-2.499999999999996
30
0
40
0.99999999999999656
210
0
220
-0
230
1
100
AcDbArc
50
36.03485498364001
51
90.000000000000099
0
LINE
5
144
100
AcDbEntity
8
0
100
AcDbLine
10
-6.9999999999995568
20
32.499999999996703
30
0
11
-6.9999999999995701
21
32.576690734365734
31
0
0
CIRCLE
5
145
100
AcDbEntity
8
0
100
AcDbCircle
10
-9.9999356870089784
20
-10.000064312577422
30
0
40
1.4500000000000002
210
0
220
0
230
1
0
ARC
5
146
100
AcDbEntity
8
0
100
AcDbCircle
10
-9.9999356870089784
20
-10.000064312577422
30
0
40
3.2500000000000058
210
0
220
-0
230
1
100
AcDbArc
50
45.000268823166884
51
45.000268823166884
0
LINE
5
147
100
AcDbEntity
8
0
100
AcDbLine
10
40.00000760674709
20
-48.999973958347539
30
0
11
40.000007606747054
21
-49.499973958347539
31
0
0
LINE
5
148
100
AcDbEntity
8
0
100
AcDbLine
10
49.500007606747083
20
-39.99997396591602
30
0
11
49.514149752620753
21
-39.999973965916254
31
0
0
LINE
5
149
100
AcDbEntity
8
0
100
AcDbLine
10
23.38627689070735
20
-25.507622610497389
30
0
11
23.386119255518732
21
-25.507464975413896
31
0
0
LWPOLYLINE
5
150
100
AcDbEntity
8
0
100
AcDbPolyline
90
8
70
1
43
0.0
10
24.776910015573662
20
-27.428584717060893
42
-0.22773507729236186
10
25.59406020829913
20
-27.715404455797209
10
35.563419498022157
20
-37.684711626731897
42
-0.72452562829050549
10
34.705105151073731
20
-39.38032200794683
10
7.8246578420142265
20
-35.268466179984152
42
-0.75323987891950939
10
7.5795378546987857
20
-33.36185604386629
10
22.174480664230607
20
-27.061505185929118
42
-0.22773507729236889
10
23.039802317652068
20
-27.096411290265362
42
0.15073029398510379
0
CIRCLE
5
151
100
AcDbEntity
8
0
100
AcDbCircle
10
42.500007606747054
20
-42.499973958347546
30
0
40
2
210
0
220
0
230
1
0
ARC
5
152
100
AcDbEntity
8
0
100
AcDbCircle
10
8.5000000000004281
20
40.499999999996703
30
0
40
2.0000000000000009
210
0
220
0
230
1
100
AcDbArc
50
0
51
180
0
LWPOLYLINE
5
153
100
AcDbEntity
8
0
100
AcDbPolyline
90
4
70
1
43
0.0
10
43.500007606747097
20
-46.999973958347567
42
0.99999999999999989
10
41.500007606747069
20
-46.999973958347567
10
41.50000760674709
20
-48.499973958347553
42
0.99999999999999989
10
43.500007606747104
20
-48.499973958347539
0
LINE
5
154
100
AcDbEntity
8
0
100
AcDbLine
10
-5.3284017018071248
20
3.2067221901728682
30
0
11
-8.6303333945791767
21
6.508699782029538
31
0
0
ARC
5
155
100
AcDbEntity
8
0
100
AcDbCircle
10
-9.9999999999999982
20
-10.000000000000002
30
0
40
3.2500000000000022
210
0
220
0
230
-1
100
AcDbArc
50
81.031786448529019
51
158.36891924248943
0
ARC
5
156
100
AcDbEntity
8
0
100
AcDbCircle
10
46.774519376131423
20
-57.983991233984682
30
0
40
7.000000000008697
210
0
220
0
230
1
100
AcDbArc
50
90.000000000093578
51
116.7403866965236
0
LINE
5
157
100
AcDbEntity
8
0
100
AcDbLine
10
-6.0355198288522036
20
1.4996203236212606
30
0
11
-14.594438265593965
21
1.4996753684087236
31
0
0
ARC
5
158
100
AcDbEntity
8
0
100
AcDbCircle
10
60.986552703018802
20
-47.430418334529769
30
0
40
10.000000000365773
210
0
220
0
230
1
100
AcDbArc
50
156.76922458141945
51
180
0
LINE
5
159
100
AcDbEntity
8
0
100
AcDbLine
10
-50.986231240620661
20
-49.984319141813629
30
0
11
-50.986247663372609
21
-47.430746242252162
31
0
0
ARC
5
160
100
AcDbEntity
8
0
100
AcDbCircle
10
-18.031249831549204
20
-0.00048103749756112449
30
0
40
3.2500000000000067
210
0
220
-0
230
1
100
AcDbArc
50
36.034486498529503
51
53.967391642681761
0
ARC
5
161
100
AcDbEntity
8
0
100
AcDbCircle
10
-9.9999356870089766
20
9.9996458200592144
30
0
40
3.2500000000000018
210
0
220
0
230
1
100
AcDbArc
50
314.99973117683311
51
314.99973117683311
0
ARC
5
162
100
AcDbEntity
8
0
100
AcDbCircle
10
49.500007607087753
20
-42.499973963153856
30
0
40
2.49999999723783
210
0
220
0
230
1
100
AcDbArc
50
-23.230775322501596
51
90.000000007807571
0
ARC
5
163
100
AcDbEntity
8
0
100
AcDbCircle
10
35.500007606747047
20
-42.499973958347546
30
0
40
2.4999999999999849
210
0
220
0
230
1
100
AcDbArc
50
196.93126965606044
51
270
0
LWPOLYLINE
5
164
100
AcDbEntity
8
0
100
AcDbPolyline
90
4
70
1
43
0.0
10
43.500007606747104
20
48.49955546582936
10
43.500007606747097
20
46.999555465829381
42
-0.99999999999999989
10
41.500007606747047
20
46.999555465829332
10
41.500007606747076
20
48.49955546582936
42
-0.99999999999999989
0
LWPOLYLINE
5
165
100
AcDbEntity
8
0
100
AcDbPolyline
90
4
70
1
43
0.0
10
38.000007606747076
20
41.499555465829367
10
36.500007606747062
20
41.499555465829367
42
-0.99999999999999989
10
36.500007606747062
20
43.49955546582936
10
38.000007606747062
20
43.49955546582936
42
-0.99999999999999989
0
ARC
5
166
100
AcDbEntity
8
0
100
AcDbCircle
10
-15.031031505294209
20
-17.152575534307054
30
0
40
1.4999999999999969
210
0
220
0
230
1
100
AcDbArc
50
-179.999270715367
51
0.0007292846329820476
0
LWPOLYLINE
5
167
100
AcDbEntity
8
0
100
AcDbPolyline
90
4
70
1
43
0.0
10
48.500007606749591
20
43.499549791790322
42
-1.000001810339413
10
48.500007606831204
20
41.499549730396971
10
47.000007606853124
20
41.49954984876782
42
-0.99995071900047094
10
47.000007606602317
20
43.499549906152886
0
ARC
5
168
100
AcDbEntity
8
0
100
AcDbCircle
10
49.500007265814936
20
-39.00007397588378
30
0
40
0.99999999999998757
210
0
220
0
230
1
100
AcDbArc
50
180
51
270.81033181972583
0
LINE
5
169
100
AcDbEntity
8
0
100
AcDbLine
10
-16.531031505172699
20
17.1521761344159
30
0
11
-16.531066414568734
21
14.409542627553728
31
0
0
CIRCLE
5
170
100
AcDbEntity
8
0
100
AcDbCircle
10
-9.9999356870089766
20
9.9996458200592198
30
0
40
1.4500000000000002
210
0
220
0
230
1
0
ARC
5
171
100
AcDbEntity
8
0
100
AcDbCircle
10
-9.3374450903458239
20
5.801597915457255
30
0
40
0.99999999999999767
210
0
220
-0
230
1
100
AcDbArc
50
44.999601777717267
51
98.967845066360283
0
SPLINE
5
172
100
AcDbEntity
8
0
100
AcDbSpline
70
4
71
5
72
16
73
10
74
0
42
0.000000001
43
0.0000000001
44
0.0000000001
40
0
40
0
40
0
40
0
40
0
40
0
40
0.20000000000000001
40
0.40000000000000002
40
0.60000000000000009
40
0.80000000000000004
40
1
40
1
40
1
40
1
40
1
40
1
41
1
41
1
41
1
41
1
41
1
41
1
41
1
41
1
41
1
41
1
10
-13.550151808151893
20
11.428586584406975
30
0
10
-13.528988436738524
20
11.323507978376879
30
0
10
-13.486661693912321
20
11.113350766316895
30
0
10
-13.423171579674777
20
10.798114948227512
30
0
10
-13.338518094027805
20
10.37780052410942
30
0
10
-13.23270123697236
20
9.8524074939630246
30
0
10
-13.148047751329209
20
9.4320930698464505
30
0
10
-13.084557637097006
20
9.1168572517592157
30
0
10
-13.042230894275546
20
8.9067000397011213
30
0
10
-13.021067522864829
20
8.8016214336720964
30
0
0
ARC
5
173
100
AcDbEntity
8
0
100
AcDbCircle
10
49.500007607087753
20
42.499555470635656
30
0
40
2.4999999972378184
210
0
220
0
230
1
100
AcDbArc
50
-90.000000007807571
51
23.230775322501508
0
LWPOLYLINE
5
174
100
AcDbEntity
8
0
100
AcDbPolyline
90
4
70
1
43
0.0
10
48.500007606831232
20
-41.499968222915136
10
47.000007606852058
20
-41.499968341286035
42
0.99995071900047094
10
47.00000760660344
20
-43.499968398671101
10
48.500007606841606
20
-43.499968284308544
42
1.0000018102934172
0
ARC
5
175
100
AcDbEntity
8
0
100
AcDbCircle
10
9.9999356870089766
20
-10.000064312577422
30
0
40
3.2500000000000013
210
0
220
0
230
-1
100
AcDbArc
50
171.03160321149167
51
278.9676036587955
0
LINE
5
176
100
AcDbEntity
8
0
100
AcDbLine
10
16.531141817942533
20
-17.1524883108975
30
0
11
16.531159088698875
21
-14.409854803883198
31
0
0
LINE
5
177
100
AcDbEntity
8
0
100
AcDbLine
10
10.500000000000432
20
39.876786444475457
30
0
11
10.50000000000043
21
40.499999999996703
31
0
0
ARC
5
178
100
AcDbEntity
8
0
100
AcDbCircle
10
31.195061058987093
20
-43.810483485565548
30
0
40
1.9999999999999609
210
0
220
-0
230
1
100
AcDbArc
50
16.931269656059804
51
64.046624297636072
0
LINE
5
179
100
AcDbEntity
8
0
100
AcDbLine
10
6.0355294758946521
20
-1.4999999999999989
30
0
11
14.59444791281342
21
-1.4999999999999996
31
0
0
LINE
5
180
100
AcDbEntity
8
0
100
AcDbLine
10
40.000007606747083
20
48.99955546582936
30
0
11
40.000007606747054
21
49.499555465829353
31
0
0
LINE
5
181
100
AcDbEntity
8
0
100
AcDbLine
10
-5.3284017018071248
20
-3.2071406826910698
30
0
11
-8.6303333945791731
21
-6.5091182745477392
31
0
0
ARC
5
182
100
AcDbEntity
8
0
100
AcDbCircle
10
49.500007265814936
20
38.999655483365601
30
0
40
0.99999999999999423
210
0
220
-0
230
1
100
AcDbArc
50
89.189668180274154
51
180
0
ARC
5
183
100
AcDbEntity
8
0
100
AcDbCircle
10
-2.4998619322682778
20
21.467752276707724
30
0
40
1.0000000000000142
210
0
220
0
230
1
100
AcDbArc
50
306.03151058736029
51
359.99963151580448
0
LINE
5
184
100
AcDbEntity
8
0
100
AcDbLine
10
50.986552702639344
20
-49.983991234147069
30
0
11
50.986552702653029
21
-47.430418334529769
31
0
0
ARC
5
185
100
AcDbEntity
8
0
100
AcDbCircle
10
-6.0355133975737818
20
2.4996203236005829
30
0
40
1.0000000000000031
210
0
220
0
230
1
100
AcDbArc
50
-90.000368485110442
51
44.999601777716954
0
ARC
5
186
100
AcDbEntity
8
0
100
AcDbCircle
10
49.98655270281148
20
-49.983991234147069
30
0
40
0.99999999982785859
210
0
220
0
230
1
100
AcDbArc
50
-89.999999986380089
51
0
0
ARC
5
187
100
AcDbEntity
8
0
100
AcDbCircle
10
-0.00011596381489176188
20
18.030804427365858
30
0
40
3.2499999999999973
210
-0
220
0
230
-1
100
AcDbArc
50
-53.967752442418785
51
53.968489412639912
0
ARC
5
188
100
AcDbEntity
8
0
100
AcDbCircle
10
10
20
-10
30
0
40
3.25
210
0
220
0
230
1
100
AcDbArc
50
135.00009966194364
51
135.00009966194364
0
LINE
5
189
100
AcDbEntity
8
0
100
AcDbLine
10
-24.442925474858292
20
1.3906670067051061
30
0
11
-24.446770125722161
21
1.3906768816584145
31
0
0
ARC
5
190
100
AcDbEntity
8
0
100
AcDbCircle
10
-2.4999999999999947
20
-14.594291149040091
30
0
40
0.99999999999999079
210
-0
220
0
230
-1
100
AcDbArc
50
-53.968120927529945
51
0
0
ARC
5
191
100
AcDbEntity
8
0
100
AcDbCircle
10
-10
20
-10.000000000000004
30
0
40
3.2500000000000058
210
0
220
0
230
-1
100
AcDbArc
50
-98.967972143906024
51
8.9680283033977446
0
LINE
5
192
100
AcDbEntity
8
0
100
AcDbLine
10
-48.499994130658557
20
-1.7186249706213041
30
0
11
-48.499756444477704
21
-39.000385892143434
31
0
0
LINE
5
193
100
AcDbEntity
8
0
100
AcDbLine
10
13.531176359514706
20
-11.66720240541758
30
0
11
13.531141818002013
21
-17.152469419488725
31
0
0
ARC
5
194
100
AcDbEntity
8
0
100
AcDbCircle
10
9.337482404535649
20
-5.8019563561463379
30
0
40
0.99999999999999845
210
0
220
0
230
1
100
AcDbArc
50
224.99997026282745
51
278.96821355147108
0
ARC
5
195
100
AcDbEntity
8
0
100
AcDbCircle
10
42.500007606747054
20
-49.499973958347539
30
0
40
2.5
210
0
220
0
230
1
100
AcDbArc
50
180
51
296.74038669640072
0
ARC
5
196
100
AcDbEntity
8
0
100
AcDbCircle
10
60.986552703018802
20
47.429999842011547
30
0
40
10.00000000036577
210
0
220
0
230
1
100
AcDbArc
50
180
51
203.23077541858046
0
ARC
5
197
100
AcDbEntity
8
0
100
AcDbCircle
10
-15.031101324086279
20
11.666890028053295
30
0
40
1.4999999999999967
210
0
220
0
230
1
100
AcDbArc
50
350.85874713789786
51
359.99927071586683
0
ARC
5
198
100
AcDbEntity
8
0
100
AcDbCircle
10
-47.499994130678978
20
1.7182001027019311
30
0
40
0.99999999999988232
210
0
220
0
230
1
100
AcDbArc
50
179.9996347165598
51
215.58907077901722
0
ARC
5
199
100
AcDbEntity
8
0
100
AcDbCircle
10
-14.594431834315548
20
2.4996753683880391
30
0
40
0.99999999999999134
210
0
220
0
230
1
100
AcDbArc
50
216.03448649852956
51
269.99963151488987
0
LINE
5
200
100
AcDbEntity
8
0
100
AcDbLine
10
-48.313205917407664
20
1.136232242828805
30
0
11
-47.889246978316258
21
0.54381394943143269
31
0
0
ARC
5
201
100
AcDbEntity
8
0
100
AcDbCircle
10
10.000000000000004
20
-10.000000000000004
30
0
40
3.2500000000000067
210
0
220
0
230
1
100
AcDbArc
50
135.00009966194364
51
135.00009966194364
0
CIRCLE
5
202
100
AcDbEntity
8
0
100
AcDbCircle
10
0.00011596381489514068
20
18.030804427365862
30
0
40
1
210
0
220
0
230
1
0
ARC
5
203
100
AcDbEntity
8
0
100
AcDbCircle
10
18.031249830774058
20
-0.00059700148552898485
30
0
40
3.2499999999999996
210
0
220
0
230
1
100
AcDbArc
50
126.03223987220782
51
143.96514501636011
0
ARC
5
204
100
AcDbEntity
8
0
100
AcDbCircle
10
15.531228187971555
20
-3.4367375193230214
30
0
40
0.99999999999999933
210
0
220
0
230
1
100
AcDbArc
50
-0.00036079993458915615
51
53.967760127792104
0
CIRCLE
5
205
100
AcDbEntity
8
0
100
AcDbCircle
10
-18.031249831549204
20
-0.00048103749756112449
30
0
40
1
210
0
220
0
230
1
0
ARC
5
206
100
AcDbEntity
8
0
100
AcDbCircle
10
15.031141817972278
20
17.152060372685543
30
0
40
1.4999999999999989
210
0
220
-0
230
1
100
AcDbArc
50
0.00036079892443059046
51
180.00036079892442
0
ARC
5
207
100
AcDbEntity
8
0
100
AcDbCircle
10
0.00025728151862880412
20
-40.004724057734215
30
0
40
3.0000000000002762
210
0
220
0
230
1
100
AcDbArc
50
90.000368485110513
51
115.95374418747173
0
ARC
5
208
100
AcDbEntity
8
0
100
AcDbCircle
10
-48.702458765045009
20
-0.03815391044173902
30
0
40
0.99999999999996847
210
0
220
0
230
1
100
AcDbArc
50
-31.963104809040601
51
35.589070779017227
0
ARC
5
209
100
AcDbEntity
8
0
100
AcDbCircle
10
10
20
9.9995815074817944
30
0
40
3.2499999999999973
210
0
220
0
230
1
100
AcDbArc
50
224.99990033805628
51
224.99990033805628
0
ARC
5
210
100
AcDbEntity
8
0
100
AcDbCircle
10
-15.53120608503451
20
3.4364189123864635
30
0
40
1.0000000000000098
210
0
220
0
230
1
100
AcDbArc
50
179.999270715367
51
233.96739164268135
0
ARC
5
211
100
AcDbEntity
8
0
100
AcDbCircle
10
-9.9999356870089766
20
-10.000064312577416
30
0
40
3.2500000000000027
210
0
220
-0
230
1
100
AcDbArc
50
45.000268823166834
51
45.000268823166834
0
ARC
5
212
100
AcDbEntity
8
0
100
AcDbCircle
10
-2.5000000000000053
20
-21.468154691473849
30
0
40
1.0000000000000071
210
0
220
0
230
-1
100
AcDbArc
50
0
51
53.968120927529725
0
CIRCLE
5
213
100
AcDbEntity
8
0
100
AcDbCircle
10
0
20
-18.031222920256962
30
0
40
1
210
0
220
0
230
1
0
LINE
5
214
100
AcDbEntity
8
0
100
AcDbLine
10
16.531159088698875
20
14.409436311364994
30
0
11
16.531228187951733
21
3.4363253239516189
31
0
0
ARC
5
215
100
AcDbEntity
8
0
100
AcDbCircle
10
10.000000000000004
20
9.9995815074818051
30
0
40
3.2500000000000058
210
0
220
0
230
1
100
AcDbArc
50
224.99990033805639
51
224.99990033805639
0
ARC
5
216
100
AcDbEntity
8
0
100
AcDbCircle
10
15.031176359484961
20
11.666793358614401
30
0
40
1.4999999999999944
210
0
220
0
230
1
100
AcDbArc
50
180.00036079892442
51
189.14088437699181
0
LINE
5
217
100
AcDbEntity
8
0
100
AcDbLine
10
-13.531101324207793
20
11.666870935439334
30
0
11
-13.531031505415713
21
17.152137949161812
31
0
0
CIRCLE
5
218
100
AcDbEntity
8
0
100
AcDbCircle
10
18.031249830774058
20
-0.00059700148552898485
30
0
40
1
210
0
220
0
230
1
0
LINE
5
219
100
AcDbEntity
8
0
100
AcDbLine
10
32.070340279618193
20
-42.012182541359813
30
0
11
1.3129188309466766
21
-37.30727264225257
31
0
0
ARC
5
220
100
AcDbEntity
8
0
100
AcDbCircle
10
48.70245852135082
20
0.03804863699492636
30
0
40
0.9999999999999748
210
0
220
0
230
1
100
AcDbArc
50
148.03726367607018
51
215.58943926412704
0
ARC
5
221
100
AcDbEntity
8
0
100
AcDbCircle
10
46.774519376131423
20
57.983572741466475
30
0
40
7.0000000000087006
210
0
220
0
230
1
100
AcDbArc
50
243.25961330347641
51
269.99999999990632
0
LINE
5
222
100
AcDbEntity
8
0
100
AcDbLine
10
16.531141817942537
20
17.152069818379299
30
0
11
16.531159088698875
21
14.409436311364994
31
0
0
LINE
5
223
100
AcDbEntity
8
0
100
AcDbLine
10
5.3284223277115963
20
3.2066879216716515
30
0
11
8.6303752563525986
21
6.5086442778179876
31
0
0
LWPOLYLINE
5
224
100
AcDbEntity
8
0
100
AcDbPolyline
90
4
70
1
43
0.0
10
-36.499740708105158
20
41.499790206682476
42
0.99999999999999989
10
-36.499727845548357
20
43.499790206641094
10
-37.999727845517313
20
43.49979985355872
42
0.99999999999999989
10
-37.999740708074171
20
41.499799853600095
0
ARC
5
225
100
AcDbEntity
8
0
100
AcDbCircle
10
0.00025728151862880412
20
40.004305565216008
30
0
40
3.0000000000002798
210
0
220
0
230
1
100
AcDbArc
50
244.04625581252813
51
269.99963151488964
0
LWPOLYLINE
5
226
100
AcDbEntity
8
0
100
AcDbPolyline
90
12
70
1
43
0.0
10
39.318025955793388
20
-37.196673527747336
42
0.23606799941837736
10
41.863610392781894
20
-38.045199614177569
10
44.500014682248363
20
-38.045199260346479
42
0.41421356237413559
10
45.500014548035963
20
-37.045199126130427
10
45.500010945903149
20
-2.3973497618251343
42
0.41421353192271865
10
44.500010945903156
20
-1.3973498657892427
10
26.949341473923809
20
-1.397349865789244
42
0.41496417132808477
10
25.946779422135897
20
-2.3973465881503597
10
25.946779498006201
20
-19.573407091368164
42
0.24153136156376478
10
26.780112841614617
20
-21.197872814048463
42
-0.28499577032468359
10
28.394037033609656
20
-25.094228551391716
42
0.24153136044264945
10
28.953452708162093
20
-26.832154735458449
0
ARC
5
227
100
AcDbEntity
8
0
100
AcDbCircle
10
-15.031101324086279
20
-11.667308520571499
30
0
40
1.4999999999999969
210
0
220
-0
230
1
100
AcDbArc
50
0.0007292846329820476
51
9.1412528621022329
0
ARC
5
228
100
AcDbEntity
8
0
100
AcDbCircle
10
-6.0355133975737818
20
-2.5000388161187854
30
0
40
1.0000000000000029
210
0
220
0
230
1
100
AcDbArc
50
-44.99960177771694
51
90.000368485110386
0
ARC
5
229
100
AcDbEntity
8
0
100
AcDbCircle
10
-49.499756444457006
20
-39.000392323405883
30
0
40
0.99999999999998757
210
0
220
0
230
1
100
AcDbArc
50
-90.809963334614594
51
0.00036848419549152881
0
LWPOLYLINE
5
230
100
AcDbEntity
8
0
100
AcDbPolyline
90
6
70
1
43
0.0
10
-45.171984593740646
20
-47.838974150366056
42
0.25046591309410926
10
-47.838426767805025
20
-45.172566273345183
42
0.50337011108930951
10
-48.999711551513442
20
-46.033809695248891
10
-48.999698904536899
20
-48.000289090046493
42
0.41421356237308982
10
-47.99969247327919
20
-49.000282658747388
10
-46.033213078481616
20
-49.000270011770937
42
0.50337011108930252
0
CIRCLE
5
231
100
AcDbEntity
8
0
100
AcDbCircle
10
0.00017740308777613808
20
-0.00020924625910098346
30
0
40
1.5000000000000002
210
0
220
0
230
1
0
ARC
5
232
100
AcDbEntity
8
0
100
AcDbCircle
10
-9.3374450903458239
20
-5.8020164079754561
30
0
40
0.99999999999999889
210
0
220
0
230
1
100
AcDbArc
50
261.03215493363916
51
315.00039822228291
0
ARC
5
233
100
AcDbEntity
8
0
100
AcDbCircle
10
47.500005182611332
20
1.7178946169790756
30
0
40
0.99999999999988187
210
0
220
0
230
1
100
AcDbArc
50
324.41056073587157
51
359.99999680547148
0
LWPOLYLINE
5
234
100
AcDbEntity
8
0
100
AcDbPolyline
90
4
70
1
43
0.0
10
-43.49970533592915
20
46.999835225517685
42
0.99999999999999989
10
-41.499705335970475
20
46.999822362960799
10
-41.499695689052849
20
48.49982236292977
42
0.99999999999999989
10
-43.49969568901151
20
48.499835225486621
0
LINE
5
235
100
AcDbEntity
8
0
100
AcDbLine
10
7.0000000000004325
20
32.576690734365734
30
0
11
7.0000000000004237
21
32.499999999996689
31
0
0
LINE
5
236
100
AcDbEntity
8
0
100
AcDbLine
10
-6.4999999999995648
20
39.817708584514179
30
0
11
-6.4999999999995683
21
40.499999999996696
31
0
0
ARC
5
237
100
AcDbEntity
8
0
100
AcDbCircle
10
2.4998619322682867
20
-21.468170769225928
30
0
40
1.000000000000016
210
0
220
0
230
-1
100
AcDbArc
50
126.0315105873608
51
179.99963151580454
0
ARC
5
238
100
AcDbEntity
8
0
100
AcDbCircle
10
31.195061058987093
20
43.810064993047362
30
0
40
1.999999999999964
210
0
220
0
230
1
100
AcDbArc
50
295.95337570236387
51
343.06873034394027
0
ARC
5
239
100
AcDbEntity
8
0
100
AcDbCircle
10
-31.19477930092485
20
43.810265616264388
30
0
40
1.9999999999999467
210
0
220
0
230
1
100
AcDbArc
50
196.93090117094908
51
244.04625581252552
0
LINE
5
240
100
AcDbEntity
8
0
100
AcDbLine
10
-39.999692473444661
20
-49.000231208520013
30
0
11
-39.999689257805414
21
-49.500231208509646
31
0
0
SPLINE
5
241
100
AcDbEntity
8
0
100
AcDbSpline
70
4
71
5
72
16
73
10
74
0
42
0.000000001
43
0.0000000001
44
0.0000000001
40
0
40
0
40
0
40
0
40
0
40
0
40
0.20000000000000001
40
0.40000000000000002
40
0.60000000000000009
40
0.80000000000000004
40
1
40
1
40
1
40
1
40
1
40
1
41
1
41
1
41
1
41
1
41
1
41
1
41
1
41
1
41
1
41
1
10
13.550225310985409
20
-11.428917931889872
30
0
10
13.529061263782706
20
-11.32383946196949
30
0
10
13.486733169377835
20
-11.113682522128912
30
0
10
13.423241027772288
20
-10.798447112368656
30
0
10
13.338584838967975
20
-10.37813323268939
30
0
10
13.232764602965865
20
-9.8527408830915277
30
0
10
13.148108414165376
20
-9.43242700341378
30
0
10
13.084616272565173
20
-9.1171915936556669
30
0
10
13.042288178165045
20
-8.9070346538169893
30
0
10
13.021124130964994
20
-8.8019561838976674
30
0
0
LINE
5
242
100
AcDbEntity
8
0
100
AcDbLine
10
-49.986224809772757
20
50.983894217840138
30
0
11
-46.77419148291002
21
50.983873560360571
31
0
0
ARC
5
243
100
AcDbEntity
8
0
100
AcDbCircle
10
4.5000000000004352
20
39.817640470611096
30
0
40
1.9999999999999925
210
0
220
0
230
1
100
AcDbArc
50
-81.302979626910314
51
0
0
LINE
5
244
100
AcDbEntity
8
0
100
AcDbLine
10
-4.8024315428732924
20
37.840707026124527
30
0
11
-1.3126788974619901
21
37.306862592709372
31
0
0
LINE
5
245
100
AcDbEntity
8
0
100
AcDbLine
10
-1.4998619322889428
20
21.467745845429302
30
0
11
-1.4997993581736033
21
31.197400080507144
31
0
0
ARC
5
246
100
AcDbEntity
8
0
100
AcDbCircle
10
-1.6653345369377348e-15
20
-18.031222920256965
30
0
40
3.2499999999999996
210
0
220
0
230
1
100
AcDbArc
50
-53.968120927529284
51
53.968120927529284
0
LINE
5
247
100
AcDbEntity
8
0
100
AcDbLine
10
32.070340279618193
20
42.01176404884162
30
0
11
11.651209414110436
21
38.88828469279035
31
0
0
LINE
5
248
100
AcDbEntity
8
0
100
AcDbLine
10
-16.531066414568734
20
-14.40996112007193
30
0
11
-16.531206084953507
21
-3.4368501333226935
31
0
0
LINE
5
249
100
AcDbEntity
8
0
100
AcDbLine
10
48.500005182611226
20
-1.7183130536200264
30
0
11
48.500007265814951
21
-39.00007397588378
31
0
0
LINE
5
250
100
AcDbEntity
8
0
100
AcDbLine
10
1.5000000000000013
20
31.197390434234705
30
0
11
1.5000000000000009
21
21.467736198955649
31
0
0
LINE
5
251
100
AcDbEntity
8
0
100
AcDbLine
10
35.500007606747047
20
44.999555465829353
30
0
11
36.000007606747076
21
44.999555465829353
31
0
0
ARC
5
252
100
AcDbEntity
8
0
100
AcDbCircle
10
-35.499734276847441
20
42.499783775383328
30
0
40
2.5000000000000187
210
0
220
-0
230
1
100
AcDbArc
50
16.930901170950015
51
89.999631514889558
0
LINE
5
253
100
AcDbEntity
8
0
100
AcDbLine
10
48.313213226525853
20
-1.1363400196447613
30
0
11
47.889250477436214
21
-0.5439244528576227
31
0
0
LINE
5
254
100
AcDbEntity
8
0
100
AcDbLine
10
48.500005182611218
20
1.7178945612240351
30
0
11
48.500007265814943
21
38.999655483365601
31
0
0
LINE
5
255
100
AcDbEntity
8
0
100
AcDbLine
10
-32.070070086911912
20
-42.012388793778399
30
0
11
-1.3126788974619832
21
-37.307281085227572
31
0
0
ARC
5
256
100
AcDbEntity
8
0
100
AcDbCircle
10
47.500005182611332
20
-1.7183131094972781
30
0
40
0.99999999999989142
210
0
220
-0
230
1
100
AcDbArc
50
3.1945284701301985e-06
51
35.589439264128423
0
ARC
5
257
100
AcDbEntity
8
0
100
AcDbCircle
10
36.000007606747076
20
48.99955546582936
30
0
40
4.0000000000000036
210
0
220
0
230
1
100
AcDbArc
50
-90
51
0
0
LINE
5
258
100
AcDbEntity
8
0
100
AcDbLine
10
-48.499994130658536
20
1.7182064781006654
30
0
11
-48.499756444477704
21
38.999967399625234
31
0
0
ARC
5
259
100
AcDbEntity
8
0
100
AcDbCircle
10
-31.19477930092485
20
-43.810684108782603
30
0
40
1.9999999999999791
210
0
220
0
230
1
100
AcDbArc
50
115.95374418747421
51
163.06909882905049
0
LINE
5
260
100
AcDbEntity
8
0
100
AcDbLine
10
4.8024188282204356
20
37.840636967240904
30
0
11
1.3129188309466784
21
37.306854149734356
31
0
0
ARC
5
261
100
AcDbEntity
8
0
100
AcDbCircle
10
-60.986247663531579
20
47.430392062531112
30
0
40
10.000000000365752
210
0
220
0
230
1
100
AcDbArc
50
336.76885609630887
51
359.99963151481541
0
LWPOLYLINE
5
262
100
AcDbEntity
8
0
100
AcDbPolyline
90
6
70
1
43
0.0
10
-48.999698904536906
20
47.999870597528293
10
-48.999711551513428
20
46.033391202730691
42
0.50337011108929763
10
-47.838426767805011
20
45.172147780826975
42
0.25046591309410976
10
-45.171984593740703
20
47.838555657847849
42
0.50337011108930285
10
-46.033213078481616
20
48.999851519252722
10
-47.99969247327919
20
48.999864166229202
42
0.41421356237307683
0
ARC
5
263
100
AcDbEntity
8
0
100
AcDbCircle
10
-42.49968925775373
20
49.499828794187543
30
0
40
2.5000000000000182
210
0
220
0
230
1
100
AcDbArc
50
-0.00036848518458862227
51
116.74001821129038
0
ARC
5
264
100
AcDbEntity
8
0
100
AcDbCircle
10
-4.4999999999995719
20
39.817708584514158
30
0
40
1.9999999999999929
210
0
220
0
230
1
100
AcDbArc
50
180
51
261.30261114179984
0
ARC
5
265
100
AcDbEntity
8
0
100
AcDbCircle
10
-46.774146463972464
20
57.983873560224509
30
0
40
7.0000000000086979
210
0
220
0
230
1
100
AcDbArc
50
269.99963151498281
51
296.74001821141326
0
ARC
5
266
100
AcDbEntity
8
0
100
AcDbCircle
10
-35.999692473527375
20
48.999786990888126
30
0
40
4.0000000000000142
210
0
220
0
230
1
100
AcDbArc
50
179.99963151580454
51
269.99963151488964
0
CIRCLE
5
267
100
AcDbEntity
8
0
100
AcDbCircle
10
-42.499734276702689
20
-42.500247286850488
30
0
40
2
210
0
220
0
230
1
0
ARC
5
268
100
AcDbEntity
8
0
100
AcDbCircle
10
-48.702458765045009
20
0.037735417923537053
30
0
40
0.99999999999995959
210
0
220
0
230
1
100
AcDbArc
50
-35.589070779017192
51
31.963104809040402
0
CIRCLE
5
269
100
AcDbEntity
8
0
100
AcDbCircle
10
8.5000000000004281
20
40.499999999996703
30
0
40
1.0499999999999998
210
0
220
0
230
1
0
ARC
5
270
100
AcDbEntity
8
0
100
AcDbCircle
10
-35.499734276847441
20
-42.500202267901528
30
0
40
2.5000000000000182
210
0
220
0
230
1
100
AcDbArc
50
270.00036848511076
51
343.06909882905001
0
LINE
5
271
100
AcDbEntity
8
0
100
AcDbLine
10
-10.499999999999565
20
40.499999999996696
30
0
11
-10.499999999999565
21
39.876899635537612
31
0
0
LINE
5
272
100
AcDbEntity
8
0
100
AcDbLine
10
-50.986231240620661
20
49.98390064931138
30
0
11
-50.98624766337263
21
47.430327749733941
31
0
0
LINE
5
273
100
AcDbEntity
8
0
100
AcDbLine
10
-35.499718198651387
20
44.999783775331643
30
0
11
-35.999718198641055
21
44.999786990970833
31
0
0
LINE
5
274
100
AcDbEntity
8
0
100
AcDbLine
10
-35.499718198651372
20
-45.000202267849843
30
0
11
-35.999718198641062
21
-45.000205483489026
31
0
0
ARC
5
275
100
AcDbEntity
8
0
100
AcDbCircle
10
35.500007606747047
20
42.499555465829353
30
0
40
2.5
210
0
220
-0
230
1
100
AcDbArc
50
90
51
163.06873034393936
0
ARC
5
276
100
AcDbEntity
8
0
100
AcDbCircle
10
-49.499734276898579
20
42.499873818087572
30
0
40
2.4999999972378371
210
0
220
0
230
1
100
AcDbArc
50
156.76885619238885
51
269.99963152269686
0
LWPOLYLINE
5
277
100
AcDbEntity
8
0
100
AcDbPolyline
90
4
70
1
43
0.0
10
-48.499727845400514
20
43.499861707943161
42
1.000001810339413
10
-48.499740707916715
20
41.499861646591107
10
-46.999740708027993
20
41.499852118044352
42
0.99995071900047094
10
-46.999727845224434
20
43.499852175388042
0
ARC
5
278
100
AcDbEntity
8
0
100
AcDbCircle
10
-49.499734276898579
20
-42.500292310605772
30
0
40
2.4999999972378171
210
0
220
0
230
1
100
AcDbArc
50
90.000368477302629
51
203.23114380761163
0
LINE
5
279
100
AcDbEntity
8
0
100
AcDbLine
10
-16.531031505172695
20
-17.1525946269341
30
0
11
-16.531066414568734
21
-14.40996112007193
31
0
0
CIRCLE
5
280
100
AcDbEntity
8
0
100
AcDbCircle
10
-8.4999999999995666
20
40.499999999996696
30
0
40
1.0499999999999998
210
0
220
0
230
1
0
ARC
5
281
100
AcDbEntity
8
0
100
AcDbCircle
10
-49.986231240813474
20
-49.98431271055118
30
0
40
0.99999999982787136
210
0
220
0
230
1
100
AcDbArc
50
180.00036848419549
51
270.00036847149102
0
LINE
5
282
100
AcDbEntity
8
0
100
AcDbLine
10
-32.070070086911905
20
42.01197030126022
30
0
11
-11.651215771436426
21
38.888398856342796
31
0
0
CIRCLE
5
283
100
AcDbEntity
8
0
100
AcDbCircle
10
-42.499734276702689
20
42.499828794332288
30
0
40
2
210
0
220
0
230
1
0
ARC
5
284
100
AcDbEntity
8
0
100
AcDbCircle
10
11.500000000000432
20
39.876786444475457
30
0
40
1.0000000000000031
210
0
220
0
230
1
100
AcDbArc
50
180
51
278.69702037308986
0
ARC
5
285
100
AcDbEntity
8
0
100
AcDbCircle
10
-49.499756444457006
20
38.999973830887683
30
0
40
0.99999999999998246
210
0
220
0
230
1
100
AcDbArc
50
-0.00036848419551244963
51
90.809963334614579
0
LINE
5
286
100
AcDbEntity
8
0
100
AcDbLine
10
-24.442925474858292
20
-1.3910854992233079
30
0
11
-24.446770125722161
21
-1.3910953741766163
31
0
0
LINE
5
287
100
AcDbEntity
8
0
100
AcDbLine
10
-49.986224809772757
20
-50.984312710358367
30
0
11
-46.774191482910012
21
-50.984292052878779
31
0
0
LINE
5
288
100
AcDbEntity
8
0
100
AcDbLine
10
-1.4997993581736018
20
-31.197818573025351
30
0
11
-1.499861932288945
21
-21.468164337947506
31
0
0
ARC
5
289
100
AcDbEntity
8
0
100
AcDbCircle
10
-42.49968925775373
20
-49.500247286705729
30
0
40
2.4999999999868154
210
0
220
0
230
1
100
AcDbArc
50
-116.7400182112905
51
0.00036848518458206463
0
LINE
5
290
100
AcDbEntity
8
0
100
AcDbLine
10
-39.999692473444661
20
48.999812715937942
30
0
11
-39.999689257805414
21
49.499812715988256
31
0
0
ARC
5
291
100
AcDbEntity
8
0
100
AcDbCircle
10
-8.4999999999995666
20
40.499999999996696
30
0
40
2.0000000000000009
210
0
220
0
230
1
100
AcDbArc
50
0
51
180
0
ARC
5
292
100
AcDbEntity
8
0
100
AcDbCircle
10
-49.986231240813474
20
49.983894218032958
30
0
40
0.99999999982786092
210
0
220
-0
230
1
100
AcDbArc
50
89.999631528508971
51
179.99963151580454
0
ARC
5
293
100
AcDbEntity
8
0
100
AcDbCircle
10
-35.999692473527375
20
-49.000205483406312
30
0
40
4.0000000000000107
210
0
220
0
230
1
100
AcDbArc
50
90.000368485110442
51
180.00036848419549
0
ARC
5
294
100
AcDbEntity
8
0
100
AcDbCircle
10
-11.499999999999552
20
39.876899635537598
30
0
40
0.9999999999999859
210
0
220
0
230
1
100
AcDbArc
50
-98.697388858201109
51
0
0
ARC
5
295
100
AcDbEntity
8
0
100
AcDbCircle
10
-60.986247663531579
20
-47.430810555049312
30
0
40
10.000000000365771
210
0
220
-0
230
1
100
AcDbArc
50
0.00036848518458206463
51
23.231143903691013
0
LINE
5
296
100
AcDbEntity
8
0
100
AcDbLine
10
-49.499750354753957
20
39.999873820901435
30
0
11
-49.513892500627286
21
39.99987391185374
31
0
0
ARC
5
297
100
AcDbEntity
8
0
100
AcDbCircle
10
36.000007606747076
20
-48.999973958347539
30
0
40
4.0000000000000124
210
0
220
0
230
1
100
AcDbArc
50
0
51
90
0
CIRCLE
5
298
100
AcDbEntity
8
0
100
AcDbCircle
10
42.500007606747054
20
42.499555465829353
30
0
40
2
210
0
220
0
230
1
0
LINE
5
299
100
AcDbEntity
8
0
100
AcDbLine
10
-48.313205917407664
20
-1.1366507353469977
30
0
11
-47.889246978316258
21
-0.54423244194963338
31
0
0
ARC
5
300
100
AcDbEntity
8
0
100
AcDbCircle
10
49.98655270281148
20
49.983572741628855
30
0
40
0.99999999982786747
210
0
220
0
230
1
100
AcDbArc
50
0
51
89.999999986380089
0
CIRCLE
5
301
100
AcDbEntity
8
0
100
AcDbCircle
10
4.2473960856373842e-13
20
-34.75000000000329
30
0
40
1.0499999999999994
210
0
220
0
230
1
0
ARC
5
302
100
AcDbEntity
8
0
100
AcDbCircle
10
9.9999356870089766
20
9.9996458200592127
30
0
40
3.2499999999999996
210
0
220
0
230
-1
100
AcDbArc
50
261.03215493363922
51
338.3692877275999
0
ARC
5
303
100
AcDbEntity
8
0
100
AcDbCircle
10
-47.499994130678978
20
-1.7186185952201327
30
0
40
0.99999999999988765
210
0
220
0
230
1
100
AcDbArc
50
144.41092922098235
51
180.0003652834402
0
LINE
5
304
100
AcDbEntity
8
0
100
AcDbLine
10
49.986552703049192
20
-50.983991233974926
30
0
11
46.77451937611999
21
-50.983991233975985
31
0
0
LINE
5
305
100
AcDbEntity
8
0
100
AcDbLine
10
5.3284223277115963
20
-3.2071064141898531
30
0
11
8.6303752563525968
21
-6.509062770336187
31
0
0
ARC
5
306
100
AcDbEntity
8
0
100
AcDbCircle
10
6.0355294758946529
20
-2.5000000000000009
30
0
40
1.0000000000000022
210
0
220
0
230
1
100
AcDbArc
50
90.000000000000057
51
224.99997026282736
0
ARC
5
307
100
AcDbEntity
8
0
100
AcDbCircle
10
-15.031031505294209
20
17.152157041788854
30
0
40
1.5000000000000013
210
0
220
0
230
1
100
AcDbArc
50
-0.00072928463298546761
51
179.999270715367
0
ARC
5
308
100
AcDbEntity
8
0
100
AcDbCircle
10
0
20
40.004305566043328
30
0
40
3.0000000000002736
210
0
220
0
230
1
100
AcDbArc
50
270
51
295.95337570236137
0
ARC
5
309
100
AcDbEntity
8
0
100
AcDbCircle
10
9.337482404535649
20
5.8015378636281367
30
0
40
0.99999999999999856
210
0
220
-0
230
1
100
AcDbArc
50
81.031786448528678
51
135.00002973717241
0
LINE
5
310
100
AcDbEntity
8
0
100
AcDbLine
10
6.0355294758946521
20
1.4995815074817966
30
0
11
14.594447912813422
21
1.4995815074817973
31
0
0
ARC
5
311
100
AcDbEntity
8
0
100
AcDbCircle
10
15.031176359484961
20
-11.667211851132604
30
0
40
1.4999999999999951
210
0
220
0
230
1
100
AcDbArc
50
170.85911562300808
51
179.99963920107555
0
ARC
5
312
100
AcDbEntity
8
0
100
AcDbCircle
10
0
20
-40.004724058561536
30
0
40
3.0000000000002687
210
0
220
-0
230
1
100
AcDbArc
50
64.046624297638644
51
89.999999999999986
0
ARC
5
313
100
AcDbEntity
8
0
100
AcDbCircle
10
9.9999356870089766
20
9.999645820059218
30
0
40
3.250000000000004
210
0
220
0
230
-1
100
AcDbArc
50
261.03215493363928
51
338.36928772759978
0
ARC
5
314
100
AcDbEntity
8
0
100
AcDbCircle
10
42.500007606747054
20
49.499555465829353
30
0
40
2.4999999999868145
210
0
220
-0
230
1
100
AcDbArc
50
63.259613303599096
51
180
0
ARC
5
315
100
AcDbEntity
8
0
100
AcDbCircle
10
-2.4999061399985392
20
-14.594307226934324
30
0
40
0.999999999999997
210
0
220
0
230
1
100
AcDbArc
50
-53.967752442419446
51
0.00036848419549152881
0
LINE
5
316
100
AcDbEntity
8
0
100
AcDbLine
10
-16.531066414568734
20
14.409542627553728
30
0
11
-16.531206084953514
21
3.4364316408044933
31
0
0
LINE
5
317
100
AcDbEntity
8
0
100
AcDbLine
10
35.500007606747047
20
-44.999973958347532
30
0
11
36.000007606747076
21
-44.999973958347532
31
0
0
LINE
5
318
100
AcDbEntity
8
0
100
AcDbLine
10
1.4999999999999996
20
-31.197808926752906
30
0
11
1.4999999999999989
21
-21.468154691473849
31
0
0
ARC
5
319
100
AcDbEntity
8
0
100
AcDbCircle
10
-10.000000000000004
20
-9.9999999999999982
30
0
40
3.25
210
0
220
0
230
-1
100
AcDbArc
50
81.031786448528919
51
158.36891924248945
0
ARC
5
320
100
AcDbEntity
8
0
100
AcDbCircle
10
-9.9999999999999982
20
9.9995815074817997
30
0
40
3.2500000000000058
210
0
220
0
230
-1
100
AcDbArc
50
201.63108075751066
51
278.96821355147091
0
ARC
5
321
100
AcDbEntity
8
0
100
AcDbCircle
10
-9.9999356870089766
20
9.9996458200592198
30
0
40
3.2500000000000022
210
0
220
0
230
1
100
AcDbArc
50
-8.9683967885082261
51
98.967603658795468
0
ARC
5
322
100
AcDbEntity
8
0
100
AcDbCircle
10
15.031141817972278
20
-17.152478865203747
30
0
40
1.5000000000000036
210
0
220
0
230
1
100
AcDbArc
50
179.99963920006542
51
359.99963920107558
0
ARC
5
323
100
AcDbEntity
8
0
100
AcDbCircle
10
48.70245852135082
20
-0.038467129513128327
30
0
40
0.99999999999998412
210
0
220
0
230
1
100
AcDbArc
50
144.41056073587296
51
211.96273632392973
0
ARC
5
324
100
AcDbEntity
8
0
100
AcDbCircle
10
2.7755575615628914e-15
20
18.030804427738762
30
0
40
3.2499999999999973
210
0
220
0
230
1
100
AcDbArc
50
-53.968120927529327
51
53.968120927529426
0
ARC
5
325
100
AcDbEntity
8
0
100
AcDbCircle
10
6.0355294758946529
20
2.4995815074817989
30
0
40
1.000000000000004
210
0
220
0
230
1
100
AcDbArc
50
135.00002973717258
51
269.99999999999994
0
CIRCLE
5
326
100
AcDbEntity
8
0
100
AcDbCircle
10
0
20
18.030804427738762
30
0
40
1
210
0
220
0
230
1
0
ARC
5
327
100
AcDbEntity
8
0
100
AcDbCircle
10
-2.4999061399985281
20
14.593888734416129
30
0
40
0.99999999999998246
210
0
220
0
230
1
100
AcDbArc
50
-0.00036848419551244963
51
53.967752442419766
0
LINE
5
328
100
AcDbEntity
8
0
100
AcDbLine
10
16.531159088698875
20
-14.409854803883198
30
0
11
16.531228187951726
21
-3.436743816469821
31
0
0
CIRCLE
5
329
100
AcDbEntity
8
0
100
AcDbCircle
10
-18.031249831549204
20
6.2544979359157671e-05
30
0
40
1
210
0
220
0
230
1
0
ARC
5
330
100
AcDbEntity
8
0
100
AcDbCircle
10
2.499999999999996
20
14.593872656521889
30
0
40
0.99999999999999212
210
0
220
0
230
1
100
AcDbArc
50
126.03187907247015
51
180
0
CIRCLE
5
331
100
AcDbEntity
8
0
100
AcDbCircle
10
0.00011596381489514068
20
-18.031222919884065
30
0
40
1
210
0
220
0
230
1
0
LINE
5
332
100
AcDbEntity
8
0
100
AcDbLine
10
13.531176359514706
20
11.666783912920648
30
0
11
13.53114181800202
21
17.152050926991794
31
0
0
ARC
5
333
100
AcDbEntity
8
0
100
AcDbCircle
10
14.594447912813422
20
2.4995815074817926
30
0
40
0.99999999999999589
210
0
220
0
230
1
100
AcDbArc
50
270
51
323.96514501635983
0
ARC
5
334
100
AcDbEntity
8
0
100
AcDbCircle
10
15.531228187971555
20
3.4363190268048198
30
0
40
1.0000000000000033
210
0
220
0
230
1
100
AcDbArc
50
-53.967760127792047
51
0.00036079993458939261
0
ARC
5
335
100
AcDbEntity
8
0
100
AcDbCircle
10
2.5000000000000089
20
21.467736198955642
30
0
40
1.0000000000000098
210
0
220
0
230
1
100
AcDbArc
50
180
51
233.96812092752918
0
ARC
5
336
100
AcDbEntity
8
0
100
AcDbCircle
10
-10.000000000000004
20
9.9995815074817944
30
0
40
3.25
210
0
220
0
230
-1
100
AcDbArc
50
201.63108075751057
51
278.96821355147102
0
LINE
5
337
100
AcDbEntity
8
0
100
AcDbLine
10
50.986552702639344
20
49.983572741628855
30
0
11
50.986552702653036
21
47.429999842011547
31
0
0
ARC
5
338
100
AcDbEntity
8
0
100
AcDbCircle
10
18.031249830774058
20
0.00017850896732701793
30
0
40
3.2499999999999996
210
0
220
0
230
1
100
AcDbArc
50
216.03485498363995
51
233.96776012779216
0
ENDSEC
0
SECTION
2
OBJECTS
0
DICTIONARY
5
C
100
AcDbDictionary
3
ACAD_GROUP
350
D
3
ACAD_MLINESTYLE
350
17
0
DICTIONARY
5
D
100
AcDbDictionary
0
DICTIONARY
5
1A
330
C
100
AcDbDictionary
0
DICTIONARY
5
17
100
AcDbDictionary
0
ENDSEC
0
EOF
