0
SECTION
2
HEADER
9
$INSUNITS
70
4
9
$ACADVER
1
AC1014
9
$HANDSEED
5
FFFF
0
ENDSEC
0
SECTION
2
TABLES
0
TABLE
2
VPORT
5
8
100
AcDbSymbolTable
0
ENDTAB
0
TABLE
2
LTYPE
5
5
100
AcDbSymbolTable
0
LTYPE
5
14
100
AcDbSymbolTableRecord
100
AcDbLinetypeTableRecord
2
BYBLOCK
70
0
0
LTYPE
5
15
100
AcDbSymbolTableRecord
100
AcDbLinetypeTableRecord
2
BYLAYER
70
0
0
ENDTAB
0
TABLE
2
LAYER
5
2
100
AcDbSymbolTable
70
2
0
LAYER
5
50
100
AcDbSymbolTableRecord
100
AcDbLayerTableRecord
2
0
70
0
6
CONTINUOUS
0
ENDTAB
0
TABLE
2
STYLE
5
3
100
AcDbSymbolTable
70
1
0
STYLE
5
11
100
AcDbSymbolTableRecord
100
AcDbTextStyleTableRecord
2
STANDARD
70
0
0
ENDTAB
0
TABLE
2
VIEW
5
6
100
AcDbSymbolTable
70
0
0
ENDTAB
0
TABLE
2
UCS
5
7
100
AcDbSymbolTable
70
0
0
ENDTAB
0
TABLE
2
APPID
5
9
100
AcDbSymbolTable
70
2
0
APPID
5
12
100
AcDbSymbolTableRecord
100
AcDbRegAppTableRecord
2
ACAD
70
0
0
ENDTAB
0
TABLE
2
DIMSTYLE
5
A
100
AcDbSymbolTable
70
1
0
ENDTAB
0
TABLE
2
BLOCK_RECORD
5
1
100
AcDbSymbolTable
70
1
0
BLOCK_RECORD
5
1F
100
AcDbSymbolTableRecord
100
AcDbBlockTableRecord
2
*MODEL_SPACE
0
BLOCK_RECORD
5
1B
100
AcDbSymbolTableRecord
100
AcDbBlockTableRecord
2
*PAPER_SPACE
0
ENDTAB
0
ENDSEC
0
SECTION
2
BLOCKS
0
BLOCK
5
20
100
AcDbEntity
100
AcDbBlockBegin
2
*MODEL_SPACE
0
ENDBLK
5
21
100
AcDbEntity
100
AcDbBlockEnd
0
BLOCK
5
1C
100
AcDbEntity
100
AcDbBlockBegin
2
*PAPER_SPACE
0
ENDBLK
5
1D
100
AcDbEntity
100
AcDbBlockEnd
0
ENDSEC
0
SECTION
2
ENTITIES
0
LWPOLYLINE
5
100
100
AcDbEntity
8
0
100
AcDbPolyline
90
30
70
1
43
0.0
10
6.7359006977985967
20
13.901152770455953
10
6.1640993022014108
20
14.627888656352873
42
-0.16822163205240123
10
5.9500000000000028
20
15.246241381906566
10
5.9500000000000028
20
17.499999999999996
10
2.0500000000000029
20
17.499999999999996
10
2.0500000000000025
20
14.999999999999996
42
-0.99999999999999989
10
0.45000000000000234
20
14.999999999999996
10
-0.44999999999999679
20
14.999999999999996
42
-0.99999999999999989
10
-2.0499999999999972
20
14.999999999999996
10
-2.0499999999999972
20
17.499999999999996
10
-5.9499999999999984
20
17.499999999999996
10
-5.9499999999999984
20
15.427428982500782
42
0.20475462717682075
10
-5.641052295941841
20
14.704624220290745
10
0.21544958756194282
20
9.1053956534942042
42
-0.20475462717681939
10
0.83334499567825771
20
7.6597861290741314
10
0.83334499567825804
20
-1.3480689007704929
42
-0.14490118847768571
10
0.51107824888658615
20
-2.4367429250215529
10
-0.86505631130629812
20
-4.5574757257450038
10
-2.4499999999999975
20
-7.0000000000000018
10
-2.4499999999999975
20
-10.000000000000002
10
0.4500000000000029
20
-10.000000000000002
42
-0.99999999999999989
10
2.0500000000000034
20
-10.000000000000002
10
2.0500000000000034
20
-12.500000000000002
10
5.950000000000002
20
-12.500000000000002
10
5.950000000000002
20
-10.000000000000002
10
5.9500000000000011
20
-9.323968656196314
42
-0.11788211509620126
10
6.0581431066151668
20
-8.8716509783172022
10
6.8418568933848363
20
-7.3263641647470443
42
0.11788211509620478
10
6.9500000000000028
20
-6.8740464868679307
10
6.9500000000000028
20
13.28280004490226
42
0.16822163205240082
0
LINE
5
101
100
AcDbEntity
8
0
100
AcDbLine
10
-5.9499999999999984
20
17.499999999999996
30
0
11
-5.9499999999999984
21
14.999999999999996
31
0
0
CIRCLE
5
102
100
AcDbEntity
8
0
100
AcDbCircle
10
4.6000000000000014
20
4.7999999999999998
30
0
40
1.0499999999999998
210
0
220
0
230
1
0
LINE
5
103
100
AcDbEntity
8
0
100
AcDbLine
10
-5.9499999999999984
20
17.499999999999996
30
0
11
-2.0499999999999972
21
17.499999999999996
31
0
0
LINE
5
104
100
AcDbEntity
8
0
100
AcDbLine
10
2.0500000000000025
20
14.999999999999996
30
0
11
1.2500000000000024
21
14.999999999999996
31
0
0
LINE
5
105
100
AcDbEntity
8
0
100
AcDbLine
10
5.950000000000002
20
-12.500000000000002
30
0
11
2.0500000000000034
21
-12.500000000000002
31
0
0
CIRCLE
5
106
100
AcDbEntity
8
0
100
AcDbCircle
10
4.6000000000000014
20
-0.20000000000000018
30
0
40
1.05
210
0
220
0
230
1
0
LINE
5
107
100
AcDbEntity
8
0
100
AcDbLine
10
2.0500000000000029
20
17.499999999999996
30
0
11
5.9500000000000028
21
17.499999999999996
31
0
0
ENDSEC
0
SECTION
2
OBJECTS
0
DICTIONARY
5
C
100
AcDbDictionary
3
ACAD_GROUP
350
D
3
ACAD_MLINESTYLE
350
17
0
DICTIONARY
5
D
100
AcDbDictionary
0
DICTIONARY
5
1A
330
C
100
AcDbDictionary
0
DICTIONARY
5
17
100
AcDbDictionary
0
ENDSEC
0
EOF
