0
SECTION
2
HEADER
9
$INSUNITS
70
4
9
$ACADVER
1
AC1014
9
$HANDSEED
5
FFFF
0
ENDSEC
0
SECTION
2
TABLES
0
TABLE
2
VPORT
5
8
100
AcDbSymbolTable
0
ENDTAB
0
TABLE
2
LTYPE
5
5
100
AcDbSymbolTable
0
LTYPE
5
14
100
AcDbSymbolTableRecord
100
AcDbLinetypeTableRecord
2
BYBLOCK
70
0
0
LTYPE
5
15
100
AcDbSymbolTableRecord
100
AcDbLinetypeTableRecord
2
BYLAYER
70
0
0
ENDTAB
0
TABLE
2
LAYER
5
2
100
AcDbSymbolTable
70
2
0
LAYER
5
50
100
AcDbSymbolTableRecord
100
AcDbLayerTableRecord
2
0
70
0
6
CONTINUOUS
0
ENDTAB
0
TABLE
2
STYLE
5
3
100
AcDbSymbolTable
70
1
0
STYLE
5
11
100
AcDbSymbolTableRecord
100
AcDbTextStyleTableRecord
2
STANDARD
70
0
0
ENDTAB
0
TABLE
2
VIEW
5
6
100
AcDbSymbolTable
70
0
0
ENDTAB
0
TABLE
2
UCS
5
7
100
AcDbSymbolTable
70
0
0
ENDTAB
0
TABLE
2
APPID
5
9
100
AcDbSymbolTable
70
2
0
APPID
5
12
100
AcDbSymbolTableRecord
100
AcDbRegAppTableRecord
2
ACAD
70
0
0
ENDTAB
0
TABLE
2
DIMSTYLE
5
A
100
AcDbSymbolTable
70
1
0
ENDTAB
0
TABLE
2
BLOCK_RECORD
5
1
100
AcDbSymbolTable
70
1
0
BLOCK_RECORD
5
1F
100
AcDbSymbolTableRecord
100
AcDbBlockTableRecord
2
*MODEL_SPACE
0
BLOCK_RECORD
5
1B
100
AcDbSymbolTableRecord
100
AcDbBlockTableRecord
2
*PAPER_SPACE
0
ENDTAB
0
ENDSEC
0
SECTION
2
BLOCKS
0
BLOCK
5
20
100
AcDbEntity
100
AcDbBlockBegin
2
*MODEL_SPACE
0
ENDBLK
5
21
100
AcDbEntity
100
AcDbBlockEnd
0
BLOCK
5
1C
100
AcDbEntity
100
AcDbBlockBegin
2
*PAPER_SPACE
0
ENDBLK
5
1D
100
AcDbEntity
100
AcDbBlockEnd
0
ENDSEC
0
SECTION
2
ENTITIES
0
LWPOLYLINE
5
100
100
AcDbEntity
8
0
100
AcDbPolyline
90
15
70
1
43
0.0
10
20.471657119250203
20
-24.528992681840304
42
0.52975802222441526
10
20.782434866007812
20
-22.903777883217682
10
11.369606812907163
20
-13.490940059378591
42
0.23993108331635615
10
10.506617390671378
20
-13.210270832728812
42
-0.50917373257620246
10
6.7897296931534967
20
-9.4933792769934744
42
0.23993108331635721
10
6.5090613623068583
20
-8.6303895634170011
10
3.2071071481830549
20
-5.3284319217865264
42
0.66817882560203579
10
1.5000000000000024
20
-6.0355383359763737
10
1.5000000000000024
20
-14.594291149040091
42
0.23993164795342933
10
1.9117647058823577
20
-15.402980977561704
42
-0.5091750772173147
10
1.9117647058823553
20
-20.65946486295222
42
0.23993164795342586
10
1.5
20
-21.468154691473849
10
1.499999999999998
20
-31.197808926752906
42
0.53928294135788313
10
2.8963294014254415
20
-32.115917311185669
10
19.9544836329272
20
-24.752246343110535
0
LWPOLYLINE
5
101
100
AcDbEntity
8
0
100
AcDbPolyline
90
4
70
1
43
0.0
10
-58.000000000000028
20
-63.500000000000007
42
-0.99999999999999989
10
-58.000000000000007
20
-61.499999999999993
10
-56.500000000000021
20
-61.5
42
-0.99999999999999989
10
-56.5
20
-63.5
0
LWPOLYLINE
5
102
100
AcDbEntity
8
0
100
AcDbPolyline
90
4
70
1
43
0.0
10
-61.500000000000021
20
-68.499999999999986
10
-61.500000000000028
20
-66.999999999999986
42
0.99999999999999989
10
-63.500000000000021
20
-67.000000000000014
10
-63.500000000000028
20
-68.499999999999972
42
0.99999999999999989
0
ARC
5
103
100
AcDbEntity
8
0
100
AcDbCircle
10
-69.986545096317144
20
-69.984017275638422
30
0
40
1.0000000000111431
210
0
220
0
230
1
100
AcDbArc
50
180
51
270.00000000086146
0
LINE
5
104
100
AcDbEntity
8
0
100
AcDbLine
10
23.985120335297946
20
-21.16246719425552
30
0
11
23.98521588879057
21
-21.162557170970349
31
0
0
LWPOLYLINE
5
105
100
AcDbEntity
8
0
100
AcDbPolyline
90
12
70
1
43
0.0
10
9.4933688975860822
20
-6.7897313311707279
42
-0.50917642185780276
10
13.210268142932733
20
-10.506634434746815
42
0.23993221258976646
10
13.490935807959747
20
-11.369628367320306
10
14.87411577207391
20
-12.752809767208023
42
0.66817882560203568
10
16.581222920256959
20
-12.045703353018169
10
16.581222920256966
20
-3.4727510708370724
42
0.24376131793584283
10
16.157693508492255
20
-2.6556331718165858
42
-0.082063140313122382
10
15.402980977561693
20
-1.9117647058823528
42
0.23993164795342536
10
14.594291149040082
20
-1.5000000000000024
10
6.0355294758946521
20
-1.4999999999999989
42
0.66817845023659561
10
5.3284223277115963
20
-3.2071064141898531
10
8.6303752563525968
20
-6.5090627703361879
42
0.23993221258976721
0
LINE
5
106
100
AcDbEntity
8
0
100
AcDbLine
10
-68.500000000000014
20
59.00002214243866
30
0
11
-68.500000000000014
21
1.5000000000000124
31
0
0
LINE
5
107
100
AcDbEntity
8
0
100
AcDbLine
10
52.070320643093915
20
62.012292903879576
30
0
11
1.312944375903129
21
37.307254094803561
31
0
0
LINE
5
108
100
AcDbEntity
8
0
100
AcDbLine
10
-60.000000000000007
20
-69
30
0
11
-60
21
-69.5
31
0
0
LWPOLYLINE
5
109
100
AcDbEntity
8
0
100
AcDbPolyline
90
15
70
1
43
0.0
10
-1.4999999999999949
20
-6.0355383359763781
10
-1.499999999999998
20
-14.594291149040082
42
-0.23993164795342911
10
-1.9117647058823501
20
-15.4029809775617
42
0.50917507721731559
10
-1.9117647058823573
20
-20.65946486295222
42
-0.23993164795342159
10
-1.4999999999999989
20
-21.468154691473838
10
-1.4999999999999987
20
-31.197808926752899
42
-0.53928294135787525
10
-2.8963294014254393
20
-32.115917311185662
10
-19.9544836329272
20
-24.752246343110524
10
-20.471657119250214
20
-24.5289926818403
42
-0.52975802222442225
10
-20.782434866007812
20
-22.903777883217678
10
-11.369606812907163
20
-13.490940059378589
42
-0.23993108331635651
10
-10.50661739067138
20
-13.21027083272881
42
0.50917373257620069
10
-6.7897296931534958
20
-9.4933792769934726
42
-0.23993108331635557
10
-6.5090613623068538
20
-8.6303895634169976
10
-3.2071071481830482
20
-5.3284319217865308
42
-0.66817882560203712
0
LINE
5
110
100
AcDbEntity
8
0
100
AcDbLine
10
-23.985120335297946
20
-21.162467194255512
30
0
11
-23.98521588879057
21
-21.162557170970334
31
0
0
LWPOLYLINE
5
111
100
AcDbEntity
8
0
100
AcDbPolyline
90
8
70
1
43
0.0
10
22.174480664230607
20
-27.061505185929114
42
-0.22773507729236689
10
23.039802317652068
20
-27.096411290265362
42
0.15073029398510129
10
24.776910015573662
20
-27.4285847170609
42
-0.22773507729236339
10
25.594060208299126
20
-27.715404455797209
10
55.895596002532564
20
-58.01692004301735
42
-0.73651277001049087
10
54.83998959235528
20
-60.02378897970857
10
5.5546904521878986
20
-36.035369044228858
42
-0.64135851280159384
10
5.5960006610780244
20
-34.218110187693206
0
CIRCLE
5
112
100
AcDbEntity
8
0
100
AcDbCircle
10
-62.500000000000007
20
-62.5
30
0
40
2
210
0
220
0
230
1
0
ARC
5
113
100
AcDbEntity
8
0
100
AcDbCircle
10
-69.499999999981114
20
-62.499999999694616
30
0
40
2.500000001694636
210
0
220
0
230
1
100
AcDbArc
50
90.002291831623907
51
203.23077542690308
0
LINE
5
114
100
AcDbEntity
8
0
100
AcDbLine
10
68.499999450675261
20
1.4961653042030445
30
0
11
68.499987691016941
21
59.000021935019291
31
0
0
LINE
5
115
100
AcDbEntity
8
0
100
AcDbLine
10
52.070332672871132
20
-62.012208583012267
30
0
11
1.3129188309466766
21
-37.30727264225257
31
0
0
ARC
5
116
100
AcDbEntity
8
0
100
AcDbCircle
10
-51.195053452240053
20
-63.810509527218002
30
0
40
1.999999999999964
210
0
220
0
230
1
100
AcDbArc
50
115.95337570236386
51
163.06873034394019
0
LWPOLYLINE
5
117
100
AcDbEntity
8
0
100
AcDbPolyline
90
8
70
1
43
0.0
10
-5.5546904521879084
20
-36.035369044228851
42
0.64135851280159173
10
-5.5960006610780244
20
-34.218110187693206
10
-22.174480664230607
20
-27.061505185929107
42
0.22773507729236594
10
-23.039802317652072
20
-27.096411290265365
42
-0.15073029398509208
10
-24.776910015573677
20
-27.428584717060893
42
0.2277350772923698
10
-25.594060208299126
20
-27.715404455797209
10
-55.895596002532599
20
-58.01692004301735
42
0.73651277001050319
10
-54.839989592355309
20
-60.023788979708534
0
ARC
5
118
100
AcDbEntity
8
0
100
AcDbCircle
10
-10
20
-10
30
0
40
3.2500000000000053
210
0
220
-0
230
1
100
AcDbArc
50
44.999900338056328
51
44.999900338056328
0
LWPOLYLINE
5
119
100
AcDbEntity
8
0
100
AcDbPolyline
90
4
70
1
43
0.0
10
68.500000000063864
20
-63.499994325961005
10
66.999999999856371
20
-63.499994440323562
42
-0.99995071900047094
10
67.000000000104933
20
-61.499994382938503
10
68.500000000022837
20
-61.499994264567619
42
-1.000001810339413
0
LINE
5
120
100
AcDbEntity
8
0
100
AcDbLine
10
-61.863582349346231
20
58.045226848608856
30
0
11
-64.499990921316964
21
58.045226849540185
31
0
0
CIRCLE
5
121
100
AcDbEntity
8
0
100
AcDbCircle
10
10.000000000000004
20
-10.000000000000004
30
0
40
1.4500000000000002
210
0
220
0
230
1
0
ARC
5
122
100
AcDbEntity
8
0
100
AcDbCircle
10
-67.499999999999986
20
-1.5000000000000169
30
0
40
1.0000000000000429
210
0
220
0
230
1
100
AcDbArc
50
143.13010235415734
51
180
0
LINE
5
123
100
AcDbEntity
8
0
100
AcDbLine
10
70.986607200329374
20
69.984000704656225
30
0
11
70.986606098916155
21
67.430449538491388
31
0
0
LINE
5
124
100
AcDbEntity
8
0
100
AcDbLine
10
61.500018667646032
20
67.000002609059507
30
0
11
61.500018485390498
21
68.499778730868059
31
0
0
ARC
5
125
100
AcDbEntity
8
0
100
AcDbCircle
10
69.986545096064418
20
-69.984017275799516
30
0
40
0.99999999982785859
210
0
220
0
230
1
100
AcDbArc
50
-89.999999986380516
51
0
0
ARC
5
126
100
AcDbEntity
8
0
100
AcDbCircle
10
-56.000000000000021
20
-68.999999999999986
30
0
40
4.0000000000000036
210
0
220
-0
230
1
100
AcDbArc
50
90
51
180
0
ARC
5
127
100
AcDbEntity
8
0
100
AcDbCircle
10
0
20
-40.004724058561536
30
0
40
3.0000000000002736
210
0
220
-0
230
1
100
AcDbArc
50
64.046624297638644
51
90
0
ARC
5
128
100
AcDbEntity
8
0
100
AcDbCircle
10
-4.4408920985006254e-15
20
-40.004724058561536
30
0
40
3.0000000000002736
210
0
220
-0
230
1
100
AcDbArc
50
89.999999999999915
51
115.9533757023613
0
LINE
5
129
100
AcDbEntity
8
0
100
AcDbLine
10
-52.070332672871153
20
-62.01220858301226
30
0
11
-1.3129188309466779
21
-37.30727264225257
31
0
0
LWPOLYLINE
5
130
100
AcDbEntity
8
0
100
AcDbPolyline
90
4
70
1
43
0.0
10
63.500000000000021
20
-67.000000000000043
10
63.500000000000014
20
-68.5
42
-0.99999999999999989
10
61.500000000000021
20
-68.5
10
61.499999999999993
20
-67.000000000000014
42
-0.99999999999999989
0
ARC
5
131
100
AcDbEntity
8
0
100
AcDbCircle
10
67.499999450675702
20
1.4961650997009579
30
0
40
0.99999999999983857
210
0
220
0
230
1
100
AcDbArc
50
-36.87008333657591
51
1.1706354451251849e-05
0
ARC
5
132
100
AcDbEntity
8
0
100
AcDbCircle
10
-64.499990921316964
20
57.045226849540178
30
0
40
0.99999999999999645
210
0
220
-0
230
1
100
AcDbArc
50
90
51
180
0
ARC
5
133
100
AcDbEntity
8
0
100
AcDbCircle
10
-62.500000000000007
20
-69.5
30
0
40
2.5000000000000053
210
0
220
0
230
1
100
AcDbArc
50
-116.74038669640063
51
0
0
CIRCLE
5
134
100
AcDbEntity
8
0
100
AcDbCircle
10
-24.446779073640172
20
-24.446804449975801
30
0
40
1.45
210
0
220
0
230
1
0
LINE
5
135
100
AcDbEntity
8
0
100
AcDbLine
10
-70.986545096328285
20
-69.984017275638422
30
0
11
-70.986545096327461
21
-67.430444376630561
31
0
0
ARC
5
136
100
AcDbEntity
8
0
100
AcDbCircle
10
56.000000000000014
20
-69
30
0
40
4.0000000000000036
210
0
220
0
230
1
100
AcDbArc
50
0
51
90
0
ARC
5
137
100
AcDbEntity
8
0
100
AcDbCircle
10
-55.500000000000028
20
-62.5
30
0
40
2.5
210
0
220
0
230
1
100
AcDbArc
50
270
51
343.06873034393976
0
LWPOLYLINE
5
138
100
AcDbEntity
8
0
100
AcDbPolyline
90
12
70
1
43
0.0
10
25.94678027408537
20
2.6026331910053466
42
0.41346455737412113
10
26.944218222482927
20
1.602632358481616
10
64.49743689677797
20
1.5064187498911337
42
0.41496420938068129
10
65.499998948724894
20
2.5064156020477224
10
65.499991628926082
20
57.045227337521105
42
0.41421356237149515
10
64.499991494713711
20
58.045227203303263
10
61.863636171036404
20
58.045226849707667
42
0.23606747965545188
10
59.318055423745299
20
57.19670372190393
10
28.953520284172431
20
26.832307201302452
42
0.24153253174446321
10
28.394102671337759
20
25.094373365362248
42
-0.28499625637832549
10
26.780182327253215
20
21.198009418687707
42
0.24153009181884597
10
25.946850102586311
20
19.573552720107518
0
LWPOLYLINE
5
139
100
AcDbEntity
8
0
100
AcDbPolyline
90
4
70
1
43
0.0
10
56.5
20
-61.500000000000021
10
58.000000000000028
20
-61.500000000000028
42
-0.99999999999999989
10
58.000000000000007
20
-63.500000000000021
10
56.500000000000021
20
-63.500000000000028
42
-0.99999999999999989
0
LINE
5
140
100
AcDbEntity
8
0
100
AcDbLine
10
63.500018309669031
20
68.500023580944827
30
0
11
63.500018508534488
21
66.999992043408028
31
0
0
LWPOLYLINE
5
141
100
AcDbEntity
8
0
100
AcDbPolyline
90
4
70
1
43
0.0
10
67.000031087038693
20
63.499998594873801
42
0.99998045322826823
10
67.000028383647475
20
61.499998597890624
10
68.500024537033752
20
61.499998569659482
42
1.0000047773269436
10
68.500025516339818
20
63.499998566609939
0
LWPOLYLINE
5
142
100
AcDbEntity
8
0
100
AcDbPolyline
90
8
70
1
43
0.0
10
55.895618637991134
20
58.016957727543968
10
25.594069503864386
20
27.715505760521324
42
-0.22773486525803111
10
24.776919748534738
20
27.42868697030843
42
0.15072590513126985
10
23.039850151109924
20
27.09653711687956
42
-0.22773024138855782
10
22.174544766118132
20
27.061638979273432
10
5.5961104451293835
20
34.218209307175144
42
-0.64135897951203258
10
5.5548000438979983
20
36.035468711186489
10
54.840001282949409
20
60.02380670943456
42
-0.73648468848065973
0
LWPOLYLINE
5
143
100
AcDbEntity
8
0
100
AcDbPolyline
90
12
70
1
43
0.0
10
64.502561671563342
20
-1.4935634781167306
42
-0.41346331359075039
10
65.499999619799084
20
-2.4935600619142129
10
65.500006941288888
20
-57.04522516778291
42
-0.41421356237415902
10
64.500007075501301
20
-58.045225301998933
10
61.863602786034839
20
-58.045225655830038
42
-0.23606799941837747
10
59.318018349046326
20
-57.196699569399811
10
28.953452708162093
20
-26.832154735458449
42
-0.24153136044265214
10
28.394037033609656
20
-25.094228551391712
42
0.28499577032468293
10
26.780112841614617
20
-21.197872814048463
42
-0.24153136156376373
10
25.946779498006201
20
-19.573407091368164
10
25.946779422135897
20
-2.3973465881503602
42
-0.41496417132808289
10
26.949341473923806
20
-1.3973498657892458
0
LWPOLYLINE
5
144
100
AcDbEntity
8
0
100
AcDbPolyline
90
6
70
1
43
0.0
10
69
20
-66.03352060516174
10
69
20
-68
42
-0.41421356237309503
10
68
20
-69
10
66.03352060516174
20
-69.000000000000028
42
-0.50337011108930385
10
65.172284651821599
20
-67.838709677419359
42
-0.2504659130941147
10
67.838709677419359
20
-65.172284651821599
42
-0.50337011108930108
0
ARC
5
145
100
AcDbEntity
8
0
100
AcDbCircle
10
66.774511769384361
20
-77.984017275637143
30
0
40
7.000000000008697
210
0
220
0
230
1
100
AcDbArc
50
90.000000000093536
51
116.74038669652354
0
ARC
5
146
100
AcDbEntity
8
0
100
AcDbCircle
10
51.195053452240032
20
-63.810509527218009
30
0
40
1.9999999999999609
210
0
220
-0
230
1
100
AcDbArc
50
16.93126965605974
51
64.046624297636143
0
LWPOLYLINE
5
147
100
AcDbEntity
8
0
100
AcDbPolyline
90
12
70
1
43
0.0
10
8.6304465010511642
20
6.509074412218566
10
5.3286343190511811
20
3.2073003646399982
42
0.66818078641001244
10
6.0357371834784681
20
1.5001895000980223
10
14.594335296438192
20
1.5001909258418249
42
0.23993035448222089
10
15.403022178457155
20
1.9119518101164799
42
-0.082059729148417748
10
16.157700722105918
20
2.6557898293225417
42
0.24375897975941491
10
16.581222920256966
20
3.4729026391446616
10
16.58122292025697
20
12.045634242081816
42
0.66818037745999337
10
14.874112737566644
20
12.752737621748228
10
13.490973157672768
20
11.369584734703089
42
0.23993228158217744
10
13.210309236983633
20
10.506589339895331
42
-0.50918067299519454
10
9.4934449479392669
20
6.789737541695442
42
0.23993307010966078
0
ARC
5
148
100
AcDbEntity
8
0
100
AcDbCircle
10
80.98654509627174
20
-67.430444376182223
30
0
40
10.000000000365779
210
0
220
0
230
1
100
AcDbArc
50
156.76922458141954
51
180
0
ARC
5
149
100
AcDbEntity
8
0
100
AcDbCircle
10
56.000247041312647
20
68.999995506557653
30
0
40
3.9998610690509588
210
0
220
0
230
1
100
AcDbArc
50
269.999478108174
51
359.99699940939217
0
CIRCLE
5
150
100
AcDbEntity
8
0
100
AcDbCircle
10
62.500006743193595
20
62.500024011630657
30
0
40
1.9999820594082349
210
0
220
0
230
1
0
LINE
5
151
100
AcDbEntity
8
0
100
AcDbLine
10
69.986545096302123
20
-70.98401727562738
30
0
11
66.774511769372936
21
-70.984017275628446
31
0
0
ARC
5
152
100
AcDbEntity
8
0
100
AcDbCircle
10
68.100031029179178
20
66.033532530836808
30
0
40
0.90000111563273899
210
0
220
0
230
1
100
AcDbArc
50
253.12217396461901
51
359.99708505447387
0
LINE
5
153
100
AcDbEntity
8
0
100
AcDbLine
10
-55.500000000000028
20
-65
30
0
11
-56.000000000000021
21
-64.999999999999986
31
0
0
LWPOLYLINE
5
154
100
AcDbEntity
8
0
100
AcDbPolyline
90
8
70
1
43
0.0
10
-22.174490944570053
20
27.061638978994154
42
-0.22773024176469139
10
-23.039796330373534
20
27.096537117405042
42
0.15072590507601683
10
-24.776865927253478
20
27.428686970302252
42
-0.22773486506374738
10
-25.594015682065457
20
27.715505760119875
10
-55.895564816434899
20
58.016957727723664
42
-0.73648468832525826
10
-54.839947461574013
20
60.023806709430652
10
-5.5547462224749928
20
36.035468711286576
42
-0.6413589797042476
10
-5.5960566232476161
20
34.218209307037519
0
LINE
5
155
100
AcDbEntity
8
0
100
AcDbLine
10
1.5000650342871729
20
6.0355123027975264
30
0
11
1.5000430256260364
21
14.594299546378657
31
0
0
LWPOLYLINE
5
156
100
AcDbEntity
8
0
100
AcDbPolyline
90
15
70
1
43
0.0
10
-1.9117534617966856
20
15.402979629067195
42
-0.23992901092343005
10
-1.4999892040944345
20
14.594299546319869
10
-1.5000112129297065
20
6.0355123028036601
42
-0.66817541270445402
10
-3.2071135057679179
20
5.3284036047578667
10
-6.5090972064010311
20
8.6303453874941045
42
-0.23993214162895715
10
-6.7897708389845679
20
9.4933371277387053
42
0.50917337023424869
10
-10.506665485423401
20
13.210218622832794
42
-0.23993169862217589
10
-11.369657033962016
20
13.490888017093315
10
-20.782594876019857
20
22.903847199831038
42
-0.52975806883415144
10
-20.471815996353616
20
24.529061865072936
10
-19.95453208448312
20
24.752362728514289
10
-2.8962617150707715
20
32.116068444561201
42
-0.53928423450889751
10
-1.4999323825341804
20
31.197955948167401
10
-1.499972101296343
20
21.468150347264849
42
-0.23993173780525609
10
-1.9117403834566051
20
20.659461999929928
42
0.50917629465544545
0
LINE
5
157
100
AcDbEntity
8
0
100
AcDbLine
10
69.499841065286063
20
60.00002214208213
30
0
11
69.500006485070728
21
60.000022138975382
31
0
0
ARC
5
158
100
AcDbEntity
8
0
100
AcDbCircle
10
66.033465574153468
20
68.100099756972284
30
0
40
0.8999260785700558
210
0
220
-0
230
1
100
AcDbArc
50
89.994844620470346
51
196.88413925467935
0
ARC
5
159
100
AcDbEntity
8
0
100
AcDbCircle
10
66.774533545452428
20
77.983995120891777
30
0
40
7.0000199045299372
210
0
220
0
230
1
100
AcDbArc
50
243.26039658023086
51
270.00002293002808
0
LWPOLYLINE
5
160
100
AcDbEntity
8
0
100
AcDbPolyline
90
4
70
1
43
0.0
10
56.500031126302503
20
63.500001060879256
42
1.0000003770465646
10
56.500034763425475
20
61.500001060439438
10
58.000025371450484
20
61.500001085381719
42
1.0000015217628657
10
58.000026854252553
20
63.500001085831357
0
ARC
5
161
100
AcDbEntity
8
0
100
AcDbCircle
10
62.500045577679728
20
69.500014218136357
30
0
40
2.4999369053029747
210
0
220
-0
230
1
100
AcDbArc
50
63.257532145232076
51
179.99997632413172
0
ARC
5
162
100
AcDbEntity
8
0
100
AcDbCircle
10
10.00009641813781
20
9.9999486576732384
30
0
40
3.2500000000857066
210
0
220
-0
230
1
100
AcDbArc
50
81.031933042408596
51
188.96786422850772
0
CIRCLE
5
163
100
AcDbEntity
8
0
100
AcDbCircle
10
24.446805984537683
20
24.446804449936895
30
0
40
1.4499820593757209
210
0
220
0
230
1
0
LINE
5
164
100
AcDbEntity
8
0
100
AcDbLine
10
55.500004053974905
20
65.000133298847487
30
0
11
56.000210607655319
21
65.000134437672628
31
0
0
LINE
5
165
100
AcDbEntity
8
0
100
AcDbLine
10
6.5091510279319387
20
8.6303453875118379
30
0
11
3.2071673271048584
21
5.3284036047612044
31
0
0
ARC
5
166
100
AcDbEntity
8
0
100
AcDbCircle
10
80.986724864975827
20
67.430231350382627
30
0
40
10.000118768439936
210
0
220
0
230
1
100
AcDbArc
50
179.99874988907015
51
203.22741222213617
0
LWPOLYLINE
5
167
100
AcDbEntity
8
0
100
AcDbPolyline
90
10
70
1
43
0.0
10
21.239650516078754
20
19.118336642839648
42
-0.66817637538813845
10
22.946756669499958
20
18.411234603206864
10
22.946842098229375
20
2.5002368302205684
42
-0.41421108466592821
10
21.946855926643835
20
1.5002314608742109
10
21.468153690032228
20
1.5002248411326702
42
-0.23993144568578426
10
20.659458617561754
20
1.9119777454045062
42
0.1431142647388837
10
19.216522811978741
20
3.0263288204052929
42
-0.30864763847150334
10
18.58122292025697
20
3.9574538555224104
10
18.58122292025697
20
16.045672725981653
42
-0.19891111718100501
10
18.874112737566641
20
16.75277610564806
0
LINE
5
168
100
AcDbEntity
8
0
100
AcDbLine
10
19.954585905859169
20
24.752362728514292
30
0
11
20.471869818076065
21
24.529061865209112
31
0
0
LINE
5
169
100
AcDbEntity
8
0
100
AcDbLine
10
60.000108107807542
20
68.999786033095006
30
0
11
60.00010867414268
21
69.500015252016397
31
0
0
LINE
5
170
100
AcDbEntity
8
0
100
AcDbLine
10
69.986596378398758
20
70.983973604195086
30
0
11
66.774536346891807
21
70.98397521636241
31
0
0
ARC
5
171
100
AcDbEntity
8
0
100
AcDbCircle
10
2.0338884957265011e-05
20
40.004702977177722
30
0
40
3.0000000000002807
210
0
220
0
230
1
100
AcDbArc
50
270.00012550510968
51
295.95348628306078
0
LINE
5
172
100
AcDbEntity
8
0
100
AcDbLine
10
23.985148226572672
20
21.162468117641765
30
0
11
23.985241818896128
21
21.162556247587805
31
0
0
ARC
5
173
100
AcDbEntity
8
0
100
AcDbCircle
10
62.500018588135774
20
67.000005942292788
30
0
40
0.99999992049530428
210
0
220
0
230
1
100
AcDbArc
50
180.00019098021451
51
359.99920365249989
0
ARC
5
174
100
AcDbEntity
8
0
100
AcDbCircle
10
10.662603272730752
20
14.197993996720475
30
0
40
1.0000000000412155
210
0
220
0
230
1
100
AcDbArc
50
261.03193304251465
51
315.00006494908934
0
ARC
5
175
100
AcDbEntity
8
0
100
AcDbCircle
10
68.000019454591126
20
68.000013707424415
30
0
40
1.0000128245177122
210
0
220
0
230
1
100
AcDbArc
50
-0.0014270583235042246
51
89.999340917795422
0
ARC
5
176
100
AcDbEntity
8
0
100
AcDbCircle
10
2.5000430253193846
20
14.594290127170908
30
0
40
0.99999999973770948
210
0
220
0
230
1
100
AcDbArc
50
126.03191084538652
51
179.99946031914968
0
ARC
5
177
100
AcDbEntity
8
0
100
AcDbCircle
10
69.986615447350999
20
69.98398185146236
30
0
40
0.99999175315611155
210
0
220
-0
230
1
100
AcDbArc
50
0.0010802173471622912
51
90.001092579493829
0
ARC
5
178
100
AcDbEntity
8
0
100
AcDbCircle
10
62.500018392622998
20
68.500146067272269
30
0
40
0.99999992454747455
210
0
220
0
230
1
100
AcDbArc
50
-0.0070179500980278066
51
180.02104682662767
0
ARC
5
179
100
AcDbEntity
8
0
100
AcDbCircle
10
69.499957848258006
20
62.500016711437347
30
0
40
2.4999945720828536
210
0
220
0
230
1
100
AcDbArc
50
-90.002676474376628
51
23.237383957733105
0
LINE
5
180
100
AcDbEntity
8
0
100
AcDbLine
10
-22.946702848217978
20
18.411234603147367
30
0
11
-22.946803042054515
21
2.5002363913841541
31
0
0
LINE
5
181
100
AcDbEntity
8
0
100
AcDbLine
10
20.7826486973889
20
22.903847199740149
30
0
11
11.369710855504881
21
13.49088801706413
31
0
0
ARC
5
182
100
AcDbEntity
8
0
100
AcDbCircle
10
51.195037951210765
20
63.810592158956482
30
0
40
2.0000000003800853
210
0
220
0
230
1
100
AcDbArc
50
295.95348629489536
51
343.06879526223048
0
ARC
5
183
100
AcDbEntity
8
0
100
AcDbCircle
10
5.8020487351011409
20
9.3374566570042372
30
0
40
0.99999999998486078
210
0
220
0
230
1
100
AcDbArc
50
-45.000363682570736
51
8.9678642285080201
0
ARC
5
184
100
AcDbEntity
8
0
100
AcDbCircle
10
2.5000650342643982
20
6.0355148742653473
30
0
40
0.99999999998053202
210
0
220
0
230
1
100
AcDbArc
50
180.00014733471653
51
314.99963631734499
0
LINE
5
185
100
AcDbEntity
8
0
100
AcDbLine
10
69.000032278798656
20
67.99998880023864
30
0
11
69.000032144691929
21
66.033486742920189
31
0
0
ARC
5
186
100
AcDbEntity
8
0
100
AcDbCircle
10
20.075541114705686
20
23.61095317943996
30
0
40
1.000000000007665
210
0
220
0
230
1
100
AcDbArc
50
-44.999935056354971
51
66.651132314125164
0
LINE
5
187
100
AcDbEntity
8
0
100
AcDbLine
10
2.8963155366603615
20
32.116068444734218
30
0
11
19.954585905859169
21
24.752362728514292
31
0
0
ARC
5
188
100
AcDbEntity
8
0
100
AcDbCircle
10
-80.986671043781499
20
67.430231350383039
30
0
40
10.000118770645365
210
0
220
0
230
1
100
AcDbArc
50
-23.227412221728095
51
0.0012501106383066109
0
LWPOLYLINE
5
189
100
AcDbEntity
8
0
100
AcDbPolyline
90
12
70
1
43
0.0
10
-13.490919336128721
20
11.369584734662359
10
-15.658151463620031
20
13.536837712958501
42
0.66817983361224653
10
-17.365261646291586
20
12.829735837186027
10
-17.365275060703091
20
3.9100548165515558
42
0.30059586111734127
10
-16.757256460412876
20
2.9900801704872091
42
-0.13560453033732991
10
-15.402968357221949
20
1.9119518103208688
42
0.23993035458286996
10
-14.594281474808348
20
1.5001909257811674
10
-6.0356833622587134
20
1.5001895001497101
42
0.66818078635254374
10
-5.3285804978659286
20
3.2073003646343725
10
-8.630392679881993
20
6.5090744122732724
42
0.23993307006862988
10
-9.4933911266815745
20
6.789737541647658
42
-0.5091806729679399
10
-13.210255415289327
20
10.506589339871628
42
0.23993228159104099
0
ARC
5
190
100
AcDbEntity
8
0
100
AcDbCircle
10
2.5000259229281161
20
21.468154429564979
30
0
40
0.99999999977149567
210
0
220
0
230
1
100
AcDbArc
50
180.00023389346805
51
233.96837428476451
0
ARC
5
191
100
AcDbEntity
8
0
100
AcDbCircle
10
2.4999999567158961
20
14.594291390804589
30
0
40
1.0000002713312086
210
0
220
0
230
1
100
AcDbArc
50
126.03188521513549
51
180.0000138458818
0
ARC
5
192
100
AcDbEntity
8
0
100
AcDbCircle
10
-21.946702848458926
20
18.411229234091287
30
0
40
0.99999999999999156
210
0
220
-0
230
1
100
AcDbArc
50
45.000050856210244
51
179.99969237598356
0
ARC
5
193
100
AcDbEntity
8
0
100
AcDbCircle
10
-56.000193219914891
20
68.999995506560779
30
0
40
3.9998610720193764
210
0
220
0
230
1
100
AcDbArc
50
180.00300059060777
51
270.00052189151256
0
LWPOLYLINE
5
194
100
AcDbEntity
8
0
100
AcDbPolyline
90
4
70
1
43
0.0
10
-56.499980942409913
20
61.500001060439402
10
-57.999971550047547
20
61.500001085381697
42
-1.0000015219452463
10
-57.99997303287639
20
63.500001085831315
10
-56.499977305214806
20
63.500001060868584
42
-1.0000003768256602
0
LINE
5
195
100
AcDbEntity
8
0
100
AcDbLine
10
-21.946814016323838
20
1.5002300943604996
30
0
11
-21.468099868508705
21
1.5002248411043893
31
0
0
LINE
5
196
100
AcDbEntity
8
0
100
AcDbLine
10
-60.000054286449185
20
68.999786033094125
30
0
11
-60.000054852765103
21
69.50001525183275
31
0
0
ARC
5
197
100
AcDbEntity
8
0
100
AcDbCircle
10
-68.999979928755181
20
68.999987365839402
30
0
40
3.9999784035528627
210
0
220
0
230
1
100
AcDbArc
50
286.87753410332925
51
343.12309472861006
0
ARC
5
198
100
AcDbEntity
8
0
100
AcDbCircle
10
3.34822980762163e-05
20
40.004702977015178
30
0
40
3.0000000000002758
210
0
220
0
230
1
100
AcDbArc
50
244.0465137280211
51
269.99987448440964
0
ARC
5
199
100
AcDbEntity
8
0
100
AcDbCircle
10
10.000096418220537
20
9.9999486577890089
30
0
40
3.2499463260535371
210
0
220
0
230
1
100
AcDbArc
50
-98.968726411180782
51
8.9685338639925831
0
ARC
5
200
100
AcDbEntity
8
0
100
AcDbCircle
10
-21.468086039893247
20
2.5002248410087944
30
0
40
1.0000000000000211
210
0
220
0
230
1
100
AcDbArc
50
269.99920767869776
51
323.96728477599015
0
LWPOLYLINE
5
201
100
AcDbEntity
8
0
100
AcDbPolyline
90
4
70
1
43
0.0
10
-66.999977265664782
20
63.49999859482832
42
-0.99998045347675513
10
-66.999974562268548
20
61.49999859789061
10
-68.499970715644992
20
61.49999856959105
42
-1.0000047771991241
10
-68.499971694940427
20
63.49999856660915
0
ARC
5
202
100
AcDbEntity
8
0
100
AcDbCircle
10
2.4999862038762783
20
31.197960030402289
30
0
40
1.0000000002460798
210
0
220
-0
230
1
100
AcDbArc
50
66.651093040816122
51
180.00023389346805
0
ARC
5
203
100
AcDbEntity
8
0
100
AcDbCircle
10
2.4999936306167574
20
21.468158429625458
30
0
40
1.0000037301412317
210
0
220
0
230
1
100
AcDbArc
50
180.00021418320503
51
233.96854203203651
0
ARC
5
204
100
AcDbEntity
8
0
100
AcDbCircle
10
10.000096418239552
20
9.9999486578079608
30
0
40
3.2500142846345046
210
0
220
0
230
1
100
AcDbArc
50
224.99826705926108
51
224.99826705926108
0
CIRCLE
5
205
100
AcDbEntity
8
0
100
AcDbCircle
10
10.00009641813781
20
9.9999486576732384
30
0
40
1.4500000000000002
210
0
220
0
230
1
0
LINE
5
206
100
AcDbEntity
8
0
100
AcDbLine
10
-23.985094405196495
20
21.162468117641762
30
0
11
-23.985187997519816
21
21.162556247587801
31
0
0
LINE
5
207
100
AcDbEntity
8
0
100
AcDbLine
10
1.4999862036385303
20
31.197955948191172
30
0
11
1.4999899004825128
21
21.468154691409381
31
0
0
ARC
5
208
100
AcDbEntity
8
0
100
AcDbCircle
10
-9.2000908810933725e-07
20
18.031220470885
30
0
40
3.249998068095425
210
0
220
0
230
1
100
AcDbArc
50
-53.968082410458017
51
53.96813321326173
0
ARC
5
209
100
AcDbEntity
8
0
100
AcDbCircle
10
-66.774479724063951
20
77.983995120848121
30
0
40
7.0000199037369191
210
0
220
0
230
1
100
AcDbArc
50
269.99997706986562
51
296.73960341993364
0
ARC
5
210
100
AcDbEntity
8
0
100
AcDbCircle
10
-10.000000000000004
20
-9.9999999999999982
30
0
40
3.2499999999999982
210
0
220
0
230
-1
100
AcDbArc
50
81.031786448528891
51
188.96827302581619
0
ARC
5
211
100
AcDbEntity
8
0
100
AcDbCircle
10
-67.999965633068967
20
68.00001370742558
30
0
40
1.0000128245618922
210
0
220
0
230
1
100
AcDbArc
50
90.000659089771858
51
180.00142705806809
0
ARC
5
212
100
AcDbEntity
8
0
100
AcDbCircle
10
-10.00004259659802
20
9.9999486576800063
30
0
40
3.2500142843761672
210
0
220
0
230
1
100
AcDbArc
50
315.00173293937468
51
315.00173293937468
0
ARC
5
213
100
AcDbEntity
8
0
100
AcDbCircle
10
-62.499964571085556
20
68.500146067268616
30
0
40
0.9999999745419047
210
0
220
0
230
1
100
AcDbArc
50
-0.021046826419870858
51
180.0070179498903
0
ARC
5
214
100
AcDbEntity
8
0
100
AcDbCircle
10
4.4359795585793148e-05
20
18.031216058919387
30
0
40
3.2499944929582418
210
0
220
0
230
1
100
AcDbArc
50
-53.968089172178644
51
53.968374260034167
0
LINE
5
215
100
AcDbEntity
8
0
100
AcDbLine
10
1.5000259231649529
20
21.468150347353863
30
0
11
1.4999862036385303
21
31.197955948191172
31
0
0
CIRCLE
5
216
100
AcDbEntity
8
0
100
AcDbCircle
10
-62.4999529216241
20
62.500024011859743
30
0
40
1.9999820594082349
210
0
220
0
230
1
0
ARC
5
217
100
AcDbEntity
8
0
100
AcDbCircle
10
-62.499991756127436
20
69.500014218132719
30
0
40
2.4999369033625567
210
0
220
-0
230
1
100
AcDbArc
50
2.367586827588284e-05
51
116.74246785807294
0
ARC
5
218
100
AcDbEntity
8
0
100
AcDbCircle
10
10.000042596623093
20
9.9999486577415411
30
0
40
3.2500000000343632
210
0
220
0
230
-1
100
AcDbArc
50
81.031933042367243
51
188.96786422983072
0
ARC
5
219
100
AcDbEntity
8
0
100
AcDbCircle
10
-55.499993966085349
20
62.50006869472557
30
0
40
2.5000646031244815
210
0
220
-0
230
1
100
AcDbArc
50
16.931204757017163
51
89.998997728226499
0
LWPOLYLINE
5
220
100
AcDbEntity
8
0
100
AcDbPolyline
90
10
70
1
43
0.0
10
-19.905069507523461
20
-2.6554093784931974
42
-0.082033079294993663
10
-20.659464862952213
20
-1.9117647058823461
42
0.23993164795342653
10
-21.468154691473838
20
-1.4999999999999925
10
-21.946779073640169
20
-1.4999999999999902
42
0.41421356237308676
10
-22.946779073640165
20
-2.4999999999999933
10
-22.946779073640155
20
-18.411266113999428
42
0.6681788256020379
10
-21.239671925457131
20
-19.118372528189266
10
-19.776140027009887
20
-17.654839110561262
42
0.19888119123032913
10
-19.483247182325908
20
-16.947852136386313
10
-19.481637695353815
20
-3.4725778580444642
42
0.24376131793584421
0
LWPOLYLINE
5
221
100
AcDbEntity
8
0
100
AcDbPolyline
90
6
70
1
43
0.0
10
-69.000000000000043
20
-66.033520605161726
42
-0.50337011108930874
10
-67.838709677419388
20
-65.172284651821613
42
-0.25046591309410809
10
-65.172284651821613
20
-67.838709677419345
42
-0.5033701110892993
10
-66.033520605161769
20
-69
10
-68.000000000000014
20
-69
42
-0.41421356237309503
10
-69.000000000000028
20
-67.999999999999986
0
LWPOLYLINE
5
222
100
AcDbEntity
8
0
100
AcDbPolyline
90
10
70
1
43
0.0
10
21.468154691473838
20
-1.4999999999999991
10
21.946779073640169
20
-1.5000000000000024
42
-0.41421356237309148
10
22.946779073640169
20
-2.5
10
22.946779073640165
20
-18.411266113999435
42
-0.66817882560203612
10
21.239671925457127
20
-19.11837252818929
10
18.87411577207391
20
-16.752813919302753
42
-0.1989122324929429
10
18.58122292025697
20
-16.045707505112901
10
18.581222920256959
20
-3.9572717874818801
42
-0.30864594048871158
10
19.216517037904019
20
-3.0261490139567333
42
0.14311640572708811
10
20.65946486295222
20
-1.9117647058823533
42
-0.23993164795342428
0
LINE
5
223
100
AcDbEntity
8
0
100
AcDbLine
10
-28.95336842735313
20
26.832258814582293
30
0
11
-59.318001602084465
21
57.196703721432549
31
0
0
ARC
5
224
100
AcDbEntity
8
0
100
AcDbCircle
10
-69.499904027061334
20
62.500016711415682
30
0
40
2.4999945744388179
210
0
220
0
230
1
100
AcDbArc
50
156.76261604018976
51
270.00267647848199
0
ARC
5
225
100
AcDbEntity
8
0
100
AcDbCircle
10
10.00009641819759
20
9.9999486577505756
30
0
40
3.2500142845642572
210
0
220
0
230
1
100
AcDbArc
50
224.99826705906881
51
224.99826705906881
0
ARC
5
226
100
AcDbEntity
8
0
100
AcDbCircle
10
-51.19498413051695
20
63.810592159049939
30
0
40
2.0000000002879372
210
0
220
0
230
1
100
AcDbArc
50
196.9312047364316
51
244.04651371946923
0
LWPOLYLINE
5
227
100
AcDbEntity
8
0
100
AcDbPolyline
90
12
70
1
43
0.0
10
-65.499990921317021
20
-57.045228001661179
42
0.4142135623730846
10
-64.499990921317021
20
-58.045228001661187
10
-61.863602484558982
20
-58.045228001661187
42
0.23606798876243043
10
-59.318017500952685
20
-57.19670041749275
10
-28.953452205423552
20
-26.832155072547444
42
0.24153136048554177
10
-28.39403655543061
20
-25.094228880272311
42
-0.28499577162817469
10
-26.780112403343512
20
-21.197873108656999
42
0.241531360875439
10
-25.946779075071831
20
-19.573407383312198
10
-25.94677888402893
20
-2.4999994333021318
42
0.41421358568660555
10
-26.946778952436841
20
-1.4999994221126258
10
-64.499990989724424
20
-1.5000019910449103
42
0.41421354233692304
10
-65.499990921317021
20
-2.50000199104492
0
LINE
5
228
100
AcDbEntity
8
0
100
AcDbLine
10
-63.499964488256282
20
68.500023580944799
30
0
11
-63.499964687179684
21
66.999992043404376
31
0
0
LINE
5
229
100
AcDbEntity
8
0
100
AcDbLine
10
-52.070266821908923
20
62.012292903836446
30
0
11
-1.312890554198364
21
37.307254094387083
31
0
0
ARC
5
230
100
AcDbEntity
8
0
100
AcDbCircle
10
-62.49996476647074
20
67.000005942292745
30
0
40
0.99999992080553224
210
0
220
0
230
1
100
AcDbArc
50
180.00079634750011
51
359.99980902169386
0
ARC
5
231
100
AcDbEntity
8
0
100
AcDbCircle
10
-61.439317103541811
20
55.075378535781638
30
0
40
3.0000000000000213
210
0
220
-0
230
1
100
AcDbArc
50
45.000130782562117
51
98.130125063204616
0
ARC
5
232
100
AcDbEntity
8
0
100
AcDbCircle
10
-10.000042596669683
20
9.9999486578086749
30
0
40
3.2500142845178241
210
0
220
0
230
1
100
AcDbArc
50
315.00173293866396
51
315.00173293866396
0
LINE
5
233
100
AcDbEntity
8
0
100
AcDbLine
10
-61.49996484567076
20
67.000002609059464
30
0
11
-61.499964664011671
21
68.499778730868115
31
0
0
CIRCLE
5
234
100
AcDbEntity
8
0
100
AcDbCircle
10
-10.000042596476584
20
9.9999486577257208
30
0
40
1.4500000000000002
210
0
220
0
230
1
0
ARC
5
235
100
AcDbEntity
8
0
100
AcDbCircle
10
-21.946803042074343
20
2.5002300942741806
30
0
40
1.000000000000008
210
0
220
0
230
1
100
AcDbArc
50
179.99963920208575
51
269.99937122182058
0
LINE
5
236
100
AcDbEntity
8
0
100
AcDbLine
10
-55.499950232599105
20
65.000133298847459
30
0
11
-56.00015678627944
21
65.0001344376726
31
0
0
CIRCLE
5
237
100
AcDbEntity
8
0
100
AcDbCircle
10
-24.446752162664829
20
24.446804449936881
30
0
40
1.4499820593757209
210
0
220
0
230
1
0
LWPOLYLINE
5
238
100
AcDbEntity
8
0
100
AcDbPolyline
90
12
70
1
43
0.0
10
-14.594291149040073
20
-1.4999999999999951
42
0.23993164795342686
10
-15.402980977561693
20
-1.9117647058823479
42
-0.13560544690609694
10
-16.757271785677503
20
-2.9899077756184536
42
0.30059398496748058
10
-17.365286821190381
20
-3.9098778949741009
10
-17.365300235934338
20
-12.829779978675921
42
0.66817936944025358
10
-15.658193087752412
20
-13.536887896777339
10
-13.490935807959747
20
-11.369628367320301
42
0.2399322125897661
10
-13.210268142932735
20
-10.506634434746818
42
-0.50917642185780332
10
-9.4933688975860768
20
-6.7897313311707297
42
0.23993221258976893
10
-8.630375256352588
20
-6.5090627703361843
10
-5.3284223277115936
20
-3.20710641418985
42
0.66817845023659639
10
-6.0355294758946485
20
-1.4999999999999969
0
LINE
5
239
100
AcDbEntity
8
0
100
AcDbLine
10
-69.986542557022759
20
70.98397360419537
30
0
11
-66.774482525516319
21
70.983975217111762
31
0
0
LINE
5
240
100
AcDbEntity
8
0
100
AcDbLine
10
-67.999977136503077
20
69.000026531921307
30
0
11
-66.03349272663813
21
69.000025831899379
31
0
0
ARC
5
241
100
AcDbEntity
8
0
100
AcDbCircle
10
10.00009641819759
20
9.9999486577505756
30
0
40
3.2499999999999964
210
0
220
-0
230
1
100
AcDbArc
50
81.031933043237075
51
188.96786422969018
0
ARC
5
242
100
AcDbEntity
8
0
100
AcDbCircle
10
-68.099977207736913
20
66.033532530838372
30
0
40
0.90000111692160256
210
0
220
0
230
1
100
AcDbArc
50
180.00291494577618
51
286.87782602733563
0
ARC
5
243
100
AcDbEntity
8
0
100
AcDbCircle
10
-67.000000158926383
20
-62.499999752716647
30
0
40
1.0000002368719358
210
0
220
0
230
1
100
AcDbArc
50
-89.999990894191939
51
89.999990894191967
0
LINE
5
244
100
AcDbEntity
8
0
100
AcDbLine
10
23.38627689070735
20
-25.507622610497389
30
0
11
23.386119255518732
21
-25.507464975413896
31
0
0
ARC
5
245
100
AcDbEntity
8
0
100
AcDbCircle
10
10.000000000000004
20
-10.000000000000004
30
0
40
3.2500000000000067
210
0
220
0
230
1
100
AcDbArc
50
135.00009966194364
51
135.00009966194364
0
ARC
5
246
100
AcDbEntity
8
0
100
AcDbCircle
10
-68.500000087206857
20
-62.49999972442707
30
0
40
1.0000002649618751
210
0
220
-0
230
1
100
AcDbArc
50
89.999995003417297
51
270.00000499658273
0
ARC
5
247
100
AcDbEntity
8
0
100
AcDbCircle
10
-10.000042596687956
20
9.9999486578165317
30
0
40
3.2499463259299866
210
0
220
0
230
1
100
AcDbArc
50
171.03146613645501
51
278.96872640618687
0
LINE
5
248
100
AcDbEntity
8
0
100
AcDbLine
10
-70.986553378953516
20
69.984000704656623
30
0
11
-70.986552277539246
21
67.430449538514083
31
0
0
LINE
5
249
100
AcDbEntity
8
0
100
AcDbLine
10
-68.99997845732068
20
67.999988800244267
30
0
11
-68.999978323493764
21
66.033486742920388
31
0
0
LINE
5
250
100
AcDbEntity
8
0
100
AcDbLine
10
-69.500100000000501
20
-59.999999999999986
30
0
11
-69.500000000000512
21
-60
31
0
0
LINE
5
251
100
AcDbEntity
8
0
100
AcDbLine
10
-67.000000000000014
20
-61.499999515844728
30
0
11
-68.500000000000014
21
-61.499999459465194
31
0
0
LINE
5
252
100
AcDbEntity
8
0
100
AcDbLine
10
1.4999999999999996
20
-31.197808926752906
30
0
11
1.5
21
-21.468154691473849
31
0
0
ARC
5
253
100
AcDbEntity
8
0
100
AcDbCircle
10
-66.03341175237351
20
68.100099756972568
30
0
40
0.89992608207573577
210
0
220
0
230
1
100
AcDbArc
50
-16.884139262059662
51
90.005155405237474
0
ARC
5
254
100
AcDbEntity
8
0
100
AcDbCircle
10
-66.774511769372936
20
-77.984017275647872
30
0
40
6.999999999999952
210
0
220
-0
230
1
100
AcDbArc
50
63.259613303599522
51
90.000000000000114
0
ARC
5
255
100
AcDbEntity
8
0
100
AcDbCircle
10
-80.986545096298656
20
-67.430444376630561
30
0
40
9.9999999999712053
210
0
220
0
230
1
100
AcDbArc
50
0
51
23.23077542088048
0
LINE
5
256
100
AcDbEntity
8
0
100
AcDbLine
10
-68.500000000000014
20
-63.49999998938894
30
0
11
-67.000000000000014
21
-63.499999989588574
31
0
0
ARC
5
257
100
AcDbEntity
8
0
100
AcDbCircle
10
-69.986561626032426
20
69.983981851460172
30
0
40
0.99999175291701159
210
0
220
-0
230
1
100
AcDbArc
50
89.998907417215889
51
179.99891978299024
0
LINE
5
258
100
AcDbEntity
8
0
100
AcDbLine
10
-69.986545096302109
20
-70.984017275649563
30
0
11
-66.77451176937295
21
-70.984017275647915
31
0
0
ARC
5
259
100
AcDbEntity
8
0
100
AcDbCircle
10
2.7755575615628914e-15
20
-18.031222920256958
30
0
40
3.2500000000000009
210
-0
220
0
230
1
100
AcDbArc
50
-53.968120927529441
51
53.968120927529327
0
ARC
5
260
100
AcDbEntity
8
0
100
AcDbCircle
10
-2.5000000000000222
20
-21.468154691473849
30
0
40
1.0000000000000204
210
0
220
0
230
-1
100
AcDbArc
50
0
51
53.968120927528879
0
LINE
5
261
100
AcDbEntity
8
0
100
AcDbLine
10
-69.499787243910248
20
60.000022142082123
30
0
11
-69.499998317603854
21
60.000022142437217
31
0
0
ARC
5
262
100
AcDbEntity
8
0
100
AcDbCircle
10
10
20
-10
30
0
40
3.25
210
0
220
0
230
1
100
AcDbArc
50
135.00009966194364
51
135.00009966194364
0
ARC
5
263
100
AcDbEntity
8
0
100
AcDbCircle
10
-9.9999999999999964
20
-9.9999999999999964
30
0
40
3.2499999999999982
210
0
220
-0
230
1
100
AcDbArc
50
81.031786448528877
51
188.96827302581625
0
ARC
5
264
100
AcDbEntity
8
0
100
AcDbCircle
10
2.4999999999999911
20
-14.594291149040091
30
0
40
0.99999999999998757
210
0
220
0
230
1
100
AcDbArc
50
180
51
233.9681209275299
0
ARC
5
265
100
AcDbEntity
8
0
100
AcDbCircle
10
-69.500000000000497
20
-58.999999999999524
30
0
40
1.0000000000004761
210
0
220
0
230
1
100
AcDbArc
50
-90.00000000000081
51
0
0
CIRCLE
5
266
100
AcDbEntity
8
0
100
AcDbCircle
10
-9.9999999999999964
20
-9.9999999999999964
30
0
40
1.4500000000000002
210
0
220
0
230
1
0
ARC
5
267
100
AcDbEntity
8
0
100
AcDbCircle
10
-18.031196009433227
20
0.0001674585675907821
30
0
40
3.2500033898522416
210
0
220
0
230
1
100
AcDbArc
50
125.19625158209104
51
143.96712725325085
0
ARC
5
268
100
AcDbEntity
8
0
100
AcDbCircle
10
-69.500000000000014
20
0
30
0
40
1.5000000000000004
210
0
220
0
230
1
100
AcDbArc
50
-36.86989764584478
51
36.86989764584456
0
LINE
5
269
100
AcDbEntity
8
0
100
AcDbLine
10
-19.772088997897807
20
17.650814827121085
30
0
11
-21.23959669490652
21
19.118336642911409
31
0
0
ARC
5
270
100
AcDbEntity
8
0
100
AcDbCircle
10
55.500000000000007
20
-62.500000000000007
30
0
40
2.5000000000000018
210
0
220
0
230
1
100
AcDbArc
50
196.93126965606032
51
270
0
LINE
5
271
100
AcDbEntity
8
0
100
AcDbLine
10
23.38623843882846
20
25.507681775033177
30
0
11
23.386075888278732
21
25.507519224601051
31
0
0
LINE
5
272
100
AcDbEntity
8
0
100
AcDbLine
10
-19.481222909914166
20
0.00017318802161171956
30
0
11
-19.481222930599746
21
5.5206219370246279e-15
31
0
0
ARC
5
273
100
AcDbEntity
8
0
100
AcDbCircle
10
-20.480808099110366
20
3.4731963130206078
30
0
40
1.0000000000000129
210
0
220
0
230
1
100
AcDbArc
50
305.19625158209078
51
359.99315659130127
0
ARC
5
274
100
AcDbEntity
8
0
100
AcDbCircle
10
-20.479199180570507
20
16.943711447437035
30
0
40
1.0000000000000051
210
0
220
0
230
1
100
AcDbArc
50
-0.0068434086987419328
51
44.999724382124363
0
CIRCLE
5
275
100
AcDbEntity
8
0
100
AcDbCircle
10
0.00017740308777613808
20
-0.00020924625910098346
30
0
40
1.5000000000000002
210
0
220
0
230
1
0
CIRCLE
5
276
100
AcDbEntity
8
0
100
AcDbCircle
10
24.446779073640172
20
-24.446804449975801
30
0
40
1.45
210
0
220
0
230
1
0
ARC
5
277
100
AcDbEntity
8
0
100
AcDbCircle
10
69.000033749974719
20
68.999987365852348
30
0
40
3.9999784034714061
210
0
220
0
230
1
100
AcDbArc
50
196.87690527224186
51
253.12246589797368
0
ARC
5
278
100
AcDbEntity
8
0
100
AcDbCircle
10
55.50004778734948
20
62.500068694749331
30
0
40
2.5000646044806718
210
0
220
0
230
1
100
AcDbArc
50
90.001002269214425
51
163.06879525042947
0
LINE
5
279
100
AcDbEntity
8
0
100
AcDbLine
10
-19.480808106243312
20
3.4730768730070394
30
0
11
-19.479199187703461
21
16.943592007423469
31
0
0
ARC
5
280
100
AcDbEntity
8
0
100
AcDbCircle
10
-30.367577600680885
20
25.418040863814131
30
0
40
1.9999999999999971
210
0
220
0
230
1
100
AcDbArc
50
-9.3149472541585059
51
45.000177805638309
0
LINE
5
281
100
AcDbEntity
8
0
100
AcDbLine
10
-26.9467438294574
20
1.5000131669458194
30
0
11
-64.499990852908851
21
1.500010598201702
31
0
0
ARC
5
282
100
AcDbEntity
8
0
100
AcDbCircle
10
62.5
20
-69.5
30
0
40
2.5
210
0
220
0
230
1
100
AcDbArc
50
180
51
296.74038669640072
0
LINE
5
283
100
AcDbEntity
8
0
100
AcDbLine
10
70.986545095892282
20
-69.984017275799516
30
0
11
70.986545095905967
21
-67.430444376182223
31
0
0
ARC
5
284
100
AcDbEntity
8
0
100
AcDbCircle
10
67.499999541734255
20
-1.5038501445234578
30
0
40
0.99999999999988098
210
0
220
0
230
1
100
AcDbArc
50
0
51
36.870086814739167
0
LINE
5
285
100
AcDbEntity
8
0
100
AcDbLine
10
55.500000000000007
20
-65.000000000000014
30
0
11
56.000000000000014
21
-65
31
0
0
ARC
5
286
100
AcDbEntity
8
0
100
AcDbCircle
10
-9.9999999999999964
20
-9.9999999999999964
30
0
40
3.2500000000000022
210
0
220
0
230
1
100
AcDbArc
50
-98.967968829052694
51
8.9680283033977037
0
ARC
5
287
100
AcDbEntity
8
0
100
AcDbCircle
10
69.499999659067853
20
-59.000100017536269
30
0
40
0.99999999999997868
210
0
220
0
230
1
100
AcDbArc
50
180
51
270.81033181972384
0
ARC
5
288
100
AcDbEntity
8
0
100
AcDbCircle
10
-24.446696461584921
20
24.446873275974074
30
0
40
3.9999999955811276
210
0
220
0
230
1
100
AcDbArc
50
170.68505279603326
51
234.31448494839753
0
ARC
5
289
100
AcDbEntity
8
0
100
AcDbCircle
10
10.000000000000004
20
-10.000000000000004
30
0
40
3.250000000000004
210
0
220
0
230
1
100
AcDbArc
50
171.03197169660223
51
278.96796882905255
0
ARC
5
290
100
AcDbEntity
8
0
100
AcDbCircle
10
69.500000000340691
20
-62.500000004806324
30
0
40
2.4999999972378215
210
0
220
0
230
1
100
AcDbArc
50
-23.230775322501646
51
90.000000007807742
0
ARC
5
291
100
AcDbEntity
8
0
100
AcDbCircle
10
-69.500000000000014
20
59.00002214243866
30
0
40
0.99999999999998757
210
0
220
0
230
1
100
AcDbArc
50
0
51
89.999903605800554
0
ARC
5
292
100
AcDbEntity
8
0
100
AcDbCircle
10
-26.946743897865176
20
2.5000131669458225
30
0
40
1.0000000000000056
210
0
220
0
230
1
100
AcDbArc
50
270.0000039194768
51
359.99989228908623
0
ARC
5
293
100
AcDbEntity
8
0
100
AcDbCircle
10
-9.9999999999999964
20
-9.9999999999999964
30
0
40
3.2500000000000009
210
0
220
-0
230
1
100
AcDbArc
50
44.999900338056328
51
44.999900338056328
0
LINE
5
294
100
AcDbEntity
8
0
100
AcDbLine
10
68.000030957893159
20
69.000026531875974
30
0
11
66.033546548014314
21
69.000025831899393
31
0
0
ARC
5
295
100
AcDbEntity
8
0
100
AcDbCircle
10
69.499987690835212
20
59.000022139333709
30
0
40
0.99999999981829024
210
0
220
-0
230
1
100
AcDbArc
50
89.998923169625542
51
180.00001170635443
0
LINE
5
296
100
AcDbEntity
8
0
100
AcDbLine
10
-65.499990921317021
20
2.5000105982020604
30
0
11
-65.499990921316964
21
57.045226849540178
31
0
0
ARC
5
297
100
AcDbEntity
8
0
100
AcDbCircle
10
69.499996028730749
20
-0.0038424617059485498
30
0
40
1.5000017993014703
210
0
220
0
230
1
100
AcDbArc
50
143.1299166634237
51
216.87008681473966
0
LINE
5
298
100
AcDbEntity
8
0
100
AcDbLine
10
-25.946743897866938
20
2.5000112870357372
30
0
11
-25.946711800771357
21
19.573481509701981
31
0
0
LINE
5
299
100
AcDbEntity
8
0
100
AcDbLine
10
60.000000000000014
20
-69
30
0
11
60
21
-69.5
31
0
0
LINE
5
300
100
AcDbEntity
8
0
100
AcDbLine
10
69.500000000000014
20
-60.000000007568495
30
0
11
69.514142145873635
21
-60.000000007568715
31
0
0
ARC
5
301
100
AcDbEntity
8
0
100
AcDbCircle
10
-67.499999999999986
20
1.5000000000000135
30
0
40
1.0000000000000409
210
0
220
0
230
1
100
AcDbArc
50
180
51
216.86989764584288
0
ARC
5
302
100
AcDbEntity
8
0
100
AcDbCircle
10
-27.946711800626396
20
19.573487119873306
30
0
40
1.9999999998629105
210
0
220
0
230
1
100
AcDbArc
50
-0.00016071821181214791
51
54.314484948397599
0
LINE
5
303
100
AcDbEntity
8
0
100
AcDbLine
10
68.499999659067896
20
-59.000100019576976
30
0
11
68.499999541734141
21
-1.503850128955726
31
0
0
LINE
5
304
100
AcDbEntity
8
0
100
AcDbLine
10
24.442934420810936
20
-1.3909282999353545
30
0
11
24.446779071738241
21
-1.3909381501626426
31
0
0
ARC
5
305
100
AcDbEntity
8
0
100
AcDbCircle
10
-64.499990921316652
20
2.5000105982020604
30
0
40
1.0000000000003606
210
0
220
0
230
1
100
AcDbArc
50
180
51
270.00000391947827
0
CIRCLE
5
306
100
AcDbEntity
8
0
100
AcDbCircle
10
62.5
20
-62.500000000000007
30
0
40
2
210
0
220
0
230
1
0
LINE
5
307
100
AcDbEntity
8
0
100
AcDbLine
10
-68.500000000000028
20
-1.5000000000000169
30
0
11
-68.500000000000028
21
-58.999999999999524
31
0
0
CIRCLE
5
308
100
AcDbEntity
8
0
100
AcDbCircle
10
18.031249830774058
20
0.00017850896732701793
30
0
40
1
210
0
220
0
230
1
0
CIRCLE
5
309
100
AcDbEntity
8
0
100
AcDbCircle
10
0
20
-18.031222920256962
30
0
40
1
210
0
220
0
230
1
0
CIRCLE
5
310
100
AcDbEntity
8
0
100
AcDbCircle
10
-18.031196009433216
20
0.00016745856759869948
30
0
40
0.99999999999999889
210
0
220
0
230
1
0
CIRCLE
5
311
100
AcDbEntity
8
0
100
AcDbCircle
10
4.4359795585793148e-05
20
18.031216058919387
30
0
40
1
210
0
220
0
230
1
0
ENDSEC
0
SECTION
2
OBJECTS
0
DICTIONARY
5
C
100
AcDbDictionary
3
ACAD_GROUP
350
D
3
ACAD_MLINESTYLE
350
17
0
DICTIONARY
5
D
100
AcDbDictionary
0
DICTIONARY
5
1A
330
C
100
AcDbDictionary
0
DICTIONARY
5
17
100
AcDbDictionary
0
ENDSEC
0
EOF
