0
SECTION
2
HEADER
9
$INSUNITS
70
4
9
$ACADVER
1
AC1014
9
$HANDSEED
5
FFFF
0
ENDSEC
0
SECTION
2
TABLES
0
TABLE
2
VPORT
5
8
100
AcDbSymbolTable
0
ENDTAB
0
TABLE
2
LTYPE
5
5
100
AcDbSymbolTable
0
LTYPE
5
14
100
AcDbSymbolTableRecord
100
AcDbLinetypeTableRecord
2
BYBLOCK
70
0
0
LTYPE
5
15
100
AcDbSymbolTableRecord
100
AcDbLinetypeTableRecord
2
BYLAYER
70
0
0
ENDTAB
0
TABLE
2
LAYER
5
2
100
AcDbSymbolTable
70
2
0
LAYER
5
50
100
AcDbSymbolTableRecord
100
AcDbLayerTableRecord
2
0
70
0
6
CONTINUOUS
0
ENDTAB
0
TABLE
2
STYLE
5
3
100
AcDbSymbolTable
70
1
0
STYLE
5
11
100
AcDbSymbolTableRecord
100
AcDbTextStyleTableRecord
2
STANDARD
70
0
0
ENDTAB
0
TABLE
2
VIEW
5
6
100
AcDbSymbolTable
70
0
0
ENDTAB
0
TABLE
2
UCS
5
7
100
AcDbSymbolTable
70
0
0
ENDTAB
0
TABLE
2
APPID
5
9
100
AcDbSymbolTable
70
2
0
APPID
5
12
100
AcDbSymbolTableRecord
100
AcDbRegAppTableRecord
2
ACAD
70
0
0
ENDTAB
0
TABLE
2
DIMSTYLE
5
A
100
AcDbSymbolTable
70
1
0
ENDTAB
0
TABLE
2
BLOCK_RECORD
5
1
100
AcDbSymbolTable
70
1
0
BLOCK_RECORD
5
1F
100
AcDbSymbolTableRecord
100
AcDbBlockTableRecord
2
*MODEL_SPACE
0
BLOCK_RECORD
5
1B
100
AcDbSymbolTableRecord
100
AcDbBlockTableRecord
2
*PAPER_SPACE
0
ENDTAB
0
ENDSEC
0
SECTION
2
BLOCKS
0
BLOCK
5
20
100
AcDbEntity
100
AcDbBlockBegin
2
*MODEL_SPACE
0
ENDBLK
5
21
100
AcDbEntity
100
AcDbBlockEnd
0
BLOCK
5
1C
100
AcDbEntity
100
AcDbBlockBegin
2
*PAPER_SPACE
0
ENDBLK
5
1D
100
AcDbEntity
100
AcDbBlockEnd
0
ENDSEC
0
SECTION
2
ENTITIES
0
LWPOLYLINE
5
100
100
AcDbEntity
8
0
100
AcDbPolyline
90
27
70
1
43
0.0
10
-65.774424524478746
20
-60.984250367551809
42
-0.14466027134002341
10
-64.810704785498203
20
-64.245520232568467
10
-64.810704785498203
20
-67.43438568046534
42
0.41421356237309243
10
-62.810704785498203
20
-69.43438568046534
10
-58.733394168973909
20
-69.43438568046534
42
-0.10413938192576563
10
-56.313917494856952
20
-69.943836288700993
42
0.541854899990869
10
-52.104179416609931
20
-67.197315451311169
42
-0.39671738916156785
10
-47.257992955750694
20
-62.0464561003635
42
0.59141400665900967
10
-44.726988517847133
20
-57.43781162194491
10
-44.918345287386131
20
-57.21358540454176
42
-0.39654769324501421
10
-44.718650873205938
20
-53.106471817741294
10
-42.647714955429656
20
-51.109732806077844
10
-0.010394824300720038
20
-10.000010516831557
10
-1.3552527156068805e-19
20
-9.9896355793598364
10
8.8786892938183096e-17
20
-1.45
42
-0.41421356237309503
10
-1.4500000000000002
20
0
10
-18.327604147850728
20
0
10
-18.32760492219208
20
-0.0045676240339553855
42
-0.20718592978544451
10
-27.004858264655418
20
-20.037090188651582
42
0.034510769177843716
10
-27.94303547024392
20
-21.047477066336601
10
-48.100107806507836
20
-46.006442958389329
10
-49.794247764516541
20
-48.104167306593965
42
-0.41456514419427243
10
-54.015859721711351
20
-48.550929602657142
10
-54.033546206035552
20
-48.536610740800782
42
0.56211071846952521
10
-58.4113379816106
20
-51.202746118385861
10
-58.411097569806955
20
-51.786307865099545
42
-0.39671495706751841
10
-63.257526336793426
20
-56.353615692113827
42
0.59435612747559885
0
LWPOLYLINE
5
101
100
AcDbEntity
8
0
100
AcDbPolyline
90
4
70
1
43
0.0
10
-47.259667015518403
20
-57.996456446348212
10
-49.140607476587363
20
-57.997233929563102
42
0.99999999999999989
10
-49.139739445596703
20
-60.09723375016361
10
-47.258798984527729
20
-60.096456266948735
42
0.99999999999999989
0
LWPOLYLINE
5
102
100
AcDbEntity
8
0
100
AcDbPolyline
90
4
70
1
43
0.0
10
-56.460563237788762
20
-53.082912915251093
42
0.99999999999999989
10
-54.360563415996744
20
-53.082047771592087
10
-54.361338325297446
20
-51.201077627043432
42
0.99999999999999989
10
-56.461338147089464
20
-51.201942770702487
0
LWPOLYLINE
5
103
100
AcDbEntity
8
0
100
AcDbPolyline
90
4
70
1
43
0.0
10
-56.154960355320362
20
-65.318100507875386
10
-56.154179067214471
20
-67.198997742346492
42
0.99999999999999989
10
-54.054179248382468
20
-67.198125443291133
10
-54.05496053648838
20
-65.31722820882004
42
0.99999999999999989
0
LWPOLYLINE
5
104
100
AcDbEntity
8
0
100
AcDbPolyline
90
4
70
1
43
0.0
10
-63.256719073957569
20
-58.303615525018103
42
0.99999999999999989
10
-63.255849713980453
20
-60.403615345068864
10
-61.3749227946508
20
-60.402836677105228
42
0.99999999999999989
10
-61.375792154627916
20
-58.302836857054487
0
LWPOLYLINE
5
105
100
AcDbEntity
8
0
100
AcDbPolyline
90
7
70
1
43
0.0
10
-62.369132706014568
20
-63.611844681300994
42
-0.59281799761487297
10
-61.202959341549281
20
-63.226326483072882
10
-60.034269144157307
20
-64.317192840232678
10
-58.998688743993654
20
-65.283813268121577
42
-0.57985646631966214
10
-59.277026224079023
20
-66.466559440474356
10
-61.069760321420723
20
-66.999031117684325
42
-0.5596187781991081
10
-62.718598392412012
20
-65.518464880024254
0
CIRCLE
5
106
100
AcDbEntity
8
0
100
AcDbCircle
10
-55.257833502816418
20
-59.20000000000001
30
0
40
3.0000000000000022
210
-0
220
0
230
1
0
CIRCLE
5
107
100
AcDbEntity
8
0
100
AcDbCircle
10
-10
20
-10
30
0
40
1.5000000000000002
210
0
220
0
230
1
0
LINE
5
108
100
AcDbEntity
8
0
100
AcDbLine
10
-61.702762233976912
20
-64.997553377435082
30
0
11
-61.702831195931239
21
-64.997480960248879
31
0
0
LINE
5
109
100
AcDbEntity
8
0
100
AcDbLine
10
-45.354895492751233
20
-53.719921245076137
30
0
11
-45.355058296373841
21
-53.720225698308788
31
0
0
CIRCLE
5
110
100
AcDbEntity
8
0
100
AcDbCircle
10
-15.250000000000002
20
-15.250000000000002
30
0
40
3.0499999999999954
210
0
220
0
230
1
0
CIRCLE
5
111
100
AcDbEntity
8
0
100
AcDbCircle
10
-24.5
20
-24.5
30
0
40
1.5000000000000002
210
0
220
0
230
1
0
ENDSEC
0
SECTION
2
OBJECTS
0
DICTIONARY
5
C
100
AcDbDictionary
3
ACAD_GROUP
350
D
3
ACAD_MLINESTYLE
350
17
0
DICTIONARY
5
D
100
AcDbDictionary
0
DICTIONARY
5
1A
330
C
100
AcDbDictionary
0
DICTIONARY
5
17
100
AcDbDictionary
0
ENDSEC
0
EOF
