0
SECTION
2
HEADER
9
$INSUNITS
70
4
9
$ACADVER
1
AC1014
9
$HANDSEED
5
FFFF
0
ENDSEC
0
SECTION
2
TABLES
0
TABLE
2
VPORT
5
8
100
AcDbSymbolTable
0
ENDTAB
0
TABLE
2
LTYPE
5
5
100
AcDbSymbolTable
0
LTYPE
5
14
100
AcDbSymbolTableRecord
100
AcDbLinetypeTableRecord
2
BYBLOCK
70
0
0
LTYPE
5
15
100
AcDbSymbolTableRecord
100
AcDbLinetypeTableRecord
2
BYLAYER
70
0
0
ENDTAB
0
TABLE
2
LAYER
5
2
100
AcDbSymbolTable
70
2
0
LAYER
5
50
100
AcDbSymbolTableRecord
100
AcDbLayerTableRecord
2
0
70
0
6
CONTINUOUS
0
ENDTAB
0
TABLE
2
STYLE
5
3
100
AcDbSymbolTable
70
1
0
STYLE
5
11
100
AcDbSymbolTableRecord
100
AcDbTextStyleTableRecord
2
STANDARD
70
0
0
ENDTAB
0
TABLE
2
VIEW
5
6
100
AcDbSymbolTable
70
0
0
ENDTAB
0
TABLE
2
UCS
5
7
100
AcDbSymbolTable
70
0
0
ENDTAB
0
TABLE
2
APPID
5
9
100
AcDbSymbolTable
70
2
0
APPID
5
12
100
AcDbSymbolTableRecord
100
AcDbRegAppTableRecord
2
ACAD
70
0
0
ENDTAB
0
TABLE
2
DIMSTYLE
5
A
100
AcDbSymbolTable
70
1
0
ENDTAB
0
TABLE
2
BLOCK_RECORD
5
1
100
AcDbSymbolTable
70
1
0
BLOCK_RECORD
5
1F
100
AcDbSymbolTableRecord
100
AcDbBlockTableRecord
2
*MODEL_SPACE
0
BLOCK_RECORD
5
1B
100
AcDbSymbolTableRecord
100
AcDbBlockTableRecord
2
*PAPER_SPACE
0
ENDTAB
0
ENDSEC
0
SECTION
2
BLOCKS
0
BLOCK
5
20
100
AcDbEntity
100
AcDbBlockBegin
2
*MODEL_SPACE
0
ENDBLK
5
21
100
AcDbEntity
100
AcDbBlockEnd
0
BLOCK
5
1C
100
AcDbEntity
100
AcDbBlockBegin
2
*PAPER_SPACE
0
ENDBLK
5
1D
100
AcDbEntity
100
AcDbBlockEnd
0
ENDSEC
0
SECTION
2
ENTITIES
0
LWPOLYLINE
5
100
100
AcDbEntity
8
0
100
AcDbPolyline
90
8
70
1
43
0.0
10
0.65013341972434469
20
-10.863978877489181
10
3.5272564523231562
20
-13.741101910087995
42
-0.41421356237309548
10
3.5272564523231562
20
-16.569529034834186
10
1.3858268357070842
20
-18.710958651450255
42
-0.41421356237309503
10
-1.4426002890391054
20
-18.710958651450255
10
-3.6126165404513699
20
-16.540942400037991
42
-0.41421356237309442
10
-3.6126165404513699
20
-13.712515275291807
10
-0.76408014264875035
20
-10.863978877489181
42
-0.41421356237309837
0
LWPOLYLINE
5
101
100
AcDbEntity
8
0
100
AcDbPolyline
90
6
70
1
43
0.0
10
0.64059603608215254
20
4.3936387394744427
42
-0.4683749459844414
10
-0.89584652311259894
20
4.3936387394744427
10
-5.8958465231126036
20
10.393638739474442
42
-0.63587823604670812
10
-5.1276252435152241
20
12.033823139138928
10
4.8723747564847812
20
12.033823139138924
42
-0.6358782360467079
10
5.6405960360821537
20
10.393638739474447
0
CIRCLE
5
102
100
AcDbEntity
8
0
100
AcDbCircle
10
15.250000000000005
20
15.250000000000005
30
0
40
3.0500000000000012
210
0
220
0
230
1
0
ARC
5
103
100
AcDbEntity
8
0
100
AcDbCircle
10
-24.253579433393327
20
39.981549322597132
30
0
40
10.536516294877234
210
0
220
0
230
1
100
AcDbArc
50
268.94935441034505
51
332.56011164393777
0
LWPOLYLINE
5
104
100
AcDbEntity
8
0
100
AcDbPolyline
90
6
70
1
43
0.0
10
-5.0842647000204266
20
41.953876241247023
10
-2.6749016730009334
20
38.973460639237743
42
-0.35776025167983705
10
-2.6841651442424075
20
37.704832534453175
10
-9.6874787318013507
20
29.295836157058694
42
-0.80053158031694027
10
-11.424025813028171
20
30.186212858004453
10
-8.5758858049570055
20
41.197373433569396
42
-0.61608102607266479
0
ARC
5
105
100
AcDbEntity
8
0
100
AcDbCircle
10
-0.12762524351522275
20
5.0338231391389243
30
0
40
1.0000000000000018
210
0
220
0
230
1
100
AcDbArc
50
219.80557109226527
51
320.19442890773473
0
LWPOLYLINE
5
106
100
AcDbEntity
8
0
100
AcDbPolyline
90
6
70
1
43
0.0
10
10.232190356820299
20
-5.7343981404584525
42
0.63587823604671057
10
11.872374756484776
20
-4.9661768608610792
10
11.872374756484787
20
5.0338231391389234
42
0.63587823604671201
10
10.232190356820301
20
5.8020444187363021
10
4.2321903568202979
20
0.80204441873630095
42
0.46837494598444307
10
4.2321903568202979
20
-0.73439814045845375
0
LWPOLYLINE
5
107
100
AcDbEntity
8
0
100
AcDbPolyline
90
8
70
1
43
0.0
10
12.140528888653927
20
-40.505094839600247
10
10.040528888653913
20
-40.505094839600261
42
0.99999999999999989
10
10.040528888653926
20
-42.105094839600241
10
10.040528888653926
20
-43.905094839600238
42
0.99999999999999989
10
10.040528888653926
20
-45.50509483960024
10
12.140528888653927
20
-45.50509483960024
42
0.99999999999999989
10
12.140528888653927
20
-43.905094839600238
10
12.140528888653924
20
-42.105094839600248
42
0.99999999999999989
0
LWPOLYLINE
5
108
100
AcDbEntity
8
0
100
AcDbPolyline
90
6
70
1
43
0.0
10
9.5014182147202106
20
29.210492637121071
10
2.5743010369915931
20
37.681152142601974
42
-0.3578169608241894
10
2.5765289229331101
20
38.949967563366449
10
5.044218692636341
20
41.94599123331372
42
-0.61722384389899454
10
8.5303544921637879
20
41.151113152411511
10
11.246714000425442
20
30.08186901743445
42
-0.79909152135334993
0
CIRCLE
5
109
100
AcDbEntity
8
0
100
AcDbCircle
10
-9.9999999999999982
20
10
30
0
40
2.5499999999999998
210
0
220
0
230
1
0
ARC
5
110
100
AcDbEntity
8
0
100
AcDbCircle
10
21.038305843620545
20
9.9104175761858002
30
0
40
0.99999999999982647
210
0
220
0
230
1
100
AcDbArc
50
137.30915659126191
51
157.55987965309311
0
LWPOLYLINE
5
111
100
AcDbEntity
8
0
100
AcDbPolyline
90
6
70
1
43
0.0
10
-0.8064008603018411
20
41.810444958764322
42
0.46983730749888653
10
0.73309182782219207
20
41.803706552782494
10
3.6636813448257328
20
45.306290621871966
42
0.63669105559363981
10
2.8963945084810123
20
46.947994640106423
10
-2.9114389562113145
20
46.946051900602896
42
0.63338529052479908
10
-3.6836448079906292
20
45.311086288350268
0
CIRCLE
5
112
100
AcDbEntity
8
0
100
AcDbCircle
10
9.9999999999999982
20
-10
30
0
40
2.125
210
0
220
0
230
1
0
CIRCLE
5
113
100
AcDbEntity
8
0
100
AcDbCircle
10
-15.250000000000005
20
15.250000000000005
30
0
40
2.0499999999999989
210
0
220
0
230
1
0
LWPOLYLINE
5
114
100
AcDbEntity
8
0
100
AcDbPolyline
90
6
70
1
43
0.0
10
-4.4874408438507416
20
0.80204441873630294
10
-10.487440843850745
20
5.8020444187363012
42
0.63587823604671823
10
-12.127625243515228
20
5.0338231391389261
10
-12.127625243515228
20
-4.9661768608610757
42
0.63587823604671201
10
-10.487440843850743
20
-5.7343981404584534
10
-4.4874408438507407
20
-0.73439814045845331
42
0.46837494598444313
0
ARC
5
115
100
AcDbEntity
8
0
100
AcDbCircle
10
-10.872374756484788
20
5.0338231391389323
30
0
40
1.0000000000000024
210
0
220
0
230
-1
100
AcDbArc
50
50.194428907734228
51
180
0
CIRCLE
5
116
100
AcDbEntity
8
0
100
AcDbCircle
10
-15.250000000000005
20
15.250000000000005
30
0
40
3.0499999999999994
210
0
220
0
230
1
0
CIRCLE
5
117
100
AcDbEntity
8
0
100
AcDbCircle
10
9.9999999999999982
20
10
30
0
40
2.5499999999999998
210
0
220
0
230
1
0
CIRCLE
5
118
100
AcDbEntity
8
0
100
AcDbCircle
10
-15.250000000000005
20
-15.250000000000005
30
0
40
2.0499999999999998
210
0
220
0
230
1
0
ARC
5
119
100
AcDbEntity
8
0
100
AcDbCircle
10
24.311875350467737
20
40.211949028262453
30
0
40
10.780974830978479
210
0
220
0
230
1
100
AcDbArc
50
207.86257528056746
51
270.79018882378779
0
ARC
5
120
100
AcDbEntity
8
0
100
AcDbCircle
10
4.8723747564847777
20
0.033823139138923347
30
0
40
1.0000000000000013
210
0
220
0
230
1
100
AcDbArc
50
129.80557109226515
51
230.19442890773487
0
ARC
5
121
100
AcDbEntity
8
0
100
AcDbCircle
10
21.016152941078552
20
-9.8569178474089192
30
0
40
0.99999999999987521
210
0
220
0
230
1
100
AcDbArc
50
202.31169967097284
51
223.12263776489351
0
CIRCLE
5
122
100
AcDbEntity
8
0
100
AcDbCircle
10
9.9999999999999982
20
10
30
0
40
2.125
210
0
220
0
230
1
0
CIRCLE
5
123
100
AcDbEntity
8
0
100
AcDbCircle
10
9.9999999999999982
20
-10
30
0
40
2.5499999999999998
210
0
220
0
230
1
0
ARC
5
124
100
AcDbEntity
8
0
100
AcDbCircle
10
15.250000000000005
20
15.250000000000005
30
0
40
6.8750000000000018
210
0
220
0
230
1
100
AcDbArc
50
317.30915659126367
51
348.4659354974595
0
ARC
5
125
100
AcDbEntity
8
0
100
AcDbCircle
10
45.035450751425962
20
-0.00015572387515483402
30
0
40
26.963097405010888
210
0
220
0
230
1
100
AcDbArc
50
131.00882205223274
51
148.21521243563089
0
LINE
5
126
100
AcDbEntity
8
0
100
AcDbLine
10
0.64059603608215254
20
4.3936387394744427
30
0
11
5.6405960360821537
21
10.393638739474447
31
0
0
CIRCLE
5
127
100
AcDbEntity
8
0
100
AcDbCircle
10
15.250000000000005
20
-15.250000000000005
30
0
40
2.0499999999999989
210
0
220
0
230
1
0
ARC
5
128
100
AcDbEntity
8
0
100
AcDbCircle
10
-15.231748572986689
20
15.2600297485545
30
0
40
6.8749999999999991
210
0
220
0
230
1
100
AcDbArc
50
191.97372064421407
51
222.25232526091185
0
ARC
5
129
100
AcDbEntity
8
0
100
AcDbCircle
10
5.1276252435152276
20
11.033823139138923
30
0
40
1.0000000000000004
210
-0
220
0
230
-1
100
AcDbArc
50
-39.805571092265126
51
90.000000000000142
0
CIRCLE
5
130
100
AcDbEntity
8
0
100
AcDbCircle
10
0
20
0
30
0
40
2.125
210
0
220
0
230
1
0
ARC
5
131
100
AcDbEntity
8
0
100
AcDbCircle
10
45.035450751425962
20
-0.00015572387515483402
30
0
40
26.963097405010892
210
0
220
0
230
1
100
AcDbArc
50
157.55987965309234
51
202.31169967097384
0
LWPOLYLINE
5
132
100
AcDbEntity
8
0
100
AcDbPolyline
90
8
70
1
43
0.0
10
12.140528888653927
20
-29.505094839600243
10
10.040528888653935
20
-29.505094839600247
42
0.99999999999999989
10
10.040528888653926
20
-31.105094839600241
10
10.040528888653926
20
-32.905094839600238
42
0.99999999999999989
10
10.040528888653926
20
-34.505094839600247
10
12.140528888653927
20
-34.505094839600247
42
0.99999999999999989
10
12.140528888653927
20
-32.905094839600238
10
12.140528888653932
20
-31.105094839600245
42
0.99999999999999989
0
ARC
5
133
100
AcDbEntity
8
0
100
AcDbCircle
10
-45.035450751425962
20
0.00015572387516034933
30
0
40
26.963097405010888
210
0
220
0
230
1
100
AcDbArc
50
311.00882205223269
51
328.31704768098359
0
LWPOLYLINE
5
134
100
AcDbEntity
8
0
100
AcDbPolyline
90
8
70
1
43
0.0
10
13.378055481082205
20
-23.59190093884704
10
8.4770039206289898
20
-18.690849378393818
42
0.41421356237309331
10
5.6485767958827982
20
-18.690849378393818
10
3.8363842664541759
20
-20.503041907822453
42
0.55129998178781425
10
4.5820559393694404
20
-23.802209512616766
10
11.368858762564125
20
-26.209303733846809
42
0.28924129664147458
10
12.410236488479589
20
-25.973933493822745
10
13.378055481082203
20
-25.006114501220125
42
0.41421356237309137
0
LWPOLYLINE
5
135
100
AcDbEntity
8
0
100
AcDbPolyline
90
8
70
1
43
0.0
10
0.31728776807380288
20
19.237601520113813
42
-0.16747892863875241
10
-0.3343498854856719
20
19.237163075787951
10
-9.458385258097028
20
22.374660814071859
42
-0.52507908950861149
10
-9.9016118017295849
20
23.960270788333268
10
-0.82906385008984529
20
34.853831658519567
42
-0.46740852291812945
10
0.70534378726714864
20
34.856715386164552
10
9.8460272764183223
20
23.964857947126198
42
-0.52584892891808144
10
9.4064838362533862
20
22.376802689545656
0
ARC
5
136
100
AcDbEntity
8
0
100
AcDbCircle
10
-5.1276252435152205
20
11.033823139138923
30
0
40
1.0000000000000075
210
0
220
0
230
1
100
AcDbArc
50
90.000000000000256
51
219.80557109226487
0
CIRCLE
5
137
100
AcDbEntity
8
0
100
AcDbCircle
10
15.250000000000005
20
-15.250000000000005
30
0
40
3.0499999999999994
210
0
220
0
230
1
0
LWPOLYLINE
5
138
100
AcDbEntity
8
0
100
AcDbPolyline
90
8
70
1
43
0.0
10
-3.9081265024666756
20
-20.488073125141973
42
-0.55129998178781259
10
-4.6537981753819331
20
-23.787240729936304
10
-11.482805485488534
20
-26.209303733846809
42
-0.28924129664147386
10
-12.524183211404001
20
-25.973933493822745
10
-13.49200220400661
20
-25.006114501220136
42
-0.41421356237310053
10
-13.49200220400661
20
-23.591900938847054
10
-8.5623640087571999
20
-18.66226274359764
42
-0.4142135623730932
10
-5.7339368840110092
20
-18.66226274359764
0
ARC
5
139
100
AcDbEntity
8
0
100
AcDbCircle
10
-24.5
20
24.5
30
0
40
4.9999999999999982
210
0
220
-0
230
1
100
AcDbArc
50
78.345009308129789
51
222.49620149101014
0
CIRCLE
5
140
100
AcDbEntity
8
0
100
AcDbCircle
10
-24.5
20
24.5
30
0
40
2.1250000000000004
210
0
220
0
230
1
0
LINE
5
141
100
AcDbEntity
8
0
100
AcDbLine
10
-5.8958465231126045
20
10.393638739474444
30
0
11
-0.89584652311259871
21
4.3936387394744427
31
0
0
CIRCLE
5
142
100
AcDbEntity
8
0
100
AcDbCircle
10
-24.5
20
-24.5
30
0
40
2.125
210
0
220
0
230
1
0
CIRCLE
5
143
100
AcDbEntity
8
0
100
AcDbCircle
10
-24.5
20
24.5
30
0
40
2.5499999999999998
210
0
220
0
230
1
0
CIRCLE
5
144
100
AcDbEntity
8
0
100
AcDbCircle
10
24.5
20
24.5
30
0
40
2.1250000000000013
210
0
220
0
230
1
0
CIRCLE
5
145
100
AcDbEntity
8
0
100
AcDbCircle
10
15.250000000000005
20
15.250000000000005
30
0
40
2.0499999999999989
210
0
220
0
230
1
0
ARC
5
146
100
AcDbEntity
8
0
100
AcDbCircle
10
45.035450751425962
20
-0.00015572387515483402
30
0
40
26.963097405010892
210
0
220
0
230
1
100
AcDbArc
50
211.91016894703316
51
228.99121347717562
0
ARC
5
147
100
AcDbEntity
8
0
100
AcDbCircle
10
-11.127625243515224
20
5.0338231391389288
30
0
40
0.99999999999999922
210
0
220
-0
230
1
100
AcDbArc
50
50.194428907734704
51
180
0
ARC
5
148
100
AcDbEntity
8
0
100
AcDbCircle
10
-11.127625243515222
20
-4.9661768608610721
30
0
40
1.0000000000000031
210
0
220
0
230
1
100
AcDbArc
50
180
51
309.80557109226498
0
ARC
5
149
100
AcDbEntity
8
0
100
AcDbCircle
10
-22.941700747060413
20
-13.636142806396849
30
0
40
0.99999999999965539
210
0
220
0
230
1
100
AcDbArc
50
328.31704768097933
51
348.24889528800145
0
LWPOLYLINE
5
150
100
AcDbEntity
8
0
100
AcDbPolyline
90
8
70
1
43
0.0
10
-3.6126165404513735
20
-33.540942400037991
42
-0.41421356237309509
10
-3.6126165404513699
20
-30.712515275291814
10
-0.76408014264875035
20
-27.863978877489185
42
-0.41421356237309931
10
0.65013341972434469
20
-27.863978877489185
10
3.5272564523231562
20
-30.741101910087991
42
-0.41421356237309442
10
3.5272564523231562
20
-33.569529034834183
10
1.3858268357070844
20
-35.710958651450248
42
-0.41421356237309553
10
-1.4426002890391052
20
-35.710958651450248
0
ARC
5
151
100
AcDbEntity
8
0
100
AcDbCircle
10
10.872374756484779
20
-4.966176860861081
30
0
40
0.999999999999997
210
0
220
0
230
1
100
AcDbArc
50
-129.80557109226538
51
0
0
LWPOLYLINE
5
152
100
AcDbEntity
8
0
100
AcDbPolyline
90
8
70
1
43
0.0
10
-3.6126165404513699
20
-41.712515275291821
10
-0.76408014264875035
20
-38.863978877489188
42
-0.41421356237309931
10
0.65013341972434469
20
-38.863978877489188
10
3.5272564523231544
20
-41.741101910087998
42
-0.41421356237309453
10
3.5272564523231527
20
-44.569529034834183
10
1.3858268357070846
20
-46.710958651450262
42
-0.41421356237309925
10
-1.4426002890391052
20
-46.710958651450262
10
-3.6126165404513633
20
-44.540942400037991
42
-0.41421356237309181
0
ARC
5
153
100
AcDbEntity
8
0
100
AcDbCircle
10
-45.035450751425962
20
0.00015572387516034933
30
0
40
26.96309740501091
210
0
220
0
230
1
100
AcDbArc
50
-22.482919438481133
51
22.569530801461241
0
ARC
5
154
100
AcDbEntity
8
0
100
AcDbCircle
10
-0.046528531668315054
20
2.0267341879852729
30
0
40
53.588371365103143
210
0
220
0
230
1
100
AcDbArc
50
270.04444782166428
51
285.46772782700651
0
ARC
5
155
100
AcDbEntity
8
0
100
AcDbCircle
10
-0.056973361462203602
20
-22.217905922586798
30
0
40
1.4999999999999993
210
0
220
-0
230
1
100
AcDbArc
50
43.455592162318815
51
44.999999999999922
0
LWPOLYLINE
5
156
100
AcDbEntity
8
0
100
AcDbPolyline
90
8
70
1
43
0.0
10
-10.059471111346079
20
-40.505094839600247
10
-12.159471111346088
20
-40.505094839600261
42
0.99999999999999989
10
-12.159471111346074
20
-42.105094839600241
10
-12.159471111346074
20
-43.905094839600238
42
0.99999999999999989
10
-12.159471111346074
20
-45.50509483960024
10
-10.059471111346079
20
-45.50509483960024
42
0.99999999999999989
10
-10.059471111346079
20
-43.905094839600238
10
-10.059471111346083
20
-42.105094839600248
42
0.99999999999999989
0
CIRCLE
5
157
100
AcDbEntity
8
0
100
AcDbCircle
10
-9.9999999999999982
20
-10
30
0
40
2.1250000000000004
210
0
220
0
230
1
0
CIRCLE
5
158
100
AcDbEntity
8
0
100
AcDbCircle
10
-15.250000000000005
20
-15.250000000000005
30
0
40
3.0499999999999994
210
0
220
0
230
1
0
CIRCLE
5
159
100
AcDbEntity
8
0
100
AcDbCircle
10
-24.5
20
-24.5
30
0
40
2.5499999999999998
210
0
220
0
230
1
0
ARC
5
160
100
AcDbEntity
8
0
100
AcDbCircle
10
-45.035450751425962
20
0.00015572387516034933
30
0
40
26.96309740501091
210
0
220
-0
230
1
100
AcDbArc
50
31.656515103665008
51
48.991213477175691
0
LINE
5
161
100
AcDbEntity
8
0
100
AcDbLine
10
-27.556829824579797
20
-20.543260000510557
30
0
11
-27.342934197566294
21
-20.346428256329151
31
0
0
ARC
5
162
100
AcDbEntity
8
0
100
AcDbCircle
10
-21.060751437250925
20
9.9649045745479938
30
0
40
0.99999999999988232
210
0
220
-0
230
1
100
AcDbArc
50
22.569530801458818
51
42.252325260912734
0
LWPOLYLINE
5
163
100
AcDbEntity
8
0
100
AcDbPolyline
90
8
70
1
43
0.0
10
-12.159471111346065
20
-29.505094839600247
42
0.99999999999999989
10
-12.159471111346074
20
-31.105094839600241
10
-12.159471111346074
20
-32.905094839600238
42
0.99999999999999989
10
-12.159471111346074
20
-34.505094839600247
10
-10.059471111346079
20
-34.505094839600247
42
0.99999999999999989
10
-10.059471111346079
20
-32.905094839600238
10
-10.059471111346074
20
-31.105094839600245
42
0.99999999999999989
10
-10.059471111346079
20
-29.505094839600243
0
ARC
5
164
100
AcDbEntity
8
0
100
AcDbCircle
10
-0.056973361462203664
20
-23.217905922586755
30
0
40
0.99999999999995715
210
0
220
-0
230
1
100
AcDbArc
50
86.811276388819124
51
90
0
CIRCLE
5
165
100
AcDbEntity
8
0
100
AcDbCircle
10
-9.9999999999999982
20
10
30
0
40
2.125
210
0
220
0
230
1
0
LINE
5
166
100
AcDbEntity
8
0
100
AcDbLine
10
-28.186610622241496
20
21.122293363837493
30
0
11
-27.342946814591336
21
20.346750675296327
31
0
0
ARC
5
167
100
AcDbEntity
8
0
100
AcDbCircle
10
-15.231748572986696
20
-15.239970251445264
30
0
40
6.874999999999992
210
0
220
0
230
1
100
AcDbArc
50
137.58523295450246
51
168.24889528799977
0
ARC
5
168
100
AcDbEntity
8
0
100
AcDbCircle
10
4.042344727629084
20
-30.142260166671914
30
0
40
2.0000000000000053
210
0
220
0
230
1
100
AcDbArc
50
-0.0035513498644452967
51
0.074849313169352227
0
ARC
5
169
100
AcDbEntity
8
0
100
AcDbCircle
10
24.460555337715174
20
24.431999465876572
30
0
40
4.9999999999999458
210
0
220
0
230
1
100
AcDbArc
50
-54.796952950853139
51
91.079659179093852
0
LWPOLYLINE
5
170
100
AcDbEntity
8
0
100
AcDbPolyline
90
2
70
1
43
0.0
10
11.826240722120776
20
-37.491576310564668
10
11.8176631604852
20
-37.491567623673269
42
0.00050637287966593314
0
CIRCLE
5
171
100
AcDbEntity
8
0
100
AcDbCircle
10
-9.9999999999999982
20
-10
30
0
40
2.5499999999999998
210
0
220
0
230
1
0
CIRCLE
5
172
100
AcDbEntity
8
0
100
AcDbCircle
10
24.5
20
-24.5
30
0
40
2.1249999999999987
210
0
220
0
230
1
0
LINE
5
173
100
AcDbEntity
8
0
100
AcDbLine
10
11.826240722120776
20
-37.491576310564668
30
0
11
11.8176631604849
21
-37.491567623673269
31
0
0
CIRCLE
5
174
100
AcDbEntity
8
0
100
AcDbCircle
10
24.5
20
24.5
30
0
40
2.5499999999999998
210
0
220
0
230
1
0
ARC
5
175
100
AcDbEntity
8
0
100
AcDbCircle
10
-17.057655272370919
20
-41.142260166671917
30
0
40
2.0000000000000049
210
0
220
0
230
1
100
AcDbArc
50
-0.0035513498644452967
51
0.074849313169352227
0
ARC
5
176
100
AcDbEntity
8
0
100
AcDbCircle
10
-24.5
20
-24.5
30
0
40
5.0000000000000266
210
0
220
0
230
1
100
AcDbArc
50
127.68833678867053
51
289.36706494444371
0
ARC
5
177
100
AcDbEntity
8
0
100
AcDbCircle
10
0.12762524351522267
20
5.0338231391389234
30
0
40
1.0000000000000011
210
0
220
0
230
-1
100
AcDbArc
50
219.80557109226527
51
320.19442890773473
0
ARC
5
178
100
AcDbEntity
8
0
100
AcDbCircle
10
-22.935411086721054
20
13.626258383130718
30
0
40
0.99999999999967071
210
0
220
-0
230
1
100
AcDbArc
50
11.973720644213442
51
31.656515103669786
0
ARC
5
179
100
AcDbEntity
8
0
100
AcDbCircle
10
-5.127625243515225
20
11.033823139138923
30
0
40
1.0000000000000098
210
0
220
-0
230
1
100
AcDbArc
50
90
51
219.80557109226501
0
ARC
5
180
100
AcDbEntity
8
0
100
AcDbCircle
10
-17.057655272370912
20
-30.142260166671928
30
0
40
2.0000000000000071
210
0
220
0
230
1
100
AcDbArc
50
-0.0035513498644452967
51
0.074849313169352227
0
LINE
5
181
100
AcDbEntity
8
0
100
AcDbLine
10
15.001590524455281
20
-30.100379003450058
30
0
11
15.001590718105755
21
-30.098260215882267
31
0
0
ARC
5
182
100
AcDbEntity
8
0
100
AcDbCircle
10
22.965972247477445
20
13.675389801837509
30
0
40
0.99999999999996581
210
0
220
0
230
1
100
AcDbArc
50
148.21521243562981
51
168.4659354974597
0
ARC
5
183
100
AcDbEntity
8
0
100
AcDbCircle
10
-21.045715588214332
20
-9.9283403183794547
30
0
40
0.9999999999997301
210
0
220
0
230
1
100
AcDbArc
50
317.58523295450158
51
337.51708056152358
0
ARC
5
184
100
AcDbEntity
8
0
100
AcDbCircle
10
15.686903649983305
20
-46.763851828758476
30
0
40
3.2000000000002355
210
0
220
0
230
1
100
AcDbArc
50
-116.77679658124841
51
36.847607836059062
0
CIRCLE
5
185
100
AcDbEntity
8
0
100
AcDbCircle
10
24.5
20
-24.5
30
0
40
2.5499999999999998
210
0
220
0
230
1
0
ARC
5
186
100
AcDbEntity
8
0
100
AcDbCircle
10
4.042344727629084
20
-30.142260166671914
30
0
40
2.0000000000000053
210
0
220
0
230
1
100
AcDbArc
50
-0.0035513498644452967
51
0.074849313169352227
0
LINE
5
187
100
AcDbEntity
8
0
100
AcDbLine
10
-15.662725570470322
20
-41.285851687722641
30
0
11
-15.6350685964369
21
-32.97076313713508
31
0
0
LINE
5
188
100
AcDbEntity
8
0
100
AcDbLine
10
-14.902476151932188
20
35.126135534704268
30
0
11
-14.000000000000002
21
46.966648192025566
31
0
0
ARC
5
189
100
AcDbEntity
8
0
100
AcDbCircle
10
0.21485501002207005
20
2.0262994928050926
30
0
40
53.588371365103143
210
0
220
0
230
1
100
AcDbArc
50
254.34170029477471
51
269.76498030011697
0
ARC
5
190
100
AcDbEntity
8
0
100
AcDbCircle
10
0
20
57.013806007626009
30
0
40
2.9999999999999978
210
0
220
-0
230
1
100
AcDbArc
50
53.130102354156072
51
126.86989764584393
0
CIRCLE
5
191
100
AcDbEntity
8
0
100
AcDbCircle
10
10
20
26.966648192025584
30
0
40
1.1000000000000014
210
0
220
0
230
1
0
LINE
5
192
100
AcDbEntity
8
0
100
AcDbLine
10
-5.127625243515225
20
12.033823139138928
30
0
11
4.8723747564847812
21
12.033823139138924
31
0
0
LINE
5
193
100
AcDbEntity
8
0
100
AcDbLine
10
19.937536374360615
20
-29.030713114011771
30
0
11
23.036656292853607
21
-29.225280647419233
31
0
0
ARC
5
194
100
AcDbEntity
8
0
100
AcDbCircle
10
-4.8723747564847812
20
11.033823139138923
30
0
40
0.99999999999999867
210
0
220
0
230
-1
100
AcDbArc
50
90
51
219.80557109226513
0
CIRCLE
5
195
100
AcDbEntity
8
0
100
AcDbCircle
10
-10
20
46.966648192025566
30
0
40
1.099999999999997
210
0
220
0
230
1
0
CIRCLE
5
196
100
AcDbEntity
8
0
100
AcDbCircle
10
15.686903649983305
20
-46.763851828758476
30
0
40
1.45
210
0
220
0
230
1
0
ARC
5
197
100
AcDbEntity
8
0
100
AcDbCircle
10
-15.680772539952237
20
-46.71168566112182
30
0
40
3.2000000000000184
210
0
220
0
230
1
100
AcDbArc
50
118.74795586196169
51
142.96182028572198
0
ARC
5
198
100
AcDbEntity
8
0
100
AcDbCircle
10
-15.680772539952237
20
-46.71168566112182
30
0
40
3.2000000000000224
210
0
220
0
230
1
100
AcDbArc
50
142.96182028572198
51
296.58622470303015
0
CIRCLE
5
199
100
AcDbEntity
8
0
100
AcDbCircle
10
-10
20
26.966648192025584
30
0
40
1.0999999999999988
210
0
220
0
230
1
0
ARC
5
200
100
AcDbEntity
8
0
100
AcDbCircle
10
-4.8723747564847759
20
11.033823139138923
30
0
40
0.99999999999999867
210
0
220
0
230
-1
100
AcDbArc
50
90.000000000000313
51
219.80557109226493
0
LINE
5
201
100
AcDbEntity
8
0
100
AcDbLine
10
-19.872399548618695
20
-28.964507004946256
30
0
11
-22.8841309289222
21
-29.219747438908875
31
0
0
SPLINE
5
202
100
AcDbEntity
8
0
100
AcDbSpline
70
4
71
5
72
21
73
15
74
0
42
0.000000001
43
0.0000000001
44
0.0000000001
40
0
40
0
40
0
40
0
40
0
40
0
40
0.10000000000000001
40
0.20000000000000001
40
0.30000000000000004
40
0.40000000000000002
40
0.5
40
0.59999999999999998
40
0.69999999999999996
40
0.79999999999999982
40
0.8999999999999998
40
1
40
1
40
1
40
1
40
1
40
1
41
1
41
1
41
1
41
1
41
1
41
1
41
1
41
1
41
1
41
1
41
1
41
1
41
1
41
1
41
1
10
-14.000000000000002
20
46.966648192025566
30
0
10
-13.835487198248737
20
47.282537326187324
30
0
10
-13.499490643117069
20
47.908444495975353
30
0
10
-12.974583445784029
20
48.82969236795261
30
0
10
-12.232190121751101
20
50.022214000599227
30
0
10
-11.228553072299505
20
51.449155720633442
30
0
10
-10.142610634751044
20
52.806777917402599
30
0
10
-8.9678024618445562
20
54.08955531296602
30
0
10
-7.7008348798554893
20
55.294713898255175
30
0
10
-6.3456940090458804
20
56.425610876999208
30
0
10
-4.9091746636941371
20
57.487969000734651
30
0
10
-3.7002687646884302
20
58.287582829317557
30
0
10
-2.7621579936221159
20
58.860820985168907
30
0
10
-2.1230096163045022
20
59.231406598494445
30
0
10
-1.7999999999999903
20
59.413806007626007
30
0
0
ARC
5
203
100
AcDbEntity
8
0
100
AcDbCircle
10
-0.12762524351522322
20
5.0338231391389234
30
0
40
1.0000000000000002
210
0
220
0
230
1
100
AcDbArc
50
219.80557109226521
51
320.19442890773473
0
ARC
5
204
100
AcDbEntity
8
0
100
AcDbCircle
10
15.686903649983305
20
-46.763851828758476
30
0
40
3.2000000000000215
210
0
220
-0
230
1
100
AcDbArc
50
36.847607836059062
51
61.061472259819361
0
ARC
5
205
100
AcDbEntity
8
0
100
AcDbCircle
10
-5.1276252435152205
20
0.033823139138924568
30
0
40
1.0000000000000011
210
0
220
0
230
1
100
AcDbArc
50
-50.194428907734874
51
50.194428907734945
0
ARC
5
206
100
AcDbEntity
8
0
100
AcDbCircle
10
-17.057655272370919
20
-30.142260166671914
30
0
40
2.0000000000000049
210
0
220
0
230
1
100
AcDbArc
50
-0.0035513498644452967
51
0.074849313169352227
0
ARC
5
207
100
AcDbEntity
8
0
100
AcDbCircle
10
-17.057655272370919
20
-41.142260166671917
30
0
40
2.0000000000000049
210
0
220
0
230
1
100
AcDbArc
50
-0.0035513498644452967
51
0.074849313169352227
0
ARC
5
208
100
AcDbEntity
8
0
100
AcDbCircle
10
24.460562366246812
20
-24.43231794214455
30
0
40
5.0000000000000009
210
0
220
0
230
1
100
AcDbArc
50
-106.54577118382363
51
54.796874578154977
0
CIRCLE
5
209
100
AcDbEntity
8
0
100
AcDbCircle
10
0.033007397850223594
20
-22.429870113212431
30
0
40
1.5000000000000002
210
0
220
0
230
1
0
LINE
5
210
100
AcDbEntity
8
0
100
AcDbLine
10
15.001590524455281
20
-30.100379003450058
30
0
11
15.001590718105755
21
-30.098260215882267
31
0
0
LINE
5
211
100
AcDbEntity
8
0
100
AcDbLine
10
15.001590524455281
20
-30.100379003450058
30
0
11
15.001590718105755
21
-30.098260215882267
31
0
0
LINE
5
212
100
AcDbEntity
8
0
100
AcDbLine
10
1.8492292023039484e-14
20
-48.581096354108979
30
0
11
-0.021399344683814547
21
-48.581060765823914
31
0
0
ARC
5
213
100
AcDbEntity
8
0
100
AcDbCircle
10
-11.826240722119337
20
-33.256768040871656
30
0
40
4.2348082696930156
210
0
220
0
230
-1
100
AcDbArc
50
269.99999999998056
51
270.11605210552926
0
ARC
5
214
100
AcDbEntity
8
0
100
AcDbCircle
10
15.268251427013046
20
-15.239970251445277
30
0
40
6.8750000000000009
210
0
220
-0
230
1
100
AcDbArc
50
11.099230853113797
51
43.122637764893085
0
LINE
5
215
100
AcDbEntity
8
0
100
AcDbLine
10
15.686903649983305
20
-41.337987842258244
30
0
11
15.686903649983304
21
-33.022853296604467
31
0
0
ARC
5
216
100
AcDbEntity
8
0
100
AcDbCircle
10
-0.0013483607881265708
20
-22.219454191505111
30
0
40
1.4999999999999991
210
0
220
0
230
1
100
AcDbArc
50
134.99999999999977
51
136.46074315578525
0
ARC
5
217
100
AcDbEntity
8
0
100
AcDbCircle
10
-17.057655272370919
20
-30.142260166671914
30
0
40
2.0000000000000049
210
0
220
0
230
1
100
AcDbArc
50
-0.0035513498644452967
51
0.074849313169352227
0
CIRCLE
5
218
100
AcDbEntity
8
0
100
AcDbCircle
10
10
20
46.966648192025566
30
0
40
1.0999999999999974
210
0
220
0
230
1
0
CIRCLE
5
219
100
AcDbEntity
8
0
100
AcDbCircle
10
-15.680772539952237
20
-46.71168566112182
30
0
40
1.45
210
0
220
0
230
1
0
ARC
5
220
100
AcDbEntity
8
0
100
AcDbCircle
10
-17.057655272370919
20
-30.142260166671914
30
0
40
2.0000000000000049
210
0
220
0
230
1
100
AcDbArc
50
-0.0035513498644452967
51
0.074849313169352227
0
ARC
5
221
100
AcDbEntity
8
0
100
AcDbCircle
10
19.686903649983314
20
-33.022853296604467
30
0
40
4.0000000000000062
210
0
220
-0
230
1
100
AcDbArc
50
86.407597393907892
51
180
0
ARC
5
222
100
AcDbEntity
8
0
100
AcDbCircle
10
13.82500703629324
20
-31.256767785123127
30
0
40
2.9999999999999987
210
0
220
0
230
1
100
AcDbArc
50
269.72701990174863
51
270.25273996928286
0
CIRCLE
5
223
100
AcDbEntity
8
0
100
AcDbCircle
10
0
20
0
30
0
40
2.5499999999999998
210
0
220
0
230
1
0
ARC
5
224
100
AcDbEntity
8
0
100
AcDbCircle
10
4.8723747564847812
20
11.033823139138923
30
0
40
0.99999999999999967
210
0
220
0
230
1
100
AcDbArc
50
-39.805571092265126
51
90
0
ARC
5
225
100
AcDbEntity
8
0
100
AcDbCircle
10
22.995951507743211
20
-13.723963502688274
30
0
40
0.99999999999960176
210
0
220
0
230
1
100
AcDbArc
50
191.09923085311132
51
211.91016894703836
0
LINE
5
226
100
AcDbEntity
8
0
100
AcDbLine
10
14.780727222699248
20
35.173434001716764
30
0
11
14.000000000000002
21
46.966648192025566
31
0
0
ARC
5
227
100
AcDbEntity
8
0
100
AcDbCircle
10
18.686903649983336
20
-41.337987842258229
30
0
40
3.0000000000000293
210
0
220
0
230
1
100
AcDbArc
50
180
51
241.06147225981914
0
ARC
5
228
100
AcDbEntity
8
0
100
AcDbCircle
10
-17.057655272370919
20
-30.142260166671914
30
0
40
2.0000000000000049
210
0
220
0
230
1
100
AcDbArc
50
-0.0035513498644452967
51
0.074849313169352227
0
ARC
5
229
100
AcDbEntity
8
0
100
AcDbCircle
10
-19.635046470485264
20
-32.95745873471968
30
0
40
4.0000000000000124
210
0
220
0
230
1
100
AcDbArc
50
-0.19057187821891289
51
93.401830727873318
0
CIRCLE
5
230
100
AcDbEntity
8
0
100
AcDbCircle
10
0
20
57.013806007626009
30
0
40
1.5000000000000002
210
0
220
0
230
1
0
ARC
5
231
100
AcDbEntity
8
0
100
AcDbCircle
10
-18.662708976006613
20
-41.275873385911055
30
0
40
3.0000000000000266
210
0
220
0
230
1
100
AcDbArc
50
298.74795586196211
51
359.80942812178108
0
SPLINE
5
232
100
AcDbEntity
8
0
100
AcDbSpline
70
4
71
5
72
21
73
15
74
0
42
0.000000001
43
0.0000000001
44
0.0000000001
40
0
40
0
40
0
40
0
40
0
40
0
40
0.10000000000000001
40
0.20000000000000001
40
0.30000000000000004
40
0.40000000000000002
40
0.5
40
0.59999999999999998
40
0.69999999999999996
40
0.79999999999999982
40
0.8999999999999998
40
1
40
1
40
1
40
1
40
1
40
1
41
1
41
1
41
1
41
1
41
1
41
1
41
1
41
1
41
1
41
1
41
1
41
1
41
1
41
1
41
1
10
14.000000000000002
20
46.966648192025566
30
0
10
13.835487198248737
20
47.282537326187324
30
0
10
13.499490643117069
20
47.908444495975353
30
0
10
12.974583445784029
20
48.82969236795261
30
0
10
12.232190121751101
20
50.022214000599227
30
0
10
11.228553072299505
20
51.449155720633442
30
0
10
10.142610634751044
20
52.806777917402599
30
0
10
8.9678024618445562
20
54.08955531296602
30
0
10
7.7008348798554893
20
55.294713898255175
30
0
10
6.3456940090458804
20
56.425610876999208
30
0
10
4.9091746636941371
20
57.487969000734651
30
0
10
3.7002687646884302
20
58.287582829317557
30
0
10
2.7621579936221159
20
58.860820985168907
30
0
10
2.1230096163045022
20
59.231406598494445
30
0
10
1.7999999999999903
20
59.413806007626007
30
0
0
ENDSEC
0
SECTION
2
OBJECTS
0
DICTIONARY
5
C
100
AcDbDictionary
3
ACAD_GROUP
350
D
3
ACAD_MLINESTYLE
350
17
0
DICTIONARY
5
D
100
AcDbDictionary
0
DICTIONARY
5
1A
330
C
100
AcDbDictionary
0
DICTIONARY
5
17
100
AcDbDictionary
0
ENDSEC
0
EOF
