0
SECTION
2
HEADER
9
$INSUNITS
70
4
9
$ACADVER
1
AC1014
9
$HANDSEED
5
FFFF
0
ENDSEC
0
SECTION
2
TABLES
0
TABLE
2
VPORT
5
8
100
AcDbSymbolTable
0
ENDTAB
0
TABLE
2
LTYPE
5
5
100
AcDbSymbolTable
0
LTYPE
5
14
100
AcDbSymbolTableRecord
100
AcDbLinetypeTableRecord
2
BYBLOCK
70
0
0
LTYPE
5
15
100
AcDbSymbolTableRecord
100
AcDbLinetypeTableRecord
2
BYLAYER
70
0
0
ENDTAB
0
TABLE
2
LAYER
5
2
100
AcDbSymbolTable
70
2
0
LAYER
5
50
100
AcDbSymbolTableRecord
100
AcDbLayerTableRecord
2
0
70
0
6
CONTINUOUS
0
ENDTAB
0
TABLE
2
STYLE
5
3
100
AcDbSymbolTable
70
1
0
STYLE
5
11
100
AcDbSymbolTableRecord
100
AcDbTextStyleTableRecord
2
STANDARD
70
0
0
ENDTAB
0
TABLE
2
VIEW
5
6
100
AcDbSymbolTable
70
0
0
ENDTAB
0
TABLE
2
UCS
5
7
100
AcDbSymbolTable
70
0
0
ENDTAB
0
TABLE
2
APPID
5
9
100
AcDbSymbolTable
70
2
0
APPID
5
12
100
AcDbSymbolTableRecord
100
AcDbRegAppTableRecord
2
ACAD
70
0
0
ENDTAB
0
TABLE
2
DIMSTYLE
5
A
100
AcDbSymbolTable
70
1
0
ENDTAB
0
TABLE
2
BLOCK_RECORD
5
1
100
AcDbSymbolTable
70
1
0
BLOCK_RECORD
5
1F
100
AcDbSymbolTableRecord
100
AcDbBlockTableRecord
2
*MODEL_SPACE
0
BLOCK_RECORD
5
1B
100
AcDbSymbolTableRecord
100
AcDbBlockTableRecord
2
*PAPER_SPACE
0
ENDTAB
0
ENDSEC
0
SECTION
2
BLOCKS
0
BLOCK
5
20
100
AcDbEntity
100
AcDbBlockBegin
2
*MODEL_SPACE
0
ENDBLK
5
21
100
AcDbEntity
100
AcDbBlockEnd
0
BLOCK
5
1C
100
AcDbEntity
100
AcDbBlockBegin
2
*PAPER_SPACE
0
ENDBLK
5
1D
100
AcDbEntity
100
AcDbBlockEnd
0
ENDSEC
0
SECTION
2
ENTITIES
0
LINE
5
100
100
AcDbEntity
8
0
100
AcDbLine
10
2.0500000000000029
20
12.499999999999996
30
0
11
2.0500000000000016
21
9.9999999999999964
31
0
0
LINE
5
101
100
AcDbEntity
8
0
100
AcDbLine
10
5.9500000000000028
20
12.499999999999996
30
0
11
5.9500000000000028
21
10.246241381906566
31
0
0
CIRCLE
5
102
100
AcDbEntity
8
0
100
AcDbCircle
10
4.6000000000000014
20
-0.20000000000000018
30
0
40
1.05
210
0
220
0
230
1
0
ARC
5
103
100
AcDbEntity
8
0
100
AcDbCircle
10
-0.16665500432174962
20
1.0464515540780697
30
0
40
1.0000000000000071
210
0
220
-0
230
1
100
AcDbArc
50
0
51
37.906589267379957
0
ARC
5
104
100
AcDbEntity
8
0
100
AcDbCircle
10
6.9499999999999895
20
10.246241381906565
30
0
40
0.99999999999998646
210
0
220
0
230
1
100
AcDbArc
50
180
51
218.19594130185959
0
LINE
5
105
100
AcDbEntity
8
0
100
AcDbLine
10
5.950000000000002
20
-10.000000000000002
30
0
11
5.950000000000002
21
-12.500000000000002
31
0
0
LINE
5
106
100
AcDbEntity
8
0
100
AcDbLine
10
2.0500000000000029
20
12.499999999999996
30
0
11
5.9500000000000028
21
12.499999999999996
31
0
0
LINE
5
107
100
AcDbEntity
8
0
100
AcDbLine
10
-2.4499999999999975
20
-7.0000000000000018
30
0
11
-0.86505631130629812
21
-4.5574757257450038
31
0
0
LINE
5
108
100
AcDbEntity
8
0
100
AcDbLine
10
6.9500000000000028
20
6.9050099368924744
30
0
11
6.9500000000000028
21
-6.8740464868679307
31
0
0
LINE
5
109
100
AcDbEntity
8
0
100
AcDbLine
10
6.1640993022014108
20
9.6278886563528729
30
0
11
6.7359006977985967
21
8.901152770455953
31
0
0
LINE
5
110
100
AcDbEntity
8
0
100
AcDbLine
10
-5.9499999999999984
20
10.427428982500782
30
0
11
-5.9499999999999984
21
12.499999999999996
31
0
0
LINE
5
111
100
AcDbEntity
8
0
100
AcDbLine
10
5.950000000000002
20
-12.500000000000002
30
0
11
2.0500000000000034
21
-12.500000000000002
31
0
0
ARC
5
112
100
AcDbEntity
8
0
100
AcDbCircle
10
1.2500000000000024
20
9.9999999999999964
30
0
40
0.80000000000000016
210
0
220
0
230
1
100
AcDbArc
50
-180
51
0
0
LINE
5
113
100
AcDbEntity
8
0
100
AcDbLine
10
-2.4499999999999975
20
-10.000000000000002
30
0
11
-2.4499999999999975
21
-7.0000000000000018
31
0
0
CIRCLE
5
114
100
AcDbEntity
8
0
100
AcDbCircle
10
4.5788487513103506
20
2.7979632400955246
30
0
40
1.0499999999999998
210
0
220
0
230
1
0
ARC
5
115
100
AcDbEntity
8
0
100
AcDbCircle
10
-1.1666550043217554
20
-1.3480689007704891
30
0
40
2.0000000000000133
210
0
220
0
230
1
100
AcDbArc
50
327.020631002107
51
360
0
LINE
5
116
100
AcDbEntity
8
0
100
AcDbLine
10
5.950000000000002
20
-10.000000000000002
30
0
11
5.950000000000002
21
-9.323968656196314
31
0
0
ARC
5
117
100
AcDbEntity
8
0
100
AcDbCircle
10
5.9500000000000153
20
8.2828000449022632
30
0
40
0.99999999999998757
210
-0
220
0
230
1
100
AcDbArc
50
0
51
38.19594130185942
0
LINE
5
118
100
AcDbEntity
8
0
100
AcDbLine
10
-2.0499999999999972
20
12.499999999999996
30
0
11
-2.0499999999999963
21
9.9999999999999964
31
0
0
LINE
5
119
100
AcDbEntity
8
0
100
AcDbLine
10
2.0500000000000034
20
-12.500000000000002
30
0
11
2.0500000000000034
21
-10.000000000000002
31
0
0
ARC
5
120
100
AcDbEntity
8
0
100
AcDbCircle
10
-4.9500000000000011
20
10.427428982500778
30
0
40
0.99999999999999756
210
0
220
0
230
1
100
AcDbArc
50
180
51
226.28653496354812
0
LINE
5
121
100
AcDbEntity
8
0
100
AcDbLine
10
6.0581431066151668
20
-8.8716509783172022
30
0
11
6.8418568933848363
21
-7.3263641647470443
31
0
0
LINE
5
122
100
AcDbEntity
8
0
100
AcDbLine
10
-5.641052295941841
20
9.7046242202907447
30
0
11
0.62235842978721434
21
1.6608274982650095
31
0
0
LINE
5
123
100
AcDbEntity
8
0
100
AcDbLine
10
5.950000000000002
20
-12.500000000000002
30
0
11
2.0500000000000034
21
-12.500000000000002
31
0
0
ARC
5
124
100
AcDbEntity
8
0
100
AcDbCircle
10
6.9499999999999771
20
-9.3239686561963087
30
0
40
0.99999999999997591
210
0
220
0
230
1
100
AcDbArc
50
153.10751872903862
51
180
0
LINE
5
125
100
AcDbEntity
8
0
100
AcDbLine
10
6.9500000000000028
20
8.2828000449022596
30
0
11
6.9500000000000028
21
6.9050099368924744
31
0
0
LINE
5
126
100
AcDbEntity
8
0
100
AcDbLine
10
-5.9499999999999984
20
12.499999999999996
30
0
11
-2.0499999999999972
21
12.499999999999996
31
0
0
ARC
5
127
100
AcDbEntity
8
0
100
AcDbCircle
10
5.9500000000000508
20
-6.8740464868679432
30
0
40
0.99999999999995204
210
0
220
0
230
1
100
AcDbArc
50
-26.892481270961753
51
0
0
ARC
5
128
100
AcDbEntity
8
0
100
AcDbCircle
10
-1.2499999999999969
20
9.9999999999999964
30
0
40
0.79999999999999938
210
0
220
0
230
1
100
AcDbArc
50
-180
51
0
0
LINE
5
129
100
AcDbEntity
8
0
100
AcDbLine
10
-5.9499999999999984
20
12.499999999999996
30
0
11
-2.0499999999999972
21
12.499999999999996
31
0
0
LINE
5
130
100
AcDbEntity
8
0
100
AcDbLine
10
5.9500000000000028
20
12.499999999999996
30
0
11
2.0500000000000029
21
12.499999999999996
31
0
0
ARC
5
131
100
AcDbEntity
8
0
100
AcDbCircle
10
1.2500000000000031
20
-10.000000000000002
30
0
40
0.80000000000000016
210
0
220
0
230
1
100
AcDbArc
50
0
51
180
0
LINE
5
132
100
AcDbEntity
8
0
100
AcDbLine
10
-0.86505631130629812
20
-4.5574757257450038
30
0
11
0.51107824888658626
21
-2.4367429250215529
31
0
0
LINE
5
133
100
AcDbEntity
8
0
100
AcDbLine
10
-5.9499999999999984
20
12.499999999999996
30
0
11
-5.9499999999999993
21
9.9999999999999964
31
0
0
LINE
5
134
100
AcDbEntity
8
0
100
AcDbLine
10
0.83334499567825748
20
-1.3480689007704934
30
0
11
0.83334499567825748
21
1.0464515540780714
31
0
0
LINE
5
135
100
AcDbEntity
8
0
100
AcDbLine
10
0.4500000000000029
20
-10.000000000000002
30
0
11
-2.4499999999999975
21
-10.000000000000002
31
0
0
LINE
5
136
100
AcDbEntity
8
0
100
AcDbLine
10
0.45000000000000234
20
9.9999999999999964
30
0
11
-0.44999999999999679
21
9.9999999999999964
31
0
0
ENDSEC
0
SECTION
2
OBJECTS
0
DICTIONARY
5
C
100
AcDbDictionary
3
ACAD_GROUP
350
D
3
ACAD_MLINESTYLE
350
17
0
DICTIONARY
5
D
100
AcDbDictionary
0
DICTIONARY
5
1A
330
C
100
AcDbDictionary
0
DICTIONARY
5
17
100
AcDbDictionary
0
ENDSEC
0
EOF
