0
SECTION
2
HEADER
9
$INSUNITS
70
4
9
$ACADVER
1
AC1014
9
$HANDSEED
5
FFFF
0
ENDSEC
0
SECTION
2
TABLES
0
TABLE
2
VPORT
5
8
100
AcDbSymbolTable
0
ENDTAB
0
TABLE
2
LTYPE
5
5
100
AcDbSymbolTable
0
LTYPE
5
14
100
AcDbSymbolTableRecord
100
AcDbLinetypeTableRecord
2
BYBLOCK
70
0
0
LTYPE
5
15
100
AcDbSymbolTableRecord
100
AcDbLinetypeTableRecord
2
BYLAYER
70
0
0
ENDTAB
0
TABLE
2
LAYER
5
2
100
AcDbSymbolTable
70
2
0
LAYER
5
50
100
AcDbSymbolTableRecord
100
AcDbLayerTableRecord
2
0
70
0
6
CONTINUOUS
0
ENDTAB
0
TABLE
2
STYLE
5
3
100
AcDbSymbolTable
70
1
0
STYLE
5
11
100
AcDbSymbolTableRecord
100
AcDbTextStyleTableRecord
2
STANDARD
70
0
0
ENDTAB
0
TABLE
2
VIEW
5
6
100
AcDbSymbolTable
70
0
0
ENDTAB
0
TABLE
2
UCS
5
7
100
AcDbSymbolTable
70
0
0
ENDTAB
0
TABLE
2
APPID
5
9
100
AcDbSymbolTable
70
2
0
APPID
5
12
100
AcDbSymbolTableRecord
100
AcDbRegAppTableRecord
2
ACAD
70
0
0
ENDTAB
0
TABLE
2
DIMSTYLE
5
A
100
AcDbSymbolTable
70
1
0
ENDTAB
0
TABLE
2
BLOCK_RECORD
5
1
100
AcDbSymbolTable
70
1
0
BLOCK_RECORD
5
1F
100
AcDbSymbolTableRecord
100
AcDbBlockTableRecord
2
*MODEL_SPACE
0
BLOCK_RECORD
5
1B
100
AcDbSymbolTableRecord
100
AcDbBlockTableRecord
2
*PAPER_SPACE
0
ENDTAB
0
ENDSEC
0
SECTION
2
BLOCKS
0
BLOCK
5
20
100
AcDbEntity
100
AcDbBlockBegin
2
*MODEL_SPACE
0
ENDBLK
5
21
100
AcDbEntity
100
AcDbBlockEnd
0
BLOCK
5
1C
100
AcDbEntity
100
AcDbBlockBegin
2
*PAPER_SPACE
0
ENDBLK
5
1D
100
AcDbEntity
100
AcDbBlockEnd
0
ENDSEC
0
SECTION
2
ENTITIES
0
LINE
5
100
100
AcDbEntity
8
0
100
AcDbLine
10
35.500007606747054
20
-44.999973958347553
30
0
11
36.000007606747076
21
-44.999973958347539
31
0
0
LWPOLYLINE
5
101
100
AcDbEntity
8
0
100
AcDbPolyline
90
4
70
1
43
0.0
10
36.500007606747033
20
-41.499973958347567
42
0.99999999999999989
10
36.500007606747069
20
-43.49997395834756
10
38.000007606747054
20
-43.499973958347553
42
0.99999999999999989
10
38.000007606747076
20
-41.49997395834756
0
LWPOLYLINE
5
102
100
AcDbEntity
8
0
100
AcDbPolyline
90
8
70
1
43
0.0
10
34.705105151073731
20
-39.38032200794683
10
7.8246578420142239
20
-35.268466179984152
42
-0.75323987891951127
10
7.5795378546987857
20
-33.361856043866283
10
22.174480664230607
20
-27.061505185929114
42
-0.22773507729236839
10
23.039802317652068
20
-27.096411290265358
42
0.1507302939851014
10
24.776910015573662
20
-27.428584717060897
42
-0.22773507729235801
10
25.59406020829913
20
-27.715404455797209
10
35.563419498022157
20
-37.684711626731897
42
-0.72452562829050671
0
LWPOLYLINE
5
103
100
AcDbEntity
8
0
100
AcDbPolyline
90
19
70
1
43
0.0
10
20.471657119250203
20
-24.528992681840304
10
19.9544836329272
20
-24.752246343110535
10
2.8963294014254402
20
-32.115917311185669
42
-0.53928294135788346
10
1.499999999999998
20
-31.197808926752906
10
1.4999999999999989
20
-21.468154691473849
42
-0.23993164795342697
10
1.9117647058823561
20
-20.65946486295222
42
0.50917507721731492
10
1.9117647058823586
20
-15.402980977561707
42
-0.23993164795343003
10
1.5000000000000024
20
-14.594291149040091
10
1.5000000000000024
20
-6.0355383359763746
42
-0.66817882560203601
10
3.2071071481830549
20
-5.3284319217865264
10
6.5090613623068592
20
-8.6303895634170011
42
-0.23993108331635862
10
6.7897296931534967
20
-9.4933792769934797
42
0.50917375078982596
10
10.506617576401938
20
-13.21027080341841
10
10.531170154932035
20
-13.210270987341094
42
-0.41421171798371487
10
11.531163857788689
20
-14.210270987321268
10
11.531141818041666
20
-17.15245682520203
42
0.48110295095004768
10
15.80471587338323
20
-20.565920410154391
42
-0.25754274367713342
10
19.517229100870836
20
-21.638570804767149
10
20.782434866007815
20
-22.903777883217671
42
-0.52975802222441815
0
LWPOLYLINE
5
104
100
AcDbEntity
8
0
100
AcDbPolyline
90
12
70
1
43
0.0
10
25.946779498006201
20
-19.573407091368164
42
0.24153136156376478
10
26.780112841614617
20
-21.197872814048463
42
-0.28499577032468398
10
28.394037033609656
20
-25.094228551391712
42
0.24153136044265214
10
28.953452708162093
20
-26.832154735458449
10
39.318025955793374
20
-37.196673527747336
42
0.23606799941837772
10
41.863610392781894
20
-38.045199614177569
10
44.50001468224837
20
-38.045199260346472
42
0.41421356237414597
10
45.500014548035956
20
-37.045199126130441
10
45.500010945903149
20
-2.3973497618251338
42
0.41421353192271287
10
44.500010945903156
20
-1.3973498657892418
10
26.949341473923809
20
-1.3973498657892447
42
0.41496417132808461
10
25.946779422135897
20
-2.3973465881503597
0
LINE
5
105
100
AcDbEntity
8
0
100
AcDbLine
10
23.985120335297946
20
-21.16246719425552
30
0
11
23.98521588879057
21
-21.162557170970349
31
0
0
CIRCLE
5
106
100
AcDbEntity
8
0
100
AcDbCircle
10
24.446779073640172
20
-24.446804449975801
30
0
40
1.45
210
0
220
0
230
1
0
ARC
5
107
100
AcDbEntity
8
0
100
AcDbCircle
10
31.195061058987083
20
-43.810483485565548
30
0
40
1.9999999999999609
210
0
220
-0
230
1
100
AcDbArc
50
16.931269656059786
51
64.046624297636072
0
LWPOLYLINE
5
108
100
AcDbEntity
8
0
100
AcDbPolyline
90
11
70
1
43
0.0
10
19.824035657608274
20
-17.702734790876459
10
21.239671925457131
20
-19.118372528189294
42
0.66817882560203357
10
22.946779073640165
20
-18.411266113999435
10
22.946779073640169
20
-2.5
42
0.41421356237309148
10
21.946779073640169
20
-1.5000000000000024
10
21.468154691473838
20
-1.4999999999999991
10
21.468051748734691
20
-1.4999999999999991
42
0.23991791563208009
10
20.659392473920427
20
-1.9117227037723914
42
-0.078410311673630467
10
19.942997986202219
20
-2.6280754723322386
42
0.23993164795342961
10
19.531228187892246
20
-3.4367627078964502
10
19.531142805811157
20
-16.99562207954326
42
0.19891386906760719
0
ARC
5
109
100
AcDbEntity
8
0
100
AcDbCircle
10
9.337482404535649
20
-5.8019563561463379
30
0
40
0.99999999999999856
210
0
220
0
230
1
100
AcDbArc
50
224.99997026282747
51
278.96821355147102
0
LINE
5
110
100
AcDbEntity
8
0
100
AcDbLine
10
13.531176359514703
20
-11.66720240541758
30
0
11
13.531141818002013
21
-17.152469419488725
31
0
0
ARC
5
111
100
AcDbEntity
8
0
100
AcDbCircle
10
15.031176359484961
20
-11.667211851132603
30
0
40
1.4999999999999969
210
0
220
0
230
1
100
AcDbArc
50
170.85911562300819
51
179.99963920107555
0
ARC
5
112
100
AcDbEntity
8
0
100
AcDbCircle
10
-9.9999999999999982
20
-10.000000000000002
30
0
40
3.2500000000000022
210
0
220
0
230
-1
100
AcDbArc
50
81.03178644852899
51
158.36891924248937
0
SPLINE
5
113
100
AcDbEntity
8
0
100
AcDbSpline
70
4
71
5
72
16
73
10
74
0
42
0.000000001
43
0.0000000001
44
0.0000000001
40
0
40
0
40
0
40
0
40
0
40
0
40
0.20000000000000001
40
0.40000000000000002
40
0.60000000000000009
40
0.80000000000000004
40
1
40
1
40
1
40
1
40
1
40
1
41
1
41
1
41
1
41
1
41
1
41
1
41
1
41
1
41
1
41
1
10
13.550225310985407
20
-11.428917931889872
30
0
10
13.529061263782703
20
-11.323839461969488
30
0
10
13.486733169377832
20
-11.11368252212891
30
0
10
13.423241027772283
20
-10.798447112368656
30
0
10
13.338584838967977
20
-10.37813323268939
30
0
10
13.232764602965865
20
-9.8527408830915277
30
0
10
13.148108414165376
20
-9.4324270034137818
30
0
10
13.084616272565173
20
-9.1171915936556687
30
0
10
13.042288178165048
20
-8.9070346538169893
30
0
10
13.021124130964994
20
-8.8019561838976674
30
0
0
LINE
5
114
100
AcDbEntity
8
0
100
AcDbLine
10
16.53114181794253
20
-17.152488310918766
30
0
11
16.531159088698875
21
-14.409854803883196
31
0
0
LINE
5
115
100
AcDbEntity
8
0
100
AcDbLine
10
23.38627689070735
20
-25.507622610497389
30
0
11
23.386119255518732
21
-25.507464975413896
31
0
0
ARC
5
116
100
AcDbEntity
8
0
100
AcDbCircle
10
10.000000000000004
20
-10.000000000000004
30
0
40
3.2500000000000067
210
0
220
0
230
1
100
AcDbArc
50
135.00009966194364
51
135.00009966194364
0
ARC
5
117
100
AcDbEntity
8
0
100
AcDbCircle
10
-10.000000000000004
20
-9.9999999999999982
30
0
40
3.25
210
0
220
0
230
-1
100
AcDbArc
50
81.031786448528877
51
158.36891924248937
0
ARC
5
118
100
AcDbEntity
8
0
100
AcDbCircle
10
15.031141817972271
20
-17.152478865203747
30
0
40
1.4999999999999991
210
0
220
0
230
1
100
AcDbArc
50
179.99963920107555
51
359.99963920107558
0
CIRCLE
5
119
100
AcDbEntity
8
0
100
AcDbCircle
10
10.000000000000004
20
-10.000000000000004
30
0
40
1.4500000000000002
210
0
220
0
230
1
0
ARC
5
120
100
AcDbEntity
8
0
100
AcDbCircle
10
-10
20
-10.000000000000004
30
0
40
3.2500000000000058
210
0
220
-0
230
-1
100
AcDbArc
50
-98.967972143906024
51
8.9680283033977446
0
ARC
5
121
100
AcDbEntity
8
0
100
AcDbCircle
10
10
20
-10
30
0
40
3.25
210
0
220
0
230
1
100
AcDbArc
50
135.00009966194364
51
135.00009966194364
0
LINE
5
122
100
AcDbEntity
8
0
100
AcDbLine
10
-35.499718198651379
20
-45.000202267849836
30
0
11
-35.999718198641062
21
-45.000205483489033
31
0
0
LWPOLYLINE
5
123
100
AcDbEntity
8
0
100
AcDbPolyline
90
4
70
1
43
0.0
10
-48.499740707916729
20
-41.500280139109307
10
-46.999740708029094
20
-41.500270610562559
42
-0.99995071899990795
10
-46.999727845223305
20
-43.500270667906264
10
-48.499727845400535
20
-43.500280200461347
42
-1.000001810339413
0
LWPOLYLINE
5
124
100
AcDbEntity
8
0
100
AcDbPolyline
90
6
70
1
43
0.0
10
-47.838426767805011
20
-45.17256627334519
42
0.50337011108930763
10
-48.999711551513428
20
-46.033809695248891
10
-48.999698904536906
20
-48.000289090046486
42
0.41421356237309243
10
-47.99969247327919
20
-49.000282658747381
10
-46.033213078481609
20
-49.000270011770944
42
0.5033701110893023
10
-45.17198459374066
20
-47.838974150366063
42
0.25046591309411126
0
ARC
5
125
100
AcDbEntity
8
0
100
AcDbCircle
10
-46.774146463972457
20
-57.98429205274271
30
0
40
7.0000000000087015
210
0
220
-0
230
1
100
AcDbArc
50
63.259981788586828
51
90.000368485017049
0
LWPOLYLINE
5
126
100
AcDbEntity
8
0
100
AcDbPolyline
90
4
70
1
43
0.0
10
-36.499727845548328
20
-43.500208699159302
42
0.99999999999999989
10
-36.499740708105179
20
-41.500208699200641
10
-37.999740708074178
20
-41.500218346118281
42
0.99999999999999989
10
-37.999727845517313
20
-43.50021834607692
0
ARC
5
127
100
AcDbEntity
8
0
100
AcDbCircle
10
-49.499756444457006
20
-39.000392323405883
30
0
40
0.99999999999999201
210
0
220
0
230
1
100
AcDbArc
50
-90.809963334614594
51
0.00036848419549152881
0
LINE
5
128
100
AcDbEntity
8
0
100
AcDbLine
10
-39.999692473444661
20
-49.000231208520006
30
0
11
-39.999689257805414
21
-49.500231208509661
31
0
0
LINE
5
129
100
AcDbEntity
8
0
100
AcDbLine
10
16.531159088698875
20
-14.409854803883196
30
0
11
16.531228187951729
21
-3.4367438164663699
31
0
0
LINE
5
130
100
AcDbEntity
8
0
100
AcDbLine
10
48.500005182611218
20
-1.7183130536200262
30
0
11
48.500007265814929
21
-39.000073975883794
31
0
0
ARC
5
131
100
AcDbEntity
8
0
100
AcDbCircle
10
35.500007606747054
20
-42.499973958347546
30
0
40
2.5000000000000018
210
0
220
0
230
1
100
AcDbArc
50
196.93126965606032
51
270
0
LWPOLYLINE
5
132
100
AcDbEntity
8
0
100
AcDbPolyline
90
12
70
1
43
0.0
10
-45.499995526938378
20
-2.3976423850141648
10
-45.499776299105221
20
-37.045491748626098
42
0.4142135623741473
10
-44.499770002059037
20
-38.045485451543883
10
-41.863365712644779
20
-38.045468849924966
42
0.23606799941837736
10
-39.31778673281643
20
-37.196926392150033
10
-28.953280142505555
20
-26.83234094261919
42
0.24153136044265239
10
-28.393875645051857
20
-25.094411160830443
42
-0.28499577032468304
10
-26.779976511638775
20
-21.198045043971941
42
0.24153136156376642
10
-25.946653615438944
20
-19.573573961926488
10
-25.946764003595931
20
-2.3975134590634082
42
0.41496417132808422
10
-26.949332486620456
20
-1.3975231844786637
10
-44.500001958236865
20
-1.3976360577205331
42
0.41421353192271193
0
LINE
5
133
100
AcDbEntity
8
0
100
AcDbLine
10
5.3284223277115963
20
-3.2071064141898531
30
0
11
8.6303752563525968
21
-6.5090627703361879
31
0
0
LWPOLYLINE
5
134
100
AcDbEntity
8
0
100
AcDbPolyline
90
11
70
1
43
0.0
10
-19.531206084710487
20
-3.436888318591782
10
-19.531033501829697
20
-16.995747689409068
42
-0.19891386906760586
10
-19.823921805982032
20
-17.702862284403121
10
-21.239548969441184
20
-19.118509126037662
42
-0.66817882560203401
10
-22.946660665187121
20
-18.411413690743796
10
-22.946762994969561
20
-2.5001475770734167
42
-0.41421356237309065
10
-21.946769426268681
20
-1.500141145815677
10
-21.468145044112244
20
-1.5001380676490126
10
-21.468042101373097
20
-1.5001380669869546
42
-0.2399179156320824
10
-20.659380178672208
20
-1.9118555700378943
42
0.078410311673630023
10
-19.942981083904709
20
-2.6282037312505091
42
-0.23993164795342911
0
LINE
5
135
100
AcDbEntity
8
0
100
AcDbLine
10
-16.531066414568734
20
-14.409961120071932
30
0
11
-16.53120608495351
21
-3.4368501333264359
31
0
0
ARC
5
136
100
AcDbEntity
8
0
100
AcDbCircle
10
46.774519376131423
20
-57.983991233984682
30
0
40
7.000000000008697
210
0
220
0
230
1
100
AcDbArc
50
90.000000000093536
51
116.74038669652354
0
LINE
5
137
100
AcDbEntity
8
0
100
AcDbLine
10
-5.3284017018071248
20
-3.2071406826910693
30
0
11
-8.6303333945791731
21
-6.5091182745477392
31
0
0
LWPOLYLINE
5
138
100
AcDbEntity
8
0
100
AcDbPolyline
90
8
70
1
43
0.0
10
-35.563177136413941
20
-37.684940344204996
10
-25.593881962287188
20
-27.715569057751193
42
-0.22773507729235601
10
-24.776733614196228
20
-27.428744063700414
42
0.15073029398510257
10
-23.039628052610336
20
-27.096559465088482
42
-0.22773507729236733
10
-22.174306623697653
20
-27.061647795628488
10
-7.5793232951571046
20
-33.361904789294599
42
-0.75323987891951061
10
-7.8244310205268475
20
-35.268516501807916
10
-34.704851884540815
20
-39.380545205326328
42
-0.72452562829049905
0
LINE
5
139
100
AcDbEntity
8
0
100
AcDbLine
10
-6.0355198288522027
20
-1.5000388161394635
30
0
11
-14.594438265593963
21
-1.5000938609269254
31
0
0
LWPOLYLINE
5
140
100
AcDbEntity
8
0
100
AcDbPolyline
90
4
70
1
43
0.0
10
48.500007606810939
20
-43.499968284308544
42
1.000001810339413
10
48.500007606769898
20
-41.499968222915157
10
47.00000760685203
20
-41.499968341286035
42
0.99995071900047094
10
47.000007606603432
20
-43.499968398671101
0
LWPOLYLINE
5
141
100
AcDbEntity
8
0
100
AcDbPolyline
90
6
70
1
43
0.0
10
49.000007606747062
20
-47.999973958347546
10
49.000007606747062
20
-46.033494563509279
42
0.50337011108930108
10
47.838717284166421
20
-45.172258610169145
42
0.25046591309411209
10
45.172292258568675
20
-47.838683635766913
42
0.50337011108930296
10
46.033528211908802
20
-48.99997395834756
10
48.000007606747062
20
-48.999973958347539
42
0.41421356237309503
0
LINE
5
142
100
AcDbEntity
8
0
100
AcDbLine
10
-48.49999413065855
20
-1.7186249706213035
30
0
11
-48.499756444477704
21
-39.000385892127461
31
0
0
LWPOLYLINE
5
143
100
AcDbEntity
8
0
100
AcDbPolyline
90
19
70
1
43
0.0
10
-1.4997993581736031
20
-31.197818573025348
10
-1.4998619322889439
20
-21.468164337947506
42
0.23993164795342589
10
-1.91163183907223
20
-20.659477157616074
42
-0.50917507721731536
10
-1.9116656449836211
20
-15.402993272334264
42
0.23993164795343011
10
-1.499906140019226
20
-14.594300795655904
10
-1.4999611837415143
20
-6.0355479827691898
42
0.66817882560203612
10
-3.207072879487487
20
-5.3284525474753313
10
-6.5090058577340741
20
-8.6304314248244083
42
0.23993108331635826
10
-6.789668638447786
20
-9.4934229434392172
42
-0.50917375078982563
10
-10.506532617255083
20
-13.210338374128126
10
-10.531085195783492
20
-13.210338715955277
42
0.41421171798371414
10
-11.531072467341044
20
-14.210345147152692
10
-11.531031505577726
20
-17.152530984830861
42
-0.48110295095004707
10
-15.804583607896213
20
-20.566022054257243
42
0.25754274367713359
10
-19.517089936793703
20
-21.638696325054028
10
-20.782287565005532
20
-22.903911540368927
42
0.52975802222441526
10
-20.471499366045492
20
-24.529124340259727
10
-19.954324443926726
20
-24.752374675438659
10
-2.8961228549595281
20
-32.115935937622275
42
0.53928294135788291
0
LINE
5
144
100
AcDbEntity
8
0
100
AcDbLine
10
32.070340279618186
20
-42.012182541359806
30
0
11
1.3129188309466771
21
-37.30727264225257
31
0
0
ARC
5
145
100
AcDbEntity
8
0
100
AcDbCircle
10
49.500007607087753
20
-42.499973963153863
30
0
40
2.49999999723783
210
0
220
0
230
1
100
AcDbArc
50
-23.230775322501596
51
90.000000007807571
0
LINE
5
146
100
AcDbEntity
8
0
100
AcDbLine
10
48.313213226525853
20
-1.1363400196447611
30
0
11
47.889250477436214
21
-0.54392445285762669
31
0
0
LINE
5
147
100
AcDbEntity
8
0
100
AcDbLine
10
-32.070070086911912
20
-42.012388793778399
30
0
11
-1.3126788974619856
21
-37.307281085227572
31
0
0
ARC
5
148
100
AcDbEntity
8
0
100
AcDbCircle
10
6.0355294758946529
20
-2.5000000000000009
30
0
40
1.0000000000000022
210
0
220
0
230
1
100
AcDbArc
50
90.000000000000057
51
224.99997026282736
0
LWPOLYLINE
5
149
100
AcDbEntity
8
0
100
AcDbPolyline
90
4
70
1
43
0.0
10
43.50000760674709
20
-46.999973958347574
42
0.99999999999999989
10
41.500007606747062
20
-46.99997395834756
10
41.50000760674709
20
-48.499973958347546
42
0.99999999999999989
10
43.50000760674709
20
-48.499973958347546
0
ARC
5
150
100
AcDbEntity
8
0
100
AcDbCircle
10
0.00025728151862880407
20
-40.004724057734215
30
0
40
3.0000000000002762
210
0
220
0
230
1
100
AcDbArc
50
90.000368485110499
51
115.95374418747178
0
ARC
5
151
100
AcDbEntity
8
0
100
AcDbCircle
10
49.98655270281148
20
-49.983991234147062
30
0
40
0.99999999982785859
210
0
220
0
230
1
100
AcDbArc
50
-89.999999986380089
51
0
0
ARC
5
152
100
AcDbEntity
8
0
100
AcDbCircle
10
18.031249830774058
20
0.00017850896732701793
30
0
40
3.2500000000000013
210
0
220
0
230
1
100
AcDbArc
50
216.03485498363995
51
233.96776012779219
0
ARC
5
153
100
AcDbEntity
8
0
100
AcDbCircle
10
14.59444791281342
20
-2.4999999999999956
30
0
40
0.999999999999996
210
0
220
-0
230
1
100
AcDbArc
50
36.034854983639981
51
90.000000000000099
0
ARC
5
154
100
AcDbEntity
8
0
100
AcDbCircle
10
-18.031249831549204
20
6.2544979359157644e-05
30
0
40
3.2500000000000022
210
0
220
0
230
1
100
AcDbArc
50
306.03260835731828
51
323.96551350147053
0
LINE
5
155
100
AcDbEntity
8
0
100
AcDbLine
10
-24.442925474858292
20
-1.3910854992233079
30
0
11
-24.446770125722161
21
-1.3910953741766163
31
0
0
LINE
5
156
100
AcDbEntity
8
0
100
AcDbLine
10
6.0355294758946521
20
-1.4999999999999989
30
0
11
14.594447912813418
21
-1.4999999999999991
31
0
0
ARC
5
157
100
AcDbEntity
8
0
100
AcDbCircle
10
-47.499994130678985
20
-1.7186185952201329
30
0
40
0.99999999999988876
210
0
220
0
230
1
100
AcDbArc
50
144.41092922098233
51
180.0003652834402
0
LINE
5
158
100
AcDbEntity
8
0
100
AcDbLine
10
-1.4997993581736031
20
-31.197818573025348
30
0
11
-1.4998619322889439
21
-21.468164337947506
31
0
0
ARC
5
159
100
AcDbEntity
8
0
100
AcDbCircle
10
42.500007606747054
20
-49.499973958347539
30
0
40
2.5
210
0
220
0
230
1
100
AcDbArc
50
180
51
296.74038669640083
0
ARC
5
160
100
AcDbEntity
8
0
100
AcDbCircle
10
36.000007606747076
20
-48.999973958347539
30
0
40
4.0000000000000169
210
0
220
0
230
1
100
AcDbArc
50
0
51
90
0
LINE
5
161
100
AcDbEntity
8
0
100
AcDbLine
10
1.499999999999998
20
-31.197808926752906
30
0
11
1.4999999999999991
21
-21.468154691473849
31
0
0
LINE
5
162
100
AcDbEntity
8
0
100
AcDbLine
10
-48.313205917407672
20
-1.1366507353469975
30
0
11
-47.889246978316265
21
-0.54423244194963472
31
0
0
ARC
5
163
100
AcDbEntity
8
0
100
AcDbCircle
10
15.531228187971553
20
-3.4367375193230214
30
0
40
1.0000000000000038
210
0
220
0
230
1
100
AcDbArc
50
-0.00036079993458915615
51
53.967760127791955
0
ARC
5
164
100
AcDbEntity
8
0
100
AcDbCircle
10
-6.0355133975737809
20
-2.5000388161187854
30
0
40
1.0000000000000018
210
0
220
0
230
1
100
AcDbArc
50
-44.99960177771694
51
90.000368485110442
0
LINE
5
165
100
AcDbEntity
8
0
100
AcDbLine
10
40.00000760674709
20
-48.999973958347539
30
0
11
40.000007606747054
21
-49.499973958347539
31
0
0
ARC
5
166
100
AcDbEntity
8
0
100
AcDbCircle
10
-15.531206085034508
20
-3.436837404904665
30
0
40
1.0000000000000038
210
0
220
0
230
1
100
AcDbArc
50
126.03260835731852
51
180.000729284633
0
LWPOLYLINE
5
167
100
AcDbEntity
8
0
100
AcDbPolyline
90
4
70
1
43
0.0
10
-41.499705335970454
20
-47.000240855479014
10
-41.499695689052842
20
-48.500240855447984
42
-0.99999999999999989
10
-43.499695689011503
20
-48.500253718004828
10
-43.499705335929129
20
-47.000253718035893
42
-0.99999999999999989
0
ARC
5
168
100
AcDbEntity
8
0
100
AcDbCircle
10
49.500007265814915
20
-39.000073975883794
30
0
40
0.99999999999997868
210
0
220
0
230
1
100
AcDbArc
50
180
51
270.81033181972504
0
ARC
5
169
100
AcDbEntity
8
0
100
AcDbCircle
10
60.986552703018795
20
-47.430418334529762
30
0
40
10.000000000365759
210
0
220
0
230
1
100
AcDbArc
50
156.76922458141948
51
180
0
LINE
5
170
100
AcDbEntity
8
0
100
AcDbLine
10
49.500007606747083
20
-39.999973965916041
30
0
11
49.514149752620717
21
-39.999973965916269
31
0
0
ARC
5
171
100
AcDbEntity
8
0
100
AcDbCircle
10
0
20
-40.004724058561536
30
0
40
3.0000000000002736
210
0
220
-0
230
1
100
AcDbArc
50
64.04662429763863
51
89.999999999999986
0
CIRCLE
5
172
100
AcDbEntity
8
0
100
AcDbCircle
10
42.500007606747054
20
-42.499973958347546
30
0
40
2
210
0
220
0
230
1
0
LINE
5
173
100
AcDbEntity
8
0
100
AcDbLine
10
50.986552702639344
20
-49.983991234147062
30
0
11
50.986552702653029
21
-47.430418334529769
31
0
0
LINE
5
174
100
AcDbEntity
8
0
100
AcDbLine
10
-13.531101324207793
20
-11.667289427938845
30
0
11
-13.531031505415715
21
-17.152556441674406
31
0
0
ARC
5
175
100
AcDbEntity
8
0
100
AcDbCircle
10
-31.19477930092485
20
-43.810684108782596
30
0
40
1.9999999999999709
210
0
220
0
230
1
100
AcDbArc
50
115.95374418747431
51
163.06909882905049
0
ARC
5
176
100
AcDbEntity
8
0
100
AcDbCircle
10
-15.031031505294209
20
-17.152575534307058
30
0
40
1.4999999999999969
210
0
220
0
230
1
100
AcDbArc
50
-179.999270715367
51
0.0007292846329820476
0
ARC
5
177
100
AcDbEntity
8
0
100
AcDbCircle
10
-49.499734276898565
20
-42.500292310605765
30
0
40
2.4999999972378171
210
0
220
0
230
1
100
AcDbArc
50
90.000368477302956
51
203.23114380761174
0
LINE
5
178
100
AcDbEntity
8
0
100
AcDbLine
10
-23.984984233083303
20
-21.162621448804732
30
0
11
-23.985079785997243
21
-21.162711426134095
31
0
0
SPLINE
5
179
100
AcDbEntity
8
0
100
AcDbSpline
70
4
71
5
72
16
73
10
74
0
42
0.000000001
43
0.0000000001
44
0.0000000001
40
0
40
0
40
0
40
0
40
0
40
0
40
0.20000000000000001
40
0.40000000000000002
40
0.60000000000000009
40
0.80000000000000004
40
1
40
1
40
1
40
1
40
1
40
1
41
1
41
1
41
1
41
1
41
1
41
1
41
1
41
1
41
1
41
1
10
-13.550151808151893
20
-11.429005076925176
30
0
10
-13.528988436738523
20
-11.323926470895083
30
0
10
-13.486661693912321
20
-11.113769258835092
30
0
10
-13.423171579674772
20
-10.798533440745716
30
0
10
-13.338518094027803
20
-10.378219016627623
30
0
10
-13.23270123697236
20
-9.8528259864812249
30
0
10
-13.148047751329209
20
-9.4325115623646525
30
0
10
-13.084557637097005
20
-9.1172757442774177
30
0
10
-13.042230894275548
20
-8.9071185322193234
30
0
10
-13.021067522864829
20
-8.8020399261902966
30
0
0
ARC
5
180
100
AcDbEntity
8
0
100
AcDbCircle
10
-14.594431834315545
20
-2.5000938609062411
30
0
40
0.99999999999999645
210
0
220
0
230
1
100
AcDbArc
50
90.000368485110243
51
143.96551350147044
0
ARC
5
181
100
AcDbEntity
8
0
100
AcDbCircle
10
9.9999356870089713
20
-10.000064312577418
30
0
40
3.2500000000000102
210
0
220
0
230
-1
100
AcDbArc
50
21.630712272400142
51
98.967845066360567
0
LINE
5
182
100
AcDbEntity
8
0
100
AcDbLine
10
49.986552703049192
20
-50.983991233974919
30
0
11
46.774519376119997
21
-50.983991233975985
31
0
0
ARC
5
183
100
AcDbEntity
8
0
100
AcDbCircle
10
47.500005182611332
20
-1.7183131094972779
30
0
40
0.99999999999988254
210
0
220
-0
230
1
100
AcDbArc
50
3.1945284701301985e-06
51
35.589439264128423
0
ARC
5
184
100
AcDbEntity
8
0
100
AcDbCircle
10
9.9999356870089784
20
-10.000064312577415
30
0
40
3.2500000000000022
210
0
220
0
230
-1
100
AcDbArc
50
21.630712272400132
51
98.967845066360695
0
ARC
5
185
100
AcDbEntity
8
0
100
AcDbCircle
10
-35.499734276847434
20
-42.500202267901528
30
0
40
2.5000000000000093
210
0
220
0
230
1
100
AcDbArc
50
270.00036848511041
51
343.06909882905012
0
ARC
5
186
100
AcDbEntity
8
0
100
AcDbCircle
10
-9.3374450903458239
20
-5.8020164079754561
30
0
40
1
210
0
220
0
230
1
100
AcDbArc
50
261.03215493363945
51
315.00039822228291
0
LINE
5
187
100
AcDbEntity
8
0
100
AcDbLine
10
-16.531031505172695
20
-17.152594626939713
30
0
11
-16.531066414568734
21
-14.409961120071932
31
0
0
ARC
5
188
100
AcDbEntity
8
0
100
AcDbCircle
10
-9.9999356870089784
20
-10.000064312577422
30
0
40
3.2500000000000071
210
0
220
-0
230
1
100
AcDbArc
50
45.000268823166834
51
45.000268823166834
0
LINE
5
189
100
AcDbEntity
8
0
100
AcDbLine
10
24.442934420810936
20
-1.3909282999353545
30
0
11
24.446779071738241
21
-1.3909381501626426
31
0
0
LINE
5
190
100
AcDbEntity
8
0
100
AcDbLine
10
-23.38611284360082
20
-25.507773013627819
30
0
11
-23.385955209425994
21
-25.507615377530534
31
0
0
ARC
5
191
100
AcDbEntity
8
0
100
AcDbCircle
10
-9.9999356870089748
20
-10.000064312577416
30
0
40
3.2500000000000013
210
0
220
-0
230
1
100
AcDbArc
50
45.000268823166813
51
45.000268823166813
0
LINE
5
192
100
AcDbEntity
8
0
100
AcDbLine
10
-49.499750354753935
20
-40.000292313419649
30
0
11
-49.513892500627286
21
-40.00029240437194
31
0
0
ARC
5
193
100
AcDbEntity
8
0
100
AcDbCircle
10
-2.5000000000000222
20
-21.468154691473849
30
0
40
1.0000000000000231
210
0
220
0
230
-1
100
AcDbArc
50
0
51
53.968120927528915
0
ARC
5
194
100
AcDbEntity
8
0
100
AcDbCircle
10
-15.031101324086279
20
-11.667308520571499
30
0
40
1.4999999999999969
210
0
220
-0
230
1
100
AcDbArc
50
0.0007292846329820476
51
9.1412528621022737
0
ARC
5
195
100
AcDbEntity
8
0
100
AcDbCircle
10
-5.5511151231257827e-15
20
-18.031222920256965
30
0
40
3.2499999999999969
210
0
220
0
230
-1
100
AcDbArc
50
126.03187907247059
51
233.96812092752938
0
ARC
5
196
100
AcDbEntity
8
0
100
AcDbCircle
10
-35.999692473527368
20
-49.000205483406312
30
0
40
4.0000000000000018
210
0
220
0
230
1
100
AcDbArc
50
90.000368485110542
51
180.00036848419549
0
CIRCLE
5
197
100
AcDbEntity
8
0
100
AcDbCircle
10
0
20
-18.031222920256962
30
0
40
1
210
0
220
0
230
1
0
ARC
5
198
100
AcDbEntity
8
0
100
AcDbCircle
10
2.4998619322682867
20
-21.468170769225932
30
0
40
1.0000000000000195
210
0
220
0
230
-1
100
AcDbArc
50
126.03151058736071
51
179.99963151580454
0
ARC
5
199
100
AcDbEntity
8
0
100
AcDbCircle
10
9.9999356870089748
20
-10.000064312577422
30
0
40
3.2499999999999996
210
0
220
0
230
-1
100
AcDbArc
50
171.03160321149178
51
278.9676036587955
0
ARC
5
200
100
AcDbEntity
8
0
100
AcDbCircle
10
0.00011596381489236512
20
-18.031222919884065
30
0
40
3.2499999999999969
210
0
220
0
230
1
100
AcDbArc
50
126.03224755758113
51
233.96848941263991
0
CIRCLE
5
201
100
AcDbEntity
8
0
100
AcDbCircle
10
-42.499734276702682
20
-42.500247286850488
30
0
40
2
210
0
220
0
230
1
0
LINE
5
202
100
AcDbEntity
8
0
100
AcDbLine
10
-50.986231240620654
20
-49.984319141829587
30
0
11
-50.986247663372609
21
-47.430746242265094
31
0
0
CIRCLE
5
203
100
AcDbEntity
8
0
100
AcDbCircle
10
-24.446621848928647
20
-24.446961673512977
30
0
40
1.45
210
0
220
0
230
1
0
CIRCLE
5
204
100
AcDbEntity
8
0
100
AcDbCircle
10
-9.9999356870089784
20
-10.000064312577422
30
0
40
1.4500000000000002
210
0
220
0
230
1
0
ARC
5
205
100
AcDbEntity
8
0
100
AcDbCircle
10
-60.986247663531579
20
-47.430810555049312
30
0
40
10.000000000365771
210
0
220
-0
230
1
100
AcDbArc
50
0.00036848518458206463
51
23.231143903690981
0
ARC
5
206
100
AcDbEntity
8
0
100
AcDbCircle
10
-42.499689257753715
20
-49.500247286705715
30
0
40
2.4999999999868234
210
0
220
0
230
1
100
AcDbArc
50
-116.74001821129033
51
0.00036848518458206463
0
LINE
5
207
100
AcDbEntity
8
0
100
AcDbLine
10
-49.98622480977275
20
-50.984312710358346
30
0
11
-46.774191482909998
21
-50.984292052878779
31
0
0
ARC
5
208
100
AcDbEntity
8
0
100
AcDbCircle
10
-49.986231240813467
20
-49.984312710551166
30
0
40
0.99999999982787136
210
0
220
0
230
1
100
AcDbArc
50
180.00036848419549
51
270.00036847149102
0
CIRCLE
5
209
100
AcDbEntity
8
0
100
AcDbCircle
10
0.00011596381489514068
20
-18.031222919884065
30
0
40
1
210
0
220
0
230
1
0
ARC
5
210
100
AcDbEntity
8
0
100
AcDbCircle
10
-2.4999061399985392
20
-14.594307226934326
30
0
40
0.99999999999999301
210
0
220
0
230
1
100
AcDbArc
50
-53.967752442419297
51
0.00036848419549152881
0
ARC
5
211
100
AcDbEntity
8
0
100
AcDbCircle
10
2.4999999999999956
20
-14.594291149040091
30
0
40
0.99999999999999312
210
0
220
0
230
1
100
AcDbArc
50
180
51
233.96812092752981
0
ARC
5
212
100
AcDbEntity
8
0
100
AcDbCircle
10
48.70245852135082
20
0.03804863699492636
30
0
40
0.99999999999997558
210
0
220
0
230
1
100
AcDbArc
50
148.03726367607013
51
215.58943926412726
0
CIRCLE
5
213
100
AcDbEntity
8
0
100
AcDbCircle
10
0.00017740308777613808
20
-0.00020924625910098346
30
0
40
1.5000000000000002
210
0
220
0
230
1
0
CIRCLE
5
214
100
AcDbEntity
8
0
100
AcDbCircle
10
-18.031249831549204
20
6.2544979359157644e-05
30
0
40
1
210
0
220
0
230
1
0
ARC
5
215
100
AcDbEntity
8
0
100
AcDbCircle
10
-48.702458765045009
20
0.037735417923537053
30
0
40
0.99999999999995315
210
0
220
0
230
1
100
AcDbArc
50
-35.589070779017497
51
31.963104809040598
0
LINE
5
216
100
AcDbEntity
8
0
100
AcDbLine
10
-24.442925474858292
20
1.3906670067051059
30
0
11
-24.446770125722161
21
1.3906768816584143
31
0
0
LWPOLYLINE
5
217
100
AcDbEntity
8
0
100
AcDbPolyline
90
12
70
1
43
0.0
10
-44.500001958236865
20
1.3972175652023311
10
-26.949332486620456
20
1.3971046919604597
42
0.41496417132808422
10
-25.946764003595931
20
2.3970949665452057
10
-25.94665361543894
20
19.573155469408285
42
0.24153136156376642
10
-26.779976511638779
20
21.19762655145373
42
-0.28499577032468304
10
-28.393875645051846
20
25.093992668312236
42
0.24153136044265239
10
-28.953280142505548
20
26.831922450100993
10
-39.317786732816423
20
37.196507899631825
42
0.23606799941837736
10
-41.863365712644779
20
38.045050357406765
10
-44.499770002059037
20
38.045066959025661
42
0.4142135623741473
10
-45.499776299105207
20
37.045073256107898
10
-45.499995526938378
20
2.3972238924959646
42
0.41421353192271193
0
LWPOLYLINE
5
218
100
AcDbEntity
8
0
100
AcDbPolyline
90
11
70
1
43
0.0
10
-19.531206084710487
20
3.4364698260735804
10
-19.531033501829697
20
16.995329196890864
42
0.19891386906760586
10
-19.823921805982032
20
17.702443791884917
10
-21.239548969441195
20
19.118090633519451
42
0.66817882560203401
10
-22.946660665187121
20
18.410995198225596
10
-22.946762994969575
20
2.4997290845552147
42
0.41421356237309065
10
-21.946769426268681
20
1.499722653297475
10
-21.468145044112244
20
1.4997195751308103
10
-21.468042101373097
20
1.4997195744687568
42
0.2399179156320824
10
-20.659380178672208
20
1.9114370775196932
42
-0.078410311673630134
10
-19.942981083904712
20
2.627785238732312
42
0.23993164795342911
0
ARC
5
219
100
AcDbEntity
8
0
100
AcDbCircle
10
-18.031249831549204
20
-0.00048103749756112459
30
0
40
3.2500000000000058
210
0
220
-0
230
1
100
AcDbArc
50
36.034486498529475
51
53.967391642681697
0
LWPOLYLINE
5
220
100
AcDbEntity
8
0
100
AcDbPolyline
90
12
70
1
43
0.0
10
45.500010945903149
20
2.39693126930693
10
45.500014548035949
20
37.044780633612234
42
0.41421356237414597
10
44.50001468224837
20
38.044780767828257
10
41.863610392781894
20
38.044781121659369
42
0.23606799941837772
10
39.318025955793374
20
37.196255035229136
10
28.953452708162093
20
26.831736242940245
42
0.24153136044265214
10
28.394037033609656
20
25.093810058873505
42
-0.28499577032468398
10
26.780112841614617
20
21.197454321530259
42
0.24153136156376478
10
25.946779498006201
20
19.57298859884996
10
25.946779422135897
20
2.3969280956321581
42
0.41496417132808461
10
26.949341473923809
20
1.3969313732710424
10
44.500010945903156
20
1.3969313732710398
42
0.41421353192271287
0
LWPOLYLINE
5
221
100
AcDbEntity
8
0
100
AcDbPolyline
90
11
70
1
43
0.0
10
22.946779073640165
20
18.410847621481231
10
22.946779073640169
20
2.499581507481798
42
-0.41421356237309148
10
21.946779073640169
20
1.4995815074818002
10
21.468154691473838
20
1.4995815074817971
10
21.468051748734691
20
1.4995815074818002
42
-0.23991791563208004
10
20.65939247392043
20
1.9113042112541918
42
0.078410311673630481
10
19.942997986202219
20
2.6276569798140366
42
-0.23993164795342958
10
19.531228187892246
20
3.4363442153782486
10
19.531142805811157
20
16.995203587025056
42
-0.19891386906760714
10
19.824035657608274
20
17.702316298358255
10
21.239671925457131
20
19.117954035671087
42
-0.66817882560203357
0
LINE
5
222
100
AcDbEntity
8
0
100
AcDbLine
10
-48.49999413065855
20
1.7182064781031015
30
0
11
-48.499756444477704
21
38.999967399609254
31
0
0
ARC
5
223
100
AcDbEntity
8
0
100
AcDbCircle
10
-6.0355133975737809
20
2.4996203236005829
30
0
40
1.0000000000000027
210
0
220
0
230
1
100
AcDbArc
50
-90.000368485110442
51
44.999601777716968
0
CIRCLE
5
224
100
AcDbEntity
8
0
100
AcDbCircle
10
-18.031249831549204
20
-0.00048103749756112459
30
0
40
1
210
0
220
0
230
1
0
LINE
5
225
100
AcDbEntity
8
0
100
AcDbLine
10
48.500005182611218
20
1.7178945611018239
30
0
11
48.500007265814929
21
38.999655483365594
31
0
0
LINE
5
226
100
AcDbEntity
8
0
100
AcDbLine
10
-6.0355198288522027
20
1.4996203236212613
30
0
11
-14.594438265593963
21
1.4996753684087234
31
0
0
LINE
5
227
100
AcDbEntity
8
0
100
AcDbLine
10
24.442934420810936
20
1.3905098074171525
30
0
11
24.446779071738241
21
1.3905196576444403
31
0
0
ARC
5
228
100
AcDbEntity
8
0
100
AcDbCircle
10
47.500005182611332
20
1.7178946169790756
30
0
40
0.99999999999988221
210
-0
220
0
230
1
100
AcDbArc
50
324.41056073587157
51
359.99999680547148
0
LINE
5
229
100
AcDbEntity
8
0
100
AcDbLine
10
48.313213226525853
20
1.135921527126559
30
0
11
47.889250477436214
21
0.54350596033942467
31
0
0
CIRCLE
5
230
100
AcDbEntity
8
0
100
AcDbCircle
10
0.00017740308777613808
20
-0.00020924625910098346
30
0
40
1.5000000000000002
210
0
220
0
230
1
0
ARC
5
231
100
AcDbEntity
8
0
100
AcDbCircle
10
48.70245852135082
20
-0.038467129513128327
30
0
40
0.99999999999997558
210
0
220
0
230
1
100
AcDbArc
50
144.41056073587274
51
211.9627363239299
0
ARC
5
232
100
AcDbEntity
8
0
100
AcDbCircle
10
18.031249830774058
20
-0.00059700148552898485
30
0
40
3.25
210
0
220
0
230
1
100
AcDbArc
50
126.03223987220781
51
143.96514501636005
0
ARC
5
233
100
AcDbEntity
8
0
100
AcDbCircle
10
15.531228187971553
20
3.4363190268048198
30
0
40
1.0000000000000038
210
0
220
0
230
1
100
AcDbArc
50
-53.967760127791934
51
0.00036079993458939261
0
ARC
5
234
100
AcDbEntity
8
0
100
AcDbCircle
10
14.59444791281342
20
2.4995815074817935
30
0
40
0.99999999999999645
210
0
220
0
230
1
100
AcDbArc
50
269.99999999999989
51
323.96514501636005
0
ARC
5
235
100
AcDbEntity
8
0
100
AcDbCircle
10
6.0355294758946529
20
2.4995815074817989
30
0
40
1.0000000000000036
210
0
220
0
230
1
100
AcDbArc
50
135.00002973717258
51
269.99999999999994
0
LINE
5
236
100
AcDbEntity
8
0
100
AcDbLine
10
6.0355294758946521
20
1.4995815074817966
30
0
11
14.594447912813418
21
1.4995815074817971
31
0
0
ARC
5
237
100
AcDbEntity
8
0
100
AcDbCircle
10
-14.594431834315545
20
2.4996753683880391
30
0
40
0.999999999999994
210
0
220
0
230
1
100
AcDbArc
50
216.03448649852956
51
269.99963151488976
0
ARC
5
238
100
AcDbEntity
8
0
100
AcDbCircle
10
-15.531206085034508
20
3.4364189123864635
30
0
40
1.0000000000000098
210
0
220
0
230
1
100
AcDbArc
50
179.999270715367
51
233.96739164268146
0
ARC
5
239
100
AcDbEntity
8
0
100
AcDbCircle
10
-48.702458765045009
20
-0.03815391044173902
30
0
40
0.9999999999999688
210
0
220
0
230
1
100
AcDbArc
50
-31.963104809040601
51
35.589070779017469
0
LINE
5
240
100
AcDbEntity
8
0
100
AcDbLine
10
5.3284223277115963
20
3.2066879216716515
30
0
11
8.6303752563525968
21
6.5086442778179867
31
0
0
LINE
5
241
100
AcDbEntity
8
0
100
AcDbLine
10
-48.313205917407672
20
1.1362322428287956
30
0
11
-47.889246978316265
21
0.54381394943143269
31
0
0
ARC
5
242
100
AcDbEntity
8
0
100
AcDbCircle
10
-47.499994130678985
20
1.7182001027019309
30
0
40
0.99999999999988232
210
0
220
0
230
1
100
AcDbArc
50
179.9996347165598
51
215.58907077901765
0
LINE
5
243
100
AcDbEntity
8
0
100
AcDbLine
10
-5.3284017018071248
20
3.2067221901728677
30
0
11
-8.6303333945791731
21
6.508699782029538
31
0
0
LINE
5
244
100
AcDbEntity
8
0
100
AcDbLine
10
-16.531066414568734
20
14.409542627553728
30
0
11
-16.53120608495351
21
3.4364316408082338
31
0
0
LINE
5
245
100
AcDbEntity
8
0
100
AcDbLine
10
16.531159088698875
20
14.409436311364992
30
0
11
16.531228187951729
21
3.4363253239481684
31
0
0
LINE
5
246
100
AcDbEntity
8
0
100
AcDbLine
10
32.070340279618186
20
42.011764048841599
30
0
11
1.3129188309466771
21
37.306854149734363
31
0
0
LWPOLYLINE
5
247
100
AcDbEntity
8
0
100
AcDbPolyline
90
8
70
1
43
0.0
10
35.563419498022157
20
37.684293134213696
10
25.59406020829913
20
27.714985963279005
42
-0.22773507729235801
10
24.776910015573662
20
27.428166224542693
42
0.1507302939851014
10
23.039802317652068
20
27.095992797747151
42
-0.22773507729236839
10
22.174480664230607
20
27.06108669341091
10
7.5795378546987857
20
33.361437551348075
42
-0.75323987891951127
10
7.8246578420142265
20
35.268047687465952
10
34.705105151073731
20
39.379903515428623
42
-0.72452562829050671
0
LWPOLYLINE
5
248
100
AcDbEntity
8
0
100
AcDbPolyline
90
4
70
1
43
0.0
10
38.000007606747076
20
41.49955546582936
10
36.500007606747054
20
41.49955546582936
42
-0.99999999999999989
10
36.500007606747069
20
43.49955546582936
10
38.000007606747054
20
43.49955546582936
42
-0.99999999999999989
0
LWPOLYLINE
5
249
100
AcDbEntity
8
0
100
AcDbPolyline
90
19
70
1
43
0.0
10
1.499999999999998
20
31.197390434234702
10
1.4999999999999991
20
21.467736198955649
42
0.23993164795342697
10
1.9117647058823561
20
20.659046370434019
42
-0.50917507721731536
10
1.9117647058823577
20
15.402562485043504
42
0.23993164795342997
10
1.5000000000000024
20
14.593872656521887
10
1.5000000000000018
20
6.0351198434581734
42
0.66817882560203601
10
3.2071071481830549
20
5.3280134292683243
10
6.5090613623068583
20
8.6299710708987991
42
0.23993108331635865
10
6.7897296931534967
20
9.4929607844752777
42
-0.50917375078982607
10
10.506617576401938
20
13.209852310900207
10
10.531170154932035
20
13.209852494822892
42
0.41421171798371487
10
11.531163857788689
20
14.209852494803064
10
11.531141818041664
20
17.152038332683823
42
-0.48110295095004768
10
15.804715873383232
20
20.56550191763619
42
0.25754274367713342
10
19.517229100870836
20
21.638152312248945
10
20.782434866007815
20
22.903359390699471
42
0.52975802222441815
10
20.471657119250203
20
24.5285741893221
10
19.9544836329272
20
24.751827850592328
10
2.896329401425441
20
32.115498818667461
42
0.53928294135788346
0
LWPOLYLINE
5
250
100
AcDbEntity
8
0
100
AcDbPolyline
90
19
70
1
43
0.0
10
-1.4998619322889439
20
21.467745845429302
10
-1.4997993581736031
20
31.197400080507144
42
0.53928294135788291
10
-2.8961228549595286
20
32.115517445104075
10
-19.954324443926726
20
24.751956182920452
10
-20.471499366045492
20
24.528705847741527
42
0.52975802222441526
10
-20.782287565005532
20
22.903493047850723
10
-19.517089936793703
20
21.638277832535824
42
0.25754274367713359
10
-15.804583607896213
20
20.565603561739039
42
-0.48110295095004707
10
-11.531031505577729
20
17.152112492312661
10
-11.531072467341044
20
14.209926654634488
42
0.41421171798371414
10
-10.531085195783492
20
13.209920223437074
10
-10.506532617255083
20
13.209919881609922
42
-0.5091737507898263
10
-6.789668638447786
20
9.493004450921017
42
0.23993108331635826
10
-6.5090058577340741
20
8.6300129323062063
10
-3.207072879487487
20
5.3280340549571292
42
0.66817882560203612
10
-1.4999611837415143
20
6.0351294902509878
10
-1.499906140019226
20
14.593882303137701
42
0.23993164795343011
10
-1.9116656449836211
20
15.40257477981606
42
-0.50917507721731536
10
-1.9116318390722276
20
20.659058665097866
42
0.23993164795342406
0
LINE
5
251
100
AcDbEntity
8
0
100
AcDbLine
10
23.38627689070735
20
25.507204117979185
30
0
11
23.386119255518732
21
25.507046482895692
31
0
0
LINE
5
252
100
AcDbEntity
8
0
100
AcDbLine
10
-1.4998619322889439
20
21.467745845429302
30
0
11
-1.4997993581736031
21
31.197400080507144
31
0
0
CIRCLE
5
253
100
AcDbEntity
8
0
100
AcDbCircle
10
24.446779073640172
20
24.446385957457597
30
0
40
1.45
210
0
220
0
230
1
0
ARC
5
254
100
AcDbEntity
8
0
100
AcDbCircle
10
15.031141817972271
20
17.152060372685543
30
0
40
1.4999999999999991
210
0
220
-0
230
1
100
AcDbArc
50
0.00036079892443059046
51
180.00036079892442
0
LWPOLYLINE
5
255
100
AcDbEntity
8
0
100
AcDbPolyline
90
8
70
1
43
0.0
10
-35.563177136413941
20
37.684521851686789
10
-25.593881962287199
20
27.715150565232982
42
0.22773507729235604
10
-24.776733614196228
20
27.428325571182206
42
-0.15073029398510254
10
-23.039628052610333
20
27.096140972570279
42
0.22773507729236736
10
-22.174306623697653
20
27.061229303110284
10
-7.5793232951571055
20
33.361486296776391
42
0.75323987891951061
10
-7.8244310205268475
20
35.268098009289716
10
-34.704851884540815
20
39.380126712808128
42
0.72452562829049905
0
LINE
5
256
100
AcDbEntity
8
0
100
AcDbLine
10
13.531176359514703
20
11.666783912899376
30
0
11
13.531141818002013
21
17.152050926970521
31
0
0
ARC
5
257
100
AcDbEntity
8
0
100
AcDbCircle
10
36.000007606747076
20
48.999555465829339
30
0
40
4.0000000000000036
210
0
220
0
230
1
100
AcDbArc
50
-90
51
0
0
LWPOLYLINE
5
258
100
AcDbEntity
8
0
100
AcDbPolyline
90
6
70
1
43
0.0
10
47.838717284166421
20
45.171840117650945
42
0.50337011108930108
10
49.000007606747062
20
46.033076070991079
10
49.000007606747062
20
47.999555465829346
42
0.41421356237309503
10
48.000007606747062
20
48.999555465829339
10
46.033528211908802
20
48.999555465829374
42
0.50337011108930296
10
45.17229225856866
20
47.838265143248705
42
0.25046591309411209
0
ARC
5
259
100
AcDbEntity
8
0
100
AcDbCircle
10
31.195061058987083
20
43.810064993047348
30
0
40
1.999999999999964
210
-0
220
0
230
1
100
AcDbArc
50
295.95337570236387
51
343.06873034394022
0
LWPOLYLINE
5
260
100
AcDbEntity
8
0
100
AcDbPolyline
90
4
70
1
43
0.0
10
43.50000760674709
20
48.499555465829339
10
43.50000760674709
20
46.999555465829381
42
-0.99999999999999989
10
41.500007606747062
20
46.999555465829353
10
41.500007606747076
20
48.499555465829339
42
-0.99999999999999989
0
ARC
5
261
100
AcDbEntity
8
0
100
AcDbCircle
10
-10.000000000000004
20
9.999581507481798
30
0
40
3.2499999999999996
210
0
220
0
230
-1
100
AcDbArc
50
201.63108075751066
51
278.96821355147108
0
LINE
5
262
100
AcDbEntity
8
0
100
AcDbLine
10
23.985120335297946
20
21.162048701737316
30
0
11
23.98521588879057
21
21.162138678452145
31
0
0
LINE
5
263
100
AcDbEntity
8
0
100
AcDbLine
10
35.500007606747054
20
44.999555465829353
30
0
11
36.000007606747076
21
44.999555465829332
31
0
0
ARC
5
264
100
AcDbEntity
8
0
100
AcDbCircle
10
49.500007265814915
20
38.999655483365594
30
0
40
0.99999999999999423
210
0
220
-0
230
1
100
AcDbArc
50
89.189668180274964
51
180
0
LWPOLYLINE
5
265
100
AcDbEntity
8
0
100
AcDbPolyline
90
4
70
1
43
0.0
10
48.500007606769898
20
41.49954973039695
10
47.000007606851995
20
41.499549848767828
42
-0.99995071900047094
10
47.000007606603432
20
43.499549906152893
10
48.500007606810925
20
43.499549791790344
42
-1.000001810339413
0
LINE
5
266
100
AcDbEntity
8
0
100
AcDbLine
10
1.499999999999998
20
31.197390434234702
30
0
11
1.4999999999999991
21
21.467736198955649
31
0
0
SPLINE
5
267
100
AcDbEntity
8
0
100
AcDbSpline
70
4
71
5
72
16
73
10
74
0
42
0.000000001
43
0.0000000001
44
0.0000000001
40
0
40
0
40
0
40
0
40
0
40
0
40
0.20000000000000001
40
0.40000000000000002
40
0.60000000000000009
40
0.80000000000000004
40
1
40
1
40
1
40
1
40
1
40
1
41
1
41
1
41
1
41
1
41
1
41
1
41
1
41
1
41
1
41
1
10
13.550225310985407
20
11.42849943937167
30
0
10
13.529061263782703
20
11.323420969451286
30
0
10
13.486733169377832
20
11.113264029610708
30
0
10
13.423241027772283
20
10.798028619850456
30
0
10
13.338584838967977
20
10.377714740171189
30
0
10
13.232764602965865
20
9.8523223905733257
30
0
10
13.148108414165376
20
9.4320085108955816
30
0
10
13.084616272565173
20
9.1167731011374684
30
0
10
13.042288178165048
20
8.9066161612987891
30
0
10
13.021124130964994
20
8.8015376913794654
30
0
0
ARC
5
268
100
AcDbEntity
8
0
100
AcDbCircle
10
9.9999356870089713
20
9.999645820059218
30
0
40
3.2500000000000022
210
0
220
0
230
-1
100
AcDbArc
50
261.03215493363945
51
338.3692877275999
0
ARC
5
269
100
AcDbEntity
8
0
100
AcDbCircle
10
60.986552703018795
20
47.429999842011554
30
0
40
10.00000000036577
210
0
220
0
230
1
100
AcDbArc
50
180
51
203.23077541858055
0
CIRCLE
5
270
100
AcDbEntity
8
0
100
AcDbCircle
10
10.000000000000004
20
9.9995815074818033
30
0
40
1.4500000000000002
210
0
220
0
230
1
0
LWPOLYLINE
5
271
100
AcDbEntity
8
0
100
AcDbPolyline
90
4
70
1
43
0.0
10
-48.499727845400528
20
43.49986170794314
42
1.000001810339413
10
-48.499740707916729
20
41.499861646591107
10
-46.999740708027993
20
41.499852118044352
42
0.99995071899990795
10
-46.999727845223305
20
43.499852175388057
0
ARC
5
272
100
AcDbEntity
8
0
100
AcDbCircle
10
-31.19477930092485
20
43.810265616264388
30
0
40
1.9999999999999494
210
0
220
0
230
1
100
AcDbArc
50
196.93090117094928
51
244.04625581252569
0
CIRCLE
5
273
100
AcDbEntity
8
0
100
AcDbCircle
10
0.00011596381489514068
20
18.030804427365862
30
0
40
1
210
0
220
0
230
1
0
ARC
5
274
100
AcDbEntity
8
0
100
AcDbCircle
10
10
20
9.999581507481798
30
0
40
3.25
210
0
220
0
230
1
100
AcDbArc
50
224.99990033805631
51
224.99990033805631
0
SPLINE
5
275
100
AcDbEntity
8
0
100
AcDbSpline
70
4
71
5
72
16
73
10
74
0
42
0.000000001
43
0.0000000001
44
0.0000000001
40
0
40
0
40
0
40
0
40
0
40
0
40
0.20000000000000001
40
0.40000000000000002
40
0.60000000000000009
40
0.80000000000000004
40
1
40
1
40
1
40
1
40
1
40
1
41
1
41
1
41
1
41
1
41
1
41
1
41
1
41
1
41
1
41
1
10
-13.550151808151893
20
11.428586584406975
30
0
10
-13.528988436738523
20
11.323507978376881
30
0
10
-13.486661693912321
20
11.11335076631689
30
0
10
-13.423171579674772
20
10.798114948227514
30
0
10
-13.338518094027803
20
10.377800524109421
30
0
10
-13.23270123697236
20
9.8524074939630228
30
0
10
-13.148047751329209
20
9.4320930698464505
30
0
10
-13.084557637097005
20
9.1168572517592157
30
0
10
-13.042230894275548
20
8.9067000397011213
30
0
10
-13.021067522864829
20
8.8016214336720946
30
0
0
ARC
5
276
100
AcDbEntity
8
0
100
AcDbCircle
10
10.000000000000004
20
9.9995815074818033
30
0
40
3.2500000000000067
210
0
220
0
230
1
100
AcDbArc
50
224.99990033805636
51
224.99990033805636
0
LINE
5
277
100
AcDbEntity
8
0
100
AcDbLine
10
16.53114181794253
20
17.152069818400562
30
0
11
16.531159088698875
21
14.409436311364992
31
0
0
ARC
5
278
100
AcDbEntity
8
0
100
AcDbCircle
10
9.337482404535649
20
5.8015378636281367
30
0
40
0.99999999999999889
210
0
220
-0
230
1
100
AcDbArc
50
81.03178644852899
51
135.00002973717253
0
ARC
5
279
100
AcDbEntity
8
0
100
AcDbCircle
10
9.9999356870089766
20
9.9996458200592127
30
0
40
3.2499999999999991
210
0
220
0
230
-1
100
AcDbArc
50
261.03215493363933
51
338.3692877275999
0
ARC
5
280
100
AcDbEntity
8
0
100
AcDbCircle
10
-10
20
9.9995815074818033
30
0
40
3.2499999999999996
210
0
220
-0
230
-1
100
AcDbArc
50
-8.9680283033977837
51
98.967972143906039
0
ARC
5
281
100
AcDbEntity
8
0
100
AcDbCircle
10
35.500007606747054
20
42.499555465829346
30
0
40
2.5000000000000089
210
0
220
-0
230
1
100
AcDbArc
50
90
51
163.06873034393968
0
LINE
5
282
100
AcDbEntity
8
0
100
AcDbLine
10
50.986552702639344
20
49.983572741628855
30
0
11
50.986552702653029
21
47.429999842011561
31
0
0
LINE
5
283
100
AcDbEntity
8
0
100
AcDbLine
10
-23.38611284360082
20
25.507354521109615
30
0
11
-23.385955209425994
21
25.507196885012327
31
0
0
ARC
5
284
100
AcDbEntity
8
0
100
AcDbCircle
10
-35.499734276847434
20
42.499783775383328
30
0
40
2.5000000000000124
210
0
220
-0
230
1
100
AcDbArc
50
16.930901170949902
51
89.999631514889558
0
CIRCLE
5
285
100
AcDbEntity
8
0
100
AcDbCircle
10
42.500007606747054
20
42.499555465829346
30
0
40
2
210
0
220
0
230
1
0
ARC
5
286
100
AcDbEntity
8
0
100
AcDbCircle
10
15.031176359484961
20
11.666793358614399
30
0
40
1.4999999999999991
210
0
220
0
230
1
100
AcDbArc
50
180.00036079892442
51
189.14088437699181
0
ARC
5
287
100
AcDbEntity
8
0
100
AcDbCircle
10
-9.9999999999999982
20
9.9995815074817997
30
0
40
3.2500000000000071
210
0
220
0
230
-1
100
AcDbArc
50
201.63108075751066
51
278.96821355147102
0
ARC
5
288
100
AcDbEntity
8
0
100
AcDbCircle
10
46.774519376131423
20
57.983572741466475
30
0
40
7.000000000008697
210
0
220
0
230
1
100
AcDbArc
50
243.25961330347641
51
269.99999999990649
0
LINE
5
289
100
AcDbEntity
8
0
100
AcDbLine
10
-50.986231240620654
20
49.98390064931138
30
0
11
-50.986247663372609
21
47.430327749746894
31
0
0
ARC
5
290
100
AcDbEntity
8
0
100
AcDbCircle
10
0.00025728151862880407
20
40.004305565216008
30
0
40
3.0000000000002776
210
0
220
0
230
1
100
AcDbArc
50
244.04625581252819
51
269.99963151488953
0
LWPOLYLINE
5
291
100
AcDbEntity
8
0
100
AcDbPolyline
90
6
70
1
43
0.0
10
-45.171984593740689
20
47.838555657847863
42
0.5033701110893023
10
-46.033213078481609
20
48.999851519252701
10
-47.99969247327919
20
48.999864166229187
42
0.41421356237309243
10
-48.999698904536913
20
47.999870597528286
10
-48.999711551513442
20
46.033391202730691
42
0.50337011108930763
10
-47.838426767805004
20
45.172147780826954
42
0.25046591309411126
0
LINE
5
292
100
AcDbEntity
8
0
100
AcDbLine
10
-32.070070086911912
20
42.011970301260192
30
0
11
-1.3126788974619856
21
37.306862592709372
31
0
0
LINE
5
293
100
AcDbEntity
8
0
100
AcDbLine
10
-23.984984233083303
20
21.162202956286528
30
0
11
-23.985079785997243
21
21.162292933615888
31
0
0
ARC
5
294
100
AcDbEntity
8
0
100
AcDbCircle
10
42.500007606747054
20
49.499555465829339
30
0
40
2.4999999999868265
210
0
220
-0
230
1
100
AcDbArc
50
63.259613303599096
51
180
0
CIRCLE
5
295
100
AcDbEntity
8
0
100
AcDbCircle
10
-42.499734276702682
20
42.499828794332288
30
0
40
2
210
0
220
0
230
1
0
ARC
5
296
100
AcDbEntity
8
0
100
AcDbCircle
10
0
20
40.004305566043328
30
0
40
3.0000000000002736
210
-0
220
0
230
1
100
AcDbArc
50
270
51
295.95337570236137
0
LINE
5
297
100
AcDbEntity
8
0
100
AcDbLine
10
40.00000760674709
20
48.999555465829339
30
0
11
40.000007606747054
21
49.499555465829339
31
0
0
ARC
5
298
100
AcDbEntity
8
0
100
AcDbCircle
10
-60.986247663531579
20
47.430392062531112
30
0
40
10.000000000365761
210
-0
220
0
230
1
100
AcDbArc
50
336.76885609630898
51
359.99963151481541
0
CIRCLE
5
299
100
AcDbEntity
8
0
100
AcDbCircle
10
-24.446621848928647
20
24.446543180994773
30
0
40
1.45
210
0
220
0
230
1
0
ARC
5
300
100
AcDbEntity
8
0
100
AcDbCircle
10
-46.774146463972457
20
57.983873560224509
30
0
40
7.0000000000086979
210
0
220
0
230
1
100
AcDbArc
50
269.99963151498292
51
296.7400182114132
0
ARC
5
301
100
AcDbEntity
8
0
100
AcDbCircle
10
-15.031101324086279
20
11.666890028053295
30
0
40
1.4999999999999925
210
-0
220
0
230
1
100
AcDbArc
50
350.85874713789769
51
359.999270715367
0
ARC
5
302
100
AcDbEntity
8
0
100
AcDbCircle
10
-9.3374450903458239
20
5.801597915457255
30
0
40
0.99999999999999767
210
0
220
-0
230
1
100
AcDbArc
50
44.99960177771711
51
98.967845066360567
0
LINE
5
303
100
AcDbEntity
8
0
100
AcDbLine
10
-13.531101324207793
20
11.666870935420642
30
0
11
-13.531031505415715
21
17.152137949156202
31
0
0
LINE
5
304
100
AcDbEntity
8
0
100
AcDbLine
10
49.500007606747083
20
39.999555473397841
30
0
11
49.514149752620717
21
39.999555473398061
31
0
0
LWPOLYLINE
5
305
100
AcDbEntity
8
0
100
AcDbPolyline
90
4
70
1
43
0.0
10
-36.499740708105165
20
41.499790206682448
42
0.99999999999999989
10
-36.49972784554835
20
43.499790206641087
10
-37.999727845517313
20
43.49979985355872
42
0.99999999999999989
10
-37.999740708074178
20
41.499799853600081
0
LINE
5
306
100
AcDbEntity
8
0
100
AcDbLine
10
-49.499750354753935
20
39.999873820901442
30
0
11
-49.513892500627286
21
39.99987391185374
31
0
0
ARC
5
307
100
AcDbEntity
8
0
100
AcDbCircle
10
2.4999999999999956
20
14.593872656521887
30
0
40
0.99999999999999212
210
0
220
0
230
1
100
AcDbArc
50
126.03187907247022
51
180
0
ARC
5
308
100
AcDbEntity
8
0
100
AcDbCircle
10
-49.986231240813467
20
49.983894218032958
30
0
40
0.99999999982786092
210
0
220
-0
230
1
100
AcDbArc
50
89.999631528508971
51
179.99963151580454
0
ARC
5
309
100
AcDbEntity
8
0
100
AcDbCircle
10
-2.5000000000000222
20
21.467736198955649
30
0
40
1.0000000000000195
210
-0
220
0
230
-1
100
AcDbArc
50
-53.968120927528922
51
0
0
LINE
5
310
100
AcDbEntity
8
0
100
AcDbLine
10
-16.531031505172695
20
17.152176134421509
30
0
11
-16.531066414568734
21
14.409542627553728
31
0
0
CIRCLE
5
311
100
AcDbEntity
8
0
100
AcDbCircle
10
0
20
18.030804427738758
30
0
40
1
210
0
220
0
230
1
0
ARC
5
312
100
AcDbEntity
8
0
100
AcDbCircle
10
-2.4999061399985392
20
14.593888734416122
30
0
40
0.99999999999999367
210
0
220
0
230
1
100
AcDbArc
50
-0.00036848419551244963
51
53.967752442419275
0
ARC
5
313
100
AcDbEntity
8
0
100
AcDbCircle
10
-9.9999356870089766
20
9.9996458200592198
30
0
40
3.2500000000000067
210
-0
220
0
230
1
100
AcDbArc
50
314.99973117683311
51
314.99973117683311
0
LINE
5
314
100
AcDbEntity
8
0
100
AcDbLine
10
49.986552703049192
20
50.983572741456712
30
0
11
46.774519376119997
21
50.983572741457778
31
0
0
ARC
5
315
100
AcDbEntity
8
0
100
AcDbCircle
10
-2.4998619322682778
20
21.467752276707728
30
0
40
1.0000000000000142
210
-0
220
0
230
1
100
AcDbArc
50
306.03151058736029
51
359.99963151580448
0
ARC
5
316
100
AcDbEntity
8
0
100
AcDbCircle
10
0.00011596381489236512
20
18.030804427365862
30
0
40
3.25
210
0
220
0
230
1
100
AcDbArc
50
126.03151058736009
51
233.96775244241886
0
ARC
5
317
100
AcDbEntity
8
0
100
AcDbCircle
10
-49.499756444457006
20
38.999973830887676
30
0
40
0.99999999999998257
210
0
220
0
230
1
100
AcDbArc
50
-0.00036848419551244963
51
90.809963334614579
0
ARC
5
318
100
AcDbEntity
8
0
100
AcDbCircle
10
49.500007607087753
20
42.499555470635656
30
0
40
2.4999999972378184
210
0
220
0
230
1
100
AcDbArc
50
-90.000000007807571
51
23.230775322501582
0
ARC
5
319
100
AcDbEntity
8
0
100
AcDbCircle
10
-9.9999356870089766
20
9.9996458200592198
30
0
40
3.2500000000000022
210
0
220
0
230
1
100
AcDbArc
50
-8.9683967885082261
51
98.96760365879544
0
ARC
5
320
100
AcDbEntity
8
0
100
AcDbCircle
10
-35.999692473527368
20
48.999786990888111
30
0
40
4.0000000000000142
210
0
220
0
230
1
100
AcDbArc
50
179.99963151580454
51
269.99963151488947
0
ARC
5
321
100
AcDbEntity
8
0
100
AcDbCircle
10
2.7755575615628914e-15
20
18.030804427738758
30
0
40
3.2499999999999969
210
0
220
0
230
1
100
AcDbArc
50
-53.968120927529327
51
53.968120927529441
0
LWPOLYLINE
5
322
100
AcDbEntity
8
0
100
AcDbPolyline
90
4
70
1
43
0.0
10
-43.499695689011503
20
48.499835225486621
10
-43.499705335929129
20
46.999835225517678
42
0.99999999999999989
10
-41.499705335970454
20
46.999822362960806
10
-41.499695689052857
20
48.49982236292977
42
0.99999999999999989
0
ARC
5
323
100
AcDbEntity
8
0
100
AcDbCircle
10
-42.499689257753715
20
49.499828794187515
30
0
40
2.5000000000000093
210
0
220
0
230
1
100
AcDbArc
50
-0.00036848518458862227
51
116.74001821129033
0
LINE
5
324
100
AcDbEntity
8
0
100
AcDbLine
10
-35.499718198651379
20
44.999783775331636
30
0
11
-35.999718198641062
21
44.999786990970833
31
0
0
ARC
5
325
100
AcDbEntity
8
0
100
AcDbCircle
10
-9.9999356870089731
20
9.9996458200592144
30
0
40
3.25
210
-0
220
0
230
1
100
AcDbArc
50
314.99973117683317
51
314.99973117683317
0
ARC
5
326
100
AcDbEntity
8
0
100
AcDbCircle
10
-15.031031505294209
20
17.152157041788854
30
0
40
1.5000000000000013
210
0
220
0
230
1
100
AcDbArc
50
-0.00072928463298546761
51
179.999270715367
0
CIRCLE
5
327
100
AcDbEntity
8
0
100
AcDbCircle
10
-9.9999356870089766
20
9.9996458200592198
30
0
40
1.4500000000000002
210
0
220
0
230
1
0
ARC
5
328
100
AcDbEntity
8
0
100
AcDbCircle
10
49.98655270281148
20
49.983572741628855
30
0
40
0.99999999982786747
210
0
220
0
230
1
100
AcDbArc
50
0
51
89.999999986380089
0
LINE
5
329
100
AcDbEntity
8
0
100
AcDbLine
10
-39.999692473444661
20
48.999812716001799
30
0
11
-39.999689257805414
21
49.49981271599146
31
0
0
LINE
5
330
100
AcDbEntity
8
0
100
AcDbLine
10
-49.98622480977275
20
50.983894217840138
30
0
11
-46.774191482909998
21
50.983873560360571
31
0
0
ARC
5
331
100
AcDbEntity
8
0
100
AcDbCircle
10
-49.499734276898565
20
42.499873818087565
30
0
40
2.4999999972378406
210
0
220
0
230
1
100
AcDbArc
50
156.76885619238828
51
269.99963152269703
0
CIRCLE
5
332
100
AcDbEntity
8
0
100
AcDbCircle
10
18.031249830774058
20
-0.00059700148552898485
30
0
40
1
210
0
220
0
230
1
0
ENDSEC
0
SECTION
2
OBJECTS
0
DICTIONARY
5
C
100
AcDbDictionary
3
ACAD_GROUP
350
D
3
ACAD_MLINESTYLE
350
17
0
DICTIONARY
5
D
100
AcDbDictionary
0
DICTIONARY
5
1A
330
C
100
AcDbDictionary
0
DICTIONARY
5
17
100
AcDbDictionary
0
ENDSEC
0
EOF
