0
SECTION
2
HEADER
9
$INSUNITS
70
4
9
$ACADVER
1
AC1014
9
$HANDSEED
5
FFFF
0
ENDSEC
0
SECTION
2
TABLES
0
TABLE
2
VPORT
5
8
100
AcDbSymbolTable
0
ENDTAB
0
TABLE
2
LTYPE
5
5
100
AcDbSymbolTable
0
LTYPE
5
14
100
AcDbSymbolTableRecord
100
AcDbLinetypeTableRecord
2
BYBLOCK
70
0
0
LTYPE
5
15
100
AcDbSymbolTableRecord
100
AcDbLinetypeTableRecord
2
BYLAYER
70
0
0
ENDTAB
0
TABLE
2
LAYER
5
2
100
AcDbSymbolTable
70
2
0
LAYER
5
50
100
AcDbSymbolTableRecord
100
AcDbLayerTableRecord
2
0
70
0
6
CONTINUOUS
0
ENDTAB
0
TABLE
2
STYLE
5
3
100
AcDbSymbolTable
70
1
0
STYLE
5
11
100
AcDbSymbolTableRecord
100
AcDbTextStyleTableRecord
2
STANDARD
70
0
0
ENDTAB
0
TABLE
2
VIEW
5
6
100
AcDbSymbolTable
70
0
0
ENDTAB
0
TABLE
2
UCS
5
7
100
AcDbSymbolTable
70
0
0
ENDTAB
0
TABLE
2
APPID
5
9
100
AcDbSymbolTable
70
2
0
APPID
5
12
100
AcDbSymbolTableRecord
100
AcDbRegAppTableRecord
2
ACAD
70
0
0
ENDTAB
0
TABLE
2
DIMSTYLE
5
A
100
AcDbSymbolTable
70
1
0
ENDTAB
0
TABLE
2
BLOCK_RECORD
5
1
100
AcDbSymbolTable
70
1
0
BLOCK_RECORD
5
1F
100
AcDbSymbolTableRecord
100
AcDbBlockTableRecord
2
*MODEL_SPACE
0
BLOCK_RECORD
5
1B
100
AcDbSymbolTableRecord
100
AcDbBlockTableRecord
2
*PAPER_SPACE
0
ENDTAB
0
ENDSEC
0
SECTION
2
BLOCKS
0
BLOCK
5
20
100
AcDbEntity
100
AcDbBlockBegin
2
*MODEL_SPACE
0
ENDBLK
5
21
100
AcDbEntity
100
AcDbBlockEnd
0
BLOCK
5
1C
100
AcDbEntity
100
AcDbBlockBegin
2
*PAPER_SPACE
0
ENDBLK
5
1D
100
AcDbEntity
100
AcDbBlockEnd
0
ENDSEC
0
SECTION
2
ENTITIES
0
LWPOLYLINE
5
100
100
AcDbEntity
8
0
100
AcDbPolyline
90
36
70
1
43
0.0
10
-10.499999999999565
20
38.308741541934602
10
-10.499999999999563
20
40.499999999996696
42
-0.94861900255123777
10
-6.5111088086685465
20
40.710503750666064
42
0.11976037832639178
10
-6.3519083021346194
20
40.265877784038018
42
0.53891027184041562
10
6.3519083021354872
20
40.26587778403804
42
0.11976037832637883
10
6.5111088086694053
20
40.710503750666092
42
-0.94861900255122766
10
10.500000000000432
20
40.499999999996703
10
10.500000000000433
20
38.308741541934609
42
0.26794919243112514
10
11.00000000000043
20
37.442716138150175
42
-0.26794919243112236
10
11.50000000000043
20
36.576690734365727
10
11.500000000000432
20
32.581903453085573
42
-0.26794919243112236
10
11.000000000000433
20
31.715878049301143
42
0.26794919243111903
10
10.500000000000432
20
30.849852645516695
10
10.50000000000043
20
30.308741541934619
42
0.26794919243112236
10
11.000000000000426
20
29.442716138150168
42
-0.26794919243112297
10
11.50000000000043
20
28.576690734365737
10
11.500000000000432
20
24.574954450652111
42
-0.21968603782173493
10
11.148637627439422
20
23.81385706642963
42
0.10746788573078971
10
10.891154755945502
20
23.475779352451404
10
4.1887950106712717
20
9.1191288616857911
42
0.10962987900822148
10
3.2500000000004281
20
4.88893215924318
10
3.2500000000004201
20
-34.75000000000329
42
-0.99999999999999989
10
-3.2499999999995755
20
-34.750000000003297
10
-3.2499999999995746
20
4.8899206738924175
42
0.10958220640708664
10
-4.1879980893468183
20
9.1184099279080666
10
-10.891163924330067
20
23.483848257059311
42
0.1075007735188703
10
-11.148682057697453
20
23.822058848397951
42
-0.21967073900441259
10
-11.499999999999563
20
24.583118365138148
10
-11.499999999999563
20
28.576690734365734
42
-0.26794919243112097
10
-10.999999999999568
20
29.442716138150171
42
0.26794919243112453
10
-10.499999999999565
20
30.308741541934605
10
-10.499999999999565
20
30.834409308997355
42
0.26794919243112514
10
-10.99999999999957
20
31.700434712781792
42
-0.2679491924311207
10
-11.499999999999563
20
32.566460116566233
10
-11.499999999999567
20
36.576690734365727
42
-0.26794919243112297
10
-10.999999999999568
20
37.442716138150175
42
0.26794919243112109
0
LWPOLYLINE
5
101
100
AcDbEntity
8
0
100
AcDbPolyline
90
8
70
1
43
0.0
10
9.050000000000427
20
32.476690734365725
42
0.99999999999999989
10
9.0500000000004306
20
34.076690734365719
10
9.0500000000004359
20
34.976690734365732
42
0.99999999999999989
10
9.0500000000004306
20
36.576690734365727
10
6.9500000000004274
20
36.576690734365727
42
0.99999999999999989
10
6.9500000000004309
20
34.976690734365732
10
6.9500000000004372
20
34.076690734365719
42
0.99999999999999989
10
6.9500000000004327
20
32.476690734365725
0
LWPOLYLINE
5
102
100
AcDbEntity
8
0
100
AcDbPolyline
90
8
70
1
43
0.0
10
6.9500000000004309
20
26.176690734365735
10
6.9500000000004309
20
27.076690734365734
42
-0.99999999999999989
10
6.9500000000004309
20
28.676690734365735
10
9.0500000000004306
20
28.676690734365735
42
-0.99999999999999989
10
9.0500000000004306
20
27.076690734365734
10
9.0500000000004306
20
26.176690734365735
42
-0.99999999999999989
10
9.0500000000004306
20
24.576690734365734
10
6.9500000000004309
20
24.576690734365734
42
-0.99999999999999989
0
CIRCLE
5
103
100
AcDbEntity
8
0
100
AcDbCircle
10
4.2473960856373842e-13
20
-34.75000000000329
30
0
40
1.0499999999999994
210
0
220
0
230
1
0
CIRCLE
5
104
100
AcDbEntity
8
0
100
AcDbCircle
10
8.5000000000004281
20
40.499999999996703
30
0
40
1.0499999999999998
210
0
220
0
230
1
0
LINE
5
105
100
AcDbEntity
8
0
100
AcDbLine
10
9.050000000000427
20
32.476690734365725
30
0
11
6.9500000000004327
21
32.476690734365725
31
0
0
CIRCLE
5
106
100
AcDbEntity
8
0
100
AcDbCircle
10
-8.4999999999995666
20
40.499999999996696
30
0
40
1.0499999999999998
210
0
220
0
230
1
0
LINE
5
107
100
AcDbEntity
8
0
100
AcDbLine
10
-9.0499999999995673
20
36.576690734365727
30
0
11
-6.9499999999995694
21
36.576690734365727
31
0
0
LINE
5
108
100
AcDbEntity
8
0
100
AcDbLine
10
6.9500000000004309
20
36.576690734365727
30
0
11
9.0500000000004306
21
36.576690734365727
31
0
0
LWPOLYLINE
5
109
100
AcDbEntity
8
0
100
AcDbPolyline
90
8
70
1
43
0.0
10
-9.0499999999994749
20
36.576690734365961
10
-6.9499999999994744
20
36.576690734365911
42
-0.99999999999999989
10
-6.9499999999995143
20
34.976690734365917
10
-6.9499999999995445
20
34.076690734365897
42
-0.99999999999999989
10
-6.9499999999995818
20
32.47669073436591
10
-9.0499999999995762
20
32.47669073436596
42
-0.99999999999999989
10
-9.0499999999995389
20
34.076690734365954
10
-9.049999999999514
20
34.976690734365967
42
-0.99999999999999989
0
LWPOLYLINE
5
110
100
AcDbEntity
8
0
100
AcDbPolyline
90
8
70
1
43
0.0
10
-6.9499999999997453
20
26.176690734365916
10
-6.9499999999997231
20
27.076690734365915
42
0.99999999999999989
10
-6.9499999999996813
20
28.676690734365916
10
-9.049999999999681
20
28.67669073436597
42
0.99999999999999989
10
-9.0499999999997236
20
27.076690734365968
10
-9.0499999999997449
20
26.17669073436597
42
0.99999999999999989
10
-9.0499999999997875
20
24.576690734365968
10
-6.9499999999997879
20
24.576690734365915
42
0.99999999999999989
0
ENDSEC
0
SECTION
2
OBJECTS
0
DICTIONARY
5
C
100
AcDbDictionary
3
ACAD_GROUP
350
D
3
ACAD_MLINESTYLE
350
17
0
DICTIONARY
5
D
100
AcDbDictionary
0
DICTIONARY
5
1A
330
C
100
AcDbDictionary
0
DICTIONARY
5
17
100
AcDbDictionary
0
ENDSEC
0
EOF
