0
SECTION
2
HEADER
9
$INSUNITS
70
4
9
$ACADVER
1
AC1014
9
$HANDSEED
5
FFFF
0
ENDSEC
0
SECTION
2
TABLES
0
TABLE
2
VPORT
5
8
100
AcDbSymbolTable
0
ENDTAB
0
TABLE
2
LTYPE
5
5
100
AcDbSymbolTable
0
LTYPE
5
14
100
AcDbSymbolTableRecord
100
AcDbLinetypeTableRecord
2
BYBLOCK
70
0
0
LTYPE
5
15
100
AcDbSymbolTableRecord
100
AcDbLinetypeTableRecord
2
BYLAYER
70
0
0
ENDTAB
0
TABLE
2
LAYER
5
2
100
AcDbSymbolTable
70
2
0
LAYER
5
50
100
AcDbSymbolTableRecord
100
AcDbLayerTableRecord
2
0
70
0
6
CONTINUOUS
0
ENDTAB
0
TABLE
2
STYLE
5
3
100
AcDbSymbolTable
70
1
0
STYLE
5
11
100
AcDbSymbolTableRecord
100
AcDbTextStyleTableRecord
2
STANDARD
70
0
0
ENDTAB
0
TABLE
2
VIEW
5
6
100
AcDbSymbolTable
70
0
0
ENDTAB
0
TABLE
2
UCS
5
7
100
AcDbSymbolTable
70
0
0
ENDTAB
0
TABLE
2
APPID
5
9
100
AcDbSymbolTable
70
2
0
APPID
5
12
100
AcDbSymbolTableRecord
100
AcDbRegAppTableRecord
2
ACAD
70
0
0
ENDTAB
0
TABLE
2
DIMSTYLE
5
A
100
AcDbSymbolTable
70
1
0
ENDTAB
0
TABLE
2
BLOCK_RECORD
5
1
100
AcDbSymbolTable
70
1
0
BLOCK_RECORD
5
1F
100
AcDbSymbolTableRecord
100
AcDbBlockTableRecord
2
*MODEL_SPACE
0
BLOCK_RECORD
5
1B
100
AcDbSymbolTableRecord
100
AcDbBlockTableRecord
2
*PAPER_SPACE
0
ENDTAB
0
ENDSEC
0
SECTION
2
BLOCKS
0
BLOCK
5
20
100
AcDbEntity
100
AcDbBlockBegin
2
*MODEL_SPACE
0
ENDBLK
5
21
100
AcDbEntity
100
AcDbBlockEnd
0
BLOCK
5
1C
100
AcDbEntity
100
AcDbBlockBegin
2
*PAPER_SPACE
0
ENDBLK
5
1D
100
AcDbEntity
100
AcDbBlockEnd
0
ENDSEC
0
SECTION
2
ENTITIES
0
LWPOLYLINE
5
100
100
AcDbEntity
8
0
100
AcDbPolyline
90
9
70
1
43
0.0
10
-6.7942239596363674
20
-21.392659008733791
10
-8.5141479889069664
20
-19.526230590714221
42
0.41421356237309592
10
-11.340218072332476
20
-19.41078413746704
10
-17.896449309531452
20
-25.452387200003987
42
0.41421356237309459
10
-18.011895762778639
20
-28.278457283429489
10
-15.679067994206168
20
-30.809997030249214
42
-0.048200392373609284
10
-13.936947376412739
20
-33.11001617702577
42
0.60858379713166688
10
-10.394008318223868
20
-32.845449597854113
10
-6.4250841871593209
20
-23.532046840170253
42
0.29498990084463028
0
ARC
5
101
100
AcDbEntity
8
0
100
AcDbCircle
10
-48.791550971568483
20
-97.428648041180764
30
0
40
1.5499999999999734
210
0
220
-0
230
1
100
AcDbArc
50
25.599999999998882
51
205.60000000000159
0
ARC
5
102
100
AcDbEntity
8
0
100
AcDbCircle
10
-48.143422348365441
20
-98.781396830788367
30
0
40
1.5499999999999874
210
0
220
0
230
1
100
AcDbArc
50
-154.39999999999793
51
25.5999991462281
0
CIRCLE
5
103
100
AcDbEntity
8
0
100
AcDbCircle
10
-44.640756118793917
20
-105.99203887562602
30
0
40
3.9999999999999964
210
-0
220
0
230
1
0
ARC
5
104
100
AcDbEntity
8
0
100
AcDbCircle
10
-41.230050367534012
20
-113.21071725326981
30
0
40
1.5499999999999725
210
0
220
-0
230
1
100
AcDbArc
50
25.600000000000058
51
205.60000000000144
0
ARC
5
105
100
AcDbEntity
8
0
100
AcDbCircle
10
-53.254145358798262
20
-110.10087165564782
30
0
40
5.0000000000000107
210
0
220
0
230
1
100
AcDbArc
50
158.91644656522303
51
204.19572351476208
0
LWPOLYLINE
5
106
100
AcDbEntity
8
0
100
AcDbPolyline
90
6
70
1
43
0.0
10
-52.181594921967793
20
-117.53677249587155
10
-51.464400544040735
20
-119.56206694118016
42
0.455726255532585
10
-49.217376377117219
20
-120.44719329949125
10
-47.311606123695718
20
-119.45511209963834
42
0.64322161401433031
10
-47.464001942112823
20
-116.54722665778196
10
-50.086966573461439
20
-115.51401341232628
42
0.64322161401436906
0
LINE
5
107
100
AcDbEntity
8
0
100
AcDbLine
10
-35.449594446458292
20
-103.28908284433844
30
0
11
-36.802343236065973
21
-103.9372114675414
31
0
0
LINE
5
108
100
AcDbEntity
8
0
100
AcDbLine
10
-38.141809036522623
20
-101.14153062570573
30
0
11
-36.789060267744482
21
-100.49340201248262
31
0
0
LINE
5
109
100
AcDbEntity
8
0
100
AcDbLine
10
-47.393710555640567
20
-96.75891513053773
30
0
11
-46.745581932437588
21
-98.111663920145276
31
0
0
ARC
5
110
100
AcDbEntity
8
0
100
AcDbCircle
10
-53.254145358798262
20
-110.10087165564782
30
0
40
1.5499999999999912
210
0
220
0
230
1
100
AcDbArc
50
115.59999914622401
51
295.60000062500563
0
LINE
5
111
100
AcDbEntity
8
0
100
AcDbLine
10
-51.231663679376879
20
-110.85058345835256
30
0
11
-52.584412448155206
21
-111.4987120715758
31
0
0
LINE
5
112
100
AcDbEntity
8
0
100
AcDbLine
10
-39.83220995160611
20
-112.54098434262674
30
0
11
-39.184081328403131
21
-113.89373313223436
31
0
0
ARC
5
113
100
AcDbEntity
8
0
100
AcDbCircle
10
-36.119327357101348
20
-101.89124242841054
30
0
40
4.9999999999999218
210
-0
220
0
230
1
100
AcDbArc
50
-20.057912981444737
51
16.409005092336919
0
ARC
5
114
100
AcDbEntity
8
0
100
AcDbCircle
10
-40.58192174433109
20
-114.56346604287748
30
0
40
1.5500000000000211
210
0
220
0
230
1
100
AcDbArc
50
-154.40000085377164
51
25.599999146228583
0
ARC
5
115
100
AcDbEntity
8
0
100
AcDbCircle
10
-51.804612683508083
20
-123.60788639710049
30
0
40
2.0000000000000666
210
0
220
0
230
1
100
AcDbArc
50
194.84270397779019
51
302.54528909669523
0
ARC
5
116
100
AcDbEntity
8
0
100
AcDbCircle
10
-51.901396569190517
20
-109.45274303244494
30
0
40
1.5499999999999095
210
-0
220
0
230
1
100
AcDbArc
50
-64.400000853771573
51
115.59999914622608
0
CIRCLE
5
117
100
AcDbEntity
8
0
100
AcDbCircle
10
-44.686736357949826
20
-105.99605704202914
30
0
40
4.0000000000000044
210
-0
220
0
230
1
0
ARC
5
118
100
AcDbEntity
8
0
100
AcDbCircle
10
-22.940014534404163
20
-113.73155401521171
30
0
40
13.209056309317301
210
0
220
0
230
1
100
AcDbArc
50
129.9545063143689
51
191.24176657066042
0
LINE
5
119
100
AcDbEntity
8
0
100
AcDbLine
10
-58.117577792460722
20
-111.26148570140144
30
0
11
-53.73787814344557
21
-124.12021896625157
31
0
0
ARC
5
120
100
AcDbEntity
8
0
100
AcDbCircle
10
-36.119327357101348
20
-101.89124242841054
30
0
40
1.5499999999999725
210
-0
220
0
230
1
100
AcDbArc
50
-64.400000000000162
51
115.59999914622914
0
LINE
5
121
100
AcDbEntity
8
0
100
AcDbLine
10
-41.979762170238814
20
-115.23319893269117
30
0
11
-42.627890783461886
21
-113.8804501639129
31
0
0
ARC
5
122
100
AcDbEntity
8
0
100
AcDbCircle
10
-40.58192174433109
20
-114.56346604287748
30
0
40
4.9999999999999654
210
-0
220
0
230
1
100
AcDbArc
50
291.27705490516047
51
339.59602550183303
0
LINE
5
123
100
AcDbEntity
8
0
100
AcDbLine
10
-49.541262764293336
20
-99.451129741431487
30
0
11
-50.189391387496379
21
-98.09838095182387
31
0
0
LINE
5
124
100
AcDbEntity
8
0
100
AcDbLine
10
-32.4535001015471
20
-96.196881134829155
30
0
11
-31.322979419573901
21
-100.47878129189174
31
0
0
ARC
5
125
100
AcDbEntity
8
0
100
AcDbCircle
10
-66.178399095541181
20
-98.255170536791653
30
0
40
13.005918495063879
210
-0
220
0
230
1
100
AcDbArc
50
-50.578810377359972
51
11.770547943482239
0
LINE
5
126
100
AcDbEntity
8
0
100
AcDbLine
10
-37.892091274289839
20
-118.77829842892049
30
0
11
-50.728680495491474
21
-125.29381935151775
31
0
0
CIRCLE
5
127
100
AcDbEntity
8
0
100
AcDbCircle
10
-24.420566152971066
20
-24.463007965340857
30
0
40
1.5499999999999985
210
0
220
0
230
1
0
ARC
5
128
100
AcDbEntity
8
0
100
AcDbCircle
10
-27.619158453848684
20
-94.920503121336054
30
0
40
5.0000000000000009
210
0
220
0
230
1
100
AcDbArc
50
175.68613990453861
51
194.78991651374903
0
CIRCLE
5
129
100
AcDbEntity
8
0
100
AcDbCircle
10
-15.224973486902886
20
-15.266103659286554
30
0
40
3.0499999999999954
210
0
220
0
230
1
0
ARC
5
130
100
AcDbEntity
8
0
100
AcDbCircle
10
-26.394180722473884
20
-24.139209368916603
30
0
40
3.9999999999999707
210
0
220
0
230
1
100
AcDbArc
50
170.68284449661462
51
218.35003165979342
0
ARC
5
131
100
AcDbEntity
8
0
100
AcDbCircle
10
-15.224973486902886
20
-15.266103659286554
30
0
40
3.0499999999999949
210
0
220
-0
230
1
100
AcDbArc
50
-284.1740678410473
51
14.287632066411478
0
LINE
5
132
100
AcDbEntity
8
0
100
AcDbLine
10
-29.04615405833092
20
-20.641498246684023
30
0
11
-29.804791128741268
21
-21.815344578448116
31
0
0
LINE
5
133
100
AcDbEntity
8
0
100
AcDbLine
10
0.011579703307446941
20
0
30
0
11
0.011579703307446941
21
0.00067940925662757212
31
0
0
ARC
5
134
100
AcDbEntity
8
0
100
AcDbCircle
10
-52.412661710762293
20
-75.024030188635123
30
0
40
14.99999999999998
210
-0
220
0
230
1
100
AcDbArc
50
316.98432679211965
51
340.16593115675516
0
LINE
5
135
100
AcDbEntity
8
0
100
AcDbLine
10
-11.983783337975799
20
0.01094056709986857
30
0
11
-29.04615405833092
21
-20.641498246684023
31
0
0
ARC
5
136
100
AcDbEntity
8
0
100
AcDbCircle
10
-29.080061683904084
20
-36.861361712902145
30
0
40
5.9999999999999742
210
-0
220
0
230
1
100
AcDbArc
50
-19.834068843244985
51
38.350031659793302
0
LINE
5
137
100
AcDbEntity
8
0
100
AcDbLine
10
-51.387893167216319
20
-93.155592085181809
30
0
11
-46.03564483029664
21
-89.90352416427811
31
0
0
ARC
5
138
100
AcDbEntity
8
0
100
AcDbCircle
10
-17.199821184680083
20
-89.738115340102297
30
0
40
15.000000000000707
210
0
220
0
230
1
100
AcDbArc
50
156.63084705713294
51
175.68613990453827
0
ARC
5
139
100
AcDbEntity
8
0
100
AcDbCircle
10
-48.791550971568483
20
-97.428648041180764
30
0
40
4.9999999999999538
210
0
220
0
230
1
100
AcDbArc
50
121.28319262484496
51
158.57282213756173
0
LINE
5
140
100
AcDbEntity
8
0
100
AcDbLine
10
-44.976151454779526
20
-89.041460186663826
30
0
11
-41.445154997267295
21
-85.257006123789154
31
0
0
LINE
5
141
100
AcDbEntity
8
0
100
AcDbLine
10
-32.604993287210419
20
-94.544403381324443
30
0
11
-32.157325684765979
21
-88.609816120067336
31
0
0
ARC
5
142
100
AcDbEntity
8
0
100
AcDbCircle
10
0.011579703307446941
20
0.00067940925662757212
30
0
40
1.45
210
0
220
0
230
1
100
AcDbArc
50
179.59453383135099
51
269.99999999999898
0
LINE
5
143
100
AcDbEntity
8
0
100
AcDbLine
10
-38.302473943279921
20
-80.113489999498185
30
0
11
-23.435986576911159
21
-38.897145637247377
31
0
0
LINE
5
144
100
AcDbEntity
8
0
100
AcDbLine
10
0.01157970330742053
20
-19.3224957171048
30
0
11
0.011579703307420919
21
-1.4493205907433724
31
0
0
LINE
5
145
100
AcDbEntity
8
0
100
AcDbLine
10
-30.969345838034318
20
-83.788309391948104
30
0
11
0.01157970330742053
21
-19.3224957171048
31
0
0
LINE
5
146
100
AcDbEntity
8
0
100
AcDbLine
10
-24.374652465729127
20
-33.138577259094241
30
0
11
-29.531120201257174
21
-26.621065671455206
31
0
0
ARC
5
147
100
AcDbEntity
8
0
100
AcDbCircle
10
-48.631987025944142
20
-85.630468208279638
30
0
40
4.9999999999993729
210
-0
220
0
230
1
100
AcDbArc
50
301.2831926248445
51
316.98432679212067
0
LINE
5
148
100
AcDbEntity
8
0
100
AcDbLine
10
-11.983783337975799
20
0.01094056709986857
30
0
11
-1.4383839888723662
21
0.01094056709986818
31
0
0
ARC
5
149
100
AcDbEntity
8
0
100
AcDbCircle
10
-37.472076146709
20
-102.53937105161341
30
0
40
1.5499999999999658
210
0
220
0
230
1
100
AcDbArc
50
115.59999914622679
51
295.59999914622614
0
CIRCLE
5
150
100
AcDbEntity
8
0
100
AcDbCircle
10
-9.9951907371821278
20
-10.026540512892213
30
0
40
1.5500000000000005
210
0
220
0
230
1
0
ARC
5
151
100
AcDbEntity
8
0
100
AcDbCircle
10
-24.420566152971066
20
-24.463007965340857
30
0
40
5.9999999999999982
210
0
220
0
230
1
100
AcDbArc
50
153.81459806313561
51
170.68284449661485
0
LINE
5
152
100
AcDbEntity
8
0
100
AcDbLine
10
-53.923878248611828
20
-108.70303122974008
30
0
11
-52.571129479833544
21
-108.05490261651696
31
0
0
ENDSEC
0
SECTION
2
OBJECTS
0
DICTIONARY
5
C
100
AcDbDictionary
3
ACAD_GROUP
350
D
3
ACAD_MLINESTYLE
350
17
0
DICTIONARY
5
D
100
AcDbDictionary
0
DICTIONARY
5
1A
330
C
100
AcDbDictionary
0
DICTIONARY
5
17
100
AcDbDictionary
0
ENDSEC
0
EOF
