0
SECTION
2
HEADER
9
$INSUNITS
70
4
9
$ACADVER
1
AC1014
9
$HANDSEED
5
FFFF
0
ENDSEC
0
SECTION
2
TABLES
0
TABLE
2
VPORT
5
8
100
AcDbSymbolTable
0
ENDTAB
0
TABLE
2
LTYPE
5
5
100
AcDbSymbolTable
0
LTYPE
5
14
100
AcDbSymbolTableRecord
100
AcDbLinetypeTableRecord
2
BYBLOCK
70
0
0
LTYPE
5
15
100
AcDbSymbolTableRecord
100
AcDbLinetypeTableRecord
2
BYLAYER
70
0
0
ENDTAB
0
TABLE
2
LAYER
5
2
100
AcDbSymbolTable
70
2
0
LAYER
5
50
100
AcDbSymbolTableRecord
100
AcDbLayerTableRecord
2
0
70
0
6
CONTINUOUS
0
ENDTAB
0
TABLE
2
STYLE
5
3
100
AcDbSymbolTable
70
1
0
STYLE
5
11
100
AcDbSymbolTableRecord
100
AcDbTextStyleTableRecord
2
STANDARD
70
0
0
ENDTAB
0
TABLE
2
VIEW
5
6
100
AcDbSymbolTable
70
0
0
ENDTAB
0
TABLE
2
UCS
5
7
100
AcDbSymbolTable
70
0
0
ENDTAB
0
TABLE
2
APPID
5
9
100
AcDbSymbolTable
70
2
0
APPID
5
12
100
AcDbSymbolTableRecord
100
AcDbRegAppTableRecord
2
ACAD
70
0
0
ENDTAB
0
TABLE
2
DIMSTYLE
5
A
100
AcDbSymbolTable
70
1
0
ENDTAB
0
TABLE
2
BLOCK_RECORD
5
1
100
AcDbSymbolTable
70
1
0
BLOCK_RECORD
5
1F
100
AcDbSymbolTableRecord
100
AcDbBlockTableRecord
2
*MODEL_SPACE
0
BLOCK_RECORD
5
1B
100
AcDbSymbolTableRecord
100
AcDbBlockTableRecord
2
*PAPER_SPACE
0
ENDTAB
0
ENDSEC
0
SECTION
2
BLOCKS
0
BLOCK
5
20
100
AcDbEntity
100
AcDbBlockBegin
2
*MODEL_SPACE
0
ENDBLK
5
21
100
AcDbEntity
100
AcDbBlockEnd
0
BLOCK
5
1C
100
AcDbEntity
100
AcDbBlockBegin
2
*PAPER_SPACE
0
ENDBLK
5
1D
100
AcDbEntity
100
AcDbBlockEnd
0
ENDSEC
0
SECTION
2
ENTITIES
0
ARC
5
100
100
AcDbEntity
8
0
100
AcDbCircle
10
25.555384133083194
20
-0.62628269188889973
30
0
40
9.9999999999999822
210
0
220
0
230
1
100
AcDbArc
50
219.88432126979492
51
276.40597421410854
0
ARC
5
101
100
AcDbEntity
8
0
100
AcDbCircle
10
28.188765728745931
20
-13.151647761377181
30
0
40
2.9999999999999929
210
0
220
-0
230
1
100
AcDbArc
50
34.86485263139069
51
120.41535431857726
0
CIRCLE
5
102
100
AcDbEntity
8
0
100
AcDbCircle
10
24.431999465876562
20
-24.460555337715174
30
0
40
1.4499999999999988
210
0
220
0
230
1
0
ARC
5
103
100
AcDbEntity
8
0
100
AcDbCircle
10
46.379019997793748
20
-10.486094342844336
30
0
40
15.000000000000002
210
0
220
0
230
1
100
AcDbArc
50
201.29585409410527
51
232.77545240808192
0
LINE
5
104
100
AcDbEntity
8
0
100
AcDbLine
10
1.4500000000000002
20
0
30
0
11
12.000000000000002
21
0
31
0
0
LINE
5
105
100
AcDbEntity
8
0
100
AcDbLine
10
139.06735623212401
20
-88.329630256550971
30
0
11
142.03851239838269
21
-102.41516421030562
31
0
0
ARC
5
106
100
AcDbEntity
8
0
100
AcDbCircle
10
-2.8416063309357452e-05
20
-39.311283907380115
30
0
40
19.999999999999975
210
0
220
-0
230
1
100
AcDbArc
50
55.164638181973231
51
89.99991859397511
0
LINE
5
107
100
AcDbEntity
8
0
100
AcDbLine
10
11.424376702977142
20
-22.895347513861736
30
0
11
20.921565382923397
21
-29.504762193033535
31
0
0
ARC
5
108
100
AcDbEntity
8
0
100
AcDbCircle
10
140.13155447482177
20
-103.01808334067738
30
0
40
2.0000000000000751
210
0
220
0
230
1
100
AcDbArc
50
-90.15729602220631
51
17.54528909669472
0
LINE
5
109
100
AcDbEntity
8
0
100
AcDbLine
10
-2.6636067881454936e-16
20
-1.4500000000000002
30
0
11
0
21
-19.31128390740033
31
0
0
LINE
5
110
100
AcDbEntity
8
0
100
AcDbLine
10
42.140549079968999
20
-26.103868899995859
30
0
11
37.304915172363209
21
-22.430156533619229
31
0
0
CIRCLE
5
111
100
AcDbEntity
8
0
100
AcDbCircle
10
124.96207560630137
20
-91.584465913301017
30
0
40
4.0000000000000044
210
-0
220
0
230
1
0
ARC
5
112
100
AcDbEntity
8
0
100
AcDbCircle
10
0
20
0
30
0
40
1.4500000000000002
210
0
220
0
230
1
100
AcDbArc
50
-90
51
0
0
ARC
5
113
100
AcDbEntity
8
0
100
AcDbCircle
10
126.70961343712206
20
-100.92235173022159
30
0
40
1.5499999999999579
210
0
220
0
230
1
100
AcDbArc
50
-169.40000085377591
51
10.60000062500507
0
LINE
5
114
100
AcDbEntity
8
0
100
AcDbLine
10
12.000000000000002
20
0
30
0
11
17.881977604361261
21
-7.0386794547980083
31
0
0
LINE
5
115
100
AcDbEntity
8
0
100
AcDbLine
10
110.82475187646624
20
-94.73392946258079
30
0
11
109.06875928653227
21
-88.722357451340542
31
0
0
ARC
5
116
100
AcDbEntity
8
0
100
AcDbCircle
10
123.21453777548072
20
-82.24658009638047
30
0
40
1.5499999999999148
210
0
220
-0
230
1
100
AcDbArc
50
10.60000000000082
51
190.59999914622858
0
LINE
5
117
100
AcDbEntity
8
0
100
AcDbLine
10
115.33906519593114
20
-91.808453952939914
30
0
11
116.81346821965541
21
-91.532526927020839
31
0
0
ARC
5
118
100
AcDbEntity
8
0
100
AcDbCircle
10
118.68132624919909
20
-72.231887333793892
30
0
40
4.9999999999999689
210
0
220
0
230
1
100
AcDbArc
50
250.68613990453821
51
269.78991651374884
0
LINE
5
119
100
AcDbEntity
8
0
100
AcDbLine
10
121.9669150059692
20
-84.006107690851763
30
0
11
121.69098798429887
21
-82.531704689830207
31
0
0
ARC
5
120
100
AcDbEntity
8
0
100
AcDbCircle
10
115.62418978938086
20
-93.332003744121735
30
0
40
1.5500000000000229
210
0
220
0
230
1
100
AcDbArc
50
100.60000000000016
51
280.6000000000019
0
LWPOLYLINE
5
121
100
AcDbEntity
8
0
100
AcDbPolyline
90
6
70
1
43
0.0
10
134.43491360922434
20
-96.997942112171742
10
132.75803305015137
20
-99.264116125458003
42
0.64322161401435274
10
134.16973858030343
20
-101.81090031823311
10
136.31164635491484
20
-101.6423285205103
42
0.45572625553257828
10
137.7481854131421
20
-99.700957404236362
10
137.28315819760371
20
-97.603355188672992
42
0.64322161401434108
0
LINE
5
122
100
AcDbEntity
8
0
100
AcDbLine
10
125.18606364169159
20
-101.20747630096858
30
0
11
124.91013662002129
21
-99.733073299946881
31
0
0
ARC
5
123
100
AcDbEntity
8
0
100
AcDbCircle
10
117.09859281310517
20
-93.056076718202604
30
0
40
1.5499999999999881
210
-0
220
0
230
1
100
AcDbArc
50
-79.399999999998627
51
100.59999914622922
0
ARC
5
124
100
AcDbEntity
8
0
100
AcDbCircle
10
123.21453777548072
20
-82.24658009638047
30
0
40
4.9999999999998908
210
0
220
-0
230
1
100
AcDbArc
50
54.942087018555299
51
91.409005092336869
0
CIRCLE
5
125
100
AcDbEntity
8
0
100
AcDbCircle
10
124.9700949171902
20
-91.539012434809877
30
0
40
3.9999999999999969
210
-0
220
0
230
1
0
LINE
5
126
100
AcDbEntity
8
0
100
AcDbLine
10
108.51028649038491
20
-87.475846861642964
30
0
11
105.76867370404344
21
-83.08567740400909
31
0
0
LINE
5
127
100
AcDbEntity
8
0
100
AcDbLine
10
111.41110658382543
20
-74.982094282546385
30
0
11
42.140549079968999
21
-26.103868899995859
31
0
0
CIRCLE
5
128
100
AcDbEntity
8
0
100
AcDbCircle
10
28.188765728745931
20
-13.151647761377181
30
0
40
1.5249999999999986
210
0
220
0
230
1
0
CIRCLE
5
129
100
AcDbEntity
8
0
100
AcDbCircle
10
15.260029748554489
20
-15.268251427013064
30
0
40
3.0499999999999998
210
0
220
0
230
1
0
CIRCLE
5
130
100
AcDbEntity
8
0
100
AcDbCircle
10
10.005012366541914
20
-10.026393280513958
30
0
40
1.4500000000000002
210
0
220
0
230
1
0
LINE
5
131
100
AcDbEntity
8
0
100
AcDbLine
10
30.650273820229064
20
-11.436719799169142
30
0
11
31.502480579535678
21
-13.622984528260897
31
0
0
ARC
5
132
100
AcDbEntity
8
0
100
AcDbCircle
10
126.70961343712206
20
-100.92235173022159
30
0
40
4.9999999999999805
210
0
220
0
230
1
100
AcDbArc
50
233.91644656522365
51
279.19572351476216
0
ARC
5
133
100
AcDbEntity
8
0
100
AcDbCircle
10
134.29996142322179
20
-89.836928082480213
30
0
40
4.9999999999999343
210
0
220
-0
230
1
100
AcDbArc
50
6.2770549051599778
51
54.596025501833211
0
LINE
5
134
100
AcDbEntity
8
0
100
AcDbLine
10
126.57193157986819
20
-105.92045574136257
30
0
11
140.12606381474325
21
-105.01807580382624
31
0
0
ARC
5
135
100
AcDbEntity
8
0
100
AcDbCircle
10
126.43368641120315
20
-99.447948706497229
30
0
40
1.5499999999999043
210
0
220
-0
230
1
100
AcDbArc
50
10.59999914622774
51
190.59999914622642
0
LINE
5
136
100
AcDbEntity
8
0
100
AcDbLine
10
31.502480579535678
20
-13.622984528260897
30
0
11
32.403257349301491
21
-15.933851532092833
31
0
0
LINE
5
137
100
AcDbEntity
8
0
100
AcDbLine
10
117.38371740655492
20
-94.579626509384397
30
0
11
115.90931438283063
21
-94.855553535303528
31
0
0
ARC
5
138
100
AcDbEntity
8
0
100
AcDbCircle
10
115.62418978938086
20
-93.332003744121735
30
0
40
4.9999999999999254
210
0
220
0
230
1
100
AcDbArc
50
196.28319262484547
51
233.57282213756216
0
LINE
5
139
100
AcDbEntity
8
0
100
AcDbLine
10
127.95723620663354
20
-99.162824135750157
30
0
11
128.23316322830385
21
-100.63722713677186
31
0
0
ARC
5
140
100
AcDbEntity
8
0
100
AcDbCircle
10
111.92250178511118
20
-110.3403291479023
30
0
40
13.005918495063824
210
0
220
-0
230
1
100
AcDbArc
50
24.421189622639776
51
86.770547943482114
0
ARC
5
141
100
AcDbEntity
8
0
100
AcDbCircle
10
132.82555839949745
20
-90.112855108399245
30
0
40
1.549999999999951
210
0
220
0
230
1
100
AcDbArc
50
100.59999999999735
51
280.6000000000019
0
ARC
5
142
100
AcDbEntity
8
0
100
AcDbCircle
10
134.29996142322179
20
-89.836928082480213
30
0
40
1.5500000000000407
210
-0
220
0
230
1
100
AcDbArc
50
-79.400000853773747
51
100.59999914623079
0
LINE
5
143
100
AcDbEntity
8
0
100
AcDbLine
10
124.73808756666244
20
-81.961455502930747
30
0
11
125.01401459258153
21
-83.435858526655096
31
0
0
LINE
5
144
100
AcDbEntity
8
0
100
AcDbLine
10
134.58508599396885
20
-91.360477877910739
30
0
11
133.1106829929472
21
-91.636404899580967
31
0
0
ARC
5
145
100
AcDbEntity
8
0
100
AcDbCircle
10
138.06245768835947
20
-72.580839606806848
30
0
40
13.209056309317228
210
0
220
0
230
1
100
AcDbArc
50
204.95450631436881
51
266.24176657066039
0
LINE
5
146
100
AcDbEntity
8
0
100
AcDbLine
10
118.66299304758294
20
-77.23185372305278
30
0
11
123.09159127825791
21
-77.248091909056257
31
0
0
LINE
5
147
100
AcDbEntity
8
0
100
AcDbLine
10
132.54043380604782
20
-88.589305317217466
30
0
11
134.01483682977209
21
-88.313378291298378
31
0
0
ARC
5
148
100
AcDbEntity
8
0
100
AcDbCircle
10
123.49046480139974
20
-83.720983120104719
30
0
40
1.5500000000000376
210
0
220
0
230
1
100
AcDbArc
50
-169.40000085377432
51
10.599999146226425
0
LINE
5
149
100
AcDbEntity
8
0
100
AcDbLine
10
117.02761278645168
20
-76.95049218937649
30
0
11
111.41110658382543
21
-74.982094282546385
31
0
0
LINE
5
150
100
AcDbEntity
8
0
100
AcDbLine
10
108.51028649038491
20
-87.475846861642964
30
0
11
109.06875928653227
21
-88.722357451340542
31
0
0
LINE
5
151
100
AcDbEntity
8
0
100
AcDbLine
10
105.76867370404344
20
-83.08567740400909
30
0
11
20.921565382923397
21
-29.504762193033535
31
0
0
ENDSEC
0
SECTION
2
OBJECTS
0
DICTIONARY
5
C
100
AcDbDictionary
3
ACAD_GROUP
350
D
3
ACAD_MLINESTYLE
350
17
0
DICTIONARY
5
D
100
AcDbDictionary
0
DICTIONARY
5
1A
330
C
100
AcDbDictionary
0
DICTIONARY
5
17
100
AcDbDictionary
0
ENDSEC
0
EOF
