0
SECTION
2
HEADER
9
$INSUNITS
70
4
9
$ACADVER
1
AC1014
9
$HANDSEED
5
FFFF
0
ENDSEC
0
SECTION
2
TABLES
0
TABLE
2
VPORT
5
8
100
AcDbSymbolTable
0
ENDTAB
0
TABLE
2
LTYPE
5
5
100
AcDbSymbolTable
0
LTYPE
5
14
100
AcDbSymbolTableRecord
100
AcDbLinetypeTableRecord
2
BYBLOCK
70
0
0
LTYPE
5
15
100
AcDbSymbolTableRecord
100
AcDbLinetypeTableRecord
2
BYLAYER
70
0
0
ENDTAB
0
TABLE
2
LAYER
5
2
100
AcDbSymbolTable
70
2
0
LAYER
5
50
100
AcDbSymbolTableRecord
100
AcDbLayerTableRecord
2
0
70
0
6
CONTINUOUS
0
ENDTAB
0
TABLE
2
STYLE
5
3
100
AcDbSymbolTable
70
1
0
STYLE
5
11
100
AcDbSymbolTableRecord
100
AcDbTextStyleTableRecord
2
STANDARD
70
0
0
ENDTAB
0
TABLE
2
VIEW
5
6
100
AcDbSymbolTable
70
0
0
ENDTAB
0
TABLE
2
UCS
5
7
100
AcDbSymbolTable
70
0
0
ENDTAB
0
TABLE
2
APPID
5
9
100
AcDbSymbolTable
70
2
0
APPID
5
12
100
AcDbSymbolTableRecord
100
AcDbRegAppTableRecord
2
ACAD
70
0
0
ENDTAB
0
TABLE
2
DIMSTYLE
5
A
100
AcDbSymbolTable
70
1
0
ENDTAB
0
TABLE
2
BLOCK_RECORD
5
1
100
AcDbSymbolTable
70
1
0
BLOCK_RECORD
5
1F
100
AcDbSymbolTableRecord
100
AcDbBlockTableRecord
2
*MODEL_SPACE
0
BLOCK_RECORD
5
1B
100
AcDbSymbolTableRecord
100
AcDbBlockTableRecord
2
*PAPER_SPACE
0
ENDTAB
0
ENDSEC
0
SECTION
2
BLOCKS
0
BLOCK
5
20
100
AcDbEntity
100
AcDbBlockBegin
2
*MODEL_SPACE
0
ENDBLK
5
21
100
AcDbEntity
100
AcDbBlockEnd
0
BLOCK
5
1C
100
AcDbEntity
100
AcDbBlockBegin
2
*PAPER_SPACE
0
ENDBLK
5
1D
100
AcDbEntity
100
AcDbBlockEnd
0
ENDSEC
0
SECTION
2
ENTITIES
0
LWPOLYLINE
5
100
100
AcDbEntity
8
0
100
AcDbPolyline
90
12
70
1
43
0.0
10
-37.252826776183426
20
8.7656324288311378
42
-0.33845074667389152
10
-36.094841518261219
20
7.8803865271917806
42
0.10753449534128996
10
-35.432584101450594
20
6.6072071343535654
42
-0.17523409630160272
10
-35.155100055617922
20
5.8397670296504351
10
-35.155100055617908
20
-6.1250073802092144
42
-0.17555653526450818
10
-35.433545092475988
20
-6.8936011935517971
42
0.1078509389435152
10
-36.09850529654554
20
-8.1700253919384593
42
-0.33845074667388969
10
-37.25649055446776
20
-9.0552712935778086
10
-37.416671758639325
20
-9.0552712935778139
42
-0.41421356237309559
10
-38.616671758639342
20
-7.8552712935778057
10
-38.616671758639328
20
7.5656324288311261
42
-0.41421356237309098
10
-37.416671758639325
20
8.7656324288311271
0
LWPOLYLINE
5
101
100
AcDbEntity
8
0
100
AcDbPolyline
90
6
70
1
43
0.0
10
5.0425224285115178
20
3.1516291858019851
42
-0.47152701455803303
10
6.4878297475344047
20
3.3060611285338695
10
9.2839383627192333
20
0.56873703403420839
42
-0.41421356237309737
10
9.2980900695399846
20
-0.76337414943887183
10
6.560765975040316
20
-3.5594827646236862
42
-0.47152701455803181
10
5.1125040007557558
20
-3.435790706679529
42
-0.30591604687870494
0
LWPOLYLINE
5
102
100
AcDbEntity
8
0
100
AcDbPolyline
90
6
70
1
43
0.0
10
-1.7885881447721648
20
0.65679900826722482
42
-0.41421356237309215
10
-1.7887169212482128
20
-0.67538733731533518
10
-4.5559167591560783
20
-3.4420522413509698
42
-0.47151663987949954
10
-6.0027517043651235
20
-3.3028690416068129
42
-0.30591575937633758
10
-6.0023419949953247
20
3.2852323461514694
42
-0.47153771067371875
10
-4.5554438236757386
20
3.4241896579293361
0
LWPOLYLINE
5
103
100
AcDbEntity
8
0
100
AcDbPolyline
90
8
70
1
43
0.0
10
-73.253735895396815
20
13.065112840290112
42
-0.99999999999999989
10
-71.653735895396821
20
13.065112840290125
10
-69.653735895396849
20
13.065112840290132
42
-0.99999999999999989
10
-68.053735895396827
20
13.06511284029015
10
-68.053735895396855
20
10.865112840290161
42
-0.99999999999999989
10
-69.653735895396821
20
10.86511284029017
10
-71.653735895396807
20
10.865112840290163
42
-0.99999999999999989
10
-73.253735895396787
20
10.86511284029015
0
LWPOLYLINE
5
104
100
AcDbEntity
8
0
100
AcDbPolyline
90
6
70
1
43
0.0
10
3.6696417320058785
20
-4.7772520036878667
42
-0.47152701455804463
10
3.5305718846810823
20
-6.2241182894662579
42
-0.30591604687870438
10
-3.0572197225507622
20
-6.2241182894662641
42
-0.47152701455804058
10
-3.19628956987555
20
-4.7772520036878667
10
-0.42941709483816898
20
-2.0103795286504749
42
-0.41421356237309531
10
0.9027692569685053
20
-2.01037952865049
0
CIRCLE
5
105
100
AcDbEntity
8
0
100
AcDbCircle
10
-33.251883001004657
20
11.934964241091508
30
0
40
1.5000000000000002
210
0
220
0
230
1
0
LWPOLYLINE
5
106
100
AcDbEntity
8
0
100
AcDbPolyline
90
6
70
1
43
0.0
10
3.6050341842591855
20
6.2235240580748119
42
-0.47152701455804069
10
3.7441040315839813
20
4.7766577722964181
10
0.97723155654658944
20
2.0097852972590107
42
-0.41421356237309548
10
-0.35495479526009566
20
2.0097852972590315
10
-3.1218272702974881
20
4.7766577722964225
42
-0.47152701455804036
10
-2.982757422972683
20
6.2235240580748066
42
-0.30591604687870433
0
LWPOLYLINE
5
107
100
AcDbEntity
8
0
100
AcDbPolyline
90
8
70
1
43
0.0
10
-43.453735895396797
20
-13.134887159709834
10
-43.453735895396775
20
-10.93488715970989
42
-0.99999999999999989
10
-41.853735895396795
20
-10.934887159709863
10
-39.853735895396838
20
-10.934887159709861
42
-0.99999999999999989
10
-38.253735895396858
20
-10.934887159709861
10
-38.253735895396858
20
-13.134887159709844
42
-0.99999999999999989
10
-39.853735895396824
20
-13.134887159709836
10
-41.853735895396795
20
-13.13488715970983
42
-0.99999999999999989
0
CIRCLE
5
108
100
AcDbEntity
8
0
100
AcDbCircle
10
-33.256768038717127
20
-11.826240722120405
30
0
40
1.5000000000000002
210
0
220
0
230
1
0
LWPOLYLINE
5
109
100
AcDbEntity
8
0
100
AcDbPolyline
90
4
70
1
43
0.0
10
39.096583131141244
20
2.5040242177917369
42
0.99999999999999989
10
39.096583131141244
20
-2.4959757822082631
10
57.20235178047556
20
-2.4959757822082631
42
0.99999999999999989
10
57.20235178047556
20
2.5040242177917369
0
LWPOLYLINE
5
110
100
AcDbEntity
8
0
100
AcDbPolyline
90
4
70
1
43
0.0
10
33.994904713919283
20
-8.7217564308392319
10
33.994904713919276
20
8.7782435691607148
42
0.99999999999999989
10
30.494904713919286
20
8.7782435691607077
10
30.494904713919304
20
-8.7217564308392319
42
0.99999999999999989
0
ARC
5
111
100
AcDbEntity
8
0
100
AcDbCircle
10
52.739440380536884
20
12.759399258036714
30
0
40
0.79999999999999716
210
0
220
0
230
1
100
AcDbArc
50
264.17984487979106
51
354.17984421397216
0
ARC
5
112
100
AcDbEntity
8
0
100
AcDbCircle
10
67.000000345079854
20
-8.2822024260072098
30
0
40
2.9999999999906546
210
0
220
0
230
1
100
AcDbArc
50
-84.34890790054223
51
0
0
LWPOLYLINE
5
113
100
AcDbEntity
8
0
100
AcDbPolyline
90
10
70
1
43
0.0
10
-28.951883001004674
20
8.1050934199592959
42
-0.21510956506849729
10
-29.628199710007724
20
6.6058060742061562
42
0.21510956506849938
10
-29.973753887496972
20
5.8397670296504289
10
-29.973753887496962
20
-6.1233547118505927
42
0.21510956506850448
10
-29.62819971000771
20
-6.8893937564063226
42
-0.21510956506849543
10
-28.951883001004663
20
-8.388681102159449
10
-28.951883001004663
20
-8.7217564308392355
42
0.99999999999999989
10
-25.351883001004651
20
-8.7217564308392319
10
-25.351883001004659
20
8.7782435691607095
42
0.99999999999999989
10
-28.951883001004663
20
8.7782435691607112
0
ARC
5
114
100
AcDbEntity
8
0
100
AcDbCircle
10
38.078336905169003
20
-21.695316084049921
30
0
40
7.5000000000000044
210
0
220
0
230
1
100
AcDbArc
50
95.651092099776463
51
112.83148362462386
0
LWPOLYLINE
5
115
100
AcDbEntity
8
0
100
AcDbPolyline
90
4
70
1
43
0.0
10
13.994904713919297
20
-8.721756430839239
42
0.99999999999999989
10
17.494904713919279
20
-8.7217564308392337
10
17.494904713919269
20
8.7782435691607184
42
0.99999999999999989
10
13.994904713919274
20
8.7782435691607077
0
LINE
5
116
100
AcDbEntity
8
0
100
AcDbLine
10
43.984805569086724
20
13.651774660786078
30
0
11
37.33095385742422
21
14.330013503569647
31
0
0
LINE
5
117
100
AcDbEntity
8
0
100
AcDbLine
10
-67.505513977812029
20
-15.935635831685628
30
0
11
-77.925386145413654
21
-15.89747136579069
31
0
0
LINE
5
118
100
AcDbEntity
8
0
100
AcDbLine
10
70.000000345072493
20
8.2902504039712195
30
0
11
70.000000345070518
21
-8.2822024260072098
31
0
0
CIRCLE
5
119
100
AcDbEntity
8
0
100
AcDbCircle
10
28.188765728745931
20
-13.151647761377181
30
0
40
1.5000000000000002
210
0
220
0
230
1
0
LINE
5
120
100
AcDbEntity
8
0
100
AcDbLine
10
-44.001735895396791
20
16.150591323039773
30
0
11
30.046238358873765
21
16.150591323039773
31
0
0
ARC
5
121
100
AcDbEntity
8
0
100
AcDbCircle
10
66.513806007625988
20
-7.8567233081714658
30
0
40
1.5499999999999452
210
0
220
-0
230
1
100
AcDbArc
50
-283.81445264018578
51
0
0
ARC
5
122
100
AcDbEntity
8
0
100
AcDbCircle
10
-66.705765788810254
20
16.150591323039773
30
0
40
0.80000000000000071
210
0
220
0
230
1
100
AcDbArc
50
180
51
270
0
ARC
5
123
100
AcDbEntity
8
0
100
AcDbCircle
10
30.046238358873776
20
11.150591323039832
30
0
40
4.9999999999999423
210
0
220
-0
230
1
100
AcDbArc
50
75.048393889843609
51
90.000000000000128
0
LWPOLYLINE
5
124
100
AcDbEntity
8
0
100
AcDbPolyline
90
4
70
1
43
0.0
10
22.49490471391929
20
8.7782435691607077
10
22.494904713919297
20
-8.7217564308392284
42
0.99999999999999989
10
25.994904713919283
20
-8.7217564308392319
10
25.994904713919276
20
8.7782435691607148
42
0.99999999999999989
0
ARC
5
125
100
AcDbEntity
8
0
100
AcDbCircle
10
-66.705765788810254
20
-15.955706561330359
30
0
40
0.80000000000000027
210
0
220
-0
230
1
100
AcDbArc
50
89.800360221355206
51
178.56238903540751
0
LWPOLYLINE
5
126
100
AcDbEntity
8
0
100
AcDbPolyline
90
4
70
1
43
0.0
10
-17.505095286080724
20
-8.7217564308392319
10
-17.505095286080735
20
8.7782435691607219
42
0.99999999999999989
10
-21.005095286080731
20
8.7782435691607077
10
-21.005095286080714
20
-8.7217564308392372
42
0.99999999999999989
0
CIRCLE
5
127
100
AcDbEntity
8
0
100
AcDbCircle
10
66.51677620274836
20
7.8614878111958921
30
0
40
1.5000000000000002
210
0
220
0
230
1
0
ARC
5
128
100
AcDbEntity
8
0
100
AcDbCircle
10
67.000000345072436
20
8.2902504039712195
30
0
40
3.0000000000000426
210
0
220
0
230
1
100
AcDbArc
50
0
51
84.179841884734302
0
CIRCLE
5
129
100
AcDbEntity
8
0
100
AcDbCircle
10
66.513806007625988
20
-7.8567233081714658
30
0
40
1.5000000000000002
210
0
220
0
230
1
0
ARC
5
130
100
AcDbEntity
8
0
100
AcDbCircle
10
38.091501222223833
20
21.791351701634149
30
0
40
7.5000000000002673
210
0
220
0
230
1
100
AcDbArc
50
247.69851798774215
51
264.17984188473281
0
LINE
5
131
100
AcDbEntity
8
0
100
AcDbLine
10
-29.973753887496972
20
5.8397670296504298
30
0
11
-29.973753887496962
21
-6.1250073802092144
31
0
0
ARC
5
132
100
AcDbEntity
8
0
100
AcDbCircle
10
-44.801735895396789
20
16.150591323039773
30
0
40
0.80000000000000071
210
0
220
0
230
1
100
AcDbArc
50
-90
51
0
0
LINE
5
133
100
AcDbEntity
8
0
100
AcDbLine
10
-66.705765788810254
20
15.350591323039772
30
0
11
-44.801735895396789
21
15.350591323039772
31
0
0
LINE
5
134
100
AcDbEntity
8
0
100
AcDbLine
10
29.352777398667961
20
-16.290394978287598
30
0
11
-44.001802290335092
21
-16.021721974459073
31
0
0
ARC
5
135
100
AcDbEntity
8
0
100
AcDbCircle
10
-44.801735895396789
20
-16.032028646718725
30
0
40
0.80000000000005411
210
0
220
-0
230
1
100
AcDbArc
50
0.73818144820413312
51
89.80036022135522
0
LINE
5
136
100
AcDbEntity
8
0
100
AcDbLine
10
67.304219290992208
20
11.274785683197068
30
0
11
53.535316458295064
21
12.67827423814609
31
0
0
ARC
5
137
100
AcDbEntity
8
0
100
AcDbCircle
10
31.28795041436419
20
-5.5664397653004123
30
0
40
10.000000000000647
210
0
220
0
230
1
100
AcDbArc
50
285.61578157165991
51
292.83148362462373
0
LWPOLYLINE
5
138
100
AcDbEntity
8
0
100
AcDbPolyline
90
4
70
1
43
0.0
10
-13.505095286080726
20
8.7782435691607077
10
-13.505095286080708
20
-8.7217564308392355
42
0.99999999999999989
10
-10.005095286080721
20
-8.7217564308392319
10
-10.005095286080735
20
8.7782435691607148
42
0.99999999999999989
0
LINE
5
139
100
AcDbEntity
8
0
100
AcDbLine
10
-78.251869873252758
20
16.150591323039773
30
0
11
-67.505765788810251
21
16.150591323039773
31
0
0
ARC
5
140
100
AcDbEntity
8
0
100
AcDbCircle
10
52.695487615183723
20
-12.712302646370315
30
0
40
0.79999999999999916
210
0
220
-0
230
1
100
AcDbArc
50
5.6510765052888035
51
95.651078018392909
0
LINE
5
141
100
AcDbEntity
8
0
100
AcDbLine
10
37.339809427482415
20
-14.231766180371249
30
0
11
43.938253792971992
21
-13.578841963774837
31
0
0
ARC
5
142
100
AcDbEntity
8
0
100
AcDbCircle
10
31.450599631988396
20
5.6003533979831479
30
0
40
10.000000000000336
210
0
220
-0
230
1
100
AcDbArc
50
67.698517987742292
51
75.048393889843666
0
CIRCLE
5
143
100
AcDbEntity
8
0
100
AcDbCircle
10
28.202352785585845
20
13.012114510299213
30
0
40
1.5000000000000002
210
0
220
0
230
1
0
ARC
5
144
100
AcDbEntity
8
0
100
AcDbCircle
10
29.383076728108346
20
-11.290486784066491
30
0
40
5.0000000000003837
210
0
220
0
230
1
100
AcDbArc
50
269.65279313515549
51
285.61578157165945
0
LINE
5
145
100
AcDbEntity
8
0
100
AcDbLine
10
-44.79894840387297
20
-15.232033503051534
30
0
11
-66.702978297286435
21
-15.15571141766322
31
0
0
LINE
5
146
100
AcDbEntity
8
0
100
AcDbLine
10
31.336253860496068
20
15.981311766780454
30
0
11
34.030630635233088
21
15.261794285464836
31
0
0
LINE
5
147
100
AcDbEntity
8
0
100
AcDbLine
10
30.729002249511154
20
-16.105929078481452
30
0
11
33.979801457169849
21
-15.197324354130197
31
0
0
LINE
5
148
100
AcDbEntity
8
0
100
AcDbLine
10
53.491599626350357
20
-12.633526598765652
30
0
11
67.295411336136965
21
-11.267622387471022
31
0
0
LINE
5
149
100
AcDbEntity
8
0
100
AcDbLine
10
52.616711546554818
20
-11.916190637284048
30
0
11
44.655591455694285
21
-12.70395132353385
31
0
0
LWPOLYLINE
5
150
100
AcDbEntity
8
0
100
AcDbPolyline
90
4
70
1
43
0.0
10
64.556640335983289
20
3.0040242177917236
10
64.556640335983303
20
-2.9959757822082507
42
-0.99999999999999989
10
62.056640335983325
20
-2.9959757822082675
10
62.056640335983325
20
3.0040242177917382
42
-0.99999999999999989
0
ARC
5
151
100
AcDbEntity
8
0
100
AcDbCircle
10
-30.14226016667191
20
17.057655272370912
30
0
40
2.0000000000000053
210
0
220
0
230
1
100
AcDbArc
50
269.99644865004063
51
270.07484931317151
0
LWPOLYLINE
5
152
100
AcDbEntity
8
0
100
AcDbPolyline
90
8
70
1
43
0.0
10
-52.414290944462394
20
-8.7260131617840884
42
-0.41421356237310009
10
-54.014290944462431
20
-7.1260131617840949
10
-54.014290944462431
20
7.1197783101177574
42
-0.41421356237309626
10
-52.414290944462394
20
8.7197783101177606
10
-46.150678759238417
20
8.7197783101177642
42
-0.41421356237310075
10
-44.550678759238409
20
7.1197783101177592
10
-44.550678759238416
20
-7.1260131617840949
42
-0.41421356237309875
10
-46.15067875923841
20
-8.7260131617840937
0
CIRCLE
5
153
100
AcDbEntity
8
0
100
AcDbCircle
10
-78.251869873252758
20
12.900591323039761
30
0
40
1.5000000000000002
210
0
220
0
230
1
0
LWPOLYLINE
5
154
100
AcDbEntity
8
0
100
AcDbPolyline
90
4
70
1
43
0.0
10
37.539510598833999
20
8.5587140234273313
42
-0.99999999999999989
10
37.793026338340077
20
11.045826761085673
10
59.679618415856339
20
8.8148882548470286
42
-0.99999999999999989
10
59.426102676350361
20
6.3277755171888117
0
ARC
5
155
100
AcDbEntity
8
0
100
AcDbCircle
10
44.780677187653055
20
13.570645565882987
30
0
40
0.79999597703939362
210
0
220
0
230
1
100
AcDbArc
50
174.1795214798189
51
264.17984487979197
0
ARC
5
156
100
AcDbEntity
8
0
100
AcDbCircle
10
44.734367717931825
20
-13.500065289286427
30
0
40
0.80000196622158914
210
0
220
0
230
1
100
AcDbArc
50
95.651078018006132
51
185.65110768742105
0
LINE
5
157
100
AcDbEntity
8
0
100
AcDbLine
10
-70.653735613300242
20
-8.7122385781900924
30
0
11
-62.747272123026114
21
-8.739787745378095
31
0
0
LWPOLYLINE
5
158
100
AcDbEntity
8
0
100
AcDbPolyline
90
4
70
1
43
0.0
10
59.424738305848983
20
-6.3020891634298213
42
-0.99999999999999989
10
59.670913616764452
20
-8.7899391822806692
10
37.777833497672376
20
-10.956281913706448
42
-0.99999999999999989
10
37.531658186756893
20
-8.4684318948556516
0
LWPOLYLINE
5
159
100
AcDbEntity
8
0
100
AcDbPolyline
90
8
70
1
43
0.0
10
-43.453735895396797
20
10.865112840290172
10
-43.453735895396775
20
13.065112840290112
42
-0.99999999999999989
10
-41.853735895396795
20
13.065112840290134
10
-39.853735895396838
20
13.065112840290132
42
-0.99999999999999989
10
-38.253735895396858
20
13.06511284029015
10
-38.253735895396858
20
10.865112840290161
42
-0.99999999999999989
10
-39.853735895396824
20
10.86511284029017
10
-41.853735895396795
20
10.865112840290172
42
-0.99999999999999989
0
LINE
5
160
100
AcDbEntity
8
0
100
AcDbLine
10
-30.100379003450044
20
-15.001590524455281
30
0
11
-30.098260215882249
21
-15.001590718105755
31
0
0
ARC
5
161
100
AcDbEntity
8
0
100
AcDbCircle
10
-78.251869873252758
20
12.900591323039761
30
0
40
3.2500000000000129
210
0
220
-0
230
1
100
AcDbArc
50
90
51
195.83675848853858
0
ARC
5
162
100
AcDbEntity
8
0
100
AcDbCircle
10
-78.26633948721188
20
-12.665405336339449
30
0
40
3.2500000000000568
210
0
220
0
230
1
100
AcDbArc
50
191.43320613644241
51
276.02190758797741
0
ARC
5
163
100
AcDbEntity
8
0
100
AcDbCircle
10
-78.251869873252758
20
12.900591323039761
30
0
40
3.2500000000000129
210
0
220
-0
230
1
100
AcDbArc
50
90
51
168.43095470989704
0
LWPOLYLINE
5
164
100
AcDbEntity
8
0
100
AcDbPolyline
90
8
70
1
43
0.0
10
-71.653735895396821
20
-10.934887159709874
10
-69.653735895396849
20
-10.934887159709879
42
-0.99999999999999989
10
-68.053735895396827
20
-10.93488715970987
10
-68.053735895396855
20
-13.134887159709844
42
-0.99999999999999989
10
-69.653735895396821
20
-13.134887159709836
10
-71.653735895396807
20
-13.134887159709843
42
-0.99999999999999989
10
-73.253735895396787
20
-13.13488715970986
10
-73.253735895396815
20
-10.934887159709888
42
-0.99999999999999989
0
LINE
5
165
100
AcDbEntity
8
0
100
AcDbLine
10
-70.653735613300242
20
-8.7122385781900924
30
0
11
-78.295381630272146
21
-8.6989156963498822
31
0
0
LINE
5
166
100
AcDbEntity
8
0
100
AcDbLine
10
-70.653723353564544
20
8.7725299297366774
30
0
11
-62.6863491876925
21
8.7447685262703896
31
0
0
ARC
5
167
100
AcDbEntity
8
0
100
AcDbCircle
10
-62.69680228090678
20
5.7447867375186163
30
0
40
3.0000000000000062
210
0
220
0
230
1
100
AcDbArc
50
-0.19963977864452784
51
89.800360221355945
0
LINE
5
168
100
AcDbEntity
8
0
100
AcDbLine
10
-52.519378830190789
20
15.061280253710985
30
0
11
-52.519378873564733
21
15.060805719393064
31
0
0
ARC
5
169
100
AcDbEntity
8
0
100
AcDbCircle
10
-77.02940921793396
20
13.070621463947676
30
0
40
4.4756915177648251
210
0
220
0
230
1
100
AcDbArc
50
182.17717290246827
51
254.14122675399358
0
ARC
5
170
100
AcDbEntity
8
0
100
AcDbCircle
10
-77.334682212806655
20
-12.770237499787296
30
0
40
4.1831333468900347
210
0
220
0
230
1
100
AcDbArc
50
103.27706961539816
51
178.47448349702131
0
LINE
5
171
100
AcDbEntity
8
0
100
AcDbLine
10
-59.696820492155005
20
5.7343336443043116
30
0
11
-59.736837241060037
21
-5.7502590498406283
31
0
0
ARC
5
172
100
AcDbEntity
8
0
100
AcDbCircle
10
-78.26633948721188
20
-12.665405336339449
30
0
40
3.2500000000000133
210
0
220
0
230
1
100
AcDbArc
50
167.2750621055693
51
276.02190758797741
0
ARC
5
173
100
AcDbEntity
8
0
100
AcDbCircle
10
-62.736819029811812
20
-5.7398059566263218
30
0
40
3.0000000000000071
210
0
220
0
230
1
100
AcDbArc
50
269.8003602213555
51
359.80036022135545
0
LINE
5
174
100
AcDbEntity
8
0
100
AcDbLine
10
44.699552584964508
20
12.774773489404714
30
0
11
52.658315369894922
21
11.963523179335805
31
0
0
LINE
5
175
100
AcDbEntity
8
0
100
AcDbLine
10
-70.653723353564544
20
8.7725299297366774
30
0
11
-78.252468611628117
21
8.7652828847313469
31
0
0
CIRCLE
5
176
100
AcDbEntity
8
0
100
AcDbCircle
10
-78.26633948721188
20
-12.665405336339449
30
0
40
1.5000000000000002
210
0
220
0
230
1
0
ENDSEC
0
SECTION
2
OBJECTS
0
DICTIONARY
5
C
100
AcDbDictionary
3
ACAD_GROUP
350
D
3
ACAD_MLINESTYLE
350
17
0
DICTIONARY
5
D
100
AcDbDictionary
0
DICTIONARY
5
1A
330
C
100
AcDbDictionary
0
DICTIONARY
5
17
100
AcDbDictionary
0
ENDSEC
0
EOF
