0
SECTION
2
HEADER
9
$INSUNITS
70
4
9
$ACADVER
1
AC1014
9
$HANDSEED
5
FFFF
0
ENDSEC
0
SECTION
2
TABLES
0
TABLE
2
VPORT
5
8
100
AcDbSymbolTable
0
ENDTAB
0
TABLE
2
LTYPE
5
5
100
AcDbSymbolTable
0
LTYPE
5
14
100
AcDbSymbolTableRecord
100
AcDbLinetypeTableRecord
2
BYBLOCK
70
0
0
LTYPE
5
15
100
AcDbSymbolTableRecord
100
AcDbLinetypeTableRecord
2
BYLAYER
70
0
0
ENDTAB
0
TABLE
2
LAYER
5
2
100
AcDbSymbolTable
70
2
0
LAYER
5
50
100
AcDbSymbolTableRecord
100
AcDbLayerTableRecord
2
0
70
0
6
CONTINUOUS
0
ENDTAB
0
TABLE
2
STYLE
5
3
100
AcDbSymbolTable
70
1
0
STYLE
5
11
100
AcDbSymbolTableRecord
100
AcDbTextStyleTableRecord
2
STANDARD
70
0
0
ENDTAB
0
TABLE
2
VIEW
5
6
100
AcDbSymbolTable
70
0
0
ENDTAB
0
TABLE
2
UCS
5
7
100
AcDbSymbolTable
70
0
0
ENDTAB
0
TABLE
2
APPID
5
9
100
AcDbSymbolTable
70
2
0
APPID
5
12
100
AcDbSymbolTableRecord
100
AcDbRegAppTableRecord
2
ACAD
70
0
0
ENDTAB
0
TABLE
2
DIMSTYLE
5
A
100
AcDbSymbolTable
70
1
0
ENDTAB
0
TABLE
2
BLOCK_RECORD
5
1
100
AcDbSymbolTable
70
1
0
BLOCK_RECORD
5
1F
100
AcDbSymbolTableRecord
100
AcDbBlockTableRecord
2
*MODEL_SPACE
0
BLOCK_RECORD
5
1B
100
AcDbSymbolTableRecord
100
AcDbBlockTableRecord
2
*PAPER_SPACE
0
ENDTAB
0
ENDSEC
0
SECTION
2
BLOCKS
0
BLOCK
5
20
100
AcDbEntity
100
AcDbBlockBegin
2
*MODEL_SPACE
0
ENDBLK
5
21
100
AcDbEntity
100
AcDbBlockEnd
0
BLOCK
5
1C
100
AcDbEntity
100
AcDbBlockBegin
2
*PAPER_SPACE
0
ENDBLK
5
1D
100
AcDbEntity
100
AcDbBlockEnd
0
ENDSEC
0
SECTION
2
ENTITIES
0
LWPOLYLINE
5
100
100
AcDbEntity
8
0
100
AcDbPolyline
90
11
70
1
43
0.0
10
59.64140250585568
20
0.0012121901910333577
10
59.64140250585568
20
-6.4957952707433915
42
-0.53577534351546729
10
58.25509021383354
20
-7.4181633171503591
10
54.37180891057622
20
-5.7917417312423369
42
-0.097499200714888337
10
54.051014421411821
20
-5.576480466021926
10
49.074362529207427
20
-0.5998285738175313
42
-0.41421356237308715
10
49.074362529207427
20
0.6022529541995969
10
54.051014421411821
20
5.5789048464039981
42
-0.097499200714890238
10
54.37180891057622
20
5.7941661116244125
10
58.25509021383354
20
7.4205876975324223
42
-0.53577534351545675
10
59.64140250585568
20
6.4982196511254617
0
LWPOLYLINE
5
101
100
AcDbEntity
8
0
100
AcDbPolyline
90
8
70
1
43
0.0
10
30.137179996213138
20
5.3825848424775371
42
0.1987774090758439
10
29.697840370247661
20
4.3227036213286691
10
29.693355203174878
20
-4.314236172611893
42
0.19904733265394045
10
30.132694829140334
20
-5.3756752950226723
10
31.481572841213953
20
-6.7245533070962722
42
0.66817863791929943
10
33.188679622400478
20
-6.0174465259097243
10
33.188679622400485
20
6.0198709062917954
42
0.66817863791929799
10
31.481572841213946
20
6.7269776874783442
0
LWPOLYLINE
5
102
100
AcDbEntity
8
0
100
AcDbPolyline
90
4
70
1
43
0.0
10
64.556640335983289
20
-2.9959757822082493
10
64.556640335983303
20
3.0040242177917205
42
0.99999999999999989
10
62.056640335983317
20
3.0040242177917396
10
62.05664033598331
20
-2.9959757822082684
42
0.99999999999999989
0
ARC
5
103
100
AcDbEntity
8
0
100
AcDbCircle
10
-2.8416063309357452e-05
20
-39.311283907380115
30
0
40
19.999999999999975
210
0
220
-0
230
1
100
AcDbArc
50
55.164638181973231
51
124.83526654888415
0
CIRCLE
5
104
100
AcDbEntity
8
0
100
AcDbCircle
10
28.188765728745931
20
-13.151647761377181
30
0
40
1.5000000000000002
210
0
220
0
230
1
0
LWPOLYLINE
5
105
100
AcDbEntity
8
0
100
AcDbPolyline
90
6
70
1
43
0.0
10
-9.5170447562396472
20
-3.9269863780646403
42
0.47151663987950676
10
-7.7968127247632424
20
-4.0924699387403765
10
-4.5067167712281684
20
-0.80301000134852085
42
0.41421356237308643
10
-4.5065636608683759
20
0.78090918110909513
10
-7.7962504223632205
20
4.0712320026035931
42
0.47153771067371886
10
-9.5165576272938885
20
3.9060170141768378
42
0.30591575937633786
0
LWPOLYLINE
5
106
100
AcDbEntity
8
0
100
AcDbPolyline
90
6
70
1
43
0.0
10
38.920779358368399
20
5.3818245880208853
10
43.735706331248991
20
0.56689761514027703
42
-0.41421356237309043
10
43.735706331248991
20
-0.56447323475820377
10
38.920779358368407
20
-5.3794002076388132
42
-0.6681786379192981
10
37.55509393341913
20
-4.8137147826895692
10
37.55509393341913
20
4.8161391630716457
42
-0.66817863791929988
0
LWPOLYLINE
5
107
100
AcDbEntity
8
0
100
AcDbPolyline
90
6
70
1
43
0.0
10
18.209952356352641
20
-6.349138202339959
42
-0.48907535790535372
10
17.764097303739526
20
-4.4604552272650224
10
19.139420017759004
20
-2.7524508135080361
42
-0.45073597972559742
10
21.156215447147602
20
-2.6597183388803467
10
24.697227860753465
20
-6.8013429019757652
42
-0.80346864447474264
10
23.285736999661811
20
-8.6722971678230696
0
ARC
5
108
100
AcDbEntity
8
0
100
AcDbCircle
10
52.758553336958173
20
-13.440983444129655
30
0
40
1.2500000000000018
210
0
220
-0
230
1
100
AcDbArc
50
19.537511836609045
51
92.935962237588868
0
LWPOLYLINE
5
109
100
AcDbEntity
8
0
100
AcDbPolyline
90
6
70
1
43
0.0
10
-0.89056068548125644
20
-4.390265228290648
10
-4.1802674169439866
20
-7.6799719597533933
42
0.47152701455803642
10
-4.0149186280079743
20
-9.4002412539814824
42
0.30591604687870438
10
3.8177164469032814
20
-9.4002412539814788
42
0.47152701455804891
10
3.9830652358393071
20
-7.6799719597533933
10
0.69335850437659685
20
-4.3902652282906676
42
0.41421356237309515
0
ARC
5
110
100
AcDbEntity
8
0
100
AcDbCircle
10
-24.446701766552632
20
24.446856091086197
30
0
40
6.145500000000002
210
0
220
-0
230
1
100
AcDbArc
50
55.413240989564549
51
173.29181264405977
0
LWPOLYLINE
5
111
100
AcDbEntity
8
0
100
AcDbPolyline
90
6
70
1
43
0.0
10
3.9062493049848559
20
9.3995347353304997
42
0.30591604687870505
10
-3.9263857699264291
20
9.3995347353304979
42
0.47152701455803808
10
-4.0917345588624698
20
7.6792654411024213
10
-0.80202782739973344
20
4.3895587096396724
42
0.41421356237309748
10
0.78189136245813806
20
4.3895587096396529
10
4.071598093920878
20
7.6792654411024142
42
0.47152701455803475
0
LWPOLYLINE
5
112
100
AcDbEntity
8
0
100
AcDbPolyline
90
6
70
1
43
0.0
10
17.69457183023432
20
4.4944749877104266
42
-0.45073597972559143
10
18.126984205257216
20
6.4665507098317496
10
23.043967785129897
20
8.8149747367503242
42
-0.80346864447474375
10
24.485850113478843
20
6.9673406639338253
10
20.928141135616386
20
2.665786973347759
42
-0.48907535790535434
10
18.988417693347579
20
2.723951187357569
0
ARC
5
113
100
AcDbEntity
8
0
100
AcDbCircle
10
55.674780731518105
20
10.393826741630193
30
0
40
2.9000000000013433
210
0
220
-0
230
1
100
AcDbArc
50
79.934104015561317
51
86.781238897090873
0
LWPOLYLINE
5
114
100
AcDbEntity
8
0
100
AcDbPolyline
90
6
70
1
43
0.0
10
46.988397524707111
20
2.6882179586999166
10
51.381201430193009
20
7.081021864185761
42
0.64805135590373508
10
50.860434752804508
20
8.4454452349705313
10
41.551308171904935
20
8.9689640048983144
42
0.68868728194202866
10
40.940703999394962
20
7.6045406341135475
10
45.857026674808651
20
2.6882179586999171
42
0.41421356237308848
0
CIRCLE
5
115
100
AcDbEntity
8
0
100
AcDbCircle
10
66.513806007625988
20
-7.8567233081714658
30
0
40
1.5000000000000002
210
0
220
0
230
1
0
ARC
5
116
100
AcDbEntity
8
0
100
AcDbCircle
10
24.431999465876562
20
-24.460555337715174
30
0
40
6.1454999999999984
210
0
220
0
230
1
100
AcDbArc
50
235.16463818197312
51
359.99999019088762
0
ARC
5
117
100
AcDbEntity
8
0
100
AcDbCircle
10
7.1650332316084271e-05
20
39.348698197678495
30
0
40
20
210
0
220
0
230
1
100
AcDbArc
50
235.41324098956446
51
304.58656085932461
0
ARC
5
118
100
AcDbEntity
8
0
100
AcDbCircle
10
39.775617067755498
20
-14.106840658419395
30
0
40
1.25
210
0
220
0
230
1
100
AcDbArc
50
270
51
272.93596223758954
0
ARC
5
119
100
AcDbEntity
8
0
100
AcDbCircle
10
-24.43231794214455
20
-24.460562366246812
30
0
40
6.1456244477477293
210
0
220
0
230
1
100
AcDbArc
50
174.54692080600006
51
304.83526654888442
0
CIRCLE
5
120
100
AcDbEntity
8
0
100
AcDbCircle
10
-10
20
-10
30
0
40
1.5000000000000002
210
0
220
0
230
1
0
CIRCLE
5
121
100
AcDbEntity
8
0
100
AcDbCircle
10
-24.5
20
24.5
30
0
40
1.5000000000000002
210
0
220
0
230
1
0
CIRCLE
5
122
100
AcDbEntity
8
0
100
AcDbCircle
10
10
20
-10
30
0
40
1.5000000000000002
210
0
220
0
230
1
0
LINE
5
123
100
AcDbEntity
8
0
100
AcDbLine
10
-30.080947547192736
20
-22.03920504603467
30
0
11
-23.82553110787779
21
-11.368280755986389
31
0
0
CIRCLE
5
124
100
AcDbEntity
8
0
100
AcDbCircle
10
0
20
0
30
0
40
1.5000000000000002
210
0
220
0
230
1
0
ARC
5
125
100
AcDbEntity
8
0
100
AcDbCircle
10
38.078336905169003
20
-21.695316084049921
30
0
40
7.4999999999999991
210
0
220
0
230
1
100
AcDbArc
50
95.651092099776406
51
179.98265537870299
0
CIRCLE
5
126
100
AcDbEntity
8
0
100
AcDbCircle
10
-15.250000000000004
20
15.250000000000005
30
0
40
3.0499999999999994
210
0
220
0
230
1
0
LINE
5
127
100
AcDbEntity
8
0
100
AcDbLine
10
30.591501565873283
20
21.793622107218049
30
0
11
30.592304168389852
21
24.444918703304701
31
0
0
CIRCLE
5
128
100
AcDbEntity
8
0
100
AcDbCircle
10
28.202352785585845
20
13.012114510299213
30
0
40
1.5000000000000002
210
0
220
0
230
1
0
LWPOLYLINE
5
129
100
AcDbEntity
8
0
100
AcDbPolyline
90
6
70
1
43
0.0
10
10.087385296714986
20
-3.9277080493693246
42
0.30591575937633797
10
10.087872425660738
20
3.9052953428721531
42
0.47151663987950682
10
8.3676403941843347
20
4.0707789035478879
10
5.0775444406492571
20
0.78131896615603247
42
0.41421356237308554
10
5.0773913302894647
20
-0.80260021630158329
10
8.3670780917843111
20
-4.0929230377960799
42
0.47153771067372097
0
LINE
5
130
100
AcDbEntity
8
0
100
AcDbLine
10
-11.424406239322053
20
-22.895328517838127
30
0
11
-20.921821159598224
21
-29.504877205002067
31
0
0
ARC
5
131
100
AcDbEntity
8
0
100
AcDbCircle
10
24.446804449975801
20
24.446779073640151
30
0
40
6.145500000000407
210
0
220
0
230
1
100
AcDbArc
50
-0.017344621297012173
51
124.58656085932479
0
CIRCLE
5
132
100
AcDbEntity
8
0
100
AcDbCircle
10
15.250000000000004
20
15.250000000000005
30
0
40
2.0499999999999998
210
0
220
0
230
1
0
LINE
5
133
100
AcDbEntity
8
0
100
AcDbLine
10
67.295411336136965
20
-11.267622387471022
30
0
11
56.189127075192083
21
-13.242479344610018
31
0
0
CIRCLE
5
134
100
AcDbEntity
8
0
100
AcDbCircle
10
15.260029748554489
20
-15.268251427013064
30
0
40
2.0499999999999998
210
0
220
0
230
1
0
LWPOLYLINE
5
135
100
AcDbEntity
8
0
100
AcDbPolyline
90
6
70
1
43
0.0
10
41.605259801706673
20
-8.9088570541485463
10
50.84807863587465
20
-8.4348196350707756
42
0.64980492153852099
10
51.372788232252233
20
-7.0701842858629131
10
46.988397524707118
20
-2.6857935783178437
42
0.41421356237309953
10
45.857026674808651
20
-2.6857935783178362
10
40.998598548185761
20
-7.5442217049406697
42
0.68686963586873295
0
ARC
5
136
100
AcDbEntity
8
0
100
AcDbCircle
10
55.681429122563692
20
-10.387266079564784
30
0
40
2.8999999999988506
210
0
220
0
230
1
100
AcDbArc
50
272.93596223758726
51
280.08263041360453
0
ARC
5
137
100
AcDbEntity
8
0
100
AcDbCircle
10
38.230072130501753
20
13.778659622072313
30
0
40
0.50000000000001088
210
0
220
-0
230
1
100
AcDbArc
50
14.991195761375428
51
86.781238897091939
0
ARC
5
138
100
AcDbEntity
8
0
100
AcDbCircle
10
38.091501222223833
20
21.791351701634149
30
0
40
7.5
210
0
220
0
230
1
100
AcDbArc
50
179.98265537870299
51
264.17984188473287
0
LINE
5
139
100
AcDbEntity
8
0
100
AcDbLine
10
54.272579407611246
20
13.377264726169937
30
0
11
55.837611191425935
21
13.289251795285356
31
0
0
ARC
5
140
100
AcDbEntity
8
0
100
AcDbCircle
10
52.755108687582997
20
13.462602958263661
30
0
40
1.100000000000003
210
0
220
0
230
1
100
AcDbArc
50
266.7812388970903
51
338.57128203280882
0
ARC
5
141
100
AcDbEntity
8
0
100
AcDbCircle
10
39.775617067755498
20
-14.106840658419395
30
0
40
1.2499999999999998
210
0
220
0
230
1
100
AcDbArc
50
92.935962237588882
51
166.33441263856889
0
LINE
5
142
100
AcDbEntity
8
0
100
AcDbLine
10
39.713853789859435
20
13.094267930601948
30
0
11
52.693345409686941
21
12.364338282739794
31
0
0
CIRCLE
5
143
100
AcDbEntity
8
0
100
AcDbCircle
10
10
20
10
30
0
40
1.5000000000000002
210
0
220
0
230
1
0
LINE
5
144
100
AcDbEntity
8
0
100
AcDbLine
10
37.339809427482422
20
-14.231766180371253
30
0
11
38.100767372823682
21
-14.192738850407498
31
0
0
ARC
5
145
100
AcDbEntity
8
0
100
AcDbCircle
10
54.244505190385794
20
12.878053510022713
30
0
40
0.50000000000001243
210
0
220
-0
230
1
100
AcDbArc
50
86.781238897093573
51
158.57128203280678
0
LINE
5
146
100
AcDbEntity
8
0
100
AcDbLine
10
-23.827430142053323
20
11.360541469563941
30
0
11
-30.096245940848426
21
22.027926594160348
31
0
0
CIRCLE
5
147
100
AcDbEntity
8
0
100
AcDbCircle
10
-15.250000000000004
20
-15.250000000000005
30
0
40
3.0499999999999994
210
0
220
0
230
1
0
LINE
5
148
100
AcDbEntity
8
0
100
AcDbLine
10
-11.352998429901342
20
22.883346705733256
30
0
11
-20.958187157648844
21
29.506246970773677
31
0
0
CIRCLE
5
149
100
AcDbEntity
8
0
100
AcDbCircle
10
-15.250000000000004
20
15.250000000000005
30
0
40
2.0499999999999998
210
0
220
0
230
1
0
CIRCLE
5
150
100
AcDbEntity
8
0
100
AcDbCircle
10
24.5
20
24.5
30
0
40
1.5000000000000002
210
0
220
0
230
1
0
LINE
5
151
100
AcDbEntity
8
0
100
AcDbLine
10
30.577499465876471
20
-24.460556391623413
30
0
11
30.57833724881845
21
-21.693045678466021
31
0
0
CIRCLE
5
152
100
AcDbEntity
8
0
100
AcDbCircle
10
15.250000000000004
20
15.250000000000005
30
0
40
3.0499999999999994
210
0
220
0
230
1
0
ARC
5
153
100
AcDbEntity
8
0
100
AcDbCircle
10
54.407793139032705
20
-12.855741549479889
30
0
40
0.50000000000001132
210
0
220
0
230
1
100
AcDbArc
50
199.53751183661134
51
272.93596223758652
0
CIRCLE
5
154
100
AcDbEntity
8
0
100
AcDbCircle
10
-10
20
10
30
0
40
1.5000000000000002
210
0
220
0
230
1
0
LINE
5
155
100
AcDbEntity
8
0
100
AcDbLine
10
11.424376702977142
20
-22.895347513861736
30
0
11
20.921565382923394
21
-29.504762193033535
31
0
0
ARC
5
156
100
AcDbEntity
8
0
100
AcDbCircle
10
67.000000345079854
20
-8.2822024260072098
30
0
40
2.9999999999906546
210
0
220
0
230
1
100
AcDbArc
50
-84.34890790054223
51
0
0
CIRCLE
5
157
100
AcDbEntity
8
0
100
AcDbCircle
10
36.422712099757874
20
10.001212190191037
30
0
40
1.05
210
0
220
0
230
1
0
LINE
5
158
100
AcDbEntity
8
0
100
AcDbLine
10
67.304219290992208
20
11.274785683197075
30
0
11
56.181644737832102
21
13.249188168684762
31
0
0
ARC
5
159
100
AcDbEntity
8
0
100
AcDbCircle
10
-40.284006479949717
20
-0.0052446992406629533
30
0
40
20.000000000000039
210
0
220
0
230
1
100
AcDbArc
50
-34.621445644998758
51
34.631019976838388
0
LINE
5
160
100
AcDbEntity
8
0
100
AcDbLine
10
54.433403031889981
20
-13.355085252141542
30
0
11
55.829966501135864
21
-13.28345955500116
31
0
0
ARC
5
161
100
AcDbEntity
8
0
100
AcDbCircle
10
39.775617067755498
20
14.192532606125807
30
0
40
1.0999999999999968
210
0
220
0
230
1
100
AcDbArc
50
194.9911957613746
51
266.78123889708991
0
CIRCLE
5
162
100
AcDbEntity
8
0
100
AcDbCircle
10
36.422712099757874
20
-9.9987878098089649
30
0
40
1.05
210
0
220
0
230
1
0
LINE
5
163
100
AcDbEntity
8
0
100
AcDbLine
10
52.694528604814934
20
-12.192624187475548
30
0
11
39.711592335612259
21
-12.858481401765292
31
0
0
ARC
5
164
100
AcDbEntity
8
0
100
AcDbCircle
10
38.075157479966393
20
-13.693395147745857
30
0
40
0.49999999999999911
210
0
220
0
230
1
100
AcDbArc
50
272.93596223758823
51
346.33441263856861
0
CIRCLE
5
165
100
AcDbEntity
8
0
100
AcDbCircle
10
15.260029748554489
20
-15.268251427013064
30
0
40
3.0499999999999998
210
0
220
0
230
1
0
CIRCLE
5
166
100
AcDbEntity
8
0
100
AcDbCircle
10
66.51677620274836
20
7.8614878111958921
30
0
40
1.5000000000000002
210
0
220
0
230
1
0
CIRCLE
5
167
100
AcDbEntity
8
0
100
AcDbCircle
10
56.422712099757888
20
10.001212190191037
30
0
40
1.05
210
0
220
0
230
1
0
ARC
5
168
100
AcDbEntity
8
0
100
AcDbCircle
10
67.000000345072436
20
8.2902504039712195
30
0
40
3.0000000000000515
210
0
220
0
230
1
100
AcDbArc
50
0
51
84.17984188473433
0
ARC
5
169
100
AcDbEntity
8
0
100
AcDbCircle
10
-27.123205648390059
20
-23.773066780418411
30
0
40
3.4284856210713626
210
0
220
0
230
1
100
AcDbArc
50
149.62068605999451
51
181.72947777852025
0
LINE
5
170
100
AcDbEntity
8
0
100
AcDbLine
10
70.000000345072493
20
8.2902504039712195
30
0
11
70.000000345070518
21
-8.2822024260072098
31
0
0
CIRCLE
5
171
100
AcDbEntity
8
0
100
AcDbCircle
10
-15.250000000000004
20
-15.250000000000005
30
0
40
2.0499999999999998
210
0
220
0
230
1
0
CIRCLE
5
172
100
AcDbEntity
8
0
100
AcDbCircle
10
24.5
20
-24.5
30
0
40
1.5000000000000002
210
0
220
0
230
1
0
LINE
5
173
100
AcDbEntity
8
0
100
AcDbLine
10
37.330953857424227
20
14.330013503569653
30
0
11
38.258146347727219
21
14.277870838219535
31
0
0
CIRCLE
5
174
100
AcDbEntity
8
0
100
AcDbCircle
10
56.422712099757888
20
-9.9987878098089649
30
0
40
1.05
210
0
220
0
230
1
0
CIRCLE
5
175
100
AcDbEntity
8
0
100
AcDbCircle
10
-24.5
20
-24.5
30
0
40
1.5000000000000002
210
0
220
0
230
1
0
LINE
5
176
100
AcDbEntity
8
0
100
AcDbLine
10
11.35308478690262
20
22.883307442495607
30
0
11
20.958307338435915
21
29.506182017939299
31
0
0
ARC
5
177
100
AcDbEntity
8
0
100
AcDbCircle
10
-26.481431609885266
20
24.152215248125106
30
0
40
4.1927896361134058
210
0
220
0
230
1
100
AcDbArc
50
166.02555470149218
51
210.44113121166137
0
LINE
5
178
100
AcDbEntity
8
0
100
AcDbLine
10
29.702352785585845
20
13.012114510299213
30
0
11
29.702351976567076
21
13.010556609245114
31
0
0
LWPOLYLINE
5
179
100
AcDbEntity
8
0
100
AcDbPolyline
90
12
70
1
43
0.0
10
-24.099999999999998
20
27.559956426705021
10
-22.049999999999997
20
26.376388374866295
42
-0.26794919243112236
10
-21.649999999999995
20
25.683568051838744
10
-21.649999999999995
20
23.31643194816127
42
-0.26794919243112225
10
-22.050000000000001
20
22.623611625133723
10
-24.100000000000005
20
21.440043573294982
42
-0.26794919243112048
10
-24.900000000000002
20
21.440043573294979
10
-26.95000000000001
20
22.623611625133719
42
-0.26794919243112236
10
-27.350000000000001
20
23.316431948161267
10
-27.350000000000009
20
25.683568051838744
42
-0.26794919243112036
10
-26.950000000000006
20
26.376388374866295
10
-24.900000000000006
20
27.559956426705025
42
-0.26794919243112514
0
LWPOLYLINE
5
180
100
AcDbEntity
8
0
100
AcDbPolyline
90
12
70
1
43
0.0
10
-10.4
20
6.940043573294985
10
-12.449999999999996
20
8.1236116251337194
42
-0.26794919243112247
10
-12.849999999999998
20
8.8164319481612665
10
-12.849999999999998
20
11.183568051838733
42
-0.26794919243112536
10
-12.449999999999996
20
11.876388374866282
10
-10.399999999999993
20
13.059956426705014
42
-0.26794919243112214
10
-9.5999999999999943
20
13.059956426705012
10
-7.550000000000006
20
11.876388374866284
42
-0.26794919243112236
10
-7.1500000000000039
20
11.183568051838737
10
-7.1500000000000004
20
8.8164319481612665
42
-0.26794919243112264
10
-7.5500000000000007
20
8.1236116251337158
10
-9.5999999999999996
20
6.9400435732949859
42
-0.2679491924311232
0
LWPOLYLINE
5
181
100
AcDbEntity
8
0
100
AcDbPolyline
90
12
70
1
43
0.0
10
-10.4
20
-13.059956426705019
10
-12.450000000000001
20
-11.876388374866288
42
-0.26794919243112286
10
-12.850000000000001
20
-11.183568051838735
10
-12.850000000000001
20
-8.8164319481612665
42
-0.26794919243112431
10
-12.450000000000001
20
-8.1236116251337158
10
-10.399999999999999
20
-6.9400435732949788
42
-0.26794919243112236
10
-9.5999999999999961
20
-6.9400435732949797
10
-7.549999999999998
20
-8.1236116251337158
42
-0.26794919243112236
10
-7.1499999999999986
20
-8.8164319481612647
10
-7.1499999999999977
20
-11.183568051838735
42
-0.26794919243112247
10
-7.549999999999998
20
-11.876388374866288
10
-9.5999999999999979
20
-13.059956426705018
42
-0.26794919243112286
0
LWPOLYLINE
5
182
100
AcDbEntity
8
0
100
AcDbPolyline
90
12
70
1
43
0.0
10
-24.899999999999999
20
-27.559956426705014
10
-26.950000000000003
20
-26.376388374866281
42
-0.26794919243112264
10
-27.349999999999998
20
-25.683568051838733
10
-27.350000000000001
20
-23.316431948161267
42
-0.26794919243112036
10
-26.950000000000003
20
-22.623611625133716
10
-24.900000000000013
20
-21.440043573294986
42
-0.26794919243112381
10
-24.100000000000005
20
-21.440043573294982
10
-22.050000000000001
20
-22.623611625133719
42
-0.26794919243112331
10
-21.649999999999999
20
-23.316431948161274
10
-21.649999999999995
20
-25.683568051838748
42
-0.26794919243111881
10
-22.049999999999997
20
-26.376388374866295
10
-24.100000000000005
20
-27.559956426705014
42
-0.26794919243112181
0
LWPOLYLINE
5
183
100
AcDbEntity
8
0
100
AcDbPolyline
90
12
70
1
43
0.0
10
9.5999999999999979
20
-13.059956426705014
10
7.5500000000000025
20
-11.876388374866284
42
-0.26794919243112164
10
7.1499999999999995
20
-11.183568051838737
10
7.1499999999999986
20
-8.8164319481612683
42
-0.26794919243112236
10
7.5499999999999998
20
-8.1236116251337194
10
9.600000000000005
20
-6.9400435732949859
42
-0.26794919243112331
10
10.400000000000006
20
-6.940043573294985
10
12.449999999999999
20
-8.1236116251337158
42
-0.26794919243112358
10
12.850000000000001
20
-8.8164319481612665
10
12.85
20
-11.183568051838733
42
-0.26794919243112331
10
12.449999999999999
20
-11.876388374866281
10
10.399999999999999
20
-13.059956426705014
42
-0.2679491924311232
0
LWPOLYLINE
5
184
100
AcDbEntity
8
0
100
AcDbPolyline
90
12
70
1
43
0.0
10
24.059915962951891
20
-27.554449111324129
10
22.025609661333363
20
-26.344105687114091
42
-0.26794919243112131
10
21.634727456502446
20
-25.646100599778393
10
21.665762458362533
20
-23.279167951392967
42
-0.26794919243112536
10
22.07481149355057
20
-22.591651488454261
10
24.140152797029167
20
-21.435062264278876
42
-0.26794919243111964
10
24.940084037048113
20
-21.445550888675879
10
26.974390338666637
20
-22.655894312885913
42
-0.26794919243112048
10
27.365272543497557
20
-23.353899400221614
10
27.334237541637471
20
-25.720832048607054
42
-0.26794919243112275
10
26.925188506449437
20
-26.408348511545743
10
24.859847202970844
20
-27.564937735721134
42
-0.26794919243112453
0
LWPOLYLINE
5
185
100
AcDbEntity
8
0
100
AcDbPolyline
90
12
70
1
43
0.0
10
9.5999999999999996
20
6.9400435732949859
10
7.5500000000000025
20
8.1236116251337158
42
-0.26794919243112331
10
7.1500000000000021
20
8.8164319481612665
10
7.1500000000000039
20
11.183568051838733
42
-0.26794919243112308
10
7.550000000000006
20
11.876388374866284
10
9.6000000000000068
20
13.059956426705014
42
-0.26794919243112331
10
10.400000000000006
20
13.059956426705012
10
12.449999999999999
20
11.876388374866282
42
-0.26794919243112514
10
12.85
20
11.18356805183873
10
12.850000000000001
20
8.8164319481612665
42
-0.26794919243112453
10
12.449999999999996
20
8.1236116251337158
10
10.4
20
6.9400435732949859
42
-0.26794919243112264
0
LWPOLYLINE
5
186
100
AcDbEntity
8
0
100
AcDbPolyline
90
12
70
1
43
0.0
10
24.100000000000009
20
21.440043573294979
10
22.050000000000001
20
22.623611625133726
42
-0.26794919243112431
10
21.649999999999995
20
23.316431948161274
10
21.649999999999995
20
25.683568051838748
42
-0.26794919243111881
10
22.049999999999997
20
26.376388374866295
10
24.100000000000005
20
27.559956426705014
42
-0.26794919243112181
10
24.899999999999999
20
27.559956426705014
10
26.950000000000003
20
26.376388374866288
42
-0.26794919243111975
10
27.350000000000001
20
25.683568051838733
10
27.349999999999998
20
23.316431948161259
42
-0.26794919243112036
10
26.950000000000006
20
22.623611625133716
10
24.900000000000016
20
21.440043573294979
42
-0.26794919243112308
0
LWPOLYLINE
5
187
100
AcDbEntity
8
0
100
AcDbPolyline
90
12
70
1
43
0.0
10
-0.3999999999999998
20
-3.0599564267050172
10
-2.4499999999999997
20
-1.8763883748662835
42
-0.26794919243112275
10
-2.8499999999999996
20
-1.1835680518387319
10
-2.8499999999999992
20
1.183568051838735
42
-0.26794919243112264
10
-2.4499999999999988
20
1.876388374866286
10
-0.39999999999999764
20
3.0599564267050177
42
-0.26794919243112264
10
0.40000000000000285
20
3.0599564267050172
10
2.450000000000002
20
1.8763883748662828
42
-0.26794919243112297
10
2.8500000000000014
20
1.1835680518387317
10
2.8500000000000005
20
-1.1835680518387337
42
-0.26794919243112264
10
2.4500000000000002
20
-1.8763883748662844
10
0.40000000000000036
20
-3.0599564267050172
42
-0.26794919243112264
0
ENDSEC
0
SECTION
2
OBJECTS
0
DICTIONARY
5
C
100
AcDbDictionary
3
ACAD_GROUP
350
D
3
ACAD_MLINESTYLE
350
17
0
DICTIONARY
5
D
100
AcDbDictionary
0
DICTIONARY
5
1A
330
C
100
AcDbDictionary
0
DICTIONARY
5
17
100
AcDbDictionary
0
ENDSEC
0
EOF
