0
SECTION
2
HEADER
9
$INSUNITS
70
4
9
$ACADVER
1
AC1014
9
$HANDSEED
5
FFFF
0
ENDSEC
0
SECTION
2
TABLES
0
TABLE
2
VPORT
5
8
100
AcDbSymbolTable
0
ENDTAB
0
TABLE
2
LTYPE
5
5
100
AcDbSymbolTable
0
LTYPE
5
14
100
AcDbSymbolTableRecord
100
AcDbLinetypeTableRecord
2
BYBLOCK
70
0
0
LTYPE
5
15
100
AcDbSymbolTableRecord
100
AcDbLinetypeTableRecord
2
BYLAYER
70
0
0
ENDTAB
0
TABLE
2
LAYER
5
2
100
AcDbSymbolTable
70
2
0
LAYER
5
50
100
AcDbSymbolTableRecord
100
AcDbLayerTableRecord
2
0
70
0
6
CONTINUOUS
0
ENDTAB
0
TABLE
2
STYLE
5
3
100
AcDbSymbolTable
70
1
0
STYLE
5
11
100
AcDbSymbolTableRecord
100
AcDbTextStyleTableRecord
2
STANDARD
70
0
0
ENDTAB
0
TABLE
2
VIEW
5
6
100
AcDbSymbolTable
70
0
0
ENDTAB
0
TABLE
2
UCS
5
7
100
AcDbSymbolTable
70
0
0
ENDTAB
0
TABLE
2
APPID
5
9
100
AcDbSymbolTable
70
2
0
APPID
5
12
100
AcDbSymbolTableRecord
100
AcDbRegAppTableRecord
2
ACAD
70
0
0
ENDTAB
0
TABLE
2
DIMSTYLE
5
A
100
AcDbSymbolTable
70
1
0
ENDTAB
0
TABLE
2
BLOCK_RECORD
5
1
100
AcDbSymbolTable
70
1
0
BLOCK_RECORD
5
1F
100
AcDbSymbolTableRecord
100
AcDbBlockTableRecord
2
*MODEL_SPACE
0
BLOCK_RECORD
5
1B
100
AcDbSymbolTableRecord
100
AcDbBlockTableRecord
2
*PAPER_SPACE
0
ENDTAB
0
ENDSEC
0
SECTION
2
BLOCKS
0
BLOCK
5
20
100
AcDbEntity
100
AcDbBlockBegin
2
*MODEL_SPACE
0
ENDBLK
5
21
100
AcDbEntity
100
AcDbBlockEnd
0
BLOCK
5
1C
100
AcDbEntity
100
AcDbBlockBegin
2
*PAPER_SPACE
0
ENDBLK
5
1D
100
AcDbEntity
100
AcDbBlockEnd
0
ENDSEC
0
SECTION
2
ENTITIES
0
LWPOLYLINE
5
100
100
AcDbEntity
8
0
100
AcDbPolyline
90
4
70
1
43
0.0
10
-33.251883001004657
20
5.0849642410915052
10
-38.251883001004657
20
5.0849642410915052
42
-0.99999999999999989
10
-38.251883001004657
20
7.5849642410915052
10
-33.251883001004657
20
7.5849642410915052
42
-0.99999999999999989
0
ARC
5
101
100
AcDbEntity
8
0
100
AcDbCircle
10
-30.14226016667191
20
17.057655272370912
30
0
40
2.0000000000000053
210
0
220
0
230
1
100
AcDbArc
50
269.99644865004063
51
270.07484931317151
0
LINE
5
102
100
AcDbEntity
8
0
100
AcDbLine
10
-30.550129474314431
20
25.059120671996826
30
0
11
-30.550129474314431
21
25.50000037997961
31
0
0
CIRCLE
5
103
100
AcDbEntity
8
0
100
AcDbCircle
10
24.5
20
24.5
30
0
40
1.4750000000000001
210
0
220
0
230
1
0
LWPOLYLINE
5
104
100
AcDbEntity
8
0
100
AcDbPolyline
90
6
70
1
43
0.0
10
-7.7962504223632214
20
4.0712320026035922
10
-4.506563660868375
20
0.78090918110909457
42
-0.41421356237308599
10
-4.5067167712281675
20
-0.80301000134852085
10
-7.7968127247632415
20
-4.0924699387403756
42
-0.47151663987950654
10
-9.5170447562396472
20
-3.9269863780646386
42
-0.30591575937633786
10
-9.5165576272938921
20
3.9060170141768351
42
-0.4715377106737203
0
LWPOLYLINE
5
105
100
AcDbEntity
8
0
100
AcDbPolyline
90
8
70
1
43
0.0
10
-38.253735895396858
20
10.865112840290161
42
-0.99999999999999989
10
-39.853735895396824
20
10.86511284029017
10
-41.853735895396795
20
10.865112840290172
42
-0.99999999999999989
10
-43.453735895396797
20
10.865112840290172
10
-43.453735895396775
20
13.065112840290112
42
-0.99999999999999989
10
-41.853735895396795
20
13.065112840290134
10
-39.853735895396838
20
13.065112840290132
42
-0.99999999999999989
10
-38.253735895396858
20
13.06511284029015
0
LWPOLYLINE
5
106
100
AcDbEntity
8
0
100
AcDbPolyline
90
10
70
1
43
0.0
10
-67.757668307882142
20
4.727228380397233
42
0.28286751654746095
10
-67.787061522404045
20
-4.5024377237549285
42
-0.55100967521663935
10
-68.626177407058236
20
-6.1999706361212166
42
-0.13887347130666675
10
-69.192890348058683
20
-5.9732506871601485
42
0.11139269246511592
10
-70.310604031812176
20
-5.4543120123464019
42
-0.26800567097566158
10
-71.1404755543726
20
-4.7018685010999217
42
-0.15666549932085769
10
-71.13839187611164
20
4.9333950509318445
42
-0.26799416952850591
10
-70.308241984604393
20
5.6854694296334616
42
0.11143357126243236
10
-69.189967913806328
20
6.2042485384711741
42
-0.14232265400499466
10
-68.608122696816324
20
6.432315551102354
42
-0.55751102609839676
0
LINE
5
107
100
AcDbEntity
8
0
100
AcDbLine
10
30.13111810796465
20
22.111052520594559
30
0
11
23.91388791436669
21
11.401365400557516
31
0
0
ARC
5
108
100
AcDbEntity
8
0
100
AcDbCircle
10
24.446804449975794
20
24.446779073640151
30
0
40
6.145500000000407
210
0
220
0
230
1
100
AcDbArc
50
-0.017344621297012173
51
124.58656085932471
0
CIRCLE
5
109
100
AcDbEntity
8
0
100
AcDbCircle
10
-15.25
20
15.250000000000005
30
0
40
3.0499999999999994
210
0
220
0
230
1
0
LWPOLYLINE
5
110
100
AcDbEntity
8
0
100
AcDbPolyline
90
6
70
1
43
0.0
10
8.3670780917843111
20
-4.0929230377960799
10
5.0773913302894647
20
-0.80260021630158351
42
-0.41421356237308532
10
5.0775444406492563
20
0.78131896615603214
10
8.3676403941843311
20
4.0707789035478879
42
-0.47151663987950682
10
10.087872425660738
20
3.9052953428721526
42
-0.30591575937633814
10
10.087385296714986
20
-3.9277080493693219
42
-0.47153771067372163
0
CIRCLE
5
111
100
AcDbEntity
8
0
100
AcDbCircle
10
24.5
20
-24.5
30
0
40
1.4750000000000001
210
0
220
0
230
1
0
LINE
5
112
100
AcDbEntity
8
0
100
AcDbLine
10
23.91114581869731
20
-11.403268248773944
30
0
11
30.109231983154523
21
-22.107632151283809
31
0
0
ARC
5
113
100
AcDbEntity
8
0
100
AcDbCircle
10
-36.796560381768842
20
19.150591323039734
30
0
40
2.999999999999956
210
0
220
0
230
1
100
AcDbArc
50
269.9999999999996
51
302.42696880557401
0
LWPOLYLINE
5
114
100
AcDbEntity
8
0
100
AcDbPolyline
90
6
70
1
43
0.0
10
-18.33001462597931
20
6.3773661591123876
10
-23.403037090083476
20
8.708322031688045
42
0.80283896565005242
10
-24.818478357068724
20
6.8408519983312317
10
-21.271777307482765
20
2.6672312892453878
42
0.4507757130167519
10
-19.254737220351416
20
2.7571664186836924
10
-17.880139308609667
20
4.4596530080489112
42
0.48902819352817989
0
CIRCLE
5
115
100
AcDbEntity
8
0
100
AcDbCircle
10
-33.251883001004657
20
11.934964241091508
30
0
40
1.5000000000000002
210
0
220
0
230
1
0
ARC
5
116
100
AcDbEntity
8
0
100
AcDbCircle
10
-56.652451963100717
20
0.029408710095514826
30
0
40
28.166106516924437
210
0
220
0
230
1
100
AcDbArc
50
152.28411588284331
51
207.69386134627246
0
LWPOLYLINE
5
117
100
AcDbEntity
8
0
100
AcDbPolyline
90
6
70
1
43
0.0
10
-50.921426094750153
20
-4.0850252108232858
42
-0.30591604687870544
10
-51.004631537489999
20
3.7471679093078283
42
-0.47152701455802942
10
-49.286215795775092
20
3.9307816486982095
10
-45.961748399369249
20
0.67620682419388001
42
-0.41421356237309137
10
-45.944922555167921
20
-0.90762299335814756
10
-49.199497379672259
20
-4.2320903897639601
42
-0.47152701455803603
0
LWPOLYLINE
5
118
100
AcDbEntity
8
0
100
AcDbPolyline
90
6
70
1
43
0.0
10
-64.137044756239661
20
-3.9269863780646448
42
-0.30591575937633747
10
-64.136557627293911
20
3.9060170141768324
42
-0.47153771067372602
10
-62.41625042236322
20
4.0712320026035922
10
-59.126563660868371
20
0.78090918110909302
42
-0.41421356237307916
10
-59.126716771228168
20
-0.80301000134852085
10
-62.41681272476324
20
-4.0924699387403809
42
-0.47151663987950287
0
LWPOLYLINE
5
119
100
AcDbEntity
8
0
100
AcDbPolyline
90
6
70
1
43
0.0
10
-60.711734558862467
20
5.6792654411024204
42
-0.47152701455804302
10
-60.546385769926445
20
7.3995347353304926
42
-0.30591604687870372
10
-52.71375069501515
20
7.3995347353304961
42
-0.47152701455803236
10
-52.548401906079121
20
5.6792654411024124
10
-55.838108637541872
20
2.3895587096396484
42
-0.41421356237309515
10
-57.422027827399731
20
2.3895587096396707
0
LWPOLYLINE
5
120
100
AcDbEntity
8
0
100
AcDbPolyline
90
4
70
1
43
0.0
10
-38.256768038716459
20
-7.4762407221211671
42
-0.99999999999999989
10
-38.256768038716075
20
-4.9762407221196456
10
-33.256768038716075
20
-4.976240722120405
42
-0.99999999999999989
10
-33.256768038716466
20
-7.476240722120405
0
ARC
5
121
100
AcDbEntity
8
0
100
AcDbCircle
10
-36.819121270616385
20
-19.083258765966566
30
0
40
3.0000000000000222
210
0
220
-0
230
1
100
AcDbArc
50
60.332725566442271
51
90
0
ARC
5
122
100
AcDbEntity
8
0
100
AcDbCircle
10
-24.43231794214455
20
-24.460562366246812
30
0
40
6.1456244477477302
210
0
220
0
230
1
100
AcDbArc
50
174.54692080600003
51
304.83526654888442
0
LWPOLYLINE
5
123
100
AcDbEntity
8
0
100
AcDbPolyline
90
6
70
1
43
0.0
10
-60.634918628007966
20
-7.4002412539814753
42
-0.47152701455804141
10
-60.800267416943981
20
-5.6799719597533924
10
-57.510560685481252
20
-2.3902652282906489
42
-0.41421356237309537
10
-55.9266414956234
20
-2.3902652282906667
10
-52.636934764160699
20
-5.6799719597533969
42
-0.4715270145580488
10
-52.802283553096728
20
-7.400241253981477
42
-0.30591604687870427
0
LWPOLYLINE
5
124
100
AcDbEntity
8
0
100
AcDbPolyline
90
8
70
1
43
0.0
10
-43.453735895396775
20
-10.93488715970989
42
-0.99999999999999989
10
-41.853735895396795
20
-10.934887159709863
10
-39.853735895396838
20
-10.934887159709861
42
-0.99999999999999989
10
-38.253735895396858
20
-10.934887159709861
10
-38.253735895396858
20
-13.134887159709844
42
-0.99999999999999989
10
-39.853735895396824
20
-13.134887159709836
10
-41.853735895396795
20
-13.13488715970983
42
-0.99999999999999989
10
-43.453735895396797
20
-13.134887159709834
0
LINE
5
125
100
AcDbEntity
8
0
100
AcDbLine
10
-35.187887913535036
20
-16.55987921349179
30
0
11
-35.334233913569456
21
-16.47651567603954
31
0
0
ARC
5
126
100
AcDbEntity
8
0
100
AcDbCircle
10
-24.446701766552632
20
24.446856091086197
30
0
40
6.145500000000002
210
0
220
-0
230
1
100
AcDbArc
50
55.413240989564549
51
173.29181264405972
0
CIRCLE
5
127
100
AcDbEntity
8
0
100
AcDbCircle
10
0
20
0
30
0
40
1.4750000000000001
210
0
220
0
230
1
0
CIRCLE
5
128
100
AcDbEntity
8
0
100
AcDbCircle
10
-10
20
10
30
0
40
1.4750000000000001
210
0
220
0
230
1
0
LINE
5
129
100
AcDbEntity
8
0
100
AcDbLine
10
-11.352998429901342
20
22.883346705733256
30
0
11
-20.958187157648844
21
29.506246970773677
31
0
0
LINE
5
130
100
AcDbEntity
8
0
100
AcDbLine
10
11.424376702977142
20
-22.895347513861736
30
0
11
20.921565382923397
21
-29.504762193033535
31
0
0
CIRCLE
5
131
100
AcDbEntity
8
0
100
AcDbCircle
10
15.25
20
15.250000000000005
30
0
40
3.0499999999999994
210
0
220
0
230
1
0
LWPOLYLINE
5
132
100
AcDbEntity
8
0
100
AcDbPolyline
90
6
70
1
43
0.0
10
4.0715980939208771
20
7.6792654411024142
10
0.78189136245813806
20
4.3895587096396529
42
-0.41421356237309748
10
-0.80202782739973333
20
4.3895587096396724
10
-4.0917345588624698
20
7.6792654411024195
42
-0.47152701455803825
10
-3.9263857699264282
20
9.3995347353304943
42
-0.30591604687870505
10
3.906249304984855
20
9.3995347353304997
42
-0.47152701455803564
0
CIRCLE
5
133
100
AcDbEntity
8
0
100
AcDbCircle
10
-15.25
20
-15.250000000000005
30
0
40
3.0499999999999998
210
0
220
0
230
1
0
LWPOLYLINE
5
134
100
AcDbEntity
8
0
100
AcDbPolyline
90
8
70
1
43
0.0
10
-71.653735895396821
20
13.065112840290125
10
-69.653735895396849
20
13.065112840290132
42
-0.99999999999999989
10
-68.053735895396827
20
13.06511284029015
10
-68.053735895396855
20
10.865112840290161
42
-0.99999999999999989
10
-69.653735895396821
20
10.86511284029017
10
-71.653735895396807
20
10.865112840290163
42
-0.99999999999999989
10
-73.253735895396787
20
10.86511284029015
10
-73.253735895396815
20
13.065112840290112
42
-0.99999999999999989
0
CIRCLE
5
135
100
AcDbEntity
8
0
100
AcDbCircle
10
-10
20
-10
30
0
40
1.4750000000000001
210
0
220
0
230
1
0
ARC
5
136
100
AcDbEntity
8
0
100
AcDbCircle
10
-78.251869873252758
20
12.900591323039761
30
0
40
3.2500000000000173
210
0
220
-0
230
1
100
AcDbArc
50
90
51
168.43095470989698
0
LWPOLYLINE
5
137
100
AcDbEntity
8
0
100
AcDbPolyline
90
6
70
1
43
0.0
10
-19.121634051222777
20
-2.74663931731286
10
-17.827788188109512
20
-4.5171631176657261
42
-0.45073597972559254
10
-18.260200563132404
20
-6.4892388397870624
10
-23.177184143005132
20
-8.8376628667056405
42
-0.80346864447474264
10
-24.619066471354074
20
-6.9900287938891337
10
-21.061357493491613
20
-2.6884751033030483
42
-0.48907535790535467
0
LINE
5
138
100
AcDbEntity
8
0
100
AcDbLine
10
-11.424406239322057
20
-22.895328517838092
30
0
11
-20.921821159598228
21
-29.504877205002078
31
0
0
LINE
5
139
100
AcDbEntity
8
0
100
AcDbLine
10
-44.001735895396791
20
16.150591323039773
30
0
11
-36.796560381768863
21
16.150591323039777
31
0
0
CIRCLE
5
140
100
AcDbEntity
8
0
100
AcDbCircle
10
10
20
10
30
0
40
1.4750000000000001
210
0
220
0
230
1
0
ARC
5
141
100
AcDbEntity
8
0
100
AcDbCircle
10
-44.801735895396789
20
16.150591323039773
30
0
40
0.80000000000000071
210
0
220
0
230
1
100
AcDbArc
50
-90
51
0
0
ARC
5
142
100
AcDbEntity
8
0
100
AcDbCircle
10
7.1650332316084271e-05
20
39.348698197678495
30
0
40
20
210
0
220
0
230
1
100
AcDbArc
50
235.41324098956446
51
304.58656085932461
0
CIRCLE
5
143
100
AcDbEntity
8
0
100
AcDbCircle
10
-78.251869873252758
20
12.900591323039761
30
0
40
1.5000000000000002
210
0
220
0
230
1
0
LWPOLYLINE
5
144
100
AcDbEntity
8
0
100
AcDbPolyline
90
8
70
1
43
0.0
10
-71.653735895396821
20
-10.934887159709874
10
-69.653735895396849
20
-10.934887159709879
42
-0.99999999999999989
10
-68.053735895396827
20
-10.93488715970987
10
-68.053735895396855
20
-13.134887159709844
42
-0.99999999999999989
10
-69.653735895396821
20
-13.134887159709836
10
-71.653735895396807
20
-13.134887159709843
42
-0.99999999999999989
10
-73.253735895396787
20
-13.13488715970986
10
-73.253735895396815
20
-10.934887159709888
42
-0.99999999999999989
0
ARC
5
145
100
AcDbEntity
8
0
100
AcDbCircle
10
-66.705765788810254
20
-16.083258765966548
30
0
40
0.80000000000000071
210
0
220
-0
230
1
100
AcDbArc
50
90
51
180
0
LINE
5
146
100
AcDbEntity
8
0
100
AcDbLine
10
-66.705765788810254
20
15.350591323039772
30
0
11
-44.801735895396789
21
15.350591323039772
31
0
0
LINE
5
147
100
AcDbEntity
8
0
100
AcDbLine
10
-44.802263442088858
20
-15.283258765966545
30
0
11
-66.705765788810254
21
-15.283258765966547
31
0
0
LINE
5
148
100
AcDbEntity
8
0
100
AcDbLine
10
11.35308478690262
20
22.883307442495607
30
0
11
20.958307338435915
21
29.506182017939302
31
0
0
LWPOLYLINE
5
149
100
AcDbEntity
8
0
100
AcDbPolyline
90
6
70
1
43
0.0
10
-4.1802674169439866
20
-7.6799719597533933
10
-0.89056068548125655
20
-4.390265228290648
42
-0.41421356237309548
10
0.69335850437659607
20
-4.3902652282906676
10
3.9830652358393066
20
-7.6799719597533933
42
-0.47152701455804835
10
3.8177164469032787
20
-9.4002412539814806
42
-0.30591604687870477
10
-4.0149186280079698
20
-9.4002412539814788
42
-0.47152701455803853
0
ARC
5
150
100
AcDbEntity
8
0
100
AcDbCircle
10
-40.550129474314396
20
-25.000635426287534
30
0
40
9.9999999999999822
210
0
220
0
230
1
100
AcDbArc
50
0
51
57.573031194426179
0
CIRCLE
5
151
100
AcDbEntity
8
0
100
AcDbCircle
10
10
20
-10
30
0
40
1.4750000000000001
210
0
220
0
230
1
0
LINE
5
152
100
AcDbEntity
8
0
100
AcDbLine
10
-36.819121270616385
20
-16.083258765966544
30
0
11
-44.002263442088854
21
-16.083258765966548
31
0
0
ARC
5
153
100
AcDbEntity
8
0
100
AcDbCircle
10
-24.446802745962515
20
24.446802745962501
30
0
40
6.1455000000000002
210
0
220
0
230
-1
100
AcDbArc
50
55.413381454403471
51
202.33832148076581
0
ARC
5
154
100
AcDbEntity
8
0
100
AcDbCircle
10
-40.550129474314438
20
25.059120671996808
30
0
40
10.000000000000004
210
0
220
0
230
1
100
AcDbArc
50
-57.573031194426072
51
0
0
CIRCLE
5
155
100
AcDbEntity
8
0
100
AcDbCircle
10
-24.5
20
24.5
30
0
40
1.4750000000000001
210
0
220
0
230
1
0
ARC
5
156
100
AcDbEntity
8
0
100
AcDbCircle
10
24.431999465876562
20
-24.460555337715167
30
0
40
6.1455000000000028
210
0
220
0
230
1
100
AcDbArc
50
235.16463818197323
51
359.99999019088762
0
ARC
5
157
100
AcDbEntity
8
0
100
AcDbCircle
10
-24.432000000007172
20
-24.46054678201925
30
0
40
6.1455000000000055
210
0
220
0
230
-1
100
AcDbArc
50
157.48855998047486
51
304.8353448082612
0
ARC
5
158
100
AcDbEntity
8
0
100
AcDbCircle
10
40.343803037936922
20
-0.0029271698862742834
30
0
40
20.000000000000032
210
0
220
0
230
1
100
AcDbArc
50
145.23480619117933
51
214.75141498557494
0
LINE
5
159
100
AcDbEntity
8
0
100
AcDbLine
10
30.577499465876471
20
-24.460556391623413
30
0
11
30.57749986243179
21
-24.459246420925432
31
0
0
LINE
5
160
100
AcDbEntity
8
0
100
AcDbLine
10
-67.505765788810251
20
-16.083258765966548
30
0
11
-78.256858894594941
21
-16.083258765966562
31
0
0
ARC
5
161
100
AcDbEntity
8
0
100
AcDbCircle
10
-78.256858894594941
20
-12.833258765966482
30
0
40
3.2500000000000817
210
0
220
0
230
1
100
AcDbArc
50
191.5495789952069
51
270
0
ARC
5
162
100
AcDbEntity
8
0
100
AcDbCircle
10
-66.705765788810254
20
16.150591323039773
30
0
40
0.80000000000000071
210
0
220
0
230
1
100
AcDbArc
50
180
51
270
0
CIRCLE
5
163
100
AcDbEntity
8
0
100
AcDbCircle
10
15.260029748554489
20
-15.268251427013064
30
0
40
3.0499999999999998
210
0
220
0
230
1
0
ARC
5
164
100
AcDbEntity
8
0
100
AcDbCircle
10
-44.802263442088858
20
-16.083258765966548
30
0
40
0.80000000000000071
210
0
220
0
230
1
100
AcDbArc
50
0
51
90
0
CIRCLE
5
165
100
AcDbEntity
8
0
100
AcDbCircle
10
-78.256858894594941
20
-12.833258765966482
30
0
40
1.5000000000000002
210
0
220
0
230
1
0
LWPOLYLINE
5
166
100
AcDbEntity
8
0
100
AcDbPolyline
90
4
70
1
43
0.0
10
-76.692554135388377
20
7.570316873161584
10
-77.387146846056112
20
3.6310858611127528
42
-0.99999999999999989
10
-79.849166228586625
20
4.0652063052800802
10
-79.154573517918905
20
8.0044373173289092
42
-0.99999999999999989
0
ARC
5
167
100
AcDbEntity
8
0
100
AcDbCircle
10
-2.8416063309357452e-05
20
-39.311283907380115
30
0
40
19.999999999999975
210
0
220
-0
230
1
100
AcDbArc
50
55.164638181973231
51
124.83526654888414
0
LINE
5
168
100
AcDbEntity
8
0
100
AcDbLine
10
-78.251869873252758
20
16.150591323039777
30
0
11
-67.505765788810251
21
16.150591323039777
31
0
0
LINE
5
169
100
AcDbEntity
8
0
100
AcDbLine
10
-30.550129474314414
20
-25.044584548705746
30
0
11
-30.550129474314414
21
-25.000635426287534
31
0
0
ARC
5
170
100
AcDbEntity
8
0
100
AcDbCircle
10
-83.008655228229472
20
-13.804305419676277
30
0
40
1.6000000000023462
210
0
220
-0
230
1
100
AcDbArc
50
11.549578995221191
51
27.693861346263414
0
CIRCLE
5
171
100
AcDbEntity
8
0
100
AcDbCircle
10
-33.256768038717127
20
-11.826240722120405
30
0
40
1.5000000000000002
210
0
220
0
230
1
0
ARC
5
172
100
AcDbEntity
8
0
100
AcDbCircle
10
-83.003336018627522
20
13.873252347940152
30
0
40
1.6000000000002768
210
0
220
0
230
1
100
AcDbArc
50
332.28411588284592
51
348.43095470989692
0
LINE
5
173
100
AcDbEntity
8
0
100
AcDbLine
10
-30.100379003450044
20
-15.001590524455281
30
0
11
-30.098260215882249
21
-15.001590718105755
31
0
0
CIRCLE
5
174
100
AcDbEntity
8
0
100
AcDbCircle
10
-24.5
20
-24.5
30
0
40
1.4750000000000001
210
0
220
0
230
1
0
LWPOLYLINE
5
175
100
AcDbEntity
8
0
100
AcDbPolyline
90
4
70
1
43
0.0
10
-79.84916622858664
20
-3.9955626826710655
42
-0.99999999999999989
10
-77.387146846056098
20
-3.5614422385037403
10
-76.692554135388392
20
-7.5006732505525679
42
-0.99999999999999989
10
-79.154573517918905
20
-7.934793694719902
0
ENDSEC
0
SECTION
2
OBJECTS
0
DICTIONARY
5
C
100
AcDbDictionary
3
ACAD_GROUP
350
D
3
ACAD_MLINESTYLE
350
17
0
DICTIONARY
5
D
100
AcDbDictionary
0
DICTIONARY
5
1A
330
C
100
AcDbDictionary
0
DICTIONARY
5
17
100
AcDbDictionary
0
ENDSEC
0
EOF
