0
SECTION
2
HEADER
9
$INSUNITS
70
4
9
$ACADVER
1
AC1014
9
$HANDSEED
5
FFFF
0
ENDSEC
0
SECTION
2
TABLES
0
TABLE
2
VPORT
5
8
100
AcDbSymbolTable
0
ENDTAB
0
TABLE
2
LTYPE
5
5
100
AcDbSymbolTable
0
LTYPE
5
14
100
AcDbSymbolTableRecord
100
AcDbLinetypeTableRecord
2
BYBLOCK
70
0
0
LTYPE
5
15
100
AcDbSymbolTableRecord
100
AcDbLinetypeTableRecord
2
BYLAYER
70
0
0
ENDTAB
0
TABLE
2
LAYER
5
2
100
AcDbSymbolTable
70
2
0
LAYER
5
50
100
AcDbSymbolTableRecord
100
AcDbLayerTableRecord
2
0
70
0
6
CONTINUOUS
0
ENDTAB
0
TABLE
2
STYLE
5
3
100
AcDbSymbolTable
70
1
0
STYLE
5
11
100
AcDbSymbolTableRecord
100
AcDbTextStyleTableRecord
2
STANDARD
70
0
0
ENDTAB
0
TABLE
2
VIEW
5
6
100
AcDbSymbolTable
70
0
0
ENDTAB
0
TABLE
2
UCS
5
7
100
AcDbSymbolTable
70
0
0
ENDTAB
0
TABLE
2
APPID
5
9
100
AcDbSymbolTable
70
2
0
APPID
5
12
100
AcDbSymbolTableRecord
100
AcDbRegAppTableRecord
2
ACAD
70
0
0
ENDTAB
0
TABLE
2
DIMSTYLE
5
A
100
AcDbSymbolTable
70
1
0
ENDTAB
0
TABLE
2
BLOCK_RECORD
5
1
100
AcDbSymbolTable
70
1
0
BLOCK_RECORD
5
1F
100
AcDbSymbolTableRecord
100
AcDbBlockTableRecord
2
*MODEL_SPACE
0
BLOCK_RECORD
5
1B
100
AcDbSymbolTableRecord
100
AcDbBlockTableRecord
2
*PAPER_SPACE
0
ENDTAB
0
ENDSEC
0
SECTION
2
BLOCKS
0
BLOCK
5
20
100
AcDbEntity
100
AcDbBlockBegin
2
*MODEL_SPACE
0
ENDBLK
5
21
100
AcDbEntity
100
AcDbBlockEnd
0
BLOCK
5
1C
100
AcDbEntity
100
AcDbBlockBegin
2
*PAPER_SPACE
0
ENDBLK
5
1D
100
AcDbEntity
100
AcDbBlockEnd
0
ENDSEC
0
SECTION
2
ENTITIES
0
LWPOLYLINE
5
100
100
AcDbEntity
8
0
100
AcDbPolyline
90
6
70
1
43
0.0
10
-95.705062860871166
20
-100.71298188121928
42
0.64322161401434896
10
-98.354757307255966
20
-101.92051720957566
10
-98.354757307255937
20
-104.06904818815802
42
0.45572625553258095
10
-96.532080345719862
20
-105.65347709814458
10
-94.4044587229277
20
-105.35445937934642
42
0.64322161401434674
10
-93.577441238078919
20
-102.56249514100354
0
CIRCLE
5
101
100
AcDbEntity
8
0
100
AcDbCircle
10
-24.5
20
-24.5
30
0
40
1.4750000000000001
210
0
220
0
230
1
0
LINE
5
102
100
AcDbEntity
8
0
100
AcDbLine
10
-97.04834243285768
20
-93.011880045384572
30
0
11
-95.556835539623819
21
-92.852483940834688
31
0
0
LINE
5
103
100
AcDbEntity
8
0
100
AcDbLine
10
-87.96913781415391
20
-103.15451494042163
30
0
11
-88.128533918703795
21
-101.66300804718789
31
0
0
LINE
5
104
100
AcDbEntity
8
0
100
AcDbLine
10
-11.42440623932205
20
-22.895328517838127
30
0
11
-20.581159493198182
21
-29.267800075191253
31
0
0
ARC
5
105
100
AcDbEntity
8
0
100
AcDbCircle
10
-79.482719122921793
20
-92.693482612861516
30
0
40
1.5500000000000154
210
0
220
0
230
1
100
AcDbArc
50
96.099999146225102
51
276.09999914622779
0
LINE
5
106
100
AcDbEntity
8
0
100
AcDbLine
10
-85.299308154210024
20
-107.86076539897545
30
0
11
-99.57453533366548
21
-109.71762422549132
31
0
0
ARC
5
107
100
AcDbEntity
8
0
100
AcDbCircle
10
-96.883633145252588
20
-94.55310386124539
30
0
40
4.9999999999999947
210
0
220
0
230
1
100
AcDbArc
50
139.41644656522303
51
184.6957235147618
0
ARC
5
108
100
AcDbEntity
8
0
100
AcDbCircle
10
-100.02597767129873
20
-107.76924032702773
30
0
40
2.0000000000000648
210
0
220
0
230
1
100
AcDbArc
50
175.34270397779156
51
283.04528909669426
0
ARC
5
109
100
AcDbEntity
8
0
100
AcDbCircle
10
-83.594400964812991
20
-67.762229567510929
30
0
40
9.9999999999998899
210
0
220
0
230
1
100
AcDbArc
50
281.78319262484411
51
319.64592335382201
0
LINE
5
110
100
AcDbEntity
8
0
100
AcDbLine
10
-95.227416941447544
20
-95.934931570101938
30
0
11
-96.718923834681419
21
-96.094327674651908
31
0
0
ARC
5
111
100
AcDbEntity
8
0
100
AcDbCircle
10
-88.446931353681435
20
-84.097384714286079
30
0
40
4.9999999999999947
210
0
220
0
230
1
100
AcDbArc
50
101.78319262484477
51
139.07282213756153
0
LINE
5
112
100
AcDbEntity
8
0
100
AcDbLine
10
-81.703327860177083
20
-77.583005541111859
30
0
11
-81.552311983435445
21
-77.551502910927908
31
0
0
LINE
5
113
100
AcDbEntity
8
0
100
AcDbLine
10
-67.045738375327929
20
-63.729803990733288
30
0
11
-74.759119825924373
21
-72.807728285716308
31
0
0
LINE
5
114
100
AcDbEntity
8
0
100
AcDbLine
10
-59.969872090633672
20
-70.916766884611832
30
0
11
-68.502436614853835
21
-79.965864402570531
31
0
0
ARC
5
115
100
AcDbEntity
8
0
100
AcDbCircle
10
-96.883633145252588
20
-94.55310386124539
30
0
40
1.5499999999999976
210
0
220
0
230
1
100
AcDbArc
50
96.099999146224746
51
276.10000062500586
0
ARC
5
116
100
AcDbEntity
8
0
100
AcDbCircle
10
-95.392126229052735
20
-94.393707754241177
30
0
40
1.5499999999999363
210
0
220
0
230
1
100
AcDbArc
50
-83.900000853771374
51
96.09999914622658
0
ARC
5
117
100
AcDbEntity
8
0
100
AcDbCircle
10
-86.587310105297377
20
-101.49829873661668
30
0
40
1.549999999999963
210
0
220
-0
230
1
100
AcDbArc
50
6.0999999999977694
51
186.10000000000201
0
ARC
5
118
100
AcDbEntity
8
0
100
AcDbCircle
10
-69.520222339103768
20
-108.09460049523938
30
0
40
13.209056309317296
210
0
220
0
230
1
100
AcDbArc
50
110.45450631436901
51
171.7417665706607
0
CIRCLE
5
119
100
AcDbEntity
8
0
100
AcDbCircle
10
-10
20
-10
30
0
40
1.4750000000000001
210
0
220
0
230
1
0
ARC
5
120
100
AcDbEntity
8
0
100
AcDbCircle
10
-88.287535246676967
20
-85.588891630485875
30
0
40
1.5500000000000038
210
0
220
0
230
1
100
AcDbArc
50
-173.90000000000032
51
6.0999991462289858
0
LINE
5
121
100
AcDbEntity
8
0
100
AcDbLine
10
-68.502436614853835
20
-79.965864402570531
30
0
11
-69.867011740540732
21
-81.413046354476137
31
0
0
LINE
5
122
100
AcDbEntity
8
0
100
AcDbLine
10
-1.45
20
1.7757378587636619e-16
30
0
11
-12.87026898977693
21
0
31
0
0
LINE
5
123
100
AcDbEntity
8
0
100
AcDbLine
10
0.011579703307446941
20
0
30
0
11
0.011579703307446941
21
0.00067940925662757212
31
0
0
LINE
5
124
100
AcDbEntity
8
0
100
AcDbLine
10
-85.046086291890944
20
-101.33358942604558
30
0
11
-84.886690184886575
21
-102.8250963422453
31
0
0
ARC
5
125
100
AcDbEntity
8
0
100
AcDbCircle
10
-86.427913998293064
20
-102.98980565281647
30
0
40
1.5500000000000211
210
0
220
0
230
1
100
AcDbArc
50
-173.90000085377278
51
6.0999991462298837
0
LINE
5
126
100
AcDbEntity
8
0
100
AcDbLine
10
-89.828759060083442
20
-85.75360094105703
30
0
11
-89.988155167087882
21
-84.262094024857248
31
0
0
LINE
5
127
100
AcDbEntity
8
0
100
AcDbLine
10
-28.904272863709224
20
-18.840887419985066
30
0
11
-12.87026898977693
21
0
31
0
0
LINE
5
128
100
AcDbEntity
8
0
100
AcDbLine
10
-82.662278677488473
20
-77.783047242780299
30
0
11
-81.703327860177083
21
-77.583005541111859
31
0
0
LINE
5
129
100
AcDbEntity
8
0
100
AcDbLine
10
-86.90570754027496
20
-83.932675403714853
30
0
11
-86.746311433270563
21
-85.424182319914649
31
0
0
LINE
5
130
100
AcDbEntity
8
0
100
AcDbLine
10
-21.206551930994593
20
-29.806844627506244
30
0
11
-59.969872090633672
21
-70.916766884611832
31
0
0
LINE
5
131
100
AcDbEntity
8
0
100
AcDbLine
10
-28.904272863709224
20
-18.840887419985066
30
0
11
-67.045738375327929
21
-63.729803990733288
31
0
0
LINE
5
132
100
AcDbEntity
8
0
100
AcDbLine
10
-101.85552727574182
20
-94.023699710140562
30
0
11
-102.01937403292271
21
-107.60684899270058
31
0
0
ARC
5
133
100
AcDbEntity
8
0
100
AcDbCircle
10
-105.11239467300226
20
-79.072649947732032
30
0
40
13.005918495063913
210
0
220
0
230
1
100
AcDbArc
50
289.9211896226401
51
352.27054794348209
0
ARC
5
134
100
AcDbEntity
8
0
100
AcDbCircle
10
-86.427913998293064
20
-102.98980565281647
30
0
40
4.9999999999999591
210
0
220
0
230
1
100
AcDbArc
50
271.77705490516036
51
320.09602550183308
0
LINE
5
135
100
AcDbEntity
8
0
100
AcDbLine
10
-96.109757320321947
20
-102.82159779143109
30
0
11
-96.10983233142889
21
-102.8215316602445
31
0
0
ARC
5
136
100
AcDbEntity
8
0
100
AcDbCircle
10
-2.8416063309357452e-05
20
-39.311283907380115
30
0
40
19.999999999999972
210
0
220
-0
230
1
100
AcDbArc
50
89.99991859397511
51
124.83526654888415
0
LINE
5
137
100
AcDbEntity
8
0
100
AcDbLine
10
0
20
-1.45
30
0
11
0
21
-19.31128390740033
31
0
0
LINE
5
138
100
AcDbEntity
8
0
100
AcDbLine
10
-72.565746410637416
20
-87.551496246971183
30
0
11
-72.558717735955881
21
-87.466188667811082
31
0
0
LINE
5
139
100
AcDbEntity
8
0
100
AcDbLine
10
-89.467975844370272
20
-79.202748042577554
30
0
11
-82.662278677488473
21
-77.783047242780299
31
0
0
ARC
5
140
100
AcDbEntity
8
0
100
AcDbCircle
10
-88.446931353681435
20
-84.097384714286079
30
0
40
1.5500000000000096
210
0
220
-0
230
1
100
AcDbArc
50
6.1000000000023187
51
186.10000000000034
0
CIRCLE
5
141
100
AcDbEntity
8
0
100
AcDbCircle
10
-87.437422675987307
20
-93.543595183551233
30
0
40
4.0000000000000044
210
0
220
0
230
1
0
LINE
5
142
100
AcDbEntity
8
0
100
AcDbLine
10
-77.826502896150842
20
-94.075310319263622
30
0
11
-79.318009812350653
21
-94.234706426267962
31
0
0
LINE
5
143
100
AcDbEntity
8
0
100
AcDbLine
10
-72.558717735955881
20
-87.466188667811082
30
0
11
-72.557571244649523
21
-87.452273612369567
31
0
0
ARC
5
144
100
AcDbEntity
8
0
100
AcDbCircle
10
-77.991212206722025
20
-92.534086505857189
30
0
40
4.9999999999999662
210
0
220
0
230
1
100
AcDbArc
50
320.44208701855507
51
356.90900509233666
0
ARC
5
145
100
AcDbEntity
8
0
100
AcDbCircle
10
-18.296283928546295
20
-32.550991153099808
30
0
40
4.0000000000002069
210
0
220
0
230
1
100
AcDbArc
50
124.83526654888452
51
136.68281303732567
0
LINE
5
146
100
AcDbEntity
8
0
100
AcDbLine
10
-74.759119825924373
20
-72.807728285716308
30
0
11
-75.973825566175861
21
-74.237322662879095
31
0
0
LINE
5
147
100
AcDbEntity
8
0
100
AcDbLine
10
-79.647428410526899
20
-91.152258797000655
30
0
11
-78.155921517293223
21
-90.992862692450714
31
0
0
ARC
5
148
100
AcDbEntity
8
0
100
AcDbCircle
10
0
20
0
30
0
40
1.45
210
0
220
0
230
1
100
AcDbArc
50
180
51
270
0
ARC
5
149
100
AcDbEntity
8
0
100
AcDbCircle
10
-62.591341734420496
20
-88.273412668459571
30
0
40
9.9999999999998064
210
0
220
0
230
1
100
AcDbArc
50
136.68281303732567
51
175.28991651374682
0
ARC
5
150
100
AcDbEntity
8
0
100
AcDbCircle
10
-77.991212206722025
20
-92.534086505857189
30
0
40
1.5499999999999705
210
0
220
0
230
1
100
AcDbArc
50
-83.899999999999054
51
96.099999146229024
0
CIRCLE
5
151
100
AcDbEntity
8
0
100
AcDbCircle
10
-15.250000000000002
20
-15.250000000000005
30
0
40
3.0499999999999954
210
0
220
0
230
1
0
LINE
5
152
100
AcDbEntity
8
0
100
AcDbLine
10
-72.565746410637416
20
-87.551496246971183
30
0
11
-72.998486419323157
21
-92.803695874837786
31
0
0
ENDSEC
0
SECTION
2
OBJECTS
0
DICTIONARY
5
C
100
AcDbDictionary
3
ACAD_GROUP
350
D
3
ACAD_MLINESTYLE
350
17
0
DICTIONARY
5
D
100
AcDbDictionary
0
DICTIONARY
5
1A
330
C
100
AcDbDictionary
0
DICTIONARY
5
17
100
AcDbDictionary
0
ENDSEC
0
EOF
