0
SECTION
2
HEADER
9
$INSUNITS
70
4
9
$ACADVER
1
AC1014
9
$HANDSEED
5
FFFF
0
ENDSEC
0
SECTION
2
TABLES
0
TABLE
2
VPORT
5
8
100
AcDbSymbolTable
0
ENDTAB
0
TABLE
2
LTYPE
5
5
100
AcDbSymbolTable
0
LTYPE
5
14
100
AcDbSymbolTableRecord
100
AcDbLinetypeTableRecord
2
BYBLOCK
70
0
0
LTYPE
5
15
100
AcDbSymbolTableRecord
100
AcDbLinetypeTableRecord
2
BYLAYER
70
0
0
ENDTAB
0
TABLE
2
LAYER
5
2
100
AcDbSymbolTable
70
2
0
LAYER
5
50
100
AcDbSymbolTableRecord
100
AcDbLayerTableRecord
2
0
70
0
6
CONTINUOUS
0
ENDTAB
0
TABLE
2
STYLE
5
3
100
AcDbSymbolTable
70
1
0
STYLE
5
11
100
AcDbSymbolTableRecord
100
AcDbTextStyleTableRecord
2
STANDARD
70
0
0
ENDTAB
0
TABLE
2
VIEW
5
6
100
AcDbSymbolTable
70
0
0
ENDTAB
0
TABLE
2
UCS
5
7
100
AcDbSymbolTable
70
0
0
ENDTAB
0
TABLE
2
APPID
5
9
100
AcDbSymbolTable
70
2
0
APPID
5
12
100
AcDbSymbolTableRecord
100
AcDbRegAppTableRecord
2
ACAD
70
0
0
ENDTAB
0
TABLE
2
DIMSTYLE
5
A
100
AcDbSymbolTable
70
1
0
ENDTAB
0
TABLE
2
BLOCK_RECORD
5
1
100
AcDbSymbolTable
70
1
0
BLOCK_RECORD
5
1F
100
AcDbSymbolTableRecord
100
AcDbBlockTableRecord
2
*MODEL_SPACE
0
BLOCK_RECORD
5
1B
100
AcDbSymbolTableRecord
100
AcDbBlockTableRecord
2
*PAPER_SPACE
0
ENDTAB
0
ENDSEC
0
SECTION
2
BLOCKS
0
BLOCK
5
20
100
AcDbEntity
100
AcDbBlockBegin
2
*MODEL_SPACE
0
ENDBLK
5
21
100
AcDbEntity
100
AcDbBlockEnd
0
BLOCK
5
1C
100
AcDbEntity
100
AcDbBlockBegin
2
*PAPER_SPACE
0
ENDBLK
5
1D
100
AcDbEntity
100
AcDbBlockEnd
0
ENDSEC
0
SECTION
2
ENTITIES
0
LWPOLYLINE
5
100
100
AcDbEntity
8
0
100
AcDbPolyline
90
50
70
1
43
0.0
10
10.192444850813896
20
-13.685575057188563
42
-1.0200777329087645
10
11.79181274853452
20
-13.653779395633697
10
11.79181274853452
20
-15.653779395633693
10
16.791812748534525
20
-15.653779395633693
10
16.791812748534525
20
-12.167477449971214
42
0.23286061241122774
10
16.401496881675286
20
-11.374832978725497
42
-0.4924223671753109
10
16.401496881675282
20
-0.55760415964372989
42
0.23286061241122366
10
16.791812748534518
20
0.23504031160198224
10
16.791812748534522
20
5.0000000000000018
10
16.791812748534525
20
18.368514761840537
10
16.791812748534525
20
20.346220604400791
10
11.79181274853452
20
20.346220604400791
10
11.791812748534952
20
18.346220604400781
42
-1.0051396009392259
10
10.192148858385853
20
18.314469037669642
10
7.1921488583858526
20
18.314469037669632
42
0.41421356237309503
10
6.1921488583858517
20
17.314469037669632
10
6.1921488583858491
20
15.053694706014554
42
-0.38495641761451499
10
4.9262221046781152
20
14.611036538162621
42
0.099971028283781974
10
4.5381306131495833
20
14.689415686508768
10
-5.6370805927121612
20
14.689415686508633
42
0.1167849129967851
10
-6.0855330107619574
20
14.583222393098536
42
-0.38423331628922058
10
-7.3767134089816118
20
14.938689475065988
42
-0.14308097881746668
10
-7.4081678129476325
20
15.046357399990502
10
-7.4081678129476325
20
17.314469037669632
42
0.41421356237309503
10
-8.4081678129476334
20
18.314469037669632
10
-11.408167812947635
20
18.314469037669618
42
-0.99965624324356028
10
-13.008167623812705
20
18.315019142982369
10
-13.008167623812705
20
20.315019142982372
10
-18.008167623812703
20
20.315019142982372
10
-18.008167623812703
20
18.315019142982376
10
-18.008167623812703
20
16.847031508966467
42
0.2399203398407504
10
-17.596437505375743
20
16.038366840240428
42
-0.50914814800254593
10
-17.596437505375743
20
5.2766523027419545
42
0.23992033984074818
10
-18.008167623812703
20
4.467987634015909
10
-18.008167623812703
20
-0.074559819006387862
10
-18.008167623812703
20
-13.684980857017628
10
-18.008167623812703
20
-15.684980857017628
10
-13.008167623812705
20
-15.684980857017635
10
-13.008167623812705
20
-13.684980857017626
42
-1.0003714441178033
10
-11.408167844483888
20
-13.685575057188561
10
-8.4081678444838843
20
-13.685575057188563
42
0.41421356237309503
10
-7.4081678444838861
20
-12.685575057188565
10
-7.3977226360329187
20
-11.397830123566454
42
-0.44490335889480137
10
-6.027952256002262
20
-10.822829690379706
42
0.11038891417347819
10
-5.6022162800481103
20
-10.917982256401066
10
4.5349296328055697
20
-10.917982256401055
42
0.093125661924976344
10
4.8978792152507413
20
-10.849791035391084
42
-0.40726481098456652
10
6.1837429700229762
20
-11.396594060505876
10
6.1924448508139012
20
-12.685575057188565
42
0.41421356237309503
10
7.1924448508138994
20
-13.685575057188563
0
LWPOLYLINE
5
101
100
AcDbEntity
8
0
100
AcDbPolyline
90
12
70
1
43
0.0
10
7.7012433524411072
20
11.507032714697678
10
7.6352016250386843
20
10.103646007396287
42
0.42805464863321396
10
8.434317280426793
20
9.2660405647897868
10
9.8670095172660588
20
9.2660405647897868
42
-0.081630372476982502
10
10.123062290059746
20
9.2239567722590969
10
12.414754392642733
20
8.4497364673324142
42
-0.12874994439998444
10
12.753336936846775
20
8.2269920451610634
10
13.126605988754449
20
7.8122486541525422
42
0.68736311329699584
10
14.521241305752179
20
8.3474204394504987
10
14.521241305752181
20
11.469427272091174
42
0.41421356237309825
10
13.72124130575218
20
12.269427272091175
10
8.5003590078292177
20
12.269427272091173
42
0.40050662760994177
0
LWPOLYLINE
5
102
100
AcDbEntity
8
0
100
AcDbPolyline
90
4
70
1
43
0.0
10
-8.1611967650815025
20
-0.30779382419169221
42
-1.0214427229207552
10
-8.1158105302628201
20
-2.6068283307614113
42
-0.25463625799386452
10
-14.348412366597936
20
0.83490832249297708
42
-1.0602387682344003
10
-12.463836277886212
20
2.1465157713233243
42
0.25466085117884413
0
LWPOLYLINE
5
103
100
AcDbEntity
8
0
100
AcDbPolyline
90
14
70
1
43
0.0
10
-5.6897845363230681
20
11.610763117140653
42
-0.41421356237309848
10
-4.8897845363230665
20
12.410763117140654
10
3.5803944234521849
20
12.410763117140654
42
-0.41421356237309687
10
4.3803944234521852
20
11.610763117140653
10
4.3803944234521852
20
9.3580618193647211
42
-0.079098999133888931
10
4.3408482540776294
20
9.10964690136041
10
1.3509990502915219
20
-0.042952702066457599
42
-0.44701668478471646
10
0.27495718002178482
20
-0.55629573907553242
10
-4.9415963942176768
20
0.99653881325621452
42
-0.59209273579603483
10
-6.1062960386578595
20
1.7785585488891786
10
-4.3096561303010699
20
8.6229010569150759
42
0.24091310859364898
10
-4.4658967141109764
20
9.3345853619336356
10
-5.5073287248167091
20
10.599181374933458
42
-0.17395454467502486
10
-5.6897845363230681
20
11.107747177222333
0
LWPOLYLINE
5
104
100
AcDbEntity
8
0
100
AcDbPolyline
90
12
70
1
43
0.0
10
-4.9477713498133156
20
-2.787346110186057
42
-0.57517914836351403
10
-3.752296650803161
20
-2.0919327349603356
10
5.7489820919028602
20
-7.4952158538155178
42
-0.76786217044983596
10
5.4750309850706191
20
-9.0165062312124569
10
-14.500625490329941
20
-9.0165062312124604
42
-0.41507321775177702
10
-15.300621999687527
20
-8.2141588639893666
10
-15.300621999687529
20
-3.285297314133873
42
-0.57586700140227265
10
-14.103710849002056
20
-2.590702800434308
10
-11.527677939327914
20
-4.062721605962385
42
0.13052020391575936
10
-11.13076678864245
20
-4.168127092262818
10
-5.7477713498133145
20
-4.1681270922628189
42
0.41421356237309548
10
-4.9477713498133147
20
-3.3681270922628181
0
CIRCLE
5
105
100
AcDbEntity
8
0
100
AcDbCircle
10
11.144421791953139
20
-4.161227491493066
30
0
40
1.0499999999999994
210
0
220
0
230
1
0
CIRCLE
5
106
100
AcDbEntity
8
0
100
AcDbCircle
10
-8.0721375227774583
20
4.8364009072308525
30
0
40
1.05
210
0
220
0
230
1
0
CIRCLE
5
107
100
AcDbEntity
8
0
100
AcDbCircle
10
7.1444217919531283
20
2.138772508506932
30
0
40
1.1499999999999997
210
0
220
0
230
1
0
CIRCLE
5
108
100
AcDbEntity
8
0
100
AcDbCircle
10
7.1444217919531372
20
-4.161227491493066
30
0
40
1.0499999999999994
210
0
220
0
230
1
0
CIRCLE
5
109
100
AcDbEntity
8
0
100
AcDbCircle
10
-12.072137522777455
20
4.8364009072308525
30
0
40
1.05
210
0
220
0
230
1
0
CIRCLE
5
110
100
AcDbEntity
8
0
100
AcDbCircle
10
9.8069168409195395
20
1.5485115668378269
30
0
40
1.1499999999999977
210
0
220
0
230
1
0
ENDSEC
0
SECTION
2
OBJECTS
0
DICTIONARY
5
C
100
AcDbDictionary
3
ACAD_GROUP
350
D
3
ACAD_MLINESTYLE
350
17
0
DICTIONARY
5
D
100
AcDbDictionary
0
DICTIONARY
5
1A
330
C
100
AcDbDictionary
0
DICTIONARY
5
17
100
AcDbDictionary
0
ENDSEC
0
EOF
