0
SECTION
2
HEADER
9
$INSUNITS
70
4
9
$ACADVER
1
AC1014
9
$HANDSEED
5
FFFF
0
ENDSEC
0
SECTION
2
TABLES
0
TABLE
2
VPORT
5
8
100
AcDbSymbolTable
0
ENDTAB
0
TABLE
2
LTYPE
5
5
100
AcDbSymbolTable
0
LTYPE
5
14
100
AcDbSymbolTableRecord
100
AcDbLinetypeTableRecord
2
BYBLOCK
70
0
0
LTYPE
5
15
100
AcDbSymbolTableRecord
100
AcDbLinetypeTableRecord
2
BYLAYER
70
0
0
ENDTAB
0
TABLE
2
LAYER
5
2
100
AcDbSymbolTable
70
2
0
LAYER
5
50
100
AcDbSymbolTableRecord
100
AcDbLayerTableRecord
2
0
70
0
6
CONTINUOUS
0
ENDTAB
0
TABLE
2
STYLE
5
3
100
AcDbSymbolTable
70
1
0
STYLE
5
11
100
AcDbSymbolTableRecord
100
AcDbTextStyleTableRecord
2
STANDARD
70
0
0
ENDTAB
0
TABLE
2
VIEW
5
6
100
AcDbSymbolTable
70
0
0
ENDTAB
0
TABLE
2
UCS
5
7
100
AcDbSymbolTable
70
0
0
ENDTAB
0
TABLE
2
APPID
5
9
100
AcDbSymbolTable
70
2
0
APPID
5
12
100
AcDbSymbolTableRecord
100
AcDbRegAppTableRecord
2
ACAD
70
0
0
ENDTAB
0
TABLE
2
DIMSTYLE
5
A
100
AcDbSymbolTable
70
1
0
ENDTAB
0
TABLE
2
BLOCK_RECORD
5
1
100
AcDbSymbolTable
70
1
0
BLOCK_RECORD
5
1F
100
AcDbSymbolTableRecord
100
AcDbBlockTableRecord
2
*MODEL_SPACE
0
BLOCK_RECORD
5
1B
100
AcDbSymbolTableRecord
100
AcDbBlockTableRecord
2
*PAPER_SPACE
0
ENDTAB
0
ENDSEC
0
SECTION
2
BLOCKS
0
BLOCK
5
20
100
AcDbEntity
100
AcDbBlockBegin
2
*MODEL_SPACE
0
ENDBLK
5
21
100
AcDbEntity
100
AcDbBlockEnd
0
BLOCK
5
1C
100
AcDbEntity
100
AcDbBlockBegin
2
*PAPER_SPACE
0
ENDBLK
5
1D
100
AcDbEntity
100
AcDbBlockEnd
0
ENDSEC
0
SECTION
2
ENTITIES
0
LINE
5
100
100
AcDbEntity
8
0
100
AcDbLine
10
-67.045738375327929
20
-63.729803990733288
30
0
11
-74.759119825924373
21
-72.807728285716308
31
0
0
LINE
5
101
100
AcDbEntity
8
0
100
AcDbLine
10
-59.969872090633672
20
-70.916766884611832
30
0
11
-68.502436614853835
21
-79.965864402570531
31
0
0
LINE
5
102
100
AcDbEntity
8
0
100
AcDbLine
10
-28.904272863709224
20
-18.840887419985066
30
0
11
-67.045738375327929
21
-63.729803990733288
31
0
0
LINE
5
103
100
AcDbEntity
8
0
100
AcDbLine
10
-92.700332562388553
20
-88.522110246778453
30
0
11
-91.741381745077163
21
-88.32206854511
31
0
0
LINE
5
104
100
AcDbEntity
8
0
100
AcDbLine
10
-90.782430927767052
20
-88.12202684344183
30
0
11
-90.631415051025272
21
-88.090524213257851
31
0
0
LWPOLYLINE
5
105
100
AcDbEntity
8
0
100
AcDbPolyline
90
6
70
1
43
0.0
10
-108.39281119215605
20
-112.6595802135738
10
-108.39281119215602
20
-114.80811119215616
42
0.45572625553258106
10
-106.57013423061996
20
-116.39254010214273
10
-104.44251260782779
20
-116.09352238334461
42
0.64322161401435063
10
-103.615495122979
20
-113.30155814500171
10
-105.74311674577129
20
-111.45204488521743
42
0.64322161401434508
0
ARC
5
106
100
AcDbEntity
8
0
100
AcDbCircle
10
-98.48498523858153
20
-94.836447718284234
30
0
40
1.5500000000000274
210
0
220
-0
230
1
100
AcDbArc
50
6.1000000000017209
51
186.10000000000034
0
LINE
5
107
100
AcDbEntity
8
0
100
AcDbLine
10
-99.506029729270352
20
-89.941811046575708
30
0
11
-92.700332562388553
21
-88.522110246778453
31
0
0
ARC
5
108
100
AcDbEntity
8
0
100
AcDbCircle
10
-106.92168703015268
20
-105.29216686524353
30
0
40
4.9999999999999947
210
0
220
0
230
1
100
AcDbArc
50
139.41644656522303
51
184.69572351476216
0
ARC
5
109
100
AcDbEntity
8
0
100
AcDbCircle
10
-105.43018011395282
20
-105.13277075823933
30
0
40
1.5499999999999541
210
0
220
0
230
1
100
AcDbArc
50
-83.900000853771431
51
96.099999146227105
0
ARC
5
110
100
AcDbEntity
8
0
100
AcDbCircle
10
-98.48498523858153
20
-94.836447718284234
30
0
40
4.9999999999999902
210
0
220
0
230
1
100
AcDbArc
50
101.78319262484462
51
139.0728221375617
0
LINE
5
111
100
AcDbEntity
8
0
100
AcDbLine
10
-28.904272863709224
20
-18.840887419985066
30
0
11
-12.87026898977693
21
0
31
0
0
ARC
5
112
100
AcDbEntity
8
0
100
AcDbCircle
10
0
20
0
30
0
40
1.45
210
0
220
0
230
1
100
AcDbArc
50
180
51
270
0
ARC
5
113
100
AcDbEntity
8
0
100
AcDbCircle
10
-115.15044855790235
20
-89.8117129517302
30
0
40
13.005918495063895
210
0
220
0
230
1
100
AcDbArc
50
289.9211896226401
51
352.27054794348203
0
LINE
5
114
100
AcDbEntity
8
0
100
AcDbLine
10
0
20
-1.45
30
0
11
0
21
-19.31128390740033
31
0
0
LINE
5
115
100
AcDbEntity
8
0
100
AcDbLine
10
-77.167488662965539
20
-89.155469797171051
30
0
11
-78.532063788652451
21
-90.602651749076671
31
0
0
LINE
5
116
100
AcDbEntity
8
0
100
AcDbLine
10
-21.206551930994593
20
-29.806844627506244
30
0
11
-59.969872090633672
21
-70.916766884611832
31
0
0
CIRCLE
5
117
100
AcDbEntity
8
0
100
AcDbCircle
10
-24.5
20
-24.5
30
0
40
1.4750000000000001
210
0
220
0
230
1
0
CIRCLE
5
118
100
AcDbEntity
8
0
100
AcDbCircle
10
-15.250000000000002
20
-15.250000000000005
30
0
40
3.0499999999999954
210
0
220
0
230
1
0
CIRCLE
5
119
100
AcDbEntity
8
0
100
AcDbCircle
10
-10
20
-10
30
0
40
1.4750000000000001
210
0
220
0
230
1
0
LINE
5
120
100
AcDbEntity
8
0
100
AcDbLine
10
-82.603800295537511
20
-98.290559250969352
30
0
11
-83.036540304223237
21
-103.54275887883595
31
0
0
ARC
5
121
100
AcDbEntity
8
0
100
AcDbCircle
10
-18.296283928546295
20
-32.550991153099808
30
0
40
4.0000000000002069
210
0
220
0
230
1
100
AcDbArc
50
124.83526654888452
51
136.68281303732567
0
LINE
5
122
100
AcDbEntity
8
0
100
AcDbLine
10
-11.42440623932205
20
-22.895328517838127
30
0
11
-20.581159493198182
21
-29.267800075191253
31
0
0
LINE
5
123
100
AcDbEntity
8
0
100
AcDbLine
10
-68.502436614853835
20
-79.965864402570531
30
0
11
-77.167488662965539
21
-89.155469797171051
31
0
0
LINE
5
124
100
AcDbEntity
8
0
100
AcDbLine
10
-78.532063788652451
20
-90.602651749076671
30
0
11
-79.896638914339334
21
-92.049833700982262
31
0
0
ARC
5
125
100
AcDbEntity
8
0
100
AcDbCircle
10
-110.06403155619884
20
-118.5083033310259
30
0
40
2.0000000000000471
210
0
220
0
230
1
100
AcDbArc
50
175.3427039777911
51
283.04528909669529
0
LINE
5
126
100
AcDbEntity
8
0
100
AcDbLine
10
-99.866812944983522
20
-96.49266394505517
30
0
11
-100.02620905198798
21
-95.001157028855403
31
0
0
LINE
5
127
100
AcDbEntity
8
0
100
AcDbLine
10
-1.45
20
1.7757378587636619e-16
30
0
11
-12.87026898977693
21
0
31
0
0
ARC
5
128
100
AcDbEntity
8
0
100
AcDbCircle
10
-98.325589131577061
20
-96.32795463448403
30
0
40
1.5499999999999845
210
0
220
0
230
1
100
AcDbArc
50
-173.90000000000074
51
6.0999991462283862
0
LINE
5
129
100
AcDbEntity
8
0
100
AcDbLine
10
0.011579703307446941
20
0
30
0
11
0.011579703307446941
21
0.00067940925662757212
31
0
0
LINE
5
130
100
AcDbEntity
8
0
100
AcDbLine
10
-111.8935811606419
20
-104.76276271413873
30
0
11
-112.05742791782279
21
-118.34591199669873
31
0
0
ARC
5
131
100
AcDbEntity
8
0
100
AcDbCircle
10
-96.625363990197485
20
-112.23736174061483
30
0
40
1.5499999999999805
210
0
220
-0
230
1
100
AcDbArc
50
6.0999999999981886
51
186.10000000000147
0
ARC
5
132
100
AcDbEntity
8
0
100
AcDbCircle
10
-89.520773007821873
20
-103.43254561685967
30
0
40
1.5500000000000171
210
0
220
0
230
1
100
AcDbArc
50
96.099999146225656
51
276.09999914622671
0
LINE
5
133
100
AcDbEntity
8
0
100
AcDbLine
10
-96.94376142517504
20
-94.671738407713022
30
0
11
-96.784365318170643
21
-96.163245323912818
31
0
0
ARC
5
134
100
AcDbEntity
8
0
100
AcDbCircle
10
-106.92168703015268
20
-105.29216686524353
30
0
40
1.5499999999999781
210
0
220
0
230
1
100
AcDbArc
50
96.099999146224263
51
276.10000062500637
0
LINE
5
135
100
AcDbEntity
8
0
100
AcDbLine
10
-90.631415051025272
20
-88.090524213257851
30
0
11
-90.480399174283093
21
-88.059021583073772
31
0
0
ARC
5
136
100
AcDbEntity
8
0
100
AcDbCircle
10
-96.465967883193159
20
-113.72886865681463
30
0
40
4.9999999999999591
210
0
220
0
230
1
100
AcDbArc
50
271.77705490516036
51
320.09602550183308
0
ARC
5
137
100
AcDbEntity
8
0
100
AcDbCircle
10
-96.465967883193159
20
-113.72886865681463
30
0
40
1.5500000000000211
210
0
220
0
230
1
100
AcDbArc
50
-173.90000085377326
51
6.0999991462298242
0
LINE
5
138
100
AcDbEntity
8
0
100
AcDbLine
10
-89.685482295426993
20
-101.89132180099882
30
0
11
-88.193975402193331
21
-101.73192569644885
31
0
0
LINE
5
139
100
AcDbEntity
8
0
100
AcDbLine
10
-82.588344909754483
20
-98.102976014317278
30
0
11
-82.587198418448168
21
-98.089060958876217
31
0
0
ARC
5
140
100
AcDbEntity
8
0
100
AcDbCircle
10
-92.52248815566125
20
-78.269748239656451
30
0
40
10.000000000000346
210
0
220
0
230
1
100
AcDbArc
50
281.78319262484717
51
319.64592335382173
0
LINE
5
141
100
AcDbEntity
8
0
100
AcDbLine
10
-106.14781120522204
20
-113.56066079542924
30
0
11
-106.14788621632898
21
-113.56059466424267
31
0
0
ARC
5
142
100
AcDbEntity
8
0
100
AcDbCircle
10
-72.620968908218629
20
-98.910200014965909
30
0
40
10.000000000000302
210
0
220
0
230
1
100
AcDbArc
50
136.68281303732661
51
175.28991651374886
0
LINE
5
143
100
AcDbEntity
8
0
100
AcDbLine
10
-98.007191699054005
20
-113.89357794441977
30
0
11
-98.166587803603903
21
-112.40207105118603
31
0
0
ARC
5
144
100
AcDbEntity
8
0
100
AcDbCircle
10
-79.558276224003862
20
-118.83366349923755
30
0
40
13.209056309317296
210
0
220
0
230
1
100
AcDbArc
50
110.45450631436901
51
171.7417665706607
0
LINE
5
145
100
AcDbEntity
8
0
100
AcDbLine
10
-95.084140176791024
20
-112.07265243004372
30
0
11
-94.924744069786669
21
-113.56415934624344
31
0
0
LINE
5
146
100
AcDbEntity
8
0
100
AcDbLine
10
-91.741381745077163
20
-88.32206854511
30
0
11
-90.782430927767052
21
-88.12202684344183
31
0
0
LINE
5
147
100
AcDbEntity
8
0
100
AcDbLine
10
-105.26547082634762
20
-106.67399457410011
30
0
11
-106.7569777195815
21
-106.83339067865006
31
0
0
LINE
5
148
100
AcDbEntity
8
0
100
AcDbLine
10
-82.472501276521058
20
-81.885652580699627
30
0
11
-83.687207016772462
21
-83.315246957862314
31
0
0
ARC
5
149
100
AcDbEntity
8
0
100
AcDbCircle
10
-88.029266091622119
20
-103.27314950985536
30
0
40
1.5499999999999527
210
0
220
0
230
1
100
AcDbArc
50
-83.899999999999011
51
96.099999146228399
0
ARC
5
150
100
AcDbEntity
8
0
100
AcDbCircle
10
-88.029266091622119
20
-103.27314950985536
30
0
40
4.9999999999999662
210
0
220
0
230
1
100
AcDbArc
50
320.44208701855507
51
356.90900509233683
0
LINE
5
151
100
AcDbEntity
8
0
100
AcDbLine
10
-82.596771620855975
20
-98.205251671809251
30
0
11
-82.589491401060769
21
-98.116891069757884
31
0
0
LINE
5
152
100
AcDbEntity
8
0
100
AcDbLine
10
-82.589491401060769
20
-98.116891069757884
30
0
11
-82.588344909754483
21
-98.102976014317278
31
0
0
LINE
5
153
100
AcDbEntity
8
0
100
AcDbLine
10
-83.687207016772462
20
-83.315246957862314
30
0
11
-84.901912757023794
21
-84.744841335024972
31
0
0
ARC
5
154
100
AcDbEntity
8
0
100
AcDbCircle
10
-2.8416063309357452e-05
20
-39.311283907380115
30
0
40
19.999999999999972
210
0
220
-0
230
1
100
AcDbArc
50
89.99991859397511
51
124.83526654888415
0
LINE
5
155
100
AcDbEntity
8
0
100
AcDbLine
10
-95.337362039110104
20
-118.5998284029736
30
0
11
-109.61258921856556
21
-120.45668722948946
31
0
0
LINE
5
156
100
AcDbEntity
8
0
100
AcDbLine
10
-107.08639631775776
20
-103.75094304938273
30
0
11
-105.59488942452391
21
-103.59154694483283
31
0
0
LINE
5
157
100
AcDbEntity
8
0
100
AcDbLine
10
-74.759119825924373
20
-72.807728285716308
30
0
11
-82.472501276521058
21
-81.885652580699627
31
0
0
LINE
5
158
100
AcDbEntity
8
0
100
AcDbLine
10
-82.603800295537511
20
-98.290559250969352
30
0
11
-82.596771620855975
21
-98.205251671809251
31
0
0
CIRCLE
5
159
100
AcDbEntity
8
0
100
AcDbCircle
10
-97.475476560887401
20
-104.28265818754937
30
0
40
4.0000000000000044
210
0
220
0
230
1
0
LINE
5
160
100
AcDbEntity
8
0
100
AcDbLine
10
-87.864556781050936
20
-104.81437332326178
30
0
11
-89.356063697250733
21
-104.97376943026612
31
0
0
ENDSEC
0
SECTION
2
OBJECTS
0
DICTIONARY
5
C
100
AcDbDictionary
3
ACAD_GROUP
350
D
3
ACAD_MLINESTYLE
350
17
0
DICTIONARY
5
D
100
AcDbDictionary
0
DICTIONARY
5
1A
330
C
100
AcDbDictionary
0
DICTIONARY
5
17
100
AcDbDictionary
0
ENDSEC
0
EOF
