0
SECTION
2
HEADER
9
$INSUNITS
70
4
9
$ACADVER
1
AC1014
9
$HANDSEED
5
FFFF
0
ENDSEC
0
SECTION
2
TABLES
0
TABLE
2
VPORT
5
8
100
AcDbSymbolTable
0
ENDTAB
0
TABLE
2
LTYPE
5
5
100
AcDbSymbolTable
0
LTYPE
5
14
100
AcDbSymbolTableRecord
100
AcDbLinetypeTableRecord
2
BYBLOCK
70
0
0
LTYPE
5
15
100
AcDbSymbolTableRecord
100
AcDbLinetypeTableRecord
2
BYLAYER
70
0
0
ENDTAB
0
TABLE
2
LAYER
5
2
100
AcDbSymbolTable
70
2
0
LAYER
5
50
100
AcDbSymbolTableRecord
100
AcDbLayerTableRecord
2
0
70
0
6
CONTINUOUS
0
ENDTAB
0
TABLE
2
STYLE
5
3
100
AcDbSymbolTable
70
1
0
STYLE
5
11
100
AcDbSymbolTableRecord
100
AcDbTextStyleTableRecord
2
STANDARD
70
0
0
ENDTAB
0
TABLE
2
VIEW
5
6
100
AcDbSymbolTable
70
0
0
ENDTAB
0
TABLE
2
UCS
5
7
100
AcDbSymbolTable
70
0
0
ENDTAB
0
TABLE
2
APPID
5
9
100
AcDbSymbolTable
70
2
0
APPID
5
12
100
AcDbSymbolTableRecord
100
AcDbRegAppTableRecord
2
ACAD
70
0
0
ENDTAB
0
TABLE
2
DIMSTYLE
5
A
100
AcDbSymbolTable
70
1
0
ENDTAB
0
TABLE
2
BLOCK_RECORD
5
1
100
AcDbSymbolTable
70
1
0
BLOCK_RECORD
5
1F
100
AcDbSymbolTableRecord
100
AcDbBlockTableRecord
2
*MODEL_SPACE
0
BLOCK_RECORD
5
1B
100
AcDbSymbolTableRecord
100
AcDbBlockTableRecord
2
*PAPER_SPACE
0
ENDTAB
0
ENDSEC
0
SECTION
2
BLOCKS
0
BLOCK
5
20
100
AcDbEntity
100
AcDbBlockBegin
2
*MODEL_SPACE
0
ENDBLK
5
21
100
AcDbEntity
100
AcDbBlockEnd
0
BLOCK
5
1C
100
AcDbEntity
100
AcDbBlockBegin
2
*PAPER_SPACE
0
ENDBLK
5
1D
100
AcDbEntity
100
AcDbBlockEnd
0
ENDSEC
0
SECTION
2
ENTITIES
0
LWPOLYLINE
5
100
100
AcDbEntity
8
0
100
AcDbPolyline
90
12
70
1
43
0.0
10
-35.124080044494342
20
4.6718136237203485
10
-35.124080044494328
20
-4.9000059041673731
42
-0.17555653526450646
10
-35.346836073980796
20
-5.5148809548414395
42
0.10785093894351679
10
-35.878804237236437
20
-6.53602031355077
42
-0.33845074667389241
10
-36.805192443574207
20
-7.2442170348622508
10
-36.933337406911456
20
-7.2442170348622525
42
-0.41421356237309026
10
-37.893337406911478
20
-6.2842170348622446
10
-37.893337406911456
20
6.0525059430649009
42
-0.41421356237308998
10
-36.933337406911456
20
7.0125059430649008
10
-36.802261420946735
20
7.0125059430649124
42
-0.33845074667388703
10
-35.875873214608973
20
6.3043092217534236
42
0.10753449534129311
10
-35.346067281160479
20
5.2857657074828515
42
-0.17523409630159631
0
LWPOLYLINE
5
101
100
AcDbEntity
8
0
100
AcDbPolyline
90
4
70
1
43
0.0
10
25.99490471391929
20
-8.721756430839239
10
25.99490471391929
20
8.7782435691607077
42
0.99999999999999989
10
22.494904713919283
20
8.7782435691607077
10
22.494904713919293
20
-8.7217564308392213
42
0.99999999999999989
0
LWPOLYLINE
5
102
100
AcDbEntity
8
0
100
AcDbPolyline
90
6
70
1
43
0.0
10
8.2786887004730669
20
0.50715511814540903
42
-0.41421356237309659
10
8.2913080836240578
20
-0.68071724501861053
10
5.8503769652458004
20
-3.1740677923229681
42
-0.47152701455803137
10
4.558930428937404
20
-3.0637689081174697
42
-0.30591604687870444
10
4.496526346882507
20
2.8103759319808717
42
-0.4715270145580327
10
5.7853381531686949
20
2.9480862365236602
0
LINE
5
103
100
AcDbEntity
8
0
100
AcDbLine
10
-30.100379003450044
20
-15.001590524455281
30
0
11
-30.098260215882249
21
-15.001590718105755
31
0
0
LWPOLYLINE
5
104
100
AcDbEntity
8
0
100
AcDbPolyline
90
49
70
1
43
0.0
10
38.713054923393528
20
13.907994929589035
42
0.32390717142935477
10
38.258146347727219
20
14.277870838219533
10
37.330953857424234
20
14.330013503569646
42
-0.096296761030807365
10
34.59106474115837
20
15.158332446270421
42
0.089691611429148166
10
32.894577941542451
20
15.695559044921286
10
29.670042340527321
20
16.109830758599788
42
0.031954595856103045
10
29.032904819432908
20
16.150591323039766
10
-44.001735895396791
20
16.150591323039773
42
-0.41421356237309587
10
-44.801735895396789
20
15.350591323039772
10
-66.705765788810254
20
15.350591323039776
42
-0.41421356237310075
10
-67.505765788810251
20
16.150591323039773
10
-78.251869873252758
20
16.15059132303977
42
0.4142135623730902
10
-81.501869873252758
20
12.900591323039778
42
0.32474630187547254
10
-78.252468611628117
20
8.7652828847313629
10
-70.653723353564544
20
8.7725299297366774
10
-62.686349187692507
20
8.7447685262703896
42
-0.41421356237309437
10
-59.696820492155005
20
5.7343336443043116
10
-59.736837241060044
20
-5.7502590498406274
42
-0.41421356237309886
10
-62.747272123026114
20
-8.7397877453780968
10
-70.653735613300242
20
-8.7122385781900924
10
-78.295381630272146
20
-8.6989156963498822
42
0.29340759396998273
10
-81.436515469705881
20
-11.949525290508847
42
0.10580194221715639
10
-81.451847970575272
20
-13.309637982532026
42
0.38681414634218392
10
-77.92538614541391
20
-15.897471365788247
10
-67.505513977811972
20
-15.935635831685635
42
-0.40789918096277922
10
-66.702978297286435
20
-15.155711417663225
10
-44.79894840387297
20
-15.232033503051547
42
-0.40942755161755146
10
-44.001802290335092
20
-16.021721974459073
10
29.014074299431801
20
-16.289154423444753
42
0.033831769278400606
10
29.688553485013252
20
-16.245945588560822
10
32.37587567625264
20
-15.890203067704334
42
0.10085233305860244
10
34.263160567634799
20
-15.238193697605706
42
-0.10918899114039224
10
37.339809427482415
20
-14.231766180371253
10
38.100767372823682
20
-14.192738850407491
42
0.33167926656828667
10
38.561003076477562
20
-13.811522436509724
42
-0.33167926656827335
10
39.711592335612252
20
-12.858481401765296
10
52.694528604814934
20
-12.192624187475545
42
-0.33167926656827812
10
53.936581767011404
20
-13.022953519379834
42
0.33167926656827629
10
54.433403031889974
20
-13.355085252141546
10
54.933054991111831
20
-13.261345791374538
10
85.289127879129722
20
-7.5656098845248057
42
0.28934855859437741
10
87.000000345071484
20
-4.8567078558546726
10
87.00000034507147
20
4.8615031441453489
42
0.29104442246500328
10
85.272154339313829
20
7.5784176100299483
10
54.933054991111831
20
13.253724294608178
10
54.272579407611246
20
13.37726472616994
42
0.3239071714293576
10
53.779068783259909
20
13.060725212598019
42
-0.32390717142936903
10
52.693345409686927
20
12.364338282739789
10
39.713853789859449
20
13.094267930601946
42
-0.32390717142937075
0
LWPOLYLINE
5
105
100
AcDbEntity
8
0
100
AcDbPolyline
90
10
70
1
43
0.0
10
-25.351883001004659
20
8.7782435691607077
42
0.99999999999999989
10
-28.951883001004663
20
8.7782435691607077
10
-28.951883001004681
20
8.1050934199592959
42
-0.21510956506850207
10
-29.628199710007731
20
6.6058060742061553
42
0.21510956506850043
10
-29.973753887496972
20
5.8397670296504289
10
-29.973753887496972
20
-6.1233547118505927
42
0.21510956506850262
10
-29.62819971000771
20
-6.8893937564063261
42
-0.2151095650684966
10
-28.951883001004663
20
-8.388681102159449
10
-28.951883001004663
20
-8.7217564308392355
42
0.99999999999999989
10
-25.351883001004651
20
-8.7217564308392319
0
LWPOLYLINE
5
106
100
AcDbEntity
8
0
100
AcDbPolyline
90
8
70
1
43
0.0
10
-55.014290944462438
20
7.1197783101177574
42
-0.41421356237309914
10
-53.414290944462401
20
8.7197783101177606
10
-47.150678759238424
20
8.7197783101177553
42
-0.41421356237309892
10
-45.550678759238394
20
7.1197783101177592
10
-45.550678759238401
20
-7.1260131617840949
42
-0.41421356237310564
10
-47.150678759238396
20
-8.7260131617840884
10
-53.414290944462394
20
-8.7260131617840919
42
-0.41421356237310075
10
-55.014290944462438
20
-7.1260131617840949
0
LWPOLYLINE
5
107
100
AcDbEntity
8
0
100
AcDbPolyline
90
4
70
1
43
0.0
10
-17.505095286080735
20
8.7782435691607237
42
0.99999999999999989
10
-21.005095286080735
20
8.7782435691607024
10
-21.005095286080717
20
-8.7217564308392355
42
0.99999999999999989
10
-17.505095286080724
20
-8.7217564308392319
0
LWPOLYLINE
5
108
100
AcDbEntity
8
0
100
AcDbPolyline
90
8
70
1
43
0.0
10
-38.253735895396858
20
-13.134887159709844
42
-0.99999999999999989
10
-39.853735895396824
20
-13.134887159709836
10
-41.853735895396795
20
-13.134887159709832
42
-0.99999999999999989
10
-43.453735895396797
20
-13.134887159709836
10
-43.453735895396775
20
-10.934887159709881
42
-0.99999999999999989
10
-41.853735895396795
20
-10.934887159709854
10
-39.853735895396852
20
-10.934887159709861
42
-0.99999999999999989
10
-38.253735895396858
20
-10.934887159709856
0
LWPOLYLINE
5
109
100
AcDbEntity
8
0
100
AcDbPolyline
90
4
70
1
43
0.0
10
-13.505095286080728
20
8.7782435691607077
10
-13.505095286080708
20
-8.7217564308392337
42
0.99999999999999989
10
-10.005095286080721
20
-8.7217564308392337
10
-10.005095286080737
20
8.778243569160713
42
0.99999999999999989
0
LWPOLYLINE
5
110
100
AcDbEntity
8
0
100
AcDbPolyline
90
6
70
1
43
0.0
10
-0.31652087054979017
20
1.7921690322297568
10
-2.7838009191468487
20
4.2594490808268164
42
-0.47152701455804086
10
-2.6597893274448179
20
5.5496510514978681
42
-0.30591604687870433
10
3.214686978738643
20
5.5496510514978725
42
-0.47152701455804097
10
3.3386985704406658
20
4.259449080826812
10
0.8714185218436078
20
1.7921690322297397
42
-0.41421356237309542
0
LWPOLYLINE
5
111
100
AcDbEntity
8
0
100
AcDbPolyline
90
4
70
1
43
0.0
10
17.494904713919269
20
8.7782435691607184
42
0.99999999999999989
10
13.994904713919274
20
8.7782435691607077
10
13.994904713919293
20
-8.7217564308392355
42
0.99999999999999989
10
17.494904713919276
20
-8.7217564308392284
0
LWPOLYLINE
5
112
100
AcDbEntity
8
0
100
AcDbPolyline
90
6
70
1
43
0.0
10
-5.3524182204704216
20
2.9295127606326288
42
-0.47153771067371769
10
-4.0621878167724192
20
3.0534240019526981
10
-1.5949227456512796
20
0.58568188583182124
42
-0.41421356237309326
10
-1.5950375784211126
20
-0.60225750101138953
10
-4.0626095435724245
20
-3.0693524540552817
42
-0.47151663987950032
10
-5.3527835671797259
20
-2.9452397835484811
42
-0.30591575937633775
0
LWPOLYLINE
5
113
100
AcDbEntity
8
0
100
AcDbPolyline
90
4
70
1
43
0.0
10
29.74490471391929
20
-7.7217564308392372
10
29.744904713919283
20
7.7782435691607148
42
-0.99999999999999989
10
32.74490471391929
20
7.7782435691607166
10
32.744904713919269
20
-7.7217564308392328
42
-0.99999999999999989
0
LWPOLYLINE
5
114
100
AcDbEntity
8
0
100
AcDbPolyline
90
6
70
1
43
0.0
10
3.2722989268794898
20
-4.2599789698150445
42
-0.47152701455804419
10
3.148287335177467
20
-5.5501809404861024
42
-0.30591604687870422
10
-2.726188971005973
20
-5.5501809404861104
42
-0.47152701455804025
10
-2.8502005627079874
20
-4.2599789698150445
10
-0.38292051411093908
20
-1.7926989212179869
42
-0.41421356237309503
10
0.80501887828244856
20
-1.7926989212180011
0
LINE
5
115
100
AcDbEntity
8
0
100
AcDbLine
10
-29.973753887496972
20
5.8397670296504289
30
0
11
-29.973753887496962
21
-6.1250073802092144
31
0
0
LWPOLYLINE
5
116
100
AcDbEntity
8
0
100
AcDbPolyline
90
8
70
1
43
0.0
10
-41.853735895396795
20
13.065112840290134
10
-39.853735895396852
20
13.065112840290132
42
-0.99999999999999989
10
-38.253735895396858
20
13.06511284029015
10
-38.253735895396858
20
10.865112840290161
42
-0.99999999999999989
10
-39.853735895396824
20
10.86511284029017
10
-41.853735895396795
20
10.865112840290172
42
-0.99999999999999989
10
-43.453735895396797
20
10.865112840290172
10
-43.453735895396775
20
13.065112840290112
42
-0.99999999999999989
0
LWPOLYLINE
5
117
100
AcDbEntity
8
0
100
AcDbPolyline
90
4
70
1
43
0.0
10
80.556640335983303
20
-2.9959757822082493
42
-0.99999999999999989
10
78.056640335983289
20
-2.9959757822082684
10
78.056640335983317
20
3.0040242177917524
42
-0.99999999999999989
10
80.556640335983303
20
3.0040242177917249
0
LWPOLYLINE
5
118
100
AcDbEntity
8
0
100
AcDbPolyline
90
8
70
1
43
0.0
10
-71.653735895396849
20
13.065112840290125
10
-69.653735895396849
20
13.065112840290137
42
-0.99999999999999989
10
-68.053735895396827
20
13.065112840290155
10
-68.053735895396855
20
10.865112840290161
42
-0.99999999999999989
10
-69.653735895396821
20
10.86511284029017
10
-71.653735895396821
20
10.865112840290163
42
-0.99999999999999989
10
-73.253735895396773
20
10.86511284029015
10
-73.253735895396815
20
13.065112840290112
42
-0.99999999999999989
0
LWPOLYLINE
5
119
100
AcDbEntity
8
0
100
AcDbPolyline
90
8
70
1
43
0.0
10
-69.653735895396849
20
-10.934887159709888
42
-0.99999999999999989
10
-68.053735895396827
20
-10.934887159709874
10
-68.053735895396855
20
-13.134887159709844
42
-0.99999999999999989
10
-69.653735895396821
20
-13.134887159709836
10
-71.653735895396821
20
-13.134887159709843
42
-0.99999999999999989
10
-73.253735895396773
20
-13.13488715970986
10
-73.253735895396815
20
-10.934887159709888
42
-0.99999999999999989
10
-71.653735895396849
20
-10.93488715970987
0
CIRCLE
5
120
100
AcDbEntity
8
0
100
AcDbCircle
10
-33.251883001004657
20
11.934964241091508
30
0
40
1.5000000000000002
210
0
220
0
230
1
0
CIRCLE
5
121
100
AcDbEntity
8
0
100
AcDbCircle
10
-78.26633948721188
20
-12.665405336339449
30
0
40
1.5000000000000002
210
0
220
0
230
1
0
CIRCLE
5
122
100
AcDbEntity
8
0
100
AcDbCircle
10
-78.251869873252758
20
12.900591323039761
30
0
40
1.5000000000000002
210
0
220
0
230
1
0
ARC
5
123
100
AcDbEntity
8
0
100
AcDbCircle
10
-30.14226016667191
20
17.057655272370912
30
0
40
2.0000000000000053
210
0
220
0
230
1
100
AcDbArc
50
269.99644865004063
51
270.07484931317151
0
CIRCLE
5
124
100
AcDbEntity
8
0
100
AcDbCircle
10
84.00000034507147
20
4.8615031441453054
30
0
40
1.4999999999999991
210
0
220
0
230
1
0
CIRCLE
5
125
100
AcDbEntity
8
0
100
AcDbCircle
10
28.188765728745931
20
-13.151647761377181
30
0
40
1.5000000000000002
210
0
220
0
230
1
0
CIRCLE
5
126
100
AcDbEntity
8
0
100
AcDbCircle
10
-33.256768038717127
20
-11.826240722120405
30
0
40
1.5000000000000002
210
0
220
0
230
1
0
CIRCLE
5
127
100
AcDbEntity
8
0
100
AcDbCircle
10
28.202352785585845
20
13.012114510299213
30
0
40
1.5000000000000002
210
0
220
0
230
1
0
LINE
5
128
100
AcDbEntity
8
0
100
AcDbLine
10
-52.519378830190789
20
15.061280253710985
30
0
11
-52.519378873564733
21
15.060805719393064
31
0
0
CIRCLE
5
129
100
AcDbEntity
8
0
100
AcDbCircle
10
84.00000034507147
20
-4.8567078558546966
30
0
40
1.5000000000000002
210
0
220
0
230
1
0
LWPOLYLINE
5
130
100
AcDbEntity
8
0
100
AcDbPolyline
90
6
70
1
43
0.0
10
64.735706331248991
20
-0.56447323475820377
10
59.920779358368399
20
-5.3794002076388132
42
-0.66817863791930654
10
58.555093933419116
20
-4.8137147826895692
10
58.555093933419158
20
4.8161391630716457
42
-0.66817863791930499
10
59.920779358368392
20
5.381824588020879
10
64.735706331248991
20
0.56689761514027714
42
-0.41421356237309043
0
LWPOLYLINE
5
131
100
AcDbEntity
8
0
100
AcDbPolyline
90
6
70
1
43
0.0
10
70.029240639335256
20
7.4367118730329729
42
-0.60162153570798882
10
70.547733366595651
20
5.7475538005884061
10
67.488397524707125
20
2.6882179586999202
42
-0.41421356237308871
10
66.357026674808651
20
2.6882179586999202
10
61.44070399939497
20
7.6045406341135475
42
-0.68868728194202866
10
62.051308171904942
20
8.9689640048983144
0
LWPOLYLINE
5
132
100
AcDbEntity
8
0
100
AcDbPolyline
90
6
70
1
43
0.0
10
69.574362529207434
20
0.6022529541995969
10
74.690222437893084
20
5.7181128628852438
42
-0.66817863791931731
10
76.141263201901651
20
5.1170720988766849
10
76.141263201901637
20
-5.1146477184946093
42
-0.66817863791932219
10
74.690222437893084
20
-5.7156884825031726
10
69.574362529207434
20
-0.5998285738175313
42
-0.41421356237308715
0
LWPOLYLINE
5
133
100
AcDbEntity
8
0
100
AcDbPolyline
90
6
70
1
43
0.0
10
70.533363881234109
20
-5.7307599348447997
42
-0.6028768149995597
10
70.011251345117728
20
-7.4206063200419603
10
62.105259801706687
20
-8.9088570541485463
42
-0.68686963586872918
10
61.498598548185768
20
-7.5442217049406679
10
66.357026674808651
20
-2.6857935783178362
42
-0.4142135623730987
10
67.488397524707125
20
-2.6857935783178388
0
LWPOLYLINE
5
134
100
AcDbEntity
8
0
100
AcDbPolyline
90
6
70
1
43
0.0
10
49.074362529207427
20
0.6022529541995969
10
54.190222437893077
20
5.7181128628852438
42
-0.66817863791931731
10
55.641263201901637
20
5.1170720988766849
10
55.64126320190163
20
-5.1146477184946093
42
-0.66817863791932219
10
54.190222437893077
20
-5.7156884825031726
10
49.074362529207427
20
-0.5998285738175313
42
-0.41421356237308715
0
LWPOLYLINE
5
135
100
AcDbEntity
8
0
100
AcDbPolyline
90
6
70
1
43
0.0
10
40.940703999394962
20
7.6045406341135475
10
45.857026674808651
20
2.6882179586999202
42
0.41421356237308871
10
46.988397524707111
20
2.6882179586999202
10
51.381201430193009
20
7.0810218641857592
42
0.64805135590373386
10
50.860434752804508
20
8.4454452349705313
10
41.551308171904935
20
8.9689640048983144
42
0.68868728194202866
0
LWPOLYLINE
5
136
100
AcDbEntity
8
0
100
AcDbPolyline
90
6
70
1
43
0.0
10
37.55509393341913
20
-4.8137147826895692
10
37.555093933419172
20
4.8161391630716457
42
-0.66817863791929921
10
38.920779358368392
20
5.381824588020879
10
43.735706331248991
20
0.56689761514027714
42
-0.41421356237309048
10
43.735706331248991
20
-0.56447323475820377
10
38.920779358368392
20
-5.3794002076388114
42
-0.66817863791930776
0
LWPOLYLINE
5
137
100
AcDbEntity
8
0
100
AcDbPolyline
90
6
70
1
43
0.0
10
51.372788232252233
20
-7.070184285862914
10
46.988397524707118
20
-2.6857935783178419
42
0.4142135623730987
10
45.857026674808651
20
-2.6857935783178362
10
40.998598548185761
20
-7.5442217049406679
42
0.68686963586872918
10
41.60525980170668
20
-8.9088570541485463
10
50.84807863587465
20
-8.4348196350707756
42
0.64980492153852054
0
ENDSEC
0
SECTION
2
OBJECTS
0
DICTIONARY
5
C
100
AcDbDictionary
3
ACAD_GROUP
350
D
3
ACAD_MLINESTYLE
350
17
0
DICTIONARY
5
D
100
AcDbDictionary
0
DICTIONARY
5
1A
330
C
100
AcDbDictionary
0
DICTIONARY
5
17
100
AcDbDictionary
0
ENDSEC
0
EOF
