0
SECTION
2
HEADER
9
$INSUNITS
70
4
9
$ACADVER
1
AC1014
9
$HANDSEED
5
FFFF
0
ENDSEC
0
SECTION
2
TABLES
0
TABLE
2
VPORT
5
8
100
AcDbSymbolTable
0
ENDTAB
0
TABLE
2
LTYPE
5
5
100
AcDbSymbolTable
0
LTYPE
5
14
100
AcDbSymbolTableRecord
100
AcDbLinetypeTableRecord
2
BYBLOCK
70
0
0
LTYPE
5
15
100
AcDbSymbolTableRecord
100
AcDbLinetypeTableRecord
2
BYLAYER
70
0
0
ENDTAB
0
TABLE
2
LAYER
5
2
100
AcDbSymbolTable
70
2
0
LAYER
5
50
100
AcDbSymbolTableRecord
100
AcDbLayerTableRecord
2
0
70
0
6
CONTINUOUS
0
ENDTAB
0
TABLE
2
STYLE
5
3
100
AcDbSymbolTable
70
1
0
STYLE
5
11
100
AcDbSymbolTableRecord
100
AcDbTextStyleTableRecord
2
STANDARD
70
0
0
ENDTAB
0
TABLE
2
VIEW
5
6
100
AcDbSymbolTable
70
0
0
ENDTAB
0
TABLE
2
UCS
5
7
100
AcDbSymbolTable
70
0
0
ENDTAB
0
TABLE
2
APPID
5
9
100
AcDbSymbolTable
70
2
0
APPID
5
12
100
AcDbSymbolTableRecord
100
AcDbRegAppTableRecord
2
ACAD
70
0
0
ENDTAB
0
TABLE
2
DIMSTYLE
5
A
100
AcDbSymbolTable
70
1
0
ENDTAB
0
TABLE
2
BLOCK_RECORD
5
1
100
AcDbSymbolTable
70
1
0
BLOCK_RECORD
5
1F
100
AcDbSymbolTableRecord
100
AcDbBlockTableRecord
2
*MODEL_SPACE
0
BLOCK_RECORD
5
1B
100
AcDbSymbolTableRecord
100
AcDbBlockTableRecord
2
*PAPER_SPACE
0
ENDTAB
0
ENDSEC
0
SECTION
2
BLOCKS
0
BLOCK
5
20
100
AcDbEntity
100
AcDbBlockBegin
2
*MODEL_SPACE
0
ENDBLK
5
21
100
AcDbEntity
100
AcDbBlockEnd
0
BLOCK
5
1C
100
AcDbEntity
100
AcDbBlockBegin
2
*PAPER_SPACE
0
ENDBLK
5
1D
100
AcDbEntity
100
AcDbBlockEnd
0
ENDSEC
0
SECTION
2
ENTITIES
0
LWPOLYLINE
5
100
100
AcDbEntity
8
0
100
AcDbPolyline
90
51
70
1
43
0.0
10
-44.001802290335092
20
-16.021721974459073
10
29.01407429943179
20
-16.289154423444753
42
0.033831769278406018
10
29.688553485013252
20
-16.245945588560819
10
32.37587567625264
20
-15.890203067704331
42
0.10085233305860349
10
34.263160567634799
20
-15.238193697605704
42
-0.10918899114039012
10
37.339809427482422
20
-14.231766180371253
10
38.100767372823682
20
-14.192738850407496
42
0.33167926656827851
10
38.561003076477562
20
-13.811522436509724
42
-0.33167926656827718
10
39.711592335612252
20
-12.858481401765292
10
52.694528604814927
20
-12.192624187475545
42
-0.33167926656827718
10
53.93658176701139
20
-13.022953519379833
42
0.33167926656826191
10
54.433403031889974
20
-13.355085252141546
10
55.829966501135871
20
-13.283459555001155
42
0.031193333940610416
10
56.18912707519209
20
-13.242479344610011
10
67.295411336136965
20
-11.267622387471022
42
0.38561178341757285
10
70.000000345064691
20
-8.2822024261994613
10
70.000000345072493
20
8.2902504039712195
42
0.38476464277280664
10
67.304219290992208
20
11.274785683197068
10
56.181644737832102
20
13.249188168684762
42
0.029885154272092793
10
55.837611191425928
20
13.289251795285352
10
54.272579407611246
20
13.377264726169937
42
0.32390717142935521
10
53.779068783259909
20
13.060725212598019
42
-0.32390717142937026
10
52.693345409686941
20
12.364338282739794
10
39.713853789859463
20
13.094267930601944
42
-0.32390717142936831
10
38.713054923393543
20
13.907994929589035
42
0.32390717142935932
10
38.258146347727219
20
14.277870838219531
10
37.330953857424227
20
14.330013503569646
42
-0.096296761030807032
10
34.591064741158362
20
15.158332446270419
42
0.089691611429151094
10
32.894577941542458
20
15.695559044921286
10
29.670042340527317
20
16.109830758599788
42
0.031954595856103087
10
29.0329048194329
20
16.150591323039766
10
-44.001735895396791
20
16.150591323039773
42
-0.41421356237309503
10
-44.801735895396789
20
15.350591323039772
10
-66.705765788810254
20
15.350591323039772
42
-0.41421356237309503
10
-67.505765788810251
20
16.150591323039773
10
-78.251869873252758
20
16.150591323039773
42
0.41421356237309326
10
-81.501869873252772
20
12.90059132303978
42
0.32474630187547338
10
-78.252468611628117
20
8.7652828847313575
10
-70.653723353564544
20
8.7725299297366774
10
-62.686349187692485
20
8.7447685262703896
42
-0.41421356237309626
10
-59.696820492155005
20
5.7343336443043116
10
-59.736837241060037
20
-5.7502590498406274
42
-0.4142135623730947
10
-62.747272123026114
20
-8.739787745378095
10
-70.653735613300242
20
-8.7122385781900924
10
-78.295381630272146
20
-8.6989156963498822
42
0.29340759396998223
10
-81.436515469705895
20
-11.949525290508847
42
0.10580194221716183
10
-81.451847970575258
20
-13.309637982532029
42
0.38681414634218053
10
-77.92538614541391
20
-15.89747136578824
10
-67.505513977811972
20
-15.935635831685634
42
-0.40789918096278638
10
-66.702978297286435
20
-15.15571141766322
10
-44.79894840387297
20
-15.232033503051543
42
-0.40942755161754019
0
LWPOLYLINE
5
101
100
AcDbEntity
8
0
100
AcDbPolyline
90
4
70
1
43
0.0
10
17.494904713919269
20
8.7782435691607184
42
0.99999999999999989
10
13.994904713919274
20
8.7782435691607077
10
13.994904713919297
20
-8.721756430839239
42
0.99999999999999989
10
17.494904713919279
20
-8.7217564308392319
0
ARC
5
102
100
AcDbEntity
8
0
100
AcDbCircle
10
-30.14226016667191
20
17.057655272370912
30
0
40
2.0000000000000053
210
0
220
0
230
1
100
AcDbArc
50
269.99644865004063
51
270.07484931317151
0
LWPOLYLINE
5
103
100
AcDbEntity
8
0
100
AcDbPolyline
90
4
70
1
43
0.0
10
-10.005095286080735
20
8.7782435691607148
42
0.99999999999999989
10
-13.505095286080726
20
8.7782435691607077
10
-13.505095286080708
20
-8.7217564308392355
42
0.99999999999999989
10
-10.005095286080721
20
-8.7217564308392319
0
LWPOLYLINE
5
104
100
AcDbEntity
8
0
100
AcDbPolyline
90
8
70
1
43
0.0
10
-68.053735895396827
20
13.06511284029015
10
-68.053735895396855
20
10.865112840290161
42
-0.99999999999999989
10
-69.653735895396821
20
10.86511284029017
10
-71.653735895396807
20
10.865112840290163
42
-0.99999999999999989
10
-73.253735895396787
20
10.86511284029015
10
-73.253735895396815
20
13.065112840290112
42
-0.99999999999999989
10
-71.653735895396821
20
13.065112840290125
10
-69.653735895396849
20
13.065112840290132
42
-0.99999999999999989
0
LWPOLYLINE
5
105
100
AcDbEntity
8
0
100
AcDbPolyline
90
12
70
1
43
0.0
10
-37.893337406911463
20
6.0525059430649009
42
-0.41421356237309065
10
-36.933337406911463
20
7.0125059430649017
10
-36.802261420946742
20
7.0125059430649115
42
-0.33845074667389108
10
-35.87587321460898
20
6.3043092217534262
42
0.10753449534128996
10
-35.346067281160479
20
5.2857657074828523
42
-0.1752340963016025
10
-35.124080044494342
20
4.6718136237203485
10
-35.124080044494335
20
-4.9000059041673723
42
-0.17555653526450771
10
-35.346836073980796
20
-5.5148809548414395
42
0.10785093894351509
10
-35.878804237236437
20
-6.5360203135507691
42
-0.33845074667388964
10
-36.805192443574214
20
-7.2442170348622481
10
-36.933337406911463
20
-7.244217034862249
42
-0.41421356237309609
10
-37.893337406911478
20
-6.2842170348622446
0
CIRCLE
5
106
100
AcDbEntity
8
0
100
AcDbCircle
10
28.202352785585845
20
13.012114510299213
30
0
40
1.5000000000000002
210
0
220
0
230
1
0
LWPOLYLINE
5
107
100
AcDbEntity
8
0
100
AcDbPolyline
90
4
70
1
43
0.0
10
64.556640335983289
20
3.0040242177917236
10
64.556640335983303
20
-2.9959757822082507
42
-0.99999999999999989
10
62.056640335983325
20
-2.9959757822082684
10
62.056640335983325
20
3.0040242177917382
42
-0.99999999999999989
0
LWPOLYLINE
5
108
100
AcDbEntity
8
0
100
AcDbPolyline
90
8
70
1
43
0.0
10
-39.853735895396824
20
10.86511284029017
10
-41.853735895396795
20
10.865112840290172
42
-0.99999999999999989
10
-43.453735895396797
20
10.865112840290172
10
-43.453735895396775
20
13.065112840290112
42
-0.99999999999999989
10
-41.853735895396795
20
13.065112840290134
10
-39.853735895396838
20
13.065112840290132
42
-0.99999999999999989
10
-38.253735895396858
20
13.06511284029015
10
-38.253735895396858
20
10.865112840290161
42
-0.99999999999999989
0
LWPOLYLINE
5
109
100
AcDbEntity
8
0
100
AcDbPolyline
90
4
70
1
43
0.0
10
-21.005095286080731
20
8.7782435691607077
10
-21.005095286080714
20
-8.7217564308392355
42
0.99999999999999989
10
-17.505095286080724
20
-8.7217564308392319
10
-17.505095286080735
20
8.7782435691607219
42
0.99999999999999989
0
CIRCLE
5
110
100
AcDbEntity
8
0
100
AcDbCircle
10
36.422712099757874
20
10.001212190191035
30
0
40
1.5000000000000002
210
0
220
0
230
1
0
LWPOLYLINE
5
111
100
AcDbEntity
8
0
100
AcDbPolyline
90
10
70
1
43
0.0
10
-25.351883001004659
20
8.7782435691607095
42
0.99999999999999989
10
-28.951883001004663
20
8.7782435691607112
10
-28.951883001004674
20
8.1050934199592959
42
-0.21510956506849729
10
-29.628199710007724
20
6.6058060742061562
42
0.21510956506849938
10
-29.973753887496972
20
5.8397670296504289
10
-29.973753887496969
20
-6.1233547118505927
42
0.21510956506850473
10
-29.62819971000771
20
-6.8893937564063235
42
-0.21510956506849532
10
-28.951883001004663
20
-8.388681102159449
10
-28.951883001004663
20
-8.7217564308392355
42
0.99999999999999989
10
-25.351883001004651
20
-8.7217564308392319
0
LWPOLYLINE
5
112
100
AcDbEntity
8
0
100
AcDbPolyline
90
8
70
1
43
0.0
10
-69.653735895396849
20
-10.934887159709879
42
-0.99999999999999989
10
-68.053735895396827
20
-10.93488715970987
10
-68.053735895396855
20
-13.134887159709844
42
-0.99999999999999989
10
-69.653735895396821
20
-13.134887159709836
10
-71.653735895396807
20
-13.134887159709843
42
-0.99999999999999989
10
-73.253735895396787
20
-13.13488715970986
10
-73.253735895396815
20
-10.934887159709888
42
-0.99999999999999989
10
-71.653735895396821
20
-10.934887159709874
0
LWPOLYLINE
5
113
100
AcDbEntity
8
0
100
AcDbPolyline
90
8
70
1
43
0.0
10
-47.150678759238403
20
-8.7260131617840937
10
-53.414290944462394
20
-8.7260131617840884
42
-0.41421356237310009
10
-55.014290944462431
20
-7.1260131617840949
10
-55.014290944462431
20
7.1197783101177574
42
-0.41421356237309626
10
-53.414290944462394
20
8.7197783101177606
10
-47.150678759238417
20
8.7197783101177642
42
-0.41421356237309914
10
-45.550678759238401
20
7.1197783101177592
10
-45.550678759238409
20
-7.1260131617840949
42
-0.41421356237309875
0
LWPOLYLINE
5
114
100
AcDbEntity
8
0
100
AcDbPolyline
90
8
70
1
43
0.0
10
-41.853735895396795
20
-13.13488715970983
42
-0.99999999999999989
10
-43.453735895396797
20
-13.134887159709834
10
-43.453735895396775
20
-10.93488715970989
42
-0.99999999999999989
10
-41.853735895396795
20
-10.934887159709863
10
-39.853735895396838
20
-10.934887159709861
42
-0.99999999999999989
10
-38.253735895396858
20
-10.934887159709861
10
-38.253735895396858
20
-13.134887159709844
42
-0.99999999999999989
10
-39.853735895396824
20
-13.134887159709836
0
CIRCLE
5
115
100
AcDbEntity
8
0
100
AcDbCircle
10
-78.26633948721188
20
-12.665405336339449
30
0
40
1.5000000000000002
210
0
220
0
230
1
0
LWPOLYLINE
5
116
100
AcDbEntity
8
0
100
AcDbPolyline
90
4
70
1
43
0.0
10
25.994904713919276
20
8.7782435691607148
42
0.99999999999999989
10
22.49490471391929
20
8.7782435691607077
10
22.494904713919297
20
-8.7217564308392301
42
0.99999999999999989
10
25.994904713919283
20
-8.7217564308392319
0
CIRCLE
5
117
100
AcDbEntity
8
0
100
AcDbCircle
10
56.422712099757874
20
-9.9987878098089649
30
0
40
1.5000000000000002
210
0
220
0
230
1
0
LINE
5
118
100
AcDbEntity
8
0
100
AcDbLine
10
-29.973753887496972
20
5.8397670296504298
30
0
11
-29.973753887496962
21
-6.1250073802092144
31
0
0
CIRCLE
5
119
100
AcDbEntity
8
0
100
AcDbCircle
10
-33.251883001004657
20
11.934964241091508
30
0
40
1.5000000000000002
210
0
220
0
230
1
0
ARC
5
120
100
AcDbEntity
8
0
100
AcDbCircle
10
56.422712099757874
20
10.001212190191035
30
0
40
1.4999999999999987
210
0
220
0
230
1
100
AcDbArc
50
-45.000000000000156
51
135.00000000000006
0
ARC
5
121
100
AcDbEntity
8
0
100
AcDbCircle
10
67.000000345079854
20
-8.2822024260072098
30
0
40
2.9999999999906546
210
0
220
0
230
1
100
AcDbArc
50
275.6510920994578
51
360
0
CIRCLE
5
122
100
AcDbEntity
8
0
100
AcDbCircle
10
36.422712099757874
20
-9.9987878098089649
30
0
40
1.5000000000000013
210
0
220
0
230
1
0
CIRCLE
5
123
100
AcDbEntity
8
0
100
AcDbCircle
10
-33.256768038717127
20
-11.826240722120405
30
0
40
1.5000000000000002
210
0
220
0
230
1
0
CIRCLE
5
124
100
AcDbEntity
8
0
100
AcDbCircle
10
66.51677620274836
20
7.8614878111958921
30
0
40
1.5000000000000002
210
0
220
0
230
1
0
ARC
5
125
100
AcDbEntity
8
0
100
AcDbCircle
10
67.000000345072436
20
8.2902504039712195
30
0
40
3.0000000000000515
210
0
220
0
230
1
100
AcDbArc
50
0
51
84.179841884734302
0
CIRCLE
5
126
100
AcDbEntity
8
0
100
AcDbCircle
10
66.513806007625988
20
-7.8567233081714658
30
0
40
1.5000000000000018
210
0
220
0
230
1
0
CIRCLE
5
127
100
AcDbEntity
8
0
100
AcDbCircle
10
28.188765728745931
20
-13.151647761377181
30
0
40
1.5000000000000002
210
0
220
0
230
1
0
ARC
5
128
100
AcDbEntity
8
0
100
AcDbCircle
10
56.422712099757874
20
10.001212190191035
30
0
40
1.4999999999999987
210
0
220
0
230
1
100
AcDbArc
50
135.00000000000006
51
314.99999999999983
0
CIRCLE
5
129
100
AcDbEntity
8
0
100
AcDbCircle
10
-78.251869873252758
20
12.900591323039761
30
0
40
1.5000000000000002
210
0
220
0
230
1
0
LINE
5
130
100
AcDbEntity
8
0
100
AcDbLine
10
-30.100379003450044
20
-15.001590524455281
30
0
11
-30.098260215882249
21
-15.001590718105755
31
0
0
LINE
5
131
100
AcDbEntity
8
0
100
AcDbLine
10
-52.519378830190789
20
15.061280253710985
30
0
11
-52.519378873564733
21
15.060805719393064
31
0
0
LINE
5
132
100
AcDbEntity
8
0
100
AcDbLine
10
70.000000345072493
20
8.2902504039712195
30
0
11
70.000000345064691
21
-8.2822024261994613
31
0
0
LWPOLYLINE
5
133
100
AcDbEntity
8
0
100
AcDbPolyline
90
4
70
1
43
0.0
10
39.096583131141244
20
-2.4959757822082631
10
57.20235178047556
20
-2.4959757822082631
42
0.99999999999999989
10
57.20235178047556
20
2.5040242177917369
10
39.096583131141244
20
2.5040242177917369
42
0.99999999999999989
0
LINE
5
134
100
AcDbEntity
8
0
100
AcDbLine
10
57.269306287082941
20
6.5017802471120127
30
0
11
42.36730670741121
21
7.5017802471120127
31
0
0
ARC
5
135
100
AcDbEntity
8
0
100
AcDbCircle
10
42.300352200803829
20
6.5040242177917378
30
0
40
1.0000000000000004
210
0
220
-0
230
1
100
AcDbArc
50
86.160917325882167
51
266.16091732588256
0
LINE
5
136
100
AcDbEntity
8
0
100
AcDbLine
10
42.233397694196455
20
5.506268188471461
30
0
11
57.135397273868179
21
4.506268188471461
31
0
0
ARC
5
137
100
AcDbEntity
8
0
100
AcDbCircle
10
57.20235178047556
20
5.504024217791736
30
0
40
1.0000000000000004
210
0
220
0
230
1
100
AcDbArc
50
-93.839082674117861
51
86.160917325882167
0
LINE
5
138
100
AcDbEntity
8
0
100
AcDbLine
10
57.135397273868179
20
-4.4982197528879873
30
0
11
42.233397694196455
21
-5.4982197528879873
31
0
0
ARC
5
139
100
AcDbEntity
8
0
100
AcDbCircle
10
42.300352200803829
20
-6.4959757822082631
30
0
40
1.0000000000000004
210
0
220
0
230
1
100
AcDbArc
50
93.839082674117435
51
273.83908267411783
0
LINE
5
140
100
AcDbEntity
8
0
100
AcDbLine
10
42.36730670741121
20
-7.493731811528539
30
0
11
57.269306287082941
21
-6.493731811528539
31
0
0
ARC
5
141
100
AcDbEntity
8
0
100
AcDbCircle
10
57.20235178047556
20
-5.4959757822082631
30
0
40
1.0000000000000004
210
0
220
0
230
1
100
AcDbArc
50
-86.160917325882153
51
93.839082674117833
0
LWPOLYLINE
5
142
100
AcDbEntity
8
0
100
AcDbPolyline
90
6
70
1
43
0.0
10
-2.7261889710059704
20
-5.5501809404861095
42
-0.4715270145580403
10
-2.8502005627079874
20
-4.2599789698150445
10
-0.38292051411093903
20
-1.7926989212179867
42
-0.4142135623730952
10
0.80501887828244856
20
-1.7926989212180007
10
3.2722989268794898
20
-4.2599789698150454
42
-0.47152701455804447
10
3.148287335177467
20
-5.5501809404861042
42
-0.30591604687870444
0
LWPOLYLINE
5
143
100
AcDbEntity
8
0
100
AcDbPolyline
90
6
70
1
43
0.0
10
-5.3524182204704216
20
2.9295127606326288
42
-0.47153771067371858
10
-4.0621878167724192
20
3.0534240019526973
10
-1.5949227456512796
20
0.58568188583182113
42
-0.41421356237309215
10
-1.5950375784211122
20
-0.60225750101138953
10
-4.0626095435724237
20
-3.0693524540552817
42
-0.47151663987949954
10
-5.3527835671797259
20
-2.9452397835484811
42
-0.30591575937633764
0
LWPOLYLINE
5
144
100
AcDbEntity
8
0
100
AcDbPolyline
90
6
70
1
43
0.0
10
3.3386985704406658
20
4.2594490808268111
10
0.87141852184360769
20
1.7921690322297388
42
-0.41421356237309542
10
-0.31652087054979017
20
1.792169032229757
10
-2.7838009191468487
20
4.2594490808268146
42
-0.47152701455804019
10
-2.6597893274448161
20
5.5496510514978681
42
-0.30591604687870433
10
3.2146869787386407
20
5.5496510514978716
42
-0.47152701455804058
0
LWPOLYLINE
5
145
100
AcDbEntity
8
0
100
AcDbPolyline
90
6
70
1
43
0.0
10
8.2913080836240578
20
-0.68071724501861053
10
5.8503769652458013
20
-3.1740677923229672
42
-0.47152701455803209
10
4.558930428937404
20
-3.0637689081174688
42
-0.30591604687870494
10
4.4965263468825087
20
2.8103759319808708
42
-0.47152701455803336
10
5.7853381531686967
20
2.9480862365236598
10
8.2786887004730669
20
0.50715511814540881
42
-0.41421356237309725
0
LWPOLYLINE
5
146
100
AcDbEntity
8
0
100
AcDbPolyline
90
4
70
1
43
0.0
10
29.744904713919293
20
-7.7217564308392337
10
29.744904713919279
20
7.7782435691607112
42
-0.99999999999999989
10
32.744904713919276
20
7.778243569160713
10
32.744904713919269
20
-7.7217564308392319
42
-0.99999999999999989
0
ENDSEC
0
SECTION
2
OBJECTS
0
DICTIONARY
5
C
100
AcDbDictionary
3
ACAD_GROUP
350
D
3
ACAD_MLINESTYLE
350
17
0
DICTIONARY
5
D
100
AcDbDictionary
0
DICTIONARY
5
1A
330
C
100
AcDbDictionary
0
DICTIONARY
5
17
100
AcDbDictionary
0
ENDSEC
0
EOF
