0
SECTION
2
HEADER
9
$INSUNITS
70
4
9
$ACADVER
1
AC1014
9
$HANDSEED
5
FFFF
0
ENDSEC
0
SECTION
2
TABLES
0
TABLE
2
VPORT
5
8
100
AcDbSymbolTable
0
ENDTAB
0
TABLE
2
LTYPE
5
5
100
AcDbSymbolTable
0
LTYPE
5
14
100
AcDbSymbolTableRecord
100
AcDbLinetypeTableRecord
2
BYBLOCK
70
0
0
LTYPE
5
15
100
AcDbSymbolTableRecord
100
AcDbLinetypeTableRecord
2
BYLAYER
70
0
0
ENDTAB
0
TABLE
2
LAYER
5
2
100
AcDbSymbolTable
70
2
0
LAYER
5
50
100
AcDbSymbolTableRecord
100
AcDbLayerTableRecord
2
0
70
0
6
CONTINUOUS
0
ENDTAB
0
TABLE
2
STYLE
5
3
100
AcDbSymbolTable
70
1
0
STYLE
5
11
100
AcDbSymbolTableRecord
100
AcDbTextStyleTableRecord
2
STANDARD
70
0
0
ENDTAB
0
TABLE
2
VIEW
5
6
100
AcDbSymbolTable
70
0
0
ENDTAB
0
TABLE
2
UCS
5
7
100
AcDbSymbolTable
70
0
0
ENDTAB
0
TABLE
2
APPID
5
9
100
AcDbSymbolTable
70
2
0
APPID
5
12
100
AcDbSymbolTableRecord
100
AcDbRegAppTableRecord
2
ACAD
70
0
0
ENDTAB
0
TABLE
2
DIMSTYLE
5
A
100
AcDbSymbolTable
70
1
0
ENDTAB
0
TABLE
2
BLOCK_RECORD
5
1
100
AcDbSymbolTable
70
1
0
BLOCK_RECORD
5
1F
100
AcDbSymbolTableRecord
100
AcDbBlockTableRecord
2
*MODEL_SPACE
0
BLOCK_RECORD
5
1B
100
AcDbSymbolTableRecord
100
AcDbBlockTableRecord
2
*PAPER_SPACE
0
ENDTAB
0
ENDSEC
0
SECTION
2
BLOCKS
0
BLOCK
5
20
100
AcDbEntity
100
AcDbBlockBegin
2
*MODEL_SPACE
0
ENDBLK
5
21
100
AcDbEntity
100
AcDbBlockEnd
0
BLOCK
5
1C
100
AcDbEntity
100
AcDbBlockBegin
2
*PAPER_SPACE
0
ENDBLK
5
1D
100
AcDbEntity
100
AcDbBlockEnd
0
ENDSEC
0
SECTION
2
ENTITIES
0
ARC
5
100
100
AcDbEntity
8
0
100
AcDbCircle
10
-46.218148279548828
20
-145.33628172187267
30
0
40
4.9999999999999361
210
-0
220
0
230
1
100
AcDbArc
50
292.77705490516047
51
341.09602550183331
0
LWPOLYLINE
5
101
100
AcDbEntity
8
0
100
AcDbPolyline
90
9
70
1
43
0.0
10
-11.340218072332476
20
-19.41078413746704
42
-0.41421356237309576
10
-8.5141479889069664
20
-19.526230590714221
10
-6.7942239596363674
20
-21.392659008733787
42
-0.29498990084463039
10
-6.4250841871593209
20
-23.532046840170253
10
-10.394008318223872
20
-32.845449597854113
42
-0.60858379713166688
10
-13.936947376412739
20
-33.11001617702577
42
0.048200392373609256
10
-15.679067994206171
20
-30.809997030249221
10
-18.011895762778639
20
-28.278457283429496
42
-0.41421356237309509
10
-17.896449309531452
20
-25.452387200003987
0
ARC
5
102
100
AcDbEntity
8
0
100
AcDbCircle
10
-55.022832593552778
20
-116.62392464576691
30
0
40
4.9999999999993348
210
-0
220
0
230
1
100
AcDbArc
50
302.78319262484467
51
318.48432679212095
0
ARC
5
103
100
AcDbEntity
8
0
100
AcDbCircle
10
-54.873501516985328
20
-128.42223843426177
30
0
40
4.9999999999999263
210
0
220
0
230
1
100
AcDbArc
50
122.78319262484477
51
160.07282213756179
0
LINE
5
104
100
AcDbEntity
8
0
100
AcDbLine
10
-45.521635793251832
20
-143.2948679087441
30
0
11
-44.838318432401564
21
-144.63018711566068
31
0
0
LINE
5
105
100
AcDbEntity
8
0
100
AcDbLine
10
-63.834231065025918
20
-142.4944628485074
30
0
11
-59.119429833716353
21
-155.23414257530538
31
0
0
LWPOLYLINE
5
106
100
AcDbEntity
8
0
100
AcDbPolyline
90
6
70
1
43
0.0
10
-53.04594136125899
20
-147.49951440914793
10
-55.695053537855742
20
-146.53531642963458
42
0.64322161401436007
10
-57.736014449572323
20
-148.61221334216447
10
-56.96604980824322
20
-150.61803980949185
42
0.45572625553258139
10
-54.696625733453558
20
-151.44404262164238
10
-52.817478198185988
20
-150.40241413382836
42
0.64322161401432365
0
ARC
5
107
100
AcDbEntity
8
0
100
AcDbCircle
10
-57.200238158746714
20
-154.67137857971974
30
0
40
2.0000000000000702
210
0
220
0
230
1
100
AcDbArc
50
196.34270397779113
51
304.04528909669483
0
ARC
5
108
100
AcDbEntity
8
0
100
AcDbCircle
10
-59.002846542072632
20
-141.20693669678545
30
0
40
4.9999999999999769
210
0
220
0
230
1
100
AcDbArc
50
160.41644656522334
51
205.69572351476205
0
LINE
5
109
100
AcDbEntity
8
0
100
AcDbLine
10
-43.418908097733855
20
-149.4792582369536
30
0
11
-56.080542086020621
21
-156.32856918575217
31
0
0
ARC
5
110
100
AcDbEntity
8
0
100
AcDbCircle
10
-54.190184156134961
20
-129.75755764117838
30
0
40
1.550000000000006
210
0
220
0
230
1
100
AcDbArc
50
-152.89999999999833
51
27.099999146228008
0
LINE
5
111
100
AcDbEntity
8
0
100
AcDbLine
10
-56.961432749504993
20
-141.90344919360405
30
0
11
-58.296751935860698
21
-142.58676654393275
31
0
0
LINE
5
112
100
AcDbEntity
8
0
100
AcDbLine
10
-59.708941127723499
20
-139.8271068391166
30
0
11
-58.373621941367773
21
-139.14378948878795
31
0
0
ARC
5
113
100
AcDbEntity
8
0
100
AcDbCircle
10
-46.901465640399039
20
-144.000962514956
30
0
40
1.5499999999999337
210
0
220
-0
230
1
100
AcDbArc
50
27.099999999999234
51
207.10000000000016
0
LINE
5
114
100
AcDbEntity
8
0
100
AcDbLine
10
-24.839697620947824
20
-32.600878955499823
30
0
11
-27.568205357149786
21
-29.639954931551355
31
0
0
CIRCLE
5
115
100
AcDbEntity
8
0
100
AcDbCircle
10
-24.420566152971066
20
-24.463007965340857
30
0
40
1.5499999999999985
210
0
220
0
230
1
0
LINE
5
116
100
AcDbEntity
8
0
100
AcDbLine
10
-38.767991285045753
20
-125.1152674492289
30
0
11
-38.475826471074427
21
-119.17099525111838
31
0
0
ARC
5
117
100
AcDbEntity
8
0
100
AcDbCircle
10
-43.424122461378204
20
-133.23490082019927
30
0
40
1.5499999999999738
210
0
220
0
230
1
100
AcDbArc
50
117.09999914622603
51
297.09999914622648
0
LINE
5
118
100
AcDbEntity
8
0
100
AcDbLine
10
-57.580809575884615
20
-124.21861106326202
30
0
11
-52.315524534653818
21
-120.82755201676616
31
0
0
LINE
5
119
100
AcDbEntity
8
0
100
AcDbLine
10
0.01157970330742053
20
-19.3224957171048
30
0
11
-37.41446604775382
21
-114.32004304589628
31
0
0
ARC
5
120
100
AcDbEntity
8
0
100
AcDbCircle
10
-46.218148279548828
20
-145.33628172187267
30
0
40
1.550000000000014
210
0
220
0
230
1
100
AcDbArc
50
-152.90000085377309
51
27.099999146229283
0
LINE
5
121
100
AcDbEntity
8
0
100
AcDbLine
10
-44.130217047029063
20
-131.85507096253042
30
0
11
-42.79489786067353
21
-131.17175361220183
31
0
0
ARC
5
122
100
AcDbEntity
8
0
100
AcDbCircle
10
-42.088803254461531
20
-132.5515834593491
30
0
40
4.9999999999998863
210
-0
220
0
230
1
100
AcDbArc
50
-18.557912981444577
51
17.909005092337505
0
LINE
5
123
100
AcDbEntity
8
0
100
AcDbLine
10
-38.573293187580134
20
-126.76321331058892
30
0
11
-37.331072827738431
21
-131.01405258595753
31
0
0
LINE
5
124
100
AcDbEntity
8
0
100
AcDbLine
10
-41.382708648249597
20
-133.93141330649627
30
0
11
-42.718027855166305
21
-134.61473066734655
31
0
0
ARC
5
125
100
AcDbEntity
8
0
100
AcDbCircle
10
-54.873501516985328
20
-128.42223843426177
30
0
40
1.5499999999999816
210
0
220
-0
230
1
100
AcDbArc
50
27.099999999999696
51
207.1000000000011
0
LINE
5
126
100
AcDbEntity
8
0
100
AcDbLine
10
-55.570014003282189
20
-130.46365224739037
30
0
11
-56.253331364132535
21
-129.12833304047373
31
0
0
LINE
5
127
100
AcDbEntity
8
0
100
AcDbLine
10
0.01157970330742053
20
-19.3224957171048
30
0
11
0.01157970330742053
21
-1.4493205907433726
31
0
0
LINE
5
128
100
AcDbEntity
8
0
100
AcDbLine
10
-47.597978137217709
20
-146.04237630752357
30
0
11
-48.281295487546245
21
-144.70705712116794
31
0
0
ARC
5
129
100
AcDbEntity
8
0
100
AcDbCircle
10
-57.667527335155874
20
-140.52361933593528
30
0
40
1.5499999999999228
210
-0
220
0
230
1
100
AcDbArc
50
-62.900000853771871
51
117.09999914622578
0
ARC
5
130
100
AcDbEntity
8
0
100
AcDbCircle
10
-24.420566152971066
20
-24.463007965340857
30
0
40
6.0000000000000036
210
0
220
0
230
1
100
AcDbArc
50
140.43759416954595
51
234.73915993492929
0
ARC
5
131
100
AcDbEntity
8
0
100
AcDbCircle
10
-33.774019829304528
20
-125.3607243685484
30
0
40
4.999999999999992
210
0
220
0
230
1
100
AcDbArc
50
177.18613990453846
51
196.28991651374895
0
ARC
5
132
100
AcDbEntity
8
0
100
AcDbCircle
10
-29.251972425957
20
-36.666814400767393
30
0
40
6.0000000000001616
210
0
220
-0
230
1
100
AcDbArc
50
20.240667123469603
51
42.660737839917417
0
LINE
5
133
100
AcDbEntity
8
0
100
AcDbLine
10
-29.046154058330927
20
-20.641498246684023
30
0
11
-29.804791128741268
21
-21.815344578448116
31
0
0
LINE
5
134
100
AcDbEntity
8
0
100
AcDbLine
10
-53.493671669838093
20
-127.71614382804984
30
0
11
-52.810354308987812
21
-129.05146303496642
31
0
0
ARC
5
135
100
AcDbEntity
8
0
100
AcDbCircle
10
-42.088803254461531
20
-132.5515834593491
30
0
40
1.5499999999999341
210
-0
220
0
230
1
100
AcDbArc
50
-62.899999999999139
51
117.09999914622881
0
CIRCLE
5
136
100
AcDbEntity
8
0
100
AcDbCircle
10
-50.545824898267114
20
-136.8792600780672
30
0
40
4.0000000000000044
210
-0
220
0
230
1
0
ARC
5
137
100
AcDbEntity
8
0
100
AcDbCircle
10
-28.60406342875125
20
-144.04284347659478
30
0
40
13.209056309317283
210
0
220
0
230
1
100
AcDbArc
50
131.4545063143689
51
192.74176657066027
0
LINE
5
138
100
AcDbEntity
8
0
100
AcDbLine
10
-11.983783337975799
20
0.01094056709986857
30
0
11
-1.4383839888723671
21
0.01094056709986857
31
0
0
ARC
5
139
100
AcDbEntity
8
0
100
AcDbCircle
10
-59.002846542072632
20
-141.20693669678545
30
0
40
1.5499999999999621
210
0
220
0
230
1
100
AcDbArc
50
117.09999914622624
51
297.10000062500472
0
ARC
5
140
100
AcDbEntity
8
0
100
AcDbCircle
10
0.011579703307446941
20
0.00067940925662757212
30
0
40
1.4500000000000006
210
0
220
0
230
1
100
AcDbArc
50
179.59453383135099
51
269.99999999999898
0
LINE
5
141
100
AcDbEntity
8
0
100
AcDbLine
10
0.011579703307446941
20
0
30
0
11
0.011579703307446941
21
0.00067940925662757212
31
0
0
LINE
5
142
100
AcDbEntity
8
0
100
AcDbLine
10
-51.278960425235162
20
-119.93804914362302
30
0
11
-47.848239410397717
21
-116.06246120689329
31
0
0
ARC
5
143
100
AcDbEntity
8
0
100
AcDbCircle
10
-27.446580594386695
20
-41.562998993610485
30
0
40
6
210
-0
220
0
230
1
100
AcDbArc
50
-18.91396273001774
51
20.240667123469308
0
ARC
5
144
100
AcDbEntity
8
0
100
AcDbCircle
10
-59.079855915351793
20
-106.1200877133234
30
0
40
14.999999999999932
210
-0
220
0
230
1
100
AcDbArc
50
318.48432679211965
51
341.66593115675511
0
LINE
5
145
100
AcDbEntity
8
0
100
AcDbLine
10
-21.817094380683599
20
-39.48721360737067
30
0
11
-23.622486212253762
21
-34.591029014527493
31
0
0
ARC
5
146
100
AcDbEntity
8
0
100
AcDbCircle
10
-72.232755765709157
20
-129.70361232583434
30
0
40
13.005918495063844
210
-0
220
0
230
1
100
AcDbArc
50
-49.078810377360071
51
13.270547943482272
0
ARC
5
147
100
AcDbEntity
8
0
100
AcDbCircle
10
-23.493912103850079
20
-119.90736600907695
30
0
40
15.000000000000659
210
0
220
0
230
1
100
AcDbArc
50
158.13084705713277
51
177.18613990453846
0
LINE
5
148
100
AcDbEntity
8
0
100
AcDbLine
10
-21.770542233493391
20
-43.507886786175305
30
0
11
-44.841276830423602
21
-110.83844183761762
31
0
0
LINE
5
149
100
AcDbEntity
8
0
100
AcDbLine
10
-11.983783337975799
20
0.01094056709986857
30
0
11
-29.046154058330927
21
-20.641498246684023
31
0
0
CIRCLE
5
150
100
AcDbEntity
8
0
100
AcDbCircle
10
-9.9884202966925528
20
-9.9993205907433733
30
0
40
1.4500000000000002
210
0
220
0
230
1
0
CIRCLE
5
151
100
AcDbEntity
8
0
100
AcDbCircle
10
-15.250000000000002
20
-15.25
30
0
40
3.0499999999999994
210
0
220
0
230
1
0
ARC
5
152
100
AcDbEntity
8
0
100
AcDbCircle
10
-29.038963625485973
20
-30.995266746640368
30
0
40
1.9999999999997842
210
0
220
-0
230
1
100
AcDbArc
50
42.660737839917672
51
54.739159934930356
0
ENDSEC
0
SECTION
2
OBJECTS
0
DICTIONARY
5
C
100
AcDbDictionary
3
ACAD_GROUP
350
D
3
ACAD_MLINESTYLE
350
17
0
DICTIONARY
5
D
100
AcDbDictionary
0
DICTIONARY
5
1A
330
C
100
AcDbDictionary
0
DICTIONARY
5
17
100
AcDbDictionary
0
ENDSEC
0
EOF
