0
SECTION
2
HEADER
9
$INSUNITS
70
4
9
$ACADVER
1
AC1014
9
$HANDSEED
5
FFFF
0
ENDSEC
0
SECTION
2
TABLES
0
TABLE
2
VPORT
5
8
100
AcDbSymbolTable
0
ENDTAB
0
TABLE
2
LTYPE
5
5
100
AcDbSymbolTable
0
LTYPE
5
14
100
AcDbSymbolTableRecord
100
AcDbLinetypeTableRecord
2
BYBLOCK
70
0
0
LTYPE
5
15
100
AcDbSymbolTableRecord
100
AcDbLinetypeTableRecord
2
BYLAYER
70
0
0
ENDTAB
0
TABLE
2
LAYER
5
2
100
AcDbSymbolTable
70
2
0
LAYER
5
50
100
AcDbSymbolTableRecord
100
AcDbLayerTableRecord
2
0
70
0
6
CONTINUOUS
0
ENDTAB
0
TABLE
2
STYLE
5
3
100
AcDbSymbolTable
70
1
0
STYLE
5
11
100
AcDbSymbolTableRecord
100
AcDbTextStyleTableRecord
2
STANDARD
70
0
0
ENDTAB
0
TABLE
2
VIEW
5
6
100
AcDbSymbolTable
70
0
0
ENDTAB
0
TABLE
2
UCS
5
7
100
AcDbSymbolTable
70
0
0
ENDTAB
0
TABLE
2
APPID
5
9
100
AcDbSymbolTable
70
2
0
APPID
5
12
100
AcDbSymbolTableRecord
100
AcDbRegAppTableRecord
2
ACAD
70
0
0
ENDTAB
0
TABLE
2
DIMSTYLE
5
A
100
AcDbSymbolTable
70
1
0
ENDTAB
0
TABLE
2
BLOCK_RECORD
5
1
100
AcDbSymbolTable
70
1
0
BLOCK_RECORD
5
1F
100
AcDbSymbolTableRecord
100
AcDbBlockTableRecord
2
*MODEL_SPACE
0
BLOCK_RECORD
5
1B
100
AcDbSymbolTableRecord
100
AcDbBlockTableRecord
2
*PAPER_SPACE
0
ENDTAB
0
ENDSEC
0
SECTION
2
BLOCKS
0
BLOCK
5
20
100
AcDbEntity
100
AcDbBlockBegin
2
*MODEL_SPACE
0
ENDBLK
5
21
100
AcDbEntity
100
AcDbBlockEnd
0
BLOCK
5
1C
100
AcDbEntity
100
AcDbBlockBegin
2
*PAPER_SPACE
0
ENDBLK
5
1D
100
AcDbEntity
100
AcDbBlockEnd
0
ENDSEC
0
SECTION
2
ENTITIES
0
LWPOLYLINE
5
100
100
AcDbEntity
8
0
100
AcDbPolyline
90
4
70
1
43
0.0
10
17.494904713919269
20
8.7782435691607184
10
17.494904713919276
20
-8.7217564308392266
42
-0.99999999999999989
10
13.994904713919293
20
-8.7217564308392355
10
13.994904713919274
20
8.7782435691607077
42
-0.99999999999999989
0
LWPOLYLINE
5
101
100
AcDbEntity
8
0
100
AcDbPolyline
90
58
70
1
43
0.0
10
-106.92538614541391
20
-15.897471365788238
42
-0.38681414634218514
10
-110.45184797057529
20
-13.309637982532026
42
-0.10580194221716929
10
-110.43651546970587
20
-11.949525290508848
42
-0.29340759396997812
10
-107.29538163027216
20
-8.6989156963498804
10
-104.82273676576023
20
-8.0176987381536016
42
-0.068184524608060182
10
-104.28455643842219
20
-7.9458743154165994
10
-90.764700015466019
20
-7.9929827078618469
42
0.41421356237309309
10
-88.757743427488634
20
-5.9999635775035394
10
-88.73683724106003
20
0
10
-88.73683724106003
20
6.0000000000000009
42
0.41421356237309664
10
-90.73683724106003
20
8.0000000000000053
10
-104.27999824470342
20
7.9999999999999973
42
-0.069307607427137069
10
-104.82653251268843
20
8.0761236282135851
10
-107.25246861162815
20
8.76528288473137
42
-0.3247463018754731
10
-110.50186987325274
20
12.90059132303978
42
-0.41421356237308926
10
-107.25186987325279
20
16.15059132303978
10
-96.50576578881028
20
16.150591323039773
42
0.41421356237314055
10
-95.70576578881024
20
15.350591323039787
10
-80.273603685487629
20
15.350591323039772
10
-48.066469577920188
20
15.350591323039772
10
-44.801735895396789
20
15.350591323039776
42
0.41421356237310075
10
-44.001735895396799
20
16.150591323039773
10
29.032904819432915
20
16.150591323039766
42
-0.031954595856103489
10
29.670042340527321
20
16.109830758599788
10
32.894577941542458
20
15.695559044921286
42
-0.089691611429148166
10
34.591064741158377
20
15.158332446270421
42
0.09629676103080681
10
37.330953857424241
20
14.330013503569646
10
38.258146347727219
20
14.277870838219533
42
-0.32390717142935477
10
38.713054923393528
20
13.907994929589035
42
0.32390717142937725
10
39.713853789859449
20
13.094267930601946
10
52.693345409686927
20
12.364338282739791
42
0.32390717142935738
10
53.779068783259909
20
13.060725212598019
42
-0.32390717142937475
10
54.272579407611246
20
13.377264726169937
10
55.837611191425935
20
13.289251795285351
42
-0.02988515427208556
10
56.181644737832102
20
13.249188168684761
10
67.304219290992208
20
11.274785683197067
42
-0.38476464277280709
10
70.000000345072493
20
8.2902504039712195
10
70.000000345064691
20
-8.2822024261994613
42
-0.38561178341757918
10
67.295411336136965
20
-11.267622387471018
10
56.189127075192083
20
-13.242479344610011
42
-0.031193333940612453
10
55.829966501135857
20
-13.283459555001151
10
54.433403031889974
20
-13.355085252141546
42
-0.33167926656827351
10
53.936581767011411
20
-13.02295351937984
42
0.33167926656828062
10
52.694528604814934
20
-12.192624187475538
10
39.711592335612252
20
-12.858481401765298
42
0.33167926656827124
10
38.561003076477562
20
-13.811522436509724
42
-0.33167926656828672
10
38.100767372823682
20
-14.192738850407494
10
37.339809427482408
20
-14.231766180371253
42
0.10918899114039213
10
34.263160567634799
20
-15.238193697605709
42
-0.10085233305860244
10
32.37587567625264
20
-15.890203067704336
10
29.688553485013248
20
-16.245945588560822
42
-0.033831769278395499
10
29.014074299431805
20
-16.289154423444753
10
-44.001802290335092
20
-16.021721974459073
42
0.56676192326186936
10
-45.188482013521487
20
-15.33172339890494
10
-48.173342353156954
20
-15.321322994649535
10
-80.380085440501801
20
-15.209102284216193
10
-95.702978297286435
20
-15.155711417663225
42
0.40789918096278704
10
-96.505513977811944
20
-15.935635831685635
0
LWPOLYLINE
5
102
100
AcDbEntity
8
0
100
AcDbPolyline
90
8
70
1
43
0.0
10
-98.053735895396841
20
10.054999999999769
10
-98.053735895396812
20
12.254999999999765
42
0.99999999999999989
10
-99.653735895396878
20
12.254999999999743
10
-101.65373589539684
20
12.25499999999974
42
0.99999999999999989
10
-103.2537358953968
20
12.254999999999722
10
-103.25373589539682
20
10.05499999999973
42
0.99999999999999989
10
-101.65373589539682
20
10.054999999999774
10
-99.653735895396807
20
10.054999999999779
42
0.99999999999999989
0
LWPOLYLINE
5
103
100
AcDbEntity
8
0
100
AcDbPolyline
90
4
70
1
43
0.0
10
-17.505095286080735
20
8.7782435691607237
10
-17.505095286080724
20
-8.7217564308392319
42
-0.99999999999999989
10
-21.005095286080717
20
-8.7217564308392355
10
-21.005095286080735
20
8.7782435691607059
42
-0.99999999999999989
0
LWPOLYLINE
5
104
100
AcDbEntity
8
0
100
AcDbPolyline
90
6
70
1
43
0.0
10
5.7853381531686949
20
2.9480862365236598
42
0.47152701455803442
10
4.4965263468825123
20
2.8103759319808708
42
0.3059160468787045
10
4.5589304289374057
20
-3.0637689081174702
42
0.4715270145580312
10
5.8503769652458004
20
-3.1740677923229677
10
8.2913080836240578
20
-0.68071724501861042
42
0.41421356237309659
10
8.2786887004730669
20
0.50715511814540903
0
ARC
5
105
100
AcDbEntity
8
0
100
AcDbCircle
10
-30.14226016667191
20
17.057655272370912
30
0
40
2.0000000000000053
210
0
220
0
230
1
100
AcDbArc
50
269.99644865004063
51
270.07484931317151
0
CIRCLE
5
106
100
AcDbEntity
8
0
100
AcDbCircle
10
36.422712099757874
20
10.001212190191037
30
0
40
1.5000000000000002
210
0
220
0
230
1
0
LWPOLYLINE
5
107
100
AcDbEntity
8
0
100
AcDbPolyline
90
8
70
1
43
0.0
10
-69.853735895396824
20
10.055000000000078
42
0.99999999999999989
10
-68.253735895396858
20
10.055000000000069
10
-68.253735895396872
20
12.255000000000065
42
0.99999999999999989
10
-69.853735895396852
20
12.255000000000042
10
-71.853735895396781
20
12.25500000000004
42
0.99999999999999989
10
-73.453735895396761
20
12.255000000000022
10
-73.45373589539679
20
10.055000000000081
42
0.99999999999999989
10
-71.853735895396795
20
10.055000000000081
0
LWPOLYLINE
5
108
100
AcDbEntity
8
0
100
AcDbPolyline
90
4
70
1
43
0.0
10
39.096583131141244
20
2.5040242177917369
10
57.20235178047556
20
2.5040242177917369
42
-0.99999999999999989
10
57.20235178047556
20
-2.4959757822082631
10
39.096583131141244
20
-2.4959757822082631
42
-0.99999999999999989
0
LWPOLYLINE
5
109
100
AcDbEntity
8
0
100
AcDbPolyline
90
4
70
1
43
0.0
10
25.99490471391929
20
-8.7217564308392443
42
-0.99999999999999989
10
22.494904713919293
20
-8.721756430839223
10
22.494904713919293
20
8.7782435691607095
42
-0.99999999999999989
10
25.99490471391929
20
8.7782435691607148
0
LWPOLYLINE
5
110
100
AcDbEntity
8
0
100
AcDbPolyline
90
4
70
1
43
0.0
10
-13.505095286080708
20
-8.7217564308392355
10
-13.505095286080728
20
8.7782435691607077
42
-0.99999999999999989
10
-10.005095286080737
20
8.778243569160713
10
-10.005095286080717
20
-8.7217564308392319
42
-0.99999999999999989
0
LWPOLYLINE
5
111
100
AcDbEntity
8
0
100
AcDbPolyline
90
4
70
1
43
0.0
10
62.05664033598331
20
-2.9959757822082684
42
0.99999999999999989
10
64.556640335983289
20
-2.9959757822082445
10
64.556640335983303
20
3.0040242177917205
42
0.99999999999999989
10
62.056640335983317
20
3.0040242177917391
0
ARC
5
112
100
AcDbEntity
8
0
100
AcDbCircle
10
67.000000345072436
20
8.2902504039712195
30
0
40
3.0000000000000515
210
0
220
0
230
1
100
AcDbArc
50
0
51
84.179841884734302
0
ARC
5
113
100
AcDbEntity
8
0
100
AcDbCircle
10
57.20235178047556
20
-5.4959757822082631
30
0
40
1.0000000000000004
210
0
220
0
230
1
100
AcDbArc
50
-86.160917325882153
51
93.839082674117833
0
LWPOLYLINE
5
114
100
AcDbEntity
8
0
100
AcDbPolyline
90
6
70
1
43
0.0
10
0.80501887828244856
20
-1.7926989212180011
42
0.41421356237309492
10
-0.38292051411093903
20
-1.7926989212179876
10
-2.8502005627079874
20
-4.2599789698150445
42
0.4715270145580403
10
-2.7261889710059721
20
-5.5501809404861095
42
0.30591604687870416
10
3.148287335177467
20
-5.5501809404861042
42
0.47152701455804419
10
3.2722989268794898
20
-4.2599789698150445
0
LWPOLYLINE
5
115
100
AcDbEntity
8
0
100
AcDbPolyline
90
6
70
1
43
0.0
10
-1.5949227456512796
20
0.58568188583182135
10
-4.0621878167724192
20
3.0534240019526986
42
0.47153771067371769
10
-5.3524182204704216
20
2.9295127606326288
42
0.30591575937633775
10
-5.3527835671797259
20
-2.9452397835484803
42
0.4715166398795006
10
-4.0626095435724245
20
-3.0693524540552817
10
-1.5950375784211124
20
-0.60225750101138975
42
0.41421356237309315
0
LWPOLYLINE
5
116
100
AcDbEntity
8
0
100
AcDbPolyline
90
4
70
1
43
0.0
10
29.74490471391929
20
-7.7217564308392372
42
0.99999999999999989
10
32.744904713919269
20
-7.7217564308392328
10
32.74490471391929
20
7.7782435691607095
42
0.99999999999999989
10
29.74490471391929
20
7.7782435691607148
0
LWPOLYLINE
5
117
100
AcDbEntity
8
0
100
AcDbPolyline
90
8
70
1
43
0.0
10
-33.873012295412501
20
-6.9769957460243814
10
-33.873012295412487
20
6.9708619905113611
42
0.44178454158917768
10
-35.466067204061815
20
8.7197783101177695
10
-42.414290944462401
20
8.7197783101177588
42
0.41421356237310314
10
-44.014290944462431
20
7.1197783101177574
10
-44.014290944462431
20
-7.1260131617840949
42
0.41421356237309848
10
-42.414290944462401
20
-8.7260131617840919
10
-35.465381500825281
20
-8.7260131617840901
42
0.44167724995401919
0
LWPOLYLINE
5
118
100
AcDbEntity
8
0
100
AcDbPolyline
90
4
70
1
43
0.0
10
42.36730670741121
20
7.5017802471120127
10
57.269306287082941
20
6.5017802471120127
42
-0.99999999999999989
10
57.135397273868179
20
4.506268188471461
10
42.233397694196455
20
5.5062681884714637
42
-0.99999999999999989
0
ARC
5
119
100
AcDbEntity
8
0
100
AcDbCircle
10
42.300352200803829
20
-6.4959757822082631
30
0
40
1.0000000000000004
210
0
220
0
230
1
100
AcDbArc
50
93.839082674117435
51
273.83908267411783
0
LINE
5
120
100
AcDbEntity
8
0
100
AcDbLine
10
-81.519378830190803
20
15.061280253710985
30
0
11
-81.519378873564733
21
15.060805719393064
31
0
0
LWPOLYLINE
5
121
100
AcDbEntity
8
0
100
AcDbPolyline
90
6
70
1
43
0.0
10
-0.31652087054979039
20
1.7921690322297568
42
0.41421356237309515
10
0.87141852184360769
20
1.7921690322297392
10
3.3386985704406658
20
4.259449080826812
42
0.47152701455803975
10
3.2146869787386456
20
5.5496510514978716
42
0.30591604687870427
10
-2.6597893274448174
20
5.5496510514978681
42
0.47152701455804036
10
-2.7838009191468487
20
4.2594490808268164
0
LINE
5
122
100
AcDbEntity
8
0
100
AcDbLine
10
42.36730670741121
20
-7.493731811528539
30
0
11
57.269306287082941
21
-6.493731811528539
31
0
0
CIRCLE
5
123
100
AcDbEntity
8
0
100
AcDbCircle
10
-107.25186987325279
20
12.900591323039761
30
0
40
1.5000000000000002
210
0
220
0
230
1
0
LWPOLYLINE
5
124
100
AcDbEntity
8
0
100
AcDbPolyline
90
8
70
1
43
0.0
10
-61.514290944462466
20
-5.9002216898822359
42
0.41421356237310236
10
-59.914290944462401
20
-7.5002216898822471
10
-52.96538150082506
20
-7.5002216898822303
42
0.44167724995394098
10
-51.373012295412472
20
-5.7512042741227534
10
-51.373012295412508
20
5.7508619905113623
42
0.44178454158918412
10
-52.966067204061822
20
7.4997783101177706
10
-59.914290944462394
20
7.4997783101177609
42
0.41421356237309892
10
-61.514290944462431
20
5.8997783101177568
0
CIRCLE
5
125
100
AcDbEntity
8
0
100
AcDbCircle
10
-28.256768038717127
20
-11.826240722120405
30
0
40
1.5000000000000002
210
0
220
0
230
1
0
CIRCLE
5
126
100
AcDbEntity
8
0
100
AcDbCircle
10
-63.251883001004657
20
11.934964241091508
30
0
40
1.5000000000000002
210
0
220
0
230
1
0
CIRCLE
5
127
100
AcDbEntity
8
0
100
AcDbCircle
10
36.422712099757874
20
-9.9987878098089649
30
0
40
1.5000000000000013
210
0
220
0
230
1
0
CIRCLE
5
128
100
AcDbEntity
8
0
100
AcDbCircle
10
66.513806007625988
20
-7.8567233081714658
30
0
40
1.5000000000000002
210
0
220
0
230
1
0
CIRCLE
5
129
100
AcDbEntity
8
0
100
AcDbCircle
10
28.188765728745931
20
-13.151647761377181
30
0
40
1.5000000000000002
210
0
220
0
230
1
0
CIRCLE
5
130
100
AcDbEntity
8
0
100
AcDbCircle
10
66.51677620274836
20
7.8614878111958921
30
0
40
1.5000000000000002
210
0
220
0
230
1
0
CIRCLE
5
131
100
AcDbEntity
8
0
100
AcDbCircle
10
56.422712099757888
20
-9.9987878098089649
30
0
40
1.5000000000000002
210
0
220
0
230
1
0
LINE
5
132
100
AcDbEntity
8
0
100
AcDbLine
10
70.000000345072493
20
8.2902504039712195
30
0
11
70.000000345064691
21
-8.2822024261994613
31
0
0
LINE
5
133
100
AcDbEntity
8
0
100
AcDbLine
10
57.135397273868179
20
-4.4982197528879873
30
0
11
42.233397694196455
21
-5.4982197528879873
31
0
0
ARC
5
134
100
AcDbEntity
8
0
100
AcDbCircle
10
67.000000345079854
20
-8.2822024260072098
30
0
40
2.9999999999906546
210
0
220
0
230
1
100
AcDbArc
50
275.6510920994578
51
360
0
LINE
5
135
100
AcDbEntity
8
0
100
AcDbLine
10
-30.100379003450044
20
-15.001590524455281
30
0
11
-30.098260215882249
21
-15.001590718105755
31
0
0
CIRCLE
5
136
100
AcDbEntity
8
0
100
AcDbCircle
10
-107.26633948721188
20
-12.665405336339449
30
0
40
1.5000000000000002
210
0
220
0
230
1
0
CIRCLE
5
137
100
AcDbEntity
8
0
100
AcDbCircle
10
28.202352785585845
20
13.012114510299213
30
0
40
1.5000000000000002
210
0
220
0
230
1
0
CIRCLE
5
138
100
AcDbEntity
8
0
100
AcDbCircle
10
-63.256768038717141
20
-11.826240722120405
30
0
40
1.5000000000000002
210
0
220
0
230
1
0
CIRCLE
5
139
100
AcDbEntity
8
0
100
AcDbCircle
10
56.422712099757888
20
10.001212190191037
30
0
40
1.5000000000000002
210
0
220
0
230
1
0
CIRCLE
5
140
100
AcDbEntity
8
0
100
AcDbCircle
10
-28.251883001004664
20
11.934964241091508
30
0
40
1.5000000000000002
210
0
220
0
230
1
0
LWPOLYLINE
5
141
100
AcDbEntity
8
0
100
AcDbPolyline
90
8
70
1
43
0.0
10
-71.373012295412479
20
-5.7512042741227534
10
-71.373012295412508
20
5.7508619905113623
42
0.44178454158918412
10
-72.966067204061829
20
7.4997783101177706
10
-79.914290944462394
20
7.4997783101177609
42
0.41421356237309892
10
-81.514290944462431
20
5.8997783101177568
10
-81.514290944462459
20
-5.9002216898822359
42
0.41421356237310236
10
-79.914290944462408
20
-7.5002216898822471
10
-72.96538150082506
20
-7.5002216898822303
42
0.44167724995394098
0
LWPOLYLINE
5
142
100
AcDbEntity
8
0
100
AcDbPolyline
90
8
70
1
43
0.0
10
-101.65373589539682
20
-10.054999999999774
10
-99.653735895396807
20
-10.054999999999779
42
-0.99999999999999989
10
-98.053735895396841
20
-10.054999999999769
10
-98.053735895396812
20
-12.254999999999765
42
-0.99999999999999989
10
-99.653735895396878
20
-12.254999999999743
10
-101.65373589539685
20
-12.254999999999734
42
-0.99999999999999989
10
-103.2537358953968
20
-12.254999999999722
10
-103.25373589539682
20
-10.05499999999973
42
-0.99999999999999989
0
LWPOLYLINE
5
143
100
AcDbEntity
8
0
100
AcDbPolyline
90
8
70
1
43
0.0
10
-69.853735895396852
20
-12.255000000000042
10
-71.853735895396781
20
-12.25500000000004
42
-0.99999999999999989
10
-73.453735895396761
20
-12.255000000000022
10
-73.45373589539679
20
-10.055000000000081
42
-0.99999999999999989
10
-71.853735895396795
20
-10.055000000000081
10
-69.853735895396824
20
-10.055000000000078
42
-0.99999999999999989
10
-68.253735895396858
20
-10.055000000000069
10
-68.253735895396858
20
-12.255000000000059
42
-0.99999999999999989
0
ENDSEC
0
SECTION
2
OBJECTS
0
DICTIONARY
5
C
100
AcDbDictionary
3
ACAD_GROUP
350
D
3
ACAD_MLINESTYLE
350
17
0
DICTIONARY
5
D
100
AcDbDictionary
0
DICTIONARY
5
1A
330
C
100
AcDbDictionary
0
DICTIONARY
5
17
100
AcDbDictionary
0
ENDSEC
0
EOF
