0
SECTION
2
HEADER
9
$INSUNITS
70
4
9
$ACADVER
1
AC1014
9
$HANDSEED
5
FFFF
0
ENDSEC
0
SECTION
2
TABLES
0
TABLE
2
VPORT
5
8
100
AcDbSymbolTable
0
ENDTAB
0
TABLE
2
LTYPE
5
5
100
AcDbSymbolTable
0
LTYPE
5
14
100
AcDbSymbolTableRecord
100
AcDbLinetypeTableRecord
2
BYBLOCK
70
0
0
LTYPE
5
15
100
AcDbSymbolTableRecord
100
AcDbLinetypeTableRecord
2
BYLAYER
70
0
0
ENDTAB
0
TABLE
2
LAYER
5
2
100
AcDbSymbolTable
70
2
0
LAYER
5
50
100
AcDbSymbolTableRecord
100
AcDbLayerTableRecord
2
0
70
0
6
CONTINUOUS
0
ENDTAB
0
TABLE
2
STYLE
5
3
100
AcDbSymbolTable
70
1
0
STYLE
5
11
100
AcDbSymbolTableRecord
100
AcDbTextStyleTableRecord
2
STANDARD
70
0
0
ENDTAB
0
TABLE
2
VIEW
5
6
100
AcDbSymbolTable
70
0
0
ENDTAB
0
TABLE
2
UCS
5
7
100
AcDbSymbolTable
70
0
0
ENDTAB
0
TABLE
2
APPID
5
9
100
AcDbSymbolTable
70
2
0
APPID
5
12
100
AcDbSymbolTableRecord
100
AcDbRegAppTableRecord
2
ACAD
70
0
0
ENDTAB
0
TABLE
2
DIMSTYLE
5
A
100
AcDbSymbolTable
70
1
0
ENDTAB
0
TABLE
2
BLOCK_RECORD
5
1
100
AcDbSymbolTable
70
1
0
BLOCK_RECORD
5
1F
100
AcDbSymbolTableRecord
100
AcDbBlockTableRecord
2
*MODEL_SPACE
0
BLOCK_RECORD
5
1B
100
AcDbSymbolTableRecord
100
AcDbBlockTableRecord
2
*PAPER_SPACE
0
ENDTAB
0
ENDSEC
0
SECTION
2
BLOCKS
0
BLOCK
5
20
100
AcDbEntity
100
AcDbBlockBegin
2
*MODEL_SPACE
0
ENDBLK
5
21
100
AcDbEntity
100
AcDbBlockEnd
0
BLOCK
5
1C
100
AcDbEntity
100
AcDbBlockBegin
2
*PAPER_SPACE
0
ENDBLK
5
1D
100
AcDbEntity
100
AcDbBlockEnd
0
ENDSEC
0
SECTION
2
ENTITIES
0
CIRCLE
5
100
100
AcDbEntity
8
0
100
AcDbCircle
10
10.005012366541914
20
-10.026393280513958
30
0
40
2.5
210
0
220
0
230
1
0
LWPOLYLINE
5
101
100
AcDbEntity
8
0
100
AcDbPolyline
90
6
70
1
43
0.0
10
86.357026674808651
20
-2.6857935783178295
42
-0.41421356237310525
10
87.488397524707153
20
-2.6857935783178415
10
90.533363881234095
20
-5.7307599348447971
42
-0.60287681499955914
10
90.011251345117742
20
-7.4206063200419603
10
82.105259801706694
20
-8.9088570541485463
42
-0.68686963586873306
10
81.498598548185782
20
-7.5442217049406688
0
LWPOLYLINE
5
102
100
AcDbEntity
8
0
100
AcDbPolyline
90
6
70
1
43
0.0
10
94.690222437893098
20
-5.7156884825031771
42
0.66817863791931942
10
96.141263201901637
20
-5.1146477184946093
10
96.141263201901651
20
5.1170720988766849
42
0.66817863791931686
10
94.690222437893112
20
5.7181128628852438
10
89.574362529207434
20
0.6022529541995969
42
0.41421356237308715
10
89.574362529207434
20
-0.5998285738175313
0
CIRCLE
5
103
100
AcDbEntity
8
0
100
AcDbCircle
10
-9.9951907371821278
20
9.9734594871076503
30
0
40
2.125
210
0
220
0
230
1
0
LWPOLYLINE
5
104
100
AcDbEntity
8
0
100
AcDbPolyline
90
6
70
1
43
0.0
10
90.547733366595665
20
5.7475538005884061
10
87.488397524707153
20
2.6882179586999295
42
-0.41421356237308266
10
86.357026674808651
20
2.6882179586999206
10
81.440703999394955
20
7.604540634113544
42
-0.6886872819420361
10
82.051308171904935
20
8.9689640048983144
10
90.029240639335271
20
7.4367118730329622
42
-0.60162153570799592
0
CIRCLE
5
105
100
AcDbEntity
8
0
100
AcDbCircle
10
-9.9951907371821278
20
-10.026540512892213
30
0
40
2.5
210
0
220
0
230
1
0
ARC
5
106
100
AcDbEntity
8
0
100
AcDbCircle
10
104.00000128941763
20
4.85912279203382
30
0
40
3.0000000000000018
210
0
220
-0
230
1
100
AcDbArc
50
0.045461381347560482
51
64.480480994539406
0
LINE
5
107
100
AcDbEntity
8
0
100
AcDbLine
10
29.702352785585845
20
13.012114510299213
30
0
11
29.702351976567076
21
13.010556609245114
31
0
0
CIRCLE
5
108
100
AcDbEntity
8
0
100
AcDbCircle
10
36.422712099757874
20
-9.9987878098089649
30
0
40
1
210
0
220
0
230
1
0
CIRCLE
5
109
100
AcDbEntity
8
0
100
AcDbCircle
10
-15.239970251445257
20
15.231748572986696
30
0
40
3.0499999999999994
210
0
220
0
230
1
0
CIRCLE
5
110
100
AcDbEntity
8
0
100
AcDbCircle
10
28.202352785585845
20
13.012114510299213
30
0
40
1.45
210
0
220
0
230
1
0
CIRCLE
5
111
100
AcDbEntity
8
0
100
AcDbCircle
10
28.188765728745931
20
-13.151647761377181
30
0
40
1.45
210
0
220
0
230
1
0
CIRCLE
5
112
100
AcDbEntity
8
0
100
AcDbCircle
10
0
20
0
30
0
40
2.5
210
0
220
0
230
1
0
LWPOLYLINE
5
113
100
AcDbEntity
8
0
100
AcDbPolyline
90
6
70
1
43
0.0
10
-0.80202782739973333
20
4.3895587096396724
10
-4.0917345588624707
20
7.6792654411024213
42
-0.47152701455803575
10
-3.9263857699264317
20
9.3995347353305014
42
-0.30591604687870527
10
3.9062493049848586
20
9.3995347353305014
42
-0.47152701455803575
10
4.0715980939208771
20
7.6792654411024142
10
0.78189136245813806
20
4.3895587096396529
42
-0.41421356237309748
0
LWPOLYLINE
5
114
100
AcDbEntity
8
0
100
AcDbPolyline
90
6
70
1
43
0.0
10
19.697227860753465
20
-6.8013429019757643
10
16.156215447147602
20
-2.659718338880344
42
0.45073597972559415
10
14.139420017759011
20
-2.7524508135080374
10
12.764097303739526
20
-4.4604552272650224
42
0.48907535790535278
10
13.209952356352641
20
-6.349138202339959
10
18.285736999661808
20
-8.6722971678230678
42
0.80346864447474409
0
LWPOLYLINE
5
115
100
AcDbEntity
8
0
100
AcDbPolyline
90
6
70
1
43
0.0
10
-4.5065636608683759
20
0.78090918110909457
42
-0.41421356237308599
10
-4.5067167712281684
20
-0.80301000134852085
10
-7.7968127247632424
20
-4.0924699387403765
42
-0.47151663987950621
10
-9.517044756239649
20
-3.9269863780646395
42
-0.30591575937633786
10
-9.5165576272938921
20
3.9060170141768369
42
-0.47153771067371869
10
-7.7962504223632205
20
4.0712320026035931
0
LWPOLYLINE
5
116
100
AcDbEntity
8
0
100
AcDbPolyline
90
4
70
1
43
0.0
10
100.55664033598326
20
3.0040242177917205
10
100.5566403359833
20
-2.9959757822082587
42
-0.99999999999999989
10
98.056640335983332
20
-2.9959757822082809
10
98.056640335983332
20
3.0040242177917404
42
-0.99999999999999989
0
CIRCLE
5
117
100
AcDbEntity
8
0
100
AcDbCircle
10
15.260029748554489
20
-15.268251427013064
30
0
40
3.0499999999999998
210
0
220
0
230
1
0
CIRCLE
5
118
100
AcDbEntity
8
0
100
AcDbCircle
10
56.422712099757888
20
10.001212190191037
30
0
40
1
210
0
220
0
230
1
0
ARC
5
119
100
AcDbEntity
8
0
100
AcDbCircle
10
24.446804449975801
20
24.446779073640151
30
0
40
6.1455000000004123
210
0
220
-0
230
1
100
AcDbArc
50
3.2202494768818881
51
124.58656085932475
0
ARC
5
120
100
AcDbEntity
8
0
100
AcDbCircle
10
33.577863462097909
20
24.96052177884501
30
0
40
3.0000000000000027
210
0
220
0
230
1
100
AcDbArc
50
183.22024947688212
51
198.00715626744642
0
CIRCLE
5
121
100
AcDbEntity
8
0
100
AcDbCircle
10
10.004809283187306
20
9.9734595074890962
30
0
40
2.125
210
0
220
0
230
1
0
ARC
5
122
100
AcDbEntity
8
0
100
AcDbCircle
10
39.775617067755498
20
-14.106840658419395
30
0
40
1.25
210
0
220
0
230
1
100
AcDbArc
50
270
51
272.93596223758954
0
LWPOLYLINE
5
123
100
AcDbEntity
8
0
100
AcDbPolyline
90
6
70
1
43
0.0
10
78.555093933419158
20
4.8161391630716457
10
78.555093933419116
20
-4.8137147826895692
42
0.66817863791930721
10
79.920779358368392
20
-5.3794002076388132
10
84.735706331249006
20
-0.56447323475820388
42
0.41421356237308588
10
84.735706331249006
20
0.56689761514027714
10
79.920779358368407
20
5.3818245880208826
42
0.66817863791930576
0
LINE
5
124
100
AcDbEntity
8
0
100
AcDbLine
10
76.422712099757888
20
12.975065365106055
30
0
11
105.13427000560866
21
7.6042105932623949
31
0
0
CIRCLE
5
125
100
AcDbEntity
8
0
100
AcDbCircle
10
104.0000003450715
20
4.8615031441453054
30
0
40
1.45
210
0
220
0
230
1
0
CIRCLE
5
126
100
AcDbEntity
8
0
100
AcDbCircle
10
-9.9951907371821278
20
-10.026540512892213
30
0
40
2.125
210
0
220
0
230
1
0
CIRCLE
5
127
100
AcDbEntity
8
0
100
AcDbCircle
10
104.0000003450715
20
-4.8567078558546966
30
0
40
1.45
210
0
220
0
230
1
0
CIRCLE
5
128
100
AcDbEntity
8
0
100
AcDbCircle
10
56.422712099757888
20
-9.9987878098089649
30
0
40
1
210
0
220
0
230
1
0
CIRCLE
5
129
100
AcDbEntity
8
0
100
AcDbCircle
10
0
20
0
30
0
40
2.125
210
0
220
0
230
1
0
CIRCLE
5
130
100
AcDbEntity
8
0
100
AcDbCircle
10
15.260029748554489
20
-15.268251427013064
30
0
40
2.0499999999999998
210
0
220
0
230
1
0
CIRCLE
5
131
100
AcDbEntity
8
0
100
AcDbCircle
10
15.2600297485545
20
15.231748572986676
30
0
40
2.0499999999999998
210
0
220
0
230
1
0
CIRCLE
5
132
100
AcDbEntity
8
0
100
AcDbCircle
10
-15.239970251445277
20
-15.268251427013036
30
0
40
3.0499999999999994
210
0
220
0
230
1
0
CIRCLE
5
133
100
AcDbEntity
8
0
100
AcDbCircle
10
-9.9951907371821278
20
9.9734594871076503
30
0
40
2.5
210
0
220
0
230
1
0
LINE
5
134
100
AcDbEntity
8
0
100
AcDbLine
10
-30.096245940848434
20
22.027926594160348
30
0
11
-23.827430142053323
21
11.360541469563948
31
0
0
LWPOLYLINE
5
135
100
AcDbEntity
8
0
100
AcDbPolyline
90
6
70
1
43
0.0
10
5.0773913302894638
20
-0.80260021630158385
42
-0.41421356237308565
10
5.0775444406492571
20
0.78131896615603325
10
8.3676403941843347
20
4.070778903547887
42
-0.47151663987950737
10
10.087872425660736
20
3.9052953428721544
42
-0.30591575937633897
10
10.087385296714986
20
-3.9277080493693273
42
-0.47153771067372041
10
8.3670780917843111
20
-4.0929230377960799
0
LWPOLYLINE
5
136
100
AcDbEntity
8
0
100
AcDbPolyline
90
6
70
1
43
0.0
10
18.043967785129887
20
8.8149747367503224
10
13.126984205257219
20
6.4665507098317487
42
0.45073597972559371
10
12.69457183023432
20
4.4944749877104284
10
13.988417693347575
20
2.7239511873575677
42
0.4890753579053565
10
15.928141135616388
20
2.6657869733477613
10
19.485850113478847
20
6.9673406639338236
42
0.80346864447474486
0
LWPOLYLINE
5
137
100
AcDbEntity
8
0
100
AcDbPolyline
90
6
70
1
43
0.0
10
0.69335850437659663
20
-4.3902652282906676
10
3.9830652358393079
20
-7.6799719597533933
42
-0.47152701455804857
10
3.8177164469032809
20
-9.400241253981477
42
-0.30591604687870455
10
-4.0149186280079707
20
-9.4002412539814806
42
-0.47152701455803886
10
-4.1802674169439857
20
-7.6799719597533933
10
-0.89056068548125622
20
-4.390265228290648
42
-0.41421356237309503
0
ARC
5
138
100
AcDbEntity
8
0
100
AcDbCircle
10
104.0000003450715
20
4.8615031441453436
30
0
40
2.9999999999999538
210
0
220
-0
230
1
100
AcDbArc
50
0
51
61.627737522068806
0
ARC
5
139
100
AcDbEntity
8
0
100
AcDbCircle
10
-26.481431609885249
20
24.15221524812511
30
0
40
4.1927896361134351
210
0
220
0
230
1
100
AcDbArc
50
166.02555470149233
51
210.44113121166123
0
ARC
5
140
100
AcDbEntity
8
0
100
AcDbCircle
10
-7.1650332310602138e-05
20
39.348698197678495
30
0
40
19.999999999999996
210
0
220
0
230
-1
100
AcDbArc
50
235.41343914067542
51
304.58675901043546
0
LINE
5
141
100
AcDbEntity
8
0
100
AcDbLine
10
-11.352998429901309
20
22.883346705733235
30
0
11
-20.958187157648847
21
29.506246970773677
31
0
0
ARC
5
142
100
AcDbEntity
8
0
100
AcDbCircle
10
-24.44670176655265
20
24.446856091086197
30
0
40
6.1455000000000055
210
0
220
-0
230
1
100
AcDbArc
50
55.41324098956445
51
173.29181264405977
0
CIRCLE
5
143
100
AcDbEntity
8
0
100
AcDbCircle
10
10.005012366541914
20
-10.026393280513958
30
0
40
2.1249999999999991
210
0
220
0
230
1
0
ARC
5
144
100
AcDbEntity
8
0
100
AcDbCircle
10
40.28400647994971
20
-0.0052446992406618431
30
0
40
20.000000000000032
210
0
220
0
230
-1
100
AcDbArc
50
145.36898002316158
51
180.01672297976043
0
CIRCLE
5
145
100
AcDbEntity
8
0
100
AcDbCircle
10
-15.239970251445257
20
15.231748572986696
30
0
40
2.0499999999999998
210
0
220
0
230
1
0
CIRCLE
5
146
100
AcDbEntity
8
0
100
AcDbCircle
10
-15.239970251445277
20
-15.268251427013036
30
0
40
2.0499999999999998
210
0
220
0
230
1
0
LINE
5
147
100
AcDbEntity
8
0
100
AcDbLine
10
20.958307338435915
20
29.506182017939302
30
0
11
11.353084786902606
21
22.883307442495603
31
0
0
CIRCLE
5
148
100
AcDbEntity
8
0
100
AcDbCircle
10
15.2600297485545
20
15.231748572986676
30
0
40
3.0499999999999994
210
0
220
0
230
1
0
ARC
5
149
100
AcDbEntity
8
0
100
AcDbCircle
10
104.95039695652366
20
6.6212605936079658
30
0
40
1.0000000000002176
210
0
220
-0
230
1
100
AcDbArc
50
61.627737522071691
51
79.40456420011563
0
CIRCLE
5
150
100
AcDbEntity
8
0
100
AcDbCircle
10
10.004809283187306
20
9.9734595074890962
30
0
40
2.5
210
0
220
0
230
1
0
CIRCLE
5
151
100
AcDbEntity
8
0
100
AcDbCircle
10
36.422712099757874
20
10.001212190191037
30
0
40
1
210
0
220
0
230
1
0
CIRCLE
5
152
100
AcDbEntity
8
0
100
AcDbCircle
10
76.422712099757888
20
10.001212190191037
30
0
40
0.99999999999999978
210
0
220
0
230
1
0
CIRCLE
5
153
100
AcDbEntity
8
0
100
AcDbCircle
10
76.422712099757888
20
-9.9987878098089649
30
0
40
0.99999999999999645
210
0
220
0
230
1
0
LINE
5
154
100
AcDbEntity
8
0
100
AcDbLine
10
107.00000034507144
20
4.8615031441453551
30
0
11
107.00000034507144
21
-0.039140475640543626
31
0
0
LINE
5
155
100
AcDbEntity
8
0
100
AcDbLine
10
107.00000034507143
20
-0.011082120313496147
30
0
11
107.00000034507144
21
0.041564856022548134
31
0
0
ARC
5
156
100
AcDbEntity
8
0
100
AcDbCircle
10
104.00000034507147
20
-4.8590787637633346
30
0
40
2.999999999999956
210
-0
220
0
230
1
100
AcDbArc
50
298.37226247793143
51
360
0
ARC
5
157
100
AcDbEntity
8
0
100
AcDbCircle
10
104.95039695652366
20
-6.6188362132259577
30
0
40
1.000000000000222
210
-0
220
0
230
1
100
AcDbArc
50
280.5954357998836
51
298.37226247792762
0
LINE
5
158
100
AcDbEntity
8
0
100
AcDbLine
10
76.028334776994171
20
-13.046414178530416
30
0
11
105.13427000560864
21
-7.6017862128803859
31
0
0
ARC
5
159
100
AcDbEntity
8
0
100
AcDbCircle
10
33.577863462097866
20
-24.95809739846289
30
0
40
3.0000000000000093
210
0
220
0
230
1
100
AcDbArc
50
161.99284373255341
51
176.7797505231178
0
ARC
5
160
100
AcDbEntity
8
0
100
AcDbCircle
10
24.446804449975765
20
-24.444354693258013
30
0
40
6.1455000000004105
210
0
220
0
230
1
100
AcDbArc
50
235.41343914067514
51
356.77975052311803
0
LINE
5
161
100
AcDbEntity
8
0
100
AcDbLine
10
20.958307338435873
20
-29.503757637557158
30
0
11
11.353084786902574
21
-22.880883062113448
31
0
0
ARC
5
162
100
AcDbEntity
8
0
100
AcDbCircle
10
-7.165033224509898e-05
20
-39.346273817296321
30
0
40
19.999999999999993
210
0
220
0
230
-1
100
AcDbArc
50
55.41324098956467
51
124.58656085932471
0
LINE
5
163
100
AcDbEntity
8
0
100
AcDbLine
10
-11.352998429901344
20
-22.880922325351044
30
0
11
-20.958187157648904
21
-29.503822590391469
31
0
0
ARC
5
164
100
AcDbEntity
8
0
100
AcDbCircle
10
-24.446701766552685
20
-24.444431710703981
30
0
40
6.1454999999999949
210
0
220
0
230
1
100
AcDbArc
50
186.70818735594011
51
304.58675901043534
0
ARC
5
165
100
AcDbEntity
8
0
100
AcDbCircle
10
-26.481431609885284
20
-24.149790867742894
30
0
40
4.1927896361134467
210
0
220
0
230
1
100
AcDbArc
50
149.55886878833869
51
193.97444529850753
0
LINE
5
166
100
AcDbEntity
8
0
100
AcDbLine
10
-30.096245940848476
20
-22.025502213778122
30
0
11
-23.827430142053334
21
-11.358117089181734
31
0
0
ARC
5
167
100
AcDbEntity
8
0
100
AcDbCircle
10
40.28400647994971
20
0.0076690796229020898
30
0
40
20.000000000000039
210
0
220
0
230
-1
100
AcDbArc
50
179.98327702023957
51
214.63101997683847
0
LINE
5
168
100
AcDbEntity
8
0
100
AcDbLine
10
107.00000034507144
20
-4.8590787637633506
30
0
11
107.00000034507144
21
0.041564856022548134
31
0
0
CIRCLE
5
169
100
AcDbEntity
8
0
100
AcDbCircle
10
-24.5
20
24.5
30
0
40
2.125
210
0
220
0
230
1
0
CIRCLE
5
170
100
AcDbEntity
8
0
100
AcDbCircle
10
-24.5
20
24.5
30
0
40
2.5499999999999998
210
0
220
0
230
1
0
CIRCLE
5
171
100
AcDbEntity
8
0
100
AcDbCircle
10
24.5
20
24.5
30
0
40
2.1249999999999991
210
0
220
0
230
1
0
CIRCLE
5
172
100
AcDbEntity
8
0
100
AcDbCircle
10
24.5
20
24.5
30
0
40
2.5499999999999998
210
0
220
0
230
1
0
CIRCLE
5
173
100
AcDbEntity
8
0
100
AcDbCircle
10
24.5
20
-24.5
30
0
40
2.1249999999999982
210
0
220
0
230
1
0
CIRCLE
5
174
100
AcDbEntity
8
0
100
AcDbCircle
10
24.5
20
-24.5
30
0
40
2.5499999999999998
210
0
220
0
230
1
0
CIRCLE
5
175
100
AcDbEntity
8
0
100
AcDbCircle
10
-24.5
20
-24.5
30
0
40
2.5499999999999998
210
0
220
0
230
1
0
CIRCLE
5
176
100
AcDbEntity
8
0
100
AcDbCircle
10
-24.5
20
-24.5
30
0
40
2.1250000000000004
210
0
220
0
230
1
0
LINE
5
177
100
AcDbEntity
8
0
100
AcDbLine
10
35.074891864771054
20
15.698010224282006
30
0
11
76.422712099757888
21
12.975065365106055
31
0
0
LINE
5
178
100
AcDbEntity
8
0
100
AcDbLine
10
35.049915784720085
20
-15.720192716220563
30
0
11
76.028334776994171
21
-13.046414178530416
31
0
0
SPLINE
5
179
100
AcDbEntity
8
0
100
AcDbSpline
70
4
71
5
72
14
73
8
74
0
42
0.000000001
43
0.0000000001
44
0.0000000001
40
0.0089708087097740662
40
0.0089708087097740662
40
0.0089708087097740662
40
0.0089708087097740662
40
0.0089708087097740662
40
0.0089708087097740662
40
0.10000000000000001
40
0.20000000000000001
40
0.26516906952810393
40
0.26516906952810393
40
0.26516906952810393
40
0.26516906952810393
40
0.26516906952810393
40
0.26516906952810393
41
1
41
1
41
1
41
1
41
1
41
1
41
1
41
1
10
30.724809724532616
20
24.033114440851211
30
0
10
30.995049366345711
20
23.201755674787879
30
0
10
31.576283959594921
20
21.543938866128901
30
0
10
32.39560873488626
20
19.565271104299747
30
0
10
33.269203519051331
20
17.920249615854235
30
0
10
34.199913199186007
20
16.626364465686255
30
0
10
34.82455087558246
20
15.943544511129641
30
0
10
35.074891864771054
20
15.698010224282001
30
0
0
SPLINE
5
180
100
AcDbEntity
8
0
100
AcDbSpline
70
4
71
5
72
14
73
8
74
0
42
0.000000001
43
0.0000000001
44
0.0000000001
40
0.0089708087097740662
40
0.0089708087097740662
40
0.0089708087097740662
40
0.0089708087097740662
40
0.0089708087097740662
40
0.0089708087097740662
40
0.10000000000000001
40
0.20000000000000001
40
0.263867902918279
40
0.263867902918279
40
0.263867902918279
40
0.263867902918279
40
0.263867902918279
40
0.263867902918279
41
1
41
1
41
1
41
1
41
1
41
1
41
1
41
1
10
30.724809724532577
20
-24.030690060469084
30
0
10
30.995049366345675
20
-23.199331294405749
30
0
10
31.576283959594885
20
-21.54151448574677
30
0
10
32.391447590166486
20
-19.572895880439628
30
0
10
33.260331381950635
20
-17.934543143262978
30
0
10
34.185737096410136
20
-16.643681207281116
30
0
10
34.804876991727014
20
-15.962692910308149
30
0
10
35.049915784720092
20
-15.720192716220563
30
0
0
LWPOLYLINE
5
181
100
AcDbEntity
8
0
100
AcDbPolyline
90
6
70
1
43
0.0
10
46.998752863766448
20
2.6778626196405853
10
52.616357833896103
20
9.429602141260375
42
0.66817863791931409
10
52.015317069887537
20
10.880642905268939
10
40.980292394924518
20
11.800228294849223
42
0.66817863791932108
10
40.379251630915959
20
10.349187530840666
10
45.796671335749302
20
2.6778626196405808
42
0.41421356237308854
0
LWPOLYLINE
5
182
100
AcDbEntity
8
0
100
AcDbPolyline
90
6
70
1
43
0.0
10
38.920779358368392
20
-5.3794002076388114
10
43.735706331248991
20
-0.56447323475820377
42
0.41421356237309043
10
43.735706331248991
20
0.56689761514027714
10
38.920779358368392
20
5.381824588020879
42
0.66817863791929921
10
37.555093933419172
20
4.8161391630716457
10
37.555093933419123
20
-4.8137147826895692
42
0.66817863791930787
0
LWPOLYLINE
5
183
100
AcDbEntity
8
0
100
AcDbPolyline
90
6
70
1
43
0.0
10
40.379251630915931
20
-10.346763150458587
42
0.66817863791931842
10
40.980292394924476
20
-11.797803914467138
10
52.015317069887494
20
-10.878218524886895
42
0.6681786379193172
10
52.616357833896068
20
-9.4271777608783385
10
46.998752863766441
20
-2.6754382392585283
42
0.41421356237308854
10
45.796671335749302
20
-2.6754382392585221
0
LWPOLYLINE
5
184
100
AcDbEntity
8
0
100
AcDbPolyline
90
6
70
1
43
0.0
10
53.874644841147358
20
-5.3794002076388301
42
0.66817863791930854
10
55.240330266096606
20
-4.8137147826896012
10
55.240330266096606
20
4.8161391630716137
42
0.66817863791930021
10
53.874644841147379
20
5.3818245880208515
10
49.059717868266766
20
0.5668976151402656
42
0.41421356237309054
10
49.059717868266766
20
-0.56447323475821376
0
LWPOLYLINE
5
185
100
AcDbEntity
8
0
100
AcDbPolyline
90
6
70
1
43
0.0
10
63.735706331248991
20
0.56689761514027714
10
58.920779358368392
20
5.381824588020879
42
0.66817863791929921
10
57.555093933419172
20
4.8161391630716457
10
57.555093933419116
20
-4.8137147826895692
42
0.66817863791930787
10
58.920779358368392
20
-5.3794002076388114
10
63.735706331248991
20
-0.56447323475820377
42
0.41421356237309043
0
LWPOLYLINE
5
186
100
AcDbEntity
8
0
100
AcDbPolyline
90
6
70
1
43
0.0
10
66.998752863766441
20
2.6778626196405853
10
72.415953065913456
20
8.1826905116021056
42
0.6681786379193172
10
71.814912301904897
20
9.6337312756106712
10
61.281852191072886
20
10.221703159135981
42
0.66817863791932108
10
60.680811427064327
20
8.7706623951274274
10
65.796671335749309
20
2.6778626196405808
42
0.41421356237308854
0
LWPOLYLINE
5
187
100
AcDbEntity
8
0
100
AcDbPolyline
90
6
70
1
43
0.0
10
69.074362529207434
20
-0.5998285738175313
10
74.190222437893084
20
-5.7156884825031735
42
0.66817863791931509
10
75.641263201901637
20
-5.1146477184946093
10
75.641263201901637
20
5.1170720988766849
42
0.66817863791932042
10
74.190222437893084
20
5.7181128628852438
10
69.074362529207434
20
0.6022529541995969
42
0.41421356237308715
0
LWPOLYLINE
5
188
100
AcDbEntity
8
0
100
AcDbPolyline
90
6
70
1
43
0.0
10
71.814912301904869
20
-9.6313068952287022
42
0.66817863791931387
10
72.415953065913428
20
-8.1802661312201472
10
66.998752863766441
20
-2.6754382392586029
42
0.41421356237308854
10
65.796671335749309
20
-2.6754382392585963
10
60.680811427064292
20
-8.7682380147454193
42
0.66817863791932164
10
61.281852191072858
20
-10.219278778753973
0
ENDSEC
0
SECTION
2
OBJECTS
0
DICTIONARY
5
C
100
AcDbDictionary
3
ACAD_GROUP
350
D
3
ACAD_MLINESTYLE
350
17
0
DICTIONARY
5
D
100
AcDbDictionary
0
DICTIONARY
5
1A
330
C
100
AcDbDictionary
0
DICTIONARY
5
17
100
AcDbDictionary
0
ENDSEC
0
EOF
