0
SECTION
2
HEADER
9
$INSUNITS
70
4
9
$ACADVER
1
AC1014
9
$HANDSEED
5
FFFF
0
ENDSEC
0
SECTION
2
TABLES
0
TABLE
2
VPORT
5
8
100
AcDbSymbolTable
0
ENDTAB
0
TABLE
2
LTYPE
5
5
100
AcDbSymbolTable
0
LTYPE
5
14
100
AcDbSymbolTableRecord
100
AcDbLinetypeTableRecord
2
BYBLOCK
70
0
0
LTYPE
5
15
100
AcDbSymbolTableRecord
100
AcDbLinetypeTableRecord
2
BYLAYER
70
0
0
ENDTAB
0
TABLE
2
LAYER
5
2
100
AcDbSymbolTable
70
2
0
LAYER
5
50
100
AcDbSymbolTableRecord
100
AcDbLayerTableRecord
2
0
70
0
6
CONTINUOUS
0
ENDTAB
0
TABLE
2
STYLE
5
3
100
AcDbSymbolTable
70
1
0
STYLE
5
11
100
AcDbSymbolTableRecord
100
AcDbTextStyleTableRecord
2
STANDARD
70
0
0
ENDTAB
0
TABLE
2
VIEW
5
6
100
AcDbSymbolTable
70
0
0
ENDTAB
0
TABLE
2
UCS
5
7
100
AcDbSymbolTable
70
0
0
ENDTAB
0
TABLE
2
APPID
5
9
100
AcDbSymbolTable
70
2
0
APPID
5
12
100
AcDbSymbolTableRecord
100
AcDbRegAppTableRecord
2
ACAD
70
0
0
ENDTAB
0
TABLE
2
DIMSTYLE
5
A
100
AcDbSymbolTable
70
1
0
ENDTAB
0
TABLE
2
BLOCK_RECORD
5
1
100
AcDbSymbolTable
70
1
0
BLOCK_RECORD
5
1F
100
AcDbSymbolTableRecord
100
AcDbBlockTableRecord
2
*MODEL_SPACE
0
BLOCK_RECORD
5
1B
100
AcDbSymbolTableRecord
100
AcDbBlockTableRecord
2
*PAPER_SPACE
0
ENDTAB
0
ENDSEC
0
SECTION
2
BLOCKS
0
BLOCK
5
20
100
AcDbEntity
100
AcDbBlockBegin
2
*MODEL_SPACE
0
ENDBLK
5
21
100
AcDbEntity
100
AcDbBlockEnd
0
BLOCK
5
1C
100
AcDbEntity
100
AcDbBlockBegin
2
*PAPER_SPACE
0
ENDBLK
5
1D
100
AcDbEntity
100
AcDbBlockEnd
0
ENDSEC
0
SECTION
2
ENTITIES
0
LWPOLYLINE
5
100
100
AcDbEntity
8
0
100
AcDbPolyline
90
6
70
1
43
0.0
10
37.55509393341913
20
-4.8137147826895692
10
37.555093933419144
20
4.8161391630716457
42
-0.66817863791929955
10
38.920779358368392
20
5.3818245880208826
10
43.735706331248991
20
0.56689761514027726
42
-0.41421356237309043
10
43.735706331248991
20
-0.56447323475820377
10
38.920779358368399
20
-5.3794002076388114
42
-0.6681786379192991
0
LWPOLYLINE
5
101
100
AcDbEntity
8
0
100
AcDbPolyline
90
8
70
1
43
0.0
10
29.697840370247661
20
4.3227036213286691
10
29.693355203174875
20
-4.3142361726118938
42
0.19904733265393584
10
30.132694829140334
20
-5.375675295022674
10
31.481572841213953
20
-6.7245533070962686
42
0.6681786379192971
10
33.188679622400478
20
-6.0174465259097261
10
33.188679622400493
20
6.0198709062917928
42
0.66817863791929499
10
31.481572841213946
20
6.7269776874783469
10
30.137179996213135
20
5.3825848424775344
42
0.19877740907584346
0
LWPOLYLINE
5
102
100
AcDbEntity
8
0
100
AcDbPolyline
90
6
70
1
43
0.0
10
54.19022243789307
20
-5.7156884825031788
10
49.074362529207427
20
-0.59982857381753119
42
-0.41421356237309342
10
49.07436252920742
20
0.6022529541995969
10
54.19022243789307
20
5.7181128628852482
42
-0.66817863791930532
10
55.641263201901637
20
5.1170720988766831
10
55.64126320190163
20
-5.1146477184946111
42
-0.66817863791930909
0
CIRCLE
5
103
100
AcDbEntity
8
0
100
AcDbCircle
10
0
20
0
30
0
40
2.125
210
0
220
0
230
1
0
ARC
5
104
100
AcDbEntity
8
0
100
AcDbCircle
10
-27.123205648390059
20
-23.773066780418411
30
0
40
3.4284856210713608
210
0
220
0
230
1
100
AcDbArc
50
149.62068605999445
51
181.72947777852025
0
CIRCLE
5
105
100
AcDbEntity
8
0
100
AcDbCircle
10
-24.5
20
-24.5
30
0
40
2.1250000000000004
210
0
220
0
230
1
0
LWPOLYLINE
5
106
100
AcDbEntity
8
0
100
AcDbPolyline
90
4
70
1
43
0.0
10
64.556640335983289
20
-2.9959757822082498
10
64.556640335983289
20
3.0040242177917245
42
0.99999999999999989
10
62.056640335983325
20
3.0040242177917382
10
62.056640335983325
20
-2.9959757822082675
42
0.99999999999999989
0
LWPOLYLINE
5
107
100
AcDbEntity
8
0
100
AcDbPolyline
90
6
70
1
43
0.0
10
-9.5165576272938921
20
3.906017014176836
42
0.30591575937633808
10
-9.517044756239649
20
-3.926986378064639
42
0.47151663987950709
10
-7.7968127247632424
20
-4.0924699387403756
10
-4.5067167712281693
20
-0.80301000134852107
42
0.41421356237308582
10
-4.506563660868375
20
0.78090918110909457
10
-7.7962504223632214
20
4.0712320026035931
42
0.47153771067371947
0
LINE
5
108
100
AcDbEntity
8
0
100
AcDbLine
10
-30.080947547192736
20
-22.039205046034667
30
0
11
-23.82553110787779
21
-11.368280755986389
31
0
0
ARC
5
109
100
AcDbEntity
8
0
100
AcDbCircle
10
-24.43231794214455
20
-24.460562366246812
30
0
40
6.1456244477477293
210
0
220
0
230
1
100
AcDbArc
50
174.54692080600006
51
304.83526654888442
0
CIRCLE
5
110
100
AcDbEntity
8
0
100
AcDbCircle
10
-24.5
20
-24.5
30
0
40
2.5499999999999998
210
0
220
0
230
1
0
CIRCLE
5
111
100
AcDbEntity
8
0
100
AcDbCircle
10
0
20
0
30
0
40
2.5499999999999998
210
0
220
0
230
1
0
CIRCLE
5
112
100
AcDbEntity
8
0
100
AcDbCircle
10
-10
20
-10
30
0
40
2.5499999999999998
210
0
220
0
230
1
0
LWPOLYLINE
5
113
100
AcDbEntity
8
0
100
AcDbPolyline
90
6
70
1
43
0.0
10
21.156215447147602
20
-2.6597183388803463
10
24.697227860753465
20
-6.8013429019757643
42
-0.80346864447474375
10
23.285736999661811
20
-8.6722971678230696
10
18.209952356352641
20
-6.349138202339959
42
-0.48907535790535372
10
17.764097303739526
20
-4.4604552272650224
10
19.139420017759008
20
-2.7524508135080361
42
-0.45073597972559531
0
ARC
5
114
100
AcDbEntity
8
0
100
AcDbCircle
10
24.431999465876562
20
-24.460555337715174
30
0
40
6.1454999999999957
210
0
220
0
230
1
100
AcDbArc
50
235.16463818197312
51
359.99999019088762
0
LWPOLYLINE
5
115
100
AcDbEntity
8
0
100
AcDbPolyline
90
6
70
1
43
0.0
10
0.69335850437659652
20
-4.3902652282906676
42
0.41421356237309587
10
-0.89056068548125644
20
-4.390265228290648
10
-4.1802674169439857
20
-7.6799719597533942
42
0.47152701455803836
10
-4.0149186280079716
20
-9.4002412539814806
42
0.30591604687870455
10
3.8177164469032796
20
-9.400241253981477
42
0.4715270145580483
10
3.9830652358393071
20
-7.6799719597533933
0
CIRCLE
5
116
100
AcDbEntity
8
0
100
AcDbCircle
10
10
20
-10
30
0
40
2.1249999999999991
210
0
220
0
230
1
0
ARC
5
117
100
AcDbEntity
8
0
100
AcDbCircle
10
-2.8416063309357452e-05
20
-39.311283907380115
30
0
40
19.999999999999975
210
0
220
-0
230
1
100
AcDbArc
50
55.164638181973231
51
124.83526654888415
0
CIRCLE
5
118
100
AcDbEntity
8
0
100
AcDbCircle
10
-15.25
20
-15.250000000000005
30
0
40
2.0499999999999998
210
0
220
0
230
1
0
LWPOLYLINE
5
119
100
AcDbEntity
8
0
100
AcDbPolyline
90
6
70
1
43
0.0
10
24.485850113478843
20
6.9673406639338253
10
20.928141135616386
20
2.665786973347759
42
-0.489075357905355
10
18.988417693347579
20
2.7239511873575681
10
17.69457183023432
20
4.4944749877104258
42
-0.45073597972559354
10
18.126984205257216
20
6.4665507098317487
10
23.043967785129897
20
8.8149747367503224
42
-0.80346864447474498
0
CIRCLE
5
120
100
AcDbEntity
8
0
100
AcDbCircle
10
-10
20
-10
30
0
40
2.125
210
0
220
0
230
1
0
CIRCLE
5
121
100
AcDbEntity
8
0
100
AcDbCircle
10
36.422712099757874
20
10.001212190191037
30
0
40
1.5000000000000002
210
0
220
0
230
1
0
CIRCLE
5
122
100
AcDbEntity
8
0
100
AcDbCircle
10
66.513806007625988
20
-7.8567233081714658
30
0
40
1.5000000000000002
210
0
220
0
230
1
0
ARC
5
123
100
AcDbEntity
8
0
100
AcDbCircle
10
52.758553336958173
20
-13.440983444129653
30
0
40
1.2500000000000031
210
0
220
-0
230
1
100
AcDbArc
50
19.537511836609198
51
92.935962237588868
0
ARC
5
124
100
AcDbEntity
8
0
100
AcDbCircle
10
55.674780731518105
20
10.393826741630193
30
0
40
2.9000000000013433
210
0
220
-0
230
1
100
AcDbArc
50
79.934104015561317
51
86.781238897090873
0
ARC
5
125
100
AcDbEntity
8
0
100
AcDbCircle
10
39.775617067755498
20
14.192532606125807
30
0
40
1.0999999999999968
210
0
220
0
230
1
100
AcDbArc
50
194.9911957613746
51
266.78123889709065
0
ARC
5
126
100
AcDbEntity
8
0
100
AcDbCircle
10
38.078336905169003
20
-21.695316084049921
30
0
40
7.4999999999999991
210
0
220
0
230
1
100
AcDbArc
50
95.651092099776406
51
179.98265537870299
0
CIRCLE
5
127
100
AcDbEntity
8
0
100
AcDbCircle
10
-10
20
10
30
0
40
2.5499999999999998
210
0
220
0
230
1
0
LWPOLYLINE
5
128
100
AcDbEntity
8
0
100
AcDbPolyline
90
6
70
1
43
0.0
10
40.940703999394962
20
7.6045406341135546
10
45.857026674808651
20
2.6882179586999184
42
0.41421356237310025
10
46.988397524707111
20
2.6882179586999162
10
51.381201430193009
20
7.0810218641857627
42
0.64805135590373364
10
50.860434752804508
20
8.4454452349705331
10
41.551308171904935
20
8.9689640048983144
42
0.68868728194201922
0
CIRCLE
5
129
100
AcDbEntity
8
0
100
AcDbCircle
10
24.5
20
24.5
30
0
40
2.5499999999999998
210
0
220
0
230
1
0
CIRCLE
5
130
100
AcDbEntity
8
0
100
AcDbCircle
10
-24.5
20
24.5
30
0
40
2.125
210
0
220
0
230
1
0
CIRCLE
5
131
100
AcDbEntity
8
0
100
AcDbCircle
10
15.25
20
15.250000000000005
30
0
40
2.0499999999999998
210
0
220
0
230
1
0
ARC
5
132
100
AcDbEntity
8
0
100
AcDbCircle
10
52.75510868758299
20
13.462602958263661
30
0
40
1.100000000000003
210
0
220
0
230
1
100
AcDbArc
50
266.7812388970903
51
338.57128203280871
0
LWPOLYLINE
5
133
100
AcDbEntity
8
0
100
AcDbPolyline
90
6
70
1
43
0.0
10
-3.9263857699264282
20
9.3995347353304943
42
0.47152701455803797
10
-4.0917345588624698
20
7.6792654411024213
10
-0.80202782739973344
20
4.3895587096396724
42
0.41421356237309748
10
0.78189136245813806
20
4.3895587096396529
10
4.0715980939208771
20
7.6792654411024142
42
0.47152701455803481
10
3.9062493049848541
20
9.3995347353304997
42
0.30591604687870488
0
ARC
5
134
100
AcDbEntity
8
0
100
AcDbCircle
10
39.775617067755498
20
-14.106840658419395
30
0
40
1.25
210
0
220
0
230
1
100
AcDbArc
50
270
51
272.93596223758954
0
ARC
5
135
100
AcDbEntity
8
0
100
AcDbCircle
10
38.230072130501753
20
13.778659622072313
30
0
40
0.50000000000001088
210
0
220
-0
230
1
100
AcDbArc
50
14.991195761375428
51
86.781238897091939
0
LWPOLYLINE
5
136
100
AcDbEntity
8
0
100
AcDbPolyline
90
6
70
1
43
0.0
10
51.372788232252226
20
-7.0701842858629149
10
46.988397524707118
20
-2.6857935783178388
42
0.41421356237309098
10
45.857026674808637
20
-2.685793578317841
10
40.998598548185761
20
-7.544221704940667
42
0.68686963586873206
10
41.605259801706673
20
-8.9088570541485463
10
50.84807863587465
20
-8.4348196350707791
42
0.64980492153852498
0
CIRCLE
5
137
100
AcDbEntity
8
0
100
AcDbCircle
10
-10
20
10
30
0
40
2.125
210
0
220
0
230
1
0
LINE
5
138
100
AcDbEntity
8
0
100
AcDbLine
10
-23.827430142053323
20
11.360541469563948
30
0
11
-30.096245940848423
21
22.027926594160348
31
0
0
LINE
5
139
100
AcDbEntity
8
0
100
AcDbLine
10
37.330953857424227
20
14.330013503569653
30
0
11
38.258146347727219
21
14.277870838219533
31
0
0
LINE
5
140
100
AcDbEntity
8
0
100
AcDbLine
10
30.59150156587328
20
21.793622107218052
30
0
11
30.592304168389855
21
24.444918703304698
31
0
0
ARC
5
141
100
AcDbEntity
8
0
100
AcDbCircle
10
67.000000345072436
20
8.2902504039712195
30
0
40
3.0000000000000515
210
0
220
0
230
1
100
AcDbArc
50
0
51
84.17984188473433
0
ARC
5
142
100
AcDbEntity
8
0
100
AcDbCircle
10
54.244505190385794
20
12.878053510022713
30
0
40
0.50000000000001243
210
0
220
-0
230
1
100
AcDbArc
50
86.781238897093573
51
158.57128203280746
0
LINE
5
143
100
AcDbEntity
8
0
100
AcDbLine
10
-11.352998429901342
20
22.883346705733256
30
0
11
-20.958187157648844
21
29.506246970773677
31
0
0
CIRCLE
5
144
100
AcDbEntity
8
0
100
AcDbCircle
10
28.188765728745931
20
-13.151647761377181
30
0
40
1.5000000000000002
210
0
220
0
230
1
0
LWPOLYLINE
5
145
100
AcDbEntity
8
0
100
AcDbPolyline
90
6
70
1
43
0.0
10
10.087872425660738
20
3.9052953428721531
42
0.47151663987950687
10
8.3676403941843311
20
4.0707789035478879
10
5.0775444406492571
20
0.78131896615603247
42
0.41421356237308543
10
5.0773913302894647
20
-0.80260021630158329
10
8.3670780917843111
20
-4.0929230377960799
42
0.47153771067372047
10
10.087385296714984
20
-3.9277080493693233
42
0.30591575937633814
0
LINE
5
146
100
AcDbEntity
8
0
100
AcDbLine
10
37.339809427482422
20
-14.231766180371253
30
0
11
38.100767372823682
21
-14.192738850407498
31
0
0
CIRCLE
5
147
100
AcDbEntity
8
0
100
AcDbCircle
10
24.5
20
24.5
30
0
40
2.1249999999999991
210
0
220
0
230
1
0
CIRCLE
5
148
100
AcDbEntity
8
0
100
AcDbCircle
10
-15.25
20
15.250000000000005
30
0
40
3.0499999999999994
210
0
220
0
230
1
0
ARC
5
149
100
AcDbEntity
8
0
100
AcDbCircle
10
-24.446701766552632
20
24.446856091086197
30
0
40
6.145500000000002
210
0
220
-0
230
1
100
AcDbArc
50
55.413240989564549
51
173.29181264405977
0
CIRCLE
5
150
100
AcDbEntity
8
0
100
AcDbCircle
10
56.422712099757881
20
-9.9987878098089649
30
0
40
1.5000000000000002
210
0
220
0
230
1
0
CIRCLE
5
151
100
AcDbEntity
8
0
100
AcDbCircle
10
56.422712099757881
20
10.001212190191037
30
0
40
1.5000000000000002
210
0
220
0
230
1
0
LINE
5
152
100
AcDbEntity
8
0
100
AcDbLine
10
67.295411336136965
20
-11.267622387471022
30
0
11
56.18912707519209
21
-13.242479344610011
31
0
0
ARC
5
153
100
AcDbEntity
8
0
100
AcDbCircle
10
54.407793139032698
20
-12.855741549479887
30
0
40
0.50000000000001132
210
0
220
0
230
1
100
AcDbArc
50
199.53751183661123
51
272.93596223758652
0
CIRCLE
5
154
100
AcDbEntity
8
0
100
AcDbCircle
10
66.51677620274836
20
7.8614878111958921
30
0
40
1.5000000000000002
210
0
220
0
230
1
0
LINE
5
155
100
AcDbEntity
8
0
100
AcDbLine
10
54.272579407611246
20
13.377264726169937
30
0
11
55.837611191425935
21
13.289251795285351
31
0
0
ARC
5
156
100
AcDbEntity
8
0
100
AcDbCircle
10
55.681429122563692
20
-10.387266079564784
30
0
40
2.8999999999988506
210
0
220
0
230
1
100
AcDbArc
50
272.93596223758726
51
280.08263041360465
0
LINE
5
157
100
AcDbEntity
8
0
100
AcDbLine
10
29.702352785585845
20
13.012114510299213
30
0
11
29.702351976567073
21
13.010556609245114
31
0
0
LINE
5
158
100
AcDbEntity
8
0
100
AcDbLine
10
11.424376702977142
20
-22.895347513861736
30
0
11
20.921565382923397
21
-29.504762193033535
31
0
0
ARC
5
159
100
AcDbEntity
8
0
100
AcDbCircle
10
24.446804449975801
20
24.446779073640151
30
0
40
6.145500000000407
210
0
220
0
230
1
100
AcDbArc
50
-0.017344621297012173
51
124.58656085932479
0
CIRCLE
5
160
100
AcDbEntity
8
0
100
AcDbCircle
10
10
20
-10
30
0
40
2.5499999999999998
210
0
220
0
230
1
0
CIRCLE
5
161
100
AcDbEntity
8
0
100
AcDbCircle
10
15.260029748554489
20
-15.268251427013064
30
0
40
3.0499999999999998
210
0
220
0
230
1
0
CIRCLE
5
162
100
AcDbEntity
8
0
100
AcDbCircle
10
-15.25
20
-15.250000000000005
30
0
40
3.0499999999999994
210
0
220
0
230
1
0
CIRCLE
5
163
100
AcDbEntity
8
0
100
AcDbCircle
10
15.260029748554489
20
-15.268251427013064
30
0
40
2.0499999999999998
210
0
220
0
230
1
0
LINE
5
164
100
AcDbEntity
8
0
100
AcDbLine
10
52.694528604814934
20
-12.192624187475545
30
0
11
39.711592335612259
21
-12.858481401765292
31
0
0
CIRCLE
5
165
100
AcDbEntity
8
0
100
AcDbCircle
10
28.202352785585845
20
13.012114510299213
30
0
40
1.5000000000000002
210
0
220
0
230
1
0
LINE
5
166
100
AcDbEntity
8
0
100
AcDbLine
10
30.577499465876471
20
-24.460556391623413
30
0
11
30.578337248818453
21
-21.693045678466021
31
0
0
LINE
5
167
100
AcDbEntity
8
0
100
AcDbLine
10
39.713853789859449
20
13.094267930601946
30
0
11
52.693345409686934
21
12.364338282739794
31
0
0
ARC
5
168
100
AcDbEntity
8
0
100
AcDbCircle
10
7.1650332316084271e-05
20
39.348698197678495
30
0
40
20
210
0
220
0
230
1
100
AcDbArc
50
235.41324098956446
51
304.58656085932461
0
ARC
5
169
100
AcDbEntity
8
0
100
AcDbCircle
10
38.091501222223833
20
21.791351701634149
30
0
40
7.5
210
0
220
0
230
1
100
AcDbArc
50
179.98265537870299
51
264.17984188473287
0
LINE
5
170
100
AcDbEntity
8
0
100
AcDbLine
10
11.35308478690262
20
22.883307442495607
30
0
11
20.958307338435915
21
29.506182017939299
31
0
0
LINE
5
171
100
AcDbEntity
8
0
100
AcDbLine
10
54.433403031889974
20
-13.355085252141546
30
0
11
55.829966501135864
21
-13.28345955500116
31
0
0
LINE
5
172
100
AcDbEntity
8
0
100
AcDbLine
10
70.000000345072493
20
8.2902504039712195
30
0
11
70.000000345070518
21
-8.2822024260072098
31
0
0
CIRCLE
5
173
100
AcDbEntity
8
0
100
AcDbCircle
10
15.25
20
15.250000000000005
30
0
40
3.0499999999999994
210
0
220
0
230
1
0
ARC
5
174
100
AcDbEntity
8
0
100
AcDbCircle
10
-26.481431609885266
20
24.152215248125106
30
0
40
4.1927896361134058
210
0
220
0
230
1
100
AcDbArc
50
166.02555470149218
51
210.44113121166137
0
CIRCLE
5
175
100
AcDbEntity
8
0
100
AcDbCircle
10
24.5
20
-24.5
30
0
40
2.5499999999999998
210
0
220
0
230
1
0
CIRCLE
5
176
100
AcDbEntity
8
0
100
AcDbCircle
10
24.5
20
-24.5
30
0
40
2.1249999999999982
210
0
220
0
230
1
0
LINE
5
177
100
AcDbEntity
8
0
100
AcDbLine
10
67.304219290992208
20
11.274785683197077
30
0
11
56.181644737832102
21
13.249188168684762
31
0
0
CIRCLE
5
178
100
AcDbEntity
8
0
100
AcDbCircle
10
10
20
10
30
0
40
2.5499999999999998
210
0
220
0
230
1
0
CIRCLE
5
179
100
AcDbEntity
8
0
100
AcDbCircle
10
10
20
10
30
0
40
2.125
210
0
220
0
230
1
0
ARC
5
180
100
AcDbEntity
8
0
100
AcDbCircle
10
38.075157479966393
20
-13.693395147745857
30
0
40
0.49999999999999911
210
0
220
0
230
1
100
AcDbArc
50
272.93596223758823
51
346.33441263856878
0
ARC
5
181
100
AcDbEntity
8
0
100
AcDbCircle
10
67.000000345079854
20
-8.2822024260072098
30
0
40
2.9999999999906546
210
0
220
0
230
1
100
AcDbArc
50
-84.34890790054223
51
0
0
ARC
5
182
100
AcDbEntity
8
0
100
AcDbCircle
10
-40.284006479949717
20
-0.0052446992406629533
30
0
40
20.000000000000039
210
0
220
0
230
1
100
AcDbArc
50
-34.621445644998758
51
34.631019976838402
0
ARC
5
183
100
AcDbEntity
8
0
100
AcDbCircle
10
39.775617067755498
20
-14.106840658419395
30
0
40
1.2499999999999998
210
0
220
0
230
1
100
AcDbArc
50
92.935962237588882
51
166.33441263856886
0
CIRCLE
5
184
100
AcDbEntity
8
0
100
AcDbCircle
10
36.422712099757874
20
-9.9987878098089649
30
0
40
1.5000000000000013
210
0
220
0
230
1
0
CIRCLE
5
185
100
AcDbEntity
8
0
100
AcDbCircle
10
-15.25
20
15.250000000000005
30
0
40
2.0499999999999998
210
0
220
0
230
1
0
CIRCLE
5
186
100
AcDbEntity
8
0
100
AcDbCircle
10
-24.5
20
24.5
30
0
40
2.5499999999999998
210
0
220
0
230
1
0
LINE
5
187
100
AcDbEntity
8
0
100
AcDbLine
10
-11.424406239322053
20
-22.895328517838127
30
0
11
-20.921821159598228
21
-29.504877205002078
31
0
0
ENDSEC
0
SECTION
2
OBJECTS
0
DICTIONARY
5
C
100
AcDbDictionary
3
ACAD_GROUP
350
D
3
ACAD_MLINESTYLE
350
17
0
DICTIONARY
5
D
100
AcDbDictionary
0
DICTIONARY
5
1A
330
C
100
AcDbDictionary
0
DICTIONARY
5
17
100
AcDbDictionary
0
ENDSEC
0
EOF
