0
SECTION
2
HEADER
9
$INSUNITS
70
4
9
$ACADVER
1
AC1014
9
$HANDSEED
5
FFFF
0
ENDSEC
0
SECTION
2
TABLES
0
TABLE
2
VPORT
5
8
100
AcDbSymbolTable
0
ENDTAB
0
TABLE
2
LTYPE
5
5
100
AcDbSymbolTable
0
LTYPE
5
14
100
AcDbSymbolTableRecord
100
AcDbLinetypeTableRecord
2
BYBLOCK
70
0
0
LTYPE
5
15
100
AcDbSymbolTableRecord
100
AcDbLinetypeTableRecord
2
BYLAYER
70
0
0
ENDTAB
0
TABLE
2
LAYER
5
2
100
AcDbSymbolTable
70
2
0
LAYER
5
50
100
AcDbSymbolTableRecord
100
AcDbLayerTableRecord
2
0
70
0
6
CONTINUOUS
0
ENDTAB
0
TABLE
2
STYLE
5
3
100
AcDbSymbolTable
70
1
0
STYLE
5
11
100
AcDbSymbolTableRecord
100
AcDbTextStyleTableRecord
2
STANDARD
70
0
0
ENDTAB
0
TABLE
2
VIEW
5
6
100
AcDbSymbolTable
70
0
0
ENDTAB
0
TABLE
2
UCS
5
7
100
AcDbSymbolTable
70
0
0
ENDTAB
0
TABLE
2
APPID
5
9
100
AcDbSymbolTable
70
2
0
APPID
5
12
100
AcDbSymbolTableRecord
100
AcDbRegAppTableRecord
2
ACAD
70
0
0
ENDTAB
0
TABLE
2
DIMSTYLE
5
A
100
AcDbSymbolTable
70
1
0
ENDTAB
0
TABLE
2
BLOCK_RECORD
5
1
100
AcDbSymbolTable
70
1
0
BLOCK_RECORD
5
1F
100
AcDbSymbolTableRecord
100
AcDbBlockTableRecord
2
*MODEL_SPACE
0
BLOCK_RECORD
5
1B
100
AcDbSymbolTableRecord
100
AcDbBlockTableRecord
2
*PAPER_SPACE
0
ENDTAB
0
ENDSEC
0
SECTION
2
BLOCKS
0
BLOCK
5
20
100
AcDbEntity
100
AcDbBlockBegin
2
*MODEL_SPACE
0
ENDBLK
5
21
100
AcDbEntity
100
AcDbBlockEnd
0
BLOCK
5
1C
100
AcDbEntity
100
AcDbBlockBegin
2
*PAPER_SPACE
0
ENDBLK
5
1D
100
AcDbEntity
100
AcDbBlockEnd
0
ENDSEC
0
SECTION
2
ENTITIES
0
LWPOLYLINE
5
100
100
AcDbEntity
8
0
100
AcDbPolyline
90
4
70
1
43
0.0
10
78.056640335983317
20
-2.9959757822082809
42
0.99999999999999989
10
80.556640335983303
20
-2.9959757822082449
10
80.556640335983275
20
3.0040242177917205
42
0.99999999999999989
10
78.056640335983317
20
3.0040242177917529
0
ARC
5
101
100
AcDbEntity
8
0
100
AcDbCircle
10
2.8416063305725103e-05
20
-39.311283907380115
30
0
40
19.999999999999972
210
0
220
0
230
-1
100
AcDbArc
50
55.164733451115886
51
124.8353618180268
0
LWPOLYLINE
5
102
100
AcDbEntity
8
0
100
AcDbPolyline
90
6
70
1
43
0.0
10
-0.80202782739973344
20
4.3895587096396724
42
0.41421356237309748
10
0.78189136245813806
20
4.3895587096396529
10
4.0715980939208771
20
7.6792654411024142
42
0.4715270145580352
10
3.9062493049848577
20
9.3995347353304997
42
0.30591604687870522
10
-3.9263857699264286
20
9.3995347353305014
42
0.47152701455803581
10
-4.0917345588624716
20
7.6792654411024213
0
LWPOLYLINE
5
103
100
AcDbEntity
8
0
100
AcDbPolyline
90
6
70
1
43
0.0
10
18.285736999661808
20
-8.6722971678230696
10
13.209952356352641
20
-6.349138202339959
42
-0.48907535790535372
10
12.764097303739526
20
-4.4604552272650224
10
14.13942001775901
20
-2.7524508135080374
42
-0.45073597972559393
10
16.156215447147602
20
-2.659718338880344
10
19.697227860753465
20
-6.8013429019757634
42
-0.80346864447474486
0
CIRCLE
5
104
100
AcDbEntity
8
0
100
AcDbCircle
10
15.260029748554489
20
-15.268251427013064
30
0
40
2.0499999999999998
210
0
220
0
230
1
0
LWPOLYLINE
5
105
100
AcDbEntity
8
0
100
AcDbPolyline
90
6
70
1
43
0.0
10
-4.5067167712281684
20
-0.80301000134852085
42
0.41421356237308599
10
-4.5065636608683759
20
0.78090918110909457
10
-7.7962504223632205
20
4.071232002603594
42
0.47153771067371869
10
-9.5165576272938921
20
3.9060170141768378
42
0.30591575937633803
10
-9.5170447562396472
20
-3.9269863780646381
42
0.47151663987950659
10
-7.7968127247632424
20
-4.0924699387403765
0
LWPOLYLINE
5
106
100
AcDbEntity
8
0
100
AcDbPolyline
90
6
70
1
43
0.0
10
3.9830652358393079
20
-7.6799719597533933
10
0.69335850437659685
20
-4.3902652282906676
42
0.41421356237309515
10
-0.89056068548125644
20
-4.390265228290648
10
-4.1802674169439857
20
-7.6799719597533942
42
0.47152701455803847
10
-4.0149186280079707
20
-9.4002412539814788
42
0.30591604687870438
10
3.8177164469032809
20
-9.400241253981477
42
0.47152701455804863
0
LWPOLYLINE
5
107
100
AcDbEntity
8
0
100
AcDbPolyline
90
6
70
1
43
0.0
10
19.485850113478843
20
6.9673406639338253
10
15.928141135616386
20
2.6657869733477613
42
-0.48907535790535611
10
13.988417693347575
20
2.7239511873575672
10
12.69457183023432
20
4.4944749877104284
42
-0.45073597972559371
10
13.126984205257219
20
6.4665507098317487
10
18.043967785129887
20
8.8149747367503242
42
-0.80346864447474353
0
ARC
5
108
100
AcDbEntity
8
0
100
AcDbCircle
10
-26.481431609885249
20
24.15221524812511
30
0
40
4.1927896361134351
210
0
220
0
230
1
100
AcDbArc
50
166.02555470149233
51
210.44113121166123
0
LWPOLYLINE
5
109
100
AcDbEntity
8
0
100
AcDbPolyline
90
6
70
1
43
0.0
10
8.3670780917843111
20
-4.0929230377960799
42
0.47153771067372041
10
10.087385296714986
20
-3.9277080493693264
42
0.30591575937633847
10
10.087872425660738
20
3.9052953428721535
42
0.47151663987950748
10
8.3676403941843347
20
4.0707789035478879
10
5.0775444406492571
20
0.78131896615603325
42
0.41421356237308582
10
5.0773913302894647
20
-0.80260021630158385
0
ARC
5
110
100
AcDbEntity
8
0
100
AcDbCircle
10
84.000000345071513
20
4.8615031441453436
30
0
40
2.9999999999999538
210
0
220
-0
230
1
100
AcDbArc
50
0
51
61.627737522068834
0
CIRCLE
5
111
100
AcDbEntity
8
0
100
AcDbCircle
10
24.446804449975801
20
24.446779073640151
30
0
40
2.1249999999999991
210
0
220
0
230
1
0
LWPOLYLINE
5
112
100
AcDbEntity
8
0
100
AcDbPolyline
90
6
70
1
43
0.0
10
43.735706331248991
20
0.56689761514027714
42
-0.41421356237309048
10
43.735706331248991
20
-0.56447323475820377
10
38.920779358368392
20
-5.3794002076388114
42
-0.66817863791930776
10
37.55509393341913
20
-4.8137147826895692
10
37.555093933419172
20
4.8161391630716457
42
-0.66817863791929921
10
38.920779358368392
20
5.381824588020879
0
CIRCLE
5
113
100
AcDbEntity
8
0
100
AcDbCircle
10
-24.446701766552632
20
24.446856091086197
30
0
40
2.125
210
0
220
0
230
1
0
LINE
5
114
100
AcDbEntity
8
0
100
AcDbLine
10
-20.921821159598228
20
-29.504877205002078
30
0
11
-11.424406239322039
21
-22.895328517838117
31
0
0
LINE
5
115
100
AcDbEntity
8
0
100
AcDbLine
10
-11.352998429901342
20
22.883346705733253
30
0
11
-20.958187157648847
21
29.506246970773677
31
0
0
LINE
5
116
100
AcDbEntity
8
0
100
AcDbLine
10
-30.096245940848434
20
22.027926594160348
30
0
11
-23.827430142053323
21
11.360541469563948
31
0
0
LINE
5
117
100
AcDbEntity
8
0
100
AcDbLine
10
87.000000345071484
20
-4.8567078558546726
30
0
11
87.00000034507147
21
4.8615031441453489
31
0
0
CIRCLE
5
118
100
AcDbEntity
8
0
100
AcDbCircle
10
24.431999465876562
20
-24.460555337715174
30
0
40
2.1249999999999982
210
0
220
0
230
1
0
CIRCLE
5
119
100
AcDbEntity
8
0
100
AcDbCircle
10
-15.239970251445277
20
-15.268251427013036
30
0
40
2.0499999999999998
210
0
220
0
230
1
0
LINE
5
120
100
AcDbEntity
8
0
100
AcDbLine
10
11.424376702977156
20
-22.895347513861743
30
0
11
20.921565382923397
21
-29.504762193033535
31
0
0
ARC
5
121
100
AcDbEntity
8
0
100
AcDbCircle
10
40.28400647994971
20
-0.0052446992406618431
30
0
40
20.000000000000032
210
0
220
0
230
-1
100
AcDbArc
50
145.36898002316158
51
214.6214456449988
0
CIRCLE
5
122
100
AcDbEntity
8
0
100
AcDbCircle
10
-24.43231794214455
20
-24.460562366246812
30
0
40
2.1250000000000004
210
0
220
0
230
1
0
CIRCLE
5
123
100
AcDbEntity
8
0
100
AcDbCircle
10
-15.239970251445257
20
15.231748572986696
30
0
40
2.0499999999999998
210
0
220
0
230
1
0
LINE
5
124
100
AcDbEntity
8
0
100
AcDbLine
10
-23.825531107877801
20
-11.368280755986397
30
0
11
-30.080947547192736
21
-22.03920504603467
31
0
0
CIRCLE
5
125
100
AcDbEntity
8
0
100
AcDbCircle
10
15.2600297485545
20
15.231748572986676
30
0
40
3.0499999999999994
210
0
220
0
230
1
0
ARC
5
126
100
AcDbEntity
8
0
100
AcDbCircle
10
84.000000345071442
20
-4.8567078558546779
30
0
40
3.000000000000052
210
0
220
0
230
1
100
AcDbArc
50
-64.550894732615916
51
0
0
LINE
5
127
100
AcDbEntity
8
0
100
AcDbLine
10
20.958307338435915
20
29.506182017939313
30
0
11
11.353084786902613
21
22.883307442495607
31
0
0
LWPOLYLINE
5
128
100
AcDbEntity
8
0
100
AcDbPolyline
90
8
70
1
43
0.0
10
29.697840370247661
20
4.3227036213286691
10
29.693355203174878
20
-4.314236172611893
42
0.19904733265393873
10
30.132694829140334
20
-5.375675295022674
10
31.481572841213961
20
-6.7245533070962722
42
0.66817863791929644
10
33.188679622400478
20
-6.0174465259097261
10
33.188679622400485
20
6.0198709062917928
42
0.66817863791929322
10
31.481572841213946
20
6.7269776874783469
10
30.137179996213135
20
5.3825848424775335
42
0.19877740907584379
0
ARC
5
129
100
AcDbEntity
8
0
100
AcDbCircle
10
-7.1650332310602138e-05
20
39.348698197678495
30
0
40
19.999999999999993
210
0
220
0
230
-1
100
AcDbArc
50
235.41343914067542
51
304.58675901043551
0
ARC
5
130
100
AcDbEntity
8
0
100
AcDbCircle
10
-24.446701766552646
20
24.446856091086197
30
0
40
6.1455000000000073
210
0
220
-0
230
1
100
AcDbArc
50
55.413240989564471
51
173.29181264405977
0
CIRCLE
5
131
100
AcDbEntity
8
0
100
AcDbCircle
10
10.005012366541914
20
-10.026393280513958
30
0
40
2.1249999999999991
210
0
220
0
230
1
0
ARC
5
132
100
AcDbEntity
8
0
100
AcDbCircle
10
-24.432317942144557
20
-24.460562366246815
30
0
40
6.1456244477477302
210
0
220
0
230
1
100
AcDbArc
50
174.54692080600003
51
304.83526654888442
0
ARC
5
133
100
AcDbEntity
8
0
100
AcDbCircle
10
-27.12320564839008
20
-23.773066780418407
30
0
40
3.4284856210713377
210
0
220
0
230
1
100
AcDbArc
50
149.6206860599944
51
181.72947777852025
0
CIRCLE
5
134
100
AcDbEntity
8
0
100
AcDbCircle
10
36.422712099757874
20
10.001212190191037
30
0
40
1.45
210
0
220
0
230
1
0
CIRCLE
5
135
100
AcDbEntity
8
0
100
AcDbCircle
10
10.004809283187306
20
9.9734595074890962
30
0
40
2.5
210
0
220
0
230
1
0
LWPOLYLINE
5
136
100
AcDbEntity
8
0
100
AcDbPolyline
90
6
70
1
43
0.0
10
45.857026674808651
20
2.6882179586999202
42
0.41421356237308871
10
46.988397524707111
20
2.6882179586999202
10
51.381201430193009
20
7.0810218641857592
42
0.64805135590373386
10
50.860434752804508
20
8.4454452349705313
10
41.551308171904935
20
8.9689640048983144
42
0.68868728194202866
10
40.940703999394962
20
7.6045406341135475
0
CIRCLE
5
137
100
AcDbEntity
8
0
100
AcDbCircle
10
-9.9951907371821278
20
9.9734594871076503
30
0
40
2.125
210
0
220
0
230
1
0
ARC
5
138
100
AcDbEntity
8
0
100
AcDbCircle
10
84.000000345071442
20
-4.8567078558546832
30
0
40
3.0000000000000488
210
0
220
0
230
1
100
AcDbArc
50
-61.194101470216431
51
0
0
LWPOLYLINE
5
139
100
AcDbEntity
8
0
100
AcDbPolyline
90
6
70
1
43
0.0
10
49.074362529207427
20
0.6022529541995969
10
54.190222437893077
20
5.7181128628852438
42
-0.66817863791931731
10
55.641263201901637
20
5.1170720988766849
10
55.64126320190163
20
-5.1146477184946093
42
-0.66817863791932219
10
54.190222437893077
20
-5.7156884825031726
10
49.074362529207427
20
-0.5998285738175313
42
-0.41421356237308715
0
CIRCLE
5
140
100
AcDbEntity
8
0
100
AcDbCircle
10
-9.9951907371821278
20
9.9734594871076503
30
0
40
2.5
210
0
220
0
230
1
0
LWPOLYLINE
5
141
100
AcDbEntity
8
0
100
AcDbPolyline
90
6
70
1
43
0.0
10
51.372788232252233
20
-7.070184285862914
10
46.988397524707118
20
-2.6857935783178419
42
0.4142135623730987
10
45.857026674808651
20
-2.6857935783178362
10
40.998598548185761
20
-7.5442217049406679
42
0.68686963586872918
10
41.60525980170668
20
-8.9088570541485463
10
50.84807863587465
20
-8.4348196350707756
42
0.64980492153852054
0
LINE
5
142
100
AcDbEntity
8
0
100
AcDbLine
10
38.258146347727219
20
14.277870838219533
30
0
11
37.330953857424227
21
14.330013503569646
31
0
0
ARC
5
143
100
AcDbEntity
8
0
100
AcDbCircle
10
-39.775617067755469
20
14.192532606125807
30
0
40
1.0999999999999948
210
-0
220
0
230
-1
100
AcDbArc
50
273.21876110290788
51
345.00880423862537
0
CIRCLE
5
144
100
AcDbEntity
8
0
100
AcDbCircle
10
84.000000345071498
20
4.8615031441453054
30
0
40
1.45
210
0
220
0
230
1
0
CIRCLE
5
145
100
AcDbEntity
8
0
100
AcDbCircle
10
15.260029748554489
20
-15.268251427013064
30
0
40
3.0499999999999998
210
0
220
0
230
1
0
CIRCLE
5
146
100
AcDbEntity
8
0
100
AcDbCircle
10
10.004809283187306
20
9.9734595074890962
30
0
40
2.125
210
0
220
0
230
1
0
CIRCLE
5
147
100
AcDbEntity
8
0
100
AcDbCircle
10
-9.9951907371821278
20
-10.026540512892213
30
0
40
2.5
210
0
220
0
230
1
0
ARC
5
148
100
AcDbEntity
8
0
100
AcDbCircle
10
38.230072130501725
20
13.77865962207232
30
0
40
0.50000000000000488
210
0
220
-0
230
1
100
AcDbArc
50
14.991195761374641
51
86.781238897088642
0
LINE
5
149
100
AcDbEntity
8
0
100
AcDbLine
10
52.693345409686927
20
12.364338282739789
30
0
11
39.713853789859449
21
13.094267930601948
31
0
0
ARC
5
150
100
AcDbEntity
8
0
100
AcDbCircle
10
84.000000345071513
20
4.86150314414534
30
0
40
2.9999999999999538
210
0
220
-0
230
1
100
AcDbArc
50
0
51
64.909369451928868
0
CIRCLE
5
151
100
AcDbEntity
8
0
100
AcDbCircle
10
0
20
0
30
0
40
2.5
210
0
220
0
230
1
0
CIRCLE
5
152
100
AcDbEntity
8
0
100
AcDbCircle
10
-15.239970251445257
20
15.231748572986696
30
0
40
3.0499999999999994
210
0
220
0
230
1
0
LINE
5
153
100
AcDbEntity
8
0
100
AcDbLine
10
87.000000345071484
20
-4.8567078558546726
30
0
11
87.00000034507147
21
4.8615031441453489
31
0
0
CIRCLE
5
154
100
AcDbEntity
8
0
100
AcDbCircle
10
15.2600297485545
20
15.231748572986676
30
0
40
2.0499999999999998
210
0
220
0
230
1
0
ARC
5
155
100
AcDbEntity
8
0
100
AcDbCircle
10
54.407793139032705
20
-12.855741549479895
30
0
40
0.50000000000000833
210
0
220
0
230
1
100
AcDbArc
50
199.53751183661049
51
272.94494146708894
0
LINE
5
156
100
AcDbEntity
8
0
100
AcDbLine
10
54.272654043050991
20
13.377260523288399
30
0
11
85.134270005608641
21
7.6042105932623949
31
0
0
CIRCLE
5
157
100
AcDbEntity
8
0
100
AcDbCircle
10
56.422712099757888
20
10.001212190191037
30
0
40
1.45
210
0
220
0
230
1
0
ARC
5
158
100
AcDbEntity
8
0
100
AcDbCircle
10
-52.755108687582968
20
13.462602958263666
30
0
40
1.1000000000000127
210
0
220
0
230
-1
100
AcDbArc
50
201.42871796719129
51
273.2187611029089
0
CIRCLE
5
159
100
AcDbEntity
8
0
100
AcDbCircle
10
-24.43231794214455
20
-24.460562366246812
30
0
40
2.5
210
0
220
0
230
1
0
LINE
5
160
100
AcDbEntity
8
0
100
AcDbLine
10
37.339809427482415
20
-14.231766180371253
30
0
11
38.100767372823682
21
-14.192738850407494
31
0
0
ARC
5
161
100
AcDbEntity
8
0
100
AcDbCircle
10
39.775617067755498
20
-14.106840658419395
30
0
40
1.25
210
0
220
0
230
1
100
AcDbArc
50
270
51
272.93596223758954
0
CIRCLE
5
162
100
AcDbEntity
8
0
100
AcDbCircle
10
-24.446701766552632
20
24.446856091086197
30
0
40
2.5
210
0
220
0
230
1
0
CIRCLE
5
163
100
AcDbEntity
8
0
100
AcDbCircle
10
28.188765728745931
20
-13.151647761377181
30
0
40
1.45
210
0
220
0
230
1
0
LINE
5
164
100
AcDbEntity
8
0
100
AcDbLine
10
29.702352785585845
20
13.012114510299213
30
0
11
29.702351976567076
21
13.010556609245114
31
0
0
CIRCLE
5
165
100
AcDbEntity
8
0
100
AcDbCircle
10
24.431999465876562
20
-24.460555337715174
30
0
40
2.5000000000000004
210
0
220
0
230
1
0
CIRCLE
5
166
100
AcDbEntity
8
0
100
AcDbCircle
10
0
20
0
30
0
40
2.125
210
0
220
0
230
1
0
CIRCLE
5
167
100
AcDbEntity
8
0
100
AcDbCircle
10
56.422712099757888
20
-9.9987878098089649
30
0
40
1.45
210
0
220
0
230
1
0
CIRCLE
5
168
100
AcDbEntity
8
0
100
AcDbCircle
10
84.000000345071498
20
-4.8567078558546966
30
0
40
1.45
210
0
220
0
230
1
0
CIRCLE
5
169
100
AcDbEntity
8
0
100
AcDbCircle
10
36.422712099757874
20
-9.9987878098089649
30
0
40
1.45
210
0
220
0
230
1
0
ARC
5
170
100
AcDbEntity
8
0
100
AcDbCircle
10
-52.758553336958173
20
-13.440983444129655
30
0
40
1.2500000000000064
210
0
220
0
230
-1
100
AcDbArc
50
87.064037762411147
51
160.46248816339082
0
CIRCLE
5
171
100
AcDbEntity
8
0
100
AcDbCircle
10
-15.239970251445277
20
-15.268251427013036
30
0
40
3.0499999999999994
210
0
220
0
230
1
0
ARC
5
172
100
AcDbEntity
8
0
100
AcDbCircle
10
33.577863462097909
20
24.96052177884501
30
0
40
3.0000000000000031
210
0
220
0
230
1
100
AcDbArc
50
183.22024947688189
51
198.00715626652917
0
CIRCLE
5
173
100
AcDbEntity
8
0
100
AcDbCircle
10
-9.9951907371821278
20
-10.026540512892213
30
0
40
2.125
210
0
220
0
230
1
0
LINE
5
174
100
AcDbEntity
8
0
100
AcDbLine
10
39.711592335612252
20
-12.858481401765296
30
0
11
52.694528604814934
21
-12.192624187475545
31
0
0
ARC
5
175
100
AcDbEntity
8
0
100
AcDbCircle
10
24.446804449975801
20
24.446779073640151
30
0
40
6.1455000000004114
210
0
220
-0
230
1
100
AcDbArc
50
3.2202494768820014
51
124.58656085932471
0
LINE
5
176
100
AcDbEntity
8
0
100
AcDbLine
10
37.330953857424227
20
14.330013503569646
30
0
11
37.232149023748811
21
14.340752715483573
31
0
0
LWPOLYLINE
5
177
100
AcDbEntity
8
0
100
AcDbPolyline
90
6
70
1
43
0.0
10
64.735706331248991
20
-0.56447323475820377
10
59.920779358368399
20
-5.3794002076388132
42
-0.66817863791930654
10
58.555093933419116
20
-4.8137147826895692
10
58.555093933419158
20
4.8161391630716457
42
-0.66817863791930499
10
59.920779358368392
20
5.381824588020879
10
64.735706331248991
20
0.56689761514027714
42
-0.41421356237309043
0
ARC
5
178
100
AcDbEntity
8
0
100
AcDbCircle
10
38.075157479966393
20
-13.693395147745857
30
0
40
0.49999999999999684
210
0
220
0
230
1
100
AcDbArc
50
272.93596223758823
51
346.33441263856861
0
ARC
5
179
100
AcDbEntity
8
0
100
AcDbCircle
10
24.431999465876562
20
-24.460555337715174
30
0
40
6.1454999999999984
210
0
220
0
230
1
100
AcDbArc
50
235.16463818197312
51
356.90912825759074
0
SPLINE
5
180
100
AcDbEntity
8
0
100
AcDbSpline
70
4
71
5
72
15
73
9
74
0
42
0.000000001
43
0.0000000001
44
0.0000000001
40
0.0089708087097740662
40
0.0089708087097740662
40
0.0089708087097740662
40
0.0089708087097740662
40
0.0089708087097740662
40
0.0089708087097740662
40
0.10000000000000001
40
0.20000000000000001
40
0.30000000000000004
40
0.37194476554410838
40
0.37194476554410838
40
0.37194476554410838
40
0.37194476554410838
40
0.37194476554410838
40
0.37194476554410838
41
1
41
1
41
1
41
1
41
1
41
1
41
1
41
1
41
1
10
30.724809724532616
20
24.033114440851211
30
0
10
30.995049366345711
20
23.201755674787879
30
0
10
31.576283959594921
20
21.543938866128901
30
0
10
32.506998422665248
20
19.296265221827639
30
0
10
33.755134295418671
20
17.029913462101398
30
0
10
35.118689621324393
20
15.473148290211348
30
0
10
36.209095930268909
20
14.729855353723435
30
0
10
36.926841938568849
20
14.433908416417827
30
0
10
37.232149023748811
20
14.340752715483573
30
0
0
LINE
5
181
100
AcDbEntity
8
0
100
AcDbLine
10
54.433481287281694
20
-13.355081232500927
30
0
11
85.148100893797519
21
-7.5920708983441676
31
0
0
CIRCLE
5
182
100
AcDbEntity
8
0
100
AcDbCircle
10
10.005012366541914
20
-10.026393280513958
30
0
40
2.5
210
0
220
0
230
1
0
ARC
5
183
100
AcDbEntity
8
0
100
AcDbCircle
10
-39.775617067755519
20
-14.106840658419413
30
0
40
1.2500000000000102
210
0
220
0
230
-1
100
AcDbArc
50
13.665587361431646
51
87.064037762409853
0
ARC
5
184
100
AcDbEntity
8
0
100
AcDbCircle
10
54.244505190385794
20
12.878053510022713
30
0
40
0.50000000000001332
210
0
220
-0
230
1
100
AcDbArc
50
86.772672756040592
51
158.57128203280769
0
CIRCLE
5
185
100
AcDbEntity
8
0
100
AcDbCircle
10
28.202352785585845
20
13.012114510299213
30
0
40
1.45
210
0
220
0
230
1
0
LINE
5
186
100
AcDbEntity
8
0
100
AcDbLine
10
37.339809427482415
20
-14.231766180371253
30
0
11
37.095388045094793
21
-14.260012319026034
31
0
0
CIRCLE
5
187
100
AcDbEntity
8
0
100
AcDbCircle
10
24.446804449975801
20
24.446779073640151
30
0
40
2.4999999999999978
210
0
220
0
230
1
0
ARC
5
188
100
AcDbEntity
8
0
100
AcDbCircle
10
33.564195263665212
20
-24.953678203592577
30
0
40
3.0000000000000022
210
0
220
0
230
1
100
AcDbArc
50
162.71095461979854
51
176.90912825759111
0
SPLINE
5
189
100
AcDbEntity
8
0
100
AcDbSpline
70
4
71
5
72
15
73
9
74
0
42
0.000000001
43
0.0000000001
44
0.0000000001
40
0.008560303581015373
40
0.008560303581015373
40
0.008560303581015373
40
0.008560303581015373
40
0.008560303581015373
40
0.008560303581015373
40
0.10000000000000001
40
0.20000000000000001
40
0.30000000000000004
40
0.37155740623852412
40
0.37155740623852412
40
0.37155740623852412
40
0.37155740623852412
40
0.37155740623852412
40
0.37155740623852412
41
1
41
1
41
1
41
1
41
1
41
1
41
1
41
1
41
1
10
30.699742348485451
20
-24.062101231750997
30
0
10
30.962244047079412
20
-23.218737417335561
30
0
10
31.52687631819941
20
-21.541176262236004
30
0
10
32.434492018168072
20
-19.268548410908693
30
0
10
33.657565769567569
20
-16.980012542026106
30
0
10
35.002856608529541
20
-15.406869758031768
30
0
10
36.081893653795831
20
-14.655128042117465
30
0
10
36.793395354789936
20
-14.354739317048875
30
0
10
37.095388045094793
20
-14.260012319026034
30
0
0
LWPOLYLINE
5
190
100
AcDbEntity
8
0
100
AcDbPolyline
90
6
70
1
43
0.0
10
61.44070399939497
20
7.6045406341135475
10
66.357026674808651
20
2.6882179586999202
42
0.41421356237308871
10
67.488397524707125
20
2.6882179586999202
10
70.547733366595651
20
5.7475538005884061
42
0.60162153570798882
10
70.029240639335256
20
7.436711873032972
10
62.051308171904942
20
8.9689640048983144
42
0.68868728194202866
0
LWPOLYLINE
5
191
100
AcDbEntity
8
0
100
AcDbPolyline
90
6
70
1
43
0.0
10
61.498598548185768
20
-7.5442217049406679
42
0.68686963586872918
10
62.105259801706687
20
-8.9088570541485463
10
70.011251345117728
20
-7.4206063200419603
42
0.6028768149995597
10
70.533363881234109
20
-5.7307599348447997
10
67.488397524707125
20
-2.6857935783178419
42
0.4142135623730987
10
66.357026674808651
20
-2.6857935783178362
0
LWPOLYLINE
5
192
100
AcDbEntity
8
0
100
AcDbPolyline
90
6
70
1
43
0.0
10
69.574362529207434
20
0.6022529541995969
10
74.690222437893084
20
5.7181128628852438
42
-0.66817863791931731
10
76.141263201901651
20
5.1170720988766849
10
76.141263201901637
20
-5.1146477184946093
42
-0.66817863791932219
10
74.690222437893084
20
-5.7156884825031726
10
69.574362529207434
20
-0.5998285738175313
42
-0.41421356237308715
0
ARC
5
193
100
AcDbEntity
8
0
100
AcDbCircle
10
84.963688117550888
20
-6.6092220147625458
30
0
40
1.0000000000003164
210
0
220
0
230
1
100
AcDbArc
50
280.62689790715905
51
298.80589852978056
0
ARC
5
194
100
AcDbEntity
8
0
100
AcDbCircle
10
84.950396956523676
20
6.6212605936079658
30
0
40
1.0000000000002196
210
0
220
-0
230
1
100
AcDbArc
50
61.627737522071754
51
79.404564200117221
0
ENDSEC
0
SECTION
2
OBJECTS
0
DICTIONARY
5
C
100
AcDbDictionary
3
ACAD_GROUP
350
D
3
ACAD_MLINESTYLE
350
17
0
DICTIONARY
5
D
100
AcDbDictionary
0
DICTIONARY
5
1A
330
C
100
AcDbDictionary
0
DICTIONARY
5
17
100
AcDbDictionary
0
ENDSEC
0
EOF
