0
SECTION
2
HEADER
9
$INSUNITS
70
4
9
$ACADVER
1
AC1014
9
$HANDSEED
5
FFFF
0
ENDSEC
0
SECTION
2
TABLES
0
TABLE
2
VPORT
5
8
100
AcDbSymbolTable
0
ENDTAB
0
TABLE
2
LTYPE
5
5
100
AcDbSymbolTable
0
LTYPE
5
14
100
AcDbSymbolTableRecord
100
AcDbLinetypeTableRecord
2
BYBLOCK
70
0
0
LTYPE
5
15
100
AcDbSymbolTableRecord
100
AcDbLinetypeTableRecord
2
BYLAYER
70
0
0
ENDTAB
0
TABLE
2
LAYER
5
2
100
AcDbSymbolTable
70
2
0
LAYER
5
50
100
AcDbSymbolTableRecord
100
AcDbLayerTableRecord
2
0
70
0
6
CONTINUOUS
0
ENDTAB
0
TABLE
2
STYLE
5
3
100
AcDbSymbolTable
70
1
0
STYLE
5
11
100
AcDbSymbolTableRecord
100
AcDbTextStyleTableRecord
2
STANDARD
70
0
0
ENDTAB
0
TABLE
2
VIEW
5
6
100
AcDbSymbolTable
70
0
0
ENDTAB
0
TABLE
2
UCS
5
7
100
AcDbSymbolTable
70
0
0
ENDTAB
0
TABLE
2
APPID
5
9
100
AcDbSymbolTable
70
2
0
APPID
5
12
100
AcDbSymbolTableRecord
100
AcDbRegAppTableRecord
2
ACAD
70
0
0
ENDTAB
0
TABLE
2
DIMSTYLE
5
A
100
AcDbSymbolTable
70
1
0
ENDTAB
0
TABLE
2
BLOCK_RECORD
5
1
100
AcDbSymbolTable
70
1
0
BLOCK_RECORD
5
1F
100
AcDbSymbolTableRecord
100
AcDbBlockTableRecord
2
*MODEL_SPACE
0
BLOCK_RECORD
5
1B
100
AcDbSymbolTableRecord
100
AcDbBlockTableRecord
2
*PAPER_SPACE
0
ENDTAB
0
ENDSEC
0
SECTION
2
BLOCKS
0
BLOCK
5
20
100
AcDbEntity
100
AcDbBlockBegin
2
*MODEL_SPACE
0
ENDBLK
5
21
100
AcDbEntity
100
AcDbBlockEnd
0
BLOCK
5
1C
100
AcDbEntity
100
AcDbBlockBegin
2
*PAPER_SPACE
0
ENDBLK
5
1D
100
AcDbEntity
100
AcDbBlockEnd
0
ENDSEC
0
SECTION
2
ENTITIES
0
LWPOLYLINE
5
100
100
AcDbEntity
8
0
100
AcDbPolyline
90
8
70
1
43
0.0
10
-10.303188178630139
20
38.229765012789841
42
-0.99999999999999989
10
-10.303188178630139
20
36.629765012789854
10
-10.30318817863014
20
35.729765012789862
42
-0.99999999999999989
10
-10.30318817863014
20
34.129765012789875
10
-12.003188178630131
20
34.129765012789875
42
-0.99999999999999989
10
-12.003188178630122
20
35.729765012789862
10
-12.003188178630122
20
36.629765012789846
42
-0.99999999999999989
10
-12.003188178630122
20
38.229765012789848
0
LWPOLYLINE
5
101
100
AcDbEntity
8
0
100
AcDbPolyline
90
8
70
1
43
0.0
10
10.295869896063918
20
34.128546167566711
42
-0.99999999999999989
10
10.29586989606382
20
35.728546167566691
10
10.295869896063767
20
36.628546167566675
42
-0.99999999999999989
10
10.29586989606366
20
38.228546167566677
10
11.995869896063651
20
38.228546167566776
42
-0.99999999999999989
10
11.995869896063748
20
36.628546167566796
10
11.995869896063807
20
35.728546167566805
42
-0.99999999999999989
10
11.995869896063905
20
34.12854616756681
0
LWPOLYLINE
5
102
100
AcDbEntity
8
0
100
AcDbPolyline
90
8
70
1
43
0.0
10
6.0000000000005613
20
26.362371167628147
42
-0.41421356237309243
10
7.0000000000005622
20
25.362371167628147
10
7.0000000000005622
20
21.362371167628144
42
-0.41421356237309243
10
6.0000000000005613
20
20.362371167628144
10
-5.9999999999994369
20
20.362371167628144
42
-0.41421356237309243
10
-6.9999999999994378
20
21.362371167628144
10
-6.9999999999994387
20
25.362371167628147
42
-0.41421356237309243
10
-5.9999999999994378
20
26.362371167628147
0
LWPOLYLINE
5
103
100
AcDbEntity
8
0
100
AcDbPolyline
90
8
70
1
43
0.0
10
7.9043922350224696
20
30.472982751267708
42
-0.41421356237309503
10
5.9043922350224678
20
28.472982751267708
10
-5.9318526426153788
20
28.472982751267708
42
-0.41421356237309503
10
-7.9318526426153806
20
30.472982751267708
10
-7.9318526426153806
20
37.880398717463741
42
-0.41421356237309503
10
-5.9318526426153788
20
39.880398717463741
10
5.9043922350224696
20
39.880398717463741
42
-0.41421356237309503
10
7.9043922350224696
20
37.880398717463741
0
ARC
5
104
100
AcDbEntity
8
0
100
AcDbCircle
10
16.097735001374677
20
28.224873734150822
30
0
40
5.0977350013746845
210
0
220
0
230
1
100
AcDbArc
50
309.60848163143066
51
320.39151836856922
0
ARC
5
105
100
AcDbEntity
8
0
100
AcDbCircle
10
20.571960646232537
20
6.540737725975565
30
0
40
6.4215728752538181
210
0
220
0
230
1
100
AcDbArc
50
135.00000000000009
51
220.77446123561148
0
LWPOLYLINE
5
106
100
AcDbEntity
8
0
100
AcDbPolyline
90
4
70
1
43
0.0
10
19.141242789363893
20
17.373475836397525
10
13.484388539871512
20
11.716621586905143
42
-0.99999999999999989
10
11.716621586905143
20
13.484388539871512
10
17.373475836397525
20
19.141242789363893
42
-0.99999999999999989
0
LWPOLYLINE
5
107
100
AcDbEntity
8
0
100
AcDbPolyline
90
8
70
1
43
0.0
10
-6.9999999999994387
20
8.5923711676281478
10
-6.9999999999994378
20
4.5923711676281442
42
0.41421356237309243
10
-5.999999999999436
20
3.5923711676281433
10
6.0000000000005613
20
3.5923711676281433
42
0.41421356237309243
10
7.0000000000005613
20
4.5923711676281442
10
7.0000000000005622
20
8.5923711676281478
42
0.41421356237309243
10
6.0000000000005613
20
9.5923711676281478
10
-5.9999999999994378
20
9.5923711676281478
42
0.41421356237309243
0
LWPOLYLINE
5
108
100
AcDbEntity
8
0
100
AcDbPolyline
90
8
70
1
43
0.0
10
7.0000000000005711
20
-26.414419200548721
10
7.0000000000005702
20
-21.387809505039058
42
0.41421356237309503
10
6.0000000000005649
20
-20.387809505039055
10
-5.9999999999994325
20
-20.387809505039055
42
0.41421356237309503
10
-6.9999999999994378
20
-21.387809505039058
10
-6.9999999999994351
20
-26.414419200548721
42
0.41421356237309503
10
-5.9999999999994316
20
-27.414419200548728
10
6.0000000000005658
20
-27.414419200548728
42
0.41421356237309503
0
LWPOLYLINE
5
109
100
AcDbEntity
8
0
100
AcDbPolyline
90
8
70
1
43
0.0
10
-5.9999999999994316
20
-38.804415947483328
42
-0.41421356237309503
10
-6.9999999999994369
20
-37.804415947483321
10
-6.9999999999994378
20
-35.387809505039058
42
-0.41421356237309503
10
-5.9999999999994325
20
-34.387809505039051
10
6.0000000000005649
20
-34.387809505039051
42
-0.41421356237309503
10
7.0000000000005702
20
-35.387809505039058
10
7.0000000000005702
20
-37.804415947483321
42
-0.41421356237309503
10
6.0000000000005649
20
-38.804415947483328
0
CIRCLE
5
110
100
AcDbEntity
8
0
100
AcDbCircle
10
4.3076653355456074e-13
20
-41.377681524664453
30
0
40
1.0500000000000025
210
0
220
0
230
1
0
LINE
5
111
100
AcDbEntity
8
0
100
AcDbLine
10
16.031222920256962
20
11.08147545195113
30
0
11
24.974873734152911
21
20.025126265847078
31
0
0
LWPOLYLINE
5
112
100
AcDbEntity
8
0
100
AcDbPolyline
90
4
70
1
43
0.0
10
-11.548302284873051
20
17.71473158940832
42
-0.99999999999999989
10
-9.7805353319066892
20
19.482498542374685
10
-4.1236810824143184
20
13.825644292882311
42
-0.99999999999999989
10
-5.8914480353806837
20
12.057877339915946
0
LWPOLYLINE
5
113
100
AcDbEntity
8
0
100
AcDbPolyline
90
4
70
1
43
0.0
10
-19.141242789363893
20
-17.373475836397525
10
-13.484388539871512
20
-11.716621586905152
42
-0.99999999999999989
10
-11.716621586905143
20
-13.484388539871512
10
-17.373475836397525
20
-19.141242789363893
42
-0.99999999999999989
0
LWPOLYLINE
5
114
100
AcDbEntity
8
0
100
AcDbPolyline
90
8
70
1
43
0.0
10
7.0000000000005613
20
-8.637628832371858
10
7.0000000000005622
20
-4.6376288323718544
42
0.41421356237309243
10
6.0000000000005613
20
-3.6376288323718531
10
-5.9999999999994378
20
-3.6376288323718531
42
0.41421356237309243
10
-6.9999999999994387
20
-4.6376288323718544
10
-6.9999999999994378
20
-8.637628832371858
42
0.41421356237309243
10
-5.999999999999436
20
-9.637628832371858
10
6.0000000000005613
20
-9.637628832371858
42
0.41421356237309243
0
LWPOLYLINE
5
115
100
AcDbEntity
8
0
100
AcDbPolyline
90
4
70
1
43
0.0
10
-9.7805353319066857
20
-19.482498542374685
10
-4.1236810824143149
20
-13.825644292882311
42
0.99999999999999989
10
-5.891448035380682
20
-12.057877339915946
10
-11.548302284873051
20
-17.714731589408316
42
0.99999999999999989
0
CIRCLE
5
116
100
AcDbEntity
8
0
100
AcDbCircle
10
-14.142135623730949
20
-1.1102230246251565e-15
30
0
40
1.5000000000000002
210
0
220
0
230
1
0
ARC
5
117
100
AcDbEntity
8
0
100
AcDbCircle
10
-16.466278145412318
20
2.9999999999999916
30
0
40
0.99999999999999034
210
0
220
0
230
1
100
AcDbArc
50
270
51
319.22553876438843
0
LINE
5
118
100
AcDbEntity
8
0
100
AcDbLine
10
-18.031222920256962
20
-2.0000000000000009
30
0
11
-16.466278145412321
21
-2.0000000000000009
31
0
0
ARC
5
119
100
AcDbEntity
8
0
100
AcDbCircle
10
-8.4999999999995595
20
-40.499999999996696
30
0
40
2.4999999999999991
210
0
220
0
230
1
100
AcDbArc
50
180
51
270
0
LWPOLYLINE
5
120
100
AcDbEntity
8
0
100
AcDbPolyline
90
4
70
1
43
0.0
10
11.548302284873058
20
-17.71473158940832
42
-0.99999999999999989
10
9.7805353319066874
20
-19.482498542374685
10
4.1236810824143184
20
-13.825644292882316
42
-0.99999999999999989
10
5.8914480353806837
20
-12.057877339915946
0
LWPOLYLINE
5
121
100
AcDbEntity
8
0
100
AcDbPolyline
90
4
70
1
43
0.0
10
-11.716621586905147
20
13.484388539871512
42
-0.99999999999999989
10
-13.484388539871512
20
11.716621586905143
10
-19.141242789363893
20
17.373475836397525
42
-0.99999999999999989
10
-17.373475836397525
20
19.141242789363893
0
ARC
5
122
100
AcDbEntity
8
0
100
AcDbCircle
10
-16.466278145412318
20
-2.9999999999999871
30
0
40
0.99999999999998601
210
0
220
-0
230
1
100
AcDbArc
50
40.774461235611113
51
90.000000000000199
0
LWPOLYLINE
5
123
100
AcDbEntity
8
0
100
AcDbPolyline
90
8
70
1
43
0.0
10
-6.9604132835102508
20
-30.605222102510631
10
-6.9604132835102508
20
-31.556563560777825
42
0.41421356237309503
10
-5.9604132835102464
20
-32.556563560777832
10
6.039586716489751
20
-32.556563560777832
42
0.41421356237309503
10
7.0395867164897563
20
-31.556563560777825
10
7.0395867164897563
20
-30.605222102510631
42
0.41421356237309503
10
6.0395867164897519
20
-29.605222102510623
10
-5.9604132835102455
20
-29.605222102510623
42
0.41421356237309503
0
ARC
5
124
100
AcDbEntity
8
0
100
AcDbCircle
10
22.499999999999996
20
-22.499999999999996
30
0
40
3.4999999999999991
210
0
220
0
230
1
100
AcDbArc
50
-135.00000000000006
51
45.00000000000005
0
LINE
5
125
100
AcDbEntity
8
0
100
AcDbLine
10
-24.974873734152911
20
20.025126265847078
30
0
11
-16.031222920256958
21
11.081475451951128
31
0
0
LWPOLYLINE
5
126
100
AcDbEntity
8
0
100
AcDbPolyline
90
4
70
1
43
0.0
10
17.373475836397525
20
-19.141242789363893
10
11.716621586905143
20
-13.484388539871512
42
-0.99999999999999989
10
13.484388539871512
20
-11.716621586905143
10
19.141242789363893
20
-17.373475836397525
42
-0.99999999999999989
0
ARC
5
127
100
AcDbEntity
8
0
100
AcDbCircle
10
-16.09773500137451
20
-28.224873734151039
30
0
40
5.0977350013749483
210
0
220
0
230
1
100
AcDbArc
50
0
51
140.39151836856848
0
LINE
5
128
100
AcDbEntity
8
0
100
AcDbLine
10
24.974873734152911
20
-20.025126265847078
30
0
11
16.031222920256958
21
-11.081475451951128
31
0
0
CIRCLE
5
129
100
AcDbEntity
8
0
100
AcDbCircle
10
1.1102230246251565e-15
20
-18.031222920256962
30
0
40
1.05
210
0
220
0
230
1
0
ARC
5
130
100
AcDbEntity
8
0
100
AcDbCircle
10
-22.499999999999996
20
-22.499999999999996
30
0
40
3.4999999999999991
210
0
220
0
230
1
100
AcDbArc
50
134.99999999999994
51
315.00000000000006
0
ARC
5
131
100
AcDbEntity
8
0
100
AcDbCircle
10
-20.571960646232522
20
-6.5407377259755641
30
0
40
6.4215728752538057
210
0
220
0
230
1
100
AcDbArc
50
-45
51
40.774461235611575
0
CIRCLE
5
132
100
AcDbEntity
8
0
100
AcDbCircle
10
1.1102230246251565e-15
20
-14.142135623730949
30
0
40
1.5000000000000002
210
0
220
0
230
1
0
ARC
5
133
100
AcDbEntity
8
0
100
AcDbCircle
10
-18.031222920256962
20
-1.1102230246251565e-15
30
0
40
1.9999999999999998
210
0
220
-0
230
1
100
AcDbArc
50
90
51
270
0
LINE
5
134
100
AcDbEntity
8
0
100
AcDbLine
10
-20.025126265847078
20
-24.974873734152911
30
0
11
-19.347735001372676
21
-24.297482469678506
31
0
0
CIRCLE
5
135
100
AcDbEntity
8
0
100
AcDbCircle
10
22.499999999999996
20
-22.499999999999996
30
0
40
1.4999999999999989
210
0
220
0
230
1
0
CIRCLE
5
136
100
AcDbEntity
8
0
100
AcDbCircle
10
-22.499999999999996
20
-22.499999999999996
30
0
40
1.5000000000000011
210
0
220
0
230
1
0
CIRCLE
5
137
100
AcDbEntity
8
0
100
AcDbCircle
10
-18.031222920256962
20
-1.1102230246251565e-15
30
0
40
1.0500000000000007
210
0
220
0
230
1
0
LINE
5
138
100
AcDbEntity
8
0
100
AcDbLine
10
16.466278145412318
20
-1.9999999999999987
30
0
11
18.031222920256962
21
-1.9999999999999987
31
0
0
ARC
5
139
100
AcDbEntity
8
0
100
AcDbCircle
10
18.031222920256962
20
1.1102230246251565e-15
30
0
40
1.9999999999999998
210
0
220
0
230
1
100
AcDbArc
50
-90
51
90
0
CIRCLE
5
140
100
AcDbEntity
8
0
100
AcDbCircle
10
-1.1102230246251565e-15
20
18.031222920256962
30
0
40
1.0499999999999998
210
0
220
0
230
1
0
LWPOLYLINE
5
141
100
AcDbEntity
8
0
100
AcDbPolyline
90
4
70
1
43
0.0
10
9.7805353319066857
20
19.482498542374692
42
-0.99999999999999989
10
11.548302284873051
20
17.71473158940832
10
5.8914480353806837
20
12.057877339915951
42
-0.99999999999999989
10
4.1236810824143149
20
13.825644292882316
0
CIRCLE
5
142
100
AcDbEntity
8
0
100
AcDbCircle
10
14.142135623730949
20
1.1102230246251565e-15
30
0
40
1.5000000000000002
210
0
220
0
230
1
0
ARC
5
143
100
AcDbEntity
8
0
100
AcDbCircle
10
-22.499999999999996
20
22.499999999999996
30
0
40
3.4999999999999991
210
0
220
-0
230
1
100
AcDbArc
50
44.999999999999964
51
225.00000000000006
0
LINE
5
144
100
AcDbEntity
8
0
100
AcDbLine
10
-10.999999999999559
20
-40.499999999996696
30
0
11
-10.999999999999561
21
-28.224873734151043
31
0
0
LINE
5
145
100
AcDbEntity
8
0
100
AcDbLine
10
-16.031222920256962
20
-11.081475451951126
30
0
11
-24.974873734152911
21
-20.025126265847078
31
0
0
CIRCLE
5
146
100
AcDbEntity
8
0
100
AcDbCircle
10
22.499999999999996
20
22.499999999999996
30
0
40
1.4999999999999991
210
0
220
0
230
1
0
CIRCLE
5
147
100
AcDbEntity
8
0
100
AcDbCircle
10
-22.499999999999996
20
22.499999999999996
30
0
40
1.4999999999999982
210
0
220
0
230
1
0
LINE
5
148
100
AcDbEntity
8
0
100
AcDbLine
10
-16.466278145412318
20
2.0000000000000013
30
0
11
-18.031222920256962
21
1.9999999999999987
31
0
0
ARC
5
149
100
AcDbEntity
8
0
100
AcDbCircle
10
22.499999999999996
20
22.499999999999996
30
0
40
3.4999999999999991
210
0
220
0
230
1
100
AcDbArc
50
-45.00000000000005
51
135.00000000000006
0
ARC
5
150
100
AcDbEntity
8
0
100
AcDbCircle
10
16.097735001374684
20
-28.224873734150812
30
0
40
5.0977350013746827
210
0
220
-0
230
1
100
AcDbArc
50
39.608481631430806
51
180
0
LINE
5
151
100
AcDbEntity
8
0
100
AcDbLine
10
11
20
-28.224873734151
30
0
11
11.000000000000437
21
-40.499999999996604
31
0
0
ARC
5
152
100
AcDbEntity
8
0
100
AcDbCircle
10
8.5000000000004317
20
-40.499999999996703
30
0
40
2.5
210
0
220
0
230
1
100
AcDbArc
50
-90
51
0
0
CIRCLE
5
153
100
AcDbEntity
8
0
100
AcDbCircle
10
0
20
0
30
0
40
1.4499999999999997
210
0
220
0
230
1
0
CIRCLE
5
154
100
AcDbEntity
8
0
100
AcDbCircle
10
-1.1102230246251565e-15
20
14.142135623730949
30
0
40
1.5000000000000002
210
0
220
0
230
1
0
ARC
5
155
100
AcDbEntity
8
0
100
AcDbCircle
10
16.466278145412325
20
2.9999999999999991
30
0
40
0.99999999999999911
210
0
220
0
230
1
100
AcDbArc
50
220.77446123561117
51
270
0
ARC
5
156
100
AcDbEntity
8
0
100
AcDbCircle
10
5.6177285046032921e-13
20
35.457988410153433
30
0
40
78.917082722103032
210
0
220
0
230
1
100
AcDbArc
50
263.81679223707607
51
276.18320776292376
0
ARC
5
157
100
AcDbEntity
8
0
100
AcDbCircle
10
20.571960646232519
20
-6.5407377259755641
30
0
40
6.4215728752538066
210
0
220
0
230
1
100
AcDbArc
50
139.2255387643884
51
225.00000000000003
0
LINE
5
158
100
AcDbEntity
8
0
100
AcDbLine
10
18.031222920256962
20
2.0000000000000009
30
0
11
16.466278145412325
21
2.0000000000000009
31
0
0
ARC
5
159
100
AcDbEntity
8
0
100
AcDbCircle
10
-16.097735001374513
20
28.224873734151039
30
0
40
5.0977350013749492
210
0
220
0
230
1
100
AcDbArc
50
219.60848163143149
51
249.99069950661141
0
CIRCLE
5
160
100
AcDbEntity
8
0
100
AcDbCircle
10
18.031222920256962
20
1.1102230246251565e-15
30
0
40
1.05
210
0
220
0
230
1
0
ARC
5
161
100
AcDbEntity
8
0
100
AcDbCircle
10
16.466278145412321
20
-3.0000000000000027
30
0
40
1.000000000000004
210
0
220
0
230
1
100
AcDbArc
50
90.000000000000199
51
139.22553876438826
0
ARC
5
162
100
AcDbEntity
8
0
100
AcDbCircle
10
-20.571960646232519
20
6.540737725975565
30
0
40
6.4215728752538039
210
0
220
0
230
1
100
AcDbArc
50
-40.774461235611639
51
45.000000000000021
0
CIRCLE
5
163
100
AcDbEntity
8
0
100
AcDbCircle
10
-14.499867942916113
20
40.460192116828196
30
0
40
1
210
0
220
0
230
1
0
CIRCLE
5
164
100
AcDbEntity
8
0
100
AcDbCircle
10
14.499884800837656
20
40.462819673445438
30
0
40
0.99999999999999845
210
0
220
0
230
1
0
ARC
5
165
100
AcDbEntity
8
0
100
AcDbCircle
10
14.499884800837656
20
40.462819673445438
30
0
40
2.0000000000000053
210
0
220
-0
230
1
100
AcDbArc
50
80.284702957953954
51
83.895956331382706
0
ARC
5
166
100
AcDbEntity
8
0
100
AcDbCircle
10
0.074785533484913458
20
-63.364545539313312
30
0
40
106.82366602934127
210
0
220
-0
230
1
100
AcDbArc
50
82.056529495318912
51
97.841697375001146
0
LINE
5
167
100
AcDbEntity
8
0
100
AcDbLine
10
-14.499867942916113
20
37.631764992082005
30
0
11
-14.499867942916115
21
24.434852850598041
31
0
0
ARC
5
168
100
AcDbEntity
8
0
100
AcDbCircle
10
-14.499867942916113
20
40.460192116828196
30
0
40
2.0000000000000018
210
0
220
-0
230
1
100
AcDbArc
50
90
51
250.52877936550925
0
LINE
5
169
100
AcDbEntity
8
0
100
AcDbLine
10
-17.842040616617837
20
23.434852850598041
30
0
11
-15.499867942916111
21
23.434852850598041
31
0
0
ARC
5
170
100
AcDbEntity
8
0
100
AcDbCircle
10
-15.499867942916117
20
24.434852850598041
30
0
40
1.0000000000000009
210
0
220
0
230
1
100
AcDbArc
50
-89.999999999999702
51
0
0
ARC
5
171
100
AcDbEntity
8
0
100
AcDbCircle
10
-15.499867942916119
20
37.631764992082005
30
0
40
1.0000000000000053
210
0
220
0
230
1
100
AcDbArc
50
0
51
70.52877936550918
0
ARC
5
172
100
AcDbEntity
8
0
100
AcDbCircle
10
14.499884800837656
20
40.462819673445438
30
0
40
2.0000000000000053
210
0
220
-0
230
1
100
AcDbArc
50
80.284702957953954
51
83.895956331382706
0
ARC
5
173
100
AcDbEntity
8
0
100
AcDbCircle
10
15.499867942916119
20
37.631764992082005
30
0
40
1.0000000000000071
210
0
220
0
230
1
100
AcDbArc
50
109.47122063449082
51
180
0
LINE
5
174
100
AcDbEntity
8
0
100
AcDbLine
10
14.499867942916113
20
37.631764992082005
30
0
11
14.499867942916115
21
24.434852850598041
31
0
0
ARC
5
175
100
AcDbEntity
8
0
100
AcDbCircle
10
15.499867942916117
20
24.434852850598041
30
0
40
1.0000000000000009
210
0
220
0
230
1
100
AcDbArc
50
180
51
269.99999999999972
0
LINE
5
176
100
AcDbEntity
8
0
100
AcDbLine
10
17.842040616617837
20
23.434852850598041
30
0
11
15.499867942916111
21
23.434852850598041
31
0
0
ARC
5
177
100
AcDbEntity
8
0
100
AcDbCircle
10
16.097735001374513
20
28.224873734151039
30
0
40
5.0977350013749483
210
0
220
0
230
1
100
AcDbArc
50
290.00930049338859
51
320.39151836856848
0
LINE
5
178
100
AcDbEntity
8
0
100
AcDbLine
10
15.166534609582779
20
38.574574033664078
30
0
11
15.219857348975072
21
38.596904474426864
31
0
0
ARC
5
179
100
AcDbEntity
8
0
100
AcDbCircle
10
14.499884800837656
20
40.462819673445438
30
0
40
1.9999999999999996
210
0
220
0
230
1
100
AcDbArc
50
-68.90064692971923
51
83.895956331382706
0
ENDSEC
0
SECTION
2
OBJECTS
0
DICTIONARY
5
C
100
AcDbDictionary
3
ACAD_GROUP
350
D
3
ACAD_MLINESTYLE
350
17
0
DICTIONARY
5
D
100
AcDbDictionary
0
DICTIONARY
5
1A
330
C
100
AcDbDictionary
0
DICTIONARY
5
17
100
AcDbDictionary
0
ENDSEC
0
EOF
