0
SECTION
2
HEADER
9
$INSUNITS
70
4
9
$ACADVER
1
AC1014
9
$HANDSEED
5
FFFF
0
ENDSEC
0
SECTION
2
TABLES
0
TABLE
2
VPORT
5
8
100
AcDbSymbolTable
0
ENDTAB
0
TABLE
2
LTYPE
5
5
100
AcDbSymbolTable
0
LTYPE
5
14
100
AcDbSymbolTableRecord
100
AcDbLinetypeTableRecord
2
BYBLOCK
70
0
0
LTYPE
5
15
100
AcDbSymbolTableRecord
100
AcDbLinetypeTableRecord
2
BYLAYER
70
0
0
ENDTAB
0
TABLE
2
LAYER
5
2
100
AcDbSymbolTable
70
2
0
LAYER
5
50
100
AcDbSymbolTableRecord
100
AcDbLayerTableRecord
2
0
70
0
6
CONTINUOUS
0
ENDTAB
0
TABLE
2
STYLE
5
3
100
AcDbSymbolTable
70
1
0
STYLE
5
11
100
AcDbSymbolTableRecord
100
AcDbTextStyleTableRecord
2
STANDARD
70
0
0
ENDTAB
0
TABLE
2
VIEW
5
6
100
AcDbSymbolTable
70
0
0
ENDTAB
0
TABLE
2
UCS
5
7
100
AcDbSymbolTable
70
0
0
ENDTAB
0
TABLE
2
APPID
5
9
100
AcDbSymbolTable
70
2
0
APPID
5
12
100
AcDbSymbolTableRecord
100
AcDbRegAppTableRecord
2
ACAD
70
0
0
ENDTAB
0
TABLE
2
DIMSTYLE
5
A
100
AcDbSymbolTable
70
1
0
ENDTAB
0
TABLE
2
BLOCK_RECORD
5
1
100
AcDbSymbolTable
70
1
0
BLOCK_RECORD
5
1F
100
AcDbSymbolTableRecord
100
AcDbBlockTableRecord
2
*MODEL_SPACE
0
BLOCK_RECORD
5
1B
100
AcDbSymbolTableRecord
100
AcDbBlockTableRecord
2
*PAPER_SPACE
0
ENDTAB
0
ENDSEC
0
SECTION
2
BLOCKS
0
BLOCK
5
20
100
AcDbEntity
100
AcDbBlockBegin
2
*MODEL_SPACE
0
ENDBLK
5
21
100
AcDbEntity
100
AcDbBlockEnd
0
BLOCK
5
1C
100
AcDbEntity
100
AcDbBlockBegin
2
*PAPER_SPACE
0
ENDBLK
5
1D
100
AcDbEntity
100
AcDbBlockEnd
0
ENDSEC
0
SECTION
2
ENTITIES
0
LINE
5
100
100
AcDbEntity
8
0
100
AcDbLine
10
4.9915936013347038
20
2.5167336577253137
30
0
11
20.892509012982803
21
18.417774890164203
31
0
0
ARC
5
101
100
AcDbEntity
8
0
100
AcDbCircle
10
22.306731481382759
20
17.003562666901935
30
0
40
2.0000053506307665
210
0
220
-0
230
1
100
AcDbArc
50
87.986166422375163
51
135.00020753639879
0
ARC
5
102
100
AcDbEntity
8
0
100
AcDbCircle
10
17.003397901364224
20
22.306698760292466
30
0
40
2.0000000000000306
210
0
220
0
230
1
100
AcDbArc
50
-44.999999999957048
51
2.0141139195162072
0
ARC
5
103
100
AcDbEntity
8
0
100
AcDbCircle
10
68.791825909572012
20
68.795877818847359
30
0
40
2.1861358398893
210
0
220
0
230
1
100
AcDbArc
50
178.29399357811721
51
271.71343580986269
0
CIRCLE
5
104
100
AcDbEntity
8
0
100
AcDbCircle
10
22.500000000000028
20
22.500000000000032
30
0
40
1.5000000000000033
210
0
220
0
230
1
0
ARC
5
105
100
AcDbEntity
8
0
100
AcDbCircle
10
22.500000000000028
20
22.500000000000032
30
0
40
3.4998288356845837
210
0
220
0
230
1
100
AcDbArc
50
267.98616642237431
51
328.26892713800891
0
LWPOLYLINE
5
106
100
AcDbEntity
8
0
100
AcDbPolyline
90
4
70
1
43
0.0
10
74.207434192160548
20
62.310835082383285
10
68.839046028235856
20
62.308502098641483
42
-0.99999999999999989
10
68.838133414385055
20
64.408501900349094
10
74.206521578309633
20
64.410834884090761
42
-0.99999999999999989
0
ARC
5
107
100
AcDbEntity
8
0
100
AcDbCircle
10
84.406622190090772
20
20.398922916716593
30
0
40
42.341215931947616
210
0
220
0
230
1
100
AcDbArc
50
111.06748207890297
51
128.42201175028327
0
ARC
5
108
100
AcDbEntity
8
0
100
AcDbCircle
10
0
20
0
30
0
40
4.5000000000000009
210
0
220
-0
230
1
100
AcDbArc
50
80.234417984623647
51
90
0
LINE
5
109
100
AcDbEntity
8
0
100
AcDbLine
10
29.911447009803855
20
25.122054389448877
30
0
11
25.47669545027075
21
20.659324559998019
31
0
0
ARC
5
110
100
AcDbEntity
8
0
100
AcDbCircle
10
0
20
0
30
0
40
1.45
210
0
220
0
230
1
100
AcDbArc
50
0
51
90
0
LINE
5
111
100
AcDbEntity
8
0
100
AcDbLine
10
70.264669899007174
20
60.110481445686958
30
0
11
74.206716370307092
21
60.109815097736323
31
0
0
ARC
5
112
100
AcDbEntity
8
0
100
AcDbCircle
10
56.976373946921264
20
69.198497501152517
30
0
40
3.148506791184793
210
0
220
0
230
1
100
AcDbArc
50
281.25624728185039
51
353.83278143363486
0
ARC
5
113
100
AcDbEntity
8
0
100
AcDbCircle
10
0
20
0
30
0
40
4.5000000000000009
210
0
220
-0
230
1
100
AcDbArc
50
45.000000000000007
51
45.001273239543515
0
LINE
5
114
100
AcDbEntity
8
0
100
AcDbLine
10
55.257817779315175
20
66.110533406591784
30
0
11
57.590953850074357
21
66.110555377864401
31
0
0
LINE
5
115
100
AcDbEntity
8
0
100
AcDbLine
10
4.5000000000000009
20
0
30
0
11
1.45
21
0
31
0
0
ARC
5
116
100
AcDbEntity
8
0
100
AcDbCircle
10
0
20
0
30
0
40
4.5000000000000009
210
0
220
0
230
1
100
AcDbArc
50
0
51
9.7656872506485932
0
CIRCLE
5
117
100
AcDbEntity
8
0
100
AcDbCircle
10
63.357864376269049
20
63.357864376269042
30
0
40
3.25
210
0
220
0
230
1
0
ARC
5
118
100
AcDbEntity
8
0
100
AcDbCircle
10
55.257864413425033
20
63.360533406924311
30
0
40
2.7500000000628768
210
0
220
0
230
1
100
AcDbArc
50
90.000971613700457
51
180.00097208794233
0
LINE
5
119
100
AcDbEntity
8
0
100
AcDbLine
10
60.106907618691551
20
74.208180008977124
30
0
11
60.106659046068472
21
68.860251714491312
31
0
0
LWPOLYLINE
5
120
100
AcDbEntity
8
0
100
AcDbPolyline
90
4
70
1
43
0.0
10
62.307864376269031
20
74.205730593676662
42
-0.99999999999999989
10
64.407864376269032
20
74.205730593676662
10
64.40786437626906
20
68.857864376269021
42
-0.99999999999999989
10
62.307864376269045
20
68.857864376269021
0
ARC
5
121
100
AcDbEntity
8
0
100
AcDbCircle
10
1.1025139249659996
20
6.4058147838706736
30
0
40
2.0000000000000009
210
0
220
0
230
1
100
AcDbArc
50
260.23441798462363
51
315.00000000004241
0
ARC
5
122
100
AcDbEntity
8
0
100
AcDbCircle
10
6.4058127588703409
20
1.1025256905369056
30
0
40
1.9999999999999938
210
0
220
0
230
1
100
AcDbArc
50
135.00022668417438
51
189.76568725064865
0
ARC
5
123
100
AcDbEntity
8
0
100
AcDbCircle
10
63.356907615174308
20
74.208028948420647
30
0
40
3.249999999993431
210
-0
220
0
230
1
100
AcDbArc
50
-0.0026631173571962613
51
179.99733688236913
0
LWPOLYLINE
5
124
100
AcDbEntity
8
0
100
AcDbPolyline
90
4
70
1
43
0.0
10
57.857238060039222
20
64.410586516259954
42
-0.99999999999999989
10
57.857280966152999
20
62.31058651658757
10
55.257885866478496
20
62.310533407088151
42
-0.99999999999999989
10
55.257842960371562
20
64.410533406760479
0
LINE
5
125
100
AcDbEntity
8
0
100
AcDbLine
10
0
20
4.5000000000000009
30
0
11
0
21
1.45
31
0
0
ARC
5
126
100
AcDbEntity
8
0
100
AcDbCircle
10
52.034234088360961
20
58.828053614613381
30
0
40
1.5999999999999988
210
0
220
0
230
1
100
AcDbArc
50
314.82340577985093
51
357.41988211400997
0
ARC
5
127
100
AcDbEntity
8
0
100
AcDbCircle
10
22.500000000000028
20
22.500000000000032
30
0
40
3.5000000142557495
210
0
220
0
230
1
100
AcDbArc
50
224.98969774403062
51
225.00000000000006
0
ARC
5
128
100
AcDbEntity
8
0
100
AcDbCircle
10
70.264743202051122
20
57.110481446582497
30
0
40
3.0000000000000124
210
0
220
0
230
1
100
AcDbArc
50
90.0013999850147
51
111.06748207890254
0
LINE
5
129
100
AcDbEntity
8
0
100
AcDbLine
10
18.417611463738403
20
20.892485197920408
30
0
11
2.5167274873401411
21
4.991601221498625
31
0
0
ARC
5
130
100
AcDbEntity
8
0
100
AcDbCircle
10
22.500000000000028
20
22.500000000000032
30
0
40
3.499999999999972
210
0
220
0
230
1
100
AcDbArc
50
121.724024548161
51
182.01411391951621
0
LINE
5
131
100
AcDbEntity
8
0
100
AcDbLine
10
74.207815104591248
20
66.609815004873496
30
0
11
68.857192768507318
21
66.610719452915646
31
0
0
LINE
5
132
100
AcDbEntity
8
0
100
AcDbLine
10
25.127323181175704
20
29.905424705442769
30
0
11
20.659600752883986
21
25.477067451572889
31
0
0
LINE
5
133
100
AcDbEntity
8
0
100
AcDbLine
10
66.606653045323625
20
68.730997438138473
30
0
11
66.606907611657078
21
74.207877887868875
31
0
0
ARC
5
134
100
AcDbEntity
8
0
100
AcDbCircle
10
74.207265737450328
20
63.359815051304899
30
0
40
3.2499999999999991
210
0
220
0
230
1
100
AcDbArc
50
-90.009685051957078
51
89.990314948083764
0
ARC
5
135
100
AcDbEntity
8
0
100
AcDbCircle
10
47.320950087704588
20
59.04044369294968
30
0
40
6.3180669363860549
210
-0
220
0
230
1
100
AcDbArc
50
-2.5801178859903464
51
31.712001211682505
0
ARC
5
136
100
AcDbEntity
8
0
100
AcDbCircle
10
55.257864413425033
20
63.360533406924311
30
0
40
2.7500000000609277
210
0
220
0
230
1
100
AcDbArc
50
180.00097208794233
51
201.30129448432385
0
LINE
5
137
100
AcDbEntity
8
0
100
AcDbLine
10
53.16211251464685
20
57.693201088723399
30
0
11
25.127323181175704
21
29.905424705442769
31
0
0
LINE
5
138
100
AcDbEntity
8
0
100
AcDbLine
10
58.093723857373675
20
53.571350442116469
30
0
11
29.911447009803855
21
25.122054389448877
31
0
0
ENDSEC
0
SECTION
2
OBJECTS
0
DICTIONARY
5
C
100
AcDbDictionary
3
ACAD_GROUP
350
D
3
ACAD_MLINESTYLE
350
17
0
DICTIONARY
5
D
100
AcDbDictionary
0
DICTIONARY
5
1A
330
C
100
AcDbDictionary
0
DICTIONARY
5
17
100
AcDbDictionary
0
ENDSEC
0
EOF
