0
SECTION
2
HEADER
9
$INSUNITS
70
4
9
$ACADVER
1
AC1014
9
$HANDSEED
5
FFFF
0
ENDSEC
0
SECTION
2
TABLES
0
TABLE
2
VPORT
5
8
100
AcDbSymbolTable
0
ENDTAB
0
TABLE
2
LTYPE
5
5
100
AcDbSymbolTable
0
LTYPE
5
14
100
AcDbSymbolTableRecord
100
AcDbLinetypeTableRecord
2
BYBLOCK
70
0
0
LTYPE
5
15
100
AcDbSymbolTableRecord
100
AcDbLinetypeTableRecord
2
BYLAYER
70
0
0
ENDTAB
0
TABLE
2
LAYER
5
2
100
AcDbSymbolTable
70
2
0
LAYER
5
50
100
AcDbSymbolTableRecord
100
AcDbLayerTableRecord
2
0
70
0
6
CONTINUOUS
0
ENDTAB
0
TABLE
2
STYLE
5
3
100
AcDbSymbolTable
70
1
0
STYLE
5
11
100
AcDbSymbolTableRecord
100
AcDbTextStyleTableRecord
2
STANDARD
70
0
0
ENDTAB
0
TABLE
2
VIEW
5
6
100
AcDbSymbolTable
70
0
0
ENDTAB
0
TABLE
2
UCS
5
7
100
AcDbSymbolTable
70
0
0
ENDTAB
0
TABLE
2
APPID
5
9
100
AcDbSymbolTable
70
2
0
APPID
5
12
100
AcDbSymbolTableRecord
100
AcDbRegAppTableRecord
2
ACAD
70
0
0
ENDTAB
0
TABLE
2
DIMSTYLE
5
A
100
AcDbSymbolTable
70
1
0
ENDTAB
0
TABLE
2
BLOCK_RECORD
5
1
100
AcDbSymbolTable
70
1
0
BLOCK_RECORD
5
1F
100
AcDbSymbolTableRecord
100
AcDbBlockTableRecord
2
*MODEL_SPACE
0
BLOCK_RECORD
5
1B
100
AcDbSymbolTableRecord
100
AcDbBlockTableRecord
2
*PAPER_SPACE
0
ENDTAB
0
ENDSEC
0
SECTION
2
BLOCKS
0
BLOCK
5
20
100
AcDbEntity
100
AcDbBlockBegin
2
*MODEL_SPACE
0
ENDBLK
5
21
100
AcDbEntity
100
AcDbBlockEnd
0
BLOCK
5
1C
100
AcDbEntity
100
AcDbBlockBegin
2
*PAPER_SPACE
0
ENDBLK
5
1D
100
AcDbEntity
100
AcDbBlockEnd
0
ENDSEC
0
SECTION
2
ENTITIES
0
LWPOLYLINE
5
100
100
AcDbEntity
8
0
100
AcDbPolyline
90
36
70
1
43
0.0
10
-10.499999999999565
20
30.308741541934605
10
-10.499999999999563
20
30.834409308997355
42
0.26794919243112514
10
-10.99999999999957
20
31.700434712781792
42
-0.2679491924311207
10
-11.499999999999563
20
32.566460116566233
10
-11.499999999999567
20
36.576690734365727
42
-0.26794919243112297
10
-10.999999999999568
20
37.442716138150175
42
0.26794919243112109
10
-10.499999999999565
20
38.308741541934602
10
-10.499999999999561
20
40.499999999996696
42
-0.94861900255123743
10
-6.5111088086700031
20
40.710503750665914
42
0.1196935205911621
10
-6.3520532492861603
20
40.266098016863239
42
0.72164359771356512
10
6.352047532114895
20
40.266089327794774
42
0.11969615815751349
10
6.5111088086694053
20
40.710503750666092
42
-0.94861900255122766
10
10.500000000000432
20
40.499999999996703
10
10.500000000000433
20
38.308741541934609
42
0.26794919243112514
10
11.00000000000043
20
37.442716138150175
42
-0.26794919243112236
10
11.50000000000043
20
36.576690734365727
10
11.500000000000433
20
32.581903453085573
42
-0.26794919243112236
10
11.000000000000433
20
31.715878049301143
42
0.26794919243111903
10
10.500000000000432
20
30.849852645516695
10
10.50000000000043
20
30.308741541934619
42
0.26794919243112236
10
11.000000000000426
20
29.442716138150168
42
-0.26794919243112297
10
11.50000000000043
20
28.576690734365737
10
11.500000000000432
20
24.574954450652111
42
-0.21968603782173493
10
11.148637627439422
20
23.81385706642963
42
0.10746788573078971
10
10.891154755945502
20
23.475779352451404
10
4.1887950106712735
20
9.1191288616857946
42
0.10962987900822159
10
3.2500000000004281
20
4.88893215924318
10
3.2500000000004263
20
-25.435110280788638
42
-0.88341927368151008
10
-3.2499999999995746
20
-25.43511028079547
10
-3.2499999999995737
20
4.8899206738924175
42
0.10958220640708664
10
-4.1879980893468183
20
9.1184099279080666
10
-10.891163924330067
20
23.483848257059311
42
0.1075007735188703
10
-11.148682057697453
20
23.822058848397951
42
-0.21967073900441259
10
-11.499999999999563
20
24.583118365138148
10
-11.499999999999563
20
28.576690734365734
42
-0.26794919243112097
10
-10.999999999999568
20
29.442716138150171
42
0.26794919243112453
0
CIRCLE
5
101
100
AcDbEntity
8
0
100
AcDbCircle
10
-8.4999999999995666
20
40.499999999996696
30
0
40
1.0499999999999998
210
0
220
0
230
1
0
LWPOLYLINE
5
102
100
AcDbEntity
8
0
100
AcDbPolyline
90
8
70
1
43
0.0
10
7.1051047989308955
20
35.028675613394086
42
-0.99999999999999989
10
7.1051047989307934
20
36.628675613394094
10
8.80510479893079
20
36.628675613394194
42
-0.99999999999999989
10
8.8051047989308877
20
35.028675613394199
10
8.8051047989309463
20
34.128675613394208
42
-0.99999999999999989
10
8.805104798931044
20
32.528675613394206
10
7.1051047989310492
20
32.5286756133941
42
-0.99999999999999989
10
7.1051047989309515
20
34.128675613394094
0
LWPOLYLINE
5
103
100
AcDbEntity
8
0
100
AcDbPolyline
90
8
70
1
43
0.0
10
-7.1051047989297453
20
32.528675613393659
10
-8.805104798929742
20
32.528675613393659
42
-0.99999999999999989
10
-8.8051047989297384
20
34.128675613393654
10
-8.8051047989297402
20
35.028675613393652
42
-0.99999999999999989
10
-8.8051047989297366
20
36.628675613393654
10
-7.1051047989297436
20
36.628675613393646
42
-0.99999999999999989
10
-7.1051047989297436
20
35.028675613393652
10
-7.1051047989297453
20
34.128675613393661
42
-0.99999999999999989
0
LWPOLYLINE
5
104
100
AcDbEntity
8
0
100
AcDbPolyline
90
8
70
1
43
0.0
10
7.1017443572460675
20
26.124051577998692
10
7.1017443572460675
20
27.024051577998691
42
-0.99999999999999989
10
7.1017443572460675
20
28.624051577998692
10
8.801744357246065
20
28.624051577998692
42
-0.99999999999999989
10
8.801744357246065
20
27.024051577998691
10
8.801744357246065
20
26.124051577998692
42
-0.99999999999999989
10
8.801744357246065
20
24.524051577998691
10
7.1017443572460675
20
24.524051577998691
42
-0.99999999999999989
0
CIRCLE
5
105
100
AcDbEntity
8
0
100
AcDbCircle
10
8.5000000000004281
20
40.499999999996703
30
0
40
1.0499999999999998
210
0
220
0
230
1
0
LWPOLYLINE
5
106
100
AcDbEntity
8
0
100
AcDbPolyline
90
8
70
1
43
0.0
10
-8.8017443572442637
20
24.524051577998147
10
-7.1017443572442662
20
24.52405157799825
42
0.99999999999999989
10
-7.1017443572443657
20
26.124051577998252
10
-7.1017443572444217
20
27.02405157799825
42
0.99999999999999989
10
-7.101744357244522
20
28.624051577998252
10
-8.8017443572445195
20
28.624051577998149
42
0.99999999999999989
10
-8.8017443572444183
20
27.024051577998147
10
-8.8017443572443632
20
26.124051577998149
42
0.99999999999999989
0
CIRCLE
5
107
100
AcDbEntity
8
0
100
AcDbCircle
10
1.1102230246251565e-15
20
-25.031222920256965
30
0
40
0.99999999999999967
210
0
220
0
230
1
0
ENDSEC
0
SECTION
2
OBJECTS
0
DICTIONARY
5
C
100
AcDbDictionary
3
ACAD_GROUP
350
D
3
ACAD_MLINESTYLE
350
17
0
DICTIONARY
5
D
100
AcDbDictionary
0
DICTIONARY
5
1A
330
C
100
AcDbDictionary
0
DICTIONARY
5
17
100
AcDbDictionary
0
ENDSEC
0
EOF
