0
SECTION
2
HEADER
9
$INSUNITS
70
4
9
$ACADVER
1
AC1014
9
$HANDSEED
5
FFFF
0
ENDSEC
0
SECTION
2
TABLES
0
TABLE
2
VPORT
5
8
100
AcDbSymbolTable
0
ENDTAB
0
TABLE
2
LTYPE
5
5
100
AcDbSymbolTable
0
LTYPE
5
14
100
AcDbSymbolTableRecord
100
AcDbLinetypeTableRecord
2
BYBLOCK
70
0
0
LTYPE
5
15
100
AcDbSymbolTableRecord
100
AcDbLinetypeTableRecord
2
BYLAYER
70
0
0
ENDTAB
0
TABLE
2
LAYER
5
2
100
AcDbSymbolTable
70
2
0
LAYER
5
50
100
AcDbSymbolTableRecord
100
AcDbLayerTableRecord
2
0
70
0
6
CONTINUOUS
0
ENDTAB
0
TABLE
2
STYLE
5
3
100
AcDbSymbolTable
70
1
0
STYLE
5
11
100
AcDbSymbolTableRecord
100
AcDbTextStyleTableRecord
2
STANDARD
70
0
0
ENDTAB
0
TABLE
2
VIEW
5
6
100
AcDbSymbolTable
70
0
0
ENDTAB
0
TABLE
2
UCS
5
7
100
AcDbSymbolTable
70
0
0
ENDTAB
0
TABLE
2
APPID
5
9
100
AcDbSymbolTable
70
2
0
APPID
5
12
100
AcDbSymbolTableRecord
100
AcDbRegAppTableRecord
2
ACAD
70
0
0
ENDTAB
0
TABLE
2
DIMSTYLE
5
A
100
AcDbSymbolTable
70
1
0
ENDTAB
0
TABLE
2
BLOCK_RECORD
5
1
100
AcDbSymbolTable
70
1
0
BLOCK_RECORD
5
1F
100
AcDbSymbolTableRecord
100
AcDbBlockTableRecord
2
*MODEL_SPACE
0
BLOCK_RECORD
5
1B
100
AcDbSymbolTableRecord
100
AcDbBlockTableRecord
2
*PAPER_SPACE
0
ENDTAB
0
ENDSEC
0
SECTION
2
BLOCKS
0
BLOCK
5
20
100
AcDbEntity
100
AcDbBlockBegin
2
*MODEL_SPACE
0
ENDBLK
5
21
100
AcDbEntity
100
AcDbBlockEnd
0
BLOCK
5
1C
100
AcDbEntity
100
AcDbBlockBegin
2
*PAPER_SPACE
0
ENDBLK
5
1D
100
AcDbEntity
100
AcDbBlockEnd
0
ENDSEC
0
SECTION
2
ENTITIES
0
LWPOLYLINE
5
100
100
AcDbEntity
8
0
100
AcDbPolyline
90
8
70
1
43
0.0
10
6.4871975099513399
20
-11.864461362866724
42
0.41421356237309631
10
5.4871975099513417
20
-10.864461362866724
10
-5.5128024900486636
20
-10.864461362866724
42
0.41421356237309342
10
-6.5128024900486636
20
-11.864461362866717
10
-6.5128024900486636
20
-19.91287566390529
42
0.41421356237309437
10
-5.5128024900486654
20
-20.91287566390529
10
5.4871975099513399
20
-20.91287566390529
42
0.41421356237309243
10
6.4871975099513444
20
-19.91287566390529
0
LWPOLYLINE
5
101
100
AcDbEntity
8
0
100
AcDbPolyline
90
8
70
1
43
0.0
10
-6.4948698642436629
20
13.135538637133276
42
-0.41421356237309437
10
-5.4948698642436611
20
14.135538637133276
10
5.5051301357563354
20
14.135538637133296
42
-0.4142135623730957
10
6.5051301357563336
20
13.135538637133299
10
6.5051301357563363
20
10.135538637133292
42
-0.4142135623730947
10
5.5051301357563318
20
9.135538637133287
10
-5.4948698642436646
20
9.1355386371332834
42
-0.41421356237309598
10
-6.4948698642436629
20
10.135538637133283
0
LWPOLYLINE
5
102
100
AcDbEntity
8
0
100
AcDbPolyline
90
8
70
1
43
0.0
10
10.295869896063767
20
28.728546167566673
10
10.29586989606382
20
27.828546167566692
42
0.99999999999999989
10
10.295869896063918
20
26.228546167566709
10
11.995869896063899
20
26.228546167566805
42
0.99999999999999989
10
11.995869896063807
20
27.828546167566799
10
11.995869896063747
20
28.72854616756679
42
0.99999999999999989
10
11.995869896063653
20
30.32854616756677
10
10.295869896063666
20
30.328546167566675
42
0.99999999999999989
0
LWPOLYLINE
5
103
100
AcDbEntity
8
0
100
AcDbPolyline
90
8
70
1
43
0.0
10
-12.003188178630124
20
36.629765012789854
10
-12.003188178630124
20
35.729765012789869
42
0.99999999999999989
10
-12.003188178630133
20
34.129765012789875
10
-10.303188178630137
20
34.129765012789875
42
0.99999999999999989
10
-10.30318817863014
20
35.729765012789869
10
-10.303188178630137
20
36.629765012789846
42
0.99999999999999989
10
-10.30318817863014
20
38.229765012789855
10
-12.003188178630115
20
38.229765012789848
42
0.99999999999999989
0
LWPOLYLINE
5
104
100
AcDbEntity
8
0
100
AcDbPolyline
90
8
70
1
43
0.0
10
5.0000000000000009
20
-38.224585176183808
42
0.41421356237309959
10
6.0000000000000018
20
-37.224585176183808
10
5.9999999999999982
20
-32.864461362866713
42
0.41421356237309598
10
4.9999999999999991
20
-31.86446136286672
10
-5.0000000000000009
20
-31.86446136286672
42
0.41421356237309537
10
-6.0000000000000009
20
-32.864461362866713
10
-6.0000000000000018
20
-37.224585176183808
42
0.41421356237309015
10
-4.9999999999999991
20
-38.224585176183808
0
LWPOLYLINE
5
105
100
AcDbEntity
8
0
100
AcDbPolyline
90
8
70
1
43
0.0
10
2.9915599391111276
20
25.339528580648061
42
0.41421356237309431
10
4.9915599391111289
20
27.339528580648068
10
4.9915599391111289
20
29.226080954236444
42
0.41421356237309548
10
2.9915599391111285
20
31.226080954236441
10
-2.9915599391100036
20
31.226080954236441
42
0.4142135623730942
10
-4.9915599391100045
20
29.226080954236444
10
-4.9915599391100045
20
27.339528580648068
42
0.41421356237309548
10
-2.9915599391100041
20
25.339528580648061
0
LWPOLYLINE
5
106
100
AcDbEntity
8
0
100
AcDbPolyline
90
8
70
1
43
0.0
10
-5.5049079315699103
20
-23.864461362866717
42
0.41421356237309243
10
-6.5049079315699121
20
-24.864461362866717
10
-6.5049079315699103
20
-27.86446136286672
42
0.41421356237309209
10
-5.5049079315699103
20
-28.86446136286672
10
5.4950920684300977
20
-28.86446136286672
42
0.41421356237309764
10
6.4950920684300995
20
-27.86446136286672
10
6.4950920684300959
20
-24.864461362866717
42
0.41421356237309404
10
5.4950920684300995
20
-23.864461362866717
0
ARC
5
107
100
AcDbEntity
8
0
100
AcDbCircle
10
8.5000000000004299
20
-40.499999999996703
30
0
40
2.5
210
0
220
0
230
1
100
AcDbArc
50
270
51
343.03082293924933
0
LWPOLYLINE
5
108
100
AcDbEntity
8
0
100
AcDbPolyline
90
8
70
1
43
0.0
10
-5.0000000000000009
20
22.135538637133287
42
0.4142135623730937
10
-6.0000000000000009
20
21.13553863713328
10
-6.0000000000000009
20
18.135538637133287
42
0.41421356237309653
10
-4.9999999999999991
20
17.135538637133287
10
4.9999999999999991
20
17.135538637133287
42
0.41421356237309553
10
6.0000000000000018
20
18.135538637133287
10
6.0000000000000044
20
21.135538637133287
42
0.4142135623730962
10
4.9999999999999991
20
22.135538637133291
0
LWPOLYLINE
5
109
100
AcDbEntity
8
0
100
AcDbPolyline
90
8
70
1
43
0.0
10
-12.003188178630124
20
30.329765012789849
42
0.99999999999999989
10
-12.003188178630124
20
28.729765012789848
10
-12.00318817863012
20
27.829765012789871
42
0.99999999999999989
10
-12.003188178630133
20
26.229765012789876
10
-10.303188178630137
20
26.22976501278988
42
0.99999999999999989
10
-10.30318817863014
20
27.829765012789863
10
-10.303188178630149
20
28.729765012789848
42
0.99999999999999989
10
-10.30318817863014
20
30.329765012789842
0
CIRCLE
5
110
100
AcDbEntity
8
0
100
AcDbCircle
10
4.3076653355456084e-13
20
-41.377681524664453
30
0
40
1.0500000000000025
210
0
220
0
230
1
0
LINE
5
111
100
AcDbEntity
8
0
100
AcDbLine
10
10.891154755945502
20
20.513752223163731
30
0
11
10.891154755945497
21
-41.229643017589069
31
0
0
LWPOLYLINE
5
112
100
AcDbEntity
8
0
100
AcDbPolyline
90
8
70
1
43
0.0
10
11.995869896063653
20
38.228546167566776
10
10.29586989606366
20
38.228546167566684
42
0.99999999999999989
10
10.295869896063767
20
36.628546167566682
10
10.295869896063811
20
35.728546167566677
42
0.99999999999999989
10
10.295869896063918
20
34.128546167566711
10
11.995869896063908
20
34.128546167566817
42
0.99999999999999989
10
11.995869896063807
20
35.728546167566805
10
11.995869896063747
20
36.628546167566796
42
0.99999999999999989
0
LWPOLYLINE
5
113
100
AcDbEntity
8
0
100
AcDbPolyline
90
8
70
1
43
0.0
10
-5.5029339925183756
20
6.1045706674922684
10
5.4970660074816262
20
6.1045706674922684
42
-0.41421356237309598
10
6.4970660074816244
20
5.1045706674922702
10
6.4970660074816236
20
-5.8954293325076907
42
-0.4142135623730947
10
5.4970660074825375
20
-6.8954293325067759
10
-5.5029339925183764
20
-6.8954293325067759
42
-0.4142135623730947
10
-6.5029339925183756
20
-5.8954293325067777
10
-6.5029339925183773
20
5.1045706674922666
42
-0.41421356237309503
0
ARC
5
114
100
AcDbEntity
8
0
100
AcDbCircle
10
10.206401100255878
20
38.009863293811883
30
0
40
1.9999999999999918
210
0
220
0
230
1
100
AcDbArc
50
100.37112383589944
51
180
0
LINE
5
115
100
AcDbEntity
8
0
100
AcDbLine
10
9.8463542644061839
20
39.977187943175736
30
0
11
11.799238766673508
21
40.334592038147356
31
0
0
LINE
5
116
100
AcDbEntity
8
0
100
AcDbLine
10
14.499867942916115
20
37.631764992082012
30
0
11
14.499867942916115
21
25.478314776823936
31
0
0
LINE
5
117
100
AcDbEntity
8
0
100
AcDbLine
10
8.2064011002558885
20
36.977054486359158
30
0
11
8.2064011002558885
21
33.95494306919371
31
0
0
CIRCLE
5
118
100
AcDbEntity
8
0
100
AcDbCircle
10
14.499884800837657
20
40.462819673445438
30
0
40
0.99999999999999856
210
0
220
0
230
1
0
ARC
5
119
100
AcDbEntity
8
0
100
AcDbCircle
10
-14.499867942916115
20
40.46019211682821
30
0
40
2.0000000000000018
210
0
220
-0
230
1
100
AcDbArc
50
90
51
250.52877936550925
0
ARC
5
120
100
AcDbEntity
8
0
100
AcDbCircle
10
-11.153188178630133
20
38.229765012789855
30
0
40
3.249999999999992
210
0
220
0
230
1
100
AcDbArc
50
136.22850220482837
51
136.50396310508603
0
LINE
5
121
100
AcDbEntity
8
0
100
AcDbLine
10
-8.2064011002547623
20
36.977054486359158
30
0
11
-8.2064011002547623
21
38.008860482471711
31
0
0
LINE
5
122
100
AcDbEntity
8
0
100
AcDbLine
10
7.2064011002558814
20
32.954943069193718
30
0
11
-7.2064011002547579
21
32.954943069193718
31
0
0
CIRCLE
5
123
100
AcDbEntity
8
0
100
AcDbCircle
10
-14.499867942916115
20
40.46019211682821
30
0
40
1
210
0
220
0
230
1
0
ARC
5
124
100
AcDbEntity
8
0
100
AcDbCircle
10
-7.2064011002547588
20
33.95494306919371
30
0
40
1.0000000000000053
210
0
220
0
230
1
100
AcDbArc
50
180
51
270.00000000000006
0
LINE
5
125
100
AcDbEntity
8
0
100
AcDbLine
10
-14.499867942916115
20
37.631764992082012
30
0
11
-14.499867942916115
21
25.475890320430217
31
0
0
LINE
5
126
100
AcDbEntity
8
0
100
AcDbLine
10
-10.891163924330067
20
20.51140325726373
30
0
11
-10.891163924330074
21
-41.229612970673834
31
0
0
LINE
5
127
100
AcDbEntity
8
0
100
AcDbLine
10
-8.2064011002547641
20
33.95494306919371
30
0
11
-8.2064011002547623
21
36.977054486359158
31
0
0
ARC
5
128
100
AcDbEntity
8
0
100
AcDbCircle
10
-14.499867942916115
20
40.46019211682821
30
0
40
2.0000000000000058
210
0
220
-0
230
1
100
AcDbArc
50
16.596587076934192
51
180
0
ARC
5
129
100
AcDbEntity
8
0
100
AcDbCircle
10
13.891154755945507
20
20.513752223163731
30
0
40
3.0000000000000018
210
0
220
0
230
1
100
AcDbArc
50
113.91034702562952
51
180
0
ARC
5
130
100
AcDbEntity
8
0
100
AcDbCircle
10
-8.4999999999995577
20
-40.499999999996696
30
0
40
2.5000000000000018
210
0
220
0
230
1
100
AcDbArc
50
196.96845709140308
51
270
0
ARC
5
131
100
AcDbEntity
8
0
100
AcDbCircle
10
5.6177285046032921e-13
20
35.457988410153433
30
0
40
78.917082722103032
210
0
220
0
230
1
100
AcDbArc
50
263.81679223707607
51
276.18320776292376
0
ARC
5
132
100
AcDbEntity
8
0
100
AcDbCircle
10
14.499884800837657
20
40.462819673445438
30
0
40
2.0050000000000003
210
0
220
0
230
1
100
AcDbArc
50
-72.205335328640999
51
163.46084944457863
0
ARC
5
133
100
AcDbEntity
8
0
100
AcDbCircle
10
-15.499867942916119
20
37.631764992082012
30
0
40
1.0000000000000053
210
0
220
0
230
1
100
AcDbArc
50
0
51
70.528779365509337
0
ARC
5
134
100
AcDbEntity
8
0
100
AcDbCircle
10
7.2064011002558814
20
33.95494306919371
30
0
40
1.0000000000000009
210
0
220
0
230
1
100
AcDbArc
50
-90
51
0
0
ARC
5
135
100
AcDbEntity
8
0
100
AcDbCircle
10
11.145869896063656
20
38.228546167566734
30
0
40
3.2499999999999938
210
0
220
-0
230
1
100
AcDbArc
50
43.580648568226557
51
43.587794198520093
0
ARC
5
136
100
AcDbEntity
8
0
100
AcDbCircle
10
-11.624849172043154
20
41.317085965054538
30
0
40
0.99999999999999034
210
0
220
0
230
1
100
AcDbArc
50
196.59658707693305
51
259.66276802379338
0
ARC
5
137
100
AcDbEntity
8
0
100
AcDbCircle
10
-13.891163924330067
20
20.511403257263726
30
0
40
2.9999999999999982
210
0
220
-0
230
1
100
AcDbArc
50
0
51
64.018805728340482
0
LINE
5
138
100
AcDbEntity
8
0
100
AcDbLine
10
-13.493055054395526
20
23.739923914767033
30
0
11
-12.401383257110963
21
23.115352865758521
31
0
0
LINE
5
139
100
AcDbEntity
8
0
100
AcDbLine
10
13.49990400069812
20
40.469016394537306
30
0
11
13.500185289717701
21
40.469014651434243
31
0
0
ARC
5
140
100
AcDbEntity
8
0
100
AcDbCircle
10
12.499867942916119
20
25.478314776823936
30
0
40
1.9999999999999951
210
0
220
0
230
1
100
AcDbArc
50
-60.222336567248618
51
0
0
LINE
5
141
100
AcDbEntity
8
0
100
AcDbLine
10
-11.804290698101354
20
40.333317324201474
30
0
11
-9.8475180481383688
21
39.976397764177854
31
0
0
ARC
5
142
100
AcDbEntity
8
0
100
AcDbCircle
10
15.499867942916119
20
37.631764992082012
30
0
40
1.0000000000000164
210
0
220
0
230
1
100
AcDbArc
50
112.78298615843822
51
180
0
ARC
5
143
100
AcDbEntity
8
0
100
AcDbCircle
10
11.360616761131297
20
26.228546167566734
30
0
40
3.2499999999999902
210
0
220
0
230
1
100
AcDbArc
50
293.85966226730471
51
307.95412521061291
0
LINE
5
144
100
AcDbEntity
8
0
100
AcDbLine
10
8.2064011002558885
20
36.977054486359158
30
0
11
8.206401100255885
21
38.009863293811883
31
0
0
ARC
5
145
100
AcDbEntity
8
0
100
AcDbCircle
10
11.619215348748613
20
41.318254362829336
30
0
40
1.00000000000005
210
0
220
0
230
1
100
AcDbArc
50
280.37112383590159
51
343.46084944457658
0
LINE
5
146
100
AcDbEntity
8
0
100
AcDbLine
10
13.493139198561842
20
23.742396514719424
30
0
11
13.359465380892113
21
23.665909986740395
31
0
0
ARC
5
147
100
AcDbEntity
8
0
100
AcDbCircle
10
-10.206401100254762
20
38.008860482471711
30
0
40
1.9999999999999996
210
0
220
0
230
1
100
AcDbArc
50
0
51
79.662768023793674
0
ARC
5
148
100
AcDbEntity
8
0
100
AcDbCircle
10
-12.499867942916127
20
25.475890320430214
30
0
40
1.9999999999999862
210
0
220
0
230
1
100
AcDbArc
50
180
51
240.22511379406407
0
ENDSEC
0
SECTION
2
OBJECTS
0
DICTIONARY
5
C
100
AcDbDictionary
3
ACAD_GROUP
350
D
3
ACAD_MLINESTYLE
350
17
0
DICTIONARY
5
D
100
AcDbDictionary
0
DICTIONARY
5
1A
330
C
100
AcDbDictionary
0
DICTIONARY
5
17
100
AcDbDictionary
0
ENDSEC
0
EOF
