0
SECTION
2
HEADER
9
$INSUNITS
70
4
9
$ACADVER
1
AC1014
9
$HANDSEED
5
FFFF
0
ENDSEC
0
SECTION
2
TABLES
0
TABLE
2
VPORT
5
8
100
AcDbSymbolTable
0
ENDTAB
0
TABLE
2
LTYPE
5
5
100
AcDbSymbolTable
0
LTYPE
5
14
100
AcDbSymbolTableRecord
100
AcDbLinetypeTableRecord
2
BYBLOCK
70
0
0
LTYPE
5
15
100
AcDbSymbolTableRecord
100
AcDbLinetypeTableRecord
2
BYLAYER
70
0
0
ENDTAB
0
TABLE
2
LAYER
5
2
100
AcDbSymbolTable
70
2
0
LAYER
5
50
100
AcDbSymbolTableRecord
100
AcDbLayerTableRecord
2
0
70
0
6
CONTINUOUS
0
ENDTAB
0
TABLE
2
STYLE
5
3
100
AcDbSymbolTable
70
1
0
STYLE
5
11
100
AcDbSymbolTableRecord
100
AcDbTextStyleTableRecord
2
STANDARD
70
0
0
ENDTAB
0
TABLE
2
VIEW
5
6
100
AcDbSymbolTable
70
0
0
ENDTAB
0
TABLE
2
UCS
5
7
100
AcDbSymbolTable
70
0
0
ENDTAB
0
TABLE
2
APPID
5
9
100
AcDbSymbolTable
70
2
0
APPID
5
12
100
AcDbSymbolTableRecord
100
AcDbRegAppTableRecord
2
ACAD
70
0
0
ENDTAB
0
TABLE
2
DIMSTYLE
5
A
100
AcDbSymbolTable
70
1
0
ENDTAB
0
TABLE
2
BLOCK_RECORD
5
1
100
AcDbSymbolTable
70
1
0
BLOCK_RECORD
5
1F
100
AcDbSymbolTableRecord
100
AcDbBlockTableRecord
2
*MODEL_SPACE
0
BLOCK_RECORD
5
1B
100
AcDbSymbolTableRecord
100
AcDbBlockTableRecord
2
*PAPER_SPACE
0
ENDTAB
0
ENDSEC
0
SECTION
2
BLOCKS
0
BLOCK
5
20
100
AcDbEntity
100
AcDbBlockBegin
2
*MODEL_SPACE
0
ENDBLK
5
21
100
AcDbEntity
100
AcDbBlockEnd
0
BLOCK
5
1C
100
AcDbEntity
100
AcDbBlockBegin
2
*PAPER_SPACE
0
ENDBLK
5
1D
100
AcDbEntity
100
AcDbBlockEnd
0
ENDSEC
0
SECTION
2
ENTITIES
0
LWPOLYLINE
5
100
100
AcDbEntity
8
0
100
AcDbPolyline
90
4
70
1
43
0.0
10
82.980269038116006
20
78.550637524080031
10
88.348657202040584
20
78.552970507821712
42
-0.99999999999999989
10
88.349569815891499
20
76.452970706114229
10
82.981181651966807
20
76.450637722372434
42
-0.99999999999999989
0
ARC
5
101
100
AcDbEntity
8
0
100
AcDbCircle
10
71.118509570652208
20
83.340633124883468
30
0
40
3.148506791184793
210
0
220
0
230
1
100
AcDbArc
50
281.25624728185056
51
353.83278143363486
0
ARC
5
102
100
AcDbEntity
8
0
100
AcDbCircle
10
82.933961533302949
20
82.93801344257831
30
0
40
2.1861358398893
210
0
220
0
230
1
100
AcDbArc
50
178.29399357811721
51
271.71343580986309
0
LWPOLYLINE
5
103
100
AcDbEntity
8
0
100
AcDbPolyline
90
4
70
1
43
0.0
10
76.449999999999974
20
88.347866217407613
42
-0.99999999999999989
10
78.549999999999983
20
88.347866217407613
10
78.550000000000011
20
82.999999999999972
42
-0.99999999999999989
10
76.449999999999989
20
82.999999999999972
0
LWPOLYLINE
5
104
100
AcDbEntity
8
0
100
AcDbPolyline
90
4
70
1
43
0.0
10
69.399978584102513
20
78.55266903049143
10
71.999373683770173
20
78.552722139990891
42
-0.99999999999999989
10
71.99941658988395
20
76.452722140318514
10
69.40002149020944
20
76.452669030819095
42
-0.99999999999999989
0
LINE
5
105
100
AcDbEntity
8
0
100
AcDbLine
10
88.349950728322199
20
80.751950628604448
30
0
11
82.999328392238269
21
80.752855076646597
31
0
0
LINE
5
106
100
AcDbEntity
8
0
100
AcDbLine
10
74.249043242422502
20
88.35031563270806
30
0
11
74.248794669799423
21
83.002387338222263
31
0
0
LINE
5
107
100
AcDbEntity
8
0
100
AcDbLine
10
80.748788669054576
20
82.873133061869424
30
0
11
80.749043235388029
21
88.350013511599826
31
0
0
ARC
5
108
100
AcDbEntity
8
0
100
AcDbCircle
10
77.499043238905259
20
88.350164572151598
30
0
40
3.249999999993431
210
-0
220
0
230
1
100
AcDbArc
50
-0.0026631173571962613
51
179.99733688236913
0
ARC
5
109
100
AcDbEntity
8
0
100
AcDbCircle
10
69.400000037155976
20
77.502669030655255
30
0
40
2.7500000000609277
210
0
220
0
230
1
100
AcDbArc
50
180.00097208794233
51
201.30129448432376
0
LINE
5
110
100
AcDbEntity
8
0
100
AcDbLine
10
84.406805522738125
20
74.252617069417909
30
0
11
88.348851994038029
21
74.251950721467267
31
0
0
CIRCLE
5
111
100
AcDbEntity
8
0
100
AcDbCircle
10
77.5
20
77.499999999999986
30
0
40
3.25
210
0
220
0
230
1
0
ARC
5
112
100
AcDbEntity
8
0
100
AcDbCircle
10
69.400000037155976
20
77.502669030655255
30
0
40
2.7500000000628768
210
0
220
0
230
1
100
AcDbArc
50
90.000971613700287
51
180.00097208794233
0
ARC
5
113
100
AcDbEntity
8
0
100
AcDbCircle
10
88.349401361181279
20
77.501950675035843
30
0
40
3.2499999999999991
210
0
220
0
230
1
100
AcDbArc
50
-90.009685051957348
51
89.990314948083764
0
ARC
5
114
100
AcDbEntity
8
0
100
AcDbCircle
10
61.463085711435539
20
73.182579316680631
30
0
40
6.3180669363860549
210
-0
220
0
230
1
100
AcDbArc
50
-2.5801178859903464
51
31.712001211682505
0
ARC
5
115
100
AcDbEntity
8
0
100
AcDbCircle
10
98.548757813821737
20
34.541058540447544
30
0
40
42.341215931947616
210
0
220
0
230
1
100
AcDbArc
50
111.067482078903
51
128.42201175028327
0
ARC
5
116
100
AcDbEntity
8
0
100
AcDbCircle
10
84.406878825782059
20
71.252617070313448
30
0
40
3.0000000000000124
210
0
220
0
230
1
100
AcDbArc
50
90.00139998501443
51
111.06748207890229
0
ARC
5
117
100
AcDbEntity
8
0
100
AcDbCircle
10
66.176369712091912
20
72.970189238344332
30
0
40
1.5999999999999988
210
0
220
0
230
1
100
AcDbArc
50
314.82340577985093
51
357.41988211400997
0
CIRCLE
5
118
100
AcDbEntity
8
0
100
AcDbCircle
10
22.500000000000028
20
22.500000000000032
30
0
40
1.5000000000000033
210
0
220
0
230
1
0
ARC
5
119
100
AcDbEntity
8
0
100
AcDbCircle
10
22.500000000000028
20
22.500000000000032
30
0
40
3.4999999999999734
210
0
220
0
230
1
100
AcDbArc
50
121.73791249202458
51
182.01411391951621
0
LINE
5
120
100
AcDbEntity
8
0
100
AcDbLine
10
67.304248138377801
20
71.83533671245435
30
0
11
20.658879194543722
21
25.476621269109646
31
0
0
LINE
5
121
100
AcDbEntity
8
0
100
AcDbLine
10
72.235859481104626
20
67.71348606584742
30
0
11
25.47669545027075
21
20.659324559998019
31
0
0
ARC
5
122
100
AcDbEntity
8
0
100
AcDbCircle
10
22.500000000000028
20
22.500000000000032
30
0
40
3.5000000142557495
210
0
220
0
230
1
100
AcDbArc
50
224.98969774403062
51
225.00000000000006
0
ARC
5
123
100
AcDbEntity
8
0
100
AcDbCircle
10
22.500000000000028
20
22.500000000000032
30
0
40
3.4998288356845837
210
0
220
0
230
1
100
AcDbArc
50
267.98616642237431
51
328.26892713800891
0
ARC
5
124
100
AcDbEntity
8
0
100
AcDbCircle
10
22.306731481382759
20
17.003562666901935
30
0
40
2.0000053506307665
210
0
220
-0
230
1
100
AcDbArc
50
87.986166422375163
51
135.00020753639879
0
ARC
5
125
100
AcDbEntity
8
0
100
AcDbCircle
10
17.003397901364224
20
22.306698760292466
30
0
40
2.0000000000000306
210
0
220
0
230
1
100
AcDbArc
50
-44.999999999957048
51
2.0141139195162072
0
LINE
5
126
100
AcDbEntity
8
0
100
AcDbLine
10
4.9915936013347038
20
2.5167336577253137
30
0
11
20.892509012982803
21
18.417774890164203
31
0
0
ARC
5
127
100
AcDbEntity
8
0
100
AcDbCircle
10
0
20
0
30
0
40
4.5000000000000009
210
0
220
0
230
1
100
AcDbArc
50
0
51
9.7656872506485932
0
ARC
5
128
100
AcDbEntity
8
0
100
AcDbCircle
10
0
20
0
30
0
40
4.5000000000000009
210
0
220
-0
230
1
100
AcDbArc
50
45.000000000000007
51
45.001273239543515
0
ARC
5
129
100
AcDbEntity
8
0
100
AcDbCircle
10
0
20
0
30
0
40
4.5000000000000009
210
0
220
-0
230
1
100
AcDbArc
50
80.234417984623647
51
90
0
LINE
5
130
100
AcDbEntity
8
0
100
AcDbLine
10
18.417611463738403
20
20.892485197920408
30
0
11
2.5167274873401411
21
4.991601221498625
31
0
0
ARC
5
131
100
AcDbEntity
8
0
100
AcDbCircle
10
1.1025139249659996
20
6.4058147838706736
30
0
40
2.0000000000000009
210
0
220
0
230
1
100
AcDbArc
50
260.23441798462363
51
315.00000000004241
0
ARC
5
132
100
AcDbEntity
8
0
100
AcDbCircle
10
6.4058127588703409
20
1.1025256905369056
30
0
40
1.9999999999999938
210
0
220
0
230
1
100
AcDbArc
50
135.00022668417438
51
189.76568725064865
0
LINE
5
133
100
AcDbEntity
8
0
100
AcDbLine
10
0
20
4.5000000000000009
30
0
11
0
21
1.45
31
0
0
LINE
5
134
100
AcDbEntity
8
0
100
AcDbLine
10
4.5000000000000009
20
0
30
0
11
1.45
21
0
31
0
0
LINE
5
135
100
AcDbEntity
8
0
100
AcDbLine
10
69.399953403046126
20
80.252669030322735
30
0
11
71.733089473805308
21
80.252691001595352
31
0
0
ARC
5
136
100
AcDbEntity
8
0
100
AcDbCircle
10
0
20
0
30
0
40
1.45
210
0
220
0
230
1
100
AcDbArc
50
0
51
90
0
ENDSEC
0
SECTION
2
OBJECTS
0
DICTIONARY
5
C
100
AcDbDictionary
3
ACAD_GROUP
350
D
3
ACAD_MLINESTYLE
350
17
0
DICTIONARY
5
D
100
AcDbDictionary
0
DICTIONARY
5
1A
330
C
100
AcDbDictionary
0
DICTIONARY
5
17
100
AcDbDictionary
0
ENDSEC
0
EOF
