0
SECTION
2
HEADER
9
$INSUNITS
70
4
9
$ACADVER
1
AC1014
9
$HANDSEED
5
FFFF
0
ENDSEC
0
SECTION
2
TABLES
0
TABLE
2
VPORT
5
8
100
AcDbSymbolTable
0
ENDTAB
0
TABLE
2
LTYPE
5
5
100
AcDbSymbolTable
0
LTYPE
5
14
100
AcDbSymbolTableRecord
100
AcDbLinetypeTableRecord
2
BYBLOCK
70
0
0
LTYPE
5
15
100
AcDbSymbolTableRecord
100
AcDbLinetypeTableRecord
2
BYLAYER
70
0
0
ENDTAB
0
TABLE
2
LAYER
5
2
100
AcDbSymbolTable
70
2
0
LAYER
5
50
100
AcDbSymbolTableRecord
100
AcDbLayerTableRecord
2
0
70
0
6
CONTINUOUS
0
ENDTAB
0
TABLE
2
STYLE
5
3
100
AcDbSymbolTable
70
1
0
STYLE
5
11
100
AcDbSymbolTableRecord
100
AcDbTextStyleTableRecord
2
STANDARD
70
0
0
ENDTAB
0
TABLE
2
VIEW
5
6
100
AcDbSymbolTable
70
0
0
ENDTAB
0
TABLE
2
UCS
5
7
100
AcDbSymbolTable
70
0
0
ENDTAB
0
TABLE
2
APPID
5
9
100
AcDbSymbolTable
70
2
0
APPID
5
12
100
AcDbSymbolTableRecord
100
AcDbRegAppTableRecord
2
ACAD
70
0
0
ENDTAB
0
TABLE
2
DIMSTYLE
5
A
100
AcDbSymbolTable
70
1
0
ENDTAB
0
TABLE
2
BLOCK_RECORD
5
1
100
AcDbSymbolTable
70
1
0
BLOCK_RECORD
5
1F
100
AcDbSymbolTableRecord
100
AcDbBlockTableRecord
2
*MODEL_SPACE
0
BLOCK_RECORD
5
1B
100
AcDbSymbolTableRecord
100
AcDbBlockTableRecord
2
*PAPER_SPACE
0
ENDTAB
0
ENDSEC
0
SECTION
2
BLOCKS
0
BLOCK
5
20
100
AcDbEntity
100
AcDbBlockBegin
2
*MODEL_SPACE
0
ENDBLK
5
21
100
AcDbEntity
100
AcDbBlockEnd
0
BLOCK
5
1C
100
AcDbEntity
100
AcDbBlockBegin
2
*PAPER_SPACE
0
ENDBLK
5
1D
100
AcDbEntity
100
AcDbBlockEnd
0
ENDSEC
0
SECTION
2
ENTITIES
0
CIRCLE
5
100
100
AcDbEntity
8
0
100
AcDbCircle
10
4.6000000000000014
20
0.7999999999999996
30
0
40
1.05
210
0
220
0
230
1
0
LWPOLYLINE
5
101
100
AcDbEntity
8
0
100
AcDbPolyline
90
38
70
1
43
0.0
10
5.9500000000000011
20
-9.3239686561963069
10
5.950000000000002
20
-10.000000000000002
10
5.950000000000002
20
-11.500000000000002
10
2.0500000000000038
20
-11.500000000000004
10
2.0500000000000034
20
-10.000000000000002
42
0.99999999999999989
10
0.4500000000000029
20
-10.000000000000002
10
-2.4499999999999975
20
-10.000000000000002
10
-2.4499999999999966
20
-7.8880530065371168
42
-0.14490118847768649
10
-1.96659987981249
20
-6.2550419701605264
10
-0.86505631130629812
20
-4.5574757257450038
10
0.51107824888658671
20
-2.4367429250215533
42
0.09858947875581868
10
0.80012710562601486
20
-1.7110677051617051
42
0.44227216166073646
10
-0.51265982650211384
20
-1.028436911525977
42
-0.54968448721291485
10
-3.8683684994334766
20
1.5326219746928038
42
-0.15391472105982909
10
-1.9166666666666676
20
6.2573854138731608
42
-0.10550319297039061
10
-1.0945575377301573
20
6.8999250097334031
42
0.47662926518331111
10
-0.74330080132184007
20
8.4132769573575708
10
-5.6410522959418419
20
14.704624220290743
42
-0.20475462717682147
10
-5.9499999999999984
20
15.427428982500784
10
-5.9499999999999975
20
16.499999999999993
10
-2.0499999999999967
20
16.499999999999993
10
-2.0499999999999963
20
14.999999999999996
42
0.99999999999999989
10
-0.44999999999999751
20
14.999999999999996
10
0.45000000000000234
20
14.999999999999996
42
0.99999999999999989
10
2.0500000000000016
20
14.999999999999996
10
2.0500000000000025
20
16.499999999999993
10
4.0000000000000027
20
16.499999999999993
10
5.9500000000000028
20
16.499999999999993
10
5.9500000000000028
20
15.246241381906566
42
0.16822163205240118
10
6.1640993022014108
20
14.627888656352873
10
6.7359006977985967
20
13.901152770455953
42
-0.16822163205239965
10
6.9500000000000028
20
13.282800044902263
10
6.9500000000000028
20
11.905009936892474
10
6.9500000000000028
20
10.228213299202039
10
6.9500000000000028
20
5.0688449499834345
10
6.950000000000002
20
-6.8740464868679441
42
-0.11788211509620115
10
6.8418568933848363
20
-7.3263641647470434
10
6.0581431066151676
20
-8.8716509783172022
42
0.11788211509619981
0
CIRCLE
5
102
100
AcDbEntity
8
0
100
AcDbCircle
10
4.5889802357007969
20
-2.1999797607308618
30
0
40
1.05
210
0
220
0
230
1
0
CIRCLE
5
103
100
AcDbEntity
8
0
100
AcDbCircle
10
4.5788487513103515
20
4.0979632400955248
30
0
40
1.0499999999999998
210
0
220
0
230
1
0
LINE
5
104
100
AcDbEntity
8
0
100
AcDbLine
10
0.83334499567825848
20
5.2050252731950684
30
0
11
0.83334499567825848
21
5.3596194347955954
31
0
0
ARC
5
105
100
AcDbEntity
8
0
100
AcDbCircle
10
4.6000000000000014
20
0.7999999999999996
30
0
40
7.0000000000000009
210
0
220
0
230
1
100
AcDbArc
50
114.45889882887236
51
175.05549481018514
0
ARC
5
106
100
AcDbEntity
8
0
100
AcDbCircle
10
2.1157577523898672
20
6.261551103412744
30
0
40
0.99999999999999867
210
0
220
0
230
1
100
AcDbArc
50
-65.541101171127636
51
114.45889882887236
0
ARC
5
107
100
AcDbEntity
8
0
100
AcDbCircle
10
4.6000000000000014
20
0.7999999999999996
30
0
40
5.0000000000000018
210
0
220
0
230
1
100
AcDbArc
50
114.45889882887238
51
175.05549481018514
0
ARC
5
108
100
AcDbEntity
8
0
100
AcDbCircle
10
-1.377671881953042
20
1.3171449233125698
30
0
40
1.0000000000000009
210
0
220
0
230
1
100
AcDbArc
50
175.05549481018519
51
355.05549481018522
0
LWPOLYLINE
5
109
100
AcDbEntity
8
0
100
AcDbPolyline
90
8
70
1
43
0.0
10
1.3518368877562394
20
9.4430646243371346
10
0.30238935951191914
20
10.791119714854574
42
-0.62426526469999766
10
1.0914691110122987
20
12.405410481326031
10
3.1744764651959345
20
12.405410481326033
42
-0.4142135623730962
10
4.1744764651959372
20
11.405410481326035
10
4.1744764651959363
20
10.057355390808596
42
-0.41421356237309653
10
3.1744764651959367
20
9.0573553908085973
10
2.1409166392566203
20
9.0573553908085955
42
-0.23132596840295028
0
LWPOLYLINE
5
110
100
AcDbEntity
8
0
100
AcDbPolyline
90
8
70
1
43
0.0
10
1.7323719717199881
20
-4.4867275323307245
10
0.75593297758182565
20
-5.977081786541607
42
0.59630719092290252
10
1.5923941071615793
20
-7.5251080438524802
10
4.237514218292544
20
-7.5251080438524802
42
0.41421356237309503
10
5.237514218292544
20
-6.5251080438524802
10
5.237514218292544
20
-6.1280276249127406
42
0.25289168110788518
10
4.7855404756034154
20
-5.2915664953329866
10
3.1168593586106135
20
-4.1982926600618429
42
0.41421356237309609
0
ENDSEC
0
SECTION
2
OBJECTS
0
DICTIONARY
5
C
100
AcDbDictionary
3
ACAD_GROUP
350
D
3
ACAD_MLINESTYLE
350
17
0
DICTIONARY
5
D
100
AcDbDictionary
0
DICTIONARY
5
1A
330
C
100
AcDbDictionary
0
DICTIONARY
5
17
100
AcDbDictionary
0
ENDSEC
0
EOF
