0
SECTION
2
HEADER
9
$INSUNITS
70
4
9
$ACADVER
1
AC1014
9
$HANDSEED
5
FFFF
0
ENDSEC
0
SECTION
2
TABLES
0
TABLE
2
VPORT
5
8
100
AcDbSymbolTable
0
ENDTAB
0
TABLE
2
LTYPE
5
5
100
AcDbSymbolTable
0
LTYPE
5
14
100
AcDbSymbolTableRecord
100
AcDbLinetypeTableRecord
2
BYBLOCK
70
0
0
LTYPE
5
15
100
AcDbSymbolTableRecord
100
AcDbLinetypeTableRecord
2
BYLAYER
70
0
0
ENDTAB
0
TABLE
2
LAYER
5
2
100
AcDbSymbolTable
70
2
0
LAYER
5
50
100
AcDbSymbolTableRecord
100
AcDbLayerTableRecord
2
0
70
0
6
CONTINUOUS
0
ENDTAB
0
TABLE
2
STYLE
5
3
100
AcDbSymbolTable
70
1
0
STYLE
5
11
100
AcDbSymbolTableRecord
100
AcDbTextStyleTableRecord
2
STANDARD
70
0
0
ENDTAB
0
TABLE
2
VIEW
5
6
100
AcDbSymbolTable
70
0
0
ENDTAB
0
TABLE
2
UCS
5
7
100
AcDbSymbolTable
70
0
0
ENDTAB
0
TABLE
2
APPID
5
9
100
AcDbSymbolTable
70
2
0
APPID
5
12
100
AcDbSymbolTableRecord
100
AcDbRegAppTableRecord
2
ACAD
70
0
0
ENDTAB
0
TABLE
2
DIMSTYLE
5
A
100
AcDbSymbolTable
70
1
0
ENDTAB
0
TABLE
2
BLOCK_RECORD
5
1
100
AcDbSymbolTable
70
1
0
BLOCK_RECORD
5
1F
100
AcDbSymbolTableRecord
100
AcDbBlockTableRecord
2
*MODEL_SPACE
0
BLOCK_RECORD
5
1B
100
AcDbSymbolTableRecord
100
AcDbBlockTableRecord
2
*PAPER_SPACE
0
ENDTAB
0
ENDSEC
0
SECTION
2
BLOCKS
0
BLOCK
5
20
100
AcDbEntity
100
AcDbBlockBegin
2
*MODEL_SPACE
0
ENDBLK
5
21
100
AcDbEntity
100
AcDbBlockEnd
0
BLOCK
5
1C
100
AcDbEntity
100
AcDbBlockBegin
2
*PAPER_SPACE
0
ENDBLK
5
1D
100
AcDbEntity
100
AcDbBlockEnd
0
ENDSEC
0
SECTION
2
ENTITIES
0
LWPOLYLINE
5
100
100
AcDbEntity
8
0
100
AcDbPolyline
90
47
70
1
43
0.0
10
-16.755954294416917
20
-4.5517485867868528
10
-16.761805762090713
20
4.5301530998243935
10
-16.765043693848366
20
7.3636206229810863
42
-0.26794919243108989
10
-16.266033666147656
20
8.2302168335970229
42
0.8586521045951454
10
-16.986356704588896
20
10.071320195694467
42
-0.26794919243112747
10
-17.940961159311641
20
10.369196571097923
10
-18.235030658755566
20
10.688212718230897
42
-0.50618974073308642
10
-17.926764966062677
20
12.270235481787994
10
-16.136494201238488
20
13.115638063913142
42
-0.14909163136615758
10
-14.98197111526345
20
13.284433672770575
10
-9.6218107795366983
20
12.469786085613537
42
-0.15959493520344628
10
-8.2334673015542936
20
11.76651018738484
10
-7.7794111249303537
20
11.312454207209722
42
0.41421349901247428
10
7.7769363785467105
20
11.312455889835107
10
8.2310074296052775
20
11.766526940893288
42
-0.15188906425488788
10
9.5451746584127495
20
12.457265080506787
10
13.994171785361278
20
13.278115065993399
42
-0.13260728940739608
10
15.033260397714482
20
13.193528198878489
10
17.722670782441963
20
12.227325652715241
42
-0.53631362939464444
10
18.120870277360122
20
10.609566068297948
10
17.92511737176314
20
10.39655576590487
42
-0.26794919243112569
10
16.970968477055418
20
10.09722336417056
42
0.85861837948325914
10
16.253387857496982
20
8.2550620010361122
42
-0.26794919243112497
10
16.75365217463079
20
7.3891892546104909
10
16.755904311511095
20
0.010795826227518734
10
16.763159967753573
20
-7.3675943783888043
42
-0.2679491924311268
10
16.264011828817345
20
-8.2341110460856815
42
0.8586183794832638
10
16.983965660113615
20
-10.075346206024003
42
-0.26794919243112497
10
17.938499482113176
20
-10.373448843816597
10
18.134526710074912
20
-10.586206722337909
42
-0.53631362939464289
10
17.738412189330749
20
-12.204478083137055
10
15.050249085217946
20
-13.174145398961905
42
-0.13260728940739508
10
14.011270334124255
20
-13.260071164516894
10
9.5612191543636484
20
-12.444954834303276
42
-0.1518890642548856
10
8.2461629320792902
20
-11.755910702901227
10
7.7915071424555116
20
-11.302425144387957
42
0.41421349901247367
10
-7.7648274476227028
20
-11.322469357412817
10
-8.2182981511342597
20
-11.777110056998641
42
-0.15959493520344492
10
-9.6057342357514539
20
-12.482174389515706
10
-14.964840367075185
20
-13.303728398189225
42
-0.14909163136615805
10
-16.119580004386584
20
-13.136420646901923
10
-17.910938667869289
20
-12.293325707993199
42
-0.50618974073308609
10
-18.221242697761763
20
-10.711701488800543
10
-17.927584526392678
20
-10.392306668831699
42
-0.26794919243112453
10
-16.973364707458902
20
-10.093200438281418
42
0.85865210459514596
10
-16.255414711227452
20
-8.2511703971184112
42
-0.26794919243112214
10
-16.755541019739336
20
-7.3852179298696141
0
CIRCLE
5
101
100
AcDbEntity
8
0
100
AcDbCircle
10
9.9987743825705095
20
9.9987599879277731
30
0
40
1.4999999999999989
210
0
220
0
230
1
0
LINE
5
102
100
AcDbEntity
8
0
100
AcDbLine
10
-16.756621012521073
20
-0.0069466974617549138
30
0
11
-16.756608529840094
21
-0.017870112097044425
31
0
0
LINE
5
103
100
AcDbEntity
8
0
100
AcDbLine
10
-16.756621012521073
20
-0.0069466974617549138
30
0
11
-16.756615198237892
21
0.0039767227589857131
31
0
0
CIRCLE
5
104
100
AcDbEntity
8
0
100
AcDbCircle
10
-10.001236830643572
20
9.9987487747222854
30
0
40
1.4999999999999996
210
0
220
0
230
1
0
CIRCLE
5
105
100
AcDbEntity
8
0
100
AcDbCircle
10
-9.9883441483376849
20
-10.011628058263069
30
0
40
1.4999999999999991
210
0
220
0
230
1
0
LINE
5
106
100
AcDbEntity
8
0
100
AcDbLine
10
-16.756616051942114
20
-0.014645875337854029
30
0
11
-16.756596161754118
21
-0.025569278997208365
31
0
0
CIRCLE
5
107
100
AcDbEntity
8
0
100
AcDbCircle
10
10.011650474432685
20
-9.9858672746800341
30
0
40
1.5000000000000002
210
0
220
0
230
1
0
LINE
5
108
100
AcDbEntity
8
0
100
AcDbLine
10
-16.756616051942114
20
-0.014645875337854029
30
0
11
-16.756617645173947
21
-0.0037224536864943194
31
0
0
LWPOLYLINE
5
109
100
AcDbEntity
8
0
100
AcDbPolyline
90
10
70
1
43
0.0
10
-10.034343848267604
20
1.9528523647985996
10
-9.9999916975581389
20
-0.012885991164937327
10
-10.031073411395377
20
-1.9794584387816263
42
0.41904111034467278
10
-8.0300223625816933
20
-4.0110641053480762
10
8.0386895715423616
20
-4.0006130078146231
42
0.41955841339141015
10
10.037032918953825
20
-1.9628870316711309
10
10
20
0
10
10.036162979031236
20
1.9611504060912777
42
0.41981126416600928
10
8.0352303765721995
20
3.9980230859368033
10
-8.0359217069247126
20
3.9877975124900988
42
0.41915376444976926
0
ENDSEC
0
SECTION
2
OBJECTS
0
DICTIONARY
5
C
100
AcDbDictionary
3
ACAD_GROUP
350
D
3
ACAD_MLINESTYLE
350
17
0
DICTIONARY
5
D
100
AcDbDictionary
0
DICTIONARY
5
1A
330
C
100
AcDbDictionary
0
DICTIONARY
5
17
100
AcDbDictionary
0
ENDSEC
0
EOF
