0
SECTION
2
HEADER
9
$INSUNITS
70
4
9
$ACADVER
1
AC1014
9
$HANDSEED
5
FFFF
0
ENDSEC
0
SECTION
2
TABLES
0
TABLE
2
VPORT
5
8
100
AcDbSymbolTable
0
ENDTAB
0
TABLE
2
LTYPE
5
5
100
AcDbSymbolTable
0
LTYPE
5
14
100
AcDbSymbolTableRecord
100
AcDbLinetypeTableRecord
2
BYBLOCK
70
0
0
LTYPE
5
15
100
AcDbSymbolTableRecord
100
AcDbLinetypeTableRecord
2
BYLAYER
70
0
0
ENDTAB
0
TABLE
2
LAYER
5
2
100
AcDbSymbolTable
70
2
0
LAYER
5
50
100
AcDbSymbolTableRecord
100
AcDbLayerTableRecord
2
0
70
0
6
CONTINUOUS
0
ENDTAB
0
TABLE
2
STYLE
5
3
100
AcDbSymbolTable
70
1
0
STYLE
5
11
100
AcDbSymbolTableRecord
100
AcDbTextStyleTableRecord
2
STANDARD
70
0
0
ENDTAB
0
TABLE
2
VIEW
5
6
100
AcDbSymbolTable
70
0
0
ENDTAB
0
TABLE
2
UCS
5
7
100
AcDbSymbolTable
70
0
0
ENDTAB
0
TABLE
2
APPID
5
9
100
AcDbSymbolTable
70
2
0
APPID
5
12
100
AcDbSymbolTableRecord
100
AcDbRegAppTableRecord
2
ACAD
70
0
0
ENDTAB
0
TABLE
2
DIMSTYLE
5
A
100
AcDbSymbolTable
70
1
0
ENDTAB
0
TABLE
2
BLOCK_RECORD
5
1
100
AcDbSymbolTable
70
1
0
BLOCK_RECORD
5
1F
100
AcDbSymbolTableRecord
100
AcDbBlockTableRecord
2
*MODEL_SPACE
0
BLOCK_RECORD
5
1B
100
AcDbSymbolTableRecord
100
AcDbBlockTableRecord
2
*PAPER_SPACE
0
ENDTAB
0
ENDSEC
0
SECTION
2
BLOCKS
0
BLOCK
5
20
100
AcDbEntity
100
AcDbBlockBegin
2
*MODEL_SPACE
0
ENDBLK
5
21
100
AcDbEntity
100
AcDbBlockEnd
0
BLOCK
5
1C
100
AcDbEntity
100
AcDbBlockBegin
2
*PAPER_SPACE
0
ENDBLK
5
1D
100
AcDbEntity
100
AcDbBlockEnd
0
ENDSEC
0
SECTION
2
ENTITIES
0
LWPOLYLINE
5
100
100
AcDbEntity
8
0
100
AcDbPolyline
90
29
70
1
43
0.0
10
-35.341483199757079
20
-14.598386850405287
10
-61.366225342964817
20
-50.847542405017883
10
-64.75827262931054
20
-55.57223281903758
10
-70.102691125006913
20
-60.535661591702947
42
-0.060375375895668736
10
-70.492162188958574
20
-60.818349874125801
10
-76.663710292035148
20
-64.24817210592218
42
-0.12749544183740122
10
-77.635252513493185
20
-64.5
10
-82.500000000000014
20
-64.5
42
0.99999999999999989
10
-82.500000000000014
20
-72.500000000000014
10
-78.500000000000014
20
-72.500000000000014
42
-0.41421356237309331
10
-72.500000000000014
20
-78.500000000000014
10
-72.500000000000014
20
-82.500000000000014
42
0.99999999999999989
10
-64.5
20
-82.500000000000014
10
-64.5
20
-78.5
42
-0.41421356237309243
10
-58.5
20
-72.500000000000014
10
-57.5
20
-72.500000000000028
42
0.75927759801933536
10
-55.429943789595498
20
-65.077301169286756
42
0.13683025478849917
10
-55.947457842196641
20
-64.932975876965074
10
-56.501501784683725
20
-64.932975876965088
42
-0.61085848494257078
10
-58.126155464962409
20
-61.766570964785366
10
-52.167085108876492
20
-53.466343930450826
10
-27.983739005677041
20
-19.78201884080903
42
-0.062720531215259293
10
-27.64381041080479
20
-19.415621921398145
10
-21.539406727988318
20
-14.299187180043766
10
-16.761466126860284
20
-9.1095683484901198
10
-16.756617314955161
20
0
10
-29.84878214580089
20
0
10
-33.839672005235528
20
-10.001059609819263
10
-35.0516884660546
20
-14.010676391460654
42
-0.082466343463743513
0
LWPOLYLINE
5
101
100
AcDbEntity
8
0
100
AcDbPolyline
90
4
70
1
43
0.0
10
-76.5
20
-67
10
-82.500000000000014
20
-67
42
0.99999999999999989
10
-82.500000000000014
20
-70.000000000000014
10
-76.499999999999986
20
-70.000000000000014
42
0.99999999999999989
0
LWPOLYLINE
5
102
100
AcDbEntity
8
0
100
AcDbPolyline
90
4
70
1
43
0.0
10
-67
20
-76.500000000000028
42
0.99999999999999989
10
-70.000000000000014
20
-76.5
10
-70.000000000000014
20
-82.500000000000014
42
0.99999999999999989
10
-67
20
-82.500000000000014
0
CIRCLE
5
103
100
AcDbEntity
8
0
100
AcDbCircle
10
-26.501232966332893
20
-10.001059609819263
30
0
40
1.5000000000000002
210
0
220
0
230
1
0
LWPOLYLINE
5
104
100
AcDbEntity
8
0
100
AcDbPolyline
90
4
70
1
43
0.0
10
-60.500000000000007
20
-70.000000000000014
10
-57.499999999999986
20
-70.000000000000014
42
0.99999999999999989
10
-57.5
20
-67
10
-60.499999999999986
20
-67
42
0.99999999999999989
0
CIRCLE
5
105
100
AcDbEntity
8
0
100
AcDbCircle
10
-68.5
20
-68.5
30
0
40
4.0000000000000027
210
0
220
0
230
1
0
CIRCLE
5
106
100
AcDbEntity
8
0
100
AcDbCircle
10
-21.865540265606693
20
-3.5089243160729264
30
0
40
1.5000000000000011
210
0
220
0
230
1
0
ENDSEC
0
SECTION
2
OBJECTS
0
DICTIONARY
5
C
100
AcDbDictionary
3
ACAD_GROUP
350
D
3
ACAD_MLINESTYLE
350
17
0
DICTIONARY
5
D
100
AcDbDictionary
0
DICTIONARY
5
1A
330
C
100
AcDbDictionary
0
DICTIONARY
5
17
100
AcDbDictionary
0
ENDSEC
0
EOF
