0
SECTION
2
HEADER
9
$INSUNITS
70
4
9
$ACADVER
1
AC1014
9
$HANDSEED
5
FFFF
0
ENDSEC
0
SECTION
2
TABLES
0
TABLE
2
VPORT
5
8
100
AcDbSymbolTable
0
ENDTAB
0
TABLE
2
LTYPE
5
5
100
AcDbSymbolTable
0
LTYPE
5
14
100
AcDbSymbolTableRecord
100
AcDbLinetypeTableRecord
2
BYBLOCK
70
0
0
LTYPE
5
15
100
AcDbSymbolTableRecord
100
AcDbLinetypeTableRecord
2
BYLAYER
70
0
0
ENDTAB
0
TABLE
2
LAYER
5
2
100
AcDbSymbolTable
70
2
0
LAYER
5
50
100
AcDbSymbolTableRecord
100
AcDbLayerTableRecord
2
0
70
0
6
CONTINUOUS
0
ENDTAB
0
TABLE
2
STYLE
5
3
100
AcDbSymbolTable
70
1
0
STYLE
5
11
100
AcDbSymbolTableRecord
100
AcDbTextStyleTableRecord
2
STANDARD
70
0
0
ENDTAB
0
TABLE
2
VIEW
5
6
100
AcDbSymbolTable
70
0
0
ENDTAB
0
TABLE
2
UCS
5
7
100
AcDbSymbolTable
70
0
0
ENDTAB
0
TABLE
2
APPID
5
9
100
AcDbSymbolTable
70
2
0
APPID
5
12
100
AcDbSymbolTableRecord
100
AcDbRegAppTableRecord
2
ACAD
70
0
0
ENDTAB
0
TABLE
2
DIMSTYLE
5
A
100
AcDbSymbolTable
70
1
0
ENDTAB
0
TABLE
2
BLOCK_RECORD
5
1
100
AcDbSymbolTable
70
1
0
BLOCK_RECORD
5
1F
100
AcDbSymbolTableRecord
100
AcDbBlockTableRecord
2
*MODEL_SPACE
0
BLOCK_RECORD
5
1B
100
AcDbSymbolTableRecord
100
AcDbBlockTableRecord
2
*PAPER_SPACE
0
ENDTAB
0
ENDSEC
0
SECTION
2
BLOCKS
0
BLOCK
5
20
100
AcDbEntity
100
AcDbBlockBegin
2
*MODEL_SPACE
0
ENDBLK
5
21
100
AcDbEntity
100
AcDbBlockEnd
0
BLOCK
5
1C
100
AcDbEntity
100
AcDbBlockBegin
2
*PAPER_SPACE
0
ENDBLK
5
1D
100
AcDbEntity
100
AcDbBlockEnd
0
ENDSEC
0
SECTION
2
ENTITIES
0
CIRCLE
5
100
100
AcDbEntity
8
0
100
AcDbCircle
10
-21.869263311962538
20
3.4856452996317455
30
0
40
2.125
210
0
220
0
230
1
0
LINE
5
101
100
AcDbEntity
8
0
100
AcDbLine
10
-7.7794075593847367
20
11.312453021597955
30
0
11
-8.2334660133687816
21
11.766511475582002
31
0
0
ARC
5
102
100
AcDbEntity
8
0
100
AcDbCircle
10
28.575681888381972
20
4.7011572658670611
30
0
40
2.0000000000000009
210
0
220
0
230
1
100
AcDbArc
50
115.75240955402164
51
158.18624454439777
0
SPLINE
5
103
100
AcDbEntity
8
0
100
AcDbSpline
70
4
71
5
72
36
73
30
74
0
42
0.000000001
43
0.0000000001
44
0.0000000001
40
0
40
0
40
0
40
0
40
0
40
0
40
0.040000000000000001
40
0.080000000000000002
40
0.12
40
0.16
40
0.20000000000000001
40
0.23999999999999999
40
0.28000000000000003
40
0.32000000000000001
40
0.35999999999999999
40
0.40000000000000002
40
0.44
40
0.47999999999999993
40
0.51999999999999991
40
0.56000000000000005
40
0.59999999999999998
40
0.64000000000000001
40
0.68000000000000005
40
0.72000000000000008
40
0.76000000000000023
40
0.80000000000000016
40
0.8400000000000003
40
0.88000000000000023
40
0.92000000000000015
40
0.96000000000000041
40
1
40
1
40
1
40
1
40
1
40
1
41
1
41
1
41
1
41
1
41
1
41
1
41
1
41
1
41
1
41
1
41
1
41
1
41
1
41
1
41
1
41
1
41
1
41
1
41
1
41
1
41
1
41
1
41
1
41
1
41
1
41
1
41
1
41
1
41
1
41
1
10
23.32713420346909
20
14.999999999999996
30
0
10
23.459766422139285
20
14.976380982621365
30
0
10
23.724524242088169
20
14.928723045282053
30
0
10
24.120141123690466
20
14.855976264125704
30
0
10
24.64434823271673
20
14.756419024565277
30
0
10
25.29239082119134
20
14.626691334942301
30
0
10
25.93039252173682
20
14.489100580987394
30
0
10
26.554511291438203
20
14.338743639804807
30
0
10
27.159932319078521
20
14.167802746671081
30
0
10
27.740937180825988
20
13.964522446722755
30
0
10
28.290887543292257
20
13.713409133491805
30
0
10
28.801949465198554
20
13.399062846679058
30
0
10
29.264879356160396
20
13.009338355575855
30
0
10
29.668756969525923
20
12.538895191440563
30
0
10
30.00081439692249
20
11.992510713730447
30
0
10
30.246043464920835
20
11.389081658758688
30
0
10
30.390303906070514
20
10.756522338204828
30
0
10
30.423511907561842
20
10.126312588239932
30
0
10
30.343222155405932
20
9.5279470415328902
30
0
10
30.157380431667285
20
8.9840922501030853
30
0
10
29.889538600643061
20
8.5037142687724163
30
0
10
29.574893221099234
20
8.083019873463499
30
0
10
29.249426842093982
20
7.7123508665751386
30
0
10
28.940738080921435
20
7.3814224456514177
30
0
10
28.658915572894834
20
7.0848350380033596
30
0
10
28.385136792365007
20
6.8284360053345692
30
0
10
28.145051377116232
20
6.6652397829925967
30
0
10
27.938217213345187
20
6.5718740083677618
30
0
10
27.786231858244065
20
6.5233496804082547
30
0
10
27.706715617240967
20
6.502517202031763
30
0
0
ARC
5
104
100
AcDbEntity
8
0
100
AcDbCircle
10
28.577862084803449
20
-4.6878858439993314
30
0
40
1.9999999999999993
210
0
220
0
230
1
100
AcDbArc
50
201.84036435488053
51
244.27419934525665
0
SPLINE
5
105
100
AcDbEntity
8
0
100
AcDbSpline
70
4
71
5
72
30
73
24
74
0
42
0.000000001
43
0.0000000001
44
0.0000000001
40
0
40
0
40
0
40
0
40
0
40
0
40
0.028571428571428567
40
0.057142857142857134
40
0.085714285714285715
40
0.11428571428571427
40
0.14285714285714285
40
0.17142857142857146
40
0.20000000000000001
40
0.22857142857142854
40
0.25714285714285717
40
0.2857142857142857
40
0.31428571428571433
40
0.34285714285714292
40
0.3714285714285715
40
0.40000000000000008
40
0.42857142857142871
40
0.4571428571428573
40
0.48571428571428582
40
0.51428571428571435
40
0.54249811458237063
40
0.54249811458237063
40
0.54249811458237063
40
0.54249811458237063
40
0.54249811458237063
40
0.54249811458237063
41
1
41
1
41
1
41
1
41
1
41
1
41
1
41
1
41
1
41
1
41
1
41
1
41
1
41
1
41
1
41
1
41
1
41
1
41
1
41
1
41
1
41
1
41
1
41
1
10
23.327134203469072
20
-15.000000000000027
30
0
10
23.472056767988011
20
-14.974192329705073
30
0
10
23.761095011366269
20
-14.922046239240698
30
0
10
24.192231616074125
20
-14.842234449003007
30
0
10
24.762233368666607
20
-14.732632711297242
30
0
10
25.46593531117675
20
-14.589058509201749
30
0
10
26.15875059982395
20
-14.4352296002217
30
0
10
26.836518383675198
20
-14.263683688522599
30
0
10
27.492394588998931
20
-14.06222842036545
30
0
10
28.115960804181967
20
-13.811911587380417
30
0
10
28.693928684029245
20
-13.491149225925041
30
0
10
29.211345143227749
20
-13.081678760551565
30
0
10
29.652615040744408
20
-12.574106686315716
30
0
10
30.002624027396077
20
-11.97325780211052
30
0
10
30.247768067104733
20
-11.304803558242885
30
0
10
30.377778900853833
20
-10.607543297109663
30
0
10
30.38765265325921
20
-9.9239791810000852
30
0
10
30.279593366205159
20
-9.2915002205084019
30
0
10
30.064971901263551
20
-8.7333794301612429
30
0
10
29.767184104208173
20
-8.2507523924310782
30
0
10
29.484148014167097
20
-7.9127370783454021
30
0
10
29.257955795609654
20
-7.678403778186933
30
0
10
29.103380824558126
20
-7.5291956438324892
30
0
10
29.025701239962416
20
-7.4566411228744647
30
0
0
SPLINE
5
106
100
AcDbEntity
8
0
100
AcDbSpline
70
4
71
5
72
20
73
14
74
0
42
0.000000001
43
0.0000000001
44
0.0000000001
40
0.1119937343189276
40
0.1119937343189276
40
0.1119937343189276
40
0.1119937343189276
40
0.1119937343189276
40
0.1119937343189276
40
0.20000000000000001
40
0.30000000000000004
40
0.40000000000000002
40
0.5
40
0.59999999999999998
40
0.69999999999999996
40
0.79999999999999982
40
0.8999999999999998
40
1
40
1
40
1
40
1
40
1
40
1
41
1
41
1
41
1
41
1
41
1
41
1
41
1
41
1
41
1
41
1
41
1
41
1
41
1
41
1
10
26.721414142326108
20
-5.4319295502906053
30
0
10
26.670489310320256
20
-5.3048680634479926
30
0
10
26.563952261724602
20
-5.035123849251864
30
0
10
26.408234558648314
20
-4.6275361473961274
30
0
10
26.214586586068481
20
-4.0905699790736483
30
0
10
26.000974507281022
20
-3.4377434552993762
30
0
10
25.816821275888415
20
-2.7949880186996729
30
0
10
25.669844816012159
20
-2.1802051501054889
30
0
10
25.559886156482143
20
-1.5932752363386469
30
0
10
25.48469425905467
20
-1.0325045498986394
30
0
10
25.450345280351414
20
-0.6033038671439479
30
0
10
25.43821665742535
20
-0.29166118844937411
30
0
10
25.4360927290316
20
-0.088385198887670102
30
0
10
25.436521177057614
20
0.012131379062960258
30
0
0
CIRCLE
5
107
100
AcDbEntity
8
0
100
AcDbCircle
10
26.498767033659114
20
-10.000318329543935
30
0
40
1.5000000000000002
210
0
220
0
230
1
0
CIRCLE
5
108
100
AcDbEntity
8
0
100
AcDbCircle
10
-10.001232966335108
20
9.9987445226156808
30
0
40
1.5000000000000002
210
0
220
0
230
1
0
CIRCLE
5
109
100
AcDbEntity
8
0
100
AcDbCircle
10
26.49876703366705
20
9.9996816704560647
30
0
40
1.5000000000000016
210
0
220
0
230
1
0
LWPOLYLINE
5
110
100
AcDbEntity
8
0
100
AcDbPolyline
90
4
70
1
43
0.0
10
17.438310371306418
20
-2.7500000000000084
10
12.438310371306418
20
-2.7500000000000044
42
0.99999999999999989
10
12.438310371306418
20
-5.2500000000000089
10
17.438310371306418
20
-5.2500000000000036
42
0.99999999999999989
0
CIRCLE
5
111
100
AcDbEntity
8
0
100
AcDbCircle
10
9.9987670336670487
20
9.9987445226134106
30
0
40
1.5000000000000013
210
0
220
0
230
1
0
ARC
5
112
100
AcDbEntity
8
0
100
AcDbCircle
10
-10.001232966335108
20
9.9987445226156808
30
0
40
2.4999999999999352
210
0
220
-0
230
1
100
AcDbArc
50
44.999999999999922
51
81.270450183904472
0
LWPOLYLINE
5
113
100
AcDbEntity
8
0
100
AcDbPolyline
90
4
70
1
43
0.0
10
12.438310371306422
20
5.2499999999999964
42
0.99999999999999989
10
12.438310371306422
20
2.7499999999999902
10
17.438310371306422
20
2.7499999999999947
42
0.99999999999999989
10
17.438310371306422
20
5.2499999999999938
0
CIRCLE
5
114
100
AcDbEntity
8
0
100
AcDbCircle
10
-21.865540265606693
20
-3.5089243160729264
30
0
40
2.125
210
0
220
0
230
1
0
LINE
5
115
100
AcDbEntity
8
0
100
AcDbLine
10
23.32713420346909
20
14.999999999999996
30
0
11
9.545176544673005
21
12.457251319084177
31
0
0
ARC
5
116
100
AcDbEntity
8
0
100
AcDbCircle
10
9.9987670336670487
20
9.9987445226134106
30
0
40
2.4999999999997593
210
0
220
0
230
1
100
AcDbArc
50
100.45342531789639
51
135.00000000000006
0
LINE
5
117
100
AcDbEntity
8
0
100
AcDbLine
10
23.327134203469072
20
-15.000000000000027
30
0
11
9.5456097464181333
21
-12.459842159408046
31
0
0
LINE
5
118
100
AcDbEntity
8
0
100
AcDbLine
10
20.830030519408172
20
0.0016543329472648582
30
0
11
20.830030519408172
21
-0.0016543329472914104
31
0
0
LINE
5
119
100
AcDbEntity
8
0
100
AcDbLine
10
8.2310000807008485
20
11.766511475579609
30
0
11
7.7769416267193154
21
11.31245302159796
31
0
0
LWPOLYLINE
5
120
100
AcDbEntity
8
0
100
AcDbPolyline
90
6
70
1
43
0.0
10
-15.439234024959687
20
-3.5594827646236875
42
-0.47152701455803153
10
-16.887495999244244
20
-3.4357907066795299
42
-0.30591604687870511
10
-16.957477571488486
20
3.1516291858019856
42
-0.4715270145580317
10
-15.512170252465598
20
3.3060611285338695
10
-12.71606163728077
20
0.56873703403420861
42
-0.41421356237310042
10
-12.701909930460019
20
-0.76337414943887072
0
CIRCLE
5
121
100
AcDbEntity
8
0
100
AcDbCircle
10
21.865540265606693
20
-3.5089243160729264
30
0
40
2.125
210
0
220
0
230
1
0
LINE
5
122
100
AcDbEntity
8
0
100
AcDbLine
10
-26.100000000000001
20
15
30
0
11
-9.6218064475578338
21
12.469783882247219
31
0
0
SPLINE
5
123
100
AcDbEntity
8
0
100
AcDbSpline
70
4
71
5
72
36
73
30
74
0
42
0.000000001
43
0.0000000001
44
0.0000000001
40
0
40
0
40
0
40
0
40
0
40
0
40
0.040000000000000001
40
0.080000000000000002
40
0.12
40
0.16
40
0.20000000000000001
40
0.23999999999999999
40
0.28000000000000003
40
0.32000000000000001
40
0.35999999999999999
40
0.40000000000000002
40
0.44
40
0.47999999999999993
40
0.51999999999999991
40
0.56000000000000005
40
0.59999999999999998
40
0.64000000000000001
40
0.68000000000000005
40
0.72000000000000008
40
0.76000000000000023
40
0.80000000000000016
40
0.8400000000000003
40
0.88000000000000023
40
0.92000000000000015
40
0.96000000000000041
40
1
40
1
40
1
40
1
40
1
40
1
41
1
41
1
41
1
41
1
41
1
41
1
41
1
41
1
41
1
41
1
41
1
41
1
41
1
41
1
41
1
41
1
41
1
41
1
41
1
41
1
41
1
41
1
41
1
41
1
41
1
41
1
41
1
41
1
41
1
41
1
10
23.334097881169296
20
-14.989164960686354
30
0
10
23.466719116560469
20
-14.965484349743335
30
0
10
23.731454774997722
20
-14.917703460600178
30
0
10
24.127037829394244
20
-14.844772957711058
30
0
10
24.651198646225229
20
-14.744972280350465
30
0
10
25.299180917604414
20
-14.61494364538849
30
0
10
25.937118650428857
20
-14.477056610060268
30
0
10
26.561167525124478
20
-14.326409836293054
30
0
10
27.166509100322884
20
-14.155187796266821
30
0
10
27.747419493424196
20
-13.951637692095527
30
0
10
28.29725317632548
20
-13.700269001909536
30
0
10
28.808169056652737
20
-13.385685405253687
30
0
10
29.270917904616699
20
-12.995745965571546
30
0
10
29.674576994560628
20
-12.525115286200661
30
0
10
30.006380638156038
20
-11.978576655664275
30
0
10
30.251329439480024
20
-11.375033778226895
30
0
10
30.395296096373055
20
-10.742407529480207
30
0
10
30.428211416754451
20
-10.112182425253113
30
0
10
30.347643784586506
20
-9.5138542306691321
30
0
10
30.161549507715691
20
-8.9700858051797177
30
0
10
29.893484611850731
20
-8.4898322648506017
30
0
10
29.578643890339897
20
-8.0692840402780224
30
0
10
29.253005402969574
20
-7.6987662241428678
30
0
10
28.944162987662892
20
-7.3679811979448306
30
0
10
28.662202771013984
20
-7.0715247042849612
30
0
10
28.388304944993621
20
-6.8152528456597636
30
0
10
28.148143765206971
20
-6.6521681396774115
30
0
10
27.941266263472002
20
-6.5588984315720396
30
0
10
27.789258389437741
20
-6.5104446928027784
30
0
10
27.709732482138243
20
-6.4896491450398264
30
0
0
ARC
5
124
100
AcDbEntity
8
0
100
AcDbCircle
10
-0.0012329663331311913
20
-19.093138569423207
30
0
40
10.999999999999996
210
0
220
-0
230
1
100
AcDbArc
50
45.000000000000007
51
135
0
SPLINE
5
125
100
AcDbEntity
8
0
100
AcDbSpline
70
4
71
5
72
31
73
25
74
0
42
0.000000001
43
0.0000000001
44
0.0000000001
40
0
40
0
40
0
40
0
40
0
40
0
40
0.050000000000000003
40
0.10000000000000001
40
0.15000000000000002
40
0.20000000000000001
40
0.25
40
0.29999999999999999
40
0.34999999999999998
40
0.40000000000000002
40
0.45000000000000001
40
0.5
40
0.54999999999999993
40
0.59999999999999998
40
0.65000000000000002
40
0.70000000000000007
40
0.75000000000000022
40
0.80000000000000016
40
0.8500000000000002
40
0.90000000000000024
40
0.9500000000000004
40
1
40
1
40
1
40
1
40
1
40
1
41
1
41
1
41
1
41
1
41
1
41
1
41
1
41
1
41
1
41
1
41
1
41
1
41
1
41
1
41
1
41
1
41
1
41
1
41
1
41
1
41
1
41
1
41
1
41
1
41
1
10
-26.100000000000001
20
-15
30
0
10
-26.347710014082235
20
-14.946010848207754
30
0
10
-26.837327159038196
20
-14.831203618091553
30
0
10
-27.55434366465126
20
-14.638506234739701
30
0
10
-28.475410141836001
20
-14.340434022515964
30
0
10
-29.565644412959088
20
-13.89881598401054
30
0
10
-30.587795619635159
20
-13.388493400162613
30
0
10
-31.528806146231254
20
-12.811542556692908
30
0
10
-32.368214579788471
20
-12.172630819985315
30
0
10
-33.075326120904322
20
-11.480436825134602
30
0
10
-33.610953966012403
20
-10.747603028018609
30
0
10
-33.938828212595297
20
-9.9874711539441403
30
0
10
-34.035455525326427
20
-9.2114793328584632
30
0
10
-33.900386862634441
20
-8.426441004072764
30
0
10
-33.568484191571706
20
-7.631481370423181
30
0
10
-33.099088033237393
20
-6.820097572213335
30
0
10
-32.562822670808714
20
-5.9827803646421183
30
0
10
-32.030207958557575
20
-5.1092778315215091
30
0
10
-31.558379890112658
20
-4.1912682469454339
30
0
10
-31.182459149567304
20
-3.2241176829635654
30
0
10
-30.922287102481132
20
-2.2055811935199361
30
0
10
-30.813527990886371
20
-1.3491831050646452
30
0
10
-30.788672831210988
20
-0.68360670571872018
30
0
10
-30.797203540153344
20
-0.22958609528801432
30
0
10
-30.807744272585715
20
0
30
0
0
CIRCLE
5
126
100
AcDbEntity
8
0
100
AcDbCircle
10
-26.501232965205951
20
9.9989375569960792
30
0
40
1.5000000000000011
210
0
220
0
230
1
0
ARC
5
127
100
AcDbEntity
8
0
100
AcDbCircle
10
-10.001232966332887
20
-10.001255477387501
30
0
40
2.4999999999988112
210
0
220
0
230
1
100
AcDbArc
50
278.72101987555902
51
315.00000000001472
0
ARC
5
128
100
AcDbEntity
8
0
100
AcDbCircle
10
9.9987670336670487
20
-10.001255477386588
30
0
40
2.5000000000000124
210
0
220
0
230
1
100
AcDbArc
50
225.00000000000006
51
259.55667033382167
0
LINE
5
129
100
AcDbEntity
8
0
100
AcDbLine
10
-26.100000000000001
20
-15
30
0
11
-9.622174329096433
21
-12.472351296964415
31
0
0
SPLINE
5
130
100
AcDbEntity
8
0
100
AcDbSpline
70
4
71
5
72
31
73
25
74
0
42
0.000000001
43
0.0000000001
44
0.0000000001
40
0
40
0
40
0
40
0
40
0
40
0
40
0.050000000000000003
40
0.10000000000000001
40
0.15000000000000002
40
0.20000000000000001
40
0.25
40
0.29999999999999999
40
0.34999999999999998
40
0.40000000000000002
40
0.45000000000000001
40
0.5
40
0.54999999999999993
40
0.59999999999999998
40
0.65000000000000002
40
0.70000000000000007
40
0.75000000000000022
40
0.80000000000000016
40
0.8500000000000002
40
0.90000000000000024
40
0.9500000000000004
40
1
40
1
40
1
40
1
40
1
40
1
41
1
41
1
41
1
41
1
41
1
41
1
41
1
41
1
41
1
41
1
41
1
41
1
41
1
41
1
41
1
41
1
41
1
41
1
41
1
41
1
41
1
41
1
41
1
41
1
41
1
10
-26.100000000000001
20
15
30
0
10
-26.347710014082235
20
14.946010848207754
30
0
10
-26.837327159038196
20
14.831203618091553
30
0
10
-27.55434366465126
20
14.638506234739701
30
0
10
-28.475410141836001
20
14.340434022515964
30
0
10
-29.565644412959088
20
13.89881598401054
30
0
10
-30.587795619635159
20
13.388493400162613
30
0
10
-31.528806146231254
20
12.811542556692908
30
0
10
-32.368214579788471
20
12.172630819985315
30
0
10
-33.075326120904322
20
11.480436825134602
30
0
10
-33.610953966012403
20
10.747603028018609
30
0
10
-33.938828212595297
20
9.9874711539441403
30
0
10
-34.035455525326427
20
9.2114793328584632
30
0
10
-33.900386862634441
20
8.426441004072764
30
0
10
-33.568484191571706
20
7.631481370423181
30
0
10
-33.099088033237393
20
6.820097572213335
30
0
10
-32.562822670808714
20
5.9827803646421183
30
0
10
-32.030207958557575
20
5.1092778315215091
30
0
10
-31.558379890112658
20
4.1912682469454339
30
0
10
-31.182459149567304
20
3.2241176829635654
30
0
10
-30.922287102481132
20
2.2055811935199361
30
0
10
-30.813527990886371
20
1.3491831050646452
30
0
10
-30.788672831210988
20
0.68360670571872018
30
0
10
-30.797203540153344
20
0.22958609528801432
30
0
10
-30.807744272585715
20
0
30
0
0
SPLINE
5
131
100
AcDbEntity
8
0
100
AcDbSpline
70
4
71
5
72
20
73
14
74
0
42
0.000000001
43
0.0000000001
44
0.0000000001
40
0.1119937343189276
40
0.1119937343189276
40
0.1119937343189276
40
0.1119937343189276
40
0.1119937343189276
40
0.1119937343189276
40
0.20000000000000001
40
0.30000000000000004
40
0.40000000000000002
40
0.5
40
0.59999999999999998
40
0.69999999999999996
40
0.79999999999999982
40
0.8999999999999998
40
1
40
1
40
1
40
1
40
1
40
1
41
1
41
1
41
1
41
1
41
1
41
1
41
1
41
1
41
1
41
1
41
1
41
1
41
1
41
1
10
26.718888602618378
20
5.4443387335741509
30
0
10
26.668022785096053
20
5.3172536102856052
30
0
10
26.561611020678324
20
5.0474599480003937
30
0
10
26.406082623375525
20
4.6397999727908861
30
0
10
26.212684045686562
20
4.1027439297608383
30
0
10
25.999375170984955
20
3.4498182721851602
30
0
10
25.815520463358705
20
2.8069773817663259
30
0
10
25.668829532418638
20
2.1921263217082121
30
0
10
25.559143462561682
20
1.60514540501728
30
0
10
25.48421200237577
20
1.0443398589645072
30
0
10
25.450062353704471
20
0.6151232703863434
30
0
10
25.438078462962181
20
0.30347499261043648
30
0
10
25.436048938786456
20
0.10019803859023305
30
0
10
25.436524067960331
20
-0.0003183295439384293
30
0
0
CIRCLE
5
132
100
AcDbEntity
8
0
100
AcDbCircle
10
-10.001232966332887
20
-10.001255477386584
30
0
40
1.5000000000000004
210
0
220
0
230
1
0
ARC
5
133
100
AcDbEntity
8
0
100
AcDbCircle
10
-0.001232966332711766
20
19.090627614649986
30
0
40
11
210
0
220
0
230
1
100
AcDbArc
50
225
51
315
0
LINE
5
134
100
AcDbEntity
8
0
100
AcDbLine
10
-8.233466013366904
20
-11.769022430352575
30
0
11
-7.7794075593851497
21
-11.314963976371185
31
0
0
CIRCLE
5
135
100
AcDbEntity
8
0
100
AcDbCircle
10
-26.501232966332893
20
-10.001059609819263
30
0
40
1.5000000000000002
210
0
220
0
230
1
0
LINE
5
136
100
AcDbEntity
8
0
100
AcDbLine
10
7.7769416267188882
20
-11.314963976371185
30
0
11
8.2310000807006727
21
-11.769022430352967
31
0
0
CIRCLE
5
137
100
AcDbEntity
8
0
100
AcDbCircle
10
21.869263311962538
20
3.4856452996317455
30
0
40
2.125
210
0
220
0
230
1
0
CIRCLE
5
138
100
AcDbEntity
8
0
100
AcDbCircle
10
9.9987670336670487
20
-10.001255477386588
30
0
40
1.4999999999999991
210
0
220
0
230
1
0
CIRCLE
5
139
100
AcDbEntity
8
0
100
AcDbCircle
10
-21.869263311962538
20
3.4856452996317455
30
0
40
2.5500000000000016
210
0
220
0
230
1
0
CIRCLE
5
140
100
AcDbEntity
8
0
100
AcDbCircle
10
-21.865540265606693
20
-3.5089243160729264
30
0
40
2.5500000000000025
210
0
220
0
230
1
0
CIRCLE
5
141
100
AcDbEntity
8
0
100
AcDbCircle
10
21.869263311962538
20
3.4856452996317455
30
0
40
2.5500000000000012
210
0
220
0
230
1
0
CIRCLE
5
142
100
AcDbEntity
8
0
100
AcDbCircle
10
21.865540265606693
20
-3.5089243160729264
30
0
40
2.5500000000000007
210
0
220
0
230
1
0
ENDSEC
0
SECTION
2
OBJECTS
0
DICTIONARY
5
C
100
AcDbDictionary
3
ACAD_GROUP
350
D
3
ACAD_MLINESTYLE
350
17
0
DICTIONARY
5
D
100
AcDbDictionary
0
DICTIONARY
5
1A
330
C
100
AcDbDictionary
0
DICTIONARY
5
17
100
AcDbDictionary
0
ENDSEC
0
EOF
