0
SECTION
2
HEADER
9
$INSUNITS
70
4
9
$ACADVER
1
AC1014
9
$HANDSEED
5
FFFF
0
ENDSEC
0
SECTION
2
TABLES
0
TABLE
2
VPORT
5
8
100
AcDbSymbolTable
0
ENDTAB
0
TABLE
2
LTYPE
5
5
100
AcDbSymbolTable
0
LTYPE
5
14
100
AcDbSymbolTableRecord
100
AcDbLinetypeTableRecord
2
BYBLOCK
70
0
0
LTYPE
5
15
100
AcDbSymbolTableRecord
100
AcDbLinetypeTableRecord
2
BYLAYER
70
0
0
ENDTAB
0
TABLE
2
LAYER
5
2
100
AcDbSymbolTable
70
2
0
LAYER
5
50
100
AcDbSymbolTableRecord
100
AcDbLayerTableRecord
2
0
70
0
6
CONTINUOUS
0
ENDTAB
0
TABLE
2
STYLE
5
3
100
AcDbSymbolTable
70
1
0
STYLE
5
11
100
AcDbSymbolTableRecord
100
AcDbTextStyleTableRecord
2
STANDARD
70
0
0
ENDTAB
0
TABLE
2
VIEW
5
6
100
AcDbSymbolTable
70
0
0
ENDTAB
0
TABLE
2
UCS
5
7
100
AcDbSymbolTable
70
0
0
ENDTAB
0
TABLE
2
APPID
5
9
100
AcDbSymbolTable
70
2
0
APPID
5
12
100
AcDbSymbolTableRecord
100
AcDbRegAppTableRecord
2
ACAD
70
0
0
ENDTAB
0
TABLE
2
DIMSTYLE
5
A
100
AcDbSymbolTable
70
1
0
ENDTAB
0
TABLE
2
BLOCK_RECORD
5
1
100
AcDbSymbolTable
70
1
0
BLOCK_RECORD
5
1F
100
AcDbSymbolTableRecord
100
AcDbBlockTableRecord
2
*MODEL_SPACE
0
BLOCK_RECORD
5
1B
100
AcDbSymbolTableRecord
100
AcDbBlockTableRecord
2
*PAPER_SPACE
0
ENDTAB
0
ENDSEC
0
SECTION
2
BLOCKS
0
BLOCK
5
20
100
AcDbEntity
100
AcDbBlockBegin
2
*MODEL_SPACE
0
ENDBLK
5
21
100
AcDbEntity
100
AcDbBlockEnd
0
BLOCK
5
1C
100
AcDbEntity
100
AcDbBlockBegin
2
*PAPER_SPACE
0
ENDBLK
5
1D
100
AcDbEntity
100
AcDbBlockEnd
0
ENDSEC
0
SECTION
2
ENTITIES
0
LINE
5
100
100
AcDbEntity
8
0
100
AcDbLine
10
-16.466278145412318
20
2.0000000000000013
30
0
11
-18.031222920256962
21
1.9999999999999987
31
0
0
LWPOLYLINE
5
101
100
AcDbEntity
8
0
100
AcDbPolyline
90
8
70
1
43
0.0
10
2.9915599391111289
20
39.880398717463741
42
-0.41421356237309503
10
4.9915599391111289
20
37.880398717463748
10
4.9915599391111272
20
30.472982751267708
42
-0.41421356237309459
10
2.9915599391111289
20
28.472982751267708
10
-2.991559939110005
20
28.472982751267708
42
-0.41421356237309459
10
-4.9915599391100045
20
30.472982751267708
10
-4.9915599391100045
20
37.880398717463741
42
-0.41421356237309459
10
-2.9915599391100054
20
39.880398717463741
0
ARC
5
102
100
AcDbEntity
8
0
100
AcDbCircle
10
8.5000000000004281
20
40.499999999996703
30
0
40
2.5000000000000009
210
0
220
0
230
1
100
AcDbArc
50
0
51
90.000000000000171
0
LINE
5
103
100
AcDbEntity
8
0
100
AcDbLine
10
-18.031222920256962
20
-2.0000000000000009
30
0
11
-16.466278145412321
21
-2.0000000000000009
31
0
0
LWPOLYLINE
5
104
100
AcDbEntity
8
0
100
AcDbPolyline
90
8
70
1
43
0.0
10
6.0000000000005649
20
-20.387809505039055
10
-5.9999999999994325
20
-20.387809505039055
42
0.41421356237309503
10
-6.9999999999994378
20
-21.387809505039058
10
-6.9999999999994378
20
-21.741230098903451
42
0.41421356237309503
10
-5.9999999999994316
20
-22.741230098903458
10
6.0000000000005658
20
-22.741230098903458
42
0.41421356237309503
10
7.0000000000005711
20
-21.741230098903451
10
7.0000000000005702
20
-21.387809505039058
42
0.41421356237309503
0
LWPOLYLINE
5
105
100
AcDbEntity
8
0
100
AcDbPolyline
90
4
70
1
43
0.0
10
-19.141242789363893
20
-17.373475836397525
10
-13.484388539871512
20
-11.716621586905152
42
-0.99999999999999989
10
-11.716621586905143
20
-13.484388539871512
10
-17.373475836397525
20
-19.141242789363893
42
-0.99999999999999989
0
CIRCLE
5
106
100
AcDbEntity
8
0
100
AcDbCircle
10
-14.142135623730949
20
-1.1102230246251565e-15
30
0
40
1.5000000000000002
210
0
220
0
230
1
0
ARC
5
107
100
AcDbEntity
8
0
100
AcDbCircle
10
-20.571960646232522
20
-6.5407377259755641
30
0
40
6.4215728752538057
210
0
220
0
230
1
100
AcDbArc
50
-45
51
40.774461235611575
0
LINE
5
108
100
AcDbEntity
8
0
100
AcDbLine
10
-10.999999999999567
20
40.499999999996696
30
0
11
-10.999999999999567
21
28.224873734151043
31
0
0
LINE
5
109
100
AcDbEntity
8
0
100
AcDbLine
10
10.999999999999996
20
28.224873734151
30
0
11
11.00000000000043
21
40.499999999996604
31
0
0
ARC
5
110
100
AcDbEntity
8
0
100
AcDbCircle
10
-16.466278145412318
20
-2.9999999999999871
30
0
40
0.99999999999998601
210
0
220
-0
230
1
100
AcDbArc
50
40.774461235611113
51
90.000000000000199
0
ARC
5
111
100
AcDbEntity
8
0
100
AcDbCircle
10
18.031222920256962
20
1.1102230246251565e-15
30
0
40
1.9999999999999998
210
0
220
0
230
1
100
AcDbArc
50
-90
51
90
0
LWPOLYLINE
5
112
100
AcDbEntity
8
0
100
AcDbPolyline
90
4
70
1
43
0.0
10
19.141242789363893
20
17.373475836397525
10
13.484388539871512
20
11.716621586905143
42
-0.99999999999999989
10
11.716621586905143
20
13.484388539871512
10
17.373475836397525
20
19.141242789363893
42
-0.99999999999999989
0
LWPOLYLINE
5
113
100
AcDbEntity
8
0
100
AcDbPolyline
90
4
70
1
43
0.0
10
5.8914480353806837
20
12.057877339915951
42
-0.99999999999999989
10
4.1236810824143149
20
13.825644292882316
10
9.7805353319066857
20
19.482498542374692
42
-0.99999999999999989
10
11.548302284873051
20
17.71473158940832
0
LWPOLYLINE
5
114
100
AcDbEntity
8
0
100
AcDbPolyline
90
8
70
1
43
0.0
10
8.8051047989309446
20
34.128675613394201
10
8.8051047989308877
20
35.028675613394199
42
0.99999999999999989
10
8.8051047989307865
20
36.628675613394194
10
7.1051047989307934
20
36.628675613394094
42
0.99999999999999989
10
7.1051047989308938
20
35.028675613394093
10
7.1051047989309515
20
34.128675613394094
42
0.99999999999999989
10
7.105104798931051
20
32.5286756133941
10
8.805104798931044
20
32.528675613394206
42
0.99999999999999989
0
LWPOLYLINE
5
115
100
AcDbEntity
8
0
100
AcDbPolyline
90
4
70
1
43
0.0
10
13.484388539871512
20
-11.716621586905143
10
19.141242789363893
20
-17.373475836397525
42
-0.99999999999999989
10
17.373475836397525
20
-19.141242789363893
10
11.716621586905143
20
-13.484388539871512
42
-0.99999999999999989
0
CIRCLE
5
116
100
AcDbEntity
8
0
100
AcDbCircle
10
-1.1102230246251565e-15
20
18.031222920256962
30
0
40
1.0499999999999998
210
0
220
0
230
1
0
ARC
5
117
100
AcDbEntity
8
0
100
AcDbCircle
10
16.466278145412321
20
-3.0000000000000027
30
0
40
1.000000000000004
210
0
220
0
230
1
100
AcDbArc
50
90.000000000000199
51
139.22553876438826
0
LINE
5
118
100
AcDbEntity
8
0
100
AcDbLine
10
-24.974873734152911
20
20.025126265847078
30
0
11
-16.031222920256958
21
11.081475451951128
31
0
0
LWPOLYLINE
5
119
100
AcDbEntity
8
0
100
AcDbPolyline
90
8
70
1
43
0.0
10
6.0000000000005613
20
9.5923711676281478
42
-0.41421356237309243
10
7.0000000000005622
20
8.5923711676281478
10
7.0000000000005622
20
4.5923711676281442
42
-0.41421356237309243
10
6.0000000000005613
20
3.5923711676281433
10
-5.9999999999994369
20
3.5923711676281433
42
-0.41421356237309243
10
-6.9999999999994378
20
4.5923711676281442
10
-6.9999999999994387
20
8.5923711676281478
42
-0.41421356237309243
10
-5.9999999999994378
20
9.5923711676281478
0
ARC
5
120
100
AcDbEntity
8
0
100
AcDbCircle
10
16.097735001374677
20
28.224873734150822
30
0
40
5.0977350013746818
210
0
220
0
230
1
100
AcDbArc
50
180
51
320.39151836856922
0
LWPOLYLINE
5
121
100
AcDbEntity
8
0
100
AcDbPolyline
90
4
70
1
43
0.0
10
11.548302284873058
20
-17.71473158940832
42
-0.99999999999999989
10
9.7805353319066874
20
-19.482498542374685
10
4.1236810824143184
20
-13.825644292882316
42
-0.99999999999999989
10
5.8914480353806837
20
-12.057877339915946
0
LINE
5
122
100
AcDbEntity
8
0
100
AcDbLine
10
18.031222920256962
20
2.0000000000000009
30
0
11
16.466278145412325
21
2.0000000000000009
31
0
0
CIRCLE
5
123
100
AcDbEntity
8
0
100
AcDbCircle
10
1.1102230246251565e-15
20
-18.031222920256962
30
0
40
1.05
210
0
220
0
230
1
0
CIRCLE
5
124
100
AcDbEntity
8
0
100
AcDbCircle
10
18.031222920256962
20
1.1102230246251565e-15
30
0
40
1.05
210
0
220
0
230
1
0
ARC
5
125
100
AcDbEntity
8
0
100
AcDbCircle
10
20.571960646232537
20
6.540737725975565
30
0
40
6.4215728752538181
210
0
220
0
230
1
100
AcDbArc
50
135.00000000000009
51
220.77446123561148
0
LWPOLYLINE
5
126
100
AcDbEntity
8
0
100
AcDbPolyline
90
8
70
1
43
0.0
10
7.0000000000005613
20
-8.637628832371858
10
7.0000000000005622
20
-4.6376288323718544
42
0.41421356237309243
10
6.0000000000005613
20
-3.6376288323718531
10
-5.9999999999994378
20
-3.6376288323718531
42
0.41421356237309243
10
-6.9999999999994387
20
-4.6376288323718544
10
-6.9999999999994378
20
-8.637628832371858
42
0.41421356237309243
10
-5.999999999999436
20
-9.637628832371858
10
6.0000000000005613
20
-9.637628832371858
42
0.41421356237309243
0
LINE
5
127
100
AcDbEntity
8
0
100
AcDbLine
10
24.974873734152911
20
-20.025126265847078
30
0
11
16.031222920256958
21
-11.081475451951128
31
0
0
LINE
5
128
100
AcDbEntity
8
0
100
AcDbLine
10
16.466278145412318
20
-1.9999999999999987
30
0
11
18.031222920256962
21
-1.9999999999999987
31
0
0
LWPOLYLINE
5
129
100
AcDbEntity
8
0
100
AcDbPolyline
90
8
70
1
43
0.0
10
7.0000000000005613
20
21.362371167628144
10
7.0000000000005622
20
25.362371167628147
42
0.41421356237309243
10
6.0000000000005613
20
26.362371167628147
10
-5.9999999999994378
20
26.362371167628147
42
0.41421356237309243
10
-6.9999999999994387
20
25.362371167628147
10
-6.9999999999994378
20
21.362371167628144
42
0.41421356237309243
10
-5.999999999999436
20
20.362371167628144
10
6.0000000000005613
20
20.362371167628144
42
0.41421356237309243
0
CIRCLE
5
130
100
AcDbEntity
8
0
100
AcDbCircle
10
14.142135623730949
20
1.1102230246251565e-15
30
0
40
1.5000000000000002
210
0
220
0
230
1
0
LINE
5
131
100
AcDbEntity
8
0
100
AcDbLine
10
20.025126265847078
20
24.974873734152911
30
0
11
19.34773500137258
21
24.297482469678414
31
0
0
LINE
5
132
100
AcDbEntity
8
0
100
AcDbLine
10
16.031222920256962
20
11.08147545195113
30
0
11
24.974873734152911
21
20.025126265847078
31
0
0
CIRCLE
5
133
100
AcDbEntity
8
0
100
AcDbCircle
10
22.499999999999996
20
-22.499999999999996
30
0
40
1.4999999999999989
210
0
220
0
230
1
0
CIRCLE
5
134
100
AcDbEntity
8
0
100
AcDbCircle
10
0
20
0
30
0
40
1.4499999999999997
210
0
220
0
230
1
0
CIRCLE
5
135
100
AcDbEntity
8
0
100
AcDbCircle
10
-1.1102230246251565e-15
20
14.142135623730949
30
0
40
1.5000000000000002
210
0
220
0
230
1
0
ARC
5
136
100
AcDbEntity
8
0
100
AcDbCircle
10
-16.09773500137451
20
-28.224873734151039
30
0
40
5.0977350013749509
210
0
220
-0
230
1
100
AcDbArc
50
70.195759184284213
51
140.39151836856848
0
LINE
5
137
100
AcDbEntity
8
0
100
AcDbLine
10
-20.025126265847078
20
-24.974873734152911
30
0
11
-19.347735001372676
21
-24.297482469678506
31
0
0
ARC
5
138
100
AcDbEntity
8
0
100
AcDbCircle
10
-20.571960646232519
20
6.540737725975565
30
0
40
6.4215728752538039
210
0
220
0
230
1
100
AcDbArc
50
-40.774461235611639
51
45.000000000000021
0
ARC
5
139
100
AcDbEntity
8
0
100
AcDbCircle
10
-22.499999999999996
20
-22.499999999999996
30
0
40
3.4999999999999991
210
0
220
0
230
1
100
AcDbArc
50
134.99999999999994
51
315.00000000000006
0
LINE
5
140
100
AcDbEntity
8
0
100
AcDbLine
10
-16.031222920256962
20
-11.081475451951126
30
0
11
-24.974873734152911
21
-20.025126265847078
31
0
0
LWPOLYLINE
5
141
100
AcDbEntity
8
0
100
AcDbPolyline
90
4
70
1
43
0.0
10
-4.1236810824143184
20
13.825644292882311
42
-0.99999999999999989
10
-5.8914480353806837
20
12.057877339915946
10
-11.548302284873051
20
17.71473158940832
42
-0.99999999999999989
10
-9.7805353319066892
20
19.482498542374685
0
LWPOLYLINE
5
142
100
AcDbEntity
8
0
100
AcDbPolyline
90
4
70
1
43
0.0
10
-9.7805353319066857
20
-19.482498542374689
42
-0.99999999999999989
10
-11.548302284873051
20
-17.714731589408316
10
-5.8914480353806837
20
-12.057877339915946
42
-0.99999999999999989
10
-4.1236810824143149
20
-13.825644292882311
0
ARC
5
143
100
AcDbEntity
8
0
100
AcDbCircle
10
22.499999999999996
20
-22.499999999999996
30
0
40
3.4999999999999991
210
0
220
0
230
1
100
AcDbArc
50
-135.00000000000006
51
45.00000000000005
0
LWPOLYLINE
5
144
100
AcDbEntity
8
0
100
AcDbPolyline
90
4
70
1
43
0.0
10
-11.716621586905147
20
13.484388539871512
42
-0.99999999999999989
10
-13.484388539871512
20
11.716621586905143
10
-19.141242789363893
20
17.373475836397525
42
-0.99999999999999989
10
-17.373475836397525
20
19.141242789363893
0
LWPOLYLINE
5
145
100
AcDbEntity
8
0
100
AcDbPolyline
90
8
70
1
43
0.0
10
-8.8051047989297384
20
34.128675613393654
10
-8.8051047989297402
20
35.028675613393652
42
-0.99999999999999989
10
-8.8051047989297366
20
36.628675613393654
10
-7.1051047989297436
20
36.628675613393646
42
-0.99999999999999989
10
-7.1051047989297436
20
35.028675613393652
10
-7.1051047989297453
20
34.128675613393661
42
-0.99999999999999989
10
-7.1051047989297453
20
32.528675613393659
10
-8.805104798929742
20
32.528675613393659
42
-0.99999999999999989
0
ARC
5
146
100
AcDbEntity
8
0
100
AcDbCircle
10
20.571960646232519
20
-6.5407377259755641
30
0
40
6.4215728752538066
210
0
220
0
230
1
100
AcDbArc
50
139.2255387643884
51
225.00000000000003
0
ARC
5
147
100
AcDbEntity
8
0
100
AcDbCircle
10
16.097735001374684
20
-28.224873734150812
30
0
40
5.0977350013746827
210
0
220
-0
230
1
100
AcDbArc
50
39.608481631430806
51
109.80424081571647
0
CIRCLE
5
148
100
AcDbEntity
8
0
100
AcDbCircle
10
1.1102230246251565e-15
20
-14.142135623730949
30
0
40
1.5000000000000002
210
0
220
0
230
1
0
ARC
5
149
100
AcDbEntity
8
0
100
AcDbCircle
10
16.466278145412325
20
2.9999999999999991
30
0
40
0.99999999999999911
210
0
220
0
230
1
100
AcDbArc
50
220.77446123561117
51
270
0
ARC
5
150
100
AcDbEntity
8
0
100
AcDbCircle
10
-16.097735001374513
20
28.224873734151039
30
0
40
5.0977350013749492
210
0
220
0
230
1
100
AcDbArc
50
-140.39151836856848
51
0
0
CIRCLE
5
151
100
AcDbEntity
8
0
100
AcDbCircle
10
-22.499999999999996
20
-22.499999999999996
30
0
40
1.5000000000000011
210
0
220
0
230
1
0
CIRCLE
5
152
100
AcDbEntity
8
0
100
AcDbCircle
10
-22.499999999999996
20
22.499999999999996
30
0
40
1.4999999999999982
210
0
220
0
230
1
0
ARC
5
153
100
AcDbEntity
8
0
100
AcDbCircle
10
22.499999999999996
20
22.499999999999996
30
0
40
3.4999999999999991
210
0
220
0
230
1
100
AcDbArc
50
-45.00000000000005
51
135.00000000000006
0
ARC
5
154
100
AcDbEntity
8
0
100
AcDbCircle
10
-22.499999999999996
20
22.499999999999996
30
0
40
3.4999999999999991
210
0
220
-0
230
1
100
AcDbArc
50
44.999999999999964
51
225.00000000000006
0
LINE
5
155
100
AcDbEntity
8
0
100
AcDbLine
10
-19.347735001372598
20
24.297482469678435
30
0
11
-20.025126265847078
21
24.974873734152911
31
0
0
CIRCLE
5
156
100
AcDbEntity
8
0
100
AcDbCircle
10
22.499999999999996
20
22.499999999999996
30
0
40
1.4999999999999991
210
0
220
0
230
1
0
CIRCLE
5
157
100
AcDbEntity
8
0
100
AcDbCircle
10
-8.4999999999995666
20
40.499999999996696
30
0
40
1.0499999999999998
210
0
220
0
230
1
0
ARC
5
158
100
AcDbEntity
8
0
100
AcDbCircle
10
-8.4999999999995666
20
40.499999999996696
30
0
40
2.5
210
0
220
-0
230
1
100
AcDbArc
50
90
51
180
0
ARC
5
159
100
AcDbEntity
8
0
100
AcDbCircle
10
5.6843418860808015e-13
20
-35.457988410153433
30
0
40
78.917082722103018
210
0
220
-0
230
1
100
AcDbArc
50
83.816792237076285
51
96.183207762923942
0
CIRCLE
5
160
100
AcDbEntity
8
0
100
AcDbCircle
10
-18.031222920256962
20
-1.1102230246251565e-15
30
0
40
1.0500000000000007
210
0
220
0
230
1
0
CIRCLE
5
161
100
AcDbEntity
8
0
100
AcDbCircle
10
8.5000000000004281
20
40.499999999996703
30
0
40
1.0499999999999998
210
0
220
0
230
1
0
ARC
5
162
100
AcDbEntity
8
0
100
AcDbCircle
10
-16.466278145412318
20
2.9999999999999916
30
0
40
0.99999999999999034
210
0
220
0
230
1
100
AcDbArc
50
270
51
319.22553876438843
0
ARC
5
163
100
AcDbEntity
8
0
100
AcDbCircle
10
-18.031222920256962
20
-1.1102230246251565e-15
30
0
40
1.9999999999999998
210
0
220
-0
230
1
100
AcDbArc
50
90
51
270
0
CIRCLE
5
164
100
AcDbEntity
8
0
100
AcDbCircle
10
1.1102230246251565e-15
20
-25.031222920256965
30
0
40
0.99999999999999967
210
0
220
0
230
1
0
LINE
5
165
100
AcDbEntity
8
0
100
AcDbLine
10
-1.3198535476690894
20
-27.154424891974521
30
0
11
-14.370583845388552
21
-23.428640730155127
31
0
0
LINE
5
166
100
AcDbEntity
8
0
100
AcDbLine
10
1.3198535476690609
20
-27.154424891974539
30
0
11
14.370583845388762
21
-23.428640730155177
31
0
0
ARC
5
167
100
AcDbEntity
8
0
100
AcDbCircle
10
1.1102230246251565e-15
20
-25.031222920256965
30
0
40
2.5000000000000027
210
0
220
0
230
1
100
AcDbArc
50
238.13352996020723
51
301.86647003979192
0
ENDSEC
0
SECTION
2
OBJECTS
0
DICTIONARY
5
C
100
AcDbDictionary
3
ACAD_GROUP
350
D
3
ACAD_MLINESTYLE
350
17
0
DICTIONARY
5
D
100
AcDbDictionary
0
DICTIONARY
5
1A
330
C
100
AcDbDictionary
0
DICTIONARY
5
17
100
AcDbDictionary
0
ENDSEC
0
EOF
