0
SECTION
2
HEADER
9
$INSUNITS
70
4
9
$ACADVER
1
AC1014
9
$HANDSEED
5
FFFF
0
ENDSEC
0
SECTION
2
TABLES
0
TABLE
2
VPORT
5
8
100
AcDbSymbolTable
0
ENDTAB
0
TABLE
2
LTYPE
5
5
100
AcDbSymbolTable
0
LTYPE
5
14
100
AcDbSymbolTableRecord
100
AcDbLinetypeTableRecord
2
BYBLOCK
70
0
0
LTYPE
5
15
100
AcDbSymbolTableRecord
100
AcDbLinetypeTableRecord
2
BYLAYER
70
0
0
ENDTAB
0
TABLE
2
LAYER
5
2
100
AcDbSymbolTable
70
2
0
LAYER
5
50
100
AcDbSymbolTableRecord
100
AcDbLayerTableRecord
2
0
70
0
6
CONTINUOUS
0
ENDTAB
0
TABLE
2
STYLE
5
3
100
AcDbSymbolTable
70
1
0
STYLE
5
11
100
AcDbSymbolTableRecord
100
AcDbTextStyleTableRecord
2
STANDARD
70
0
0
ENDTAB
0
TABLE
2
VIEW
5
6
100
AcDbSymbolTable
70
0
0
ENDTAB
0
TABLE
2
UCS
5
7
100
AcDbSymbolTable
70
0
0
ENDTAB
0
TABLE
2
APPID
5
9
100
AcDbSymbolTable
70
2
0
APPID
5
12
100
AcDbSymbolTableRecord
100
AcDbRegAppTableRecord
2
ACAD
70
0
0
ENDTAB
0
TABLE
2
DIMSTYLE
5
A
100
AcDbSymbolTable
70
1
0
ENDTAB
0
TABLE
2
BLOCK_RECORD
5
1
100
AcDbSymbolTable
70
1
0
BLOCK_RECORD
5
1F
100
AcDbSymbolTableRecord
100
AcDbBlockTableRecord
2
*MODEL_SPACE
0
BLOCK_RECORD
5
1B
100
AcDbSymbolTableRecord
100
AcDbBlockTableRecord
2
*PAPER_SPACE
0
ENDTAB
0
ENDSEC
0
SECTION
2
BLOCKS
0
BLOCK
5
20
100
AcDbEntity
100
AcDbBlockBegin
2
*MODEL_SPACE
0
ENDBLK
5
21
100
AcDbEntity
100
AcDbBlockEnd
0
BLOCK
5
1C
100
AcDbEntity
100
AcDbBlockBegin
2
*PAPER_SPACE
0
ENDBLK
5
1D
100
AcDbEntity
100
AcDbBlockEnd
0
ENDSEC
0
SECTION
2
ENTITIES
0
CIRCLE
5
100
100
AcDbEntity
8
0
100
AcDbCircle
10
-22.499999999999996
20
22.499999999999996
30
0
40
1.4999999999999982
210
0
220
0
230
1
0
CIRCLE
5
101
100
AcDbEntity
8
0
100
AcDbCircle
10
22.499999999999996
20
22.499999999999996
30
0
40
1.4999999999999991
210
0
220
0
230
1
0
CIRCLE
5
102
100
AcDbEntity
8
0
100
AcDbCircle
10
22.499999999999996
20
-22.499999999999996
30
0
40
1.4999999999999989
210
0
220
0
230
1
0
CIRCLE
5
103
100
AcDbEntity
8
0
100
AcDbCircle
10
-22.499999999999996
20
-22.499999999999996
30
0
40
1.5000000000000011
210
0
220
0
230
1
0
LWPOLYLINE
5
104
100
AcDbEntity
8
0
100
AcDbPolyline
90
20
70
1
43
0.0
10
24.974873734152911
20
-20.025126265847078
42
-0.99999999999999989
10
20.025126265847078
20
-24.974873734152911
10
11.313708498984756
20
-16.263455967290597
42
0.41421356237309498
10
-11.313708498984766
20
-16.263455967290597
10
-20.025126265847078
20
-24.974873734152911
42
-0.99999999999999989
10
-24.974873734152911
20
-20.025126265847078
10
-19.585786437626901
20
-14.636038969321062
42
0.19891236737966259
10
-19
20
-13.221825406947969
10
-18.999999999999993
20
13.221825406947973
42
0.19891236737965631
10
-19.585786437626901
20
14.636038969321067
10
-24.974873734152911
20
20.025126265847078
42
-0.99999999999999989
10
-20.025126265847078
20
24.974873734152911
10
-11.313708498984766
20
16.263455967290597
42
0.41421356237309515
10
11.313708498984759
20
16.263455967290593
10
20.025126265847078
20
24.974873734152911
42
-0.99999999999999989
10
24.974873734152911
20
20.025126265847078
10
19.585786437626901
20
14.636038969321064
42
0.19891236737965662
10
18.999999999999993
20
13.221825406947971
10
19
20
-13.221825406947971
42
0.19891236737966139
10
19.585786437626901
20
-14.636038969321065
0
CIRCLE
5
105
100
AcDbEntity
8
0
100
AcDbCircle
10
0
20
0
30
0
40
1.45
210
0
220
0
230
1
0
LWPOLYLINE
5
106
100
AcDbEntity
8
0
100
AcDbPolyline
90
4
70
1
43
0.0
10
-6.8942911165688381
20
8.6620580695352078
10
-2.6516504294495529
20
4.4194173824159213
42
-0.99999999999999989
10
-4.4194173824159213
20
2.6516504294495529
10
-8.6620580695352078
20
6.8942911165688381
42
-0.99999999999999989
0
LWPOLYLINE
5
107
100
AcDbEntity
8
0
100
AcDbPolyline
90
4
70
1
43
0.0
10
6.8942911165688381
20
-8.6620580695352078
10
2.6516504294495529
20
-4.4194173824159213
42
-0.99999999999999989
10
4.4194173824159213
20
-2.6516504294495529
10
8.6620580695352078
20
-6.8942911165688381
42
-0.99999999999999989
0
LWPOLYLINE
5
108
100
AcDbEntity
8
0
100
AcDbPolyline
90
4
70
1
43
0.0
10
8.6620580695352078
20
6.8942911165688381
10
4.4194173824159231
20
2.651650429449552
42
-0.99999999999999989
10
2.651650429449552
20
4.4194173824159231
10
6.8942911165688381
20
8.6620580695352078
42
-0.99999999999999989
0
LWPOLYLINE
5
109
100
AcDbEntity
8
0
100
AcDbPolyline
90
4
70
1
43
0.0
10
-8.6620580695352078
20
-6.8942911165688381
10
-4.4194173824159222
20
-2.6516504294495524
42
-0.99999999999999989
10
-2.6516504294495524
20
-4.4194173824159222
10
-6.8942911165688381
20
-8.6620580695352078
42
-0.99999999999999989
0
LWPOLYLINE
5
110
100
AcDbEntity
8
0
100
AcDbPolyline
90
4
70
1
43
0.0
10
-14.014718625761427
20
12.600505063388329
10
-19.671572875253808
20
18.257359312880709
42
-0.99999999999999989
10
-18.257359312880709
20
19.671572875253808
10
-12.600505063388329
20
14.014718625761427
42
-0.99999999999999989
0
LWPOLYLINE
5
111
100
AcDbEntity
8
0
100
AcDbPolyline
90
4
70
1
43
0.0
10
12.600505063388329
20
14.014718625761427
10
18.257359312880709
20
19.671572875253808
42
-0.99999999999999989
10
19.671572875253808
20
18.257359312880709
10
14.014718625761427
20
12.600505063388329
42
-0.99999999999999989
0
LWPOLYLINE
5
112
100
AcDbEntity
8
0
100
AcDbPolyline
90
4
70
1
43
0.0
10
14.014718625761422
20
-12.600505063388326
10
19.671572875253805
20
-18.257359312880709
42
-0.99999999999999989
10
18.257359312880709
20
-19.671572875253805
10
12.600505063388326
20
-14.01471862576143
42
-0.99999999999999989
0
LWPOLYLINE
5
113
100
AcDbEntity
8
0
100
AcDbPolyline
90
4
70
1
43
0.0
10
-12.600505063388329
20
-14.014718625761427
10
-18.257359312880709
20
-19.671572875253808
42
-0.99999999999999989
10
-19.671572875253808
20
-18.257359312880709
10
-14.014718625761427
20
-12.600505063388329
42
-0.99999999999999989
0
LWPOLYLINE
5
114
100
AcDbEntity
8
0
100
AcDbPolyline
90
6
70
1
43
0.0
10
-15.999999999999998
20
8.3981132218487637
10
-16
20
-8.3981132218487602
42
0.69109019053219356
10
-14.249982639039853
20
-9.0595313636156565
10
-9.1770752550841266
20
-3.3070907088344925
42
0.37794947440064869
10
-9.1770752550841266
20
3.3070907088344894
10
-14.249982639039853
20
9.0595313636156583
42
0.69109019053219523
0
LWPOLYLINE
5
115
100
AcDbEntity
8
0
100
AcDbPolyline
90
6
70
1
43
0.0
10
14.249982639039853
20
9.0595313636156583
42
-0.69109019053219523
10
15.999999999999998
20
8.3981132218487637
10
16
20
-8.3981132218487602
42
-0.69109019053219356
10
14.249982639039853
20
-9.0595313636156565
10
9.1770752550841284
20
-3.3070907088344939
42
-0.37794947440064869
10
9.1770752550841266
20
3.3070907088344894
0
ENDSEC
0
SECTION
2
OBJECTS
0
DICTIONARY
5
C
100
AcDbDictionary
3
ACAD_GROUP
350
D
3
ACAD_MLINESTYLE
350
17
0
DICTIONARY
5
D
100
AcDbDictionary
0
DICTIONARY
5
1A
330
C
100
AcDbDictionary
0
DICTIONARY
5
17
100
AcDbDictionary
0
ENDSEC
0
EOF
