0
SECTION
2
HEADER
9
$INSUNITS
70
4
9
$ACADVER
1
AC1014
9
$HANDSEED
5
FFFF
0
ENDSEC
0
SECTION
2
TABLES
0
TABLE
2
VPORT
5
8
100
AcDbSymbolTable
0
ENDTAB
0
TABLE
2
LTYPE
5
5
100
AcDbSymbolTable
0
LTYPE
5
14
100
AcDbSymbolTableRecord
100
AcDbLinetypeTableRecord
2
BYBLOCK
70
0
0
LTYPE
5
15
100
AcDbSymbolTableRecord
100
AcDbLinetypeTableRecord
2
BYLAYER
70
0
0
ENDTAB
0
TABLE
2
LAYER
5
2
100
AcDbSymbolTable
70
2
0
LAYER
5
50
100
AcDbSymbolTableRecord
100
AcDbLayerTableRecord
2
0
70
0
6
CONTINUOUS
0
ENDTAB
0
TABLE
2
STYLE
5
3
100
AcDbSymbolTable
70
1
0
STYLE
5
11
100
AcDbSymbolTableRecord
100
AcDbTextStyleTableRecord
2
STANDARD
70
0
0
ENDTAB
0
TABLE
2
VIEW
5
6
100
AcDbSymbolTable
70
0
0
ENDTAB
0
TABLE
2
UCS
5
7
100
AcDbSymbolTable
70
0
0
ENDTAB
0
TABLE
2
APPID
5
9
100
AcDbSymbolTable
70
2
0
APPID
5
12
100
AcDbSymbolTableRecord
100
AcDbRegAppTableRecord
2
ACAD
70
0
0
ENDTAB
0
TABLE
2
DIMSTYLE
5
A
100
AcDbSymbolTable
70
1
0
ENDTAB
0
TABLE
2
BLOCK_RECORD
5
1
100
AcDbSymbolTable
70
1
0
BLOCK_RECORD
5
1F
100
AcDbSymbolTableRecord
100
AcDbBlockTableRecord
2
*MODEL_SPACE
0
BLOCK_RECORD
5
1B
100
AcDbSymbolTableRecord
100
AcDbBlockTableRecord
2
*PAPER_SPACE
0
ENDTAB
0
ENDSEC
0
SECTION
2
BLOCKS
0
BLOCK
5
20
100
AcDbEntity
100
AcDbBlockBegin
2
*MODEL_SPACE
0
ENDBLK
5
21
100
AcDbEntity
100
AcDbBlockEnd
0
BLOCK
5
1C
100
AcDbEntity
100
AcDbBlockBegin
2
*PAPER_SPACE
0
ENDBLK
5
1D
100
AcDbEntity
100
AcDbBlockEnd
0
ENDSEC
0
SECTION
2
ENTITIES
0
LWPOLYLINE
5
100
100
AcDbEntity
8
0
100
AcDbPolyline
90
32
70
1
43
0.0
10
0.83334499567825815
20
-1.3480689007704894
42
-0.14490118847768615
10
0.51107824888658671
20
-2.4367429250215533
10
-0.86505631130629812
20
-4.5574757257450038
10
-2.4499999999999971
20
-7.0000000000000018
10
-2.4499999999999975
20
-10.000000000000002
10
0.4500000000000029
20
-10.000000000000002
42
-0.99999999999999989
10
2.0500000000000034
20
-10.000000000000002
10
2.0500000000000043
20
-11.500000000000004
10
5.950000000000002
20
-11.500000000000002
10
5.950000000000002
20
-10.000000000000002
10
5.9500000000000011
20
-9.3239686561963069
42
-0.11788211509619979
10
6.0581431066151676
20
-8.8716509783172022
10
6.841856893384838
20
-7.3263641647470434
42
0.11788211509620111
10
6.9500000000000028
20
-6.8740464868679441
10
6.9500000000000028
20
6.9050099368924744
10
6.9500000000000028
20
8.2828000449022632
42
0.16822163205239965
10
6.7359006977985967
20
8.901152770455953
10
6.1640993022014108
20
9.6278886563528729
42
-0.16822163205240101
10
5.9500000000000028
20
10.246241381906566
10
5.9500000000000028
20
11.499999999999995
10
4.0000000000000027
20
11.499999999999995
10
2.0500000000000025
20
11.499999999999995
10
2.0500000000000025
20
9.9999999999999964
42
-0.99999999999999989
10
0.45000000000000234
20
9.9999999999999964
10
-0.44999999999999762
20
9.9999999999999964
42
-0.99999999999999989
10
-2.0499999999999963
20
9.9999999999999964
10
-2.0499999999999967
20
11.499999999999995
10
-5.9499999999999975
20
11.499999999999993
10
-5.9499999999999984
20
10.427428982500784
42
0.20475462717682147
10
-5.641052295941841
20
9.7046242202907447
10
0.62235842978721412
20
1.6608274982650095
42
-0.1669236427035693
10
0.83334499567825771
20
1.0464515540780714
0
CIRCLE
5
101
100
AcDbEntity
8
0
100
AcDbCircle
10
4.5788487513103515
20
2.797963240095525
30
0
40
1.0499999999999998
210
0
220
0
230
1
0
LINE
5
102
100
AcDbEntity
8
0
100
AcDbLine
10
-5.9499999999999984
20
10.427428982500784
30
0
11
-5.9499999999999975
21
11.499999999999993
31
0
0
CIRCLE
5
103
100
AcDbEntity
8
0
100
AcDbCircle
10
4.6000000000000014
20
-0.20000000000000018
30
0
40
1.05
210
0
220
0
230
1
0
CIRCLE
5
104
100
AcDbEntity
8
0
100
AcDbCircle
10
4.5757569520727648
20
-3.1999020441719761
30
0
40
1.05
210
0
220
0
230
1
0
ENDSEC
0
SECTION
2
OBJECTS
0
DICTIONARY
5
C
100
AcDbDictionary
3
ACAD_GROUP
350
D
3
ACAD_MLINESTYLE
350
17
0
DICTIONARY
5
D
100
AcDbDictionary
0
DICTIONARY
5
1A
330
C
100
AcDbDictionary
0
DICTIONARY
5
17
100
AcDbDictionary
0
ENDSEC
0
EOF
