0
SECTION
2
HEADER
9
$INSUNITS
70
4
9
$ACADVER
1
AC1014
9
$HANDSEED
5
FFFF
0
ENDSEC
0
SECTION
2
TABLES
0
TABLE
2
VPORT
5
8
100
AcDbSymbolTable
0
ENDTAB
0
TABLE
2
LTYPE
5
5
100
AcDbSymbolTable
0
LTYPE
5
14
100
AcDbSymbolTableRecord
100
AcDbLinetypeTableRecord
2
BYBLOCK
70
0
0
LTYPE
5
15
100
AcDbSymbolTableRecord
100
AcDbLinetypeTableRecord
2
BYLAYER
70
0
0
ENDTAB
0
TABLE
2
LAYER
5
2
100
AcDbSymbolTable
70
2
0
LAYER
5
50
100
AcDbSymbolTableRecord
100
AcDbLayerTableRecord
2
0
70
0
6
CONTINUOUS
0
ENDTAB
0
TABLE
2
STYLE
5
3
100
AcDbSymbolTable
70
1
0
STYLE
5
11
100
AcDbSymbolTableRecord
100
AcDbTextStyleTableRecord
2
STANDARD
70
0
0
ENDTAB
0
TABLE
2
VIEW
5
6
100
AcDbSymbolTable
70
0
0
ENDTAB
0
TABLE
2
UCS
5
7
100
AcDbSymbolTable
70
0
0
ENDTAB
0
TABLE
2
APPID
5
9
100
AcDbSymbolTable
70
2
0
APPID
5
12
100
AcDbSymbolTableRecord
100
AcDbRegAppTableRecord
2
ACAD
70
0
0
ENDTAB
0
TABLE
2
DIMSTYLE
5
A
100
AcDbSymbolTable
70
1
0
ENDTAB
0
TABLE
2
BLOCK_RECORD
5
1
100
AcDbSymbolTable
70
1
0
BLOCK_RECORD
5
1F
100
AcDbSymbolTableRecord
100
AcDbBlockTableRecord
2
*MODEL_SPACE
0
BLOCK_RECORD
5
1B
100
AcDbSymbolTableRecord
100
AcDbBlockTableRecord
2
*PAPER_SPACE
0
ENDTAB
0
ENDSEC
0
SECTION
2
BLOCKS
0
BLOCK
5
20
100
AcDbEntity
100
AcDbBlockBegin
2
*MODEL_SPACE
0
ENDBLK
5
21
100
AcDbEntity
100
AcDbBlockEnd
0
BLOCK
5
1C
100
AcDbEntity
100
AcDbBlockBegin
2
*PAPER_SPACE
0
ENDBLK
5
1D
100
AcDbEntity
100
AcDbBlockEnd
0
ENDSEC
0
SECTION
2
ENTITIES
0
LWPOLYLINE
5
100
100
AcDbEntity
8
0
100
AcDbPolyline
90
4
70
1
43
0.0
10
-0.38139323496086841
20
1.2309541027604749
42
-0.38915751819482863
10
4.6000000000000023
20
5.8000000000000016
42
0.99999999999999989
10
4.6000000000000014
20
7.8000000000000016
42
0.38915751819482869
10
-2.3739505289452167
20
1.4033357438646641
42
0.99999999999999989
0
LWPOLYLINE
5
101
100
AcDbEntity
8
0
100
AcDbPolyline
90
9
70
1
43
0.0
10
10.479747511038012
20
-2.9343891893626468
10
16.783199425181099
20
-0.86522265824596722
42
0.23971719312492426
10
17.422878979789097
20
-0.22255018699672169
42
0.097950978728645138
10
17.867315788494178
20
3.5512159539153942
42
0.50533155301944743
10
16.500491460505838
20
4.4023303293539584
10
8.0439316366095746
20
1.0357717850291284
42
0.3071267284818639
10
7.4138002354641088
20
0.10668770940336247
10
7.4138002354641097
20
-2.5600565343457165
42
0.51047610196464832
10
8.725685824477095
20
-3.5101762001594619
0
LWPOLYLINE
5
102
100
AcDbEntity
8
0
100
AcDbPolyline
90
8
70
1
43
0.0
10
8.3753976422215928
20
11.314585927528851
10
12.34567857574226
20
11.467167563372616
42
-0.13752355057142668
10
12.870733044146602
20
11.341501204253035
42
-0.12862360794842165
10
16.448738350487957
20
7.9127799722402736
42
-0.465534127529172
10
15.966531345448518
20
6.4602771682060496
10
8.7836688343186413
20
3.6007778371396002
42
-0.5300735241814355
10
7.4138002354641088
20
4.5298619127653659
10
7.4138002354641097
20
10.315323579177702
42
-0.40300716790531937
0
LWPOLYLINE
5
103
100
AcDbEntity
8
0
100
AcDbPolyline
90
8
70
1
43
0.0
10
5.237514218292544
20
-6.1280276249127406
10
5.2375142182925449
20
-6.5251080438524811
42
-0.41421356237309459
10
4.237514218292544
20
-7.5251080438524811
10
1.5923941071615793
20
-7.5251080438524802
42
-0.59630719092290274
10
0.75593297758182576
20
-5.977081786541607
10
1.7323719717199886
20
-4.4867275323307245
42
-0.41421356237309631
10
3.116859358610613
20
-4.198292660061842
10
4.7855404756034172
20
-5.2915664953329875
42
-0.25289168110788413
0
LWPOLYLINE
5
104
100
AcDbEntity
8
0
100
AcDbPolyline
90
8
70
1
43
0.0
10
3.1744764651959367
20
9.0573553908085973
42
0.41421356237309537
10
4.1744764651959363
20
10.057355390808596
10
4.1744764651959372
20
11.405410481326035
42
0.41421356237309825
10
3.1744764651959345
20
12.405410481326037
10
1.0914691110122987
20
12.405410481326037
42
0.62426526469999444
10
0.30238935951191914
20
10.791119714854574
10
1.3518368877562397
20
9.4430646243371346
42
0.23132596840294911
10
2.1409166392566203
20
9.0573553908085955
0
CIRCLE
5
105
100
AcDbEntity
8
0
100
AcDbCircle
10
4.5889802357007969
20
-2.1999797607308618
30
0
40
1.05
210
0
220
0
230
1
0
LWPOLYLINE
5
106
100
AcDbEntity
8
0
100
AcDbPolyline
90
42
70
1
43
0.0
10
5.9500000000000028
20
15.246241381906565
10
5.9500000000000028
20
16.499999999999993
10
4.0000000000000027
20
16.499999999999993
10
2.0500000000000025
20
16.499999999999993
10
2.050000000000002
20
14.999999999999996
42
-0.99999999999999989
10
0.45000000000000234
20
14.999999999999996
10
-0.44999999999999762
20
14.999999999999996
42
-0.99999999999999989
10
-2.0499999999999963
20
14.999999999999996
10
-2.0499999999999967
20
16.499999999999993
10
-5.9499999999999975
20
16.499999999999993
10
-5.9499999999999984
20
15.427428982500786
42
0.20475462717682136
10
-5.6410522959418419
20
14.704624220290745
10
-0.74330080132183984
20
8.4132769573575708
42
-0.47662926518331145
10
-1.0945575377301573
20
6.8999250097334031
42
0.10550319297039072
10
-1.916666666666669
20
6.2573854138731644
42
0.15391472105982909
10
-3.8683684994334766
20
1.532621974692804
42
0.54968448721291474
10
-0.51265982650211406
20
-1.0284369115259766
42
-0.44227216166073663
10
0.80012710562601486
20
-1.7110677051617058
42
-0.098589478755819165
10
0.51107824888658671
20
-2.4367429250215533
10
-0.86505631130629812
20
-4.5574757257450038
10
-1.96659987981249
20
-6.2550419701605264
42
0.1449011884776866
10
-2.4499999999999966
20
-7.8880530065371168
10
-2.4499999999999971
20
-10.000000000000002
10
0.45000000000000262
20
-10.000000000000002
42
-0.99999999999999989
10
2.0500000000000043
20
-10.000000000000002
10
2.0500000000000043
20
-11.500000000000005
10
5.950000000000002
20
-11.500000000000002
10
5.950000000000002
20
-10.000000000000002
10
5.9500000000000011
20
-9.3239686561963069
42
-0.11788211509619653
10
6.0581431066151676
20
-8.8716509783172022
10
6.2259769241361118
20
-8.5407248296842226
10
15.204953116129472
20
-5.5932926491546411
42
-0.20787380051931448
10
16.792210492579088
20
-5.7409069936707446
42
0.38247953619689362
10
19.392477901930246
20
-5.1376067072225791
42
0.348468873076546
10
18.391466330955993
20
11.975064679083401
10
13.879556117024034
20
17.812457146475523
42
-0.11576577727018826
10
13.500655039948374
20
18.644086997439594
42
0.90604823636647713
10
9.5393410804845207
20
18.252618540968037
10
9.5393410804845207
20
16.927441947924219
42
-0.41261946857405046
10
7.5502323115645886
20
14.927471602872684
10
7.4984797064285402
20
14.927189773903107
42
-0.65689064448860579
10
6.0050394987624554
20
14.919056952110703
42
-0.083524036708841995
0
CIRCLE
5
107
100
AcDbEntity
8
0
100
AcDbCircle
10
4.6000000000000014
20
0.7999999999999996
30
0
40
1.05
210
0
220
0
230
1
0
CIRCLE
5
108
100
AcDbEntity
8
0
100
AcDbCircle
10
4.6000000000000014
20
3.7548747631837331
30
0
40
0.99999999999999967
210
0
220
0
230
1
0
CIRCLE
5
109
100
AcDbEntity
8
0
100
AcDbCircle
10
17.755696691002715
20
-3.9882820065593618
30
0
40
0.99999999999999967
210
0
220
0
230
1
0
CIRCLE
5
110
100
AcDbEntity
8
0
100
AcDbCircle
10
11.539341080484519
20
18.252618540968037
30
0
40
1.0000000000000009
210
0
220
0
230
1
0
ENDSEC
0
SECTION
2
OBJECTS
0
DICTIONARY
5
C
100
AcDbDictionary
3
ACAD_GROUP
350
D
3
ACAD_MLINESTYLE
350
17
0
DICTIONARY
5
D
100
AcDbDictionary
0
DICTIONARY
5
1A
330
C
100
AcDbDictionary
0
DICTIONARY
5
17
100
AcDbDictionary
0
ENDSEC
0
EOF
