0
SECTION
2
HEADER
9
$INSUNITS
70
4
9
$ACADVER
1
AC1014
9
$HANDSEED
5
FFFF
0
ENDSEC
0
SECTION
2
TABLES
0
TABLE
2
VPORT
5
8
100
AcDbSymbolTable
0
ENDTAB
0
TABLE
2
LTYPE
5
5
100
AcDbSymbolTable
0
LTYPE
5
14
100
AcDbSymbolTableRecord
100
AcDbLinetypeTableRecord
2
BYBLOCK
70
0
0
LTYPE
5
15
100
AcDbSymbolTableRecord
100
AcDbLinetypeTableRecord
2
BYLAYER
70
0
0
ENDTAB
0
TABLE
2
LAYER
5
2
100
AcDbSymbolTable
70
2
0
LAYER
5
50
100
AcDbSymbolTableRecord
100
AcDbLayerTableRecord
2
0
70
0
6
CONTINUOUS
0
ENDTAB
0
TABLE
2
STYLE
5
3
100
AcDbSymbolTable
70
1
0
STYLE
5
11
100
AcDbSymbolTableRecord
100
AcDbTextStyleTableRecord
2
STANDARD
70
0
0
ENDTAB
0
TABLE
2
VIEW
5
6
100
AcDbSymbolTable
70
0
0
ENDTAB
0
TABLE
2
UCS
5
7
100
AcDbSymbolTable
70
0
0
ENDTAB
0
TABLE
2
APPID
5
9
100
AcDbSymbolTable
70
2
0
APPID
5
12
100
AcDbSymbolTableRecord
100
AcDbRegAppTableRecord
2
ACAD
70
0
0
ENDTAB
0
TABLE
2
DIMSTYLE
5
A
100
AcDbSymbolTable
70
1
0
ENDTAB
0
TABLE
2
BLOCK_RECORD
5
1
100
AcDbSymbolTable
70
1
0
BLOCK_RECORD
5
1F
100
AcDbSymbolTableRecord
100
AcDbBlockTableRecord
2
*MODEL_SPACE
0
BLOCK_RECORD
5
1B
100
AcDbSymbolTableRecord
100
AcDbBlockTableRecord
2
*PAPER_SPACE
0
ENDTAB
0
ENDSEC
0
SECTION
2
BLOCKS
0
BLOCK
5
20
100
AcDbEntity
100
AcDbBlockBegin
2
*MODEL_SPACE
0
ENDBLK
5
21
100
AcDbEntity
100
AcDbBlockEnd
0
BLOCK
5
1C
100
AcDbEntity
100
AcDbBlockBegin
2
*PAPER_SPACE
0
ENDBLK
5
1D
100
AcDbEntity
100
AcDbBlockEnd
0
ENDSEC
0
SECTION
2
ENTITIES
0
CIRCLE
5
100
100
AcDbEntity
8
0
100
AcDbCircle
10
-26.501232966332893
20
-10.001059609819263
30
0
40
1.5000000000000002
210
0
220
0
230
1
0
LWPOLYLINE
5
101
100
AcDbEntity
8
0
100
AcDbPolyline
90
4
70
1
43
0.0
10
17.438310371306422
20
2.7499999999999947
42
0.99999999999999989
10
17.438310371306422
20
5.2499999999999938
10
12.438310371306422
20
5.2499999999999964
42
0.99999999999999989
10
12.438310371306422
20
2.7499999999999902
0
CIRCLE
5
102
100
AcDbEntity
8
0
100
AcDbCircle
10
26.49876703366705
20
9.9996816704560647
30
0
40
1.5000000000000016
210
0
220
0
230
1
0
CIRCLE
5
103
100
AcDbEntity
8
0
100
AcDbCircle
10
9.9987670336670487
20
9.9987445226134106
30
0
40
1.5000000000000013
210
0
220
0
230
1
0
LWPOLYLINE
5
104
100
AcDbEntity
8
0
100
AcDbPolyline
90
6
70
1
43
0.0
10
-12.701909930460021
20
-0.76337414943887127
10
-15.439234024959688
20
-3.5594827646236862
42
-0.47152701455803159
10
-16.887495999244244
20
-3.4357907066795281
42
-0.30591604687870527
10
-16.957477571488482
20
3.1516291858019874
42
-0.4715270145580312
10
-15.512170252465598
20
3.3060611285338681
10
-12.71606163728077
20
0.56873703403420839
42
-0.41421356237310197
0
SPLINE
5
105
100
AcDbEntity
8
0
100
AcDbSpline
70
4
71
5
72
20
73
14
74
0
42
0.000000001
43
0.0000000001
44
0.0000000001
40
0.1119937343189276
40
0.1119937343189276
40
0.1119937343189276
40
0.1119937343189276
40
0.1119937343189276
40
0.1119937343189276
40
0.20000000000000001
40
0.30000000000000004
40
0.40000000000000002
40
0.5
40
0.59999999999999998
40
0.69999999999999996
40
0.79999999999999982
40
0.8999999999999998
40
1
40
1
40
1
40
1
40
1
40
1
41
1
41
1
41
1
41
1
41
1
41
1
41
1
41
1
41
1
41
1
41
1
41
1
41
1
41
1
10
26.718888602618378
20
5.4443387335741509
30
0
10
26.668022785096053
20
5.3172536102856052
30
0
10
26.561611020678324
20
5.0474599480003937
30
0
10
26.406082623375529
20
4.6397999727908861
30
0
10
26.212684045686562
20
4.1027439297608383
30
0
10
25.999375170984962
20
3.4498182721851602
30
0
10
25.815520463358705
20
2.8069773817663259
30
0
10
25.668829532418641
20
2.1921263217082121
30
0
10
25.559143462561682
20
1.60514540501728
30
0
10
25.48421200237577
20
1.0443398589645072
30
0
10
25.450062353704471
20
0.6151232703863434
30
0
10
25.438078462962181
20
0.30347499261043648
30
0
10
25.436048938786456
20
0.10019803859023305
30
0
10
25.436524067960331
20
-0.0003183295439384293
30
0
0
LWPOLYLINE
5
106
100
AcDbEntity
8
0
100
AcDbPolyline
90
4
70
1
43
0.0
10
17.438310371306418
20
-2.7500000000000084
10
12.438310371306418
20
-2.7500000000000044
42
0.99999999999999989
10
12.438310371306418
20
-5.2500000000000089
10
17.438310371306418
20
-5.2500000000000036
42
0.99999999999999989
0
CIRCLE
5
107
100
AcDbEntity
8
0
100
AcDbCircle
10
26.498767033659121
20
-10.000318329543935
30
0
40
1.5000000000000002
210
0
220
0
230
1
0
SPLINE
5
108
100
AcDbEntity
8
0
100
AcDbSpline
70
4
71
5
72
31
73
25
74
0
42
0.000000001
43
0.0000000001
44
0.0000000001
40
0.02039040054167433
40
0.02039040054167433
40
0.02039040054167433
40
0.02039040054167433
40
0.02039040054167433
40
0.02039040054167433
40
0.050000000000000003
40
0.10000000000000001
40
0.15000000000000002
40
0.20000000000000001
40
0.25
40
0.29999999999999999
40
0.34999999999999998
40
0.40000000000000002
40
0.45000000000000001
40
0.5
40
0.54999999999999993
40
0.59999999999999998
40
0.65000000000000002
40
0.70000000000000007
40
0.75000000000000022
40
0.80000000000000016
40
0.8500000000000002
40
0.90000000000000024
40
0.9500000000000004
40
1
40
1
40
1
40
1
40
1
40
1
41
1
41
1
41
1
41
1
41
1
41
1
41
1
41
1
41
1
41
1
41
1
41
1
41
1
41
1
41
1
41
1
41
1
41
1
41
1
41
1
41
1
41
1
41
1
41
1
41
1
10
-26.600264317278114
20
14.884234575895903
30
0
10
-26.744152196415651
20
14.848963248141649
30
0
10
-27.128275683543144
20
14.750908994956955
30
0
10
-27.741644749345244
20
14.577154125379973
30
0
10
-28.564331395725841
20
14.304414947749748
30
0
10
-29.565644412959088
20
13.89881598401054
30
0
10
-30.587795619635173
20
13.388493400162613
30
0
10
-31.528806146231254
20
12.81154255669291
30
0
10
-32.368214579788471
20
12.172630819985315
30
0
10
-33.075326120904322
20
11.480436825134602
30
0
10
-33.610953966012403
20
10.747603028018609
30
0
10
-33.938828212595297
20
9.9874711539441403
30
0
10
-34.035455525326427
20
9.2114793328584632
30
0
10
-33.900386862634441
20
8.426441004072764
30
0
10
-33.568484191571706
20
7.631481370423181
30
0
10
-33.099088033237393
20
6.820097572213335
30
0
10
-32.562822670808714
20
5.9827803646421183
30
0
10
-32.030207958557575
20
5.1092778315215091
30
0
10
-31.558379890112658
20
4.1912682469454339
30
0
10
-31.182459149567308
20
3.2241176829635654
30
0
10
-30.922287102481132
20
2.2055811935199361
30
0
10
-30.813527990886371
20
1.3491831050646452
30
0
10
-30.788672831210992
20
0.68360670571872018
30
0
10
-30.797203540153355
20
0.22958609528801432
30
0
10
-30.807744272585715
20
0
30
0
0
CIRCLE
5
109
100
AcDbEntity
8
0
100
AcDbCircle
10
-26.501232965205954
20
9.9989375569960792
30
0
40
1.5000000000000013
210
0
220
0
230
1
0
LINE
5
110
100
AcDbEntity
8
0
100
AcDbLine
10
20.830030519408172
20
0.0016543329472648582
30
0
11
20.830030519408172
21
-0.0016543329472914104
31
0
0
ARC
5
111
100
AcDbEntity
8
0
100
AcDbCircle
10
28.575681888381972
20
4.7011572658670611
30
0
40
2.0000000000000009
210
0
220
0
230
1
100
AcDbArc
50
115.75240955402164
51
158.18624454462054
0
CIRCLE
5
112
100
AcDbEntity
8
0
100
AcDbCircle
10
-21.86554026560669
20
-3.5089243160729264
30
0
40
1.5000000000000013
210
0
220
0
230
1
0
CIRCLE
5
113
100
AcDbEntity
8
0
100
AcDbCircle
10
-21.869263311962538
20
3.4856452996317455
30
0
40
1.5000000000000013
210
0
220
0
230
1
0
CIRCLE
5
114
100
AcDbEntity
8
0
100
AcDbCircle
10
-10.001232966332887
20
-10.001255477386584
30
0
40
1.5000000000000004
210
0
220
0
230
1
0
CIRCLE
5
115
100
AcDbEntity
8
0
100
AcDbCircle
10
21.86554026560669
20
-3.5089243160729264
30
0
40
1.5000000000000013
210
0
220
0
230
1
0
CIRCLE
5
116
100
AcDbEntity
8
0
100
AcDbCircle
10
21.869263311962538
20
3.4856452996317455
30
0
40
1.5000000000000013
210
0
220
0
230
1
0
SPLINE
5
117
100
AcDbEntity
8
0
100
AcDbSpline
70
4
71
5
72
35
73
29
74
0
42
0.000000001
43
0.0000000001
44
0.0000000001
40
0.044791471343502136
40
0.044791471343502136
40
0.044791471343502136
40
0.044791471343502136
40
0.044791471343502136
40
0.044791471343502136
40
0.080000000000000002
40
0.12
40
0.16
40
0.20000000000000001
40
0.23999999999999999
40
0.28000000000000003
40
0.32000000000000001
40
0.35999999999999999
40
0.40000000000000002
40
0.44
40
0.47999999999999993
40
0.51999999999999991
40
0.56000000000000005
40
0.59999999999999998
40
0.64000000000000001
40
0.68000000000000005
40
0.72000000000000008
40
0.76000000000000023
40
0.80000000000000016
40
0.8400000000000003
40
0.88000000000000023
40
0.92000000000000004
40
0.96000000000000041
40
1
40
1
40
1
40
1
40
1
40
1
41
1
41
1
41
1
41
1
41
1
41
1
41
1
41
1
41
1
41
1
41
1
41
1
41
1
41
1
41
1
41
1
41
1
41
1
41
1
41
1
41
1
41
1
41
1
41
1
41
1
41
1
41
1
41
1
41
1
10
24.066478599698371
20
14.865101899049236
30
0
10
24.182175437703989
20
14.843467624453652
30
0
10
24.42883340061357
20
14.796883023859667
30
0
10
24.805000321560563
20
14.724251980262029
30
0
10
25.307675655517695
20
14.623395024168772
30
0
10
25.930392521736824
20
14.489100580987396
30
0
10
26.554511291438203
20
14.338743639804807
30
0
10
27.159932319078521
20
14.167802746671081
30
0
10
27.740937180825988
20
13.964522446722755
30
0
10
28.290887543292257
20
13.713409133491805
30
0
10
28.801949465198561
20
13.399062846679058
30
0
10
29.264879356160396
20
13.009338355575855
30
0
10
29.668756969525923
20
12.538895191440568
30
0
10
30.00081439692249
20
11.992510713730447
30
0
10
30.246043464920835
20
11.389081658758688
30
0
10
30.390303906070514
20
10.756522338204828
30
0
10
30.423511907561842
20
10.126312588239932
30
0
10
30.343222155405932
20
9.5279470415328902
30
0
10
30.157380431667285
20
8.9840922501030853
30
0
10
29.889538600643061
20
8.5037142687724163
30
0
10
29.574893221099234
20
8.083019873463499
30
0
10
29.249426842093982
20
7.7123508665751386
30
0
10
28.940738080921435
20
7.3814224456514177
30
0
10
28.658915572894834
20
7.0848350380033596
30
0
10
28.385136792365021
20
6.8284360053345692
30
0
10
28.145051377116239
20
6.6652397829925967
30
0
10
27.93821721334519
20
6.5718740083677618
30
0
10
27.786231858244065
20
6.5233496804082556
30
0
10
27.706715617240967
20
6.502517202031763
30
0
0
CIRCLE
5
118
100
AcDbEntity
8
0
100
AcDbCircle
10
9.9987670336670487
20
-10.001255477386588
30
0
40
1.4999999999999991
210
0
220
0
230
1
0
CIRCLE
5
119
100
AcDbEntity
8
0
100
AcDbCircle
10
-10.001232966335108
20
9.9987445226156808
30
0
40
1.5000000000000002
210
0
220
0
230
1
0
LINE
5
120
100
AcDbEntity
8
0
100
AcDbLine
10
24.066478599681936
20
14.865101899052306
30
0
11
17.282891658368207
21
16.914533829586436
31
0
0
LINE
5
121
100
AcDbEntity
8
0
100
AcDbLine
10
-16.673340198331765
20
17
30
0
11
16.704479854054792
21
17
31
0
0
LINE
5
122
100
AcDbEntity
8
0
100
AcDbLine
10
-17.319004615940678
20
16.929695796466547
30
0
11
-26.600264317278114
21
14.884234575895903
31
0
0
SPLINE
5
123
100
AcDbEntity
8
0
100
AcDbSpline
70
4
71
5
72
12
73
6
74
0
42
0.000000001
43
0.0000000001
44
0.0000000001
40
0.99758749193169749
40
0.99758749193169749
40
0.99758749193169749
40
0.99758749193169749
40
0.99758749193169749
40
0.99758749193169749
40
1
40
1
40
1
40
1
40
1
40
1
41
1
41
1
41
1
41
1
41
1
41
1
10
25.436478169858198
20
-5.8703750871859708e-10
30
0
10
25.43648503638536
20
0.0024275807269998804
30
0
10
25.436492770375633
20
0.0048545093439372302
30
0
10
25.436501371820221
20
0.0072807852703962199
30
0
10
25.436510840714416
20
0.0097064085099197207
30
0
10
25.436521177057614
20
0.012131379062960258
30
0
0
ARC
5
124
100
AcDbEntity
8
0
100
AcDbCircle
10
-16.673340198331765
20
14.000000000000012
30
0
40
2.9999999999999893
210
0
220
-0
230
1
100
AcDbArc
50
90
51
102.42852093172212
0
ARC
5
125
100
AcDbEntity
8
0
100
AcDbCircle
10
16.704479854054757
20
14.999999999999773
30
0
40
2.0000000000002287
210
0
220
-0
230
1
100
AcDbArc
50
73.189579479139979
51
89.999999999998991
0
SPLINE
5
126
100
AcDbEntity
8
0
100
AcDbSpline
70
4
71
5
72
20
73
14
74
0
42
0.000000001
43
0.0000000001
44
0.0000000001
40
0.1119937343189276
40
0.1119937343189276
40
0.1119937343189276
40
0.1119937343189276
40
0.1119937343189276
40
0.1119937343189276
40
0.20000000000000001
40
0.30000000000000004
40
0.40000000000000002
40
0.5
40
0.59999999999999998
40
0.69999999999999996
40
0.79999999999999982
40
0.8999999999999998
40
1
40
1
40
1
40
1
40
1
40
1
41
1
41
1
41
1
41
1
41
1
41
1
41
1
41
1
41
1
41
1
41
1
41
1
41
1
41
1
10
26.718888628926454
20
-5.4443383983669911
30
0
10
26.668022810790028
20
-5.317253275324239
30
0
10
26.561611045068606
20
-5.0474596135532295
30
0
10
26.406082645795919
20
-4.6397996390952638
30
0
10
26.212684065511795
20
-4.1027435969997548
30
0
10
25.99937518765514
20
-3.449817940454825
30
0
10
25.815520476922554
20
-2.8069770509244121
30
0
10
25.668829543011412
20
-2.1921259915751365
30
0
10
25.559143470318048
20
-1.6051450754142282
30
0
10
25.484212007422219
20
-1.0443395297235387
30
0
10
25.45006235667686
20
-0.61512294131039236
30
0
10
25.438078464428632
20
-0.30347466359239383
30
0
10
25.436048939270634
20
-0.10019770958199746
30
0
10
25.436524067958793
20
0.00031865855446994173
30
0
0
ARC
5
127
100
AcDbEntity
8
0
100
AcDbCircle
10
28.575681911098847
20
-4.7011569216875255
30
0
40
2.0000000000000022
210
0
220
0
230
1
100
AcDbArc
50
201.81375573224355
51
244.24759072284249
0
SPLINE
5
128
100
AcDbEntity
8
0
100
AcDbSpline
70
4
71
5
72
35
73
29
74
0
42
0.000000001
43
0.0000000001
44
0.0000000001
40
0.044791471343502136
40
0.044791471343502136
40
0.044791471343502136
40
0.044791471343502136
40
0.044791471343502136
40
0.044791471343502136
40
0.080000000000000002
40
0.12
40
0.16
40
0.20000000000000001
40
0.23999999999999999
40
0.28000000000000003
40
0.32000000000000001
40
0.35999999999999999
40
0.40000000000000002
40
0.44
40
0.47999999999999993
40
0.51999999999999991
40
0.56000000000000005
40
0.59999999999999998
40
0.64000000000000001
40
0.68000000000000005
40
0.72000000000000008
40
0.76000000000000023
40
0.80000000000000016
40
0.8400000000000003
40
0.88000000000000023
40
0.92000000000000004
40
0.96000000000000041
40
1
40
1
40
1
40
1
40
1
40
1
41
1
41
1
41
1
41
1
41
1
41
1
41
1
41
1
41
1
41
1
41
1
41
1
41
1
41
1
41
1
41
1
41
1
41
1
41
1
41
1
41
1
41
1
41
1
41
1
41
1
41
1
41
1
41
1
41
1
10
24.066478671529357
20
-14.865101576659024
30
0
10
24.182175509430436
20
-14.843467301504372
30
0
10
24.42883347211491
20
-14.796882699718489
30
0
10
24.805000392710937
20
-14.72425165430314
30
0
10
25.307675726180708
20
-14.623394695780863
30
0
10
25.930392591750902
20
-14.489100249590399
30
0
10
26.554511360725726
20
-14.338743305391951
30
0
10
27.159932387540024
20
-14.167802409332715
30
0
10
27.740937248305208
20
-13.964522106576865
30
0
10
28.290887609558048
20
-13.713408790688451
30
0
10
28.801949529945368
20
-13.399062501406153
30
0
10
29.26487941902398
20
-13.009338008065987
30
0
10
29.66875703011624
20
-12.538894841979086
30
0
10
30.000814454872572
20
-11.992510362664401
30
0
10
30.246043519955034
20
-11.389081306507649
30
0
10
30.390303958048065
20
-10.756521985256695
30
0
10
30.423511956494099
20
-10.126312235131332
30
0
10
30.343222201446775
20
-9.5279466888122641
30
0
10
30.157380475080121
20
-8.9840918982804823
30
0
10
29.889538641734617
20
-8.5037139182440757
30
0
10
29.574893260157914
20
-8.0830195244555849
30
0
10
29.249426879361522
20
-7.7123505191399389
30
0
10
28.94073811658987
20
-7.3814220997078603
30
0
10
28.658915607130098
20
-7.0848346934216222
30
0
10
28.385136825361315
20
-6.8284356620757825
30
0
10
28.145051409323937
20
-6.6652394408939486
30
0
10
27.938217245101733
20
-6.5718736672685747
30
0
10
27.786231889766128
20
-6.5233493400434917
30
0
10
27.70671564866236
20
-6.5025168620512366
30
0
0
LINE
5
129
100
AcDbEntity
8
0
100
AcDbLine
10
24.066478671512925
20
-14.865101576662095
30
0
11
17.282891740102436
21
-16.9145335399758
31
0
0
ARC
5
130
100
AcDbEntity
8
0
100
AcDbCircle
10
16.704479926537594
20
-14.999999713184131
30
0
40
2.0000000000002283
210
-0
220
0
230
1
100
AcDbArc
50
270.00000027686502
51
286.81042079772408
0
LINE
5
131
100
AcDbEntity
8
0
100
AcDbLine
10
-16.673340116184544
20
-16.999999874472309
30
0
11
16.704479936202006
21
-16.999999713184359
31
0
0
ARC
5
132
100
AcDbEntity
8
0
100
AcDbCircle
10
-16.673340130681112
20
-13.999999874472318
30
0
40
2.9999999999999876
210
0
220
0
230
1
100
AcDbArc
50
257.57147934514182
51
270.000000276864
0
LINE
5
133
100
AcDbEntity
8
0
100
AcDbLine
10
-17.319004534133185
20
-16.929695674058824
30
0
11
-26.600264245354673
21
-14.884234498336983
31
0
0
SPLINE
5
134
100
AcDbEntity
8
0
100
AcDbSpline
70
4
71
5
72
31
73
25
74
0
42
0.000000001
43
0.0000000001
44
0.0000000001
40
0.02039040054167433
40
0.02039040054167433
40
0.02039040054167433
40
0.02039040054167433
40
0.02039040054167433
40
0.02039040054167433
40
0.050000000000000003
40
0.10000000000000001
40
0.15000000000000002
40
0.20000000000000001
40
0.25
40
0.29999999999999999
40
0.34999999999999998
40
0.40000000000000002
40
0.45000000000000001
40
0.5
40
0.54999999999999993
40
0.59999999999999998
40
0.65000000000000002
40
0.70000000000000007
40
0.75000000000000022
40
0.80000000000000016
40
0.8500000000000002
40
0.90000000000000024
40
0.9500000000000004
40
1
40
1
40
1
40
1
40
1
40
1
41
1
41
1
41
1
41
1
41
1
41
1
41
1
41
1
41
1
41
1
41
1
41
1
41
1
41
1
41
1
41
1
41
1
41
1
41
1
41
1
41
1
41
1
41
1
41
1
41
1
10
-26.600264245354673
20
-14.884234498336983
30
0
10
-26.744152124662648
20
-14.848963171278024
30
0
10
-27.128275612263963
20
-14.750908919949488
30
0
10
-27.741644678905676
20
-14.577154053336423
30
0
10
-28.564331326604201
20
-14.304414879681573
30
0
10
-29.565644345797377
20
-13.898815920780898
30
0
10
-30.58779555493944
20
-13.3884933418722
30
0
10
-31.528806084323456
20
-12.811542502949639
30
0
10
-32.368214520968017
20
-12.172630770298225
30
0
10
-33.075326065428683
20
-11.480436778864407
30
0
10
-33.610953914077953
20
-10.74760298433667
30
0
10
-33.938828164333948
20
-9.9874711118465509
30
0
10
-34.035455480814818
20
-9.2114792912277963
30
0
10
-33.900386821916285
20
-8.4264409617894191
30
0
10
-33.568484154694943
20
-7.6314813265360195
30
0
10
-33.099088000281391
20
-6.8200975260579622
30
0
10
-32.562822641898791
20
-5.9827803158954094
30
0
10
-32.030207933868581
20
-5.109277780201106
30
0
10
-31.558379869859653
20
-4.1912681933450679
30
0
10
-31.182459133987763
20
-3.2241176275466787
30
0
10
-30.922287091823346
20
-2.2055811368458489
30
0
10
-30.813527984366861
20
-1.3491830478650133
30
0
10
-30.788672827907675
20
-0.68360664839898344
30
0
10
-30.797203539043952
20
-0.22958603800949967
30
0
10
-30.807744272585715
20
5.7227579849195101e-08
30
0
0
ENDSEC
0
SECTION
2
OBJECTS
0
DICTIONARY
5
C
100
AcDbDictionary
3
ACAD_GROUP
350
D
3
ACAD_MLINESTYLE
350
17
0
DICTIONARY
5
D
100
AcDbDictionary
0
DICTIONARY
5
1A
330
C
100
AcDbDictionary
0
DICTIONARY
5
17
100
AcDbDictionary
0
ENDSEC
0
EOF
