0
SECTION
2
HEADER
9
$INSUNITS
70
4
9
$ACADVER
1
AC1014
9
$HANDSEED
5
FFFF
0
ENDSEC
0
SECTION
2
TABLES
0
TABLE
2
VPORT
5
8
100
AcDbSymbolTable
0
ENDTAB
0
TABLE
2
LTYPE
5
5
100
AcDbSymbolTable
0
LTYPE
5
14
100
AcDbSymbolTableRecord
100
AcDbLinetypeTableRecord
2
BYBLOCK
70
0
0
LTYPE
5
15
100
AcDbSymbolTableRecord
100
AcDbLinetypeTableRecord
2
BYLAYER
70
0
0
ENDTAB
0
TABLE
2
LAYER
5
2
100
AcDbSymbolTable
70
2
0
LAYER
5
50
100
AcDbSymbolTableRecord
100
AcDbLayerTableRecord
2
0
70
0
6
CONTINUOUS
0
ENDTAB
0
TABLE
2
STYLE
5
3
100
AcDbSymbolTable
70
1
0
STYLE
5
11
100
AcDbSymbolTableRecord
100
AcDbTextStyleTableRecord
2
STANDARD
70
0
0
ENDTAB
0
TABLE
2
VIEW
5
6
100
AcDbSymbolTable
70
0
0
ENDTAB
0
TABLE
2
UCS
5
7
100
AcDbSymbolTable
70
0
0
ENDTAB
0
TABLE
2
APPID
5
9
100
AcDbSymbolTable
70
2
0
APPID
5
12
100
AcDbSymbolTableRecord
100
AcDbRegAppTableRecord
2
ACAD
70
0
0
ENDTAB
0
TABLE
2
DIMSTYLE
5
A
100
AcDbSymbolTable
70
1
0
ENDTAB
0
TABLE
2
BLOCK_RECORD
5
1
100
AcDbSymbolTable
70
1
0
BLOCK_RECORD
5
1F
100
AcDbSymbolTableRecord
100
AcDbBlockTableRecord
2
*MODEL_SPACE
0
BLOCK_RECORD
5
1B
100
AcDbSymbolTableRecord
100
AcDbBlockTableRecord
2
*PAPER_SPACE
0
ENDTAB
0
ENDSEC
0
SECTION
2
BLOCKS
0
BLOCK
5
20
100
AcDbEntity
100
AcDbBlockBegin
2
*MODEL_SPACE
0
ENDBLK
5
21
100
AcDbEntity
100
AcDbBlockEnd
0
BLOCK
5
1C
100
AcDbEntity
100
AcDbBlockBegin
2
*PAPER_SPACE
0
ENDBLK
5
1D
100
AcDbEntity
100
AcDbBlockEnd
0
ENDSEC
0
SECTION
2
ENTITIES
0
LWPOLYLINE
5
100
100
AcDbEntity
8
0
100
AcDbPolyline
90
47
70
1
43
0.0
10
7.7769363785467114
20
11.312455889835107
42
-0.41421349901247423
10
-7.779411124930351
20
11.312454207209726
10
-8.2334673015542936
20
11.76651018738484
42
0.15959493520344703
10
-9.6218107795366983
20
12.469786085613537
10
-14.98197111526345
20
13.284433672770577
42
0.14909163136615761
10
-16.136494201238484
20
13.11563806391314
10
-17.926764966062677
20
12.270235481787996
42
0.50618974073308776
10
-18.235030658755566
20
10.688212718230897
10
-17.940961159311641
20
10.369196571097923
42
0.26794919243112808
10
-16.986356704588896
20
10.071320195694467
42
-0.85865210459514651
10
-16.266033666147656
20
8.2302168335970265
42
0.26794919243108783
10
-16.765043693848366
20
7.3636206229810872
10
-16.761805762090717
20
4.5301530998243944
10
-16.755954294416917
20
-4.5517485867868519
10
-16.755541019739336
20
-7.3852179298696141
42
0.2679491924311232
10
-16.255414711227452
20
-8.2511703971184112
42
-0.85865210459514429
10
-16.973364707458906
20
-10.093200438281414
42
0.26794919243112725
10
-17.927584526392678
20
-10.392306668831699
10
-18.221242697761763
20
-10.711701488800543
42
0.5061897407330872
10
-17.910938667869289
20
-12.293325707993198
10
-16.119580004386584
20
-13.136420646901922
42
0.14909163136615794
10
-14.964840367075185
20
-13.303728398189225
10
-9.6057342357514539
20
-12.482174389515704
42
0.15959493520344645
10
-8.2182981511342597
20
-11.777110056998641
10
-7.7648274476227019
20
-11.322469357412817
42
-0.4142134990124739
10
7.7915071424555107
20
-11.302425144387955
10
8.2461629320792902
20
-11.755910702901229
42
0.15188906425488669
10
9.5612191543636484
20
-12.444954834303276
10
14.011270334124255
20
-13.260071164516891
42
0.13260728940739508
10
15.050249085217946
20
-13.174145398961903
10
17.738412189330749
20
-12.204478083137051
42
0.53631362939464233
10
18.134526710074912
20
-10.586206722337909
10
17.938499482113176
20
-10.373448843816595
42
0.26794919243112664
10
16.983965660113615
20
-10.075346206024001
42
-0.85861837948326469
10
16.264011828817345
20
-8.2341110460856815
42
0.26794919243112547
10
16.763159967753573
20
-7.3675943783888043
10
16.755904311511095
20
0.010795826227518734
10
16.75365217463079
20
7.3891892546104909
42
0.26794919243112619
10
16.253387857496982
20
8.2550620010361122
42
-0.85861837948326025
10
16.970968477055415
20
10.09722336417056
42
0.26794919243112653
10
17.92511737176314
20
10.39655576590487
10
18.120870277360122
20
10.609566068297948
42
0.53631362939464289
10
17.722670782441963
20
12.227325652715241
10
15.03326039771448
20
13.193528198878489
42
0.13260728940739508
10
13.994171785361278
20
13.278115065993399
10
9.5451746584127477
20
12.457265080506787
42
0.15188906425488694
10
8.2310074296052775
20
11.766526940893286
0
LINE
5
101
100
AcDbEntity
8
0
100
AcDbLine
10
-16.756621012521073
20
-0.0069466974617549138
30
0
11
-16.756608529840094
21
-0.017870112097044425
31
0
0
LINE
5
102
100
AcDbEntity
8
0
100
AcDbLine
10
-16.756621012521073
20
-0.0069466974617549138
30
0
11
-16.756615198237892
21
0.0039767227589857131
31
0
0
ARC
5
103
100
AcDbEntity
8
0
100
AcDbCircle
10
-9
20
-4.6392176387210977
30
0
40
0.99999999999999978
210
0
220
0
230
1
100
AcDbArc
50
180
51
312.99783210599668
0
LINE
5
104
100
AcDbEntity
8
0
100
AcDbLine
10
8.3249429533139008
20
5.35987408038224
30
0
11
4.1327509061187744
21
1.4609750680842737
31
0
0
ARC
5
105
100
AcDbEntity
8
0
100
AcDbCircle
10
9
20
-4.6392176387210977
30
0
40
1
210
0
220
0
230
1
100
AcDbArc
50
-132.99783210599674
51
0
0
LINE
5
106
100
AcDbEntity
8
0
100
AcDbLine
10
8.3180293125739162
20
-5.3705971445124447
30
0
11
4.1308648637444083
21
-1.4662993142845293
31
0
0
LINE
5
107
100
AcDbEntity
8
0
100
AcDbLine
10
-16.756616051942114
20
-0.014645875337854029
30
0
11
-16.756617645173947
21
-0.0037224536864943194
31
0
0
ARC
5
108
100
AcDbEntity
8
0
100
AcDbCircle
10
-9.0059706195528015
20
4.6276163949891815
30
0
40
1.0000000000000024
210
0
220
-0
230
1
100
AcDbArc
50
47.075999205295467
51
180.07383131128765
0
ARC
5
109
100
AcDbEntity
8
0
100
AcDbCircle
10
9.0059706195528015
20
4.6276163949891815
30
0
40
1.0000000000000013
210
0
220
0
230
1
100
AcDbArc
50
-0.073831311287608004
51
132.92400079470454
0
CIRCLE
5
110
100
AcDbEntity
8
0
100
AcDbCircle
10
9.9987743825705095
20
9.9987599879277731
30
0
40
1.4999999999999989
210
0
220
0
230
1
0
LINE
5
111
100
AcDbEntity
8
0
100
AcDbLine
10
-10
20
0
30
0
11
-10
21
-4.6392176387210977
31
0
0
LINE
5
112
100
AcDbEntity
8
0
100
AcDbLine
10
9.9999916975581389
20
-0.012885991164937362
30
0
11
10.005969789308617
21
4.6263277958727658
31
0
0
LINE
5
113
100
AcDbEntity
8
0
100
AcDbLine
10
-16.756616051942114
20
-0.014645875337854029
30
0
11
-16.756596161754118
21
-0.025569278997208365
31
0
0
LINE
5
114
100
AcDbEntity
8
0
100
AcDbLine
10
-9.9999916975581389
20
-0.012885991164937362
30
0
11
-10.005969789308617
21
4.6263277958727658
31
0
0
LINE
5
115
100
AcDbEntity
8
0
100
AcDbLine
10
-8.3180293125739162
20
-5.3705971445124456
30
0
11
-4.1308648637444083
21
-1.4662993142845293
31
0
0
LINE
5
116
100
AcDbEntity
8
0
100
AcDbLine
10
-8.3249429533139008
20
5.3598740803822409
30
0
11
-4.1327509061187744
21
1.4609750680842737
31
0
0
LINE
5
117
100
AcDbEntity
8
0
100
AcDbLine
10
10
20
0
30
0
11
10
21
-4.6392176387210977
31
0
0
CIRCLE
5
118
100
AcDbEntity
8
0
100
AcDbCircle
10
10.011650474432685
20
-9.9858672746800341
30
0
40
1.5000000000000002
210
0
220
0
230
1
0
CIRCLE
5
119
100
AcDbEntity
8
0
100
AcDbCircle
10
-9.9883441483376849
20
-10.011628058263067
30
0
40
1.4999999999999991
210
0
220
0
230
1
0
ARC
5
120
100
AcDbEntity
8
0
100
AcDbCircle
10
5.4948062385965715
20
-0.0035403027018376947
30
0
40
1.9999999999999951
210
0
220
0
230
1
100
AcDbArc
50
132.92400079470457
51
227.00216789400332
0
CIRCLE
5
121
100
AcDbEntity
8
0
100
AcDbCircle
10
-10.00123683064357
20
9.9987487747222854
30
0
40
1.4999999999999996
210
0
220
0
230
1
0
ARC
5
122
100
AcDbEntity
8
0
100
AcDbCircle
10
-5.4948062385965715
20
-0.0035403027018376947
30
0
40
1.9999999999999953
210
0
220
0
230
1
100
AcDbArc
50
-47.002167894003307
51
47.075999205295425
0
ENDSEC
0
SECTION
2
OBJECTS
0
DICTIONARY
5
C
100
AcDbDictionary
3
ACAD_GROUP
350
D
3
ACAD_MLINESTYLE
350
17
0
DICTIONARY
5
D
100
AcDbDictionary
0
DICTIONARY
5
1A
330
C
100
AcDbDictionary
0
DICTIONARY
5
17
100
AcDbDictionary
0
ENDSEC
0
EOF
